<svg xmlns="http://www.w3.org/2000/svg" width="96" height="45" fill="none" viewBox="0 0 96 45">
  <path fill="#734929" d="M27.05 13.516c-6.972 0-13.3-2.386-18.738-6.345-.033 3.86-.062 7.716-.099 11.568-.21.124-.425.252-.628.375C3.61 21.584.952 25.325.208 29.35c-.02.107-.037.223-.058.326-.008.087-.02.165-.037.26.405 3.935 2.009 6.21 2.926 7.27 4.315 5.033 13.051 6.152 21.568 2.345 4.906-1.66 10.196-4.079 15.427-7.63a53.585 53.585 0 0 0 2.124-1.502c.009-.442.021-.88.021-1.32.12-6.586.24-13.158.356-19.743-4.74 2.646-10.196 4.161-15.481 4.161h-.004Z"/>
  <path fill="#80552E" d="M32.029 26.059c-3.852-3.51-9.782-5.149-9.782-5.149l-.265-7.831c-5.004-.855-9.608-2.948-13.707-5.937-.017 3.869-.017 7.733-.05 11.597-.21.124-.426.252-.628.376C3.609 21.583.956 25.324.22 29.349c-.02.107-.037.223-.058.326-.008.087-.02.165-.037.26.405 3.935 2.008 6.21 2.926 7.27 4.314 5.033 13.543 7.328 22.056 3.518 2.19-.743 4.649-2.444 7.062-3.976 1.906-1.21 2.897-3.46 2.455-5.672-.368-1.83-1.112-3.67-2.595-5.02v.004Z"/>
  <path fill="#613D25" d="M45.11 28.52s.007-.01.011-.01c.03-1.399.224-11.29.253-12.645l.17-8.41a31.958 31.958 0 0 1-3.67 2.267c.384 6.651-.137 14.87-5.047 22.17-2.541 3.782-4.277 4.88-9.608 7.382-8.7 4.012-19.084 2.976-23.767-2.048-2.355-2.527-3.1-5.586-3.33-7.138a12.97 12.97 0 0 0-.108 2.374s.231 4.264 3.426 8.12c1.913 2.304 5.69 3.82 10.385 4.005 3.447.136 30.57.02 31.792.02l-.442-14.193c.02-1.09-.095-.81-.074-1.9l.008.005Z"/>
  <path fill="#734929" d="m91.742 25.068.008-.02c-.31-5.772-.682-12.832-1.033-19.4-5.58 3.521-12.258 5.569-18.704 5.569-7.266 0-13.89-2.362-19.655-6.313.198 4.017.4 8.109.603 11.296-.231.16-.45.31-.67.47-4.231 3.08-6.9 7.456-7.4 12.014-.01.128-.03.252-.042.38-.008.09-.008.19-.02.289.76 4.36 2.74 6.775 3.85 7.885 5.224 5.276 15.928 6.135 25.123 1.21 5.343-2.25 18.807-11.023 19.53-11.642-.02-.5-1.57-1.251-1.59-1.738Z"/>
  <path fill="#80552E" d="M80.906 23.557v-.008c-3.55-2.407-7.716-5.533-11.964-5.553a.733.733 0 0 1-.65-.351.712.712 0 0 1-.359-.648V12.22a1.46 1.46 0 0 0-1.223-1.44c-4.401-.715-8.521-2.3-12.307-4.563-1.029-.615-2.318.22-2.198 1.412.28 2.783.541 5.479.706 7.745.038.508-.198.987-.607 1.288 0 0-.004 0-.009.004-4.231 3.08-6.9 7.456-7.401 12.014-.008.128-.029.252-.041.38-.009.09-.009.19-.021.289.76 4.36 2.74 6.775 3.852 7.885 5.215 5.268 20.332 10.49 25.076 1.235.525-1.024.062-.025.091-.042 11.547-7.72 9.745-13.041 7.059-14.862l-.004-.008Z"/>
  <path fill="#A07752" d="M55.77 17.971c3.773.73 4.393 8.294 4.443 9.194.219 3.138-.12 10.466-4.203 11.605-2.91.81-6.422-1.87-8.034-4.36-2.843-4.396-.79-9.833 1.67-12.814.698-.85 3.43-4.137 6.124-3.63v.005Z"/>
  <path fill="#010101" d="M73.697 12.959c-9.145 0-14.898-2.37-16.997-3.938a1.497 1.497 0 0 1-.302-2.098 1.515 1.515 0 0 1 2.1-.301c1.54 1.16 7.963 3.988 18.997 3.2a1.495 1.495 0 0 1 1.6 1.39 1.49 1.49 0 0 1-1.393 1.598c-1.401.1-2.753.149-4.021.149h.016Z"/>
  <path fill="#A07752" d="M9.384 20.188c3.042.648 3.505 7.543 3.554 8.352.166 2.853-.144 9.528-3.455 10.598-2.355.75-5.194-1.668-6.475-3.935-2.277-3.992-.6-8.959 1.409-11.68.57-.78 2.79-3.79 4.971-3.335h-.004Z"/>
  <path fill="#010101" d="M28.127 15.824c-8.824 0-14.374-2.287-16.403-3.798a1.448 1.448 0 1 1 1.74-2.316c1.488 1.119 7.683 3.848 18.332 3.088A1.447 1.447 0 1 1 32 15.684a55.693 55.693 0 0 1-3.88.144h.008v-.004Zm45.981 12.559c-.36 0-.732-.128-1.013-.388-5.793-5.31-15.047-7.605-18.497-7.605-.83 0-1.5-.669-1.5-1.498 0-.83.67-1.499 1.5-1.499 3.963 0 14.047 2.46 20.518 8.385a1.5 1.5 0 0 1 .091 2.118 1.529 1.529 0 0 1-1.111.491h.008l.004-.004Zm-.41-9.855c-9.145 0-14.897-2.37-16.997-3.938a1.497 1.497 0 0 1-.301-2.097 1.515 1.515 0 0 1 2.099-.302c1.541 1.16 7.964 3.988 18.998 3.2a1.495 1.495 0 0 1 1.599 1.391 1.49 1.49 0 0 1-1.393 1.598c-1.4.099-2.752.148-4.02.148h.016ZM27.712 31.095c-.347 0-.707-.124-.975-.375-5.592-5.12-14.518-7.34-17.85-7.34a1.445 1.445 0 1 1 0-2.89c3.823 0 13.556 2.373 19.8 8.091a1.447 1.447 0 0 1-.983 2.514h.008Zm-.397-9.508c-8.823 0-14.373-2.287-16.402-3.798a1.448 1.448 0 1 1 1.74-2.316c1.487 1.12 7.682 3.848 18.332 3.088a1.447 1.447 0 1 1 .202 2.886 55.632 55.632 0 0 1-3.88.145h.008v-.005Z"/>
  <path fill="#010101" d="m21.013 13.281-1.504-.578c-4.422-1.697-5.881-5.264-5.356-8.054.434-2.333 2.21-3.906 4.43-3.906 1.062 0 1.95.434 2.587 1.263 1.95 2.527.694 8.071.26 9.723l-.413 1.56v-.008h-.004Zm-2.434-9.644c-1.207 0-1.517 1.177-1.583 1.532-.24 1.284.339 2.881 2.017 4.041.454-2.497.413-4.714-.145-5.44-.066-.096-.116-.137-.297-.137h.008v.004ZM68.496 11.6l-1.67-.04c-4.9-.12-7.575-3.089-8.042-5.987-.388-2.427.79-4.578 2.963-5.358 1.03-.372 2.063-.26 2.972.33 2.781 1.78 3.5 7.637 3.653 9.396l.149 1.668-.02-.008h-.005Zm-5.583-8.595s-.1.009-.17.042c-1.17.42-1.07 1.68-1 2.047.211 1.33 1.331 2.7 3.38 3.237-.429-2.588-1.239-4.748-2.04-5.255a.295.295 0 0 0-.17-.062v-.009Z"/>
  <path fill="#010101" d="M23.15 13.752c-.803 0-1.67-.108-2.588-.347L19 13l.579-1.515c.607-1.581 2.81-6.828 5.868-7.753.996-.297 1.98-.136 2.839.483 1.806 1.284 2.335 3.596 1.33 5.747-.966 2.056-3.243 3.781-6.467 3.781v.009Zm-.154-2.903c2.03.038 3.447-.924 3.997-2.113.152-.326.586-1.474-.385-2.172-.145-.107-.202-.095-.318-.066-.88.26-2.203 2.056-3.294 4.339v.012Zm43.438 1.169.029-1.668c.04-1.759.35-7.646 3.02-9.615.873-.64 1.88-.822 2.943-.52 2.21.631 3.541 2.7 3.302 5.148-.281 2.918-2.74 6.068-7.625 6.506l-1.67.149Zm5.02-8.947c-.07 0-.12.03-.181.07-.752.562-1.422 2.787-1.69 5.376 2.012-.669 3.033-2.11 3.161-3.447.041-.38.062-1.64-1.14-1.978a.486.486 0 0 0-.15-.029v.008Z"/>
  <path fill="#613D25" d="M93.938 3.356a34.491 34.491 0 0 1-4.013 2.783c.083 2.048.09 4.203.017 6.436a28.754 28.754 0 0 1-13.39 23.322c-.88.557-1.662 1.073-2.269 1.544-9.406 5.177-19.518 5.007-25.151-.232-2.831-2.638-3.914-5.986-4.294-7.707-.05.879-.029 1.77.079 2.658 0 0 .599 4.74 4.483 8.786 2.026 2.11 5.575 3.439 9.931 3.637 4.319.198 27.383.025 35.165.025 0 0-.174-33.597-.244-35.018l-.314-6.242v.008Z"/>
  <path fill="#010101" d="M45.415 40.727H3.618a.797.797 0 0 0-.798.797v2.29c0 .441.357.798.798.798h41.797c.44 0 .798-.357.798-.797v-2.291a.797.797 0 0 0-.798-.797Zm49.289 0H49.452a.826.826 0 0 0-.827.826v2.233c0 .456.37.826.827.826h45.252c.456 0 .826-.37.826-.826v-2.233a.826.826 0 0 0-.826-.826Z"/>
</svg>
