<svg xmlns="http://www.w3.org/2000/svg" width="96" height="43" fill="none" viewBox="0 0 96 43">
  <path fill="#232323" d="M3.65 42.16S.47 38.656.03 35.06c-.44-3.585 4.22-7.994 4.22-7.994s-1.81-3.71 1.01-6.795c-.04-6.045.25-15.426.36-18.907C5.65.605 6.24 0 6.98 0c0 0 4.26.907 5.79 3.273 4.28-.824 30.73-.323 31.18 3.262C44.4 10.12 42 26.42 42 26.42l.4 8.286s3.04 4.398-.54 7.431"/>
  <path fill="#fff" d="M.09 35.416c.59 3.46 3.56 6.743 3.56 6.743h38.2c2.72-2.303 1.62-5.388.94-6.743H.09Zm34.56-15.478c2.956 0 5.35-2.351 5.35-5.253 0-2.9-2.395-5.253-5.35-5.253-2.954 0-5.35 2.352-5.35 5.253 0 2.902 2.396 5.253 5.35 5.253Z"/>
  <path fill="#B5B5B5" fill-rule="evenodd" d="M36.25 31.122c-.573 0-1.04.485-1.04 1.084 0 .598.467 1.084 1.04 1.084.575 0 1.04-.486 1.04-1.084 0-.599-.465-1.084-1.04-1.084Zm-2.04 1.084c0-1.175.914-2.127 2.04-2.127 1.128 0 2.04.952 2.04 2.127 0 1.174-.912 2.126-2.04 2.126-1.126 0-2.04-.952-2.04-2.126Zm-7.049-.886c-.574 0-1.04.485-1.04 1.084 0 .598.466 1.084 1.04 1.084.574 0 1.04-.486 1.04-1.084 0-.599-.466-1.084-1.04-1.084Zm-2.04 1.084c0-1.175.913-2.127 2.04-2.127s2.04.952 2.04 2.127c0 1.174-.913 2.126-2.04 2.126s-2.04-.952-2.04-2.126ZM14.93 25.41c-.574 0-1.04.485-1.04 1.084 0 .599.466 1.084 1.04 1.084.575 0 1.04-.485 1.04-1.084 0-.599-.465-1.084-1.04-1.084Zm-2.04 1.084c0-1.174.914-2.126 2.04-2.126 1.127 0 2.04.952 2.04 2.126s-.913 2.126-2.04 2.126c-1.126 0-2.04-.952-2.04-2.126Zm5.08-7.327c-.575 0-1.04.485-1.04 1.084 0 .598.465 1.084 1.04 1.084.574 0 1.04-.486 1.04-1.084 0-.599-.466-1.084-1.04-1.084Zm-2.04 1.084c0-1.174.913-2.126 2.04-2.126 1.126 0 2.04.952 2.04 2.126s-.914 2.126-2.04 2.126c-1.127 0-2.04-.952-2.04-2.126Zm2.731-7.827c-.574 0-1.04.485-1.04 1.084 0 .598.466 1.084 1.04 1.084.574 0 1.04-.486 1.04-1.084 0-.6-.466-1.084-1.04-1.084Zm-2.04 1.084c0-1.175.913-2.127 2.04-2.127s2.04.952 2.04 2.127c0 1.174-.913 2.126-2.04 2.126s-2.04-.952-2.04-2.126Zm2.04-7.828c-.574 0-1.04.485-1.04 1.084 0 .599.466 1.084 1.04 1.084.574 0 1.04-.485 1.04-1.084 0-.599-.466-1.084-1.04-1.084Zm-2.04 1.084c0-1.174.913-2.126 2.04-2.126s2.04.952 2.04 2.126-.913 2.126-2.04 2.126-2.04-.952-2.04-2.126Z" clip-rule="evenodd"/>
  <path fill="#4C4C4C" d="M3.09 37.97c-.36-3.284.84-7.755 3.93-9.058.03-.125.05-.26.07-.386.13-1.209-.64-2.199-.67-3.397-.03-1.157.5-2.106.88-3.137.51-1.355.09-2.93.02-4.347-.26-5.795.57-11.558.69-17.343C7.39.104 6.98.021 6.98.021c-.73 0-1.33.604-1.36 1.365-.12 3.481-.41 12.851-.36 18.907-2.82 3.074-1.01 6.795-1.01 6.795S-.42 31.497.03 35.082c.44 3.586 3.62 7.098 3.62 7.098h.74a11.348 11.348 0 0 1-1.3-4.19v-.02Zm39.418-25.286c.32 1.428.55 2.898.72 4.367.5-4.304.93-8.817.72-10.516-.14-1.095-2.7-1.897-6.3-2.47 2.7 1.772 4.12 5.263 4.87 8.62h-.01Z"/>
  <path fill="#fff" d="M4.159 27.161c-.65.646-4.53 4.617-4.13 7.9.44 3.586 3.62 7.098 3.62 7.098h17.39c-2.65-7.504-9.51-14.56-16.88-14.998Z"/>
  <path fill="#0A0106" d="M43.11 36.135c-.11-.271-.22-.521-.32-.72H.09c.04.24.1.48.16.72h42.86Zm-27.169 2.251v.803h27.61c.04-.271.06-.542.05-.803h-27.66Z"/>
  <path fill="#fff" d="M3.68 23.399s6.78.813 10.11 3.356c.19.146.46.104.62-.073 1.33-1.49.74-1.626.74-1.626S9.77 21.502 4.4 21.502c-.71 1.25-.71 1.907-.71 1.907l-.01-.01Zm1.582-4.024v-2.25s6.68-.876 12.28 1.75c.28.136.44.438.41.761-.02.26-.06.48-.11.646-.11.417-.54.657-.94.5-1.83-.698-8.12-2.897-11.64-1.417v.01ZM25.47 8.703c.05-.897.09-1.72.13-2.429-.27 0-.54 0-.81-.01-.04.76-.08 1.574-.13 2.397.27 0 .54.021.8.052l.01-.01Zm-.607 3.45h.41c.05-.845.1-1.678.15-2.47-.27-.021-.54-.042-.8-.053l-.15 2.502c.13 0 .26.02.39.02Zm-.29 3.627h.45c.06-.865.13-1.751.18-2.637-.27 0-.54-.01-.81-.031-.06.917-.12 1.813-.19 2.678h.36l.01-.01Zm.137 3.595c.08-.802.16-1.688.24-2.647-.27 0-.54.01-.81 0-.08.949-.15 1.824-.23 2.585.27 0 .54.02.8.042v.02Zm-.468 3.117c.12-.406.25-1.167.37-2.157h-.07a8.487 8.487 0 0 0-.73-.032c-.1.834-.2 1.47-.3 1.835.26.093.5.219.74.364l-.01-.01Zm-1.89 2.168c.13.062.26.146.38.23.44-.574.81-1.095 1.08-1.523-.09-.052-.17-.114-.26-.166-.05-.021-.1-.053-.14-.073h-.02c-.01 0-.03-.01-.03-.01l-.27-.095h-.01c-.26.417-.63.928-1.07 1.49.12.053.24.105.35.157l-.01-.01Zm-1.532 2.584c.46-.541.91-1.084 1.32-1.594-.08-.052-.15-.104-.23-.146l-.12-.063h-.01s-.02 0-.04-.02c-.08-.032-.15-.063-.23-.084-.04-.01-.09-.02-.13-.031-.41.51-.86 1.042-1.33 1.595.27.104.53.218.78.343h-.01Zm-2.017 2.304c.45-.51.92-1.032 1.37-1.563-.07-.032-.15-.063-.22-.094.13.052-.01 0-.04-.01-.04-.021-.08-.032-.12-.053a1.367 1.367 0 0 0-.22-.073c-.08-.02-.15-.041-.23-.062-.44.5-.88 1.01-1.32 1.5.26.105.52.24.78.365v-.01Zm-1.983 2.189c.4-.427.85-.928 1.32-1.449-.27-.125-.54-.24-.82-.323-.43.48-.85.928-1.23 1.355.25.135.49.281.73.427v-.01Zm-1.389.292c-.29.312-.55.594-.78.833a.428.428 0 0 0 0 .595c.08.083.18.125.28.125.1 0 .21-.042.29-.125.07-.073.42-.449.95-1.022-.25-.146-.49-.281-.75-.406h.01ZM25.65 5.305c.04-.865.07-1.428.07-1.542a.414.414 0 0 0-.39-.438.415.415 0 0 0-.42.396c-.02.49-.05 1.021-.07 1.574.27 0 .54 0 .81.01ZM5.352 11.902s2.42-2.376 12.68.459c.37.104.63.459.63.855v.323c0 .573-.52 1-1.05.865-2.63-.667-9.47-2.147-12.26-.386-.08-1.803 0-2.116 0-2.116ZM5.5 5.44s2.27-2.22 12.61.292c.38.094.64.438.66.845V6.9c.03.573-.48 1.021-1.02.896-2.65-.584-9.58-1.98-12.32-.136.04-2.115.07-2.21.07-2.21v-.01Z"/>
  <path fill="#103E8E" d="M37.64 13.528v-.614h-.67v-.615h-1.32v.615h-.67v.614h-.66v-.614h-.66v-.615h-1.33v.615h-.66v.614H31v1.856h.67v.615h.66v.614h.66v.615h.67v.615h.66v.615h.66v-.615h.67v-.615h.66v-.615h.66V16h.67v-.615h.66v-1.856h-.66Z"/>
  <path fill="#232323" d="M54.771 42.18s-3.49-3.059-4.41-6.238c-.92-3.179 2.92-7.354 2.92-7.354s-2.29-3.39.03-6.388c-.91-5.785-2.01-15.03-2.41-18.541-.09-.775.43-1.429 1.17-1.49 0 0 4.52.605 6.43 2.908 4.36-1.157 33.64-2.666 34.45 1.167.8 3.783-.62 20.564-.62 20.564l1.08 8.068s3.65 4.155-.03 7.052"/>
  <path fill="#fff" d="M50.46 36.254c1.05 3.069 4.31 5.926 4.31 5.926l38.6-.252c2.78-2.193 1.36-5.11.51-6.398l-43.42.724Z"/>
  <path fill="#B5B5B5" fill-rule="evenodd" d="M64.815 27.759c-.076-.573-.639-1.054-1.237-1.032-.567.02-.932.461-.862.99.075.567.624 1.037 1.233 1.022.565-.013.935-.455.866-.98Zm-1.272-2.038c1.101-.039 2.118.808 2.263 1.906.15 1.145-.7 2.091-1.834 2.118-1.091.026-2.102-.792-2.248-1.896-.15-1.14.685-2.087 1.819-2.128Zm3.622-4.06c-.076-.594-.64-1.08-1.261-1.051-.595.027-.978.506-.907 1.052.076.58.636 1.063 1.257 1.041.588-.02.982-.493.911-1.042Zm-1.306-2.056a2.242 2.242 0 0 1 2.298 1.927c.15 1.161-.716 2.137-1.868 2.177-1.12.039-2.139-.806-2.284-1.916-.148-1.145.688-2.135 1.854-2.188Zm1.172-4.797a1.246 1.246 0 0 0-1.243-.898.971.971 0 0 0-.932 1.114c.078.613.65 1.098 1.272 1.07.588-.027 1-.52.926-1.104l-.023-.182Zm-1.299-1.903c1.15-.065 2.194.81 2.325 1.954l.028.241-.022.022a1.963 1.963 0 0 1-1.89 1.977 2.252 2.252 0 0 1-2.309-1.949 1.975 1.975 0 0 1 1.868-2.245Zm.488-4.755c-.092-.622-.675-1.104-1.297-1.062-.61.041-1.03.554-.948 1.172.086.647.669 1.128 1.294 1.094a1.02 1.02 0 0 0 .954-1.167l-.004-.03v-.008Zm-1.364-2.066c1.169-.078 2.218.814 2.36 1.97l.004.03v.013a2.022 2.022 0 0 1-1.887 2.26l-.005.001c-1.154.065-2.19-.802-2.344-1.965-.158-1.192.682-2.229 1.872-2.309Z" clip-rule="evenodd"/>
  <path fill="#4C4C4C" d="M53.661 38.488c-.8-2.928-.27-7.002 2.55-8.28.01-.12.02-.241.01-.362-.04-1.117-.92-2.022-1.12-3.139-.19-1.076.2-1.982.44-2.978.31-1.298-.32-2.787-.59-4.145-1.09-5.603-1.09-11.358-1.81-17.213-.66-.15-1.1-.211-1.1-.211-.75.06-1.26.714-1.17 1.489.41 3.51 1.5 12.756 2.41 18.54-2.31 2.999-.03 6.39-.03 6.39s-3.86 4.144-2.92 7.353c.93 3.18 4.41 6.238 4.41 6.238h.7a11.336 11.336 0 0 1-1.81-3.693l.03.01Zm38.131-25.664a38.71 38.71 0 0 1 1.16 4.476c.23-4.486.36-9.265-.02-11.056-.24-1.167-3.26-1.83-7.42-2.173 3.23 1.69 5.15 5.282 6.27 8.753h.01Z"/>
  <path fill="#fff" d="M53.19 28.669c-.54.614-3.7 4.326-2.84 7.274.93 3.179 4.41 6.237 4.41 6.237l16.97-.11c-3.51-6.812-11.24-13.2-18.54-13.401Z"/>
  <path fill="#0A0106" d="M94.29 36.224a7.669 7.669 0 0 0-.41-.684l-43.42.724c.07.212.16.433.25.644l43.57-.674.01-.01ZM66.223 38.71l.1.733 28.67-.311c.02-.262.02-.513 0-.765l-28.77.352v-.01Z"/>
  <path fill="#fff" d="M52.203 25.198s6.79.523 10.45 2.817c.21.13.47.09.61-.08 1.16-1.45.54-1.56.54-1.56s-5.87-3.189-11.18-2.988c-.52 1.197-.42 1.811-.42 1.811Zm.969-3.853-.32-2.143s6.56-1.157 12.61 1.147c.3.12.51.413.52.724 0 .262 0 .463-.03.634-.06.413-.48.654-.9.523-1.95-.603-8.6-2.444-11.89-.885h.01ZM72.588 9.766c-.05-.926-.1-1.781-.14-2.516-.29.01-.58.03-.87.04.05.785.1 1.62.15 2.476h.87-.01Zm-.258 3.551c.15 0 .29-.01.44-.03-.04-.855-.08-1.71-.13-2.525h-.87c.05.845.09 1.7.13 2.545h.42l.01.01Zm.11 3.652c.16 0 .32-.02.48-.03-.03-.866-.06-1.761-.1-2.656-.28.02-.57.01-.86.01.04.925.08 1.83.11 2.686.13 0 .25 0 .38-.01h-.01Zm.55 3.551c0-.795-.02-1.68-.05-2.626-.28.02-.57.04-.85.05.03.936.04 1.802.05 2.566.28 0 .57 0 .85.01Zm-.15 3.068c.09-.392.13-1.147.14-2.122h-.85c-.01.814-.04 1.438-.11 1.8.28.08.55.192.81.322h.01Zm-1.72 2.153c.14.06.28.131.42.212.39-.564.72-1.087.95-1.51-.1-.05-.19-.1-.29-.15-.05-.02-.11-.04-.16-.06h-.02c-.01 0-.03 0-.03-.01-.1-.031-.19-.061-.29-.081h-.01c-.22.412-.55.915-.94 1.479.13.04.25.09.38.14l-.01-.02Zm-1.292 2.526c.41-.534.81-1.057 1.17-1.56-.08-.04-.17-.09-.25-.13-.04-.02-.09-.04-.14-.06h-.01s-.02 0-.04-.011c-.08-.03-.17-.05-.25-.07l-.14-.03c-.37.492-.77 1.026-1.18 1.559.29.09.57.19.84.302ZM68.049 30.5c.4-.493.81-.996 1.22-1.51a2.234 2.234 0 0 0-.28-.09c-.04-.01-.09-.03-.13-.04-.08-.02-.15-.05-.23-.07-.08-.02-.16-.03-.24-.05-.39.482-.78.975-1.17 1.448.28.09.56.211.83.322v-.01ZM66.3 32.593c.35-.413.74-.876 1.16-1.389a6.6 6.6 0 0 0-.86-.282c-.38.453-.74.886-1.08 1.288.26.12.52.242.78.383Zm-1.36.301c-.25.292-.48.564-.68.785-.14.15-.1.402.08.543.09.07.2.11.3.11.1 0 .2-.04.27-.12.06-.06.37-.423.83-.966-.26-.13-.53-.251-.8-.352Zm7.44-26.65c-.06-.895-.09-1.489-.1-1.61a.478.478 0 0 0-.47-.432c-.23 0-.43.211-.41.453.03.513.07 1.056.11 1.64.29-.02.58-.03.87-.04v-.01Zm-20.207 7.898s2.08-2.475 12.98-.242c.4.08.72.423.77.825l.04.312c.07.573-.41 1.016-.99.915-2.8-.523-9.96-1.62-12.49.252-.35-1.75-.31-2.052-.31-2.052v-.01Zm-.802-6.378s1.97-2.385 13.03-.544c.41.07.74.403.8.815l.05.322c.09.584-.38 1.067-.96.976-2.84-.423-10.16-1.378-12.65.634-.27-2.103-.26-2.203-.26-2.203h-.01Z"/>
</svg>
