<svg xmlns="http://www.w3.org/2000/svg" width="100" height="46" fill="none" viewBox="0 0 100 46">
  <path fill="#0779B9" d="M47.919 16.45c-.244 8.538-.103 23.765-.223 24.215-.807.355-7.38.404-8.224.73-6.1 2.299-5.925 1.151-11.226 1.63-9.423 1.77-23.866.821-26.917-5.302C.675 36.43-.363 33.737.216 29.684a1.23 1.23 0 0 1 .104-.256l.14-.317c1.733-3.875 5.305-6.999 9.857-8.525.24-.079.476-.153.724-.227 1.348-5.286 2.692-10.589 4.044-15.883a38.54 38.54 0 0 0 6.405 5.377c9.34 6.247 18.94 6.685 22.335 6.78 1.886.053 3.073-.104 4.09-.174l.004-.008Z"/>
  <path fill="#028CC9" d="M13.629 38.59s8.422.16 12.048-5.068c3.627-5.228-5.395-10.7-5.395-10.7S14.43 19.001 9.159 19.77c-5.272.766-8.803 8.11-8.943 9.914-.46 5.81 4.027 8.443 13.417 8.901v.008l-.004-.004Z"/>
  <path fill="#185889" d="M47.368 40.19c-.488.372-10.8-.115-16.477-.35 3.969-1.197 5.954-1.197 9.137-5.513 4.85-9.953 5.07-12.508 4.338-19.646a908.93 908.93 0 0 1 3.907-1.445s-.537 25.436-.546 26.839l-.363.115h.004ZM20.97 21.139c-4.235-3.376-.141-4.482-2.473-5.683-2.097-1.077-4.392-3.387-5.93-8.583-.38.256-.847.376-1.31.347l-.05 12.474c4.8.219 8.757 3.264 11.065 5.17 1.513 1.251.967.76 2.2 1.915.433.409 1.136 1.25 1.413 1.779.34.64-1.017-4.312-4.916-7.42Z"/>
  <path fill="#7AC8EC" d="M4.441 28.546c-.504-1.639 2.407-3.73 2.75-3.978 1.211-.855 4.21-2.501 5.528-1.193.93.933.587 2.959-.058 4.192-1.17 2.175-3.77 2.712-5.487 2.472-.483-.066-2.373-.322-2.728-1.498v.009l-.005-.005Z"/>
  <path fill="#0779B9" d="M97.797 3.96c.434 8.43.703 37.159.703 37.159-.707.627-34.83 4.044-39.896-1.284-1.063-1.13-5.164-5.67-5.913-10.068 0-.1 0-.194.021-.293 0-.12.02-.252.041-.372.497-4.596 2.378-6.973 6.48-10.068.21-.16-1.137-5.249-1.48-11.183 18.912 2.856 40.049-3.895 40.049-3.895l-.005.004Z"/>
  <path fill="#185889" d="M97.805 4.967c.02.371.335 6.796.678 13.584.07 1.445.405 21.07.488 22.572-3.924 1.655-10.87.466-24.643.64.248-.459 1.935-1.098 4.151-1.866a23.098 23.098 0 0 0 15.316-18.59c.76-5.397.566-10.274-.17-14.475 1.406-.627 2.803-1.242 4.205-1.865h-.025Zm-49.48 3.565c-.025-.008-.05-.02-.075-.029-1.559-.482-2.419.392-2.53.504-1.013 1.027-1.125 1.774-1.166 2.2-.265-.281-1.204-1.181-2.622-1.26-2.257-.119-3.614 1.977-3.688 2.089-.062-.161-.65-1.535-2.047-1.886-1.186-.301-2.472.293-3.208 1.473-.14-.231-1.307-2.055-3.403-2.2-1.803-.131-3.544 1.028-4.366 2.934.16-1.159-.195-2.31-.972-2.933-1.112-.888-2.977-.595-4.081.936.041-.16.343-1.502-.488-2.62-.69-.916-2.187-.825-3.312-.462h-.029l-.008.008c-1.154-1.081-2.216-1.675-3.453-1.027-1.641.846-.583 2.764-1.48 5.133-.12.153 0 4.279 0 4.708.637 1.886 2.076 2.352 4.97.999.07.181 1.021 2.46 3.403 2.934 2.41.474 4.06-1.333 4.172-1.474.264.244 2.158 1.866 4.759 1.362 2.907-.565 4.151-3.297 4.271-3.56.273.383 1.377 1.856 3.403 2.297 2.096.463 3.705-.495 4.081-.734.103.079 1.894 1.42 3.887.524 1.496-.677 2.48-2.348 2.431-4.197.624.22 1.125.256 1.542.182v-5.9h.008Z"/>
  <path fill="#3D9FD4" d="M11.254 9.205s.546.697 1.187.804l.1 10.378-1.295-.342V9.192l.008.009v.004Z"/>
  <path fill="#E4CDAC" d="M15.915 5.26c-1.153-1.081-2.216-1.675-3.452-1.027-1.642.845-2.3 2.975-1.48 5.133-.12.153-1.58 2.331-.993 4.106.637 1.885 3.068 2.954 5.967 1.605.07.181 1.021 2.46 3.403 2.934 2.41.474 4.06-1.333 4.172-1.473.264.243 2.158 1.865 4.759 1.361 2.906-.565 4.15-3.297 4.275-3.56.273.383 1.377 1.856 3.403 2.298 2.096.462 3.705-.496 4.08-.735.1.083 1.895 1.424 3.892.524 1.496-.677 2.48-2.348 2.43-4.196 1.539.536 2.32 0 2.99-.706 1.46-1.845.468-4.428-1.517-5.043-1.559-.482-2.419.397-2.53.504-1.014 1.027-1.125 1.774-1.167 2.2-.264-.281-1.203-1.18-2.621-1.26-2.258-.119-3.614 1.977-3.688 2.089-.062-.161-.65-1.535-2.047-1.886-1.187-.301-2.472.293-3.208 1.473-.141-.231-1.307-2.06-3.403-2.2-1.803-.131-3.544 1.028-4.367 2.934.162-1.159-.194-2.31-.971-2.933-1.113-.888-2.977-.595-4.081.936.041-.16.343-1.502-.488-2.62-.69-.916-2.188-.825-3.312-.462h-.03l-.007.008-.009-.004Z"/>
  <path fill="#028CC9" d="M72.446 38.263s10.763-2.145 13.731-9.033c2.97-6.887-11.35-10.126-11.35-10.126s-7.475-3.14-13.933-.83c-6.459 2.316-8.547 9.805-8.163 11.88 1.228 6.673 7.65 10.18 19.723 8.118l-.008-.009Z"/>
  <path fill="#7AC8EC" d="M56.851 27.49c-.959-1.433 1.592-4.065 1.894-4.37 1.075-1.086 3.837-3.327 5.582-2.394 1.236.66 1.397 2.653 1.034 3.961-.679 2.315-3.32 3.417-5.198 3.594-.537.054-2.613.24-3.303-.784l-.009-.008Z"/>
  <path fill="#185889" d="M84.73 23.71c-2.097-1.334-3.771-2.976-8.766-4.383a33.98 33.98 0 0 0-6.45-1.35c-2.419-.23-4.99-.688-8.017.108-.7.181-1.6.586-2.27.957L59.264.085s4.221 12.524 7.219 13.886c2.452 1.11 4.647.656 9.713 2.954 3.845 1.16 8.534 6.784 8.534 6.784Z"/>
  <path fill="#3D9FD4" d="m57.741 7.86 2.423 10.712-.943.47L56.63 7.86s.471-.12 1.108 0h.004Z"/>
  <path fill="#185889" d="M62.577 4.166c-1.183-.99-3.097-1.048-4.334-.445-1.641.804.07 2.538-.653 4.716-.12.14 1.402 3.826 1.658 6.058.02.252.29.528 3.196-.78.07.161 1.075 2.27 3.494 2.674 2.452.404 4.102-1.312 4.222-1.432.285.223 2.228 1.696 4.85 1.193 2.935-.574 4.163-3.136 4.283-3.38.286.35 1.44 1.704 3.482 2.08 2.137.392 3.758-.524 4.13-.747.112.07 1.944 1.292 3.95.425 1.517-.656 2.48-2.22 2.397-3.933 1.468.644 2.77.855 3.68-.264 0 0 .505-3.033-.29-5.966-1.405-.97-3.394-.07-4.465.9-1.021.928-1.195 2.165-1.244 2.55-.286-.26-1.245-1.082-2.684-1.119-2.29-.07-3.634 1.886-3.717 2.005-.07-.152-.69-1.423-2.096-1.712-1.203-.264-2.51.301-3.23 1.424-.16-.231-1.376-1.886-3.485-1.99-1.811-.082-3.556 1.007-4.395 2.802.111-1.08-.265-2.137-1.022-2.702-1.124-.826-3.006-.537-4.13.949.029-.153.322-1.411-.538-2.422-.707-.846-1.935-1.18-3.068-.826v-.05l.009-.008Z"/>
  <path fill="#E4CDAC" d="M62.356 2.029c-1.186-.99-3.1-1.048-4.333-.446-1.642.805-2.167 2.823-1.307 4.82-.12.14-1.236 2.187-.607 3.833.67 1.746 3.208 2.654 6.115 1.342.07.16 1.075 2.27 3.494 2.674 2.452.404 4.102-1.313 4.221-1.432.286.222 2.229 1.696 4.85 1.188 2.936-.573 4.164-3.136 4.284-3.38.285.351 1.439 1.705 3.486 2.076 2.137.392 3.754-.524 4.13-.747.112.07 1.944 1.292 3.949.425 1.517-.656 2.48-2.22 2.402-3.932 1.468.643 3.494.433 4.404-.685 1.215-1.502.517-4.498-1.013-5.546-1.406-.97-3.39-.07-4.466.9-1.021.928-1.195 2.166-1.244 2.55-.286-.265-1.245-1.082-2.684-1.119-2.29-.07-3.634 1.886-3.717 2.006-.07-.153-.686-1.424-2.096-1.717-1.204-.26-2.51.301-3.23 1.424-.16-.231-1.376-1.886-3.485-1.985-1.811-.083-3.556 1.007-4.395 2.802.111-1.081-.265-2.138-1.022-2.703-1.124-.825-3.006-.532-4.13.949.029-.153.322-1.411-.538-2.418-.707-.846-1.935-1.18-3.068-.825v-.054ZM47.585 39.84H2.425a.698.698 0 0 0-.698.697v3.887c0 .385.312.697.698.697h45.16a.698.698 0 0 0 .699-.697v-3.887a.698.698 0 0 0-.699-.697Zm51.45 0H58.568a.66.66 0 0 0-.662.66v3.961c0 .365.296.66.662.66h40.467a.66.66 0 0 0 .661-.66V40.5a.66.66 0 0 0-.661-.66Z"/>
</svg>
