<svg xmlns="http://www.w3.org/2000/svg" width="95" height="20" fill="none" viewBox="0 0 95 20">
  <path fill="#59A053" d="m42.347 5.902-1.178 8.922H26.527s1.373-8.55 15.82-8.922ZM94.311 2.8l-1.31 12.024H76.73S78.256 3.3 94.31 2.8Z"/>
  <path fill="#74B859" d="M92.434 14.659h-43.65c-.727 0-1.315.588-1.315 1.315v3.05c0 .726.307.976 1.033.976l43.932-.008c.726 0 1.315-.589 1.315-1.315v-2.703c0-.726-.589-1.315-1.315-1.315Z"/>
  <path fill="#2D673B" d="M68.79 17.43s3.187 3.201 9.319 1.146c4.259-1.427 4.92-3.917 4.92-3.917h-3.572l-10.672 2.77h.004Z"/>
  <path fill="#74B859" d="M49.178 13.637s-1.282-1.295-.418-2.52C49.624 9.894 55.231.55 57.158.14c1.927-.41 4.846.116 6.715 1.108 1.869.993 4.668 2.863 4.668 2.863l5.255 10.552H49.748l-.566-1.022-.004-.004Z"/>
  <path fill="#59A053" d="M61.782 14.659h4.7L65.305 6.31s-1.596 4.526-.748 6.358c.554 1.195-2.779 1.99-2.779 1.99h.005Z"/>
  <path fill="#2D673B" d="M48.762 14.659s1.12-4.203 5.478-4.129c4.358.079 5.76.7 6.926 2.065.657.765.856 2.064.856 2.064h-13.26Z"/>
  <path fill="#E6E6E5" d="M66.792 15.403c-.129-.153-2.8-3.458-1.882-7.764.89-4.161 4.677-7.172 8.688-7.02 3.758.141 7.384 3.045 8.075 7.243.57 3.467-1.034 6.772-3.263 8.604-3.456 2.83-8.732 2.379-11.618-1.059v-.004Z"/>
  <path fill="#9F9F9F" d="M81.985 8.375a8.603 8.603 0 0 0-2.112-4.372A8.568 8.568 0 0 1 81.05 7.13c.57 3.467-1.034 6.772-3.262 8.604-3.333 2.73-8.36 2.4-11.3-.72.322.534.578.86.62.902 2.881 3.442 8.162 3.892 11.618 1.063 2.233-1.828 3.833-5.137 3.263-8.604h-.005Z"/>
  <path fill="#020202" d="M70.043 11.242c-.062-.079-1.372-1.688-.922-3.797.435-2.04 2.291-3.512 4.255-3.438 1.84.067 3.622 1.49 3.961 3.545.281 1.7-.504 3.318-1.6 4.211-1.695 1.386-4.283 1.162-5.694-.521Z"/>
  <path fill="#fff" d="m49.145 10.53 5.023-7.45s-3.146-.43-4.78 1.73c-1.633 2.16-.243 5.72-.243 5.72Z"/>
  <path fill="#74B859" d="M40.769 20H1.228C.554 20 0 19.425 0 18.722v-2.785c0-.704.554-1.278 1.228-1.278h39.541c.674 0 1.228.574 1.228 1.278v2.785c0 .703-.554 1.278-1.228 1.278ZM1.647 13.637s-1.162-1.295-.38-2.52C2.051 9.894 7.133.55 8.877.14c1.745-.41 5.76.248 7.497 1.166 3.394 1.8 2.977 5.022 2.977 5.022l4.61 8.33H2.159l-.512-1.021Z"/>
  <path fill="#59A053" d="M13.29 14.659h6.156L17.779 6.31s-.91 3.14-.901 6.068c0 .799-.53 1.502-1.302 1.7l-2.287.584v-.004Z"/>
  <path fill="#2D673B" d="M1.266 14.659s1.013-4.203 4.965-4.129c3.953.079 5.223.7 6.281 2.065.595.765.777 2.064.777 2.064H1.267Zm19.812 2.73s3.018 2.845 7.728 1.187c4.71-1.659 4.652-3.917 4.652-3.917h-3.503l-8.873 2.73h-.004Z"/>
  <path fill="#E6E6E5" d="M19.096 15.403c-.116-.153-2.49-3.458-1.67-7.764.79-4.161 4.155-7.172 7.715-7.02 3.337.141 6.562 3.045 7.174 7.243.508 3.467-.918 6.772-2.899 8.604-3.068 2.83-7.76 2.379-10.32-1.059v-.004Z"/>
  <path fill="#9F9F9F" d="M32.49 8.123c-.347-2.387-1.542-4.356-3.121-5.634a9.07 9.07 0 0 1 1.951 4.468c.51 3.466-.917 6.77-2.898 8.603-2.592 2.391-6.334 2.432-8.98.319 2.596 3.239 7.144 3.615 10.146.848 1.98-1.829 3.407-5.138 2.898-8.604h.005Z"/>
  <path fill="#020202" d="M21.985 11.242c-.054-.079-1.22-1.688-.82-3.797.385-2.04 2.04-3.512 3.784-3.438 1.637.067 3.217 1.49 3.519 3.545.248 1.7-.45 3.318-1.423 4.211-1.505 1.386-3.804 1.162-5.06-.521Z"/>
  <path fill="#fff" d="M2.782 8.814 6.24 2.986s-1.857.219-2.853 2.378c-1 2.16-.6 3.45-.6 3.45h-.004Z"/>
  <path fill="#59A053" d="M15.336 8.032c-.703-.124-1.228.641-1.092 1.01.178.483 1.638.686 1.902.248.195-.323-.144-1.146-.806-1.258h-.004Zm-2.965.654c-.703-.124-1.228.64-1.091 1.009.177.484 1.637.687 1.902.248.194-.323-.145-1.146-.807-1.257h-.004Zm2.504 2.047c-.492-.02-.975.765-.922 1.092.067.43 1.096.43 1.348-.016.182-.327.046-1.055-.421-1.076h-.005Zm48.36-2.912c-.695-.161-1.261.575-1.146.947.15.493 1.596.778 1.886.356.21-.31-.083-1.15-.736-1.303h-.004ZM60.68 9.55c-.695-.161-1.261.575-1.145.947.149.493 1.596.778 1.885.356.21-.31-.083-1.15-.736-1.303h-.004Zm2.09.716c-.455.19-.55 1.108-.364 1.381.244.36 1.174-.082 1.207-.595.025-.373-.413-.972-.839-.79l-.004.004Z"/>
</svg>
