<svg xmlns="http://www.w3.org/2000/svg" width="93" height="29" fill="none" viewBox="0 0 93 29">
  <path fill="#EDD9C0" d="M18.302 8.964s21.86-3.528 21.868-3.566c-.012.087-2.179 18.374-2.183 18.618-.53.319-29.98 2.28-33.04-1.29-3.151-1.361-4.4-4.368-4.685-7.156a4.691 4.691 0 0 1 .066-.418c.525-2.858 2.406-5.514 5.222-7.268.145-.09.29-.178.442-.264.034-3.736 11.631 1.555 12.305 1.344h.005Zm48.408.331s23.486-2.892 24.54-2.892c.231 6.805.029 16.885.025 17.142-.55.33-21.642-1.523-25.255-.298-6.268 2.808-12.702 1.981-15.878-1.73-.674-.785-1.712-2.415-2.01-5.314.01-.063.046-.183.059-.244.012-.083 0-.377.012-.46.546-2.97 2.357-5.497 5.28-7.321.153-.095.306-.186.463-.277.033-3.876 12.074 1.613 12.773 1.394h-.009Z"/>
  <path fill="#EDD9C0" d="M4.179 13.348s-.629-1.373.446-2.564.935-2.896.935-2.896-.348-2.647-.195-3.176c.153-.534 2.638-2.511 5.789-2.064 3.7-.062 7.161 2.03 7.112 3.607-.05 1.575.045 2.713.045 2.713s0 3.938-1.988 5.965c-1.99 2.026-10.978 3.545-12.14-1.58m48.161.004s-1.013-1.465.326-2.95c1.336-1.489.955-3.387.955-3.387s-.769-2.933-.624-3.553c.149-.62 3.122-3.115 7.69-3.111 5.004-.079 10.023 2.147 10.13 3.93.112 1.782.365 2.22.365 2.22s.438 4.44-2.055 6.991c-2.493 2.552-14.625 5.481-16.783-.136"/>
  <path fill="#F6E8DA" d="M6.247 16.029c.6-2.052 1.24-4.091 1.89-6.126a1.372 1.372 0 0 1-.07-.426V2.925c-1.576.509-2.63 1.443-2.725 1.778-.153.534.194 3.177.194 3.177s.14 1.704-.934 2.896c-1.075 1.19-.447 2.564-.447 2.564.29 1.274 1.063 2.135 2.084 2.68l.008.009ZM56.288 1.175c-1.324.53-2.58 1.047-3.288 1.444a.927.927 0 0 0-.434 1.046 323.963 323.963 0 0 1 1.088 4.401s-.157.881-1.005 2.337c-1.336 1.49-.327 2.95-.327 2.95h.005c.797 2.072 2.952 2.978 5.478 3.172L56.288 1.167v.008Z"/>
  <path fill="#E4C5AE" d="M5.96 13.53s-2.697-.512-.94-2.308c1.754-1.795-.214-1.956.427-2.105 4.2-.968 11.114 3.3 11.114 3.3l.955 1.316-3.713 2.027-6.318.302-1.522-2.532H5.96Z"/>
  <path fill="#D3C1A1" d="m6.246 2.644.009-.008c.05-.043.02-.017-.009.008Z"/>
  <path fill="#E4C5AE" d="M53.047 9.56c.683-.034 8.295-.807 8.295-.807l6.169 4.69-5.47 2.909-9.626-1.25s-.05-5.51.637-5.543h-.005Z"/>
  <path fill="#0779B9" d="M64.663 14.08s3.634-1.811 3.647-5.257c.004-1.82-.19-1.927.272-2.552.976-1.303 6.174.972 6.108 1.907-.063.935-1.36 7.97-6.182 9.741-3.531 1.713-9.48 1.977-13.86.736-4.383-1.24-5.515-4.037-4.945-6.548.244-1.091 3.076-3.35 3.949-4.037-.041.199-.285 1.713-.591 3.227-1.059 1.48 4.895 5.394 11.61 2.784h-.008Z"/>
  <path fill="#184967" d="M70.048 15.764c1.286-.778 1.758-2.064 1.055-2.883-.703-.815-2.316-.848-3.602-.07-1.285.777-1.757 2.068-1.054 2.883.703.815 2.316.848 3.601.07Zm-17.821-3.805c.302-.426.232-.923-.165-1.109-.397-.186-.964.008-1.274.434-.301.426-.231.923.166 1.109.397.186.963-.008 1.273-.434Z"/>
  <path fill="#fff" d="M52.39 11.442c.046-.067.1-.129.149-.187.054-.066.116-.132.17-.194.033-.037.28-.298.136-.153.488-.476 1.025-.881 1.662-1.162a4.064 4.064 0 0 1 1.009-.306c.128-.025.26-.038.389-.054-.273.029.144-.009.215-.009a11.53 11.53 0 0 1 1.893.112c.079.008.157.02.24.03a1.98 1.98 0 0 0 .062.012c.162.029.327.053.484.09a21.86 21.86 0 0 1 3.246.91c1.26.46 2.518 1.068 3.605 1.854.083.062.157.116.306.235a6.163 6.163 0 0 1 .69.662c.034.033.274.344.162.195.083.12.165.244.232.368.033.062.186.418.111.215.046.128.075.252.104.38.012.05.016.104.016.158-.025-.166-.004-.058 0 .05-.012.529.397 1 1.03 1.02.574.022 1.207-.409 1.224-.942.066-2.887-3.3-4.7-5.909-5.762a21.476 21.476 0 0 0-4.76-1.336c-1.541-.244-2.5-.195-4.035.31-1.438.476-2.588 1.444-3.415 2.594-.823 1.15.199 2.006.976.91h.008Z"/>
  <path fill="#D3C1A1" d="m55.75 4.265.008-.008c.058-.033.02-.013-.008.008Zm-3.681 5.286c-.07-.037-.05-.041 0 0Zm3.329-5.58.009-.008c.062-.037.02-.012-.009.008Z"/>
  <path fill="#F6E8DA" d="M5.555 7.888s-1.538 2.73-2.323 4.323c-.786 1.592.194 7.669 2.323 10.841 0 0-4.064-1.331-5.118-5.7 0 0-1.977-4.686 5.118-9.468v.004Z"/>
  <path fill="#0779B9" d="M17.37 7.152c-.281.075-.562.149-.649.426-.198.641-.256 1.671-.364 2.941-.264 3.107-3.093 4.414-3.093 4.414-5.172 1.753-8.22-1.742-8.108-3.508.062-.968.62-3.417.401-3.644 0 .037-.008.074 0 .112.03.517-2.286 2.601-2.642 4.078-.26 1.071-.488 4.88 2.671 6.395 3.16 1.51 7.05 1.108 9.795-.12 2.746-1.229 6.442-5.725 6.678-9.915.095-.687-3.47-1.502-4.689-1.175v-.004Z"/>
  <path fill="#184967" d="M17.907 15.644c.798-.604 1.059-1.605.579-2.238-.48-.628-1.51-.653-2.307-.05-.798.605-1.059 1.606-.58 2.239.48.628 1.51.653 2.308.05ZM4.856 11.64c.186-.484.128-1.038-.128-1.24-.256-.204-.62.02-.806.504-.186.484-.129 1.038.128 1.24.26.203.62-.02.806-.504Z"/>
  <path fill="#fff" d="M4.978 11.346c.033-.053.07-.107.104-.16l.115-.166c.025-.034.203-.253.095-.129.348-.4.736-.736 1.2-.972a2.77 2.77 0 0 1 1.025-.293c-.194.02.103 0 .161-.009.472-.008.939.038 1.406.112.062.008.116.02.174.029-.038-.008-.129-.025.045.008.124.021.24.05.36.079a15.713 15.713 0 0 1 2.419.794c.946.401 1.89.923 2.724 1.6.067.055.116.096.236.208a4.807 4.807 0 0 1 .53.567c.024.032.21.293.128.169.062.103.128.207.182.318.029.054.148.36.09.182.034.108.063.216.087.323.009.046.017.091.021.128-.02-.145 0-.05 0 .042.008.45.318.848.79.872.426.021.88-.339.872-.79-.033-2.448-2.576-4.012-4.536-4.934A14.95 14.95 0 0 0 9.65 8.149c-1.149-.22-1.86-.182-2.977.232-1.05.388-1.873 1.203-2.447 2.171-.575.968.202 1.704.752.782v.012Z"/>
  <path fill="#F6E8DA" d="M53.483 8.178s-3.242 2.56-3.523 4.786c-.277 2.225.562 7.478 8.033 11.76 0 0-6.747.653-9.05-5.382 0 0-1.865-3.47.024-6.597 1.89-3.128 3.077-3.773 4.511-4.563l.005-.004Z"/>
  <path fill="#E4C5AE" d="m40.176 5.398-2.184 18.618H25.617S35.9 21.63 40.176 5.398Zm51.071 1.005.112 8.41.12 9.344-12.686-.14s9.241-1.7 12.454-17.614Z"/>
  <path fill="#fff" d="M38.255 22.726H4.425a.608.608 0 0 0-.609.608v4.078c0 .336.273.608.608.608h33.83a.608.608 0 0 0 .608-.608v-4.078a.608.608 0 0 0-.607-.608Zm53.107 0H51.19a.662.662 0 0 0-.662.661v3.971c0 .366.297.662.662.662h40.173a.662.662 0 0 0 .662-.662v-3.97a.662.662 0 0 0-.662-.662Z"/>
</svg>
