<svg xmlns="http://www.w3.org/2000/svg" width="91" height="28" fill="none" viewBox="0 0 91 28">
  <g clip-path="url(#a)">
    <path fill="#9098DD" d="M35.5 24.5c-2.5.328-5.777 1.19-7.318 1.104a1.19 1.19 0 0 1-.634-.227l-1.444-1.056s-.804-.208-1.677 1.018c-.162.227-.41.382-.688.424-4.508.628-15.48.915-21.282-2.048A4.19 4.19 0 0 1 .378 21.32c-1.166-3.466 1.051-5.612 1.051-5.612S.355 12.06 1.132 9.161c.266-.999 1.325-3.16 3.368-4.66 1-.735 4-2.001 7.839-1.648 3.84.354 5.937 1.498 9.167 3.58 3.005 1.937 3.412 4.155 6.645 6.297 2.979 1.972 5.047 2.19 6.38 1.902.857-.185 2.21.288 2.261 1.162.175 2.916-.339 6.005-1.293 8.706Z"/>
    <path fill="#9098DD" d="M28.592 10.463S36.05 2.956 37.754.412c.099-.149.329-.12.367.054.21.965.52 3.315-.59 5.962a.375.375 0 0 1-.083.124L30 14l-2.5-3.537h1.092Z"/>
    <path fill="#6773BA" d="M28.442 12.832c-.68-.45-1.31-.93-1.897-1.419a2.667 2.667 0 0 0-.49 3.11c.687 1.34 2.352 1.881 3.72 1.208a2.73 2.73 0 0 0 1.348-1.48c-.85-.34-1.75-.802-2.685-1.423l.004.004Z"/>
    <path fill="#A4AEEA" d="M28.149 15.44c1.532 0 2.774-1.217 2.774-2.718 0-1.5-1.242-2.717-2.774-2.717s-2.774 1.217-2.774 2.717c0 1.501 1.242 2.717 2.774 2.717Z"/>
    <path fill="#6773BA" d="M28.148 14.52c1.013 0 1.835-.805 1.835-1.798 0-.992-.822-1.797-1.835-1.797-1.014 0-1.835.805-1.835 1.797 0 .993.821 1.798 1.835 1.798Z"/>
    <path fill="#A4AEEA" d="M36.501 20.5c.5 1 .628 1.705.5 2.5-.104.636-.353 1.474-1.5 2-1.924.772-5.741.695-7.306.604a1.23 1.23 0 0 1-.657-.235l-.784-.571a1.554 1.554 0 0 0-2.067.212 3.421 3.421 0 0 0-.274.344.955.955 0 0 1-.645.401c-4.49.632-15.496.927-21.314-2.043a4.19 4.19 0 0 1-2.078-2.396 6.818 6.818 0 0 1-.162-.556c-.642-2.626.324-6.846.757-7.356 1 3.11 3.693 6.603 10.94 7.02 6.472.37 11.695-2.127 13.182-2.756l.259-.09c.626-.22 1.321 1.805 1.82 2.236.13.117.266.23.386.337 1.26 1.105 2.89 1.423 4.535 1.582 2.179.208 2.908 0 4.408-1.233Z"/>
    <path fill="#6773BA" d="M36.998 23c-.104.636-.232 1.512-1.5 2-1.885.753-5.49.706-7.205.607a1.606 1.606 0 0 1-.842-.299l-.7-.51a1.554 1.554 0 0 0-2.066.212c-.082.09-.163.189-.244.302-.185.254-.32.413-.626.5-4.265 1.223-12.56 2.698-21.363-2.1-.97-.53-1.731-1.363-2.079-2.396a6.82 6.82 0 0 1-.162-.556c8.101 4.881 14.761 4.999 23.604 2.982 1.183-1.242 2.936-1.367 3.844.045C31.5 24.5 33 24.5 37 23ZM10.093 5.881c.56-.669.549-1.585-.025-2.046-.575-.461-1.494-.293-2.054.377-.56.669-.548 1.585.026 2.046.574.461 1.493.292 2.053-.377Zm6 1c.56-.669.549-1.585-.026-2.046-.574-.461-1.493-.293-2.053.377-.56.669-.548 1.585.026 2.046.574.461 1.494.292 2.053-.377Zm-4 4c.56-.669.549-1.585-.025-2.046-.575-.461-1.494-.293-2.054.377-.56.669-.548 1.585.026 2.046.574.461 1.494.292 2.053-.377Zm-7-2c.56-.669.549-1.585-.025-2.046-.575-.461-1.494-.293-2.054.377-.56.669-.548 1.585.026 2.046.574.461 1.493.292 2.053-.377Zm14.532 1.431c.56-.669.548-1.585-.026-2.046-.575-.461-1.494-.292-2.054.377-.56.669-.548 1.585.026 2.046.574.461 1.494.293 2.054-.377Z"/>
  </g>
  <g clip-path="url(#b)">
    <path fill="#9098DD" d="M86.5 25.5c-2.5.328-5.775 1.19-7.317 1.104a1.19 1.19 0 0 1-.633-.227l-1.445-1.056s-.804-.208-1.677 1.018c-.162.227-.41.382-.687.424-4.509.628-15.48.915-21.283-2.048a4.19 4.19 0 0 1-2.078-2.395c-1.167-3.466.62-7.82.62-7.82s-.936-3.567 0-5.5c1.258-2.594 3.277-3.424 6.001-4.5 1.637-.647 6.065-1 8.34-.647C68.613 4.207 72.282 5.283 75 8c2.5 2.5 3.897 5.562 4.151 5.73 2.98 1.972 5.048 2.19 6.38 1.902.857-.185 2.21.287 2.262 1.162.174 2.916-.34 6.005-1.293 8.706Z"/>
    <path fill="#9098DD" d="M81.25 12.793s5.546-8.117 6.956-11.06c.087-.18.37-.154.406.044.221 1.224.56 3.936-.122 6.648a.38.38 0 0 1-.063.134c-1.303 1.783-5.25 7.516-5.25 7.516l-3.006-3.117 1.079-.165Z"/>
    <path fill="#6773BA" d="M81.462 15.157a21.792 21.792 0 0 1-2.09-1.115 2.667 2.667 0 0 0-.014 3.149c.883 1.22 2.61 1.502 3.86.63a2.729 2.729 0 0 0 1.11-1.667 14.825 14.825 0 0 1-2.87-1l.004.003Z"/>
    <path fill="#A4AEEA" d="M81.565 17.779c1.514-.232 2.557-1.623 2.33-3.106-.227-1.483-1.639-2.498-3.153-2.266-1.514.232-2.558 1.623-2.33 3.106.227 1.484 1.639 2.498 3.153 2.266Z"/>
    <path fill="#6773BA" d="M81.425 16.87c1.002-.154 1.692-1.074 1.541-2.055-.15-.981-1.084-1.652-2.086-1.499-1.001.154-1.692 1.074-1.541 2.055.15.981 1.084 1.652 2.086 1.499Z"/>
    <path fill="#A4AEEA" d="M87.501 21.5c.5 1 .627 1.705.5 2.5-.104.636-.353 1.474-1.5 2-1.924.772-5.741.695-7.306.604a1.23 1.23 0 0 1-.657-.235l-.784-.571a1.554 1.554 0 0 0-2.067.212 3.421 3.421 0 0 0-.274.344.955.955 0 0 1-.645.401c-4.49.632-15.496.927-21.314-2.043a4.19 4.19 0 0 1-2.078-2.396 6.825 6.825 0 0 1-.162-.556c-.642-2.626.324-6.846.757-7.356 1 3.11 3.693 6.603 10.94 7.02 6.471.37 11.695-2.127 13.182-2.756l.259-.09c.626-.22 1.321 1.805 1.82 2.236.13.117.266.23.386.337 1.26 1.105 2.89 1.423 4.535 1.582 2.179.208 2.908 0 4.408-1.233Z"/>
    <path fill="#6773BA" d="M87.999 24c-.105.636-.233 1.512-1.5 2-1.886.753-5.49.706-7.206.607a1.606 1.606 0 0 1-.842-.299l-.7-.51a1.554 1.554 0 0 0-2.066.212c-.082.09-.163.189-.244.302-.185.254-.32.413-.626.5-4.265 1.223-12.56 2.698-21.363-2.1-.97-.53-1.731-1.363-2.079-2.396a6.827 6.827 0 0 1-.162-.556c8.101 4.881 14.761 4.999 23.604 2.982 1.184-1.242 2.936-1.367 3.844.045C82.5 25.5 84 25.5 88 24ZM61.093 6.881c.56-.669.549-1.585-.026-2.046-.574-.461-1.493-.293-2.053.377-.56.669-.549 1.585.026 2.046.574.461 1.493.292 2.053-.377Zm7 1c.56-.669.549-1.585-.026-2.046-.574-.461-1.493-.293-2.053.377-.56.669-.548 1.585.026 2.046.574.461 1.493.292 2.053-.377Zm-5 5c.56-.669.549-1.585-.026-2.046-.574-.461-1.493-.293-2.053.377-.56.669-.549 1.585.026 2.046.574.461 1.493.292 2.053-.377Zm-7-3c.56-.669.549-1.585-.026-2.046-.574-.461-1.493-.293-2.053.377-.56.669-.549 1.585.026 2.046.574.461 1.493.292 2.053-.377Zm15 2c.56-.669.549-1.585-.026-2.046-.574-.461-1.493-.293-2.053.377-.56.669-.548 1.585.026 2.046.574.461 1.493.292 2.053-.377Z"/>
  </g>
  <defs>
    <clipPath id="a">
      <path fill="#fff" d="M0 0h40v27H0z"/>
    </clipPath>
    <clipPath id="b">
      <path fill="#fff" d="M51 1h40v27H51z"/>
    </clipPath>
  </defs>
</svg>
