<svg xmlns="http://www.w3.org/2000/svg" width="92" height="22" fill="none" viewBox="0 0 92 22">
  <path fill="#EFAE42" fill-rule="evenodd" d="M16.594 8.619s17.552 1.786 23.487-6.747c0 0 .584-.416.82 0 .234.416-3.839 19.92-3.839 19.92H18.98l-5.58-4.69 3.195-8.483Z" clip-rule="evenodd"/>
  <path fill="#1E1E1E" fill-rule="evenodd" d="M38.99 12.336c1.095-5.41 2.038-10.234 1.91-10.464-.23-.416-.82 0-.82 0-5.934 8.533-28.428 6.631-28.428 6.631l1.042 4.245c8.945 0 17.528.131 26.291-.412h.005Zm-25.592 4.767h23.837L36.999 22H18.436l-5.038-4.897Z" clip-rule="evenodd"/>
  <path fill="#C59980" fill-rule="evenodd" d="M.67 22S-2.766 7.92 6.348 2.63h5.308s-.716 3.935-1.046 5.524c0 0 6.84.35 7.5.522 0 0-1.277 3.536-3.402 7.348 0 0 .942 1.522 4.29 5.976H.67Z" clip-rule="evenodd"/>
  <path fill="#1E1E1E" fill-rule="evenodd" d="M.174 13.283C-.374 17.745.678 22 .678 22h9.324c-.165-4.73-5.158-8.697-9.832-8.717h.004Z" clip-rule="evenodd"/>
  <path fill="#DDB6A2" fill-rule="evenodd" d="M9.463 2.63h-3.15C-2.798 7.918.632 21.791.632 21.791h3.15S.35 7.918 9.464 2.628Z" clip-rule="evenodd"/>
  <path fill="#575858" fill-rule="evenodd" d="M3.24 13.818a9.583 9.583 0 0 0-3.067-.535c-.111.901-.16 1.786-.17 2.626 0 3.33.498 6.091.498 6.091h3.5s-1.123-3.893-.764-8.182h.004Z" clip-rule="evenodd"/>
  <path fill="#C95B80" fill-rule="evenodd" d="M29.309 21.791s.523-9.59 10.09-11.312L36.998 22h-7.69v-.207Z" clip-rule="evenodd"/>
  <path fill="#EFAE42" fill-rule="evenodd" d="M66.017 7.602S84.924 9.528 91.316.332c0 0 .107-.617.358-.169.251.45-3.612 21.629-3.612 21.629H68.583L62.57 16.74l3.443-9.138h.004Z" clip-rule="evenodd"/>
  <path fill="#1E1E1E" fill-rule="evenodd" d="M91.405 11.653c-.078-6.155.408-11.238.268-11.49-.251-.444-.358.17-.358.17-6.392 9.195-30.62 7.145-30.62 7.145l1.125 4.158c9.636 0 20.146.601 29.585.017ZM63 17h25l-.18 5H68.184L63 17Z" clip-rule="evenodd"/>
  <path fill="#C59980" fill-rule="evenodd" d="M49 22S45.593 7.223 54.035 1.415l5.317-.235.218 5.92s4.501.296 8.5.555c0 0-1.787 5.245-3.562 8.629 0 0 .932 1.579 3.992 5.716H49Z" clip-rule="evenodd"/>
  <path fill="#1E1E1E" fill-rule="evenodd" d="M48.499 11.5c-1.22 5.857.294 10.5.294 10.5H60c-.204-6.116-4.818-10.47-10.5-10.5h-1Z" clip-rule="evenodd"/>
  <path fill="#C95B80" fill-rule="evenodd" d="M84.5 22s.825-9.545 6.908-11.22V22H84.5Z" clip-rule="evenodd"/>
  <path fill="#DDB6A2" fill-rule="evenodd" d="m57.2 1.275-3.166.14c-8.57 6.072-5.3 20.376-5.3 20.376l3.265.209S47.465 6.927 57.201 1.275Z" clip-rule="evenodd"/>
  <path fill="#575858" fill-rule="evenodd" d="M51.115 11.632c-1.145-.276-1.561-.309-2.67-.317-.28 1.247-.382 3.293-.39 4.187 0 3.56.444 6.498.444 6.498H52s-1.272-5.782-.884-10.368Z" clip-rule="evenodd"/>
</svg>
