<svg xmlns="http://www.w3.org/2000/svg" width="93" height="26" fill="none" viewBox="0 0 93 26">
  <path fill="#DD565B" d="M13.042 1.691s15.053 3.545 29.154-.652c.23-.103-.079 21.289-.079 21.289s-20.295 5.414-38.83.19C2.52 22.365.283 18.676.41 17.908c.404-2.612 1.73-7.25 6.565-9.523L7.314.606l5.736 1.09-.008-.005Z"/>
  <path fill="#E1737B" d="M2.89 10.898s4.185.16 6.87 1.452l1.157-2.996s-3.323-1.056-5.63-.289c0 0-1.503.747-2.396 1.837v-.004ZM7 6.82l4.526.203 1.52-5.327L7.309.606 7 6.825V6.82Z"/>
  <path fill="#FBEFF0" d="M19.169 22.1C16.85 8.749 6.839 9.788 5.323 9.628c0 0-.362 0-.935-.009-3.88 2.377-4.34 8.81-4.34 9.413-.128.78-.198 2.158 1.737 3.482 2.735 1.874 7.06 2.62 12.013 2.678 13.253.157 25.538-.016 28.194-.061a.54.54 0 0 0 .531-.541v-2.5a.543.543 0 0 0-.568-.541c-22.066 1.007-22.786.557-22.786.557V22.1Z"/>
  <path fill="#B13B32" d="M18.741 14.822a2.176 2.176 0 0 0 2.179-2.183c0-1.21-.972-2.183-2.179-2.183a2.176 2.176 0 0 0-2.178 2.183c0 1.209.971 2.183 2.178 2.183Z"/>
  <path fill="#B13B32" d="M5.29 9.065s4.702-1.588 11.283 3.145l.28-.788-3.756-3.273-4.134-.218S7.768 7.386 5.289 9.07v-.005Z"/>
  <path fill="#FBEFF0" d="M36 17.533c2.537-.301 4.332-2.868 3.999-5.724-.338-2.867-2.665-4.947-5.214-4.642-2.537.301-4.333 2.868-3.999 5.724.338 2.867 2.664 4.947 5.214 4.642Zm-17.107-4.16a1.11 1.11 0 0 1-.893-.429c-2.64-3.239-6.454-4.82-9.048-4.947-1.112-.046-1.763.173-1.981.383a1.157 1.157 0 1 1-1.635-1.638c.778-.78 2.075-1.151 3.731-1.069 2.887.14 7.425 1.742 10.728 5.794a1.166 1.166 0 0 1-.89 1.906h-.012Z"/>
  <path fill="#DD565B" d="M59.668 1.691s18.84 3.545 32.938-.652c.23-.103-.219 21.289-.219 21.289s-23.943 5.414-42.484.19c-.766-.153-3.002-3.842-2.874-4.61.403-2.612 4.344-7.786 9.18-10.06L53.926.606l5.737 1.09.004-.005Z"/>
  <path fill="#E1737B" d="M50.344 10.898s4.184.16 6.87 1.452l1.157-2.996s-2.982-1.444-5.288-.68c0 0-1.85 1.138-2.743 2.224h.004Zm5.253-3.991 2.554.112 1.52-5.328L53.933.602l1.668 6.305h-.005Z"/>
  <path fill="#FBEFF0" d="M65.797 22.1C63.48 8.749 51.853 9.628 51.627 9.7c-3.765 2.939-4.947 8.728-4.947 9.33-.127.78-.197 2.159 1.738 3.483 2.735 1.874 7.059 2.62 12.013 2.678 13.71.166 29.487-.032 32.065-.066a.37.37 0 0 0 .367-.375v-2.843a.372.372 0 0 0-.392-.372c-22.284 1.016-26.67.566-26.67.566h-.004Z"/>
  <path fill="#B13B32" d="M65.366 14.822a2.176 2.176 0 0 0 2.179-2.183c0-1.21-.972-2.183-2.179-2.183a2.176 2.176 0 0 0-2.178 2.183c0 1.209.971 2.183 2.178 2.183Z"/>
  <path fill="#B13B32" d="M52.918 8.785s4.526-1.312 11.107 3.425l.28-.788-3.756-3.273-4.135-.218s-1.017-.826-3.496.858v-.004Z"/>
  <path fill="#FBEFF0" d="M85.736 17.533c2.747-.301 4.691-2.868 4.329-5.724-.363-2.867-2.883-4.947-5.642-4.642-2.747.301-4.691 2.868-4.329 5.724.363 2.867 2.883 4.947 5.642 4.642Zm-20.218-4.16a1.11 1.11 0 0 1-.893-.429c-2.64-3.239-6.454-4.82-9.048-4.947-1.112-.046-1.763.173-1.981.383a1.157 1.157 0 1 1-1.635-1.638c.778-.78 2.075-1.151 3.731-1.069 2.887.14 7.425 1.742 10.728 5.794a1.166 1.166 0 0 1-.89 1.906h-.012Z"/>
  <path fill="#DD565B" d="M82.5 11.133v-.55h.597v-.548h1.194v.549h.597v.549h.597v-.55h.597v-.548h1.195v.549h.597v.549h.597v1.646h-.597v.549h-.597v.549h-.597v.549h-.598v.549h-.597v.548h-.597v-.548h-.597v-.55h-.597v-.548h-.597v-.549H82.5v-.549h-.598v-1.646h.597Zm-49.546-.137v-.548h.543v-.55h1.088v.55h.543v.548h.544v-.548h.543v-.55h1.088v.55h.543v.548h.544v1.647h-.544v.549h-.543v.549h-.544v.548h-.544v.55h-.543v.548h-.544v-.549h-.543v-.549h-.544v-.548h-.544v-.55h-.543v-.548h-.544v-1.647h.544Z"/>
</svg>
