<svg xmlns="http://www.w3.org/2000/svg" width="94" height="31" fill="none"><path fill="#EBECE7" fill-rule="evenodd" d="M8.6 26c26.8-.1 31-1.8 33-4.7 1.7 6-1.3 8.8-1.3 8.8s-29.7.6-32.2.4A32 32 0 0 1 0 27.2V24l1.5-1.5s1.3 2.6 5.8 3.4l1.3.1Z" clip-rule="evenodd"/><path fill="#992B43" fill-rule="evenodd" d="m10.7.8.1 4.7 4.9.1.2-4.2c0-.7.4-1.3 1-1.2h.4L41 .9c.5 0 .8.4.8 1v7l.3.2a.8.8 0 0 1 .4.8v1.4c0 .4-.2.8-.6 1v3.2l-.2 5.8c-2.5 3.8-6.2 4.6-33 4.6l-1.3-.1c-4.5-.8-5.8-3.4-5.8-3.4v-2.7c0-.8.3-1.6.9-2.2l4.4-4.7L6.9 1c0-.4.3-.9.7-1a5.7 5.7 0 0 1 2.8.3c.2 0 .3.3.3.5Z" clip-rule="evenodd"/><path fill="#363438" fill-rule="evenodd" d="M7 12.8c1-.1 2.3-.3 3.3-.8a3.2 3.2 0 0 0 2-2.8V5.5h-1.5L10.7.8c0-.2 0-.4-.3-.5a5.7 5.7 0 0 0-3-.2c-.4 0-.5.6-.5 1l-.1 11.7h.1Z" clip-rule="evenodd"/><path fill="#EBECE7" fill-rule="evenodd" d="M3.1 17.6c1.6 4.1 9.5 2.2 9.5 2.2l2.2-3s1.2-2.8 1.6-4.5c0-2-.2-6.8-.5-9.3-.1-.7-.7-1.2-1.4-1.2H9.7c-.4 0-.8.3-.8.7l-2 8.4-.1 2-3.9 4 .2.7Z" clip-rule="evenodd"/><path fill="#363438" fill-rule="evenodd" d="m19 3 .3-2.8L41 1c.5 0 1 .4 1.2 1 .3.9.6 2.4-.5 3.7C37 5.4 24.2 4 19.2 3.4c-.2 0-.3-.2-.3-.5Z" clip-rule="evenodd"/><path fill="#701126" fill-rule="evenodd" d="M35.9 16.5s2.3 3.8-1.8 8.4h.6s3.6-4 1.6-8.6l-.4.2Z" clip-rule="evenodd"/><path fill="#992B43" fill-rule="evenodd" d="M17 .2c-.7 0-1.1.5-1.1 1.2l-.2 4.2-.2 6 2.6.7L17 .2Z" clip-rule="evenodd"/><path fill="#363438" fill-rule="evenodd" d="M21.5 8.9c.6 1.1 0 2.7-.6 3.4 1.7 2.2 7.4 2 7.4 2s2.7.3 5.6-1.1c-1.5-2.7-2.6-1.6-12.4-4.3Z" clip-rule="evenodd"/><path fill="#701126" fill-rule="evenodd" d="m35 13-.4.2s-1.3-2.1-3.1-2.5c-1.8-.3-13.8-3-14.2-3.4-.3-.4-1-2.3-.6-3.3a.3.3 0 0 1 .2-.2l24.8 2.8V7l-24.6-3-.2.2c0 .5 0 1.3.6 2.6l.2.1c3 1 14.4 3.5 14.8 3.6.7.3 2.5 2.4 2.5 2.4Z" clip-rule="evenodd"/><path fill="#8E2638" fill-rule="evenodd" d="m41 29.3-.4.6a1.5 1.5 0 0 1-.3.2s-1 0-2.4 0l-.5.1h-3.1l-2.6.1h-.4a723.5 723.5 0 0 0-2.7 0h-3.5a256.8 256.8 0 0 1-2.6.1H19l-2.7.1H9.8a30 30 0 0 1-1.7 0 5.5 5.5 0 0 1-1-.2 7.8 7.8 0 0 1-.4 0c-2.8-.9-6.7-3-6.7-3v-3.4s3.5 3 6.7 3.9a6.6 6.6 0 0 0 1.5.3h5.1l2.6-.1h.4l2.7-.1h3.5l2.6-.2h3.5l2.7-.1h.4l2.6-.1h.5l2.6-.1h1.9c.4 0 .8-.3 1.2-.5l.4-.3.7-.5c.4-.3.4-1 .5-1.4a8 8 0 0 1-1.1 4.6Z" clip-rule="evenodd"/><path fill="#EBECE7" fill-rule="evenodd" d="M41.8 12.3c.4-.2.6-.6.6-1V10A.8.8 0 0 0 42 9l-.3-.1s-7.3 5.4-13.6 5.4c-3.1 0-5.6-.7-7-2.3-1 1.2-1.3 1.6-2.6 2.3-1.3.6-.8 2-1 2.9-.2.5-1.3 2.1-2.2 3.3-.5.5-.5 1.2-.3 1.8l2.5 3.5 24.3-13.6Z" clip-rule="evenodd"/><path fill="#EBECE7" fill-rule="evenodd" d="M35.3 17c2.2 3.3-2.5 8.5-2.5 8.5L23 26l-5.5-.2S32 14.6 35.3 17.1Z" clip-rule="evenodd"/><path fill="#363438" fill-rule="evenodd" d="m23.6 16.4-.3 2.3 18.5-6.4v2l-17.4 7.4 1.4 1.8c.2.2 0 .6-.3.6l-6.8-1.4c-.4 0-.5-.5-.3-.8 1-1 2.8-3.3 4.8-5.8.1-.2.4 0 .4.3Z" clip-rule="evenodd"/><path fill="#363438" d="M16.3 7.7c.6 0 1-.6 1-1.2 0-.7-.4-1.2-1-1.2-.5 0-1 .5-1 1.2s.5 1.2 1 1.2Zm0 6.2c.6 0 1-.4 1-1 0-.5-.4-1-1-1-.4 0-.8.5-.8 1 0 .6.4 1 .9 1Z"/><path fill="#616063" d="M7.5 17c.3 0 .5-.2.5-.4l-.4-.2c-.3 0-.5 0-.5.2s.2.3.5.3ZM6 16.1c.3 0 .5-.1.5-.2 0-.2-.2-.3-.5-.3s-.5.1-.5.3c0 .1.2.2.5.2Zm0 1.7c.3 0 .5 0 .5-.2s-.2-.3-.5-.3-.5.1-.5.3c0 .1.2.2.5.2Zm4.6-1c.3 0 .5-.1.5-.3 0-.1-.2-.2-.5-.2-.2 0-.5 0-.5.2s.3.3.5.3Zm.7 1.8c.2 0 .4-.1.4-.3l-.4-.2c-.3 0-.5.1-.5.2 0 .2.2.3.5.3Zm1.6-1c.3 0 .5 0 .5-.2s-.2-.3-.5-.3c-.2 0-.5.1-.5.3l.5.2Zm-3.6.3c.2 0 .4-.1.4-.3l-.4-.2c-.3 0-.5.1-.5.2 0 .2.2.3.5.3Zm-.9-2.3c.3 0 .5-.2.5-.3 0-.2-.2-.3-.5-.3s-.5.1-.5.3c0 .1.3.3.5.3Zm3.6.4c.3 0 .5-.1.5-.3 0-.1-.2-.2-.5-.2s-.4 0-.4.2.2.3.4.3Z"/><path fill="#701D2F" fill-rule="evenodd" d="M34.8 27.4v2.8h-.5v-2.7h.5Zm-3 .1v2.8h-.5v-2.7h.4Zm-3.2.1v2.7h-.4v-2.7h.4Z" clip-rule="evenodd"/><path fill="#CCC" fill-rule="evenodd" d="M16.6 12.3c-2.7-1.7-6.3-2-9.5-.6-1 .5-.4 1.9.6 1.4 2.7-1 5.7-.9 8 .6.7.5 1.7-.8 1-1.4Z" clip-rule="evenodd"/><path fill="#701D2F" fill-rule="evenodd" d="M25.6 27.7v2.7H25v-2.7h.5Zm-3.1 2.7v-2.6H22v2.6h.4Zm-3-2.5v2.6H19v-2.6h.4Zm-3.2 2.6V28H16v2.5h.4Zm-3 0V28h-.5v2.6h.5Zm-3.1 0v-2.4h-.4v2.5h.4Zm-3-2.6v2.4a7.8 7.8 0 0 1-.5 0v-2.5l.4.1Zm30.2-.5v2.8h.5v-2.8h-.5Zm3.5-.8v2.7a6 6 0 0 1-.4.6v-3l.4-.3Z" clip-rule="evenodd"/><path fill="#8E2638" fill-rule="evenodd" d="m15.3 6.4-3.5 1.4-4-1.3.5-4.6c0-.5.4-.8.8-.8h5c.3 0 .7.3.7.8l.5 4.5Z" clip-rule="evenodd"/><path fill="#EBECE7" fill-rule="evenodd" d="M17 12a12 12 0 0 0-9.5-6.4c-1.2 0-1.2 2 0 2 3.2.3 6.2 2.4 7.8 5.4.6 1.1 2.2.2 1.6-1Z" clip-rule="evenodd"/><path fill="#686465" fill-rule="evenodd" d="M7 7.4s6.2-.8 9.1 6a.8.8 0 0 1-.8-.4c-1.6-3-4.6-5.1-7.8-5.4a.9.9 0 0 1-.6-.2" clip-rule="evenodd"/><path fill="#EBECE7" fill-rule="evenodd" d="M16 5.4c-3.8.2-7.6 2.8-9.7 6.2-.6 1 .9 2 1.5 1 1.7-2.9 5-5.1 8.1-5.2 1.1 0 1.2-2 0-2Z" clip-rule="evenodd"/><path fill="#CCC" fill-rule="evenodd" d="M1.5 22.5s1.3 2.5 5.8 3.3l1.3.1c26.8 0 31-1.7 33-4.6l.3 1.4s-1.6 1.3-3.4 2.2c-1.8.8-25 2.4-30.6 1.7-5.4-1.3-5.4-2-7-3.6l.6-.6Z" clip-rule="evenodd"/><path fill="#701126" fill-rule="evenodd" d="M2.2 17.7s1.5 5.2 10.6 3.2a.3.3 0 0 1 .4.1l3.2 4.8h-.9l-2.6-4a.5.5 0 0 0-.5-.2c-1.6.4-8.8 1.4-10.5-3.4l.3-.5Z" clip-rule="evenodd"/><path fill="#AAA3A5" fill-rule="evenodd" d="M7.4 12.7c-.7 0-1-.4-1.2-1-.5 1 1 2 1.6 1v-.2a1 1 0 0 1-.4.2Z" clip-rule="evenodd"/><path fill="#701126" fill-rule="evenodd" d="M18.9.2h-.3L18 3.8h.3l.6-3.6Z" clip-rule="evenodd"/><path fill="#EBECE7" fill-rule="evenodd" d="M9.8 2H12c.1 0 .2.1.2.3v.4H9.5v-.4c0-.2.2-.3.3-.3Z" clip-rule="evenodd"/><path fill="#686465" fill-rule="evenodd" d="M7 13c.3 0 .6 0 .8-.4 1.7-2.9 5-5.1 8.1-5.2.5 0 .7-.4.8-.7 0 0-6.8.5-9.6 6.3Z" clip-rule="evenodd"/><path fill="#591124" fill-rule="evenodd" d="m20.4 8.6.5.2s.7 2.7-1.6 4.2c-2.4 1.4-2.5 1.7-2.5 2.1 0 .5.3 1.9.1 2.3 0 .3-2.3 3.5-2.3 3.5l-.3-.3s2.2-2.8 2.3-3.4c0-.5-.4-2 0-2.5 1-2 4.8-2.3 3.8-6.1Z" clip-rule="evenodd"/><path fill="#EBECE7" fill-rule="evenodd" d="M56.8 26.6c28.3-.2 33-1.9 35.2-4.8 1.9 6-1.5 8.7-1.5 8.7s-31.5.6-34 .4c-2.5-.2-8.3-3-8.3-3l-.2-3.1 1.5-1.4s1.3 2.4 6 3.1l1.3.1Z" clip-rule="evenodd"/><path fill="#992B43" fill-rule="evenodd" d="m57.8 2.1.3 4.7h5.2l.1-4.3c0-.6.4-1.3 1-1.3h.5L91.3 1a1 1 0 0 1 1 1l-.1 7.4.3.1a.8.8 0 0 1 .4.8v1.5c0 .4-.2.8-.6 1l-.2 3.3-.2 5.7c-2.7 3.9-6.8 4.6-35 4.8h-1.5c-4.6-.8-6-3.2-6-3.2l-.1-2.6a2.8 2.8 0 0 1 .7-2l4.3-4.6-.5-11.7c0-.4.3-.9.7-1a6.4 6.4 0 0 1 3 .2.5.5 0 0 1 .3.4Z" clip-rule="evenodd"/><path fill="#363438" fill-rule="evenodd" d="M54.4 14.2c1.2-.2 2.5-.4 3.5-1 1.2-.5 1.9-1.4 2-2.7 0-1.2 0-2.4-.2-3.7h-1.6l-.3-4.6c0-.2 0-.5-.3-.5a6.4 6.4 0 0 0-3.2-.1c-.4 0-.5.6-.5 1l.5 11.6h.1Z" clip-rule="evenodd"/><path fill="#EBECE7" fill-rule="evenodd" d="M50.8 18.8c1.9 4 9.8 2 9.8 2l2.2-2.9s1.2-2.8 1.5-4.5c0-1.9-.4-6.7-.8-9.2-.2-.7-.8-1.3-1.5-1.2l-5.2.1a1 1 0 0 0-.8.9l-1.8 8.3.1 1.9-3.8 4 .3.7Z" clip-rule="evenodd"/><path fill="#363438" fill-rule="evenodd" d="m66.7 4 .4-2.8L91.3 1a1.5 1.5 0 0 1 1.5 1c.4 1 .7 2.5-.6 3.9-5.3 0-19.7-1-25.2-1.5-.2 0-.3-.2-.3-.4Z" clip-rule="evenodd"/><path fill="#701126" fill-rule="evenodd" d="M85.6 17.2s2.6 3.7-2 8.3h.7s4-4 1.7-8.6l-.4.3Z" clip-rule="evenodd"/><path fill="#992B43" fill-rule="evenodd" d="M64.5 1.2c-.7 0-1.1.7-1 1.3l-.2 4.3.1 6 2.8.6-1.7-12.2Z" clip-rule="evenodd"/><path fill="#363438" fill-rule="evenodd" d="M69.7 10c.7 1 0 2.6-.5 3.3 1.9 2.1 8 1.9 8 1.9s3 .1 6.2-1.3c-1.7-2.7-3-1.5-13.7-4Z" clip-rule="evenodd"/><path fill="#701126" fill-rule="evenodd" d="m84.6 13.6-.5.3s-1.4-2.1-3.4-2.4c-2-.3-15-2.7-15.5-3a4.6 4.6 0 0 1-.9-3.3.3.3 0 0 1 .3-.2l27.6 2v.5L64.8 5.3a.2.2 0 0 0-.2.2c0 .5 0 1.3.8 2.5a.3.3 0 0 0 .2.2c3.3.8 15.8 3 16.1 3.1 1 .3 3 2.4 3 2.4Z" clip-rule="evenodd"/><path fill="#8E2638" fill-rule="evenodd" d="M91.3 29.7a6.2 6.2 0 0 1-.5.6l-.3.2h-3.2l-2.8.1H81l-.4.1H74l-2.8.1H67.7l-2.8.1h-8.4a6.4 6.4 0 0 1-1-.2h-.4c-2.8-.8-6.9-2.8-6.9-2.8l-.2-3.1s3.7 2.7 7 3.6a9.2 9.2 0 0 0 3 .2H65l2.7-.2h3.7l2.8-.1h.4l2.9-.1h.4l2.9-.1h.4L84 28a874.7 874.7 0 0 0 3.4-.1h2c.4 0 1-.3 1.4-.5l.4-.3.8-.5c.4-.3.4-1 .6-1.4 0 2-.7 3.6-1.3 4.5Z" clip-rule="evenodd"/><path fill="#EBECE7" fill-rule="evenodd" d="M92.3 12.8c.4-.2.6-.6.6-1v-1.5a.8.8 0 0 0-.4-.8h-.3S84 15 77 15.1c-3.4 0-6.1-.6-7.7-2-1 1.1-1.3 1.5-2.7 2.2-1.3.7-.7 2.1-1 2.9 0 .5-1.2 2-2.1 3.2a1.6 1.6 0 0 0-.2 1.7l2.6 3.4 26.4-13.8Z" clip-rule="evenodd"/><path fill="#EBECE7" fill-rule="evenodd" d="M85 17.8c2.4 3.2-2.8 8.2-2.8 8.2l-10.4.7-5.9-.1s15.5-11.3 19-8.8Z" clip-rule="evenodd"/><path fill="#363438" fill-rule="evenodd" d="m72.2 17.3-.3 2.3 20.4-6.8-.1 2-19 7.7 1.5 1.7c.2.2 0 .6-.3.5l-7.3-1.2c-.4 0-.5-.5-.3-.8a320.6 320.6 0 0 0 4.9-5.6c.2-.2.5 0 .5.2Zm-7-9.7c0 .7-.5 1.2-1.1 1.2-.6 0-1-.5-1.1-1.1 0-.7.4-1.2 1-1.3.6 0 1 .6 1.1 1.2Zm.1 6.5c0 .6-.4 1.1-1 1.2-.5 0-1-.5-1-1.1 0-.6.4-1.1 1-1.2.5 0 1 .5 1 1.1Z" clip-rule="evenodd"/><path fill="#616063" fill-rule="evenodd" d="M55.8 17.8c0 .2-.2.3-.5.3s-.5-.1-.5-.3c0-.1.2-.2.5-.2s.5 0 .5.2Zm-1.8-.6c0 .1-.2.3-.4.3-.3 0-.6-.1-.6-.3l.5-.3c.3 0 .5.2.5.3Zm.1 1.6c0 .2-.2.3-.5.3-.2 0-.5-.1-.5-.3 0 0 .2-.2.5-.2s.5 0 .5.2Zm4.8-1-.5.2c-.3 0-.5 0-.5-.2s.2-.3.4-.3c.3 0 .6.1.6.3Zm.7 1.7c0 .1-.2.3-.5.3s-.5-.1-.5-.3c0-.1.2-.2.5-.2s.5 0 .5.2Zm1.7-1c0 .2-.2.3-.5.3s-.5-.1-.5-.2c0-.2.2-.3.5-.3s.5.1.5.2Zm-3.8.4c0 .1-.2.2-.5.2s-.5 0-.5-.2.2-.3.5-.3.5.1.5.3Zm-1-2.3c0 .1-.2.3-.5.3s-.5-.1-.5-.3c0-.1.2-.2.5-.2s.5 0 .5.2Zm3.8.4c0 .1-.2.2-.5.2s-.5 0-.5-.2c0-.1.2-.3.5-.3s.5.1.5.3Z" clip-rule="evenodd"/><path fill="#701D2F" fill-rule="evenodd" d="M84.5 28v2.6H84V28h.5ZM81 28v2.7h-.4v-2.6h.4Zm-3.3.1v2.6h-.4v-2.5h.4Z" clip-rule="evenodd"/><path fill="#CCC" fill-rule="evenodd" d="M64.6 13.5c-3-1.7-6.7-1.8-10-.4-1 .4-.3 1.8.7 1.4 2.7-1.2 5.9-1 8.3.3.9.5 1.9-.8 1-1.3Z" clip-rule="evenodd"/><path fill="#701D2F" fill-rule="evenodd" d="M74.5 28.2v2.6h-.4v-2.5h.4Zm-3.2 2.6v-2.5h-.5v2.5h.5ZM68 28.4l.1 2.5h-.4l-.1-2.5h.5ZM65 31l-.1-2.4h-.5V31h.5Zm-3.2 0-.1-2.3h-.5l.1 2.3h.5Zm-3.2 0v-2.3H58V31h.5Zm-3.2-2.4.1 2.2a7.2 7.2 0 0 1-.4 0l-.2-2.3h.5Zm32-.6v2.7h.4v-2.7h-.5Zm3.8-.8v2.6a6 6 0 0 1-.5.6v-2.9c.2 0 .4-.2.5-.3Z" clip-rule="evenodd"/><path fill="#8E2638" fill-rule="evenodd" d="m63 7.6-3.7 1.5L55 8l.3-4.6c0-.4.3-.8.7-.8l5.3-.2a.8.8 0 0 1 .8.8l.7 4.5Z" clip-rule="evenodd"/><path fill="#EBECE7" fill-rule="evenodd" d="M65 13.2a13 13 0 0 0-10.3-6.1c-1.2 0-1.2 1.9 0 2a11 11 0 0 1 8.5 5c.7 1.1 2.4.2 1.7-.9Z" clip-rule="evenodd"/><path fill="#686465" fill-rule="evenodd" d="M54.2 8.8s6.5-.9 9.9 5.8a1 1 0 0 1-.9-.5c-1.8-2.9-5-4.9-8.5-5a1 1 0 0 1-.5-.3Z" clip-rule="evenodd"/><path fill="#EBECE7" fill-rule="evenodd" d="M63.6 6.6c-4 .3-7.9 3-9.9 6.4-.6 1 1 2 1.6 1 1.7-3 5-5.2 8.4-5.4 1.2-.1 1.1-2 0-2Z" clip-rule="evenodd"/><path fill="#CCC" fill-rule="evenodd" d="M49.5 23.4s1.3 2.4 6 3.1l1.3.1c28.3-.2 33-1.9 35.2-4.8l.3 1.4s-1.8 1.4-3.8 2.2a211 211 0 0 1-32.4 1.9c-5.5-1.2-5.5-1.8-7.2-3.4l.6-.5Z" clip-rule="evenodd"/><path fill="#701126" fill-rule="evenodd" d="M49.9 18.9s1.8 4.9 11 3a.4.4 0 0 1 .4 0l3.5 4.6h-.9l-2.8-3.7a.6.6 0 0 0-.6-.2c-1.6.3-9 1.3-11-3.2l.4-.5Z" clip-rule="evenodd"/><path fill="#AAA3A5" fill-rule="evenodd" d="M54.9 14c-.7.1-1.1-.4-1.2-.9-.5 1 1 1.8 1.6.8a1 1 0 0 1-.4.1Z" clip-rule="evenodd"/><path fill="#701126" fill-rule="evenodd" d="M66.6 1.2h-.3L65.8 5h.3l.5-3.7Z" clip-rule="evenodd"/><path fill="#EBECE7" fill-rule="evenodd" d="m57 3.4 2.3-.1a.3.3 0 0 1 .3.2V4h-3v-.4a.3.3 0 0 1 .3-.2Z" clip-rule="evenodd"/><path fill="#686465" fill-rule="evenodd" d="M54.6 14.4c.3 0 .5-.2.7-.5 1.7-2.8 5-5.2 8.4-5.3.4 0 .7-.4.8-.8 0 0-7.2.8-10 6.6Z" clip-rule="evenodd"/><path fill="#591124" fill-rule="evenodd" d="m68.6 9.6.5.2s.8 2.8-1.6 4.2c-2.5 1.5-2.6 1.8-2.6 2.2 0 .4.4 1.8.2 2.2l-2.3 3.4-.4-.2s2.2-2.8 2.3-3.4c.1-.4-.4-2-.1-2.5 1.1-1.9 5.1-2.2 4-6Z" clip-rule="evenodd"/></svg>