<svg xmlns="http://www.w3.org/2000/svg" width="151" height="305" fill="none" viewBox="0 0 151 305">
  <path fill="#E6E6E6" d="M37.098 300.756c3.968 1.617 8.184 2.066 12.945 1.581 5.274-.539 9.471-4.742 10.124-10.095 2.645-21.536 4.268-36.768 6.05-51.569 1.163 12.448 4.373 36.804 9.205 52.144 2.399 7.598 9.736 12.412 17.496 11.388a28.331 28.331 0 0 0 1.693-.269c7.601-1.366 13.157-8.101 13.263-15.969.564-40.756-7.302-76.572-6.297-114.904.494 15.16 6.773 47.438 11.834 65.562 1.482 5.335 6.42 8.909 11.87 8.568a23.918 23.918 0 0 0 5.52-.988c5.573-1.67 9.03-7.328 8.148-13.166l-7.425-48.893-7.178-29.584c-2.31-9.538-9.259-17.189-18.412-20.297-14.868-.18-48.977-.215-66.384 1.114-19.048 39.912-29.383 84.799-31.57 96.439-.44 10.202 15.609 11.639 22.31 11.082 0 11.568-1.957 11.658-.3 47.636.212 4.526 2.963 8.55 7.108 10.22Z"/>
  <path fill="#202020" d="M105.925 134.265c-14.867-.18-48.976-.215-66.383 1.114-1.64 3.448-1.412 2.82-2.91 6.304 23.103 12.233 65.308 9.341 84.161 4.419-3.439-5.478-8.642-9.717-14.868-11.837Zm-82.69 108.51c2.698.287 5.22.287 7.054.126-.511-1.797 5.609-56.905 7.055-66.694 0 0-10.653 48.264-14.11 66.568Z" opacity=".26"/>
  <path fill="#E6E6E6" fill-rule="evenodd" d="M10.912 69.367c-5.87 20.057-8.278 51.216 7.062 63.738h.053c26.117 21.334 95.26 6.252 106.083 1.591 8.67-3.73 13.409-9.488 17.501-16.618 3.716-6.471 7.755-24.46 5.331-37.952-1.159-6.313-3.167-12.146-5.268-16.97-7.219-21.078-28.589-37.92-65.504-38.423-27.603-.379-49.068 12.216-59.679 30.8a34.357 34.357 0 0 0-1.277 2.368 55.172 55.172 0 0 0-4.302 11.465Z" clip-rule="evenodd"/>
  <path fill="#000" d="M70.422 118.681c3.877 0 7-5.045 7-11.297 0-6.252-3.123-11.298-7-11.298s-7 5.046-7 11.298 3.123 11.297 7 11.297Zm-45.504-3.565c3.878 0 7-4.771 7-10.694 0-5.923-3.122-10.694-7-10.694-3.877 0-7 4.77-7 10.694 0 5.923 3.123 10.694 7 10.694Z"/>
  <g clip-path="url(#a)">
    <path fill="#fff" d="M66.47 163.592a9.607 9.607 0 0 0-.693-1.137l-2.858.55c-.52.101-.99.323-1.388.644a3.24 3.24 0 0 1 .157 2.22c-.128.42-.337.801-.626 1.132-.02.05-.06.09-.11.13-.009.02-.019.03-.039.051 0 .03 0 .04-.01.06a3.2 3.2 0 0 1-.218.54c-.06.121-.129.231-.209.341-.06.11-.139.211-.229.301-.04.05-.08.1-.13.15a3.244 3.244 0 0 1-.288.261c-.02.02-.04.03-.06.051-.04.04-.09.07-.14.1-.11.08-.22.161-.339.221-.14.081-.29.151-.45.212a2.95 2.95 0 0 1-.309.111c-.07.02-.14.04-.22.061-.11.03-.23.06-.34.081-.08.01-.17.02-.25.031a4.65 4.65 0 0 1-1.87-.164l-4.314-1.255c-2.212-.662-3.57-2.707-3.036-4.609 0 0 .01-.03.01-.04.069-.241.168-.471.287-.691h.01c.13-.231.289-.441.478-.632 0-.02 0-.04.01-.06.109-.35.267-.671.467-.952a2.56 2.56 0 0 0-.536-1.728l-2.08-2.653a8.12 8.12 0 0 0-1.198.555c-.998.553-1.855 1.286-2.502 2.178-.02.04-.04.08-.05.131-.099.22-.178.45-.247.67 0 .01-.01.03-.01.04a6.926 6.926 0 0 0-.264 1.731c-.01.16-.01.33.001.49.143 3.53 2.914 6.89 7.019 8.096l6.687 1.947c4.034 1.176 8.11-.109 10.17-2.916a4.84 4.84 0 0 0 .297-.801c.02-.08.049-.16.059-.25a5.52 5.52 0 0 0 .215-1.311c.01-.03.01-.06.01-.09l-.002-.61c-.044-1.1-.348-2.179-.861-3.187Zm-15.341-3.416a4.34 4.34 0 0 1 1.808-.417c.47-.001.94.057 1.41.195l4.315 1.265a4.693 4.693 0 0 1 2.245 1.423 3.17 3.17 0 0 1 1.737-.947l2.129-.407c-1.164-1.166-2.688-2.081-4.46-2.604l-6.686-1.947a10.53 10.53 0 0 0-4.462-.335l1.427 1.825c.442.569.614 1.268.537 1.949Z"/>
    <path fill="#C2CDD2" d="m46.568 156.181.582.738a8.12 8.12 0 0 0-1.198.555c-.998.553-1.856 1.286-2.502 2.178a7.244 7.244 0 0 1 2.07-2.737 8.64 8.64 0 0 1 1.047-.734Z"/>
    <path fill="#E4E8E9" d="m66.472 160.962-1.699.326c-1.164-1.166-2.687-2.081-4.459-2.605l-6.687-1.947a10.545 10.545 0 0 0-4.46-.334l-.794-1.017c1.828-.587 3.938-.644 6.04-.021l6.687 1.956c2.272.662 4.146 1.996 5.372 3.652v-.01Z"/>
    <path fill="#C2CDD2" d="M68.118 165.396a6.947 6.947 0 0 1-.173 1.871c-.01.03-.01.06-.02.1-.03.09-.049.19-.079.29a5.834 5.834 0 0 1-.426 1.072 6.291 6.291 0 0 1-.666 1.112c.13-.26.218-.531.297-.801.02-.08.05-.16.06-.25.128-.44.196-.881.215-1.311.01-.03.01-.06.01-.09l-.003-.61c-.043-1.1-.347-2.179-.86-3.187a9.62 9.62 0 0 0-.695-1.137l1.47-.276c.19.38.362.779.493 1.179.223.659.355 1.349.377 2.038Z"/>
    <path fill="#AFB6BA" d="M66.47 163.592a9.607 9.607 0 0 0-.693-1.137l-2.858.55c-.52.101-.99.323-1.388.644a3.06 3.06 0 0 0-.906 1.114 3.7 3.7 0 0 1 .302.778c.102.44.133.89.045 1.34 0 .07-.02.15-.04.22-.01.03-.009.05-.019.081 0 .03 0 .04-.01.06a3.2 3.2 0 0 1-.218.54c-.06.121-.129.231-.209.341-.06.11-.139.211-.229.301-.04.05-.08.1-.13.15a3.244 3.244 0 0 1-.288.261c-.02.02-.04.03-.06.051-.04.04-.09.07-.14.1-.11.08-.22.161-.339.221-.14.081-.29.151-.45.212a2.95 2.95 0 0 1-.309.111c-.07.02-.14.04-.22.061-.11.03-.23.06-.34.081-.08.01-.17.02-.25.031a4.65 4.65 0 0 1-1.87-.164l-4.314-1.255c-2.212-.662-3.57-2.707-3.036-4.609 0 0 .01-.03.01-.04.069-.241.168-.471.287-.691h.01c.13-.231.289-.441.478-.632.12-.12.24-.241.379-.341a3.7 3.7 0 0 0 .088-.491c.01-.06.01-.12.01-.18a2.56 2.56 0 0 0-.536-1.728l-2.08-2.653a8.12 8.12 0 0 0-1.198.555c-.998.553-1.855 1.286-2.502 2.178-.02.04-.04.08-.05.131-.099.22-.178.45-.247.67 0 .01-.01.03-.01.04a6.926 6.926 0 0 0-.264 1.731c-.01.16-.01.33.001.49.143 3.53 2.914 6.89 7.019 8.096l6.687 1.947c4.034 1.176 8.11-.109 10.17-2.916a4.84 4.84 0 0 0 .297-.801c.02-.08.049-.16.059-.25a5.52 5.52 0 0 0 .215-1.311c.01-.03.01-.06.01-.09l-.002-.61c-.044-1.1-.348-2.179-.861-3.187Zm-15.341-3.416c-.049.43-.197.84-.446 1.231.45-.171.949-.263 1.469-.265.46-.002.94.057 1.41.195l4.305 1.255c.931.267 1.713.784 2.255 1.442.148-.52.417-1.001.785-1.392a3.17 3.17 0 0 1 1.737-.947l2.129-.407c-1.164-1.166-2.688-2.081-4.46-2.604l-6.686-1.947a10.53 10.53 0 0 0-4.462-.335l1.427 1.825c.442.569.614 1.268.537 1.949Z"/>
    <path fill="#75797C" d="M66.754 169.831c-1.607 3.745-6.31 5.652-10.965 4.298l-6.687-1.947c-4.104-1.196-6.876-4.556-7.018-8.096a7.017 7.017 0 0 1 .272-2.261c.237-.8.604-1.532 1.082-2.183-.119.26-.218.53-.297.801a6.975 6.975 0 0 0-.272 2.261c.142 3.529 2.914 6.9 7.018 8.095l6.687 1.947c4.034 1.176 8.12-.108 10.18-2.915Z"/>
    <path fill="#75797C" d="M60.914 167.181s0 .04-.01.06c-.563 1.912-2.83 2.94-5.052 2.297l-4.304-1.255c-2.232-.652-3.59-2.737-3.026-4.649.148-.511.416-.951.775-1.323-.523 1.902.834 3.937 3.046 4.59l4.305 1.255c1.641.474 3.3.048 4.276-.975h-.01Z"/>
    <path fill="#fff" d="M39.166 144.747c.24.329.422.678.543 1.028.77.087 1.482.445 1.964 1.063l1.446 1.855c-.015-1.6-.571-3.278-1.666-4.754l-.11-.15-.604-.818-3.603-.967 1.095 1.476.934 1.267Zm.65 2.958c-.099.44-.307.831-.606 1.162-.11.12-.23.241-.369.341a2.53 2.53 0 0 1-1.138.464c-.01.02-.02.03-.04.04a2.621 2.621 0 0 1-1.688.496c-.15.001-.29-.019-.44-.058a3.165 3.165 0 0 1-1.112-.427 3.39 3.39 0 0 1-.522-.358 5.174 5.174 0 0 1-.592-.648l-2.15-2.902c-.603-.828-.836-1.787-.71-2.648a.03.03 0 0 1 0-.04c.02-.17.06-.33.11-.48.049-.14.108-.271.168-.391.09-.19.198-.36.338-.511.03-.04.07-.08.11-.11.04-.04.08-.091.12-.131l.179-.15a2.573 2.573 0 0 1 1.138-.474h.01s.02-.02.04-.031c.02-.01.04-.03.06-.03l-5.125-1.382a5.434 5.434 0 0 0-.276 1.051c-.354 1.981.144 4.24 1.551 6.145l3.336 4.508c1.175 1.576 2.749 2.631 4.39 3.075a6.76 6.76 0 0 0 1.831.253c.26 0 .51-.001.76-.052.33-.031.65-.102.97-.194.2-.11.399-.231.578-.372a5.29 5.29 0 0 0 1.276-1.314c.01-.02.02-.03.03-.05.268-.391.487-.802.655-1.242l-2.4-3.072a2.35 2.35 0 0 0-.482-.468Z"/>
    <path fill="#AFB6BA" d="m42.698 151.244.553.698s-.04.07-.06.1a6.052 6.052 0 0 1-.787.903c-.15.141-.319.271-.488.402a5.558 5.558 0 0 1-1.757.876c.2-.111.399-.231.578-.372a5.294 5.294 0 0 0 1.276-1.315c.01-.02.02-.03.03-.05a5.89 5.89 0 0 0 .655-1.242Zm1.405-1.294-.985-1.257c-.015-1.6-.571-3.278-1.666-4.754l-.11-.149-.604-.818 1.932.513c.09.13.181.259.261.399 1.267 1.926 1.645 4.154 1.172 6.066Z"/>
    <path fill="#909496" d="M39.816 147.705a2.637 2.637 0 0 0-1.082-.507c.021.37-.007.73-.106 1.071a2.569 2.569 0 0 1-.925 1.403c-.01.02-.02.03-.04.04a2.621 2.621 0 0 1-1.688.496c-.15.001-.29-.019-.44-.058a3.165 3.165 0 0 1-1.112-.427 3.39 3.39 0 0 1-.522-.358 5.174 5.174 0 0 1-.592-.648l-2.15-2.902c-.603-.828-.836-1.787-.71-2.648a.03.03 0 0 1 0-.04c.02-.17.06-.33.11-.48.049-.14.108-.271.168-.391.09-.19.198-.36.338-.511.03-.04.07-.08.11-.11.04-.04.08-.091.12-.131l.179-.15a2.573 2.573 0 0 1 1.138-.474h.01c.09-.001.17-.021.26-.021l-.16-.04-5.125-1.382a5.434 5.434 0 0 0-.276 1.051c-.354 1.981.144 4.24 1.551 6.145l3.336 4.508c1.175 1.576 2.749 2.631 4.39 3.075a6.76 6.76 0 0 0 1.831.253c.26 0 .51-.001.76-.052.33-.031.65-.102.97-.194.2-.11.399-.231.578-.372a5.29 5.29 0 0 0 1.276-1.314c.01-.02.02-.03.03-.05.268-.391.487-.802.655-1.242l-2.4-3.072a2.35 2.35 0 0 0-.482-.468Zm-3.979-5.357.633.858 1.517 2.045c.15.199.272.409.382.619.44-.122.9-.154 1.34-.095.77.087 1.482.445 1.964 1.063l1.446 1.855c-.015-1.6-.571-3.278-1.666-4.754l-.11-.15-.604-.818-3.603-.967-2.322-.622c.07.04.15.089.22.149.291.229.572.498.803.817Z"/>
    <path fill="#909496" d="M40.161 154.224c-2.854 1.62-6.798.553-9.12-2.579l-3.345-4.508c-1.628-2.214-2.047-4.903-1.315-7.085a5.18 5.18 0 0 1 .358-.842l.86.227a5.441 5.441 0 0 0-.276 1.051c-.353 1.982.145 4.24 1.552 6.145l3.335 4.508c2.02 2.723 5.264 3.882 7.951 3.083Z"/>
    <path fill="#75797C" d="M37.702 149.672s-.02.02-.04.03c-1.286.954-3.248.511-4.353-.995l-2.15-2.903c-1.116-1.506-.973-3.506.324-4.461.34-.251.729-.412 1.138-.474-1.256.965-1.39 2.935-.284 4.421l2.15 2.903c.824 1.107 2.086 1.632 3.215 1.459v.02Z"/>
    <path fill="#fff" d="m109.265 141.123-2.166 1.207c.346-1.391 1.041-2.763 2.077-3.977l.139-.16.129-.161c1.12-.124 2.239-.378 3.348-.552.26-.04.52-.091.77-.142h-.01l-.607.732-1.186 1.404a4.278 4.278 0 0 0-.745 1.233 3.25 3.25 0 0 0-1.749.416Zm14.292 1.33-4.222 4.975c-2.082 2.457-5.048 3.628-7.729 3.347a6.471 6.471 0 0 1-1.731-.384c-.08-.06-.171-.11-.251-.169-.13-.1-.271-.199-.391-.309a.304.304 0 0 1-.08-.08 5.753 5.753 0 0 1-1.296-1.545 6.77 6.77 0 0 1-.796-1.947 7.93 7.93 0 0 1-.216-1.55l3.404-1.901c.159-.091.329-.162.499-.222.062.5.233.979.515 1.388.141.23.331.439.542.618.371.319.812.517 1.282.626.01.02.02.03.04.04.141.129.291.229.451.318a2.4 2.4 0 0 0 .491.218c.09.03.18.06.28.079.201.06.401.089.611.088.2.019.39-.001.59-.012.28-.031.549-.092.829-.203.14-.04.28-.101.409-.161a4.373 4.373 0 0 0 1.466-1.135l2.719-3.21c.1-.1.18-.21.249-.321.08-.11.159-.22.219-.33a2.87 2.87 0 0 0 .179-.341 4.54 4.54 0 0 0 .257-.701c.03-.1.06-.21.069-.31.03-.14.049-.27.059-.4.01-.03.01-.05.01-.08l-.001-.22c-.001-.11-.001-.22-.021-.32.01 0 .02-.02.01-.03 0-.02 0-.03-.011-.05 0-.12-.03-.24-.051-.35-.01-.04-.01-.08-.02-.12 0-.03-.01-.04-.01-.05-.011-.04-.031-.08-.041-.12a2.97 2.97 0 0 0-.694-1.218 2.87 2.87 0 0 0-.241-.239 3.205 3.205 0 0 0-.291-.219 2.308 2.308 0 0 0-.47-.238c-.171-.079.18.196 0 .156-.011-.01-.021-.02-.051-.04-.02-.01-.04-.029-.06-.039l5.535-1.536c.122.4.193.819.235 1.239.258 2.329-.493 4.912-2.276 7.008Z"/>
    <path fill="#909496" d="m109.264 141.122-2.166 1.208c.345-1.391 1.04-2.764 2.076-3.977l.14-.161.129-.16c1.12-.124 2.239-.378 3.348-.552.26-.041.51-.082.76-.133a13.564 13.564 0 0 0 2.597-.749c-.12.111-.229.221-.339.341l-.796.953-1.923 2.257a4.14 4.14 0 0 0-.626.952 3.133 3.133 0 0 0-1.452-.395 3.247 3.247 0 0 0-1.748.416Z"/>
    <path fill="#909496" d="m123.557 142.453-4.222 4.975c-2.082 2.457-5.048 3.628-7.729 3.347a6.471 6.471 0 0 1-1.731-.384c-.08-.06-.171-.11-.251-.169-.13-.1-.271-.199-.391-.309a.304.304 0 0 1-.08-.08 5.753 5.753 0 0 1-1.296-1.545 6.77 6.77 0 0 1-.796-1.947 7.93 7.93 0 0 1-.216-1.55l3.404-1.901c.159-.091.329-.162.499-.222a3.177 3.177 0 0 1 1.329-.185c-.058.49-.016.96.105 1.41h.01c.162.539.454 1.028.895 1.407.01.02.02.03.04.04.141.129.291.229.451.318a2.4 2.4 0 0 0 .491.218c.09.03.18.06.28.079.201.06.401.089.611.088.2.019.39-.001.59-.012.28-.031.549-.092.829-.203.14-.04.28-.101.409-.161a4.373 4.373 0 0 0 1.466-1.135l2.719-3.21c.1-.1.18-.21.249-.321.08-.11.159-.22.219-.33a2.87 2.87 0 0 0 .179-.341 4.54 4.54 0 0 0 .257-.701c.03-.1.06-.21.069-.31.03-.14.049-.27.059-.4.01-.03.01-.05.01-.08l-.001-.22c-.001-.11-.001-.22-.021-.32.01 0 .02-.02.01-.03 0-.02 0-.03-.011-.05 0-.12-.03-.24-.051-.35-.01-.04-.01-.08-.02-.12 0-.03-.01-.04-.01-.05-.011-.04-.031-.08-.041-.12a2.97 2.97 0 0 0-.694-1.218 2.87 2.87 0 0 0-.241-.239 3.205 3.205 0 0 0-.291-.219 2.308 2.308 0 0 0-.47-.238c-.171-.079.18.17 0 .131-.101-.02-.201-.04-.301-.039l.19-.041 5.535-1.51c.122.4.193.819.235 1.239.258 2.329-.493 4.912-2.276 7.008Z"/>
    <path fill="#909496" d="M109.875 150.38c3.188 2.099 7.845 1.173 10.783-2.287l4.232-4.975c2.062-2.447 2.751-5.53 2.072-8.117a5.816 5.816 0 0 0-.354-.999l-1.019.194c.122.409.203.819.234 1.239.259 2.329-.492 4.912-2.275 7.008l-4.223 4.974c-2.549 2.999-6.406 4.093-9.46 2.963h.01Z"/>
    <path fill="#75797C" d="M113.08 145.299s.02.03.04.04c1.425 1.205 3.723.837 5.128-.818l2.718-3.21c1.405-1.665 1.397-3.995-.028-5.2-.371-.318-.406-.327-.866-.435 1.384 1.215.966 3.315-.428 4.96l-2.719 3.209c-1.036 1.214-2.554 1.739-3.845 1.444v.01Z"/>
    <path fill="#fff" d="M102.758 154.065c-.021-.21-.052-.409-.082-.609a6.657 6.657 0 0 0-.434-.899 8.16 8.16 0 0 0-1.677-2.054c-.13-.11-.26-.219-.391-.309a6.636 6.636 0 0 0-1.403-.885l-3.743 2.093a3.388 3.388 0 0 0-1.444 1.595c.35.159.671.368.952.627a3.617 3.617 0 0 1 1.209 2.596c.02.02.03.04.04.06.08.149.162.299.212.449.05.11.09.23.111.34.142.439.193.899.155 1.359-.105 1.52-1.05 3.044-2.616 3.949l-4.521 2.606c-2.346 1.348-5.188.808-6.345-1.198a3.613 3.613 0 0 1-.486-1.708.212.212 0 0 1-.04-.06c-.05-.1-.1-.19-.15-.29v.19a3.228 3.228 0 0 0-2.607-1.931h-.01a3.072 3.072 0 0 0-.95.034l-2.878.55c-.138.44-.247.881-.305 1.331a9 9 0 0 0 .01 2.93c.121.309.272.609.433.898.262.449.553.868.895 1.247.12.14.24.279.371.409.13.139.27.269.411.388 3.09 2.73 8.141 3.102 12.453.627l7.016-4.054c3.433-1.992 5.531-5.29 5.81-8.611.068-.56.066-1.12.004-1.67Zm-20.978 6.403c-.104-1.219.371-2.511 1.308-3.514a5.77 5.77 0 0 1 1.306-1.025l4.521-2.615c1.088-.624 2.277-.848 3.348-.702.065-1.22.701-2.373 1.79-2.976l2.145-1.208c-2.562-.501-5.45-.041-8.075 1.468l-7.016 4.045c-2.225 1.288-3.889 3.123-4.862 5.157l2.029-.387a3.234 3.234 0 0 1 3.506 1.757Z"/>
    <path fill="#C2CDD2" d="M75.672 160.57c-.138.44-.247.881-.305 1.331a9.003 9.003 0 0 0 .01 2.93 8.31 8.31 0 0 1-.604-4.088l.91-.173h-.01Z"/>
    <path fill="#E4E8E9" d="m98.016 147.421-1.816 1.007c-2.562-.501-5.45-.041-8.075 1.468l-7.016 4.044c-2.225 1.288-3.89 3.124-4.862 5.157l-1.25.235c.691-2.803 2.652-5.46 5.586-7.16l7.016-4.044c3.463-2.002 7.402-2.146 10.417-.707Z"/>
    <path fill="#C2CDD2" d="M102.676 153.456a6.775 6.775 0 0 0-.433-.899 8.181 8.181 0 0 0-1.677-2.054 5.277 5.277 0 0 0-.391-.309 6.649 6.649 0 0 0-1.403-.885l1.167-.654s.071.05.101.08c.351.299.662.637.953.996.271.329.513.679.724 1.058a8.12 8.12 0 0 1 .959 2.667Z"/>
    <path fill="#AFB6BA" d="M102.758 154.065c-.021-.21-.052-.409-.082-.609a6.657 6.657 0 0 0-.434-.899 8.16 8.16 0 0 0-1.677-2.054c-.13-.11-.26-.219-.391-.309a6.636 6.636 0 0 0-1.403-.885l-3.743 2.093a3.388 3.388 0 0 0-1.444 1.595 3.484 3.484 0 0 0-.345 1.462c.24.059.47.128.69.227a3.725 3.725 0 0 1 1.816 1.534c.02.02.03.04.04.06.08.149.162.299.212.449.05.11.09.23.111.34.142.439.193.899.155 1.359-.105 1.52-1.05 3.044-2.616 3.949l-4.521 2.606c-2.346 1.348-5.188.808-6.345-1.198a3.613 3.613 0 0 1-.486-1.708c-.053-1.17.422-2.392 1.329-3.355a5.473 5.473 0 0 1 1.296-1.024l4.521-2.606c1.008-.584 2.107-.818 3.118-.731a3.84 3.84 0 0 1-.111-.31 3.99 3.99 0 0 1-.185-1.439c.065-1.22.701-2.373 1.79-2.976l2.145-1.208c-2.562-.501-5.45-.041-8.075 1.468l-7.016 4.045c-2.225 1.288-3.889 3.123-4.862 5.157l2.029-.387a3.234 3.234 0 0 1 3.779 2.577c.03.149.05.279.051.429v.17l.001.03a3.228 3.228 0 0 0-2.607-1.931h-.01a3.072 3.072 0 0 0-.95.034l-2.878.55c-.138.44-.247.881-.305 1.331a9 9 0 0 0 .01 2.93c.121.309.272.609.433.898.262.449.553.868.895 1.247.12.14.24.279.371.409.13.139.27.269.411.388 3.09 2.73 8.141 3.102 12.453.627l7.016-4.054c3.433-1.992 5.531-5.29 5.81-8.611.068-.56.066-1.12.004-1.67Zm-10.03.305s-.01-.03-.01-.05v.05h.01Z"/>
    <path fill="#75797C" d="M102.678 153.446c1.855 4.353-.326 9.851-5.206 12.668l-7.016 4.044c-4.311 2.475-9.353 2.113-12.452-.616a7.953 7.953 0 0 1-1.677-2.044 8.142 8.142 0 0 1-.96-2.667c.121.31.273.609.434.898a7.941 7.941 0 0 0 1.677 2.045c3.09 2.719 8.14 3.101 12.452.616l7.016-4.044c4.241-2.445 6.436-6.903 5.732-10.9Z"/>
    <path fill="#75797C" d="M95.747 156.22s.03.04.04.06c1.157 2.006.197 4.739-2.138 6.087l-4.521 2.606c-2.346 1.348-5.188.818-6.344-1.198a3.618 3.618 0 0 1-.487-1.708c1.177 1.965 3.98 2.466 6.305 1.138l4.52-2.606c1.717-.996 2.691-2.73 2.625-4.379Z"/>
    <path fill="#909496" d="m67.248 162.179-1.47.275-2.858.55c-.52.101-.989.323-1.387.644a3.061 3.061 0 0 0-.907 1.114c-.05-.09-.09-.18-.15-.26a2.651 2.651 0 0 0-.352-.469c.148-.52.416-1.001.785-1.392a3.162 3.162 0 0 1 1.737-.946l2.128-.408 1.7-.326c.29.389.552.798.773 1.218Z"/>
    <path fill="#E4E8E9" d="M82.392 163.196c0 .22-.019.43-.068.641-.02-.1-.04-.19-.07-.28-.021-.07-.041-.14-.072-.21a2.75 2.75 0 0 0-.06-.16v-.03l-.151-.299s-.03-.05-.05-.08c-.06-.1-.131-.2-.212-.299-.06-.09-.12-.16-.2-.24-.05-.049-.09-.099-.15-.149-.041-.04-.081-.08-.121-.11a2.712 2.712 0 0 0-.612-.398.45.45 0 0 0-.17-.079 2.94 2.94 0 0 0-.8-.237c-.15-.03-.31-.039-.47-.038-.21 0-.41.021-.62.062l-3.189.611-.63.122-6.985 1.334-1.269.235-3.547.682c-.12.021-.23.051-.34.091-.07.021-.15.051-.22.071-.17.071-.34.151-.489.242a.16.16 0 0 0-.07.04c-.17.101-.32.221-.459.352a.71.71 0 0 0-.15.15c-.099.1-.188.201-.268.321-.01 0-.03.03-.03.05-.06.07-.12.151-.169.241a.3.3 0 0 1-.04.08c-.05.08-.08.16-.119.25 0 .01-.01.02-.01.03-.04.1-.08.191-.109.281-.04.12-.069.23-.089.34v-.03c-.04-.2-.061-.4-.062-.6v-.03a3.04 3.04 0 0 1 .335-1.391 3.05 3.05 0 0 1 .906-1.113 3.175 3.175 0 0 1 1.388-.645l2.858-.55 1.47-.275 7.514-1.436.91-.173 2.878-.55c.32-.062.64-.073.95-.034h.01a3.228 3.228 0 0 1 2.606 1.931c.101.21.172.44.213.679.04.2.061.4.062.6h-.03Z"/>
    <path fill="#75797C" d="M82.324 163.836a3.224 3.224 0 0 1-2.561 2.539l-15.63 2.985a3.237 3.237 0 0 1-3.77-2.547c.04-.21.11-.421.199-.621a3.24 3.24 0 0 0 3.566 1.898l15.63-2.985a3.21 3.21 0 0 0 2.363-1.918c.091.21.162.419.203.649Z"/>
    <path fill="#AFB6BA" d="M82.12 163.187a3.21 3.21 0 0 1-2.364 1.919l-15.63 2.984a3.24 3.24 0 0 1-3.566-1.897 3.21 3.21 0 0 1 2.363-1.919l15.63-2.984a3.21 3.21 0 0 1 3.567 1.897Z"/>
    <path fill="#909496" d="M82.115 161.888v.03a3.226 3.226 0 0 0-2.606-1.931h-.01a3.042 3.042 0 0 0-.95.033l-2.879.55-.909.173c.038-.47.117-.94.235-1.411l1.25-.234 2.028-.387a3.233 3.233 0 0 1 3.78 2.577c.03.15.05.28.05.43l.001.17h.01Z"/>
    <path fill="#E4E8E9" d="M49.764 161.3c0 .06 0 .12-.01.18-.02.17-.049.33-.088.49-.08.25-.178.491-.308.721-.06.09-.11.171-.179.261a3.08 3.08 0 0 1-.677.722c-.06.05-.12.101-.18.141-.17.12-.349.221-.529.312-.21.1-.409.181-.619.232a3.494 3.494 0 0 0 1.096-1.274c.05-.09.09-.18.119-.28.05-.111.089-.221.119-.341.03-.12.049-.24.068-.36.049-.4.017-.81-.114-1.19 0-.02-.01-.03-.02-.05a2.207 2.207 0 0 0-.392-.718l-2.1-2.673-.432-.558-3.114-3.97-.361-.458-2.833-3.62-.09-.12c-.07-.09-.15-.17-.231-.249-.08-.09-.17-.16-.261-.229a.217.217 0 0 0-.05-.03c-.1-.08-.2-.15-.31-.199a.747.747 0 0 0-.121-.07c-.1-.049-.21-.089-.32-.129-.05-.019-.1-.029-.16-.049-.14-.04-.28-.069-.42-.089h-.02a2.502 2.502 0 0 0-.471-.038h-.1c-.08.001-.17.001-.25.021h-.04s-.07.001-.11.011c-.08 0-.15.02-.22.041-.1.01-.19.03-.28.061.01-.02.02-.021.03-.031.12-.08.24-.16.36-.221.06-.03.11-.06.17-.09.778-.383 1.648-.476 2.418-.269.4.089.771.258 1.082.506.18.13.341.289.482.469l2.4 3.071.553.698 3.315 4.239.582.738 2.08 2.653a2.56 2.56 0 0 1 .535 1.728v.01Z"/>
    <path fill="#75797C" d="M47.173 164.359c-1.258.364-2.6.019-3.363-.948l-8.92-11.399c-.984-1.267-.6-3.148.876-4.213.21-.061.43-.102.65-.123-1.027 1.084-1.211 2.655-.358 3.762l8.92 11.399c.633.797 1.664 1.174 2.714 1.06-.16.171-.329.321-.519.452v.01Z"/>
    <path fill="#AFB6BA" d="M47.693 163.907c-1.05.104-2.08-.262-2.713-1.06l-8.92-11.399c-.864-1.097-.68-2.668.357-3.761 1.05-.104 2.08.262 2.714 1.06l8.92 11.399c.873 1.107.679 2.668-.358 3.761Z"/>
    <path fill="#909496" d="M51.13 160.175c-.05.43-.198.84-.447 1.231a3.62 3.62 0 0 0-1.018.564c.04-.16.07-.32.089-.49.01-.06.01-.12.01-.18a2.561 2.561 0 0 0-.537-1.729l-2.08-2.652-.582-.738a9.224 9.224 0 0 1 1.808-.797l.793 1.018 1.426 1.825a2.66 2.66 0 0 1 .537 1.948Z"/>
    <path fill="#75797C" d="M44.106 149.95a5.89 5.89 0 0 1-.853 1.993l-.553-.698-2.4-3.072a2.373 2.373 0 0 0-.482-.468 2.622 2.622 0 0 0-1.082-.506c-.02-.28-.072-.56-.173-.84a3.329 3.329 0 0 0-.192-.489c.44-.122.9-.153 1.34-.095.77.088 1.482.445 1.964 1.063l1.446 1.855.985 1.257Z"/>
    <path fill="#E4E8E9" d="M115.53 145.891c-.05-.1-.111-.2-.171-.29-.03-.05-.07-.11-.111-.159a.789.789 0 0 0-.12-.15c-.01-.02-.02-.03-.04-.05 0 0-.04-.06-.061-.08h-.01a3.043 3.043 0 0 0-.441-.438c-.1-.08-.201-.159-.311-.229a3.325 3.325 0 0 0-1.542-.585c-.08.001-.17-.019-.25-.019-.1.001-.19-.019-.29.001h-.01c-.08 0-.15.001-.23.011-.06 0-.12 0-.17.021-.18.03-.35.071-.519.131-.19.061-.38.142-.56.242l-3.633 2.043-6.058 3.391-.818.463-4.691 2.626c-.37.212-.688.483-.947.804-.05.05-.1.11-.14.17a3.272 3.272 0 0 0-.466.892c-.04.09-.07.18-.09.28a3.19 3.19 0 0 0-.137.761s0 .02.01.03c-.01.03-.01.06-.01.1a.03.03 0 0 0 0 .04c-.019.2-.008.41.023.6-.02 0-.02-.02-.02-.03a3.14 3.14 0 0 1-.283-.649c-.03-.08-.05-.16-.06-.24 0 0-.01 0-.01-.01a3.813 3.813 0 0 1-.114-1.11c.008-.51.126-1.01.345-1.461a3.383 3.383 0 0 1 1.444-1.595l3.743-2.093 1.168-.654 6.896-3.864 3.403-1.902c.16-.091.33-.161.5-.222a3.176 3.176 0 0 1 1.329-.184c.51.028 1.011.176 1.472.424.33.179.641.418.912.697a3.947 3.947 0 0 1 .875 1.437c.02.04.03.07.04.11.081.25.142.49.163.739l-.01.001Z"/>
    <path fill="#75797C" d="M115.533 145.881c.185 1.479-.47 2.951-1.768 3.676l-15.21 8.513c-1.697.946-3.85.233-4.836-1.583-.03-.25-.041-.5-.012-.76 1.094 1.316 2.916 1.75 4.393.934l15.211-8.513c1.067-.603 1.704-1.716 1.779-2.926.171.2.322.409.443.659Z"/>
    <path fill="#AFB6BA" d="M115.089 145.233c-.076 1.2-.712 2.322-1.78 2.926l-15.21 8.513c-1.468.815-3.3.391-4.394-.935.066-1.2.712-2.322 1.78-2.926l15.21-8.513c1.478-.835 3.289-.402 4.394.935Z"/>
    <path fill="#75797C" d="M112.463 141.101a3.976 3.976 0 0 0-.395 1.382c-.45-.029-.9.023-1.329.184-.17.061-.34.132-.499.222l-3.404 1.902a8.64 8.64 0 0 1 .262-2.461l2.165-1.208a3.26 3.26 0 0 1 1.749-.416c.5-.001 1.001.147 1.451.395Z"/>
    <path fill="#909496" d="m99.94 148.655-1.168.654-3.742 2.093a3.384 3.384 0 0 0-1.445 1.595 3.486 3.486 0 0 0-.345 1.461 4.539 4.539 0 0 0-.51-.088.09.09 0 0 1-.01-.05v.05c-.05 0-.1-.01-.16-.01a3.994 3.994 0 0 1-.296-1.749c.066-1.22.702-2.372 1.79-2.976l2.145-1.207 1.817-1.007a8.108 8.108 0 0 1 1.924 1.234Z"/>
  </g>
  <defs>
    <clipPath id="a">
      <path fill="#fff" d="m26.052 134.62 101.2-.354.14 40.33-101.2.353z"/>
    </clipPath>
  </defs>
</svg>
