<svg xmlns="http://www.w3.org/2000/svg" width="151" height="305" fill="none" viewBox="0 0 151 305">
  
  <path fill="#E6E6E6" fill-rule="evenodd" d="M10.912 69.367c-5.87 20.057-8.278 51.216 7.062 63.738h.053c26.117 21.334 95.26 6.252 106.083 1.591 8.67-3.73 13.409-9.488 17.501-16.618 3.716-6.471 7.755-24.46 5.331-37.952-1.159-6.313-3.167-12.146-5.268-16.97-7.219-21.078-28.589-37.92-65.504-38.423-27.603-.379-49.068 12.216-59.679 30.8a34.357 34.357 0 0 0-1.277 2.368 55.172 55.172 0 0 0-4.302 11.465Z" clip-rule="evenodd"/>
  <path fill="#000" d="M70.422 118.681c3.877 0 7-5.045 7-11.297 0-6.252-3.123-11.298-7-11.298s-7 5.046-7 11.298 3.123 11.297 7 11.297Zm-45.504-3.565c3.878 0 7-4.771 7-10.694 0-5.923-3.122-10.694-7-10.694-3.877 0-7 4.77-7 10.694 0 5.923 3.123 10.694 7 10.694Z"/>
  
  <defs>
    <clipPath id="a">
      <path fill="#fff" d="m26.052 134.62 101.2-.354.14 40.33-101.2.353z"/>
    </clipPath>
  </defs>
</svg>
