<svg xmlns="http://www.w3.org/2000/svg" width="151" height="305" fill="none" viewBox="0 0 151 305">
  <path fill="#E6E6E6" d="M37.098 300.756c3.968 1.617 8.184 2.066 12.945 1.581 5.274-.539 9.471-4.742 10.124-10.095 2.645-21.536 4.268-36.768 6.05-51.569 1.163 12.448 4.373 36.804 9.205 52.144 2.399 7.598 9.736 12.412 17.496 11.388a28.331 28.331 0 0 0 1.693-.269c7.601-1.366 13.157-8.101 13.263-15.969.564-40.756-7.302-76.572-6.297-114.904.494 15.16 6.773 47.438 11.834 65.562 1.482 5.335 6.42 8.909 11.87 8.568a23.918 23.918 0 0 0 5.52-.988c5.573-1.67 9.03-7.328 8.148-13.166l-7.425-48.893-7.178-29.584c-2.31-9.538-9.259-17.189-18.412-20.297-14.868-.18-48.977-.215-66.384 1.114-19.048 39.912-29.383 84.799-31.57 96.439-.44 10.202 15.609 11.639 22.31 11.082 0 11.568-1.957 11.658-.3 47.636.212 4.526 2.963 8.55 7.108 10.22Z"/>
  <path fill="#202020" d="M105.925 134.265c-14.867-.18-48.976-.215-66.383 1.114-1.64 3.448-1.412 2.82-2.91 6.304 23.103 12.233 65.308 9.341 84.161 4.419-3.439-5.478-8.642-9.717-14.868-11.837Zm-82.69 108.51c2.698.287 5.22.287 7.054.126-.511-1.797 5.609-56.905 7.055-66.694 0 0-10.653 48.264-14.11 66.568Z" opacity=".26"/>
  <path fill="#E6E6E6" fill-rule="evenodd" d="M10.912 69.367c-5.87 20.057-8.278 51.216 7.062 63.738h.053c26.117 21.334 95.26 6.252 106.083 1.591 8.67-3.73 13.409-9.488 17.501-16.618 3.716-6.471 7.755-24.46 5.331-37.952-1.159-6.313-3.167-12.146-5.268-16.97-7.219-21.078-28.589-37.92-65.504-38.423-27.603-.379-49.068 12.216-59.679 30.8a34.357 34.357 0 0 0-1.277 2.368 55.172 55.172 0 0 0-4.302 11.465Z" clip-rule="evenodd"/>
  <path fill="#000" d="M70.422 118.681c3.877 0 7-5.045 7-11.297 0-6.252-3.123-11.298-7-11.298s-7 5.046-7 11.298 3.123 11.297 7 11.297Zm-45.504-3.565c3.878 0 7-4.771 7-10.694 0-5.923-3.122-10.694-7-10.694-3.877 0-7 4.77-7 10.694 0 5.923 3.123 10.694 7 10.694Z"/>
  
  <defs>
    <clipPath id="a">
      <path fill="#fff" d="m26.052 134.62 101.2-.354.14 40.33-101.2.353z"/>
    </clipPath>
  </defs>
</svg>
