<svg id="b926a395-bea2-4108-b0a2-3a76663e6d83" data-name="Assets" xmlns="http://www.w3.org/2000/svg" viewBox="0 0 800 800"><defs><style>.a47c0866-7c4c-4cac-a6f3-b52a9cd10770{opacity:0.45;}.aca0286f-c9f1-48a6-a3a4-e7455fd222db{fill:#aa2d00;}.b7f24a6c-e90b-4d4d-a74d-5824bac55459{fill:#ff7c00;}.b3551a27-690f-4ef3-83e0-8495b0ddbb74{fill:#cc370d;}.a3340248-8901-49f6-b1bd-93c01edcd8b7{fill:#ffb021;}.b2c29958-15d8-41a8-a4ef-6a2652b4a0f1{fill:#ff8b17;}.b4d212d9-dc48-44cf-9706-e04b0737760d{fill:#ffecb8;}.b1f3dc0b-ffa7-4bec-b07c-a84e67b6c895{fill:#ea5008;}.b96dec2e-d56e-4f16-9699-dcef7d3c088c{opacity:0.39;}.a1700c26-87fa-46aa-ab2c-e363c022e094{fill:#ffb232;}.baf0d878-dfa1-4627-a60e-42fdc930e8de{fill:#ff8300;}.b2de9c1c-cfcd-4463-b263-e1b34058d3d6{fill:#ffb329;}.ab4a7e74-7936-4ecf-8051-aab51c401d56{fill:#ffd58a;}.fee58b36-ee97-4ddb-aad2-ae2f2ea56ecb{fill:#ffd88b;}.a1ac8795-13da-43b6-bf72-f2d6ea1ef53b{fill:#9a2600;}.bb85c870-01bd-4c7c-bbb2-e5d34b455140{opacity:0.47;}.a6f729b4-5102-4245-b733-f7383c08d8b6{fill:#ff9569;}.fe80fb2d-5d6d-4ace-b5e5-37b61f8379c4{fill:#ffbc54;}.aa30d2d3-9a0c-42e4-b553-cd8d2ddca3c7{fill:#d8410b;}</style></defs><g id="ac066284-9e16-4859-9734-9ee2c748e648" data-name="Forma 3000" class="a47c0866-7c4c-4cac-a6f3-b52a9cd10770"><path class="aca0286f-c9f1-48a6-a3a4-e7455fd222db" d="M575.9,206.2c-2.4-11-12.1-38.3-12.1-38.3l-344.6,2.5s-22.6,28.8-26.7,44.9,5.4,49.4,34.1,60.8c30.7,12.2,264.2,20.5,336.5-19.3C581.3,244.6,577.9,215.4,575.9,206.2Z"/></g><g id="e511edeb-90ba-401d-9ab3-8813cfca8ecf" data-name="Forma 3000 copia 2"><path class="b7f24a6c-e90b-4d4d-a74d-5824bac55459" d="M166,180.6s7.6,37.7,19,54.7,42.6,40.8,71.8,46.9,223.8-.3,306.5-40c24.5-13.5,36.1-45.5,39.7-60.2s8.9-61.6,8.9-61.6Z"/></g><g id="b989f078-f05a-473f-851d-fbe4aea35ebb" data-name="Forma 3001"><path class="b3551a27-690f-4ef3-83e0-8495b0ddbb74" d="M166,180.6s2.5,12.2,6.7,25.9c8.1,8.1,19.9,15.6,34.5,13.1,14.7,1,12.3,5.2,18.6,9.6s24.2,8.7,41.6,3.7,16.1,4.6,21.4,9.7,31.1,20.1,69.5.4c12.3-3.7,13.7,5.5,19.9,12.7a110.2,110.2,0,0,0,27.7,22.1c58.2-6.2,119.5-17.4,157.4-35.6,24.5-13.5,36.1-45.5,39.7-60.2s8.9-61.6,8.9-61.6Z"/></g><g id="ad427c5b-d0dd-482f-bd48-80c101a78813" data-name="Forma 3002"><path class="aca0286f-c9f1-48a6-a3a4-e7455fd222db" d="M334.8,189.4l-15.5-1.6s18.1,77.2,22.5,88.6C340.9,270.5,333.8,194,334.8,189.4Zm-143.4-29-12.1,4.1s7.3,54.4,15.3,66.1C194.6,230.6,189.7,174.2,191.4,160.4Zm31.4,18.8s10.8,69.1,19.1,86.1l-6.1-84.7ZM394.2,185c.2,2.6,9,71,14.3,85-.5-3.1,2.3-87.4,2.3-87.4S394,182.3,394.2,185Zm-111.7.8L265.2,184s17.2,74.3,22.9,88.9C288.1,272.9,281.9,198.5,282.5,185.8Zm308.4-42.7-11.1,3s6.5,46.1,1.4,61.5C581.2,207.6,594.9,192.3,590.9,143.1ZM452,265.4l4.4-78-14.6.8Zm86.1-97,5.5,76.8s12.1-57.2,7.3-77.2Zm-30.5,89.3,2.6-77.8-17.4,4.2Z"/></g><g id="b8fbab27-e88f-487c-a4ca-5982a334aa01" data-name="Forma 3003"><path class="a3340248-8901-49f6-b1bd-93c01edcd8b7" d="M620.1,72c-4.5-2.1-9.2-3.2-13.1-7.5s-13.1-16.7-37.5-11.2c-9.2,2.1-18.2-5.7-33.8-12.6s-31.2-5.1-43.9-1.4-19.9,1.6-37.4-4.5-31.8-7.9-54,6.5c-6.1,4-13.1,1.5-22.5-1.4s-13.8-9.7-42.2,2.7c-9.9,4.4-13.5-6.3-27.6-3.1s-13.6,5.4-23.6,12.9-16.6,5.9-26.5,6.1-24.6,1.3-34.3,16.6-23.4,4.7-35.3,12.5c0,0-6.5,1.8-12.3,15.2s-17.8,9.9-26.4,16.8c-16,12.7-13.8,21.2-11,31.1s16.2,10.6,17.6,20.3,7.5,33.5,43.3,20c9.5-3.5,14.5,7.8,14.5,7.8s11.7,20.5,33.6,14.4,20.7-12.4,32.1-3.7,22.8,27.8,68.1,6.3c22.9-9.5,33.5,5.1,33.5,5.1s16.5,22.7,52.1-8.5c15.8-13.9,20.1-9.1,38.7-9.5s34.1,1.9,56.4-12c9.6-6.1,26.5-6.1,26.5-6.1s22.9-.5,28.2-26.1c1.6-8,8.9-4.3,8.9-4.3s28.2-1.8,27.3-27.5C621.1,123.4,657.1,89,620.1,72Z"/></g><g id="a64a91ed-b20a-4594-ba28-67b8c8197c38" data-name="Forma 3003 copia 2"><path class="b2c29958-15d8-41a8-a4ef-6a2652b4a0f1" d="M136.8,142.1a45.9,45.9,0,0,0,1.9,8.6c2.3,8.4,12.1,10.2,16.1,16.3a41.8,41.8,0,0,1-2-8.2C151.6,150.4,141.3,148.8,136.8,142.1Zm496.5-60c-.7,15.1-16.2,30.4-17.2,32.6.8,25.7-27.4,27.5-27.4,27.5s-7.2-3.7-8.9,4.3c-5.3,25.6-28.1,26.1-28.1,26.1s-17,.1-26.6,6.1c-22.3,13.9-37.8,11.6-56.4,12s-22.9-4.4-38.7,9.5c-35.5,31.2-52,8.5-52,8.5s-10.7-14.6-33.6-5.1c-45.3,21.5-56.8,2.4-68.1-6.3s-10.3-2.5-32.1,3.7-33.6-14.4-33.6-14.4-5-11.3-14.5-7.7c-24.8,9.3-35.3.7-39.9-8.6,0,.2.1.5.1.7,1.4,9.7,7.5,33.5,43.3,20,9.5-3.5,14.5,7.8,14.5,7.8s11.7,20.5,33.6,14.4,20.7-12.4,32.1-3.7,22.8,27.8,68.1,6.3c22.9-9.5,33.5,5.1,33.5,5.1s16.5,22.7,52.1-8.5c15.8-13.9,20.1-9.1,38.7-9.5s34.1,1.9,56.4-12c9.6-6.1,26.5-6.1,26.5-6.1s22.9-.5,28.2-26.1c1.6-8,8.9-4.3,8.9-4.3s28.2-1.8,27.3-27.5C620.8,124,645.8,99.9,633.3,82.1Z"/></g><g id="f77a6b33-f647-4540-b139-ba586a8181f4" data-name="Forma 3005"><path class="b4d212d9-dc48-44cf-9706-e04b0737760d" d="M203.2,160.5c-11.7,4.6-14.9,2.9-13.6,8.9s4.5,6.5,13,1.5,17-.7,24.8,6.9C227,174.8,214.9,155.9,203.2,160.5Zm92.6,27.8c-2.3-3.9-19.5-16.1-38.1-9.8-5.4,1.8-7,1.4-6.3,5.9s12.2,2.7,20.1,2.3,20.7,6.7,22.7,7.4,12.3,2.5,16.9,2.2S298.2,192.2,295.8,188.3ZM268.1,68.7c8.5.5,18.8-9.5-5.7-8.1s-35.2,17.8-35.2,17.8C248.4,65.9,259.5,68.3,268.1,68.7ZM205.6,93s7.9-2.3-5.3-3.5-18.9,4.1-25.9,13.8c-14.3,19.7-9.6,8.5-24.5,19.5a30,30,0,0,0-.8,24.6c5.4,13.4,14.5,16.5,12.2,5.4s-9.7-15.5-4.5-24.2,6.3-5.6,15.7-12.3,2.9-12,12.8-18.1S195.9,97.3,205.6,93Zm277.9,82.3s-18.2-5.3-30.4,7c0,0,10.7-7,20.5-2.3S491.8,176.7,483.5,175.3Zm74.1-30.2c-10.3,22.2.4,15.9,2.8,8.3s12.2-23.6,21.8-25.6C582.2,127.8,568,122.9,557.6,145.1ZM344.1,186.5c-18.3,8.9-15.2,10.1-15.2,10.1s8.1-7.3,25.1-7.3,26.7,2.6,24.3-2.7A38.8,38.8,0,0,0,344.1,186.5ZM378.3,41c-12.1-8.3-24.4-3.9-30.3-1.2s-4.1,6.9-19.6,4.8c-21-2.8-32.2,6.5-32.2,6.5,4.8-2.4,17.3.7,24.9-.2s10.3,5.6,24.8-1.6,17.6-3.1,28.8-.6S390.4,49.2,378.3,41Z"/></g><g id="b5eae062-be49-49db-905c-811aa35cf150" data-name="Forma 3004"><path class="b1f3dc0b-ffa7-4bec-b07c-a84e67b6c895" d="M601.1,97.1c-23.2,1.3-30.9-17.5-30.9-17.5-21.3,7-41.5-10.9-41.5-10.9-26.8,13.7-48.6-5.4-52.3-4-18.6,20.2-46.6,9.8-46.6,9.8-31.9,10.6-70.2-5.7-70.2-5.7-22,28.6-65.5,9.9-65.5,9.9-14.2,28.8-51.9,20.2-54.6,20.1-5,16.2-40.9,13.6-43.4,13.1,2.7,16.6-22.9,30.7-22.9,30.7,10,5.5,11.5,19,11.5,19,26.4-13.7,32.6.8,39.7,5.7s11.4,17.8,23.9,9.8c19.5-12.4,45.8,4.5,48.7,8.2s17.6,19.2,44.5,3.6c34.1-19.9,52.7,5,52.7,5s13.2,9,18.3-2.6c9.8-21.8,37.6-10.5,37.6-10.5,17.9-19.3,53.6-11.1,53.6-11.1,28.1-25.6,50.4-20.1,50.4-20.1,8.9-30.7,36.6-27.5,36.6-27.5C586.8,110.7,601.1,97.1,601.1,97.1Z"/></g><g id="fdc21605-7997-4b99-8d30-5fa7a4f6488c" data-name="Forma 3013"><path class="b3551a27-690f-4ef3-83e0-8495b0ddbb74" d="M590.3,120.7l-4.5,1.4a31.6,31.6,0,0,1,4.9,0A5.7,5.7,0,0,1,590.3,120.7ZM570.2,79.6a35.7,35.7,0,0,1-8.3,1.6L520.5,93.9c-2.8-2.8-4.4-4.6-4.4-4.6l-8-9.5a34.7,34.7,0,0,0,8.9-2c6.3-2.2,11.6-4.2,16-5.9a33.1,33.1,0,0,1-4.3-3.2c-26.8,13.7-48.6-5.4-52.3-4-18.6,20.2-46.6,9.8-46.6,9.8a57.6,57.6,0,0,1-10.7,2.6L378.3,91.7a48.1,48.1,0,0,0-5-2.6,79.1,79.1,0,0,1-9.1-14.3,12.1,12.1,0,0,0,2-3h1.4c-5-1.6-8-2.9-8-2.9-22,28.6-65.5,9.9-65.5,9.9-14.2,28.8-51.9,20.2-54.6,20.1-5,16.2-40.9,13.6-43.4,13.1,2.3,14.5-17,27.2-21.8,30.1.1.5.1.9.2,1.4a18.8,18.8,0,0,1,3.9,3.5c6.6-4.7,25.5-18.9,25.8-26,4.5-2.3,33.9-.5,44-15.7,3.7-1.4,15.2-.9,26.5-2.7,4,4.8,9.7,12,16.3,20.3l-72.4,25.8L207,156.1c7.8,1.2,11.9,6.7,15.8,10l79.5-29L321,160.8l-39.3,15.3a62,62,0,0,1,13.1,7.2l33.9-12.7,13.8,17.7a52.8,52.8,0,0,1,17.2-6.5,69.2,69.2,0,0,0-10.2-19.1l41.3-15.6,13.8-4.4L434.1,173l-44.4,16.3a27.8,27.8,0,0,1,4.5,4.6s13.2,9,18.3-2.6c9.8-21.8,37.6-10.5,37.6-10.5,9.9-10.6,25-12.9,36.7-12.8l12.8-4.7,20.5-5.7c19.9-11.4,34-8,34-8,3.5-12.2,10-19,16.5-22.8L556.7,131c-4.2-8.3-9.7-16.8-15.7-20.5a117.6,117.6,0,0,1-10.9-7.9L576,87.9A27.1,27.1,0,0,1,570.2,79.6ZM309.8,116.1l-1.3-1.1s-5.8-11.4-14.8-19.7a18.3,18.3,0,0,0,6.4-8.9c2.1-.7,27,2,46.1-2.4l14.3,14ZM389.7,134l-49,19.2a71.1,71.1,0,0,0-7.9-6,95.1,95.1,0,0,0-10.3-17.5l51-18.6,21.1,21.4Zm4.8-30.6,73.3-26.8,25.5,25.6-76.1,23.4A232.6,232.6,0,0,0,394.5,103.4Zm118.6,41L453.2,166a31.9,31.9,0,0,0-6.4-4.9,158.4,158.4,0,0,0-19.6-25.6l75.2-24.1L530,139.2Z"/></g><g id="a2da044e-8436-4934-93ee-af78d5e52039" data-name="Forma 3004 copia" class="b96dec2e-d56e-4f16-9699-dcef7d3c088c"><path class="b1f3dc0b-ffa7-4bec-b07c-a84e67b6c895" d="M600.3,87.2c-23.2,1.3-30.9-17.5-30.9-17.5-21.3,7-41.5-10.9-41.5-10.9-26.8,13.7-48.6-5.4-52.3-4C457,75,429,64.6,429,64.6c-31.9,10.6-70.2-5.7-70.2-5.7-21.9,28.6-65.5,9.9-65.5,9.9C279.1,97.6,241.4,89,238.7,88.9c-5,16.2-40.9,13.6-43.4,13.1,2.7,16.6-22.9,30.7-22.9,30.7,10,5.5,11.5,19,11.5,19,26.4-13.7,32.6.8,39.7,5.7s11.4,17.8,23.9,9.8c19.5-12.4,45.8,4.5,48.7,8.2s17.6,19.2,44.5,3.5c34.1-19.8,52.7,5.1,52.7,5.1s13.2,9,18.3-2.6c9.8-21.8,37.6-10.5,37.6-10.5,17.9-19.3,53.6-11.1,53.6-11.1,28.1-25.6,50.4-20.1,50.4-20.1,8.9-30.7,36.6-27.5,36.6-27.5C586,100.8,600.3,87.2,600.3,87.2Z"/></g><g id="eb61ca9a-54e5-4ae8-b599-7e06ef2dd72f" data-name="Forma 3006"><path class="a1700c26-87fa-46aa-ab2c-e363c022e094" d="M313.6,134.8c-4.4-5.4-19.6-27.7-40.9-37.5-15.2,5.1-31.5,1.5-33.2,1.5a12.1,12.1,0,0,1-3.1,5.1c8.7,5.7,39.7,27,51.6,49,14,25.8,11.9,17.9,20.7,27.6a71.6,71.6,0,0,1,10.8,15.2c6.1,0,13.4-1.9,22-6.8a53,53,0,0,1,7.5-3.8c-2.5-5.6-7.1-13.5-15.7-22.6C316,144,318.8,141.1,313.6,134.8Zm114.1,19.3c-9.7-16.6-21.7-32.7-49.2-49.8-21.4-13.2-25.1-18.9-29.8-25.7-10.8,6.4-23.4,6.8-33.8,5.5,8.5,8.8,21.8,21.8,32.6,29.1,17.4,11.8,31.1,23.5,43.3,43.2,6.8,10.9,17.9,20.9,26.6,27.8,11.9-11.9,32.7-3.4,32.7-3.4l2.4-2.3C443.8,172.2,433,163.2,427.7,154.1Zm107.1-40.7c-21.3-16.3-23.5-12.5-35.8-24.5-6.5-6.4-17.6-14.4-26.5-20.5-14,11.6-31.6,9-39,7.2,6.1,5.6,16.1,14,25.3,18.3,14.4,6.8,20.4,15,25.1,20.4s25.9,15.3,42,40.3c16.8-7.8,28.2-5,28.2-5,.5-1.7,1-3.3,1.6-4.8C552.9,135.6,547,122.8,534.8,113.4Z"/></g><g id="f6b3e7f5-5971-4197-9bd5-a1344946f132" data-name="Forma 3010"><path class="baf0d878-dfa1-4627-a60e-42fdc930e8de" d="M365.1,95.4l-25.3,12a73.9,73.9,0,0,0,7.7,5.8l3.9,2.7,28-11-.9-.6C372.9,100.9,368.6,98,365.1,95.4ZM328.4,157,299,171.2c3.1,4,4.5,3.6,9.7,9.3,1,1,1.8,2,2.7,3l29-12.7c-2-2.6-4.4-5.4-7.1-8.3S329.8,158.6,328.4,157ZM507.1,95.7l-30.5,10.5c3.1,3,5.3,5.8,7.3,8.1a15,15,0,0,0,2.2,2l35.4-12.2C515.1,100.2,511.4,98.7,507.1,95.7Z"/></g><g id="a80f0b47-3ab0-473c-9d02-e37d58fd0910" data-name="Forma 3007"><path class="b2de9c1c-cfcd-4463-b263-e1b34058d3d6" d="M429.8,74.5c-21.7,7.3-46.4,2-60-2.1-8.5,2.7-17.4,5.7-26.5,8.9l-4,1.4c-63.7,22.4-137.6,53.8-161.1,63.9,5.5,6.3,6.5,15,6.5,15,15.6-8.1,24.2-6.3,30-2.5C278.8,129.5,401.9,88,436.9,76.3A38.1,38.1,0,0,1,429.8,74.5Zm140.4,5.1c-18.4,6-35.9-6.4-40.4-10C415.3,108.7,280.9,162,238,179.2c2.7,1,6.1.7,10.3-2.1,13.7-8.7,30.8-3,40.7,2.5C386.3,140,523.3,98.3,572.5,83.7A26.4,26.4,0,0,1,570.2,79.6Zm30.9,17.5a37.2,37.2,0,0,1-9.7-.7c-108.6,29.1-227.1,81.3-265,98.6a54.2,54.2,0,0,0,15.1-6.1c34.1-19.9,52.7,5,52.7,5l1.3.7,20-8.3c5.6-7.3,14.1-8.8,21.3-8.4,49.6-19,94.7-32.5,122.7-40.4,11.5-17.7,31.2-15.4,31.2-15.4C586.8,110.7,601.1,97.1,601.1,97.1Z"/></g><g id="a9043d26-cba6-4197-824b-bbb003c6aab5" data-name="Forma 3006 copia"><path class="baf0d878-dfa1-4627-a60e-42fdc930e8de" d="M299.4,97.3l-16,6.2a114.8,114.8,0,0,1,20.7,19.4l10.9-4C311.9,112.2,306.7,103,299.4,97.3ZM397,117.5a124.2,124.2,0,0,1,16.7,16.4l12.2-4.1c-.8-4.7-2.9-13.4-7.9-20.2Zm155.6-9.9c-6,1.8-12.1,3.7-18,5.7h.2a59.9,59.9,0,0,1,18.9,25.7l5.8-1.6a34.9,34.9,0,0,1,6-7C562.7,120.8,556.9,112.7,552.6,107.6Z"/></g><g id="a2fdd548-90fe-44ec-ba4f-addce92b2bab" data-name="Forma 3009"><path class="ab4a7e74-7936-4ecf-8051-aab51c401d56" d="M526.8,81l-6.1-5.2-85.4,31.1,11.3,3.7ZM200.2,146.1c2.1-.8,48.3-23.5,48.3-23.5l-51.9,18.8S198.2,147,200.2,146.1Zm75.4,21,14.5,2.8,66.1-27.8-6.4-4.8S272.9,166.6,275.6,167.1Zm210.7-32.7c-6.3,1.9-74,27-108.8,42.3l14.6,4.5,105.7-40.6S492.5,132.5,486.3,134.4Z"/></g><g id="a2d0ef2e-538b-417d-ae2c-ca9770a1a67a" data-name="Forma 3008"><path class="fee58b36-ee97-4ddb-aad2-ae2f2ea56ecb" d="M380.9,130.1c-13.7-12.6-21.9-11.4-21.9-11.4s22.2,15.1,31.3,30.6,8.2,4.3,8.2,4.3S394.6,142.8,380.9,130.1Zm-92.7,12.5c-6.4-11.5-26.1-34.8-34.4-29.6,0,0,23.5,20.6,30.8,33.1s11.2,6.6,11.2,6.6S294.7,154.1,288.2,142.6Zm209.1-30.4-5.2,2.2a72.9,72.9,0,0,1,18.3,18.8A45.3,45.3,0,0,0,497.3,112.2Z"/></g><g id="bb496c23-7e59-404e-a200-f4b9894866a4" data-name="Forma 3020"><path class="a1ac8795-13da-43b6-bf72-f2d6ea1ef53b" d="M557.6,244.2,517.5,118.9l-42.6-4.7s-3-10.5-25.9-14.2c0,0,10.4,4.3,11.3,19.2l12.4,16s10.7-1.9,18.1,23.4l7.1,10.3a23.8,23.8,0,0,1,8.6,15.6c1.3,10.5-2.2,17.4-2.2,17.4s5.7,47.6,0,60.4C504.3,262.3,548.3,252,557.6,244.2Z"/></g><g id="e8a8b032-088c-40fa-bc16-6a76463492ea" data-name="Forma 3022"><path class="b1f3dc0b-ffa7-4bec-b07c-a84e67b6c895" d="M650.2,146.5c-.3-4.6-3-9-6.4-12.1s-9.2-1.9-14.1-1.9l-.4-.2c-7.9-4.2-15.8-9.5-25.1-9.5,0-2.7-8.4-6.9-10.4-7.4-5.2-1.4-9.8,1.5-14.7,1.5l-22.3-4.2-16.6-1.6c0-2.3-11.9-5.1-13.7-5.2-4.4-.3-8.1,2-12.3,2.2l-15-2.3c-4.8-.6-16.9-6.3-21.4-2.7s-2.6,30.7-2.6,30.7c1.1,3.7,6.2,6.8,8.5,10a136.7,136.7,0,0,1,15.1,24.6c0,3.3,6.4,11.9,7.3,16.9.5,2.3,1.9,13.3-.7,14.9.1,8.5.4,25.5.4,25.5h0l12.3,14.5c8.5,9.3,39.7,36.4,53.7,33.9,7.9-1.4,16.4-9.6,22.2-14.5,22.2-19.1,33.6-44.4,45.4-70.7,3.5-7.7,12.5-26.5,10.9-34.8v-.6C650.7,154.2,650.7,156.5,650.2,146.5Z"/></g><g id="a897dcce-087c-456c-a7b6-d4b1c51e35d3" data-name="Forma 3034"><path class="aca0286f-c9f1-48a6-a3a4-e7455fd222db" d="M526.7,176.4c3.8-3.6,4.3-7.7,0-13.2-6.5-4.3-16,5.7-6.5,13.1A4.6,4.6,0,0,0,526.7,176.4Zm-32.9-36.9c-8.3,3.7-3.6,15.4,4.5,12.7,5.2-1.7,6.8-6,3.9-9.9S495.9,138.5,493.8,139.5Zm41.4,60.3c-2.9-3.9-6.3-3.8-8.4-2.8-8.3,3.7-3.6,15.4,4.5,12.7C536.5,208,538.2,203.7,535.2,199.8Zm30.2-2.1c-2.9-3.9-6.3-3.8-8.4-2.9-8.3,3.8-3.7,15.5,4.5,12.8C566.6,205.9,568.3,201.6,565.4,197.7Zm-7.8,37.9c-2.1-1.5-3.9-.5-4-.7-2.6.4-5.9,3.8-6.3,6.4,0,4.2,7.5,13.1,12,9.8S562.1,239.9,557.6,235.6Zm-23.2-2.2a4.4,4.4,0,0,0,6.5.1c3.8-3.5,4.3-7.7,0-13.1C534.4,216.1,524.9,226.1,534.4,233.4Z"/></g><g id="fac6a615-51af-4eaa-a671-eb649f2466bb" data-name="Forma 3033" class="bb85c870-01bd-4c7c-bbb2-e5d34b455140"><path class="a6f729b4-5102-4245-b733-f7383c08d8b6" d="M592.1,232.2c-16.1-4.8-35.2-11.7-49-21.4-9.5-6.7-16.8-16.1-26.4-22.8a78.4,78.4,0,0,0-12.2-7,14.3,14.3,0,0,1,1.6,4.3,47.8,47.8,0,0,1,.8,8.6,73.3,73.3,0,0,1,6.4,4.5c13.9,11.4,24.2,26.5,38.9,36.9,3.5,2.4,32.1,14.6,34.3,12.4l-.6-.6a.4.4,0,0,1-.1-.3C587.2,244.3,594.3,234.5,592.1,232.2Zm13.1-33.3c-3.7-3.7-12-2-16.7-2.3a65.3,65.3,0,0,1-27.2-8.6c-16.7-9.5-26.1-25.1-40.8-36.8-8.1-6.5-17.7-10.4-26.1-16.4l-19.3-17.3c-.1,4-.1,7.9,0,11a111.4,111.4,0,0,0,25.1,24.8l19.3,13.1c12.6,10,21.9,23.6,35.5,32.3,8.4,5.4,18.7,9.6,28.1,12.9l12.7,3.5c3.1-5.4,6.3-10.7,9.5-16.1Z"/></g><g id="ad8c5698-c502-4378-9c48-37a2a1bd4be3" data-name="Forma 3023"><path class="fe80fb2d-5d6d-4ace-b5e5-37b61f8379c4" d="M650.2,146.5c-.3-4.6-3-9-6.4-12.1s-9.2-1.9-14.1-1.9l-.4-.2c-7.9-4.2-15.8-9.5-25.1-9.5,0-2.7-8.4-6.9-10.4-7.4-5.2-1.4-9.8,1.5-14.7,1.5l-22.3-4.2-16.6-1.6c0-2.3-11.9-5.1-13.7-5.2-4.4-.3-8.1,2-12.3,2.2l-15-2.3c-4.8-.6-16.9-6.3-21.4-2.7-1,.7-1.6,2.8-2,5.5a78.9,78.9,0,0,0,34.6,27.3c30.4,12.7,29.4,16.8,36.2,25.6s21,19,28.7,23,10.7,1.1,10.7,1.1,5.8-2.6,13.1,2.1c13.8,9-4.6,24.2-4.6,24.2l-19.9,46.8c-1.6,4-4.5,8-8.5,5.3-28.1-12.9-50.7-37.2-60.5-48.8.1,5.7.2,10.5.2,10.5h0l12.3,14.5c8.5,9.3,39.7,36.4,53.7,33.9,7.9-1.4,16.4-9.6,22.2-14.5,22.2-19.1,33.6-44.4,45.4-70.7,3.5-7.7,12.5-26.5,10.9-34.8v-.6C650.7,154.2,650.7,156.5,650.2,146.5Z"/></g><g id="e331c7ca-7efc-41a3-8de5-def3d01336f2" data-name="Forma 3026"><path class="b3551a27-690f-4ef3-83e0-8495b0ddbb74" d="M650.2,146.5a12.3,12.3,0,0,0-.8-3.7c-1.6,1.1-3.1,2.3-4.3,3.3-31.8,25.9-19.2,45.5-43.3,68.4L590.4,245A130.9,130.9,0,0,1,574,273.6c7.2-2.3,14.8-9.5,20-14,22.2-19.1,33.6-44.4,45.4-70.7,3.5-7.7,12.5-26.5,10.9-34.8v-.6C650.7,154.2,650.7,156.5,650.2,146.5Z"/></g><g id="f81e51d4-c880-4435-b2bc-7385f0c2522c" data-name="Forma 3027"><path class="b1f3dc0b-ffa7-4bec-b07c-a84e67b6c895" d="M629.7,132.5l-.4-.2c-7.9-4.2-15.8-9.5-25.1-9.5,0-2.7-8.4-6.9-10.4-7.4-5.2-1.4-9.8,1.5-14.7,1.5l-22.3-4.2-16.6-1.6c0-2.3-11.9-5.1-13.7-5.2-4.4-.3-8.1,2-12.3,2.2l-15-2.3c-4.2-.6-14.1-5.1-19.6-3.6,11.5,13.3,26.1,22.6,42.6,29.1,13,5,25.6,8.1,31.8,20.9,7.6,15.8,24.5,23.9,31.8,23.9,0-1.2,13.2-9.2,14.7-10.2A389.7,389.7,0,0,0,631.6,141c2.4-2.1,6.5-5.2,8.5-8.6C636.8,131.5,633.2,132.5,629.7,132.5Z"/></g><g id="b2654ed4-03c0-464f-a23a-6eca79ccc3b2" data-name="Forma 3032"><path class="aa30d2d3-9a0c-42e4-b553-cd8d2ddca3c7" d="M537.4,108.9l-17.3,15.3-4.1,4.5,6.2,2.6,3.2,1.2c7-5.2,17.9-15.8,21.2-20.8l-6.4-.6C540.2,110.4,539,109.6,537.4,108.9Zm66.8,13.9c0-1.1-1.6-2.6-3.5-3.9-3.2,2.3-7.3,4.3-9.1,5.8-10.5,8.3-20.3,17.1-30.2,26.1-1.8,1.7-3.6,3.4-5.3,5.2a46.9,46.9,0,0,0,8.9,10.3l9.1-8.6,31.1-26.3c1.7-1.4,5.8-4,8.8-6.7A27.1,27.1,0,0,0,604.2,122.8Z"/></g><g id="f2d6e3ab-661e-4cfe-b021-83d6c137b3c7" data-name="Forma 3030"><path class="b2de9c1c-cfcd-4463-b263-e1b34058d3d6" d="M526.5,105.9c-4.3-.3-7.9,1.9-12,2.2L498,118.6a113.7,113.7,0,0,0,21.5,11.6l1.3-.9c4.3-3.5,7.7-6.4,10.5-9,5.2-4.9,6.4-6.9,8.9-9.2C540.2,108.8,528.3,106,526.5,105.9Zm77.7,16.9c0-2.7-8.4-6.9-10.4-7.4-5.2-1.4-9.8,1.5-14.6,1.5l-6.5,4.7L549,135.7l-6.3,4.3A28.5,28.5,0,0,1,554,152.2a43.3,43.3,0,0,0,7.6,10.9l7.2-8,27.6-24.6,8.4-7.7Z"/></g><g id="b5dac8db-ec11-45c4-aae9-bae2f57cedbd" data-name="Forma 3031"><path class="ab4a7e74-7936-4ecf-8051-aab51c401d56" d="M519.9,106.9l-18.6,13.8,5.7,3.5,3.4-3.4,17.9-14.6-1.8-.3A18.2,18.2,0,0,0,519.9,106.9Zm73.9,8.5c-3.3-.9-6.4,0-9.4.7l-37,27.3a34.2,34.2,0,0,1,4.4,4.9L583.4,124l11.2-8.4Z"/></g><g id="a8f32294-0353-4052-9e97-f5ecf20a9269" data-name="Forma 3029"><path class="aca0286f-c9f1-48a6-a3a4-e7455fd222db" d="M636,161.1c0,5.3-8.2,10.2-8.2,16.1l2-2.7c-10,38.5-21.5,55.6-20.5,55.2,11-16.3,17.7-31.5,23.9-50.5,1.7-5,3.1-10.3,3.1-15.6Z"/></g><g id="eb2ac95b-4f01-4760-a280-4c66c8a8cc3b" data-name="Forma 3024"><path class="a3340248-8901-49f6-b1bd-93c01edcd8b7" d="M630.3,133.1c-18.6,8.2-28,25.9-28,25.9-8.6,4.6-20.2,18.1-20.2,18.1s12.1-6.6,23.4,5.7c12.9,14,1.1,26.6,1.1,26.6,19.8-15.1,25.2-34.5,25.2-34.5,4.9-3.7,18.1-17.2,20.5-26.2S649,124.8,630.3,133.1Z"/></g><g id="b6d3d20e-b6ff-4c76-b1ec-4a7aad21ceaa" data-name="Forma 3028"><path class="b2c29958-15d8-41a8-a4ef-6a2652b4a0f1" d="M652.1,139.6c-4.3,8-10.5,15.3-16.6,21.6l-10.1,8.4c-3.9,4.4-6.5,10-10.6,14.5a19.1,19.1,0,0,1-5.6,3.8c6.5,11.8-2.6,21.5-2.6,21.5,19.8-15.1,25.2-34.5,25.2-34.5,4.9-3.7,18.1-17.2,20.5-26.2A16.6,16.6,0,0,0,652.1,139.6Z"/></g><g id="b102aa47-8950-4293-a424-0e900de0f0d2" data-name="Forma 3025"><path class="b4d212d9-dc48-44cf-9706-e04b0737760d" d="M606.9,159s-8.1,3.3-19.4,16.5a18.1,18.1,0,0,1,10.9,1.8c3-4.7,8.5-12.5,14.2-16.2,0,0,6-12.9,17.4-20.2A48.6,48.6,0,0,0,606.9,159Z"/></g></svg>