<svg id="Assets" xmlns="http://www.w3.org/2000/svg" viewBox="0 0 800 800"><defs><style>.cls-1{fill:#a76700;}.cls-2{fill:#c48000;}.cls-3{fill:#fdbd1b;}.cls-4{fill:#ffcf58;}.cls-5{fill:#de9827;}.cls-6{fill:#ffe29f;}.cls-7{fill:#f2b30e;}.cls-8{fill:#fcd173;}.cls-9{fill:none;}.cls-10{fill:#f12697;}.cls-11{fill:#cb09a6;}.cls-12{fill:#ff52a7;}.cls-13{fill:#ff87c8;}.cls-14{fill:#ffcfe8;}.cls-15{fill:#00b45e;}.cls-16{fill:#00bd76;}.cls-17{fill:#00975a;}.cls-18{fill:#b7efde;}.cls-19{fill:#007c62;}.cls-20{fill:#00cd81;}.cls-21{fill:#00df95;}.cls-22{fill:#fff;}</style></defs><g id="Forma_1663" data-name="Forma 1663"><path class="cls-1" d="M593.29,136.41c-49.38,10.48-90.64-86.65-90.64-86.65s23.28-14.41,7.66-35c-12.55-16.53-44.06-12-50.65,6.67s11.66,29.32,11.66,29.32-29.1,59.66-70.32,59.66-67.93-59.33-69.32-61.66c0,0,20.15-13,8-32.32-15.32-24.38-53.1-5-54.65,10.33s13.66,23.66,13.66,23.66c-41.71,97.28-71,90.31-71,90.31-14.31,2.79,1,21.66,1,21.66,93.57,60.48,360.38,10.73,364.91-3S593.29,136.41,593.29,136.41Z"/></g><g id="Forma_1663_copia_2" data-name="Forma 1663 copia 2"><path class="cls-2" d="M285,26.77c-1.55,15.36,13.66,23.66,13.66,23.66-41.71,97.28-71,90.31-71,90.31-14.31,2.79-9.65,3.45,4.66.67,0,0,29.27,7,71-90.31,0,0-15.22-8.3-13.67-23.66C290.75,17,306.28,4.21,322.53,5.18,304.71,1.08,286.19,15.29,285,26.77ZM494.83,5.35c-13.94-3-30.58,3.13-35.17,16.09-6.6,18.62,11.66,29.32,11.66,29.32s-29.1,59.66-70.32,59.66c-1.15,0-2.29-.06-3.41-.15a40.63,40.63,0,0,0,8.08.81c41.22,0,70.31-59.65,70.31-59.65s-18.26-10.7-11.66-29.33C468.41,10.57,482.05,4.43,494.83,5.35Z"/></g><g id="Forma_1640_copia" data-name="Forma 1640 copia"><path class="cls-3" d="M623,48c-19.87,0-21.82,25-21.82,25,0,17.59,8.18,23.66,8.18,23.66-20.79,47.37-33.69,59-82.87,60C452.28,158.16,429,92,429,92s18.77-9.36,16.37-28.66c-.28-16.09-20-29.24-38.19-29.24-14.81,0-33,8.81-38.2,29.24C366.57,82.64,385.34,92,385.34,92s-29,61.83-85.6,66.31c-42.4,3.35-68.78-.25-94.81-61.65,0,0,8.16-6.07,8.19-23.66,0,0-2-25-21.83-25s-26.74,40.11-2,51.65c0,0,11.15,110.89,5.79,147.28,0,0,19.91,42,212.13,43.77,196.82-3.4,212.12-43.77,212.12-43.77-5.36-36.39,5.8-147.28,5.8-147.28C649.78,88.12,642.91,48,623,48Z"/></g><g id="Rectángulo_1754_copia" data-name="Rectángulo 1754 copia"><path class="cls-4" d="M299.74,158.31a189.23,189.23,0,0,1-26.15.64l21.93,124.54q12.53,1.75,27.16,3.17l-22.6-128.38Zm42.57-15.68A88,88,0,0,1,306.4,157.5l24,129.85c12,1,25,1.85,39.11,2.43Z"/></g><g id="Forma_1640_copia_4" data-name="Forma 1640 copia 4"><path class="cls-5" d="M526.53,156.64C452.28,158.16,429,92,429,92s18.77-9.36,16.37-28.66c-.28-16.09-20-29.24-38.19-29.24a39.5,39.5,0,0,0-7.4.71c.58,0,1.16-.05,1.73-.05,18.2,0,37.91,13.16,38.2,29.25,2.4,19.29-16.37,28.65-16.37,28.65s23.29,66.16,97.53,64.65C543.22,156.85,546.54,156.23,526.53,156.64Zm-321.6-60s8.16-6.07,8.19-23.66c0,0-2-25-21.83-25a14,14,0,0,0-4.42.71c18.71,1,20.58,25,20.58,25,0,17.59-8.18,23.66-8.18,23.66,26,61.4,52.4,65,94.81,61.64,2-.15,4-.39,5.9-.68l-.24,0C257.34,161.66,231,158.06,204.93,96.66ZM623,48a20.69,20.69,0,0,0-5.34.68c19.62.43,26.28,40.16,1.72,51.64,0,0-11.15,110.89-5.79,147.28l5.66-.67c-5.36-36.39,5.8-147.28,5.8-147.28C649.78,88.12,642.91,48,623,48Z"/></g><g id="Elipse_1645_copia" data-name="Elipse 1645 copia"><path class="cls-6" d="M199.71,248.61c5.36-36.39-5.8-147.28-5.8-147.28C179.8,94.73,176,78.82,179,66.39c-.32,3.8,1.17,7,3.44,7.31S187.18,71,187.68,67s-1-7.52-3.38-7.82a3.89,3.89,0,0,0-3.49,2c3-6.71,8.31-11.46,15.15-11.46a21.12,21.12,0,0,1,4.33.43,19.14,19.14,0,0,0-9-2.1c-19.87,0-26.74,40.11-2,51.65,0,0,11.15,110.89,5.79,147.28,0,0,5.46,11.51,38.25,22.73C204.64,259,199.71,248.61,199.71,248.61ZM369,63.34C366.57,82.64,385.34,92,385.34,92s-29,61.83-85.6,66.31c-16.67,1.31-30.87,1.56-43.54-2.37,13.84,5.64,29.45,5.51,48.21,4C361,155.5,390,93.66,390,93.66S371.24,84.3,373.64,65a38.15,38.15,0,0,1,8.23-15.89c-1.3,2.8-1.34,5.5.16,7.11,2.44,2.61,8,1.39,12.38-2.72s6-9.55,3.58-12.15A5,5,0,0,0,393.83,40a41.34,41.34,0,0,1,18-4.25,42.64,42.64,0,0,1,12.06,1.82,43.81,43.81,0,0,0-16.72-3.48C392.36,34.1,374.19,42.91,369,63.34ZM630.05,49.88A14,14,0,0,0,623,48c-19.87,0-21.82,25-21.82,25,0,17.59,8.18,23.66,8.18,23.66-20.79,47.37-33.69,59-82.87,60a105.86,105.86,0,0,1-35.48-5,104.43,104.43,0,0,0,40.15,6.71c49.18-1,62.08-12.61,82.87-60,0,0-8.16-6.07-8.19-23.66a39.59,39.59,0,0,1,3.84-13.26c-.64,2.56-.2,4.84,1.32,5.69,2.06,1.14,5.32-.82,7.28-4.38s1.87-7.38-.19-8.53a3.34,3.34,0,0,0-3,.09,18.41,18.41,0,0,1,12.62-4.6A13.85,13.85,0,0,1,630.05,49.88Z"/></g><g id="Forma_1641_copia_2" data-name="Forma 1641 copia 2"><path class="cls-5" d="M618.62,235.05c-4.91,51-201.42,50.7-210.62,50.66h-.33c-9.2,0-205.72.36-210.62-50.66,0,0-8.4,1-9,13.34l1.67,17s21.7,47.27,218,47.32H408c196.25-.05,218-47.32,218-47.32l1.67-17C627,236.08,618.62,235.05,618.62,235.05Z"/></g><g id="Forma_1754" data-name="Forma 1754"><path class="cls-7" d="M190.72,241.05a2.23,2.23,0,0,0-.76-.43,18.19,18.19,0,0,0-1.91,7.77l1.67,17s21.7,47.27,218,47.32H408c18.08,0,34.67-.41,49.91-1.14L462.65,296S211,306.21,190.72,241.05Z"/></g><g id="Forma_1641_copia_4" data-name="Forma 1641 copia 4"><path class="cls-8" d="M618.62,235.05c-4.91,51-201.42,50.7-210.62,50.66h-.33c-9.2,0-205.72.36-210.62-50.66,0,0-5.19.64-7.7,6.89l.37,3.78s21.7,47.27,218,47.32H408c196.25-.05,218-47.32,218-47.32l.37-3.78C623.81,235.69,618.62,235.05,618.62,235.05Z"/></g><g id="Rectángulo_1759_copia" data-name="Rectángulo 1759 copia"><path class="cls-6" d="M332.15,282.69l-9.08,6.8c11.69,1.08,24.38,2,38.17,2.57l9.49-7.1C359.36,284.51,346.14,283.8,332.15,282.69Zm-44.8,2.4q11.75,1.85,25.39,3.35l8.94-6.66c-8.57-.79-17.31-1.75-26-2.9Z"/></g><g id="Elipse_1689_copia_3_Trazado_de_recorte" data-name="Elipse 1689 copia 3 Trazado de recorte"><path class="cls-9" d="M264.07,213.14c-12.71,1.6-20.66,11.24-19.24,21.88,1.44,10.83,12.57,21,27.06,21.26,15,.3,26.28-10.64,23.08-24C291.87,219.23,277.1,211.49,264.07,213.14Zm-68.42-41.53c-9.76,1.1-14.3,18.77-10.76,38.42,3.49,19.41,13.67,34.53,23,34.22s14.9-16.27,11.7-36.71C216.34,186.82,205.5,170.51,195.65,171.61Zm199.66,38.25c-20.8,4.82-32.54,22.52-28.48,39.73s23.16,30.11,45,27.6c22.41-2.58,38.56-21.05,33.42-41.15S416.62,204.93,395.31,209.86Zm140.84,2.95c-12.23,2.65-19.11,12.63-16.69,22.9,2.5,10.57,14.76,19.76,29.38,18.61,15.09-1.19,24.63-13.36,19.72-26C563.81,216.07,548.57,210.12,536.15,212.81ZM619,218.72c-2.07-13.44-9.33-23.56-16.05-22.31s-9.87,13.1-7.59,25.81c2.24,12.56,9.07,21.94,15.42,21.23S621,232,619,218.72Z"/></g><g id="Elipse_1675" data-name="Elipse 1675"><path class="cls-10" d="M266.39,210.7c-13.53,0-24.36,9.22-24.19,20.6s11.27,20.6,24.8,20.6,24.36-9.22,24.19-20.6S279.91,210.7,266.39,210.7Z"/></g><g id="Forma_1678" data-name="Forma 1678"><path class="cls-11" d="M286.36,227.72c-8.4,20.65-40,1.34-40,1.34-4,4,7.56,26.5,26.66,19.66S286.36,227.72,286.36,227.72Z"/></g><g id="Elipse_1678" data-name="Elipse 1678"><path class="cls-12" d="M266.79,214.13c-10.85.43-19.69,6.71-20.22,14.06S254,241.73,264.89,242c11.4.25,21.5-6.08,22-14.14S278.2,213.68,266.79,214.13Z"/></g><g id="Forma_1677" data-name="Forma 1677"><path class="cls-13" d="M245.7,230.39s6.51-10.53,21.73-16.24C267.43,214.15,246.2,215.15,245.7,230.39Z"/></g><g id="Elipse_1679" data-name="Elipse 1679"><path class="cls-14" d="M262.09,218.22c-1-1.91-4.12-2.43-6.4-.62-2.74,1.13-3.89,4.27-2.51,5.72,1.46,1,3.75,0,5-.64C259.79,221.78,263,219.77,262.09,218.22Z"/></g><g id="Elipse_1675-2" data-name="Elipse 1675"><ellipse class="cls-10" cx="539.44" cy="230.98" rx="24.5" ry="20.65" transform="translate(-33.34 103.42) rotate(-10.62)"/></g><g id="Forma_1678-2" data-name="Forma 1678"><path class="cls-11" d="M557.84,223.15c-3.64,22-38.72,10.1-38.72,10.1-3,4.8,13.22,24.26,30.35,13.37S557.84,223.15,557.84,223.15Z"/></g><g id="Elipse_1678-2" data-name="Elipse 1678"><path class="cls-12" d="M558.41,223.14c-1.27-8-11.64-11.93-22.66-9-10.49,2.8-17.74,10.89-16.62,18.2S529.4,244,540,241.82C551.21,239.56,559.67,231.14,558.41,223.14Z"/></g><g id="Forma_1677-2" data-name="Forma 1677"><path class="cls-13" d="M518.76,234.7s4-11.73,17.61-20.67C536.37,214,515.89,219.69,518.76,234.7Z"/></g><g id="Elipse_1679-2" data-name="Elipse 1679"><path class="cls-14" d="M532.06,219.19c-1.36-1.65-4.55-1.47-6.38.81-2.42,1.7-2.85,5-1.19,6.14,1.64.62,3.67-.79,4.75-1.72C530.61,223.18,533.26,220.52,532.06,219.19Z"/></g><g id="Forma_1649" data-name="Forma 1649"><path class="cls-15" d="M213.38,206.73c-.24-10-3.7-36-17.66-37,0,0-23.34,3.79-19.33,37.32s21.39,30.58,28.32,29.33S213.61,216.73,213.38,206.73Z"/></g><g id="Elipse_1652" data-name="Elipse 1652"><path class="cls-16" d="M206,191.09c-3.1-12.46-8.68-17.53-13-17.58s-9.62,5-11.39,18.1C179,211,186.72,232.92,196.52,232,206,231.05,210.52,209.34,206,191.09Z"/></g><g id="Elipse_1652_copia" data-name="Elipse 1652 copia"><path class="cls-17" d="M198.8,176.46c-5-.23-10.3,11.21-11.51,27.15-1.24,16.28,2.44,29.48,8.08,28.77s10.39-14.6,11.09-29.47C207.16,188.28,203.78,176.7,198.8,176.46Z"/></g><g id="Forma_1650" data-name="Forma 1650"><path class="cls-18" d="M189.72,175.07s-14,7.35-11,30.32c0,0,4.17-18.58,13.66-28.32C198.5,170.79,189.72,175.07,189.72,175.07Z"/></g><g id="Forma_1652" data-name="Forma 1652"><path class="cls-19" d="M205.93,188.67s2.17,36.43-11.21,43.61c0,0,8.31,3.72,12.78-9C211.79,211.11,205.93,188.67,205.93,188.67Z"/></g><g id="Forma_1649-2" data-name="Forma 1649"><path class="cls-15" d="M611,169.74c-14,.94-17.42,27-17.66,37S595,235.14,602,236.39s24.32,4.2,28.32-29.33S611,169.74,611,169.74Z"/></g><g id="Elipse_1652-2" data-name="Elipse 1652"><path class="cls-16" d="M625.07,191.61c-1.77-13.12-7.08-18.15-11.39-18.1s-9.89,5.12-13,17.58c-4.54,18.25,0,40,9.46,40.88C619.94,232.92,627.69,211,625.07,191.61Z"/></g><g id="Elipse_1652_copia-2" data-name="Elipse 1652 copia"><path class="cls-17" d="M619.38,203.61c-1.21-15.94-6.5-27.38-11.51-27.15s-8.36,11.82-7.66,26.45c.7,14.87,5.5,28.76,11.08,29.47S620.62,219.89,619.38,203.61Z"/></g><g id="Forma_1652-2" data-name="Forma 1652"><path class="cls-19" d="M600.74,188.67s-5.86,22.44-1.57,34.63c4.47,12.7,12.78,9,12.78,9C598.57,225.1,600.74,188.67,600.74,188.67Z"/></g><g id="Forma_1650-2" data-name="Forma 1650"><path class="cls-18" d="M605.37,177.44s-12.22,12.74-4.2,37c0,0,0-21.8,7.26-35.66C613.08,169.81,605.37,177.44,605.37,177.44Z"/></g><g id="Elipse_1665" data-name="Elipse 1665"><ellipse class="cls-15" cx="401.17" cy="238.39" rx="40.16" ry="33.66"/></g><g id="Elipse_1665_copia_3" data-name="Elipse 1665 copia 3"><path class="cls-17" d="M422.53,211.52c7,5.83,11.31,13.9,11.31,22.81,0,17.77-17.18,32.18-38.38,32.18a43.34,43.34,0,0,1-22.61-6.18,42.28,42.28,0,0,0,27.07,9.36c21.2,0,38.38-14.4,38.38-32.17C438.3,226.84,432.09,217.38,422.53,211.52Z"/></g><g id="Elipse_1667" data-name="Elipse 1667"><path class="cls-20" d="M420.71,214.84c-3.52-3.12-11.31-5.71-20.61-5.54-18.08.61-31.64,13.77-31.42,28.64.55,15,10.84,24.18,24.28,21.47,6.46-1.72,7-10.76,11.46-16.91,3.88-6.77,11-11.2,15-16C423.7,221.82,424.38,218.09,420.71,214.84Z"/></g><g id="Elipse_1667_copia" data-name="Elipse 1667 copia"><path class="cls-21" d="M420,214.92c-2.1-2.72-11.34-6.26-19.95-5.62-18,.68-31.6,13.86-31.41,28.71a26.67,26.67,0,0,0,6.58,17.25c3.24,3.34,6,3.23,8.34-.64,2.79-3.64,1.62-12.36,5.1-18.75,3-6.81,10.85-11.29,20-13.53S422.54,217.89,420,214.92Z"/></g><g id="Forma_1667" data-name="Forma 1667"><path class="cls-18" d="M401.67,209.39s-30.32-.74-33.33,22.33c-2.49,19.11,11,26.33,11,26.33S369,244.18,376,230.39C383.33,216,395.43,212.34,401.67,209.39Z"/></g><g id="Elipse_1669" data-name="Elipse 1669"><path class="cls-22" d="M384,215.78c-2.86-1-6.09,1.27-6.94,3.8-.76,2.17.45,4.15,2.13,3.53a11.92,11.92,0,0,0,5.21-2.83C386,218.9,387,217,384,215.78Z"/></g><g id="Polígono_1755_copia" data-name="Polígono 1755 copia"><polygon class="cls-22" points="205.85 186.69 187.49 184.18 189.64 179.42 184.82 181.58 182.36 166.39 179.9 181.58 175.08 179.42 177.22 184.18 159.06 186.69 177.22 189.21 175.08 193.97 179.86 191.82 182.36 209.06 184.86 191.82 189.64 193.97 187.49 189.21 205.85 186.69"/></g><g id="Polígono_1755_copia_2" data-name="Polígono 1755 copia 2"><polygon class="cls-22" points="401.06 49.27 388.62 47.56 390.07 44.33 386.81 45.8 385.14 35.5 383.47 45.8 380.2 44.33 381.66 47.56 369.34 49.27 381.66 50.97 380.2 54.2 383.44 52.74 385.14 64.43 386.83 52.74 390.07 54.2 388.62 50.97 401.06 49.27"/></g><g id="Polígono_1755_copia_3" data-name="Polígono 1755 copia 3"><polygon class="cls-22" points="398.73 221.56 386.29 219.85 387.74 216.63 384.47 218.09 382.81 207.79 381.14 218.09 377.87 216.63 379.33 219.86 367.01 221.56 379.33 223.26 377.87 226.49 381.11 225.03 382.81 236.72 384.5 225.03 387.74 226.49 386.29 223.26 398.73 221.56"/></g><g id="Polígono_1755_copia_4" data-name="Polígono 1755 copia 4"><polygon class="cls-22" points="202.77 50.6 190.33 48.89 191.78 45.66 188.52 47.13 186.85 36.83 185.18 47.13 181.92 45.66 183.37 48.9 171.05 50.6 183.37 52.3 181.92 55.53 185.16 54.07 186.85 65.76 188.54 54.07 191.78 55.53 190.33 52.3 202.77 50.6"/></g></svg>