<svg id="Assets" xmlns="http://www.w3.org/2000/svg" viewBox="0 0 800 800"><defs><style>.cls-1{fill:#4a1775;}.cls-2{fill:#6d309e;}.cls-3{fill:#351959;}.cls-4{fill:#2b064c;}.cls-5{fill:#f09927;}.cls-6{fill:#d67000;}.cls-7{fill:#ffcd35;}.cls-8{fill:#f09926;}.cls-9{fill:#eb8403;}.cls-10{fill:#d06a00;}.cls-11{fill:#d36c00;}.cls-12{fill:#ee8c15;}</style></defs><g id="Forma_36" data-name="Forma 36"><path class="cls-1" d="M652.4,199,162,204.3s1,52.56,12.19,67,78.27,66.59,233.51,66.59,211.41-46.14,225.51-56.7S657.51,220.5,652.4,199Z"/></g><g id="Forma_36_copia_2" data-name="Forma 36 copia 2"><path class="cls-2" d="M190.15,204,162,204.3s1,52.56,12.19,67c3.41,4.41,12.06,12.35,26.86,21.25C194,256.87,191.14,220.32,190.15,204Z"/></g><g id="Forma_36_copia" data-name="Forma 36 copia"><path class="cls-3" d="M652.4,199l-117.87,1.28L398,242.35l58.71,52.13s103.76-20.72,195.13-59.73C654,221.15,654.47,207.71,652.4,199Z"/></g><g id="Forma_39_copia_2" data-name="Forma 39 copia 2"><polygon class="cls-1" points="732.9 170.05 407.69 68.83 65.98 168.91 66.35 178.42 407.69 278.5 733.64 178.04 732.9 170.05"/></g><g id="Forma_39_copia" data-name="Forma 39 copia"><polygon class="cls-4" points="732.89 169.91 408.07 270.97 66.06 168.79 66.06 178.57 408.29 279.04 734.02 178.62 732.89 169.91"/></g><g id="Forma_40" data-name="Forma 40"><path class="cls-5" d="M574.48,236.64c-3.41-16.57-11.75-17.88-23.26-25.88S440.08,157.8,407.69,151c0,0-14.82-4.21-16.37,2.28-4.41,9.31,16.37,14.46,16.37,14.46S507.42,205.07,549.37,229c0,0,9.35,6,9.6,17.5s5.43,45.24,3.33,68.12,18,16.32,18.83.76S577.89,253.21,574.48,236.64Z"/></g><g id="Forma_40_copia_3" data-name="Forma 40 copia 3"><path class="cls-6" d="M543.46,221c-16.5-11.19-123.57-53.78-152.63-65.26.33,8,16.86,12,16.86,12S507.42,205.07,549.37,229a23.49,23.49,0,0,1,8.21,10.47C557.4,235.41,554.88,228.78,543.46,221Z"/></g><g id="Forma_40_copia_2" data-name="Forma 40 copia 2"><path class="cls-6" d="M574.48,236.64c-1.44-7-3.77-11.28-6.84-14.49,3.42,13.34,9.38,44.62,10.16,102.57a17,17,0,0,0,3.33-9.31C582,299.86,577.89,253.21,574.48,236.64Z"/></g><g id="Forma_40_copia" data-name="Forma 40 copia"><path class="cls-7" d="M553.77,233.1a21.46,21.46,0,0,1,5.2,13.43c.26,11.5,5.43,45.24,3.33,68.12a26.6,26.6,0,0,0,.27,7.78l4.16-.17C571,259,561.52,239.11,553.77,233.1Z"/></g><g id="Forma_505" data-name="Forma 505"><path class="cls-8" d="M598.85,407.12s-7.88-26.43-5.53-55.18l-42.84,1.14s.66,38.47-6.28,58.23c0,0-.73,4.48,7,3.42,1.1-2.62,2.52-13,3.32-17.5,0,0,.84,15.93.37,18.64,0,0,9,2.24,12.56,0,.75-2.69.91-10.9.73-14.46,0,0,3,11,2.59,15.22,0,0,16.33-1.28,21.05-4.94l-.37-13.7s3.28,8.62,2.95,12.17A19.82,19.82,0,0,0,598.85,407.12Z"/></g><g id="Forma_505_copia_2" data-name="Forma 505 copia 2"><path class="cls-9" d="M598.85,407.12s-7.26-24.37-5.77-51.76l-8.63,5.72L583,391.14l-1.11-29.3-3,1.14-3.32,48.71L572.27,366l-3,1.14L568.2,390l-1.84-25.12h-4.43c.91,8.33-.33,39.52-.88,51.93,2.39.16,4.91,0,6.42-.94.75-2.69.91-10.9.73-14.46,0,0,3,11,2.59,15.22,0,0,16.33-1.28,21.05-4.94l-.37-13.7s3.28,8.62,2.95,12.17A19.82,19.82,0,0,0,598.85,407.12Zm-50.65,7.74a14.16,14.16,0,0,0,3-.13c1.1-2.62,2.52-13,3.32-17.5,0,0,.84,15.93.37,18.64a39.17,39.17,0,0,0,6,.93c-.21-27.11-7.06-56.87-7.06-56.87C553.83,374.38,549.42,406.3,548.2,414.86Z"/></g><g id="Forma_505_copia" data-name="Forma 505 copia"><path class="cls-10" d="M554.06,400.15c.17-1.11.34-2.11.48-2.92,0,0,.84,15.93.37,18.64,0,0,5.81,1.44,9.93.86l-8.82-42Zm14.69,3.35c.85,3.4,2.36,10.05,2,13.13,0,0,1.58-.12,3.91-.4l-6.13-27Zm23,6.77-4.39-31.69-1.75,35.67a18.49,18.49,0,0,0,6.18-2.56Zm-10.19,4.89c1.26-.24,2.51-.51,3.71-.82l-2.71-22.06Z"/></g><g id="Elipse_508" data-name="Elipse 508"><ellipse class="cls-5" cx="570.6" cy="341.48" rx="27.88" ry="28.73"/></g><g id="Elipse_508_copia_2" data-name="Elipse 508 copia 2"><path class="cls-7" d="M575.75,315a27.34,27.34,0,0,1,8.33,1.3,27.08,27.08,0,0,0-13.48-3.58c-15.39,0-27.88,12.86-27.88,28.73a28.78,28.78,0,0,0,16.54,26.24,29.31,29.31,0,0,1-11.74-23.6C547.52,328.05,560.16,315,575.75,315Z"/></g><g id="Elipse_1709_copia_2" data-name="Elipse 1709 copia 2"><path class="cls-11" d="M588.59,329.94c3.35,7.78,1.65,17.6-5,24.66-6.89,7.3-17,9.43-25.09,6a20.78,20.78,0,0,0,14,5.41c11.73,0,21.23-9.79,21.23-21.88A22.12,22.12,0,0,0,588.59,329.94Z"/></g><g id="Elipse_1709_copia" data-name="Elipse 1709 copia"><path class="cls-12" d="M586,326a18.09,18.09,0,0,0-11.66-5.19,16.9,16.9,0,0,1,9.12,4.44c7.29,6.91,7.06,19-.52,27s-19.62,8.86-26.91,1.95a17.2,17.2,0,0,1-5.27-11.43,20.11,20.11,0,0,0,5.69,15.74c7.85,7.76,20.83,6.78,29-2.19S593.89,333.77,586,326Z"/></g></svg>