<svg id="Assets" xmlns="http://www.w3.org/2000/svg" viewBox="0 0 800 800"><defs><style>.cls-1{fill:#6a0c70;}.cls-2{fill:#a637aa;}.cls-3{fill:#59055f;}.cls-4{fill:#8944bf;}.cls-5{fill:#6b289f;}.cls-6{fill:#b27cdb;}.cls-7{fill:#514646;}.cls-8{opacity:0.61;}.cls-9{fill:#00fcfa;}.cls-10{opacity:0.48;}.cls-11{fill:#fdf1af;}.cls-12{opacity:0.55;}.cls-13{fill:#f656b2;}.cls-14{opacity:0.49;}.cls-15{fill:#fff;}.cls-16{opacity:0.24;}.cls-17{fill:#ffac00;}.cls-18{opacity:0.68;}</style></defs><g id="Forma_3870" data-name="Forma 3870"><path class="cls-1" d="M160.78,389.68S148,386,140.45,390s-9.07,3.67-10.17,16.07-2.08,61.4.33,83c1.84,16.43,16.72,10.49,16.72,10.49s-.44-6.14,1.32-7.54c0,0-2.38-1.29,10.16.65C158.53,491.75,155.52,449,160.78,389.68Z"/></g><g id="Forma_3873" data-name="Forma 3873"><path class="cls-2" d="M140.45,390c-7.53,4-9.07,3.67-10.17,16.07s-2.41,61.44.33,83c1,7.57,3.71,10.12,6.15,10.82-2.27-75.65.34-86.56,6.31-94.12,4.14-5.23,11.9-7,17-7.58.22-2.79.45-5.62.71-8.49C160.78,389.68,148,386,140.45,390Z"/></g><g id="Forma_3871" data-name="Forma 3871"><path class="cls-3" d="M158.31,485.58c-5.18-.94-13.43-1.71-20.49.84a10.49,10.49,0,0,0-6.29,7.07c2.83,11.23,15.8,6.71,15.8,6.71s-.93-6.32,1.64-8.2c0,0,3.43-1,9.84.65C158.75,492.44,158.53,490,158.31,485.58Z"/></g><g id="Forma_3870-2" data-name="Forma 3870"><path class="cls-1" d="M669.72,406.08c-1.1-12.4-2.64-12.08-10.17-16.07s-20.33-.33-20.33-.33c5.26,59.33,2.25,102.07,2,103,12.54-1.94,10.16-.65,10.16-.65,1.76,1.4,1.32,7.54,1.32,7.54s14.88,5.94,16.72-10.49C671.8,467.48,670.82,418.48,669.72,406.08Z"/></g><g id="Forma_3873-2" data-name="Forma 3873"><path class="cls-3" d="M669.72,406.08c-1.1-12.4-2.64-12.08-10.17-16.07s-20.33-.33-20.33-.33c.26,2.87.49,5.7.71,8.49,5.1.59,12.86,2.35,17,7.58,6,7.56,8.58,18.47,6.31,94.12,2.44-.7,5.19-3.25,6.15-10.82C672.13,467.52,670.82,418.48,669.72,406.08Z"/></g><g id="Forma_3871-2" data-name="Forma 3871"><path class="cls-3" d="M662.18,486.42c-7.06-2.55-15.31-1.78-20.49-.84-.22,4.4-.44,6.86-.5,7.07C647.6,491,651,492,651,492c2.57,1.88,1.64,8.2,1.64,8.2s13,4.52,15.8-6.71A10.49,10.49,0,0,0,662.18,486.42Z"/></g><g id="Forma_3869_copia_4" data-name="Forma 3869 copia 4"><path class="cls-4" d="M655,395.92c-2-15.08-4.08-34.33-65.26-69.2-91.05-51.89-286.6-52.14-378.09,0-61.18,34.87-63.25,54.12-65.26,69.2s-2,125.22,8.53,143,13.08,29.36,56.73,44.27,103.62,47.1,135.1-19c31.84-66.87,76.05-66.87,107.89,0,31.48,66.12,91.45,33.94,135.1,19s46.18-26.52,56.74-44.27S657,411,655,395.92ZM608,500.54c-3,15.61-20,52.78-70.45,53.43-26.87.35-38-18.6-38-18.6s-52.83-70.22-94.51-70.22-94.5,70.22-94.5,70.22-10.44,21.49-31.09,21.56c-50.44.16-72.71-39.47-75.67-55.08-1.83-17-7.1-55.41.33-96.84,14.41-53.51,91.5-73.71,97.74-68.42s9.82,7.82,37.07,2.26c60-10,66-9.67,132.24,0,27.26,5.56,30.71,3.12,37.07-2.26s85,13.6,99.41,67.11C615.11,445.13,609.85,483.58,608,500.54Z"/></g><g id="Forma_3869_copia_7" data-name="Forma 3869 copia 7"><path class="cls-5" d="M337.53,556.93c-31.48,66.12-91.45,33.93-135.1,19-14.86-5.08-25-9.77-32.22-14.45,7.39,7.2,18.95,14,41.4,21.66,43.65,14.92,103.62,47.1,135.1-19,21.49-45.14,48.62-59.81,73.78-44C392.91,494,361.67,506.23,337.53,556.93ZM655,395.92c-1.59-12-3.23-26.56-34.38-49.48,22.33,18.86,23.78,31.6,25.2,42.26,2,15.08,2,125.22-8.53,143S624.17,561,580.52,576c-33.47,11.43-76.55,33-109,12.65,33.15,31.91,81.45,7.11,118.19-5.44,43.65-14.91,46.18-26.52,56.74-44.27S657,411,655,395.92Zm-19.35-12.79s5.14,49.75,3.28,114.44c0,0,4.8-1,4.59-29.84S645.87,384.62,635.61,383.13Z"/></g><g id="Forma_3869_copia_6" data-name="Forma 3869 copia 6"><path class="cls-6" d="M158.81,500.2c.71-5.36,3.61-114.78,3.61-114.78S152,384.78,158.81,500.2Zm7.81,57.38Zm204.36-63c15.51-13.82,27.66-15.75,42.63-19.35,0,0-29.91-3.66-60.05,14.81-19,15.91-34.73,34.86-40.56,42.19-4.79,9.35-2.71,15.1-4.33,27.28,0,0,19-23.73,32.47-36.4s11.15-2.62,11.15-2.62S350,535.75,326.71,575c4.84-5.47,11.07-13.55,15.08-22,20.29-42.6,46.58-52,70.51-40.33-5.61-7-19.88-20.42-42.63-3.28C361.37,515.62,361.62,503,371,494.62ZM649.35,376.19l-.1-.19c-.29-.53-.6-1.08-.92-1.62l-.15-.25c-.17-.29-.35-.59-.54-.88l-.15-.25-.32-.5-.2-.31c-.18-.26-.35-.53-.54-.8l-.23-.34-.34-.48-.3-.43c-.17-.23-.34-.47-.52-.7l-.3-.41-.35-.46-.55-.71-.35-.44-.38-.48c-.15-.17-.29-.35-.44-.53l-.55-.65c-.12-.14-.24-.29-.37-.43l-.5-.58-.49-.55-.55-.6-.38-.42-.78-.83-.34-.36-.61-.63-.38-.38-.88-.88-.37-.37-.72-.7-.34-.33-1-.93-.4-.36-.92-.84-.36-.33-1-.86-.4-.36-1.16-1-.33-.28-1-.85-.39-.32-1.28-1-.39-.32-1.14-.9-.32-.26L623.93,349l-.42-.33-1.43-1.08-.2-.14c-.48-.37-1-.74-1.48-1.1L620,346l-1.6-1.17-.32-.22c-.48-.35-1-.69-1.47-1l-.41-.29-1.73-1.2-.42-.28c-.53-.37-1.07-.73-1.62-1.1l-.3-.21-1.89-1.25-.47-.31-2-1.29-.06,0-2-1.3-.49-.32-2.1-1.31-.33-.2-2-1.21-.46-.28-2.24-1.35-.47-.29-2.11-1.25-.33-.2-2.4-1.4-.56-.32-2.52-1.45c-91.05-51.89-286.6-52.14-378.09,0-61.18,34.87-63.25,54.12-65.26,69.2s-2,125.22,8.53,143c.23.39.46.78.68,1.17l.16.26.63,1.1.15.24c.16.3.33.58.49.87l.22.38.25.44c1.76,3.09,3.39,6,5.2,8.8h0c.47.74,1,1.46,1.47,2.18l0,0c.51.71,1,1.41,1.57,2.11l0,0c.27.35.55.7.84,1-1.44-2.5-2.89-5.11-4.53-7.87-10.56-17.75-10.53-127.9-8.53-143s4.08-34.33,65.26-69.2c91.5-52.14,287-51.89,378.1,0,28.5,16.25,44.17,29.1,53,39.72Z"/></g><g id="Forma_3869_copia_2" data-name="Forma 3869 copia 2"><path class="cls-7" d="M618.3,404.83c-14.41-61.94-104-83.8-110.28-77.68s-9.82,9.06-37.09,2.62c-66.29-11.2-72.31-11.62-132.35,0-27.27,6.44-30.73,3.61-37.09-2.62s-95.87,15.74-110.29,77.68c-7.43,48-2.16,92.46-.33,112.1,3,18.07,37.42,53.33,87.89,54.09,26.9.4,31.42-13.77,31.42-13.77S363.05,476,404.75,476s94.58,81.29,94.58,81.29,4.52,14.17,31.42,13.77c50.47-.76,84.93-36,87.89-54.09C620.47,497.29,625.74,452.79,618.3,404.83ZM608,500.54c-3,15.61-20,52.78-70.45,53.43-26.87.35-38-18.6-38-18.6s-52.83-70.22-94.51-70.22-94.5,70.22-94.5,70.22-10.44,21.49-31.09,21.56c-50.44.16-72.71-39.47-75.67-55.08-1.83-17-7.1-55.41.33-96.84,14.41-53.51,91.5-73.71,97.74-68.42s9.82,7.82,37.07,2.26c60-10,66-9.67,132.24,0,27.26,5.56,30.71,3.12,37.07-2.26s85,13.6,99.41,67.11C615.11,445.13,609.85,483.58,608,500.54Z"/></g><g id="Forma_3869_copia_3" data-name="Forma 3869 copia 3" class="cls-8"><path class="cls-9" d="M607.68,403.7c-14.4-53.51-93.17-72.4-99.41-67.11s-9.81,7.82-37.07,2.26c-66.23-9.67-72.25-10-132.24,0-27.25,5.56-30.71,3.12-37.07-2.26S218.56,351.5,204.15,405c-7.43,41.43-2.16,79.88-.33,96.84,3,15.61,25.23,55.24,75.67,55.08,20.65-.07,31.09-21.56,31.09-21.56s52.82-70.22,94.5-70.22,94.51,70.22,94.51,70.22,11.1,19,38,18.6c50.44-.65,67.49-37.82,70.45-53.43C609.85,483.58,615.11,445.13,607.68,403.7Z"/></g><g id="Elipse_3883" data-name="Elipse 3883" class="cls-10"><path class="cls-11" d="M339,338.85c-27.25,5.56-30.71,3.12-37.07-2.26-2.75-2.34-19.36.31-38.27,8.61,3.76,16.23,19.49,28.42,38.33,28.42,21.36,0,38.72-15.66,39.18-35.13Z"/></g><g id="Forma_3885" data-name="Forma 3885" class="cls-12"><path class="cls-13" d="M609.39,414.81l-14.77,4.72L570.36,434l-23.29-2.62s-17.45-8.78-31.15-12.79-4.8-3.1-17-7.87-8.6-4.74-14.1-5.25S471,407.74,469,408.7l-14.43,6.89s-22,5.92-24.27,4.59-14.25-10.55-16.07-11.8-16.06-18.7-16.06-18.7l-20.33-24.26-16.73-.33s-24.9,14.61-27.54,17.05-20.34,14.43-20.34,14.43S289.88,411,288.34,413,271,420.84,271,420.84l-20.66-14.1L232.59,391l-16.39-4.59-7.12,5.74A68.82,68.82,0,0,0,204.15,405c-7.43,41.43-2.16,79.88-.33,96.84,3,15.61,25.23,55.24,75.67,55.08,20.65-.07,31.09-21.56,31.09-21.56s52.82-70.22,94.5-70.22,94.51,70.22,94.51,70.22,11.1,19,38,18.6c50.44-.65,67.49-37.82,70.45-53.43C609.68,485.11,614.19,451.89,609.39,414.81Z"/></g><g id="Forma_3887" data-name="Forma 3887" class="cls-14"><path class="cls-15" d="M358.85,384.44l-7.55-2.3,8.53-8.85,10.49-2,10.74-2.09-3.19-3.81-16.73-.33s-24.9,14.61-27.54,17.05-20.34,14.43-20.34,14.43S289.88,411,288.34,413,271,420.84,271,420.84l-.71-.49c-3,3.22-10.18,10.74-13.39,12.62-4.11,2.42-24.48,23.53-26.23,24.59s29.51-10.16,29.51-10.16l18.69-19,20.33-2.95,14.43-5.9,14.76-10.83L307.69,414l-5.25-2.62L329,394.6s11.12-6.89,13.78-7.21,13.77,3.93,13.77,3.93ZM254.57,409.65l-4.27-2.91L232.59,391l-16.39-4.59-7.12,5.74a68.36,68.36,0,0,0-4.62,11.8l4.85-4.1,15.41-2.3,11.81,9.84ZM202,420.11l8-2.22-7.64-.9C202.2,418,202.08,419.07,202,420.11ZM474.21,436c10.43-.78,1.05-1.76,1.05-1.76S452.89,436.72,474.21,436Zm128.94.21-23.94-1,17.71-8.86,9.51-1,4.21,1.31q-.48-5.88-1.25-11.93l-14.77,4.72L570.36,434l-23.22-2.61a15.42,15.42,0,0,1-4.66,4.25C536.9,439,527,447.5,521.17,451s-.61,2.23-9.84,6.23-7.54,2.95-7.54,2.95,8.32-7.67-6.89,3.28c-12.92,9.3-8.62,5.16-7,3.71l-6.41,5.8s-8.2,2.15-6.89,8.2c.95,4.39-8.65,10.88-14,14.1l.55.5L491,485.44,502.48,474s13.75-10.53,15.74-11.15c.72-.22,5.79-.16,12.14,0,11,.23,26,.64,28.85,0,4.48-.95,27.87-4.26,27.87-4.26l-36.73.33-9.83-10.5,13.77-7.54s17.49-1,20-.65,11.8,1.44,18,1,11.45.35,17-1.31S603.15,436.25,603.15,436.25ZM489.87,467.18l.47-.43ZM461.16,450l13.11-3.28s18.71-.58,6.89-2.62c-2.64-.45-4.89,0-5.9-.33-2.72.2-6.2-.48-12.13-.33-28.69.74-27.22,1-27.22,1s-8.93,3.64-13.78-.33-13.22.66-4.26-5.57,14.28-10.67,16.73-11.81,12.66-4.12,15.41-4.92,14.87-1.57,17.71-2,10.2-.76,13.77-2.62,5.17,0,13.12-6.23a13.9,13.9,0,0,0,1.55-1.41h0c-5.91-2.42-6.79-3.26-8.13-3.68l-.08,0-.12,0-.11,0-.11,0-.11,0-.12,0-.13,0-.12,0-.14,0-.13,0-.15,0-.15,0-.16,0-.18,0-.17,0-.21,0-.17,0-.27,0h-.15l-.47-.05c-5.5-.5-13.73,2.32-15.74,3.28l-14.43,6.89-.06,0c-1.3.34-22.05,5.85-24.21,4.57l-.22-.14-.17-.11-.09-.05-.26-.18,0,0-.32-.22h0a8.72,8.72,0,0,1-3.17,2.36c-6.49,3.24-25.65,18.27-35.74,22.3s-7.88,4.34-20,11.15-6.74,2.07-14.43,9.18-5.88,3.78-6.55,6.56,14.23-2.38,17.38-4.59,13.37-5,22.62-10.17S388,450.7,407.05,451s-4.63-.35,17.38,0,12.46,1,12.46,1-23,7.1,11.15-.66S461.16,450,461.16,450Z"/></g><g id="Forma_3884" data-name="Forma 3884" class="cls-16"><path class="cls-17" d="M278.49,475.7c-1.2.09-2.28.23-2.28.23Zm-24.91.56s-8.92-1.33.36.18C254.28,476.18,253.58,476.26,253.58,476.26Zm112.48-1.32c-2.35.48-2.11,1.6-3.61,2.3s-9.84-3.93-9.84-3.93-9.83-3.72-14.1-4.27-3.45-2-15.08-3.28-12.46,2.3-12.46,2.3l-12.46,1.64s5.34,0,6.32.59c.76.46-1.12,1.26-10.26,2.69s-11.46,2.06-11,2.29h5.14s-4.61.3-5.14,0h-.76l-4.28.43.3,0c3.15-.23,6.5-.08-7.17,3.53-19.36,5.11-4.59.65-4.59.65l-5.58-.65s9.27-.07-4.59-2.3l-2.92-.47a24.14,24.14,0,0,1-4.62,1.78c-6.76,2.24-.12-.05-5.25,1.64s-1.35-.59-5.57-.65-3.45-1.39-4.92-1.31-5.28-2-9.18-2.3-2.42-.54-3.94.33a54.68,54.68,0,0,1-5.25,2.29l-8.85-1.31-5.25-3c.8,11.76,2,21.41,2.71,27.9,3,15.61,25.23,55.24,75.67,55.08,20.65-.07,31.09-21.56,31.09-21.56s28.25-37.56,59.74-57.74l-1-.72C366.61,475,368.4,474.47,366.06,474.94Zm242,10.5c-3.13,4.79-.6-.13-3.61,0s-.29-1.1-2.29-2.3-2-1.42-6.89-1.64-2.74-1.27-7.54-2-1.59-.85-4.59-1.64-3.21-2.28-5.25-3.61S576,472,574.29,472s-6.23,0-6.23,0l-8.85,3.28a73.9,73.9,0,0,1-7.54-2.29,37.32,37.32,0,0,1-3.94-3.28s-5.91,1.57-7.54,2.95-9.15,3.54-10.82,4.26-3.61-2-3.61-2l-5.9-2.29-5.58,4.59-5.57,2-5.91-2.3h-2.95L491,483.8l-5.25-.33-6.56-1L473,487.08l-6.88,1.31-6.23-2.62-4.27,2-1.1.59c25.1,20.45,45.11,47.05,45.11,47.05s11.1,19,38,18.6c50.44-.65,67.49-37.82,70.45-53.43.51-4.71,1.29-11.07,2-18.69A22.59,22.59,0,0,1,608.07,485.44Z"/></g><g id="Forma_3888" data-name="Forma 3888" class="cls-18"><path class="cls-15" d="M166,370.67c2.44-2.53,63.41-56.55,145.27-68.54C311.3,302.13,218.31,309.16,166,370.67Zm129.2-49.19a3.27,3.27,0,0,1,.4-.3A.45.45,0,0,0,295.23,321.48Zm9.51,2.95c-4.19-5.7-7.92-4-9.11-3.25.68-.1,2.53.53,7.47,5.22a17.51,17.51,0,0,0,16.39,4.26C315,330.88,309.83,331.36,304.74,324.43ZM351.3,533s22.1-31.58,47.55-25.58C398.85,507.41,378.72,491.49,351.3,533Zm272.51-48.21s-2,28.21-3.28,34.11-6,12.93-10.49,19c0,0,12.7-8.31,14.42-18S623.81,484.78,623.81,484.78Z"/></g></svg>