<svg id="Assets" xmlns="http://www.w3.org/2000/svg" viewBox="0 0 800 800"><defs><style>.cls-1{fill:#00d42a;}.cls-2{fill:#00f950;}.cls-3{fill:#00923d;}.cls-4{fill:#004f2a;}.cls-5{fill:#004d2a;}.cls-6{fill:#00993e;}.cls-7{fill:#00532b;}.cls-8{opacity:0.63;}.cls-9{fill:#00ffc2;}.cls-10{fill:#00c584;}.cls-11{fill:#fff;}.cls-12{fill:#ff80ff;}.cls-13{fill:#a4008b;}.cls-14{opacity:0.64;}.cls-15{fill:#ffd272;}.cls-16{fill:#df9c23;}.cls-17{fill:#fff4e5;}.cls-18{opacity:0.53;}.cls-19{fill:#ff7f00;}.cls-20{opacity:0.27;}.cls-21{fill:#5a3f71;}.cls-22{opacity:0.65;}.cls-23{fill:#fbf4d8;}.cls-24{opacity:0.35;}.cls-25{fill:#5e8080;}.cls-26{fill:#81a7a8;}.cls-27{fill:#f0f;}.cls-28{fill:#b800d6;}.cls-29{fill:#008bff;}.cls-30{fill:#ffe0ca;}.cls-31{fill:#004d29;}.cls-32{fill:red;}.cls-33{fill:#e68300;}.cls-34{fill:#ffb700;}.cls-35{fill:#cd6e00;}.cls-36{fill:#ef8200;}.cls-37{opacity:0.58;}.cls-38{fill:#fff1d7;}.cls-39{fill:#ffe7b3;}.cls-40{fill:#ffecc5;}</style></defs><g id="Forma_6477" data-name="Forma 6477"><path class="cls-1" d="M729.46,345.29c-12.78-1.41-29.84-8.33-46.36-21.44-29.12-23.12-31.41-41.41-59.49-64.34-91.15-74.42-358.3-32.15-397.11-24.91s-62,60.4-94.77,79.56S62,337.22,63.24,344.6s29.9,26,88.55,24.91,114.15-35.28,114.15-35.28C377.24,441.74,525,345.41,522.6,346.68s23.87-15.54,41.51-4.15c60.78,39.26,142.13,23.22,157.74,22.14S742.24,346.71,729.46,345.29Z"/></g><g id="Forma_6480" data-name="Forma 6480"><path class="cls-2" d="M131.73,314.16c-21.35,12.49-44.48,18.49-57.67,23.2C98.5,342.27,150,345.45,194,301c0-.9,1.34-24.89-1-47.77C171.74,272.59,153.92,301.18,131.73,314.16Zm129.45-14.08c-.06-.29-.08-.44-.08-.44C260.25,299.94,260.34,300.08,261.18,300.08Zm166.64-26.73s-155.23,26.7-166.64,26.73c1.36,6.48,19.92,81.84,146.58,61.82,0,0-30-.32-39.43-8.3C368.33,353.6,422.27,327.73,427.82,273.35Z"/></g><g id="Forma_6479" data-name="Forma 6479"><path class="cls-3" d="M662.58,337a3.54,3.54,0,0,0-2.31-.65C661,336.56,661.81,336.77,662.58,337Zm66.88,8.34c-12.78-1.41-29.84-8.33-46.36-21.44-29.12-23.12-31.41-41.41-59.49-64.34-91.15-74.42-358.3-32.15-397.11-24.91-30.16,5.63-50.91,39-74,62.58,8.49,1.08,22.57,2.31,29.07-.31,0,0,15.46,17.66,32.51,15.91,0,0-55.47,27.72-80.52,30.39,3.8.92,33.38,19.46,99.2-22.09,21.84-13.79,44.28,3.46,44.28,3.46s47.9,24.67,152.2-37.36c0,0,29.45,26.08,56.73,29.06,0,0-30.37,27.19-61.58,40.82,0,0,49-10.87,82.33-35.29a77,77,0,0,0,41.51-1.38c10.92-3.4,18.76,2.61,28.36,5.53,10.81,3.3,34.32,10.62,53.27,6.92,0,0-28.16-3.46-33.2-11.07,1.67-.82,34.84-.14,24.9-25.59,0,0,40.14,31.78,61.57,39.43,0,0-10.63,3.61-20.52,1.34,3.11,2,7.07,7.46,39.9,4.19,0,0,17.19,5.51,32.44,6.47A9,9,0,0,0,729.46,345.29Zm-596.35-2.07.42-.05C133.29,343.12,133.15,343.12,133.11,343.22Z"/></g><g id="Forma_6477-2" data-name="Forma 6477"><path class="cls-4" d="M736.75,351.48C715.2,363.93,596.23,338.08,571,328c-26.4-10.56-40.23,2.22-117.61,33.9-57.22,23.42-115.67,12.21-142.26,4.77,102.24,51.49,213.52-21.09,211.44-20-2.39,1.26,23.87-15.54,41.51-4.15,60.78,39.26,142.13,23.22,157.74,22.14C731.77,364,737.31,356.9,736.75,351.48Zm-506.09-21.4c-86.38,41.18-149.89,21.6-167.41,14.58,1.4,7.43,30.05,25.95,88.54,24.85,51.6-1,100.76-27.55,111.83-33.92-2.51-3.56-6.39-8.8-11.93-15.55Z"/></g><g id="Forma_6470" data-name="Forma 6470"><path class="cls-1" d="M694.87,269.89c-7.4-.44-26.72,8-92-51.2S254.39,164.4,205.06,203.47s-76.91,52.66-96.86,63-22.1,7.18-6.22,15.22c46.63,23.62,92.7-6.23,92.7-6.23s3.8,35.53,79.56,37.36,148.05-55.35,148.05-55.35c25.6,37,97.75,57.85,141.82,62.27s47.15-18.63,36-27.67a41.33,41.33,0,0,1-13.84-20.76c36.08,21.37,92.58,15.85,108.62,12.45S702.26,270.33,694.87,269.89Z"/></g><g id="Forma_6474" data-name="Forma 6474"><path class="cls-5" d="M702.49,273.74c-4.85,1.1-13.53,2-28.38,2.37-51.33,1.26-96.85-27-96.85-27,0,6.3,5,15.17,10.44,23,36.13,20.38,91.34,15,107.17,11.61C704.71,281.64,705.25,277.06,702.49,273.74Zm-144.6,32.12c-72.79-5.31-119.74-50.67-122.46-54s-8.05-12.7-18.68-4.84C324.4,313.53,256,304.89,216.82,291.33s-19.37-54.65-19.37-54.65C157.21,282.05,107.1,277.73,91.57,275c-.7,1.45,2.75,2.73,10.41,6.61,46.63,23.62,92.7-6.23,92.7-6.23s3.8,35.53,79.56,37.36,148.05-55.35,148.05-55.35c25.6,37,97.75,57.85,141.82,62.27,30.64,3.07,41.46-7.14,41.46-16.68C602.58,306.39,591,308.28,557.89,305.86Z"/></g><g id="Forma_6473" data-name="Forma 6473"><path class="cls-2" d="M516.38,277.5c-7.53-6.57-31.2-23.7-38.75-45,0,0-35.79-.1-46.42-1,6.39,7,33.54,46.75,85.86,57.07C574.72,299.94,523.9,284.06,516.38,277.5Zm-416.19-7.15c14.49.42,46-5.06,87.57-49.58,0,0,1.06-2.33,2.43-5.78-40.18,30.37-64.14,42.23-82,51.44C105.1,268,102.43,269.31,100.19,270.35Zm110.4,6.46c20,14.3,111.07-18.55,143.9-73.34,0,0-120.9,22.41-134.17,22.15C218,231.61,193.27,264.41,210.59,276.81Zm9-51.89c-.83.46-.5.67.73.7C220.68,224.7,220.52,224.4,219.59,224.92Zm210.31,5.53c-2.77.44-1.81.78,1.31,1.05C430.56,230.79,430.12,230.42,429.9,230.45Z"/></g><g id="Forma_6471" data-name="Forma 6471"><path class="cls-6" d="M570.34,242.91s13.59,0,20.06-3.46c1.65-.43,44.76,26.56,89.39,29.67-13.2-2.81-36.06-13.36-76.94-50.43-65.29-59.2-348.46-54.29-397.79-15.22-9.41,7.45-18,14-25.95,19.73A24.77,24.77,0,0,0,185,227s-12.2,22.13-42.9,38.75c0,0,35.57-12,57.42-36.67,0,0,81.63,28,160.51-22.83,0,0,8.81,12.73,40.81,20.06,0,0-40.92,47.23-144.59,64.34,0,0,98.85,6.39,166-57.42,0,0,61.89,21.27,105.85,16.6,0,0,13.82,27.24,31.82,34.6a56.88,56.88,0,0,1-26.29-4.16c5,2.36,21,15.68,39.44,14.53,0,0,31,18.07,18.67-2.76S570.34,242.91,570.34,242.91Z"/></g><g id="Forma_6465" data-name="Forma 6465"><path class="cls-1" d="M645.75,212.47c4.46-1.2-54.69-5.1-99.63-66.42s-176-44.31-177.79-47.73c0,0-54.09,8.69-100.32,51.19s-71.5,39.18-86.47,42.89-26.82,16.62-.7,20.07,100.26,13.06,168.81-26.29c0,0,77.37,56.39,169.49,42.2,22.57-3.48,23.4-13.34,28.37-18.68,17.21,13.47,69.79,21.14,97.54,13.14C665.35,217,641.29,213.66,645.75,212.47Z"/></g><g id="Forma_6467" data-name="Forma 6467"><path class="cls-2" d="M268,149.51c-44.15,40.6-69.19,39.39-84.4,42.43,22.86,1.27,78.36-6.22,119-48.66l-10.49-12.73A202.8,202.8,0,0,0,268,149.51Zm130.76-4.15c-15.93-2.16-28.73,14.15-52.58-9,0,0,12.4,54.82,101,67.1,0,0,8.26,0,4.16-6.22S409.07,180.89,398.77,145.36Zm150.81,37.36s21.88,21,53.27,26.29C602.85,209,564.8,188.57,549.58,182.72Z"/></g><g id="Forma_6466" data-name="Forma 6466"><path class="cls-3" d="M546.12,146.05c-44.93-61.32-176-44.31-177.79-47.73,0,0-47.13,7.58-91,43.15a106.13,106.13,0,0,0,41.19,12.19s-39.83,25.68-96.17,40.13c0,0,66.27-2.73,128-38,0,0,37.84,3.7,67.11-5.54,4.58-1.75,15.39,20.49,80.25,45,0,0-18.4,10.76-37.36,9.69,0,0,58.57,12.16,72.64-4.15s-40.25-24-50.5-50.51c0,0,12.38,12.3,27.67,20.07,23.89,12.12,34.27,24.07,36,32.51,0,0,7.81,3.18,7.61,1.38s.61-14.27-25.59-30.44S497.7,150.2,497.7,150.2s23.57,11.72,40.12,10.38c0,0,20.76,11.39,31.13,23.52,8.6,10.05,49.44,26.83,77,28.26C646.85,211,589.78,205.63,546.12,146.05Z"/></g><g id="Forma_6468" data-name="Forma 6468"><path class="cls-7" d="M647.54,214.16c-28.21,14.2-109-24.52-109-24.52s16.26,18.18-19.37,25.59C431.33,233.5,346.88,167.5,346.88,167.5,240.79,216.32,188.73,206.86,167.42,200c-4.28,4.88-2.38,10.43,13.42,12.52,26.13,3.44,100.26,13.06,168.81-26.29,0,0,77.37,56.39,169.49,42.2,22.57-3.48,23.4-13.34,28.37-18.68,17.21,13.47,69.79,21.14,97.54,13.14C659.18,218.77,651.82,215.92,647.54,214.16Z"/></g><g id="Forma_6459" data-name="Forma 6459"><path class="cls-1" d="M582.1,137.06s-39.12-3.37-63.65-22.14S463.43,48,398.08,52c0,0-25.24-5-55.35,26.29-36.57,38-53.32,36.88-69.87,39.44s-3.25,12,2.07,14.53,99.74,37,173.65-8.31c0,0,75.78,34.05,124.53,24.22C605.84,141.52,582.1,137.06,582.1,137.06Z"/></g><g id="Forma_6461" data-name="Forma 6461"><path class="cls-2" d="M398.08,52s-25.24-5-55.35,26.29c-35.33,36.71-52.16,36.91-68.19,39.19,7.19,4.26,35.95,16.25,79.26-20.51,26.14-22.19,31.43-37.6,69.11-43.87A116.38,116.38,0,0,0,398.08,52Z"/></g><g id="Forma_6462" data-name="Forma 6462"><path class="cls-3" d="M407.76,104.54c-15.38,6.15-57.66,28.37-83.71,22.83,0,0,49,15.79,114.15-22.14C438.2,105.23,423.14,98.39,407.76,104.54ZM582.1,137.06s-39.12-3.37-63.65-22.14C496.58,98.19,470,58.14,418.16,52.42c7.16,7.16,29.8,21.22,51.17,42.44,27.74,27.54,72,42.36,119.8,44.65C586.8,137.94,582.1,137.06,582.1,137.06Z"/></g><g id="Forma_6460" data-name="Forma 6460"><path class="cls-4" d="M446.5,113.54c-74.81,45.61-165,12.65-180.37,6.48-4.69,3.82,4.57,10.21,8.8,12.2,5.32,2.49,99.74,37,173.65-8.31,0,0,75.78,34.05,124.53,24.22,11.39-2.3,15.94-4.34,17-6C525.54,150.69,446.5,113.54,446.5,113.54Z"/></g><g id="Forma_5423" data-name="Forma 5423" class="cls-8"><path class="cls-4" d="M628.56,317.48c-24.93,10.33-62.76-4.6-62.76-4.6S542,340,492.37,340.41s-90.59-32.86-90.59-32.86-46,30.54-89.77,28.29-63.09-24-63.09-24c-21.64,14.63-48.26,2.13-48.26,2.13-10.42-1.84-13,4.31-13,4.31,38.55,14.29,61.14-1.12,61.14-1.12S269.5,351.86,313.48,352c62.43.18,88.08-38,88.08-38,6.46,4.21,28.88,45.52,91,41.54s75.59-36.23,75.59-36.23c40.74,20,74.74,5.66,74.74,5.66S635.38,314.66,628.56,317.48Z"/></g><g id="Forma_5423_copia" data-name="Forma 5423 copia"><path class="cls-9" d="M625.88,313.21c-25.25,9.68-62.81-4.62-62.81-4.62s-23.84,27.21-73.47,27.58-90.67-32.91-90.67-32.91-46.05,30.58-89.83,28.33S246,307.52,246,307.52c-21.64,14.65-48.29,2.14-48.29,2.14-11.43-2.14-8.18,6.38-8.18,6.38,38.56,14.3,56.37-3.19,56.37-3.19s20.72,34.78,64.73,34.91c62.48.17,88.14-38.1,88.14-38.1,6.46,4.21,28.92,45.59,91.06,41.6S565.41,315,565.41,315c40.77,20.07,74.8,5.67,74.8,5.67S651.22,303.49,625.88,313.21Z"/></g><g id="Forma_5423_copia_3" data-name="Forma 5423 copia 3"><path class="cls-10" d="M396.34,308.59s-25.64,38.28-88.13,38.11a76.53,76.53,0,0,1-30-6,76.39,76.39,0,0,0,32.37,7.1c57.67.16,83.94-32.4,87.67-37.45A11.59,11.59,0,0,0,396.34,308.59ZM246,307.52l-.79.53c3,2.76,10.11,8.63,21.9,13.7C252.65,315.08,246,307.52,246,307.52Zm-56.55,8.29.08.23c33.11,12.28,50.9,1.14,55.29-2.27-.88-1.26-1.32-2-1.32-2S226.36,328.57,189.4,315.81Zm298,34.39c-20.3,1.31-36.32-2.2-48.95-7.67,13,6.06,29.71,10.11,51.29,8.73,61-3.92,75.08-35,75.61-36.24-.77-.36-1.55-.73-2.32-1.11C563.07,313.91,549.68,346.2,487.44,350.2Zm151.9-39.85c2.71,2.73-1.45,9.23-1.45,9.23s-31.83,13.48-70.81-3.8c40,18.88,73.13,4.87,73.13,4.87S646.09,311.48,639.34,310.35ZM398.4,303.6a175.58,175.58,0,0,0,32.7,18.89,166.87,166.87,0,0,1-32.17-19.23Z"/></g><g id="Forma_5423_copia_2" data-name="Forma 5423 copia 2"><path class="cls-11" d="M625.88,313.21c-25.25,9.68-62.81-4.62-62.81-4.62s-23.84,27.21-73.47,27.58-90.67-32.91-90.67-32.91-46.05,30.58-89.83,28.33S246,307.52,246,307.52c-21.64,14.65-48.29,2.14-48.29,2.14-11.43-2.14-8.18,6.38-8.18,6.38l.94.34c-.34-2.32.13-6.5,8.52-4.94,0,0,26.64,12.51,48.28-2.13,0,0,19.33,21.8,63.12,24.05s89.81-28.31,89.81-28.31,41,33.26,90.64,32.89,73.45-27.56,73.45-27.56S601.78,324.67,627,315c9.13-3.5,13.54-3.51,15.44-2.08C641.8,310.07,638,308.56,625.88,313.21Zm-378.81,1.48c.26.38.58.82.94,1.31-.59-.87-.89-1.37-.89-1.37Z"/></g><g id="Forma_5423-2" data-name="Forma 5423" class="cls-8"><path class="cls-4" d="M491,86.86s-46,30.54-89.78,28.29-63.09-24-63.09-24c-23.28-1.32-.1,5.32-.1,5.32s20.68,34.73,64.66,34.85c62.43.18,88.09-38,88.09-38C499.19,95.11,491,86.86,491,86.86Z"/></g><g id="Forma_5423_copia-2" data-name="Forma 5423 copia"><path class="cls-12" d="M488.17,82.57s-46.05,30.58-89.82,28.33S335.2,86.84,335.2,86.84c-16.3,2.85-.1,5.32-.1,5.32s20.71,34.78,64.73,34.91C462.31,127.24,488,89,488,89,498.14,88.17,488.17,82.57,488.17,82.57Z"/></g><g id="Forma_5423_copia_3-2" data-name="Forma 5423 copia 3"><path class="cls-13" d="M485.59,87.9S459.94,126.18,397.45,126a76.56,76.56,0,0,1-30-6,76.4,76.4,0,0,0,32.38,7.1c57.66.16,83.93-32.4,87.66-37.45A12,12,0,0,0,485.59,87.9ZM335.2,86.84l-.8.52c3,2.77,10.11,8.63,21.91,13.7C341.89,94.39,335.2,86.84,335.2,86.84Z"/></g><g id="Forma_5423_copia_2-2" data-name="Forma 5423 copia 2"><path class="cls-11" d="M335.7,87.37l-.5-.53C333.05,88.35,334.46,87.67,335.7,87.37Zm152.47-4.8s-46.05,30.58-89.82,28.33c-36.88-1.9-56.41-17.65-61.68-22.59a2.29,2.29,0,0,1-.2.31s19.32,21.8,63.12,24,89.8-28.31,89.8-28.31S490,82.32,488.17,82.57ZM335.7,87.37c.24.24.56.56,1,.94C337.42,87.13,336.61,87.15,335.7,87.37Z"/></g><g id="Forma_5419" data-name="Forma 5419" class="cls-14"><path class="cls-7" d="M554.23,192.42c-19.24,5.11-52.56-20-52.56-20s-2.95,28.68-44.84,28c-44.53-.69-71-28.87-71-28.87-64.27,48.88-87.68-8.46-87.68-8.46-21-4.55,1.54,32,36.22,36.84,32.94,4.58,51.64-22,51.64-22s30.19,41.38,73.27,34.81c40.62-6.2,44.87-34.5,44.87-34.5,32.21,28.15,55.71,24.75,57,18.59C561.85,193.77,554.23,192.42,554.23,192.42Z"/></g><g id="Forma_5419_copia" data-name="Forma 5419 copia"><path class="cls-15" d="M552.64,188.69c-19.32,5.07-52.77-20.2-52.77-20.2s-2.95,28.75-45,28c-44.71-.84-71.29-29.2-71.29-29.2-64.53,48.81-88.07-8.8-88.07-8.8-21.11-4.64,1.55,32.12,36.4,37.08,33.08,4.72,51.86-21.85,51.86-21.85s30.33,41.61,73.58,35.17c40.78-6.08,45-34.45,45-34.45,32.37,28.38,55.33,24.77,57.22,18.84S552.64,188.69,552.64,188.69Z"/></g><g id="Forma_5419_copia_3" data-name="Forma 5419 copia 3"><path class="cls-16" d="M295.51,158.45l-.29-.06c.43.83,1,1.81,1.64,2.91C295.94,159.54,295.51,158.45,295.51,158.45Zm263.43,31.11a5.35,5.35,0,0,1-.27,1.46c-1.89,5.94-24.9,9.51-57.36-19,0,0-4.26,28.41-45.13,34.41-43.36,6.37-73.78-35.39-73.78-35.39s-18.81,26.59-52,21.8C311,190,295.32,177.43,288.87,167.48c5,10.17,21.79,25,43,28.05,33.08,4.72,51.86-21.85,51.86-21.85s30.33,41.61,73.58,35.17c40.78-6.08,45-34.45,45-34.45,32.37,28.38,55.33,24.77,57.22,18.84C560.2,191.4,559.79,190.26,558.94,189.56Z"/></g><g id="Forma_5419_copia_2" data-name="Forma 5419 copia 2"><path class="cls-17" d="M552.64,188.69c-19.32,5.07-52.77-20.2-52.77-20.2s-2.95,28.75-45,28c-44.71-.84-71.29-29.2-71.29-29.2-64.53,48.81-88.07-8.8-88.07-8.8-8.49-1.87-9.92,3-6.21,9.88-2.17-5.57-.17-9.16,7.29-7.54,0,0,23.49,57.49,87.91,8.64,0,0,26.53,28.27,71.16,29,42,.72,44.93-28,44.93-28s33.4,25.17,52.69,20.08c0,0,4.85-.83,6.61,1.16C560,187.45,552.64,188.69,552.64,188.69Z"/></g><g id="Elipse_3444" data-name="Elipse 3444" class="cls-18"><path class="cls-4" d="M564.22,167.19a25.5,25.5,0,0,0-6.41,25.17C562,207,577.16,215.9,591.74,213.93a27.14,27.14,0,0,0,20.18-13.28A166.39,166.39,0,0,1,564.22,167.19Z"/></g><g id="Elipse_3444_copia" data-name="Elipse 3444 copia"><path class="cls-19" d="M603.59,177.43c-2.83-15.53-18.65-26.32-35.3-24s-27.68,16.74-24.72,32.22,18.68,26,35.17,23.8S606.4,192.9,603.59,177.43Z"/></g><g id="Forma_3450" data-name="Forma 3450" class="cls-20"><path class="cls-21" d="M603.59,177.43c-2.39-13.08-14-22.8-27.55-24.16,8.11,13.28,19.3,38.74,0,56.41.9-.05,1.8-.13,2.7-.25C595.26,207.19,606.4,192.9,603.59,177.43Z"/></g><g id="Forma_3451" data-name="Forma 3451" class="cls-22"><path class="cls-23" d="M569.36,163.54s-8-.28-13-3.06c0,0-12.91,10.09-9.22,25S562.5,204,562.5,204,556.57,176.47,569.36,163.54Z"/></g><g id="Forma_3449" data-name="Forma 3449" class="cls-24"><path class="cls-21" d="M568.29,153.41a31.16,31.16,0,0,0-7.52,2l-.64,3.1s3.65,8.29,29.48-.72A32.67,32.67,0,0,0,568.29,153.41Z"/></g><g id="Forma_3445" data-name="Forma 3445"><path class="cls-25" d="M581.1,154.16c-1.8-1.22-5.4-5.48-6.56-7.37l-12.65,1.74s-1.56,6.17-3.54,8.76c-2.47,3.22,6.81,3.43,12.41,2.66C577,159.09,583.29,155.66,581.1,154.16Z"/></g><g id="Elipse_3446" data-name="Elipse 3446"><path class="cls-26" d="M568.12,147.19c-3.77.52-6.71,1.58-6.56,2.36s3.32,1,7.09.48,6.72-1.58,6.57-2.36S571.9,146.67,568.12,147.19Z"/></g><g id="Elipse_3444-2" data-name="Elipse 3444" class="cls-18"><path class="cls-4" d="M683.1,323.85c-13.47-10.7-21.2-20.36-28.4-29.93a27.47,27.47,0,0,0-14.89,29.23c2.62,16.17,17.76,27.63,33.61,27.35,11.35-.2,21.22-6.38,25.77-15.82A123,123,0,0,1,683.1,323.85Z"/></g><g id="Elipse_3444_copia-2" data-name="Elipse 3444 copia"><path class="cls-27" d="M691.22,317.11c-1.08-17-16.66-30.52-34.77-30.15s-31.75,14.45-30.52,31.39,16.73,30.22,34.67,29.9S692.29,334,691.22,317.11Z"/></g><g id="Forma_3450-2" data-name="Forma 3450" class="cls-20"><path class="cls-21" d="M691.22,317.11c-.91-14.31-12.11-26.17-26.46-29.33,7,15.24,15.8,43.9-7.08,60.39,1,.07,1.94.1,2.92.08C678.57,347.93,692.29,334,691.22,317.11Z"/></g><g id="Forma_3451-2" data-name="Forma 3451" class="cls-22"><path class="cls-23" d="M656.32,297.94s-8.51-1.3-13.54-4.91c0,0-15.08,9.18-13,25.55s14.12,21.79,14.12,21.79S641,310.18,656.32,297.94Z"/></g><g id="Forma_3449-2" data-name="Forma 3449" class="cls-24"><path class="cls-21" d="M656.45,287a33.94,33.94,0,0,0-8.3,1.19l-1.08,3.24s2.86,9.33,31.65,2.92A35.23,35.23,0,0,0,656.45,287Z"/></g><g id="Forma_3445-2" data-name="Forma 3445"><path class="cls-25" d="M670.06,289.37c-1.77-1.53-5.09-6.54-6.09-8.71l-13.77.28s-2.44,6.4-4.89,8.93c-3,3.13,6.87,4.53,13,4.4C665.07,294.14,672.23,291.25,670.06,289.37Z"/></g><g id="Elipse_3446-2" data-name="Elipse 3446"><path class="cls-26" d="M657.05,280.28c-4.11.08-7.38.84-7.33,1.71s3.44,1.49,7.54,1.4,7.39-.85,7.33-1.71S661.16,280.19,657.05,280.28Z"/></g><g id="Elipse_3444-3" data-name="Elipse 3444" class="cls-18"><path class="cls-4" d="M309.31,141.21c-17.9-6.65-36.08,3.19-40.48,19.88-4.27,16.2,5.49,32.65,20.84,38.3s32.73-.78,39.11-16.14C335.34,167.44,327.19,147.85,309.31,141.21Z"/></g><g id="Elipse_3444_copia-3" data-name="Elipse 3444 copia"><path class="cls-28" d="M297.14,138.91c-17.42-6.29-36.39,1.5-42.32,17.34s3.38,33.52,20.67,39.7,36.1-1.48,42.13-17.15S314.53,145.18,297.14,138.91Z"/></g><g id="Forma_3450-3" data-name="Forma 3450" class="cls-20"><path class="cls-21" d="M304.71,142.68c.32,16.34-3.28,45.46-32,52.15.9.41,1.82.79,2.76,1.12,17.27,6.17,36.1-1.48,42.13-17.15C322.72,165.54,317,150.76,304.71,142.68Z"/></g><g id="Forma_3451-3" data-name="Forma 3451" class="cls-22"><path class="cls-23" d="M281.56,139.42s-18.27,2.82-23.14,18.44,4.4,24.92,4.4,24.92,9.86-28.46,29.61-34C292.43,148.81,284.86,144.53,281.56,139.42Z"/></g><g id="Forma_3449-3" data-name="Forma 3449" class="cls-24"><path class="cls-21" d="M297.14,138.91a36.22,36.22,0,0,0-8.41-2l-2.38,2.54s-1.18,9.51,28.91,14.18A34.43,34.43,0,0,0,297.14,138.91Z"/></g><g id="Forma_3445-3" data-name="Forma 3445"><path class="cls-25" d="M309.09,146.05c-1-2-2.11-7.77-2.16-10.1l-13.22-4.78s-5,4.91-8.41,6.3c-4.22,1.73,4.66,6.62,10.52,8.73C302.35,148.55,310.37,148.54,309.09,146.05Z"/></g><g id="Elipse_3446-3" data-name="Elipse 3446"><path class="cls-26" d="M300.51,133.07c-3.95-1.42-7.4-1.93-7.7-1.13s2.65,2.61,6.59,4,7.39,1.93,7.69,1.13S304.45,134.5,300.51,133.07Z"/></g><g id="Elipse_3444-4" data-name="Elipse 3444" class="cls-18"><path class="cls-4" d="M432,259.93c-23.12-1.36-39.75,16.31-37.93,37,1.76,20,19.53,35.52,39.29,36.73s37.08-12.18,38.11-32.08C472.54,281,455.18,261.3,432,259.93Z"/></g><g id="Elipse_3444_copia-4" data-name="Elipse 3444 copia"><path class="cls-29" d="M420.38,261.13c-20.24-1.19-36.67,13.08-36.71,31.78s16.15,34.58,36.2,35.8,36.54-12.81,36.78-31.43S440.65,262.32,420.38,261.13Z"/></g><g id="Forma_3451-4" data-name="Forma 3451"><path class="cls-30" d="M408.71,273.34s-7.26,12.61,1.13,15.44c10,3.38,11.74-10.68,11.74-10.68s-.39,13.79,10.33,12,1.38-15.87,1.38-15.87,10.18,8.26,18.14,3.9a39.6,39.6,0,0,0-30.59-17.32c-12.54-.74-23.62,4.46-30.25,13C392.88,276.17,398.12,278.93,408.71,273.34Zm13.86,34.34a76.74,76.74,0,0,1-38.38-13,33.14,33.14,0,0,0,3.55,12.89C397,312,410.91,317.7,422.48,318.4c10,.6,20.73-1.6,28.83-3.87a30.4,30.4,0,0,0,5.38-12.87C450.46,304.64,438.8,308.66,422.57,307.68ZM457.08,295a32.71,32.71,0,0,0-.84-5.86c-5.14,3.73-15.6,8.85-33.59,7.78-21.42-1.29-32.74-10.47-36.77-14.55a30.6,30.6,0,0,0-1.58,6.94,78.83,78.83,0,0,0,38.93,12.74C440.32,303.09,451.31,298.51,457.08,295Z"/></g><g id="Forma_3450-4" data-name="Forma 3450" class="cls-20"><path class="cls-21" d="M430.93,262.67c6.55,17.35,13.93,49.55-13,65.61,1.07.16,2.15.28,3.25.34,20.07,1.22,36.55-12.81,36.8-31.43C458.2,281.41,446.69,267.41,430.93,262.67Z"/></g><g id="Forma_3451-5" data-name="Forma 3451" class="cls-22"><path class="cls-23" d="M420.65,273.09s-9.4-2.17-14.71-6.59c0,0-17.62,8.76-16.67,26.91s13.94,25.12,13.94,25.12S402.51,285.17,420.65,273.09Z"/></g><g id="Forma_3449-4" data-name="Forma 3449" class="cls-24"><path class="cls-21" d="M421.72,261a39.1,39.1,0,0,0-9.37.57l-1.48,3.47s2.41,10.5,35.11,6A40.07,40.07,0,0,0,421.72,261Z"/></g><g id="Forma_3445-4" data-name="Forma 3445"><path class="cls-25" d="M436.72,264.89c-1.84-1.84-5.13-7.63-6.07-10.11l-15.4-.91S412,260.7,409,263.25c-3.66,3.18,7.29,5.58,14.11,6C430.74,269.68,439,267.14,436.72,264.89Z"/></g><g id="Elipse_3446-4" data-name="Elipse 3446"><path class="cls-26" d="M423,253.75c-4.59-.27-8.32.29-8.33,1.24s3.71,1.93,8.31,2.2,8.32-.28,8.33-1.23S427.55,254,423,253.75Z"/></g><g id="Elipse_3444-5" data-name="Elipse 3444" class="cls-18"><path class="cls-31" d="M166.47,274.82c-20.94-3.51-38.55,10.45-39.66,28.9-1.08,17.88,13.12,33.28,31,36.24s35.42-7.17,39-24.59C200.56,297.4,187.4,278.32,166.47,274.82Z"/></g><g id="Elipse_3444_copia-5" data-name="Elipse 3444 copia"><path class="cls-32" d="M160.93,274.05c-18.35-3.07-35.31,7.91-37.87,24.44s10.16,32.14,28.33,35.15,35-7.77,37.76-24.15S179.26,277.11,160.93,274.05Z"/></g><g id="Forma_3451-6" data-name="Forma 3451"><path class="cls-30" d="M189.4,302.58c-5.18,2.78-15.4,6.28-31.66,3.57-19.41-3.23-28.55-12.46-31.69-16.47a27.12,27.12,0,0,0-2.38,6,71.19,71.19,0,0,0,33.9,15.07c15.46,2.57,26.08-.4,31.8-2.92A27.82,27.82,0,0,0,189.4,302.58Z"/></g><g id="Forma_3450-5" data-name="Forma 3450" class="cls-20"><path class="cls-21" d="M170.36,276.46c3.64,15.94,6,45.05-20.68,56.62,1,.23,1.93.44,2.93.61,18.15,3,35-7.77,37.76-24.15C192.68,295.66,184.09,282.19,170.36,276.46Z"/></g><g id="Forma_3451-7" data-name="Forma 3451" class="cls-22"><path class="cls-23" d="M147,277.35s-17.31,6-18.87,22.13S137.53,323,137.53,323s3.83-29.54,22-38.41C159.57,284.63,151.28,281.78,147,277.35Z"/></g><g id="Forma_3449-5" data-name="Forma 3449" class="cls-24"><path class="cls-21" d="M162.17,274.1a37.2,37.2,0,0,0-8.64-.43l-1.82,2.92s.79,9.51,31.23,8.76A35.68,35.68,0,0,0,162.17,274.1Z"/></g><g id="Forma_3445-5" data-name="Forma 3445"><path class="cls-25" d="M175.34,279c-1.43-1.8-3.66-7.23-4.18-9.51l-13.94-2.34s-3.91,5.7-6.94,7.66c-3.78,2.44,5.91,5.65,12.08,6.68C169.24,282.62,177.1,281.19,175.34,279Z"/></g><g id="Elipse_3446-5" data-name="Elipse 3446"><path class="cls-26" d="M164.27,267.79c-4.16-.7-7.64-.58-7.77.26s3.13,2.08,7.29,2.78,7.63.58,7.77-.26S168.43,268.49,164.27,267.79Z"/></g><g id="Forma_6553" data-name="Forma 6553"><path class="cls-33" d="M484.19,35.43c-36.61-4.07-76-.59-81.58,3C382.15,51.61,411.24,64,411.24,64c44.56-5.26,78.17,15,81.11,16.63,5.79,3.25,5.84-1.59,2.64-5.83s-9.94-9.54-9.94-9.54a35,35,0,0,1,11.48-1.79c5.73.18,6.29-2.63,1.55-6.38-4.92-3.9-13.18-8.1-13.18-8.1s5-3.41,8.89-4.14C496.17,44.4,518.46,39.23,484.19,35.43Z"/></g><g id="Forma_6556" data-name="Forma 6556"><path class="cls-34" d="M498.08,57.08c-4.92-3.9-13.18-8.1-13.18-8.1s.73-.5,1.84-1.16c-4.46.08-35-4.48-54.77-.7,30,2.61,67.91,5,67.8,15.91l.06,0C502.21,62.19,501.65,59.9,498.08,57.08Zm-13,8.17.38-.13c-2.18,0-14.66-7.27-55.53-9,0,0,65.37,10.64,65.06,25.52,3.09.48,2.65-3.39,0-6.85C491.7,70.43,485.05,65.25,485.05,65.25Zm-.86-29.82a331.59,331.59,0,0,0-57.73-1C470.54,36.08,501.94,38,500.2,43,504.81,41,506.67,37.92,484.19,35.43Z"/></g><g id="Forma_6555" data-name="Forma 6555"><path class="cls-35" d="M413.3,51.27c-4.25-1.22-2.66-7.34-3.62-14.92-3.5.65-6,1.36-7.07,2.07C382.15,51.61,411.24,64,411.24,64c3.91-.46,7.73-.71,11.45-.81a41.78,41.78,0,0,0,3.06-5.68C427.57,53,418.1,52.66,413.3,51.27Z"/></g><g id="Forma_3533_copia_2" data-name="Forma 3533 copia 2"><path class="cls-34" d="M422.57,51.3c-4.73-1.54-12.6-3.63-12.6-3.63s-4.42-.42-5.12-2.79a141.94,141.94,0,0,0-5.68-15.54c-1.46-3.18-3.3-7.55-8.55-1.49-12.13,14-9.69,16.06-15.63,15.93-4.29-.09-12.6.15-14.44.56s-5,1.34-3.1,4.48A43.69,43.69,0,0,0,365,57.13c1.92,1.59,3.5,2.67,2.49,4.39s-5.09,7.88-6.22,12.63-.47,6.16,4.79,5.38a100.62,100.62,0,0,0,17.22-4.66c2.57-1,2.4-1,4.71.73a146.75,146.75,0,0,0,13.28,8.08c4.16,2.2,6.43,2.61,7.47-1,1.73-5.94.53-15.17.52-16.59,0-1.61-.34-2.7,2.09-3.91,3-1.47,10.65-5.83,11.53-6.66S427.27,52.84,422.57,51.3Z"/></g><g id="Forma_3535" data-name="Forma 3535"><path class="cls-36" d="M379.61,72.11c-3.5.93-9.34,3.19-14.63,5.08,0,0,.19,2.56,14-2.38a19.49,19.49,0,0,1,5.66-1.35S383.12,71.17,379.61,72.11ZM410,47.67s-4.42-.42-5.12-2.79a141.94,141.94,0,0,0-5.68-15.54c-1.27-2.77-2.83-6.42-6.67-3.34,2.06-.09,2.69.42,4.8,6.41C399,37.29,400,42.33,402,45.63,404.75,50,410,47.67,410,47.67Zm-4,18.31c-1.05,4,1.08,11.14-1,16.21-.73,1.77-1,2.14-2.7,2,3.55,1.76,5.55,1.85,6.51-1.44,1.07-3.62.38-13.2.64-15.7.46-4.4,12.57-10.47,13.17-11.26C421.05,55.15,407.59,59.68,405.94,66Z"/></g><g id="Forma_3536" data-name="Forma 3536" class="cls-37"><path class="cls-38" d="M358.67,47.16c2.69-.38,5.09.06,10.82,0,6.47-.1,8.8-2.48,8.8-2.48a117.88,117.88,0,0,1-11.83.27C358.66,44.94,358.67,47.16,358.67,47.16Zm6.21,22.1c-3.57,5.33-2.77,8-2.53,8.58,0,0,2.13-3.75,5.6-8.83s1.25-7.36,1.25-7.36S368.5,63.85,364.88,69.26Zm23.79-35.82c-2.45,4-5.45,8.87-7.37,10.34.57-.26,4.85,1.2,8.9-7.49,1.23-2.63.71-3.95,2.52-7.45C392.72,28.84,391.17,29.41,388.67,33.44Z"/></g><g id="Elipse_5373" data-name="Elipse 5373"><path class="cls-39" d="M392.61,29a8.24,8.24,0,0,0-1.89,3.69c-.33,1.48-.08,2.65.78,2.43,1.12-.29,2.59-2.79,2.81-4.92C394.5,28.32,393.62,28,392.61,29Z"/></g><g id="Elipse_5373_copia" data-name="Elipse 5373 copia"><path class="cls-40" d="M417.14,52.4c-1.6-.29-4.62-.83-7.93-1.58-3.55-.76-6.93-.69-5,.16,2.65,1.2,8.89,2,11.77,2.4C418.59,53.72,419.13,52.8,417.14,52.4Z"/></g><g id="Polígono_5426_copia_5" data-name="Polígono 5426 copia 5"><polygon class="cls-11" points="146.67 284.63 144.4 279.7 142.64 284.63 137.43 286.49 142.84 288.36 145.11 293.27 146.87 288.36 152.08 286.49 146.67 284.63"/></g><g id="Polígono_5426_copia_7" data-name="Polígono 5426 copia 7"><polygon class="cls-11" points="275.35 144.19 273.08 139.26 271.32 144.19 266.11 146.05 271.52 147.92 273.79 152.83 275.55 147.92 280.76 146.05 275.35 144.19"/></g><g id="Polígono_5426_copia_13" data-name="Polígono 5426 copia 13"><polygon class="cls-11" points="391.58 31.42 389.31 26.5 387.55 31.42 382.33 33.29 387.74 35.15 390.01 40.06 391.77 35.15 396.99 33.29 391.58 31.42"/></g><g id="Polígono_5426_copia_15" data-name="Polígono 5426 copia 15"><polygon class="cls-11" points="364.6 71.55 362.33 66.62 360.57 71.55 355.35 73.41 360.76 75.28 363.03 80.19 364.79 75.28 370 73.41 364.6 71.55"/></g><g id="Polígono_5426_copia_14" data-name="Polígono 5426 copia 14"><polygon class="cls-11" points="411.88 50.38 410.23 46.8 408.95 50.38 405.17 51.74 409.1 53.09 410.75 56.66 412.02 53.09 415.82 51.74 411.88 50.38"/></g><g id="Polígono_5426_copia_6" data-name="Polígono 5426 copia 6"><polygon class="cls-11" points="257.94 156.24 255.02 149.9 252.75 156.24 246.04 158.64 253 161.04 255.92 167.36 258.19 161.04 264.9 158.64 257.94 156.24"/></g><g id="Polígono_5426_copia_8" data-name="Polígono 5426 copia 8"><polygon class="cls-11" points="395.61 291.84 392.69 285.5 390.43 291.84 383.72 294.24 390.68 296.64 393.6 302.95 395.86 296.64 402.57 294.24 395.61 291.84"/></g><g id="Polígono_5426_copia_11" data-name="Polígono 5426 copia 11"><polygon class="cls-11" points="648.12 303.6 645.2 297.26 642.94 303.6 636.23 306 643.19 308.4 646.11 314.72 648.37 308.4 655.08 306 648.12 303.6"/></g><g id="Polígono_5426_copia_12" data-name="Polígono 5426 copia 12"><polygon class="cls-11" points="636.84 325.16 634.82 320.78 633.25 325.16 628.62 326.81 633.43 328.47 635.44 332.84 637.01 328.47 641.64 326.81 636.84 325.16"/></g><g id="Polígono_5426_copia_9" data-name="Polígono 5426 copia 9"><polygon class="cls-11" points="556.8 163.16 553.88 156.82 551.62 163.16 544.91 165.56 551.87 167.96 554.79 174.28 557.05 167.96 563.76 165.56 556.8 163.16"/></g><g id="Polígono_5426_copia_10" data-name="Polígono 5426 copia 10"><polygon class="cls-11" points="562.24 188.72 559.85 183.54 558 188.72 552.52 190.68 558.21 192.64 560.59 197.8 562.44 192.64 567.92 190.68 562.24 188.72"/></g></svg>