<svg id="Assets" xmlns="http://www.w3.org/2000/svg" viewBox="0 0 800 800"><defs><style>.cls-1{fill:#fff;}.cls-2{fill:#dde7eb;}.cls-3{fill:#d2cac9;}.cls-4{fill:#f0d146;}.cls-5{fill:#dab017;}.cls-6{fill:#f9f37b;}.cls-7{fill:#a27700;}.cls-8{fill:#ff1904;}.cls-9{fill:#cf0200;}.cls-10{fill:#840500;}.cls-11{fill:#ff1e06;}.cls-12{opacity:0.76;}.cls-13{fill:#ae0d03;}.cls-14{opacity:0.89;}.cls-15{fill:#4df3f0;}.cls-16{opacity:0.5;}.cls-17{fill:#009a6f;}.cls-18{fill:#eece49;}.cls-19{fill:#f1cf45;}.cls-20{fill:#ff1905;}.cls-21{fill:#b10a01;}.cls-22{opacity:0.39;}.cls-23{fill:#2a0301;}</style></defs><g id="Forma_6596" data-name="Forma 6596"><path class="cls-1" d="M265.63,613.21s2.13,22.46,11.16,33.48,8.22.51,9.07-3.49,4.51-21.51,7.67-26.51C293.53,616.69,280,607.6,265.63,613.21Z"/></g><g id="Forma_6598" data-name="Forma 6598"><path class="cls-2" d="M286.39,613.32c-5,.7-10.71,1.49-14.48,2-.8.1,5.56,36.12,11.16,34.87a4.09,4.09,0,0,0,2.06-1.81c.34-1.75.44-3.82.73-5.16.84-4,4.51-21.51,7.67-26.51A34.11,34.11,0,0,0,286.39,613.32Z"/></g><g id="Forma_6597" data-name="Forma 6597"><path class="cls-3" d="M265.63,613.21a103.44,103.44,0,0,0,2.76,14.87,55,55,0,0,1,14-.23s-.45,2.3.7,10.47c.94,6.66.44,10.8-.24,13.24,2.64,0,2.45-5.65,3-8.36.84-4,4.51-21.51,7.67-26.51C293.53,616.69,280,607.6,265.63,613.21Z"/></g><g id="Forma_6596_copia" data-name="Forma 6596 copia"><path class="cls-2" d="M505.56,616.69c3.16,5,6.83,22.5,7.68,26.51s0,14.5,9.06,3.49,11.16-33.48,11.16-33.48C519.12,607.6,505.56,616.69,505.56,616.69Z"/></g><g id="Forma_6598_copia" data-name="Forma 6598 copia"><path class="cls-1" d="M521.61,615.3c-3.78-.49-3.89-1.28-8.9-2a34.05,34.05,0,0,0-7.15,3.37c3.16,5,6.83,22.5,7.68,26.51.28,1.34.38,3.41.72,5.16a4.1,4.1,0,0,0,2.07,1.81C521.62,651.42,522.4,615.4,521.61,615.3Z"/></g><g id="Forma_6601" data-name="Forma 6601"><path class="cls-3" d="M514.47,612.75a39.53,39.53,0,0,0-3.94,1.39,22.22,22.22,0,0,1-2.46,1.14,26.73,26.73,0,0,0-2.51,1.41c1.38,2.19,2.86,6.76,4.16,11.55a45,45,0,0,1,15.37-2.48s-.76,12.63-3.38,21.63c.19-.23.39-.45.59-.7,8-9.76,10.58-28.48,11.07-32.64C527.77,613.46,518.89,612.63,514.47,612.75Z"/></g><g id="Forma_6578_copia" data-name="Forma 6578 copia"><path class="cls-4" d="M710.62,574.84c-10.83-19.08-37-33.47-37-33.47l-96.95,97c-33.33,82.47-176.47,96.95-176.47,96.95s-143.13-14.48-176.46-96.95l-96.95-97s-26.13,14.39-37,33.47c0,0,17,17.25,30.69,21.63,0,0-22.25,31.39-14.64,45.33,5.63,10.33,22.32,7.67,22.32,7.67s-6.94,24.26-2.1,30,34.88,0,34.88,0-8.17,31.18.69,38.36,31.39-.7,31.39-.7-4.13,24.5,2.79,31.39,48.82-1.4,48.82-1.4,4.18,29.47,16.05,34.88,34.87-14.65,34.87-14.65,14.51,19.73,23,20.23,19.53-9.77,19.53-9.77S352.43,789,357.7,789s20.22-10.46,20.22-10.46S395.36,789,400.24,789s22.32-10.46,22.32-10.46,15,10.49,20.23,10.46,19.53-11.16,19.53-11.16,11,10.26,19.53,9.77,23-20.23,23-20.23,23,20.06,34.87,14.65,16-34.88,16-34.88,41.9,8.28,48.83,1.4,2.79-31.39,2.79-31.39,22.52,7.88,31.38.7.7-38.36.7-38.36,30,5.73,34.87,0-2.09-30-2.09-30,16.69,2.66,22.32-7.67c7.61-13.94-14.65-45.33-14.65-45.33C693.66,592.09,710.62,574.84,710.62,574.84Z"/></g><g id="Forma_6581_copia" data-name="Forma 6581 copia"><path class="cls-5" d="M652.73,610.42,579.5,623c-1.33,24.55-56.24,84.31-81.61,100.44-36.94,23.48-159.27,22.9-195.29,0C277.23,707.28,222.31,647.52,221,623l-73.24-12.55S127.31,626.64,131,634.13s40.45,5.58,40.45,5.58-19.47,21.11-27.9,27.2,21.22,12.25,47.43,8.37c18.36-2.72,11,5.19,7,10.46s-19,18.94-18.13,23.72,37.67-4.08,50.92-8.37,15.23,10.23,11.15,15.34-10.55,19.86-9.06,23,28,.27,38.36-2.09,7.45,9.7,7.67,13.25-3.45,18.15,11.86,8.37,16-11.86,16-11.86,7.6,13.08,10.46,18.83,8.67,11,16.74,2.1,9.89-7,11.16-4.89,13.73,12.53,18.14,12.56,18.13-9.07,18.13-9.07,11.46,16,18.14,16h1.39c6.68,0,18.14-16,18.14-16s13.72,9.1,18.13,9.07,16.86-10.48,18.13-12.56,3.09-4,11.16,4.89,13.88,3.66,16.74-2.1,10.47-18.83,10.47-18.83.73,2.08,16,11.86,11.63-4.82,11.86-8.37S519,735,529.28,737.36s36.87,5.25,38.36,2.09-5-17.9-9.07-23-2.09-19.63,11.16-15.34,50.07,13.14,50.92,8.37S606.54,691,602.51,685.74s-11.39-13.18,7-10.46c26.21,3.88,55.86-2.27,47.43-8.37s-27.9-27.2-27.9-27.2,36.74,1.91,40.45-5.58S652.73,610.42,652.73,610.42Z"/></g><g id="Forma_6582" data-name="Forma 6582"><path class="cls-6" d="M160.49,681.6c-1.64,7.14-6.24,30.18,1.21,36.23.33.26.69.5,1.05.73,12.38-9.56,27.49-29.7,26.85-34.91S168.76,680.16,160.49,681.6Zm57,29.25c-9.95,2.33-18.41,1.59-25.06,6.5l.65-.22s-4.13,24.5,2.79,31.39a5.78,5.78,0,0,0,1.64,1.09c10.74-5.23,26.75-21.11,32.54-29.69C236.29,710.69,228.93,708.18,217.5,710.85Zm-90.41-61.24c.72-.07,1.14-.14,1.14-.14s-6.27,21.95-2.72,29c8.28-3.3,29.12-28,29.22-31.11S146,646.7,127.09,649.61Zm24.85-66.4-33.15-36.83C110.43,552,97.59,562,90.47,573.83c4.81,1.63,11.77,2.61,14,2.41,0,0-1.69,3.51-3.93,8.19,5.88,4.75,13.31,9.91,20,12,0,0-22.25,31.39-14.64,45.33a12.66,12.66,0,0,0,3.32,3.93c2.06-1,5.09-4,9.93-10.9C131,618,139.38,608.32,139.38,608.32Zm92,164.06.75-.15s4.18,29.47,16.05,34.88a10.15,10.15,0,0,0,1.13.43c6.06-10.12,6.11-34.31,3.75-37.4C263.61,742.38,250.34,745.38,244,747.27Zm99.8,26.36c-3.88-3.52-7.67-1.06-6.8,5.25.77-.65,1.22-1.07,1.22-1.07S352.43,789,357.7,789a6.29,6.29,0,0,0,1.34-.17C358.39,785.65,348.37,777.82,343.75,773.63ZM302.6,759c-1.6,1.2-5.26,4.61-6.58,8.91,2.39,3.15,14.94,19.24,22.62,19.69h.43C313.78,781.39,304.49,757.56,302.6,759Z"/></g><g id="Forma_6582_copia" data-name="Forma 6582 copia"><path class="cls-6" d="M534.86,745c-2.36,3.09-2.32,27.28,3.75,37.4a11.91,11.91,0,0,0,1.13-.43c11.86-5.41,16-34.88,16-34.88l.76.15C550.15,745.38,536.88,742.38,534.86,745Zm-78.12,28.6c-4.62,4.19-14.64,12-15.3,15.17a6.38,6.38,0,0,0,1.35.17c5.27,0,19.53-11.16,19.53-11.16s.45.42,1.22,1.07C464.41,772.57,460.62,770.11,456.74,773.63Zm151.31-56.28c-6.65-4.91-15.11-4.17-25.07-6.5-11.42-2.67-18.78-.16-12.55,9.07,5.79,8.58,21.8,24.46,32.54,29.69a5.93,5.93,0,0,0,1.64-1.09c6.92-6.89,2.79-31.39,2.79-31.39ZM497.89,759c-1.89-1.42-11.18,22.41-16.48,28.61h.44c7.67-.45,20.22-16.54,22.61-19.69C503.15,763.59,499.49,760.18,497.89,759Zm113-75.33c-.63,5.21,14.47,25.35,26.86,34.91.36-.23.71-.47,1-.73,7.46-6.05,2.86-29.09,1.21-36.23C631.73,680.16,611.51,678.52,610.88,683.65ZM696,576.24c2.27.2,9.22-.78,14-2.41-7.13-11.86-20-21.8-28.32-27.45l-33.15,36.83,12.55,25.11s8.38,9.67,20.23,26.51c4.83,6.86,7.87,9.93,9.93,10.9a12.79,12.79,0,0,0,3.32-3.93c7.61-13.94-14.65-45.33-14.65-45.33,6.67-2.13,14.1-7.29,20-12C697.67,579.75,696,576.24,696,576.24ZM673.4,649.61c-18.89-2.91-27.75-5.41-27.64-2.23s20.93,27.81,29.21,31.11c3.56-7.07-2.71-29-2.71-29S672.68,649.54,673.4,649.61Z"/></g><g id="Forma_6580_copia" data-name="Forma 6580 copia"><path class="cls-7" d="M654.82,610.42l-79.51,27.9s-24.77,39.07-51.61,65.56c-49,48.35-199.79,46.51-246.91,0-26.84-26.49-51.61-65.56-51.61-65.56l-79.52-27.9s3.42,33.58,56.5,39.05c0,0-19.11,10.93-17.44,16.74s34.88,0,34.88,0l4.88,9.07s-16.45,11.56-15.35,16,25.11-2.09,25.11-2.09,17.26,17.6,24.41,21.62c0,0-10.8,18.41-7.67,21.63s25.11-11.86,25.11-11.86,50.69,29.29,123.46,29.29S524.4,720.62,524.4,720.62s22,15.07,25.11,11.86-7.68-21.63-7.68-21.63c7.15-4,24.41-21.62,24.41-21.62s24,6.58,25.11,2.09-15.34-16-15.34-16l4.88-9.07s33.21,5.82,34.88,0-17.44-16.74-17.44-16.74C651.4,644,654.82,610.42,654.82,610.42Z"/></g><g id="Forma_6586_copia" data-name="Forma 6586 copia"><path class="cls-8" d="M564.85,630c-63.42,100.63-265.56,102.1-329.91,0L210.53,639s34.16,111.26,189,111.6h.69c154.86-.34,189-111.6,189-111.6Z"/></g><g id="Forma_6587_copia" data-name="Forma 6587 copia"><path class="cls-9" d="M568.34,630.64s-6.57,34.2-38.36,60c-63.05,51.14-197.12,51.14-260.17,0-31.79-25.79-38.36-60-38.36-60l-17.43.7s25.46,71.77,87.18,94.16c79.24,28.75,125.65,26.08,197.39,0,61.7-22.43,87.18-94.16,87.18-94.16Z"/></g><g id="Forma_6589" data-name="Forma 6589"><path class="cls-10" d="M565.55,630.64h-1.16c-63.18,98.78-260.63,101.11-327.17,2.77h-1.58s14.85,87.19,164.6,87.19C544,720.62,565.55,630.64,565.55,630.64ZM221,635.14c-.18.66-1.15.76-2.23.83l-3.31,1.23a2.08,2.08,0,0,0,0,1.12c.82,3.76,20.32,42.62,46,62.07,0,0-34.49-37-40.39-65.29Zm357.75,0c-1.28,3.55-15.5,42.08-41.06,65.3,0,0,18.16-7.92,48.28-62.61Z"/></g><g id="Forma_6591" data-name="Forma 6591"><path class="cls-1" d="M279.16,688.84c3.79,2.59,7.68,4.95,11.63,7.13l4.57-8.68c-4.31-2.1-8.33-4.28-12.1-6.49C282,683.35,280.51,686.15,279.16,688.84Zm18.31,10.59q5.88,2.88,11.84,5.24l3.33-10c-4.09-1.52-8-3.13-11.7-4.79C299.85,692.86,298.62,696.25,297.47,699.43ZM263.58,676.3a121,121,0,0,0,10.08,8.56l4.69-7c-3.81-2.41-7.31-4.83-10.53-7.23ZM249.9,660.77a112.57,112.57,0,0,0,8.6,10.42l3.94-4.78c-3.81-3.09-7.12-6.08-10-8.86Zm132,47.61c-.07,3.52-.15,7.5-.23,11.32,9.36.48,15.1.22,15.1.22V708.76C391.65,708.76,386.7,708.62,381.89,708.38Zm-66.17-1.3c4.64,1.65,9.26,3.08,13.81,4.34l2.52-10.6q-7.07-1.87-13.53-4.06Zm43.91,10.51c5.61.78,10.81,1.32,15.43,1.68L376.18,708q-8.32-.62-16.09-1.67Zm-23-4.35c5.66,1.37,11.16,2.46,16.39,3.33l1.48-11.05q-8.44-1.34-16.18-3.15Z"/></g><g id="Forma_6591_copia" data-name="Forma 6591 copia"><path class="cls-1" d="M403,708.76v11.16s5.74.26,15.1-.22c-.08-3.82-.16-7.8-.23-11.32C413.08,708.62,408.13,708.76,403,708.76Zm64.7-7.94,2.53,10.6c4.55-1.26,9.17-2.69,13.81-4.34l-2.8-10.32Q474.8,698.94,467.73,700.82ZM423.61,708l1.12,11.24c4.62-.36,9.82-.9,15.43-1.68l-.46-11.23Q431.93,707.41,423.61,708Zm21.72-2.51,1.48,11.05c5.23-.87,10.73-2,16.39-3.33l-1.69-10.87Q453.77,704.17,445.33,705.52Zm102-48c-2.84,2.78-6.15,5.77-10,8.86l3.94,4.78a112.57,112.57,0,0,0,8.6-10.42Zm-25.87,20.27,4.69,7a121,121,0,0,0,10.08-8.56L532,670.59C528.75,673,525.25,675.41,521.44,677.82Zm-34.29,16.86,3.33,10q6-2.37,11.84-5.24c-1.15-3.18-2.38-6.57-3.47-9.54C495.14,691.55,491.24,693.16,487.15,694.68Zm17.28-7.39L509,696c4-2.18,7.84-4.54,11.63-7.13-1.35-2.69-2.79-5.49-4.1-8C512.76,683,508.73,685.19,504.43,687.29Z"/></g><g id="Forma_6588" data-name="Forma 6588"><path class="cls-1" d="M327,720.62c-.57,6.13,14.51,8.54,15.34,3.49S327.47,715.65,327,720.62Z"/></g><g id="Forma_6533_copia_2" data-name="Forma 6533 copia 2"><path class="cls-11" d="M687.61,518.35c-15.32-35.4-46.73-30.69-46.73-30.69s30.26-53.49-30-147.17C550.08,246,425.9,239.1,401.64,238.67h-4.19C373.19,239.1,249,246,188.21,340.49c-60.25,93.68-30,147.17-30,147.17S126.8,483,111.49,518.35,135.57,651,253.77,596.47c-4.84,2.23,285.23-2.92,291.55,0C663.52,651,702.92,553.75,687.61,518.35ZM361.88,452.09C358.41,486.24,333,512.22,291.44,517c-63.62,7.24-78.47-13.75-85.1-62.07s19.84-66.14,54.41-72.54,81.55.58,90,23C358.49,426.05,363.72,434,361.88,452.09Zm233,2.79c-6.62,48.32-21.48,69.31-85.09,62.07-41.57-4.73-67-30.71-70.45-64.86-1.84-18.12,3.39-26,11.16-46.73,8.43-22.44,55.41-29.42,90-23S601.47,406.56,594.84,454.88Z"/></g><g id="Forma_6534" data-name="Forma 6534" class="cls-12"><path class="cls-13" d="M601.12,498.82s25.15-8.18,41-13.83c5-11.8,21-62.45-30.5-143.31C557.76,330.62,494.48,320.73,493,323.05c-2.6,4.1-50.31,30.11-93.46,13.26C358,320.07,354,308.38,309.23,253.43c-42.37,13.36-90,38.77-121,87.06C138.32,418.06,150.49,468.08,156.15,483c18.59,12.8,48.06,28,53,27.7,6.84-.49,7.42,15.53,29.3,70.44,2.78,7,8.65,12.07,17.06,15.65,11.21.65,73.88,0,138.09-.54,70.54-9.31,152.32-24.16,217.3-26.27C748.5,565.5,601.12,498.82,601.12,498.82ZM361.88,452.09C358.41,486.24,333,512.22,291.44,517c-63.62,7.24-78.47-13.75-85.1-62.07s19.84-66.14,54.41-72.54,81.55.58,90,23C358.49,426.05,363.72,434,361.88,452.09Zm233,2.79c-6.62,48.32-21.48,69.31-85.09,62.07-41.57-4.73-67-30.71-70.45-64.86-1.84-18.12,3.39-26,11.16-46.73,8.43-22.44,55.41-29.42,90-23S601.47,406.56,594.84,454.88Z"/></g><g id="Forma_6606_copia" data-name="Forma 6606 copia" class="cls-14"><path class="cls-15" d="M231.45,546.94l-6.27-8.36s-10.1,13.89-48.13,9.06c-8-1-7.15-5.17-8.37-9.06S163,497,124,511.37a36.43,36.43,0,0,0-13.52,9.52,48.18,48.18,0,0,0-2.16,16.7c3.16-5.58,7-10.54,11.5-13,13.33-7.19,30-5.14,34.17,10.46s2.36,11.25-2.79,16.74-12,11.79-4.88,20.22,3.57-.93,3.49-4.18,2.14-14.9,23-8.37S218,559.93,231.45,546.94Zm362.69-7c27.76,3.74,31.81-14,38.37-21.62,4.84-5.65,8.54-3.53,8.37-7.67-.51-12-44,17.43-44,17.43S566.39,536.23,594.14,540ZM166.59,518.35C173.14,526,177.2,543.71,205,540s-2.79-11.86-2.79-11.86-43.43-29.47-43.94-17.43C158,514.82,161.74,512.7,166.59,518.35Zm522,2.54a36.55,36.55,0,0,0-13.53-9.52c-39-14.34-43.41,23.31-44.64,27.21s-.38,8-8.37,9.06c-38,4.83-48.12-9.06-48.12-9.06l-6.28,8.36c13.48,13,37.72,19.09,58.59,12.56s23.1,5.12,23,8.37-3.66,12.61,3.48,4.18.26-14.74-4.88-20.22-7-1.14-2.79-16.74,20.85-17.65,34.18-10.46c4.49,2.42,8.33,7.38,11.49,13A48.43,48.43,0,0,0,688.58,520.89ZM245.4,549c-10.71,2.83-24,16.1-39.06,21.62s-22.92,4.7-31.38,3.49-12.44,1.58-4.19,7.67,26.67,10.1,39.76,2.09,31.16-24.37,43.94-27.9C254.47,556,250.17,547.78,245.4,549Zm378.74,25.11c-8.47,1.21-16.28,2-31.39-3.49S564.41,551.87,553.69,549c-4.77-1.26-9.07,7-9.07,7,12.79,3.53,30.85,19.89,43.94,27.9s31.51,4,39.76-2.09S632.6,572.93,624.14,574.15Z"/></g><g id="Forma_6607" data-name="Forma 6607" class="cls-16"><path class="cls-10" d="M345.14,530.21c-11.89-11-26.19,1.25-40.45,1.39S209.14,520.13,205,519.05s-24.17-5.67-39.06.69-1.4,7.68-1.4,7.68,7.27-.56,13.95,7c19.42,21.89,50.22,26.5,50.22,26.5-17.48,1.54-35.37,15.23-48.12,14.65-32.94-1.49-60.28-30.36-72-44.85-3.66,41.08,38.91,114.81,145.22,65.78-2,.92,46.77.58,105,.07-1.75-9.82-1.85-20.66,2.43-30.07C372.43,541.78,357,541.21,345.14,530.21Zm201.57,49.52c39.71-4.81,69-31,78.12-38.36s10.32-12.91,30-12.56,4.88-10.83-9.76-14.65c-7.88-2-22.64,3.79-30.69,6.28s-36.48,21.2-44.64,25.81-50.72,4-73.23-2.79-15.13-.87-20.93.69-39.39,9.82-38.36,22.32a203.29,203.29,0,0,0,4.41,29.36c55-.41,101.22-.51,103.7.64C626.65,634,670.67,599.64,685.23,563,617.89,614.11,548.22,580.92,546.71,579.73Z"/></g><g id="Forma_6532_copia" data-name="Forma 6532 copia" class="cls-14"><path class="cls-10" d="M610.88,340.49c-25.1-39-61-63.1-96.22-78-32.94,16.44-27,61.73-83.73,107.25-34.85,28-17.05,52.27-4.88,56.5,5.81,2,6.15,13.41,7.84,27.19-31-11.7-50.13-1.39-53.91.52,10.82-3.06,45,2.57,55.62,10.55-2.36,2.19,1.81,14.47,3.83,17.31.6.29.9.49.76.57s-.44-.12-.76-.57c-5.22-2.52-35-11.73-34.3-3.26,19.7,51.9,178.66,79.89,209.24,8.37,3.65-1.22,14.78.72,26.81.12C644.18,481.09,667.52,428.55,610.88,340.49Zm-16,114.39c-6.62,48.32-21.48,69.31-85.09,62.07-41.57-4.73-67-30.71-70.45-64.86-1.84-18.12,3.39-26,11.16-46.73,8.43-22.44,55.41-29.42,90-23S601.47,406.56,594.84,454.88Zm-212-87.19c-25.86-33.9-21.47-100-40.95-122.64-48.2,9.73-114.23,34.16-153.65,95.44-55.29,86-34.36,138.08-30.54,146.08,14.08,1.81,28.4-1,32.63.39,30.58,71.52,134.26,33.43,161.12,11.16s15-67.61,27.2-71.84S409.91,403.24,382.81,367.69Zm-20.93,84.4C358.41,486.24,333,512.22,291.44,517c-63.62,7.24-78.47-13.75-85.1-62.07s19.84-66.14,54.41-72.54,81.55.58,90,23C358.49,426.05,363.72,434,361.88,452.09ZM380,454c-.23.06-.46.12-.66.19S379.41,454.27,380,454Z"/></g><g id="Forma_6535" data-name="Forma 6535"><path class="cls-11" d="M422.87,436.63c-2.55-4.42-24.89-6.62-35.58-3.86-13.17,3.41-3,12.12,5.24,9.58,7.18-2.23,16-1.81,22.42-1.48C421.24,441.19,425.15,440.57,422.87,436.63Z"/></g><g id="Forma_6535_copia" data-name="Forma 6535 copia"><path class="cls-11" d="M416.86,465.37c-1.89-3.17-19.6-5.46-28.18-3.89-10.58,1.94-2.71,8.37,3.88,6.87,5.77-1.32,12.75-.73,17.88-.29S418.56,468.2,416.86,465.37Z"/></g><g id="Forma_6562" data-name="Forma 6562"><path class="cls-1" d="M360.49,254.7c-3.49,1-18,9.11-9.07,18.13s22.31-3.46,27.9-9.76S375.74,250.25,360.49,254.7Z"/></g><g id="Forma_6551" data-name="Forma 6551"><path class="cls-17" d="M319.34,369.78c-30.82-10.5-70.75-1.61-102.53,15.35S193.2,468,209.13,506.49s90,18.83,90,18.83l4.18-5.58c-54.06,9.77-77.63-4.91-87.18-18.83s-28-87.21,7-109.5,74.36-19.08,91.37-13.26C344.4,388.4,319.1,372.18,319.34,369.78Z"/></g><g id="Forma_6551_copia" data-name="Forma 6551 copia"><path class="cls-17" d="M585.08,385.13c-31.79-17-71.71-25.85-102.53-15.35.23,2.4-25.06,18.62,4.88,8.37,17-5.82,56.36-9,91.37,13.26s16.53,95.59,7,109.5-33.12,28.6-87.18,18.83l4.18,5.58s74.05,19.65,90-18.83S616.86,402.09,585.08,385.13Z"/></g><g id="Forma_6537" data-name="Forma 6537"><path class="cls-6" d="M382.11,378.85C367,363,335.94,340,328.4,316.08s-5.81-25.85-9.06-36.27-13.5,3.52-14.65,7.67c0,0-3.82-10.19-17.44-21.62s-16.69-23.89-27.9-25.81S244,258.19,244,258.19s-10.59-16.45-20.93-18.83-12.55,18.13-12.55,18.13S200,245.86,193.09,245.63s-16.18,28.14-11.86,37.67c0,0-21.59-26-29.29-25.81s-8.37,35.57-8.37,35.57-15.28-9.75-20.23-1.39,9.77,39.75,9.77,39.75-23.79-5.66-27.9,3.49,4.93,35.93,18.13,46c0,0-37.13-.36-39.06,12.56s32.09,38.36,32.09,38.36-18,5.73-18.14,14.65,45.86,44.95,86.49,34.87c0,0,8.41,2.05,4.88-9.76s-10.53-61.95,25.11-83,90.54-23.77,117.18,5.58c5.94,6.54,25.2,36.44,38.36,27.2S397.25,394.7,382.11,378.85Z"/></g><g id="Forma_6540" data-name="Forma 6540"><path class="cls-4" d="M382.11,378.85c-11-11.48-30.26-26.71-42.93-43.32,3.14,7.71,9.33,18.1,21.31,31.46,0,0-46.48-32.25-50.92-64.16,0,0-8.2,6.09-7,10.46-14.32-11.73-22.51-19.43-32.09-30s-28.87-23.12-25.81,21.62c0,0-23.72-9.55-33.47-21.62s-7.1,22.42-2.79,30c0,0-10-4.37-16.05-9.77s-23-8.38-13.95,11.86c-9.7-1.7-23.06-6.78-30-3.49s6.28,37,6.28,37-22.06-1.73-25.81,9.76,16.74,27.9,16.74,27.9-40.5,10.24-40.45,20.23,19.18,26.63,33.48,30c-.82,1.89-13.36,9.24-19.53,9.77-3.76.32-14.36,4.11-11.19,12.39,15.65,13.2,47.59,29.71,76.75,22.48,0,0,8.41,2.05,4.88-9.76s-10.53-61.95,25.11-83,90.54-23.77,117.18,5.58c5.94,6.54,25.2,36.44,38.36,27.2S397.25,394.7,382.11,378.85Z"/></g><g id="Forma_6539" data-name="Forma 6539"><path class="cls-5" d="M367.46,383c-5.37-12.4-18.83-18.14-18.83-18.14s9.13,14.55,8.37,21.62c0,0-6-16.08-35.57-37s-50.89-45.7-51.62-48.13c0,0-.15,25.29,7.68,37-2-.67-26.72-10.06-35.58-23.72.77,2.95,4.9,23.18,11.86,29.3,0,0-20.8-15.08-27.9-22.32,0,0,1.49,22.62,7,30.69-14.78-4-43.25-14.43-53.71-14s-7.89,34-4.88,48.82c0,0-26.55,19.09-30.69,25.81s22.32,21.62,22.32,21.62-24.2,20.34-48.18,31.42c17.13,11.13,43,21.26,67,15.31,0,0,8.41,2.05,4.88-9.76s-10.53-61.95,25.11-83,90.54-23.77,117.18,5.58c5.94,6.54,25.2,36.44,38.36,27.2,5.69-4,11.5-9.52,15-15.79C370.14,401.27,370.22,389.41,367.46,383Z"/></g><g id="Forma_6538" data-name="Forma 6538"><path class="cls-7" d="M139.77,468.08a7,7,0,0,0-1.08-.65A10,10,0,0,0,139.77,468.08Zm227.69-51.56c-14.56-.62-24.89-19.43-34.17-37S316.64,358.12,306.08,353c2.65,3.14,18.88,17.61,23,32.09-5.4-12.7-62-34.76-108.11-4.88s-44.21,51.24-39.76,92.06c0,0-31.62,1-41.46-4.23,3.22,2.28,10,9.13,20.44,14.41a65.77,65.77,0,0,0,24.51-1.11s8.41,2.05,4.88-9.76-10.53-61.95,25.11-83,90.54-23.77,117.18,5.58c5.94,6.54,25.2,36.44,38.36,27.2,5.55-3.9,11.21-9.26,14.78-15.34C380.75,411.5,374.69,416.82,367.46,416.52Z"/></g><g id="Forma_6537-2" data-name="Forma 6537"><path class="cls-6" d="M716.2,393.5c-1.92-12.92-39.06-12.56-39.06-12.56,13.2-10.1,22.25-36.88,18.14-46s-27.9-3.49-27.9-3.49,14.71-31.39,9.76-39.75-20.22,1.39-20.22,1.39-.67-35.4-8.37-35.57-29.3,25.81-29.3,25.81c4.32-9.53-5-37.89-11.85-37.67S590,257.49,590,257.49,587.74,237,577.4,239.36s-20.92,18.83-20.92,18.83-4.13-20.06-15.34-18.14-14.28,14.38-27.9,25.81-17.44,21.62-17.44,21.62c-1.15-4.15-11.4-18.09-14.65-7.67s-1.53,12.35-9.07,36.27-38.56,46.92-53.7,62.77-1.3,33.31,11.86,42.55,32.42-20.66,38.36-27.2c26.64-29.35,81.53-26.64,117.17-5.58s28.64,71.18,25.11,83,4.89,9.76,4.89,9.76c40.63,10.08,86.67-26,86.48-34.87s-18.13-14.65-18.13-14.65S718.13,406.42,716.2,393.5Z"/></g><g id="Forma_6540-2" data-name="Forma 6540"><path class="cls-4" d="M681.33,446.51c-6.17-.53-18.71-7.88-19.53-9.77,14.3-3.36,33.43-20,33.48-30s-40.46-20.23-40.46-20.23,20.49-16.4,16.74-27.9-25.8-9.76-25.8-9.76,13.2-33.68,6.27-37-20.29,1.79-30,3.49c9.08-20.24-7.89-17.26-13.95-11.86s-16,9.77-16,9.77c4.31-7.57,7-42.07-2.79-30s-33.48,21.62-33.48,21.62c3.06-44.74-16.23-32.18-25.8-21.62s-17.77,18.26-32.09,30c1.22-4.37-7-10.46-7-10.46C486.48,334.74,440,367,440,367c12-13.36,18.17-23.75,21.31-31.46-12.68,16.61-32,31.84-42.93,43.32-15.15,15.85-1.3,33.31,11.86,42.55s32.42-20.66,38.36-27.2c26.64-29.35,81.53-26.64,117.17-5.58s28.64,71.18,25.11,83,4.89,9.76,4.89,9.76c29.16,7.23,61.1-9.28,76.74-22.48C695.69,450.62,685.09,446.83,681.33,446.51Z"/></g><g id="Forma_6539-2" data-name="Forma 6539"><path class="cls-5" d="M634.6,434.65s26.46-14.9,22.32-21.62-30.69-25.81-30.69-25.81c3-14.78,5.58-48.34-4.88-48.82s-38.93,10-53.71,14c5.48-8.07,7-30.69,7-30.69-7.1,7.24-27.9,22.32-27.9,22.32,7-6.12,11.1-26.35,11.86-29.3C549.71,328.34,525,337.73,523,338.4c7.82-11.68,7.67-37,7.67-37-.72,2.43-22,27.24-51.61,48.13s-35.57,37-35.57,37c-.77-7.07,8.37-21.62,8.37-21.62S438.39,370.64,433,383c-2.76,6.37-2.68,18.23-17.84,22.57,3.55,6.27,9.36,11.8,15.05,15.79,13.15,9.24,32.42-20.66,38.36-27.2,26.64-29.35,81.53-26.64,117.17-5.58s28.64,71.18,25.11,83,4.89,9.76,4.89,9.76c24,5.95,49.88-4.18,67-15.31C658.8,455,634.6,434.65,634.6,434.65Z"/></g><g id="Forma_6538-2" data-name="Forma 6538"><path class="cls-7" d="M619.25,472.31c4.45-40.82,6.36-62.18-39.75-92.06s-102.71-7.82-108.11,4.88c4.14-14.48,20.37-28.95,23-32.09-10.55,5.08-17.91,9-27.2,26.51s-19.61,36.35-34.17,37c-7.23.3-13.3-5-17.57-10.46,3.56,6.08,9.23,11.44,14.78,15.34,13.15,9.24,32.42-20.66,38.36-27.2,26.64-29.35,81.53-26.64,117.17-5.58s28.64,71.18,25.11,83,4.89,9.76,4.89,9.76a65.77,65.77,0,0,0,24.51,1.11c10.41-5.28,17.22-12.13,20.44-14.41C650.87,473.29,619.25,472.31,619.25,472.31Zm41.47-4.23a10,10,0,0,0,1.08-.65A7,7,0,0,0,660.72,468.08Z"/></g><g id="Forma_6563" data-name="Forma 6563"><path class="cls-6" d="M315.15,520.44s-14.42-5.53-46,4.88c-24,7.91-38.17-5.57-51.62-15.34s-15.57-16.19-27.9-19.53c-1.57.2,2.5,6,2.79,7.67,0,0-18.94-10.08-40.45,6.28,0,0,16.32,4.83,27.2,15.34s47.4,42.18,86.49,43.25,57.19-7.68,57.19-7.68Z"/></g><g id="Forma_6564" data-name="Forma 6564"><path class="cls-18" d="M319.11,538.44c-5.14-8.34-6.59-9.76-6.14-9.66a42.46,42.46,0,0,0-26.42,1.43c-14.53,5.49-48.25,15.12-80.21-11.86a72.86,72.86,0,0,0,45.34,23.71c14.64,1.68,24.12-5.77,37.66-4.88A93.94,93.94,0,0,0,274,542.76c-9.8,4.33-37.08,7.43-62.08-11.16C188,513.81,181.58,503,153.12,504.78c3.94,1.32,16.89,6.14,26,15,10.88,10.52,47.4,42.18,86.49,43.25s57.19-7.68,57.19-7.68Z"/></g><g id="Forma_6565" data-name="Forma 6565"><path class="cls-7" d="M318.12,533.94c-8,.81-10.05,1.63-7.85.45h-.7a79.38,79.38,0,0,1-30.69,11.86c-11.29,1.76,19.31,5.4,30.69-3.49,1.32,4,1.4,4.18,1.4,4.18s-32.51,18.82-62.08,9.07-38-12.94-48.82-21.62c-9.48-7.57-21.47-23.3-37.39-25.68a63.94,63.94,0,0,1,16.46,11c10.88,10.52,47.4,42.18,86.49,43.25s57.19-7.68,57.19-7.68Z"/></g><g id="Forma_6563-2" data-name="Forma 6563"><path class="cls-6" d="M611.58,498.12c.29-1.63,4.37-7.47,2.79-7.67-12.33,3.34-14.45,9.75-27.9,19.53s-27.61,23.25-51.61,15.34c-31.61-10.41-46-4.88-46-4.88l-7.67,34.87s18.1,8.75,57.2,7.68,75.6-32.73,86.48-43.25S652,504.4,652,504.4C630.52,488,611.58,498.12,611.58,498.12Z"/></g><g id="Forma_6564-2" data-name="Forma 6564"><path class="cls-18" d="M592.05,531.6c-25,18.59-52.27,15.49-62.07,11.16a94.18,94.18,0,0,0-15.35-5.58c13.55-.89,23,6.56,37.66,4.88a72.86,72.86,0,0,0,45.34-23.71c-32,27-65.67,17.35-80.21,11.86A42.42,42.42,0,0,0,491,528.78c.45-.1-1,1.32-6.15,9.66l-3.71,16.87s18.1,8.75,57.2,7.68,75.6-32.73,86.48-43.25c9.13-8.82,22.08-13.64,26-15C622.4,503,616,513.81,592.05,531.6Z"/></g><g id="Forma_6565-2" data-name="Forma 6565"><path class="cls-7" d="M603.91,534.39C593,543.07,584.66,546.27,555.08,556S493,546.94,493,546.94s.07-.19,1.39-4.18c11.38,8.89,42,5.25,30.69,3.49a79.47,79.47,0,0,1-30.69-11.86h-.69c2.2,1.18.13.36-7.86-.45l-4.7,21.37s18.1,8.75,57.2,7.68,75.6-32.73,86.48-43.25a63.94,63.94,0,0,1,16.46-11C625.37,511.09,613.39,526.82,603.91,534.39Z"/></g><g id="Forma_6573_copia" data-name="Forma 6573 copia"><path class="cls-6" d="M731.55,609.72c-2.1-4.15-5.86-12.84-25.81-20.23s-41.85,4.88-41.85,4.88c4.05-5.16,1.4-8.37,1.4-8.37-9.12-.25-13,8.21-20.23,10.47s-23.87,5.3-29.29,9.76S599,608.32,599,608.32c4-.91,3.11-6.77-2.79-7.67-18.19-2.76-19.56-6.71-27.21-11.86s-9.75-4.76-10.46-5.58c4-2.42.7-5.58.7-5.58-24.12-11.4-62.31,13.25-80.91,9.77s-27.9-28.6-27.9-28.6c-14.66-19.37-91.54-17.4-102.53,0,0,0-9.3,25.12-27.9,28.6s-56.78-21.17-80.9-9.77c0,0-3.36,3.16.69,5.58-.71.82-2.82.44-10.46,5.58s-9,9.1-27.2,11.86c-5.9.9-6.78,6.76-2.79,7.67,0,0-11.32,2.37-16.74-2.09s-22-7.51-29.3-9.76-11.1-10.72-20.22-10.47c0,0-2.66,3.21,1.39,8.37,0,0-21.9-12.27-41.85-4.88S69,605.57,66.85,609.72s3.64,1.57,10.46-.7,30.59-2.47,48.82,7.67,53,38.54,88.58,29.3,38.4-28.8,62.78-26.51,27.7,23.44,80.9,18.84c21.42-1.86,33.78-12.26,40.81-22.23,7,10,19.39,20.37,40.8,22.23,53.21,4.6,56.53-16.55,80.91-18.84S548.1,636.74,583.68,646s70.35-19.15,88.58-29.3,42-9.94,48.83-7.67S733.65,613.87,731.55,609.72Z"/></g><g id="Forma_6574_copia" data-name="Forma 6574 copia"><path class="cls-19" d="M297.46,602.91a2.78,2.78,0,0,0-.44-.17Zm434.09,6.81-.52-1c-23.73-16.05-50.73-9.22-72.72,1-25.47,11.87-35.84,16.7-59.28,12.55s-40.11-19.7-55.11-25.11-18.83,0-18.83,0c10.09-1.58,21.83,8,29.3,14s30,14.65,30,14.65a105.67,105.67,0,0,1-32.09-10.46c-16.67-8.61-36-10.5-49.52-5.58a53,53,0,0,1-26.5,2.09c9,.16,21.88-7.65,24.67-8.9-17.77,6.86-39.32-.86-39.32-.86,15.25,3.16,27.67-6.67,29.3-7-35.19,1.45-41.85-32.78-41.85-32.78-8.12-8-86.43-9.36-99.74,0,0,0-6.66,34.23-41.85,32.78,1.63.31,14,10.14,29.29,7,0,0-21.55,7.72-39.31.86,2.79,1.25,15.65,9.06,24.67,8.9a53.09,53.09,0,0,1-26.51-2.09c-13.49-4.92-32.84-3-49.52,5.58A105.65,105.65,0,0,1,214,625.76s22.52-8.68,30-14.65,19.21-15.53,29.29-14c0,0-3.83-5.4-18.83,0s-31.66,21-55.1,25.11-33.82-.68-59.29-12.55c-22-10.25-49-17.08-72.71-1-.19.36-.36.71-.52,1-2.1,4.15,3.64,1.57,10.46-.7s30.59-2.47,48.82,7.67,53,38.54,88.58,29.3,38.4-28.8,62.78-26.51,27.7,23.44,80.9,18.84c21.42-1.86,33.78-12.26,40.81-22.23,7,10,19.39,20.37,40.8,22.23,53.21,4.6,56.53-16.55,80.91-18.84S548.1,636.74,583.68,646s70.35-19.15,88.58-29.3,42-9.94,48.83-7.67S733.65,613.87,731.55,609.72Zm-230.61-6.81.44-.17A2.78,2.78,0,0,0,500.94,602.91Z"/></g><g id="Forma_6575_copia" data-name="Forma 6575 copia"><path class="cls-5" d="M501.38,620.18c-50.28,14.26-76.72-22.32-76.72-22.32,8.13,11.2,39.75,16,39.75,16-31.54-11.15-35.57-33.48-35.57-33.48,15,23.72,47.43,16.05,47.43,16.05-25.88-2.17-33.83-29-35.75-37.72-9.32-.29-23.37-.89-34-1.36l0-.68-7.32.34-7.33-.34,0,.68c-10.61.47-24.65,1.07-34,1.36-1.91,8.74-9.87,35.55-35.74,37.72,0,0,32.42,7.67,47.42-16.05,0,0-4,22.33-35.57,33.48,0,0,31.62-4.84,39.76-16,0,0-26.44,36.58-76.72,22.32a66.15,66.15,0,0,1-6,3c14.58,6.55,25.63,18.76,67.34,15.16,21.42-1.86,33.78-12.26,40.81-22.23,7,10,19.39,20.37,40.8,22.23,41.71,3.6,52.77-8.61,67.34-15.16A64.53,64.53,0,0,1,501.38,620.18Z"/></g><g id="Forma_6576" data-name="Forma 6576"><path class="cls-7" d="M374.44,570.66s3.33,4.65,11.75,8.75c-2.93,7.71-8.06,18.54-15.24,24,0,0,10.81.36,19.65-22.14A65.87,65.87,0,0,0,406.68,585c.47,7.64,1.59,19.29,6.12,26.09.08-1.05-1.86-15.81-1.61-25.72a102,102,0,0,0,12.07-.08c1.19.25,24.37,11.35,40.45,11.16,0,0-17.89-5.34-23.71-16.05a96.68,96.68,0,0,0,22.58-2.27,63.62,63.62,0,0,1-12.12-19.35c-11.44-15.12-60.79-17.23-87.13-9.16,1.73,6.48,3.43,14.74,3.43,14.74s-15.8,30.4-32.08,32.78C334.68,597.16,358,598.35,374.44,570.66Zm237.84,70.45c-34.54,8.74-55-22.14-79.51-27.21s-38.06,11-55.11,13.26-44.58-6.7-51.61-13.26c1.72,6.38,6.44,9.06,19.53,16.05-14.48.67-10.67,2.78-40.45-7.68l-1.24-.43.35.36.19.07s0,0,0,.17c7.45,7.67,18.7,14.42,35.54,15.88,53.21,4.6,56.53-16.55,80.91-18.84S548.1,636.74,583.68,646s70.35-19.15,88.58-29.3,42-9.94,48.83-7.67c5.36,1.79,10.06,3.76,10.79,2.5C681.61,592.17,646.27,632.5,612.28,641.11ZM356.3,630s16-8.56,20.23-16.05c0,0-20.51,13.64-37.66,13.26-45.08-1-44.36-19.6-69.06-13.26s-45.38,29.45-66.26,28.6c-48.3-2-91.16-54.06-134.59-30.77,2-.45,5.06-1.62,8.35-2.71,6.82-2.27,30.59-2.47,48.82,7.67s53,38.54,88.58,29.3,38.4-28.8,62.78-26.51,27.7,23.44,80.9,18.84c16.26-1.41,27.3-7.75,34.75-15.08C384.83,625.93,361.26,633.12,356.3,630Z"/></g><g id="Forma_6555_copia" data-name="Forma 6555 copia"><path class="cls-20" d="M479.76,514.16c-10.47-7.84-22.91-4.77-37-18.83-17.94-17.94-33.06-20-42.49-20.2l-.06,0h-2.79l-.05,0c-9.43.23-24.55,2.26-42.49,20.2-14.06,14.06-26.51,11-37,18.83-11.33,8.49-32.67,38.86,11.86,52.31C355.48,574.23,369,571,371,570c8.86,4.55,16.45,6,26.5,6.25v0h2.79v0c10.06-.22,17.65-1.7,26.51-6.25,2,1,15.47,4.27,41.15-3.49C512.43,553,491.08,522.65,479.76,514.16Z"/></g><g id="Forma_6555" data-name="Forma 6555"><path class="cls-21" d="M492.31,535.79c-10.11-25.27-33-18.41-36.27-23.72-11.34-18.49-36.45-35.88-48.12-34.18-24.67,3.61-29.67,27.06-37.67,42.55s-27.29,5.7-51.61,11.86c-10.82,2.74-14.46,9-14.58,15.66,2.76,7.13,10.27,13.84,25.74,18.51C355.48,574.23,369,571,371,570c8.86,4.55,16.45,6,26.5,6.25v0h2.79v0c10.06-.22,17.65-1.7,26.51-6.25,2,1,15.47,4.27,41.15-3.49,19.48-5.88,26.36-15,27-24.12C494.15,540.44,493.31,538.27,492.31,535.79Z"/></g><g id="Forma_6557" data-name="Forma 6557" class="cls-22"><path class="cls-20" d="M467.9,567.17s.15-.07.29-.22C468,567.09,467.84,567.17,467.9,567.17Zm10.46-13.25c-6.53-26.8-57.49-6.38-76-4.19s-32.7-8.77-55.11-10.46-26,10.42-23,18.83c1.94-19.34,27.74-9.53,48.12-4.18s35.81,5.81,57.2-.7,32.49-5.62,39.75-1.39c6.65,3.86.41,13.54-1.1,15.12C470.05,565.83,480,560.62,478.36,553.92Z"/></g><g id="Forma_6558_copia" data-name="Forma 6558 copia"><path class="cls-23" d="M368.16,559.5S349,551,342.35,555.31c-7.69,5,0,7.68,0,7.68-2.35-4.8,4.19-4.19,4.19-4.19,1.91,3.18,11.11,6.56,16.74,6.28s4.18-2.79,4.18-2.79c1.34,1.2,8.37,2.09,8.37,2.09C374.17,563.56,368.16,559.5,368.16,559.5Zm88.58-4.19c-6.62-4.28-25.81,4.19-25.81,4.19s-6,4.06-7.67,4.88c0,0,7-.89,8.37-2.09,0,0-1.44,2.51,4.19,2.79s14.82-3.1,16.73-6.28c0,0,6.54-.61,4.19,4.19C456.74,563,464.43,560.28,456.74,555.31Z"/></g><g id="Forma_6559" data-name="Forma 6559"><path class="cls-1" d="M356.32,504.69c-3.71,5.19-5.23,8.83-3.48,10.57s5.84,1.86,10.44-4.93S360,499.49,356.32,504.69Z"/></g></svg>