<svg xmlns="http://www.w3.org/2000/svg" width="180" height="117" fill="none" viewBox="0 0 180 117">
  <g clip-path="url(#a)">
    <mask id="b" width="181" height="117" x="0" y="0" maskUnits="userSpaceOnUse" style="mask-type:luminance">
      <path fill="#fff" d="M169.057.274.004 19.63l10.958 96.655 169.054-19.356L169.057.274Z"/>
    </mask>
    <g mask="url(#b)">
      <path fill="#0F79B9" d="M91.092 100.136s46.72 9.811 76.059-7.885c29.34-17.687-10.682-32.133-10.682-32.133l-65.387 40.018h.01Z"/>
      <path fill="#B13C32" d="m17.502 64.788-6.53-4.57c1.758.081 8.336.853 7.987 1.004-.35.15-.958 2.562-1.457 3.566Z"/>
      <path fill="#DD575B" d="M29.39 32.79a45.06 45.06 0 0 0-7.147 10.996 45.064 45.064 0 0 0-4.073 17.726 36.026 36.026 0 0 0-7.197-1.294c.08-3.5.648-9.48 3.703-16.121A41.375 41.375 0 0 1 25.657 29.71c.22.21.56.512.959.873a33.372 33.372 0 0 0 2.775 2.207Z"/>
      <path fill="#DD575B" d="M56.973 40.245v.02c-3.025 5.568-6.868 13.914-9.274 24.548a108.472 108.472 0 0 0-1.917 11.407c-1.168 9.811-.958 17.104-1.916 17.154-.939.04-.36-6.851-4.533-14.777-4.622-8.778-12.079-13.091-14.295-14.275a34.01 34.01 0 0 0-6.669-2.729c-.07-.03-.12-.04-.19-.06a45.062 45.062 0 0 1 4.074-17.727A44.767 44.767 0 0 1 29.4 32.811a35.59 35.59 0 0 1-3.733-3.08A56.058 56.058 0 0 0 29.8 32.37a58.492 58.492 0 0 0 9.633 4.484 59.056 59.056 0 0 0 17.55 3.421l-.01-.03Z"/>
      <path fill="#DD575B" d="M43.844 93.364s2.266-40.359 11.91-51.785c0 0 25.585 2.588 53.198-3.812 0 0 19.097 25.45 22.012 50.42 0 0-30.987 23.385-87.12 5.167v.01Z"/>
      <path fill="#B13C32" d="M130.965 88.188s-.968-19.11-22.012-50.42c0 0 18.039-3.703 27.034-11.939 0 0 13.746 15.299 20.794 35.694 0 0 4.362 8.266-17.71 22.03a138.487 138.487 0 0 1-8.106 4.645v-.01Zm-83.059 6.431c-1.497-.291-2.995-.582-4.492-.883a231.375 231.375 0 0 1 3.604-27.337 229.844 229.844 0 0 1 6.23-24.87c1.646.08 3.303.15 4.96.221a154.283 154.283 0 0 0-7.367 25.37 154.277 154.277 0 0 0-2.935 27.48v.02Z"/>
      <path fill="#B13C32" d="M133.073 87.054c-1.388.833-2.775 1.656-4.173 2.488a122.266 122.266 0 0 0-6.279-23.063 122.319 122.319 0 0 0-15.344-28.34c1.368-.312 2.726-.633 4.093-.944a143.18 143.18 0 0 1 14.885 27.84 142.67 142.67 0 0 1 6.808 22.02h.01Z"/>
      <path fill="#E1747C" d="M72.915 14.883c-3.025-.993-5.75-.732-10.223.13-.858.171-1.657.312-2.405.472-4.373.853-7.088 1.475-11.001 2.89-5.401 1.956-13.637 5.377-23.63 11.346.22.21.56.512.959.873A33.372 33.372 0 0 0 29.39 32.8c4.472 3.23 8.715 4.795 11.42 5.768 5.49 1.966 10.642 2.769 14.944 3.03 0 0 .44-.482 1.208-1.314v-.02c.18-.201.38-.422.61-.653.339-.37.728-.802 1.147-1.254 5.49-5.928 16.891-18.127 19.746-20.084-1.108-1.043-2.955-2.518-5.57-3.37l.02-.02ZM34.35 27.935c8.216-4.895 15.344-8.246 20.914-10.513-5.57 2.277-12.698 5.617-20.914 10.513Z"/>
      <path fill="#E1747C" d="M55.766 41.57a734.9 734.9 0 0 1 10.342-11.166 741.748 741.748 0 0 1 12.498-12.922 57.985 57.985 0 0 1 13.647 5.829c8.515 5.026 13.996 11.216 17.15 15.47 0 0-35.09 8.918-53.637 2.798v-.01Z"/>
      <path fill="#B13C32" d="M109.392 38.78c-2.256-2.036-5.92-6.781-8.515-8.818-7.907-6.22-14.465-8.326-21.623-12.038a111.659 111.659 0 0 1 8.016-4.194 109.533 109.533 0 0 1 10.692-4.374c1.228.11 3.034.321 5.171.783 4.552.993 7.816 2.528 9.983 3.581 9.723 4.705 21.642 11.417 22.88 12.119a40.148 40.148 0 0 1-8.735 7.183c-7.088 4.314-13.906 5.437-17.859 5.768l-.01-.01Z"/>
      <path fill="#E1747C" d="m78.477 18.255 19.486-8.908c-3.724-.02-7.697.12-11.85.481-12.498 1.094-23.27 3.913-31.965 7.012 8.645-.501 16.602-1.063 24.328 1.425v-.01Z"/>
      <path fill="#B13C32" d="M16.502 67.787s-6.897-.035-7.955 2.564l4.682 3.712s1.034 1.401 1.773-.776l1.5-5.5Zm41.65-25.537-4.722-.45a99.18 99.18 0 0 1 11.4-14.065 99.899 99.899 0 0 1 13.287-11.407l2.256 3.16a86.065 86.065 0 0 0-22.231 22.763h.01Z"/>
      <path fill="#B13C32" d="M107.864 39.11c-2.336-3.42-7.108-9.349-15.204-13.763a43.891 43.891 0 0 0-14.554-4.856l.728-4.494a46.215 46.215 0 0 1 16.013 5.337c9.803 5.457 15.074 13.162 17.37 17.085-1.458.22-2.905.451-4.363.672l.01.02Z"/>
      <path fill="#B13C32" d="M102.813 10.189c-4.383.09-7.667 1.013-9.803 1.816-1.318.501-2.416 1.023-3.594 1.585a71.848 71.848 0 0 0-7.487 4.163l-1.667-1.986a34.728 34.728 0 0 1 5.35-3.712s1.069-.562 5.89-2.619a28.32 28.32 0 0 1 8.456.11c1.018.171 1.976.392 2.855.633v.01ZM80.191 19.75a41.963 41.963 0 0 0-9.783-2.548c-.799-.11-2.216-.271-4.662-.362-3.254-.12-7.906-.09-13.726.613 1.167-.362 2.335-.743 3.513-1.104 2.356-.963 5.85-2.047 10.163-2.097 2.056-.02 3.644.2 5.071.391a45.196 45.196 0 0 1 10.392 2.71l-.968 2.417v-.02Z"/>
      <path fill="#0F79B9" d="M79.332 11.874c-3.654.13-7.207 3.602-6.658 6.11.509 2.297 4.382 3.511 7.337 3.04 2.496-.402 5.82-2.248 5.8-4.696-.02-2.497-3.514-4.564-6.489-4.454h.01Z"/>
      <path fill="#B13C32" d="M156.479 60.118c.399 1.013.519 2.046.599 2.468 1.158 6.43-7.867 15.048-8.585 15.72-4.093 3.832-15.134 13.092-36.497 18.509a117.034 117.034 0 0 1-20.894 3.32c3.064-1.775 1.657-1.063 4.901-3.05 2.755-1.915 3.674-2.557 6.419-4.463 2.516-1.746 3.244-1.987 5.511-3.823 1.377-1.103 9.603-2.919 10.921-4.002 1.308-1.074-3.444-1.555-2.306-2.81 0 0 9.104-6.881 2.196-23.645l-2.955-6.671s27.662-15.66 29.859-12.36c6.419 9.621 8.405 14.607 10.831 20.817v-.01Z"/>
      <path fill="#1A5989" d="M153.586 53.176c-.788 4.374-2.166 7.635-3.224 9.701-5.75 11.316-16.392 16.453-20.615 18.49-3.154 1.524-6.169 2.567-9.314 3.66a121.52 121.52 0 0 1-12.558 3.622 64.95 64.95 0 0 0 8.525-6.46 98.833 98.833 0 0 0 2.676-.923c20.744-7.534 27.562-19.854 27.562-19.854 1.488-2.678 3.624-7.503 3.923-14.616l3.025 6.37v.01Z"/>
      <path fill="#0F79B9" d="M116.438 82.018a64.604 64.604 0 0 1-8.156 6.922c-8.864 2.478-20.734 4.564-34.79 4.103a120.415 120.415 0 0 1-28.012-4.264l1.099-3.862a116.807 116.807 0 0 0 27.083 4.123c19.327.632 34.331-3.722 42.776-7.022Z"/>
      <path fill="#1A5989" d="M50.923 81.857c.419 1.114.589 2.248.489 3.321-.34 3.581-3.754 6.822-7.996 8.567-4.383.261-12.04.17-20.715-3.12a49.324 49.324 0 0 1-15.703-9.63 16.405 16.405 0 0 1-.11-5.468c0-.09.03-.17.04-.25.03.16.05.31.08.45a49.503 49.503 0 0 0 15.703 9.632 50.007 50.007 0 0 0 20.715 3.12c3.464-1.425 6.359-3.833 7.497-6.612v-.01Z"/>
      <path fill="#0F79B9" d="M50.924 81.858c-1.138 2.778-4.043 5.186-7.497 6.61-4.383.261-12.04.171-20.715-3.12a49.324 49.324 0 0 1-15.702-9.63c-.03-.14-.05-.291-.08-.452a16.478 16.478 0 0 1 1.617-4.925 60.187 60.187 0 0 0 15.343 3.15c4.543.33 8.556.1 11.86-.311 7.886-.1 13.507 4.193 15.174 8.657v.02Z"/>
      <path fill="#1A5989" d="M80.672 17.12c2.196-1.534 1.817-3.812 1.348-4.755.818-.12 2.685 1.144 3.384 2.559 1.497 3.03-1.348 4.755-3.245 5.537-3.164 1.294-5.43.773-7.057 0 .938-.471 3.374-1.795 5.57-3.33v-.01Z"/>
    </g>
  </g>
  <defs>
    <clipPath id="a">
      <path fill="#fff" d="M0 .287h180v116H0z"/>
    </clipPath>
  </defs>
</svg>
