<svg xmlns="http://www.w3.org/2000/svg" width="201" height="130" fill="none" viewBox="0 0 201 130">
  <g clip-path="url(#a)">
    <path fill="#26324F" d="M32.237 49.419c-1.639.206-3.994.518-6.82.971-4.65.745-6.976 1.117-8.69 1.696-1.288.443-8.134 2.799-9.757 7.289-2.02 5.557 4.565 12.624 6.82 15.03 26.962 28.881 77.773 40.317 77.773 40.317 9.401 2.109 89.298 19.686 96.585 1.022 1.228-3.146.115-6.619-1.183-9.252-2.455-3.699-4.906-7.404-7.362-11.103-1.007-13.309-2.004-26.612-3.011-39.92-5.102-7.51-18.708-25.354-43.61-35.737-29.577-12.342-64.973-7.898-73.222-5.618L32.227 49.398l.01.01v.01Z"/>
    <path fill="#43597B" d="M60.873 13.908c-1.127 1.57.301 7.49 2.942 9.734 14.849 17.501 59.431 30.563 69.313 33.362-20.732-12.206-31.737-27.287-28.345-36.639.697-1.912 2.316-4.49 6.55-6.805-4.765-.765-14.538-2.023-20.697-1.998-10.424.05-22.972.503-29.758 2.346h-.005Z"/>
    <path fill="#152035" d="M176.598 55.484c-.421 1.102.045 2.707-.571 3.493-7.813 9.81-32.79.654-34.72-.046 1.754.796 10.269 4.843 13.631 14.386 0 0-1.112 14.506-10.869 22.665-1.178 1.838-4.566 9.388-11 13.938-13.271 9.392-20.056 7.575-28.51 7.53 61.109 10.877 80.288 6.458 83.59-1.696.957-2.366.732-5.386-1.182-9.252l-7.362-11.103c-1.008-13.309-2.005-26.612-3.012-39.92l.01.01-.005-.005Z"/>
    <path fill="#0E1628" d="M178.277 77.872c-.391 4.576-1.714 10.656-6.315 14.114-5.122 3.845-12.263 2.89-12.263 3.704 0 .766 6.445.277 12.138 2.507 9.091 3.554 14.433 9.84 16.743 12.981a42.542 42.542 0 0 0-1.313-3.734c-2.135-5.205-5.061-9.187-7.682-12.056-.436-5.838-.882-11.677-1.323-17.52h.01l.005.004Z"/>
    <path fill="#152035" d="M32.236 49.419a75.992 75.992 0 0 0 9.908 12.745c7.492 7.766 15.28 12.498 20.983 15.336a149.312 149.312 0 0 1-6.31-2.597c-15.014-6.599-27.808-14.813-37.82-23.41l13.23-2.074h.01Zm35.673 29.325c6.234 1.741 74.81 20.42 84.848.84 1.148-2.235 1.684-5.27.747-9.503 3.017 4.238 3.473 8.074 3.563 9.8.185 3.775-.952 6.634-2.371 10.193a41.564 41.564 0 0 1-4.53 8.4 217.454 217.454 0 0 1-40.026-5.335 217.52 217.52 0 0 1-42.242-14.395h.01Z"/>
    <path fill="#43597B" d="m44.916 64.896 27.347-33.714-12.504-17.058-27.532 35.3S40.72 62.142 44.916 64.9v-.005Zm-2.579 2.799-17.675 16.58S5.959 70.801 6.586 61.116c0 0-.692-6.2 12.393-9.684C22.382 50.526 42.337 67.7 42.337 67.7v-.005Z"/>
    <path fill="#26324F" d="m44.915 64.897-2.58 2.798s-16.454-9.135-23.34-16.202l13.23-2.074s7.492 11.038 12.69 15.478Z"/>
  </g>
  <defs>
    <clipPath id="a">
      <path fill="#fff" d="M.766.343h199.801v129.102H.766z"/>
    </clipPath>
  </defs>
</svg>
