<svg xmlns="http://www.w3.org/2000/svg" width="168" height="150" fill="none" viewBox="0 0 168 150">
  <g clip-path="url(#a)">
    <path fill="#8A6437" d="M141.497 148.369s7.503.497 10.505-3.582c0 0-1.237-4.309-3-4.5l-3 2.5-4.505 5.582Z"/>
    <path fill="#BA987A" d="M157.426 130.131c-1.337 7.17-3.153 16.284-6.926 16.656-2.682.263-5.532-4.28-7.141-7.027a39.286 39.286 0 0 0 5.412-5.715c3.449-4.453 5.587-9.146 6.893-13.533 1.153 2.301 1.657 4.08 1.766 5.294.176 2.055 0 4.325 0 4.325h-.004Z"/>
    <path fill="#D5BFAA" d="M162.733 48.395c-2.637 2.27-6.238 3.222-9.885 2.791a8.603 8.603 0 0 0 1.206-.877c2.124-1.84 4.456-5.517 3.229-9.198-.705-2.14-2.328-3.402-3.138-3.943.464-.393 1.774-1.602 2.091-3.558.121-.721.35-2.16-.568-3.283-.863-1.062-2.424-1.471-4.001-1.127.279-.877.651-2.48.196-4.32-.964-3.89-4.79-5.554-5.617-5.91-5.533-2.407-11.083 1.069-11.592 1.41-.35-1.079-1.093-2.858-2.72-4.464-.568-.566-4.474-4.32-9.727-3.12-3.622.824-6.497 3.677-7.474 7.358a5.257 5.257 0 0 0-2.032-1.115c-2.282-.64-4.502.496-5.428 1.344-.593.541-1.031 1.291-1.273 2.19-1.636-4.227-1.198-8.109.826-9.937 1.114-1.008 3.76-2.369 6.489-1.602a6.161 6.161 0 0 1 2.432 1.336c1.169-4.402 4.603-7.817 8.93-8.804 6.276-1.427 10.941 3.057 11.63 3.734 1.932 1.922 2.821 4.045 3.238 5.336.613-.401 7.248-4.566 13.858-1.684.984.43 5.549 2.414 6.709 7.062.547 2.205.105 4.12-.233 5.16 1.886-.41 3.751.083 4.782 1.345 1.106 1.344.818 3.066.676 3.927-.38 2.344-1.941 3.787-2.496 4.254.964.652 2.896 2.152 3.752 4.714 1.469 4.394-1.319 8.792-3.86 10.99v-.009Z"/>
    <path fill="#BA987A" d="M154.396 50.379c-.382.34-.786.645-1.214.908a15.059 15.059 0 0 1-3.909-1.031c-13.6-7.996-27.205-15.991-40.806-23.991-1.084-1.537-1.908-3.098-2.467-4.614.244-.929.681-1.706 1.282-2.266.933-.883 3.169-2.054 5.468-1.392a5.29 5.29 0 0 1 2.047 1.155c.983-3.807 3.879-6.765 7.527-7.618 5.292-1.24 9.225 2.644 9.797 3.23 1.635 1.667 2.383 3.505 2.74 4.621.513-.352 6.103-3.951 11.676-1.46.832.37 4.682 2.092 5.657 6.12.458 1.905.084 3.56-.197 4.473 1.588-.36 3.16.068 4.03 1.167.925 1.167.694 2.653.572 3.4-.32 2.028-1.635 3.276-2.102 3.683.811.56 2.451 1.868 3.161 4.083 1.236 3.807-1.114 7.618-3.253 9.523l-.009.009Z"/>
    <path fill="#D7D5A9" d="M153.136 51.51c-3.063 1.927-7.117 2.182-10.828.665-11.871-6.906-23.734-13.822-35.609-20.733-2.721-3.804-3.51-7.819-2.756-10.536.587 1.565 1.441 3.182 2.572 4.764 14.18 8.257 28.365 16.513 42.546 24.774 1.336.548 2.708.899 4.075 1.065Z"/>
    <path fill="#BB9468" d="M130.909 26.972c-10.429-3.699-22.427-4.08-41.397-4.667-21.569-.666-29.768 2.62-32.515 3.817-2.827 1.231-24.474 10.676-24.562 26.387-.017 5.233 2.35 9.567 4.483 12.472-3.383-1.652-6.766-3.295-10.149-4.952-2.134-2.914-4.522-7.248-4.491-12.503.079-15.711 21.735-25.156 24.561-26.387 2.748-1.205 10.938-4.492 32.515-3.817 25.302.784 38.238 1.183 51.555 9.646v.004Z"/>
    <path fill="#A57F51" d="M163.059 116.62c-3.169 3.405-7.485 4.479-10.373 4.864-38.588-18.831-77.177-37.676-115.766-56.499-2.134-2.905-4.504-7.24-4.482-12.472.087-15.711 21.735-25.156 24.561-26.387 2.748-1.192 10.947-4.479 32.515-3.817 18.966.587 30.968.968 41.398 4.667.223.127.447.276.674.42 15.421 10.09 22.183 24.937 26.639 34.723 5.622 12.359 6.705 21.76 7.954 32.628 1.529 13.366.048 18.481-3.12 21.877v-.004Z"/>
    <path fill="#BA987A" d="M152.021 114.731c-.898 5.01-2.896 10.869-7.107 16.308a35.202 35.202 0 0 1-4.242 4.571c-3.019-3.993-7.086-7.367-12.699-10.97a45.27 45.27 0 0 0 8.589-10.527 44.585 44.585 0 0 0 4.601-10.938c4.873 4.334 8.374 8.226 10.858 11.556Z"/>
    <path fill="#E3D1C3" d="M28.264 56.106c-5.272 5.01-9.72 10.83-13.09 17.15a67.758 67.758 0 0 0-5.32 13.256 270.315 270.315 0 0 0-9.815-.517c.46-4.773 2.358-20.633 14.045-26.944 4.894-2.642 9.513-2.857 11.152-2.905a99.32 99.32 0 0 1 3.032-.04h-.004Z"/>
    <path fill="#D5BFAA" d="M141.164 103.175a44.393 44.393 0 0 1-4.601 10.938 45.46 45.46 0 0 1-8.585 10.527 128.233 128.233 0 0 0-4.356-2.682c-4.491-2.651-9.815-5.526-16.139-8.914-.587-.311-1.187-.635-1.792-.96-.938-.499-1.871-.99-2.796-1.459a177.832 177.832 0 0 0-15.276-6.964 205.671 205.671 0 0 0-4.64-1.792c-6.56-2.424-12.651-4.256-18.217-5.754-1.617-.439-3.185-.85-4.706-1.232-1.735-.451-3.41-.859-5.017-1.262a271.396 271.396 0 0 0-14.913-3.239 284.86 284.86 0 0 0-4.816-.841 261.032 261.032 0 0 0-20.49-2.63 232.127 232.127 0 0 0-4.96-.403 67.753 67.753 0 0 1 5.32-13.257c3.373-6.32 7.817-12.14 13.088-17.149 2.34 0 4.69.11 7.038.294 4.746.35 9.474 1.026 14.027 1.889 1.766.333 3.501.697 5.206 1.087 6.034 1.358 11.656 3.002 16.52 4.597 1.64.54 3.177 1.065 4.632 1.587 7.81 2.778 12.748 5.096 12.748 5.096 1.09.509 2.165 1.026 3.225 1.534 1.648.785 3.256 1.578 4.825 2.358 6.687 3.335 12.673 6.582 18.014 9.742 1.666.978 3.274 1.946 4.825 2.915 7.086 4.404 12.914 8.572 17.682 12.455a119.44 119.44 0 0 1 4.163 3.51l-.009.009Z"/>
    <path fill="#D7D5A9" d="M155.662 120.503c-1.306 4.391-3.44 9.089-6.893 13.542a39.2 39.2 0 0 1-5.407 5.706c-.233-.421-.461-.802-.662-1.144a29.867 29.867 0 0 0-2.02-2.993 35.554 35.554 0 0 0 4.242-4.571c4.211-5.439 6.209-11.298 7.107-16.312 1.617 2.183 2.796 4.111 3.637 5.772h-.004Z"/>
    <path fill="#BB9468" d="M35.302 56.4c-6.512 5.312-11.95 11.885-15.828 19.165a61.984 61.984 0 0 0-4.658 11.35l-4.96-.403a67.754 67.754 0 0 1 5.32-13.257c3.373-6.32 7.817-12.14 13.089-17.149 2.34 0 4.688.11 7.037.294Z"/>
    <path fill="#A57F51" d="M54.533 59.376a90.238 90.238 0 0 0-10.144 18.1A91.15 91.15 0 0 0 40.12 90.39c-1.56-.285-3.169-.57-4.816-.842a95.153 95.153 0 0 1 4.592-13.962 94.405 94.405 0 0 1 9.435-17.298c1.766.333 3.501.697 5.206 1.087h-.005Zm21.149 6.184a283.082 283.082 0 0 0-7.318 19.213 303.206 303.206 0 0 0-3.607 11.35c-1.617-.438-3.186-.85-4.706-1.231a288.786 288.786 0 0 1 3.703-11.701 300.305 300.305 0 0 1 7.3-19.217 185.66 185.66 0 0 1 4.632 1.586h-.004Zm20.801 8.989c-.263 7.358-1.854 14.558-4.68 21.163a56.918 56.918 0 0 1-4.19 7.954 180.286 180.286 0 0 0-4.64-1.788 52.016 52.016 0 0 0 4.347-8.099c2.874-6.692 4.356-14.08 4.338-21.584 1.648.785 3.256 1.578 4.825 2.358v-.004Zm22.84 12.66a38.275 38.275 0 0 1-2.712 12.337 38.58 38.58 0 0 1-9.132 13.502c-.588-.316-1.188-.636-1.793-.96-.937-.499-1.871-.986-2.795-1.459 3.225-2.809 6.831-7.003 9.202-12.915a33.576 33.576 0 0 0 2.406-13.424c1.665.977 3.273 1.946 4.824 2.914v.005Z"/>
    <path fill="#8A6437" d="M141.167 103.174a44.553 44.553 0 0 1-4.601 10.939 45.291 45.291 0 0 1-8.589 10.527 128.233 128.233 0 0 0-4.356-2.682c3.488-2.945 6.464-6.456 8.742-10.33a39.9 39.9 0 0 0 4.641-11.964 113.925 113.925 0 0 1 4.163 3.51Zm14.495 17.329c-1.306 4.391-3.44 9.089-6.893 13.542a39.2 39.2 0 0 1-5.407 5.706l-2.682-4.137a35.554 35.554 0 0 0 4.242-4.571c4.211-5.439 6.209-11.298 7.107-16.312 1.617 2.183 2.796 4.111 3.637 5.772h-.004Z"/>
    <path fill="#8A6437" d="M24.403 56.185a10.357 10.357 0 0 1-1.744-3.677 10.155 10.155 0 0 1-.294-3.015c14.71.127 34.097 2.025 55.587 9.08 44.614 14.647 72.37 43.019 85.091 58.047a11.864 11.864 0 0 1-3.146 2.506c-1.696.93-3.383 1.676-4.378 1.803-10.017-11.859-28.365-31.086-56.954-45.487C68.04 60.05 40.178 56.842 24.39 56.19h.009l.004-.005Z"/>
    <path stroke="#8A6437" stroke-linecap="round" stroke-linejoin="round" stroke-width="4" d="m116.664 65.608 8.655-6.24m-7.612-1.078 6.569 8.431m21.822 23.306 8.654-6.254m-7.611-1.065 6.568 8.423m-15.221-29.73 8.655-6.254m-7.612-1.065 6.569 8.423m-34.991-24.577 8.655-6.24m-7.612-1.078 6.569 8.431M87.012 52.596l8.654-6.24m-7.611-1.07 6.568 8.423M70.594 33.554l8.654-6.24m-7.611-1.065 6.569 8.423m-33.296 9.54 8.655-6.24m-7.612-1.07 6.569 8.423"/>
    <path fill="#8A6437" d="M4.8 94.974S-.539 91.329.035 85.995l7.81.39-.645-.032-2.4 8.14v.481Z"/>
    <path fill="#D5BFAA" d="M96.629 3.76c-2.23 1.39-1.552 5.167-1.464 5.636.311 1.722 1.45 4.479 3.177 4.659 2.458.245 6.288-4.795 4.641-8.082-1.052-2.103-4.339-3.462-6.346-2.2l-.008-.008V3.76Z"/>
    <path fill="#8A6437" d="M111.348 73.553C144.56 82.152 148.792 55.465 147 41.787c25 36 22.44 70.01 15.72 75.297-12.112-15.628-39.163-35.717-51.376-43.535l.004.004Z"/>
  </g>
  <defs>
    <clipPath id="a">
      <path fill="#fff" d="M0 .287h168v149H0z"/>
    </clipPath>
  </defs>
</svg>
