<svg xmlns="http://www.w3.org/2000/svg" width="183" height="135" fill="none" viewBox="0 0 183 135">
  <path fill="#35A84C" d="M24.69 63.35s5.22-48.37 55.36-51.12c50.13-2.75 63.82 16.53 77.13 1.03 4.14-4.82-1.18-7.56-4.87-7.3-1.21.09-1.78-1.44-.8-2.14 8.09-5.69 17.75-3.05 21.02 4.11 3.79 8.32-1.9 17.89-1.9 17.89s11.71 11.22 3.68 21.17c10.47 10.68 6.77 64.55-4.45 72.41-10.71-28.89-61.24-74.33-145.17-56.05Z"/>
  <path fill="#257435" d="M170.63 25.82s1.38-2.33 2.33-5.68c-3.13-1.54-6.9-1.9-10.36-2.24-2.91-.29-5.95-.6-8.74-1.51-2.26 1.68-4.6 2.55-7.2 2.84 1.55 1.28 3.29 2.35 5.04 3.28 5.86 3.11 12.42 4.38 18.44 7.12 1.77.81 3.49 1.71 5.16 2.69-1.92-3.86-4.67-6.5-4.67-6.5Zm-16.24 14.37c-3.76-1.91-7.42-4.03-10.88-6.44-3.5-2.45-6.63-5.38-10.25-7.65-6.94-4.35-14.81-6.73-22.68-8.77-6.36-1.65-12.74-3.17-18.93-5.36-3.64-.04-7.49.03-11.6.25-12.34.68-21.95 4.12-29.44 8.92 8.02-.77 16.05-1.39 24.12-1.49 10.52-.13 21.29.52 31.42 3.54 5.11 1.52 10.03 3.78 14.74 6.26 4.96 2.61 9.67 5.67 14.02 9.22 2.23 1.82 4.25 3.89 6.57 5.59a33.35 33.35 0 0 0 6.23 3.61c4.34 1.91 9.06 2.91 13.61 4.22 6.01 1.73 12.41 3.88 17.9 7.26-.69-3.84-1.68-7.12-2.97-9.57-7.34-3.08-14.76-5.98-21.86-9.58v-.01Zm-89.21 9.46c6.28.11 12.57.74 18.71 2.09 3.19.71 6.29 1.71 9.43 2.62 2.83.82 5.67 1.57 8.51 2.34 5.69 1.55 11.38 3.19 16.76 5.63 2.76 1.25 5.36 2.83 8.02 4.28 3.04 1.66 6.1 3.28 9.17 4.9 6.08 3.21 12.17 6.41 18.12 9.87 4.71 2.73 9.42 5.48 13.75 8.8 3.96 3.03 7.52 6.48 10.48 10.36.92-4.55 1.59-9.54 1.98-14.62-4.48-4.67-9.63-8.7-15.19-11.8-4.97-2.77-10.48-4.61-15.66-6.94-5.17-2.33-10.18-4.98-14.81-8.28-4.89-3.49-9.79-6.71-15.23-9.31-5.34-2.54-10.94-4.53-16.65-6.07-6.03-1.63-12.18-2.65-18.35-3.51-6.46-.91-12.98-1.52-19.5-1.58-6.42-.06-12.6.76-18.9 1.87-4.69.83-9.4 1.64-14.16 1.9-1.7 3.23-3 6.36-3.99 9.18 12.52-.39 24.99-1.96 37.52-1.74l-.01.01Z"/>
  <path fill="#8BDA9B" d="M62.8 24.12c8.46-4.65 17.84-4.96 27.14-3.17 6.79 1.3 13.45 3.67 20.27 4.79 2.56.42 5.17-.28 7.21-1.9.3-.24.64-.4 1-.46 6.89-1.15 13.08 1.5 19.87 2.19 6.48.66 13.61.98 19.48-2.25 5.87-3.23 10.04-9.75 4.94-15.75-2.35-2.77-5.75-4.3-9.32-4.89-.63.34-1.26.71-1.88 1.15-.99.7-.41 2.22.8 2.14 3.69-.26 9.01 2.49 4.87 7.3-13.32 15.5-27-3.78-77.13-1.03-50.13 2.75-55.36 51.12-55.36 51.12 5.18-1.13 10.24-2.01 15.16-2.67 2.2-14.56 10.04-29.47 22.94-36.56l.01-.01Z" opacity=".7"/>
  <path fill="#257435" d="M161.79 90.1c-10.48-7.02-21.93-12.58-33.04-18.52-5.29-2.83-10.38-5.98-16.04-8.04-5.45-1.99-11.09-3.41-16.68-4.93-6.04-1.65-11.94-3.63-18.15-4.58-5.92-.91-11.94-1.12-17.93-1.01-11.15.21-22.24 1.48-33.38 1.76-1.51 5.12-1.88 8.58-1.88 8.58 83.94-18.28 134.46 27.16 145.17 56.05 3-2.1 5.47-7.51 7.26-14.49-3.92-5.9-9.31-10.77-15.34-14.81l.01-.01Z"/>
  <path fill="#194D23" d="M174.31 46.99c8.03-9.95-3.68-21.17-3.68-21.17s5.69-9.56 1.9-17.89c-1.89-4.16-5.95-6.78-10.61-7.14.73.52 1.41 1.13 2.03 1.81 4.5 5 5.57 12.91 1.99 18.72-2.11 3.43-5.37 5.22-8.87 6.63-1.14.46-.88 2.14.34 2.24h.04c2.15.17 4.32-.24 6.46.02 3.78.46 5.56 4.42 5.87 7.86.23 2.6-1.07 4.75-3.15 6.19-1.33.92-2.95 1.56-4.58 2.19-1.53.6-1.48 2.77.08 3.3.11.04.21.07.32.12 3.32 1.3 4.65 4.81 5.19 8.08.5 3.04.51 6.12.57 9.19.06 2.63.3 5.26.24 7.89-.09 4.46-1 9.37-5.07 11.92-2.45 1.53-5.28 1.67-8.08 1.79-2.55.11-5.1.34-7.64.55 11.32 9.98 18.8 20.88 22.22 30.1 11.22-7.86 14.92-61.73 4.45-72.41l-.02.01Z" opacity=".6"/>
  <path fill="#EB9800" d="M148.83 11.32a5.66 5.66 0 1 0 0-11.32 5.66 5.66 0 0 0 0 11.32Z"/>
  <path fill="#D23219" d="M55.86 52.45S44.81 25.47 11.15 40.19c21.65-.06 12.27 18.72 12.27 18.72s-4.49-1.07-11.09.54C3.6 61.58-.13 73.29 5.37 83.65c2.82-10.07 7.44-9.46 10.14-8.24 3.07 1.38 1.55 16.48 1.55 16.48l1.35 5.78s.58-3.77 1.43-5.61c15.79-8.16 52.87-20.23 96.17-4.97 43.29 15.26 47.2 40.99 48.03 46.01 4.21-1.18 10.83-13.37 10.83-16.56 0-3.19-3.15-13.13-8.11-22.53 8.16-8.34 2.48-26.79-1.06-31.76-4.97 5.86-31.23 10.65-31.23 10.65s-4.08-17.03 1.95-28.92c-9.05-.89-28.57 1.79-39.21 12.44 0 0-.47-25.81-22.44-30.69 6.88 14.53-18.9 26.72-18.9 26.72h-.01Z"/>
  <path fill="#E27E35" d="M17.66 124.37s-6.95-8.93-6.95-15.22c0-6.29 5.51-24.13 6.73-25.7-.1 4.72-.37 8.44-.37 8.44l1.35 5.78s-1.75 15.17-.75 26.69l-.01.01Z"/>
  <path fill="#A42714" d="M166.75 94.02c8.16-8.34 2.48-26.79-1.06-31.76-.38.45-.9.89-1.52 1.33 1.2 1.86 1.88 4.22 2.18 6.28.29 1.96.46 4.01.17 5.98-.37 2.6-1.76 4.9-3.28 6.99-1.47 2.02-3.26 3.99-4.24 6.32-.89 2.11-.68 4.17.28 6.21 1.19 2.56 2.85 4.87 4.06 7.41 1.2 2.52 1.76 5.22 1.75 8.01-.01 4.3-3.91 3.7-6.56 7.1 4.03 6.13 5.23 13.59 5.5 15.21 4.21-1.18 10.83-13.37 10.83-16.56 0-3.19-3.15-13.13-8.11-22.53v.01Z"/>
  <path fill="#E27E35" d="M139.29 133.27c-1.21-.61-2.22-1.53-3.06-2.6-2.35-2.98-7.77-10.58-6.27-15.51 1.64-5.4 37.32-19.48 47.02-23.22 1.17-.45 2.39.48 2.3 1.73-.29 3.75-1.31 10.48-4.82 13.32-5 4.04-18.62 10.48-21.8 17.89-2.83 6.61-7.82 11.19-13.37 8.4v-.01Z"/>
  <path fill="#B04808" d="M176.99 91.94c-7.49 2.89-30.47 11.94-41.31 18.41.6 1.26 2.01 1.75 3.6 1.83 2.65.13 5.31-.5 7.84-1.21 3-.84 5.92-1.93 8.79-3.13 2.28-.95 4.54-1.99 6.75-3.09 3.1-1.55 5.87-3.7 9.05-5.07.59-.25 1.33-.19 1.66.44 1.93 3.59-.62 6.88-2.87 9.61 1.56-1 2.93-1.92 3.94-2.74 3.51-2.84 4.53-9.56 4.82-13.32.1-1.25-1.13-2.18-2.3-1.73h.03Z"/>
  <path fill="#B04808" d="M143.39 107.27c1.93-1.15 4.06-1.27 5.27-.3 1.73 1.39 3.29 4.02 0 8.39-5.43 7.18-14.13 8.78-14.24 6.54-.1-2.06-.98-8.72 8.98-14.63h-.01Z"/>
  <path fill="#F9A571" d="M145.11 133.18c-.41.14-.28.75.15.73 8.73-.37 8.2-6.14 9.15-7.86 1.08-1.94 5.26-9.07 15.2-13.39 9.29-4.04 13.86-16.41 12.47-25.92-.11-.73-.97-1.11-1.57-.68-5.59 3.94-27.98 12.44-33.14 13.92-4.8 1.37-17.5 8.58-19.01 13.34-1.51 4.75 5.98 14.47 5.98 14.47s1.7-.24 1.7-2.78-2.34-9 4.27-12.96c5.96-3.58 28.14-12.2 34.18-15.87.68-.41 1.54.04 1.58.84.17 3.23-.57 9.85-8.87 12.89-11.21 4.11-16.45 12.67-16.97 14.47-.44 1.51.06 7-5.12 8.82v-.02Z"/>
  <path fill="#A42714" d="M129.5 78.33c1.47-2.19 2.41-4.72 3.65-7.03.24-.44.49-.87.76-1.3-.86-5.37-2.01-17.13 2.5-26.02-.8-.08-1.69-.13-2.65-.15a16.234 16.234 0 0 0-5.6 5.33c-3.19 4.97-3.44 10.77-3.43 16.5 0 4.8.75 9.84 4.78 12.66l-.01.01ZM83.86 37.37c2.15 4.12 3.79 8.6 4.35 13.23.21 1.73-.03 3.46-.19 5.19-.15 1.72-.54 3.85-.02 5.53.43 1.4 2.84.68 3.93.3 1.93-.68 3.72-1.85 5.09-3.37 1.01-1.11 1.75-2.38 2.3-3.74-.74.61-1.45 1.24-2.12 1.91 0 0-.47-25.81-22.44-30.69.07.14.11.29.18.43 3.81 2.92 6.72 6.99 8.92 11.21Zm-55.07 4.02c4.75 1.57 9.46 4.03 12.8 7.82 1.54 1.75 2.84 3.7 3.94 5.75.86 1.6 1.51 4.14 3.07 5.23.99.69 2.35-.33 3.26-1.04 1.7-1.33 3.08-2.94 3.93-4.94.28-.67.49-1.36.66-2.07-.39.2-.61.3-.61.3s-10.46-25.52-42-13.37c5.05.15 10.13.73 14.94 2.32h.01Z"/>
  <path fill="#E5A294" d="M24.19 57.02c1.7.97 3.07 2.38 4.21 3.96.87-1.52 1.42-3.22 1.65-4.96 1.04-7.83-3.88-16.82-11.71-18.48-2.28.66-4.68 1.53-7.2 2.64 17.41-.05 14.76 12.08 13.05 16.84Zm30.93-6.08c-.31.72-.59 1.45-.8 2.22-.3 1.14-.41 2.29-.41 3.45 2.15-1.39 4.72-2.28 6.97-3.27 6.07-2.68 12.82-5.83 16.31-11.79 1.73-2.95 2.16-6.07 1.25-9.35-.61-2.2-1.62-4.91-3.49-6.42-.06-.01-.11-.03-.18-.05 6.88 14.53-18.9 26.72-18.9 26.72s-.24-.58-.74-1.51h-.01Zm42.03 4.64c-2.07 2.31-3.35 5.26-4.04 8.34 1.72-1.99 3.58-3.85 5.62-5.52 10.21-8.37 23.53-12.62 36.69-12.2.29-.75.62-1.49.99-2.21-9.05-.89-28.57 1.79-39.21 12.44 0 0 0-.31-.04-.84l-.01-.01Z"/>
  <path fill="#EB9800" d="M5.66 91.49a5.66 5.66 0 1 0 0-11.32 5.66 5.66 0 0 0 0 11.32ZM166.2 64.62a5.66 5.66 0 1 0 0-11.32 5.66 5.66 0 0 0 0 11.32Zm-28.19-15.63a5.66 5.66 0 1 0 0-11.32 5.66 5.66 0 0 0 0 11.32ZM72.59 30.4a5.66 5.66 0 1 0 0-11.32 5.66 5.66 0 0 0 0 11.32ZM10.37 46.37a5.66 5.66 0 1 0 0-11.32 5.66 5.66 0 0 0 0 11.32Z"/>
  <path fill="#FED28F" d="M146.32 6.42c-.17-1.88.2-4.43 1.31-6.29a5.662 5.662 0 0 0-4.46 5.53c0 3.1 2.49 5.61 5.58 5.66-1.33-1.27-2.25-2.92-2.43-4.9ZM4.9 89.49c-.6-.49-1.14-1.08-1.56-1.74-.28-.44-.4-.78-.51-1.07-.14-.38-.21-.76-.26-1.16-.19-1.7.38-3.45 1.08-4.98A5.661 5.661 0 0 0 0 85.83a5.661 5.661 0 0 0 7.62 5.31c-.98-.42-1.9-.98-2.72-1.65Zm158.59-29.21c-.95-2.23-.7-4.61.66-6.6a5.658 5.658 0 0 0-3.61 5.27c0 3.13 2.54 5.66 5.66 5.66.42 0 .83-.05 1.23-.14-1.71-.93-3.14-2.31-3.94-4.2v.01Zm-27.43-18.81c1.26-1.2 2.86-1.75 4.58-1.83.57-.03 1.14 0 1.7.03a5.661 5.661 0 0 0-9.99 3.65c0 1.53.61 2.91 1.59 3.93-.24-2.09.47-4.22 2.12-5.78Zm-64.9-14.66c-1.68-2.11-1.71-4.72-1.01-7.17a5.652 5.652 0 0 0-3.23 5.11 5.661 5.661 0 0 0 8.35 4.98c-1.61-.61-3.08-1.63-4.11-2.92ZM7.19 41.31c-.49-2.04-.1-4.03.86-5.76a5.657 5.657 0 0 0 2.32 10.82c.09 0 .19 0 .28-.01-1.67-1.26-2.97-2.98-3.46-5.05Zm124.66 70.53c2.33-3.34 6.27-5.65 9.94-7.24 4.18-1.81 8.46-3.35 12.74-4.88 8.7-3.1 17.35-6.53 25.47-10.96.74-.4 1.65-.33 2.29.15-.04-.73-.1-1.46-.2-2.16-.11-.73-.97-1.11-1.57-.68-5.59 3.94-27.98 12.44-33.14 13.92-4.8 1.37-17.5 8.58-19.01 13.34-.58 1.83.17 4.39 1.32 6.86.05-2.93.42-5.82 2.17-8.33l-.01-.02Zm-120.04-.99c.12-3.75.87-7.37 2.21-10.86 1.13-2.93 2.55-5.89 3.09-9 .08-1.38.24-4.21.31-7.54-1.22 1.57-6.73 19.41-6.73 25.7 0 1.73.53 3.65 1.29 5.54-.16-1.25-.23-2.53-.19-3.84h.02Z"/>
  <path fill="#E5A294" d="M7.05 70.35c1.95-3.02 4.94-5.78 8.24-7.26 3.3-1.47 6.86-.84 10.3-1.39-.5-1.1-1.21-2.19-2.05-3.04-.07.16-.12.25-.12.25s-4.49-1.07-11.09.54C4.5 61.36.72 70.97 3.97 80.4c.14-3.54 1.13-7.04 3.08-10.05Zm129.84 2.24c-.47.46-.97.89-1.46 1.32 1.87 0 3.74 0 5.61-.08 8.93-.36 19.95-1.82 26.26-8.66-.55-1.2-1.1-2.2-1.61-2.91-4.01 4.73-21.88 8.76-28.63 10.14-.05.07-.1.13-.16.2l-.01-.01Z"/>
  <path fill="#A42714" d="M24.61 70.09c2.66-2.06 4.93-4.9 3.85-8.43-.67-2.18-2.17-4.07-3.91-5.69-.54 1.77-1.13 2.95-1.13 2.95s-2.15-.51-5.67-.29c2.94 3.07 4.68 7.79 6.86 11.47v-.01Z"/>
</svg>
