<svg xmlns="http://www.w3.org/2000/svg" width="157" height="132" fill="none" viewBox="0 0 157 132">
  <g clip-path="url(#a)">
    <path fill="#DD565B" d="M45.552 49.874a499.31 499.31 0 0 1-4.513-.05l.027-.19c.214 0 .415.019.629.028 1.284.077 2.564.144 3.857.212Z"/>
    <path fill="#1C5078" d="M81.033.44c-1.02.547-2.46 1.35-4.1 2.42 0 0-5.264 3.394-9.877 8.242a57.197 57.197 0 0 0-2.14 2.388c-.242.275-.483.564-.706.848a22.94 22.94 0 0 0-.693.862c-.3.375-.587.754-.87 1.138a4.392 4.392 0 0 0-.259.352c-.291.383-.56.763-.829 1.155-.31.43-.606.871-.897 1.31a.454.454 0 0 1-.068.103c-.3.451-.588.907-.87 1.368-.292.46-.57.925-.838 1.394-.269.47-.542.94-.802 1.404-.25.46-.5.916-.733 1.377-.25.47-.483.925-.706 1.395a94.2 94.2 0 0 0-.656 1.385c-.423.916-.82 1.828-1.184 2.736a50.904 50.904 0 0 0-1.033 2.676c-.164.438-.32.88-.465 1.31-.155.428-.291.861-.424 1.29 0 .009-.009.018-.009.018-.136.42-.268.84-.387 1.25a67.38 67.38 0 0 0-.692 2.447 66.082 66.082 0 0 0-.578 2.315c-.05.19-.087.384-.137.574a24.2 24.2 0 0 0-.182.87c-.155.687-.278 1.36-.406 2-.095.546-.19 1.079-.277 1.575a13.48 13.48 0 0 1-.128.804c-2.728-.145-5.479-.289-8.197-.438-.128 0-.25 0-.378-.018 1.57-8.21 5.46-21.54 15.739-33.618 3.329-3.909 6.558-6.703 7.369-7.389.355-.307.715-.6 1.07-.889a61.027 61.027 0 0 1 2.691-2.076c.292-.212.57-.42.847-.614a31.754 31.754 0 0 1 1.613-1.11c.441-.316.888-.592 1.311-.871l-2.313.05c.113-.01.24-.01.355-.019.715-.027 1.416-.077 2.131-.104a79.064 79.064 0 0 1 5.15-.05c1.208.028 2.4.068 3.549.136l.009.005Z"/>
    <path fill="#B13B32" d="M147.563 111.653c-2.796 4.302-7.232 8.603-12.538 12.255-1.639 1.48-6.749 4.071-9.163 4.721-9.163 2.866-6.781 2.618-15.434 2.618-2.19.275-4.841-1.138-6.462-2.618-2.072-1.873-3.27-3.805-3.657-4.721-.424-.975-1.881-4.713-.214-10.811 2.313-8.449 8.644-14.159 14.063-23.073.114-.199.847-.71.82-1.607-.146-4.266-.232-6.825-.364-10.887-.037-1.011-.898-1.77-1.918-1.797-13.84-.307-27.238-.83-40.577-1.412-7.465-.325-14.91-.668-22.416-.993l3.703-3.345c16.627-4.035 45.988-11.262 62.373-15.974 23.764-6.825 2.391-42.636 2.391-42.636 18.577 11.33 27.74 27.76 30.818 33.943 3.512 7.055 16.896 38.14-1.425 66.342v-.005Z"/>
    <path fill="#DD565B" d="m53.412 69.978-3.703 3.345c-2.882-.127-5.765-.248-8.67-.361-7.388-.298-14.852-.565-22.453-.763-4.65-.126-9.345-.221-14.108-.289-2.555-.036-4.6-2.054-4.468-4.577.606-10.869 4.322-30.57 25.85-49.266C38.26 7.279 52.081 2.594 64.61.987A83.05 83.05 0 0 1 69.849.48l2.314-.05A65.488 65.488 0 0 0 57.26 13.378C45.697 26.972 42.213 42.142 41.038 49.825c2.901.036 5.816.067 8.722.094.897-7.303 4.048-24.874 17.3-38.822 4.61-4.847 9.879-8.242 9.879-8.242A54.648 54.648 0 0 1 81.038.436c.396.018.801.05 1.206.068.492.036.984.077 1.485.113.346.027.683.058 1.02.094.078 0 .155.019.269.028l.3.027h.096c.223.018.433.05.656.076.086 0 .173.018.269.027.086.01.182.019.268.028.233.027.465.058.692.085.579.068 1.148.136 1.708.221C97.62 2.4 103.38 4.36 104.072 4.607a75.963 75.963 0 0 1 14.1 6.739c1.881 1.588 12.934 11.184 11.968 24.211-.965 13.076-13.366 20.754-18.931 24.193 0 0-11.987 7.416-57.81 10.201l.008.01.005.017Z"/>
    <path fill="#ECD5C9" d="M33.57 49.233c2.5.135 4.995.266 7.495.402l-.027.19c-.027.161-.06.315-.077.468-2.72.06-5.438.113-8.152.172.027-.23.059-.479.095-.727.018-.171.05-.352.068-.537.192.01.397.018.597.027v.005ZM72.334.354a63.044 63.044 0 0 0-6.636 4.74c-.355.289-.714.582-1.07.889-.81.686-4.04 3.48-7.368 7.389C46.976 25.455 43.092 38.779 41.52 46.99c-2.586-.136-5.16-.276-7.746-.411-.128-.01-.26-.01-.387-.018 1.484-8.5 5.556-23.268 17.488-35.333A57.157 57.157 0 0 1 64.61.982c1.776-.23 3.52-.393 5.237-.506.114-.009.242-.009.356-.018.715-.027 1.416-.076 2.13-.104ZM50.4 50.132c2.4.126 4.823.257 7.223.384-.027.325-.06.64-.087.938-2.614-.374-5.219-.744-7.833-1.12.01-.076.018-.153.027-.238.224.018.442.027.665.036h.005ZM87.305 1.004c-4.29 2.754-9.345 6.69-14.109 12.237C62.462 25.744 59.088 39.547 57.95 47.874c-2.441-.135-4.9-.266-7.341-.392l-.51-.027c.05-.258.086-.524.127-.804l.278-1.575c.127-.641.25-1.31.405-2 .06-.289.114-.573.182-.87.05-.19.087-.385.137-.574.173-.745.364-1.521.579-2.316.214-.803.441-1.616.692-2.446.127-.41.25-.83.387-1.25 0 0 .009 0 .009-.018l.423-1.291c.146-.43.301-.871.465-1.31.319-.88.665-1.778 1.034-2.676.364-.907.76-1.814 1.184-2.735.214-.46.432-.925.656-1.386.232-.46.464-.925.706-1.395.24-.46.482-.916.733-1.376.26-.47.528-.94.801-1.404.273-.465.551-.939.838-1.395a36.304 36.304 0 0 1 .938-1.471c.292-.438.588-.88.898-1.31.268-.392.541-.776.828-1.155.078-.112.164-.239.26-.352.278-.383.57-.762.87-1.137.223-.289.455-.573.692-.862.223-.29.465-.573.706-.849a52.04 52.04 0 0 1 2.14-2.387c4.61-4.848 9.878-8.242 9.878-8.242a54.626 54.626 0 0 1 4.1-2.42c.395.018.8.05 1.206.068.492.036.984.077 1.485.113.346.027.683.058 1.02.095.2.018.432.05 1.32.144l1.235.144-.005-.009Z"/>
    <path fill="#C39B85" d="M69.65 73.264c.009.298 0 .596 0 .876-.037 1.35-1.089 2.46-2.441 2.6a145.907 145.907 0 0 1-30.458.121 146.739 146.739 0 0 1-14.31-2.18 2.801 2.801 0 0 1-1.812-1.277 144.42 144.42 0 0 0 13.207 1.963c11.5 1.165 21.805.822 30.454-.122 1.352-.14 2.413-1.25 2.44-2.6.01-.28.01-.577.01-.875 0-2.365-.223-5.16-.902-8.22-1.275-5.705-3.652-10.056-5.606-12.958.205.018.405.027.61.036a2.692 2.692 0 0 1 2.095 1.155c2 2.894 4.5 7.362 5.816 13.266a37.12 37.12 0 0 1 .901 8.215h-.004Z"/>
    <path fill="#ECD5C9" d="M66.737 71.766c0 .298 0 .596-.01.875a3.299 3.299 0 0 1-.063.52c-.018.085-.046.166-.069.243a1.659 1.659 0 0 1-.104.262c-.028.068-.064.14-.096.199a3.225 3.225 0 0 1-.214.316c-.01 0-.01.018-.018.027a3.02 3.02 0 0 1-.228.252 2.72 2.72 0 0 1-1.644.781 145.246 145.246 0 0 1-30.454.122A144.457 144.457 0 0 1 20.63 73.4a2.68 2.68 0 0 1-.346-1.797c.073-.428.15-.884.237-1.34.055-.343.123-.682.196-1.034a52.044 52.044 0 0 1 3.233-10.187 52.691 52.691 0 0 1 4.896-8.824 2.685 2.685 0 0 1 2.414-1.174c.965.054 1.935.104 2.91.158l.546.027c2.291.122 4.577.244 6.868.37.196 0 .378.018.574.027 1.175.068 2.35.131 3.534.194 1.28.073 2.555.14 3.834.203.205.018.406.027.61.037 2.2.112 4.423.234 6.622.352l.506.027c.993.054 1.972.103 2.96.158 1.954 2.898 4.331 7.253 5.606 12.958.087.389.16.763.228 1.133.082.375.141.745.196 1.115.055.307.096.614.132.912.01.045.01.086.018.13.064.466.114.922.16 1.36.018.185.036.356.045.541.018.217.037.438.046.65.018.298.036.587.045.876.01.14.018.289.018.428 0 .131 0 .262.01.393v.036c.009.217.009.43.009.65v-.013Z"/>
    <path fill="#C39B85" d="M41.52 46.994c-.172.957-.327 1.837-.455 2.64-2.5-.135-4.995-.266-7.496-.401l-.596-.027c.114-.786.25-1.675.414-2.64.128 0 .26 0 .387.017 2.587.136 5.16.276 7.747.411Z"/>
    <path fill="#10374E" d="M50.093 47.455a85.9 85.9 0 0 0-.337 2.465c-.01.058-.01.112-.019.171a651.392 651.392 0 0 1-4.185-.221 524.715 524.715 0 0 1-3.857-.212c-.214 0-.414-.018-.629-.027.128-.804.278-1.684.456-2.64.127.008.25.008.378.017 2.719.154 5.47.298 8.197.438l-.004.01Z"/>
    <path fill="#C39B85" d="M57.941 47.874a59.727 59.727 0 0 0-.319 2.64c-2.4-.126-4.823-.257-7.223-.383a16.552 16.552 0 0 1-.665-.036c.01-.059.01-.113.019-.172.086-.726.2-1.548.337-2.464.173 0 .337.018.51.027 2.44.126 4.9.257 7.341.393v-.005Zm74.395 55.397c-3.607-2.284-4.013-7.655-2.027-11.185 2.081-3.701 7.091-5.926 10.707-4.157 3.065 1.503 3.734 5.19 3.857 6.13.037.257.638 5.2-3.251 8.242-2.41 1.882-6.326 2.857-9.3.984l.009-.01.005-.004ZM27.733 59.542c-.282.826 0 1.873.697 2.478 1.08.93 2.997.641 3.89-.55.714-.957.733-2.429 0-3.165-1.14-1.155-4.004-.438-4.578 1.237h-.009Zm26.637 4.812c1.59.352 3.43-1.07 3.334-2.614-.095-1.526-2.049-2.767-3.607-2.198-1.033.375-1.858 1.517-1.662 2.753.16 1.061 1.016 1.864 1.945 2.059h-.01Z"/>
  </g>
  <defs>
    <clipPath id="a">
      <path fill="#fff" d="M0 .287h157v131H0z"/>
    </clipPath>
  </defs>
</svg>
