<svg xmlns="http://www.w3.org/2000/svg" width="178" height="105" fill="none" viewBox="0 0 178 105">
  <g clip-path="url(#a)">
    <mask id="b" width="178" height="105" x="0" y="0" maskUnits="userSpaceOnUse" style="mask-type:luminance">
      <path fill="#fff" d="M176.688.415.152 1.212l.471 103.217 176.535-.797-.47-103.217Z"/>
    </mask>
    <g mask="url(#b)">
      <path fill="#E6E6E5" d="M64.08 25.665c-.28-.21-6.01-4.768-5.324-11.73C59.416 7.209 65.74 1.637 73.21.949c6.998-.642 14.42 3.074 16.697 9.493 1.879 5.297-.314 10.841-4.02 14.223-5.74 5.218-15.64 5.73-21.806 1Z"/>
      <path fill="#58A053" d="M177.075 95.177c-.439 2.544-5.081 4.641-12.494 6.148.009-.037.018-.083.028-.13.332-1.902-1.552-4.935-4.385-9.483a49.199 49.199 0 0 0-6.38-8.187 42.57 42.57 0 0 0 1.08-11.227c-.566-14.512-8.568-24.721-11.63-28.624-17.122-21.818-47.336-25.976-55.74-27.13-10.41-1.437-26.438-3.633-43.097 2.247a69.684 69.684 0 0 1 2.16-1.298c20.127-11.54 40.852-8.698 53.398-6.967 8.405 1.153 38.61 5.306 55.741 27.13 3.052 3.902 11.068 14.102 11.629 28.623a42.274 42.274 0 0 1-1.08 11.228 49.157 49.157 0 0 1 6.376 8.186c2.828 4.553 4.707 7.581 4.385 9.484h.009Z"/>
      <path fill="#74B859" d="M164.612 101.2s-.018.093-.028.13c-11.564 2.33-29.863 3.186-49.36 1.949-43.76-2.767-68.356-14.48-97.192-28.21C9.334 70.926-.206 65.82.476 60.392c.145-1.154.739-2.2 1.631-3.154 1.314-1.395 3.272-2.577 5.408-3.544 4.623-2.107 10.05-3.247 11.457-3.526 2.16-5.735 8.783-20.893 25.484-31.367 16.66-5.884 32.687-3.684 43.097-2.251 8.404 1.153 38.618 5.307 55.74 27.13 3.062 3.902 11.069 14.112 11.63 28.623a42.358 42.358 0 0 1-1.08 11.228 49.264 49.264 0 0 1 6.376 8.186c2.837 4.549 4.716 7.582 4.384 9.484h.009Z"/>
      <path fill="#58A053" d="M112.743 47.688c-.383-.423-8.25-9.456-4.898-20.679 3.239-10.842 15.317-18.284 27.695-17.377 11.606.847 22.487 8.958 24.123 20.103 1.351 9.195-3.996 17.697-11.12 22.228-11.026 7.014-27.311 5.148-35.804-4.275h.004Z"/>
      <path fill="#E6E6E5" d="M114.508 42.716c-.365-.423-7.947-9.46-4.717-20.679 3.113-10.841 14.733-18.283 26.648-17.372 11.167.847 21.637 8.963 23.217 20.107 1.304 9.196-3.842 17.698-10.69 22.228-10.606 7.01-26.269 5.144-34.463-4.279l.005-.005Z"/>
      <path fill="#010101" d="M124.654 32.176c-.178-.214-3.899-4.623-2.319-10.116 1.524-5.312 7.222-8.949 13.06-8.502 5.474.414 10.611 4.38 11.387 9.841.64 4.507-1.884 8.666-5.245 10.88-5.198 3.432-12.878 2.511-16.893-2.103h.01Z"/>
      <path stroke="#58A053" stroke-linecap="round" stroke-linejoin="round" stroke-width="5" d="M32.23 51.014c10.578 7.409 26.326 16.65 47.196 23.297 31.421 9.996 59.004 9.168 74.765 7.572"/>
      <path stroke="#4B914E" stroke-linecap="round" stroke-linejoin="round" stroke-width="5" d="m82.044 23.679-3.978 2.995m11.965-1.046.024 4.963"/>
      <path fill="#9FC85E" d="M43.55 19.381c-4.094 3.852-9.918 10.372-13.779 19.754a52.317 52.317 0 0 0-3.459 12.902c-.234 3.833.547 10.596 5.558 15.535 18.38 15.74 77.957 35.879 112.864 35.726C70.961 110.074 17.917 76.321 7.162 69.195 5.007 67.767.042 64.4.445 60.655c.135-1.227.818-2.306 1.047-2.683 1.309-2.084 3.351-3.172 6.02-4.288 2.641-1.107 6.479-2.48 11.457-3.526a61.16 61.16 0 0 1 5.202-10.707c6.026-9.814 13.766-16.242 19.37-20.079l.01.01Z"/>
      <path fill="#58A053" d="M127.822 67.275c-3.351.78-4.239 5.176-2.945 6.562 1.697 1.833 8.587-.018 8.928-2.497.253-1.796-2.818-4.81-5.978-4.07v.01l-.005-.005Zm10.763-8.001c-1.679.391-2.127 2.591-1.473 3.28.851.911 4.296-.02 4.469-1.247.126-.898-1.407-2.41-2.982-2.037h-.01l-.004.004Zm12.674 35.042c-1.673.391-2.126 2.591-1.472 3.28.851.911 4.296-.02 4.469-1.247.126-.898-1.407-2.41-2.987-2.037h-.01v.004ZM39.124 40.837c-1.678.39-2.127 2.59-1.473 3.279.85.912 4.296-.019 4.469-1.247.126-.897-1.407-2.409-2.987-2.037h-.01v.005Z"/>
    </g>
  </g>
  <defs>
    <clipPath id="a">
      <path fill="#fff" d="M.156.432h177v104h-177z"/>
    </clipPath>
  </defs>
</svg>
