<svg xmlns="http://www.w3.org/2000/svg" width="151" height="82" fill="none" viewBox="0 0 151 82">
  <path fill="#D7D7D7" fill-rule="evenodd" d="M150.723 81.33C94.529 54.01 46.115 44.31 0 57.34a71.259 71.259 0 0 1 2.218-9.77C24.081-24.98 150.02-13.11 150.974 73.38c.03 2.58-.05 5.23-.251 7.95Z" clip-rule="evenodd"/>
  <path fill="#878B8B" fill-rule="evenodd" d="M150.973 73.39c-.301-27.02-12.799-46.76-30.516-58.92.803 2.15 1.596 4.3 2.309 6.49 2.329 7.13 3.282 14.57 4.206 22.01 1.144 9.27 1.807 18.79 1.114 28.16a411.638 411.638 0 0 1 22.636 10.21c.201-2.71.281-5.36.251-7.95ZM13.309 35.02c.964-.18 1.937-.35 2.9-.52-.14.37-.28.74-.41 1.11-.282.75-.553 1.5-.814 2.26a156.707 156.707 0 0 0-3.052.68 139.4 139.4 0 0 1 1.376-3.54v.01Zm2.771-6.39c.913-.16 1.826-.3 2.74-.44a92.609 92.609 0 0 0-1.486 3.47c-1.024.2-1.987.41-2.88.61a134.44 134.44 0 0 1 1.625-3.64Zm3.192-6.43c.874-.13 1.737-.26 2.6-.37-.572 1.11-1.134 2.24-1.696 3.41-.954.17-1.857.34-2.73.51.581-1.17 1.184-2.36 1.816-3.55h.01Zm6.645-7.63c-.23.39-.462.78-.703 1.19-.572.97-1.134 1.97-1.706 3.01-.894.14-1.757.27-2.59.42.17-.3.341-.61.522-.91.17-.16.341-.31.512-.46.19-.16.381-.33.562-.5.2-.17.392-.34.592-.51.201-.17.402-.34.613-.51.16-.14.33-.28.502-.41.01 0 .02-.02.03-.03.07-.05.13-.11.2-.16l.13-.1c.111-.09.232-.19.352-.27.12-.09.241-.19.352-.27.01-.01.03-.02.04-.03.19-.15.391-.3.592-.44v-.02ZM22.376 39.4c.973-.12 1.947-.23 2.92-.33-.42 1.38-.812 2.78-1.184 4.21-1.043.12-2.057.24-3.061.37.401-1.37.843-2.78 1.325-4.24v-.01Zm2.186-6.1c.914-.11 1.827-.21 2.74-.3-.36.99-.702 2-1.043 3.02-.984.12-1.928.24-2.841.38.361-1.02.743-2.05 1.144-3.1Zm2.543-6.17c.863-.09 1.726-.17 2.58-.25-.422.99-.834 2-1.235 3.04a93 93 0 0 0-2.68.34c.421-1.03.863-2.07 1.335-3.13Zm2.928-6.21c.813-.07 1.626-.13 2.44-.19-.472.98-.944 1.99-1.416 3.02-.863.09-1.706.18-2.53.28.482-1.03.984-2.06 1.506-3.1v-.01Zm3.836-6.02 1.676-.12c-.492.9-.994 1.82-1.486 2.77-.813.07-1.616.14-2.399.21.301-.55.602-1.12.914-1.68l.632-1.14c.22-.02.432-.03.652-.05l.01.01Zm4.827-5.52c-.432.71-.874 1.44-1.315 2.19-.783.06-1.546.11-2.299.18.442-.75.904-1.49 1.375-2.24.753-.05 1.496-.09 2.239-.13Zm-5.038 29c.964-.06 1.928-.1 2.891-.14-.381 1.34-.753 2.71-1.094 4.1-1.024.06-2.038.12-3.021.19.371-1.34.783-2.72 1.224-4.14v-.01Zm2.057-6.03c.914-.05 1.827-.1 2.74-.13-.32.94-.632 1.89-.943 2.85-.964.04-1.897.1-2.82.16.32-.95.662-1.9 1.023-2.88Zm2.361-6.01c.874-.04 1.747-.06 2.61-.09-.371.91-.733 1.83-1.084 2.78-.913.04-1.807.09-2.68.14.371-.93.753-1.88 1.154-2.83Zm2.708-6.02c.843-.02 1.676-.04 2.51-.05-.422.9-.844 1.83-1.255 2.77-.874.03-1.727.06-2.57.1.421-.93.853-1.88 1.315-2.83v.01Zm2.982-5.88 2.44-.03c-.452.86-.904 1.73-1.356 2.63-.843.01-1.666.03-2.479.06.452-.88.924-1.77 1.395-2.66Zm3.011-5.31h2.39c-.392.67-.794 1.35-1.195 2.06-.813 0-1.617.02-2.41.03.392-.69.804-1.38 1.215-2.08v-.01Z" clip-rule="evenodd"/>
  <path fill="#fff" fill-rule="evenodd" d="M20.128 22.17a67.153 67.153 0 0 1 4.046-6.7C14.186 23.21 6.346 33.89 2.23 47.57a71.26 71.26 0 0 0-2.218 9.77c4.286-1.21 8.582-2.22 12.919-3.04.432-11.13 1.927-22.13 7.207-32.14l-.01.01Z" clip-rule="evenodd"/>
  <path fill="#878B8B" fill-rule="evenodd" d="M52.44 3.86c-.422.65-.864 1.33-1.305 2.04h-2.37c.432-.69.874-1.37 1.326-2.06.783 0 1.566 0 2.349.02Z" clip-rule="evenodd"/>
  <path fill="#CCCBCB" fill-rule="evenodd" d="M5.57 40.34c1.244-.42 3.393-1.07 6.364-1.78-.331.9-.653 1.78-.954 2.65-2.128.41-4.256.87-6.394 1.38a59.332 59.332 0 0 1 .792-1.82c.061-.14.131-.28.192-.43Zm17.84-3.94c-.361 1.02-.702 2.02-1.034 3-2.76.34-5.53.75-8.321 1.24.3-.94.612-1.86.923-2.77 2.42-.51 5.24-1.02 8.422-1.48l.01.01Zm11.283-1.17a142.43 142.43 0 0 0-1.034 3.15c-2.77.16-5.561.39-8.362.69.311-1.03.632-2.05.963-3.05 2.6-.32 5.411-.59 8.433-.79Zm20.79-.14c-.322 1.11-.623 2.2-.894 3.26-5.892-.31-11.915-.36-18.038-.11.311-1.08.632-2.13.963-3.17 5.411-.28 11.414-.31 17.969.02Zm12.283 1c-.26 1.12-.502 2.22-.723 3.29a217.24 217.24 0 0 0-9.797-.88c.261-1.1.532-2.2.813-3.27 3.122.2 6.354.48 9.707.87v-.01Zm13.552 2c-.15 1.13-.29 2.24-.421 3.32-3.454-.62-6.987-1.16-10.58-1.63.2-1.1.411-2.2.642-3.3 3.343.43 6.806.96 10.37 1.61h-.01Zm27.917 6.87c0 1.09 0 2.19-.03 3.3-7.368-2.25-15.429-4.35-24.021-6.04.14-1.09.28-2.19.431-3.31 7.459 1.5 15.339 3.48 23.62 6.05Zm10.107 6.63c-2.339-.82-4.768-1.64-7.288-2.44 0-1.08-.02-2.18-.05-3.3 2.399.77 4.818 1.6 7.278 2.48.04 1.08.06 2.16.06 3.26Zm8.896.12c.02 1.05.02 2.11 0 3.18-.281-.11-.552-.22-.843-.33-1.576-.62-3.223-1.23-4.919-1.85-.03-1.06-.06-2.15-.121-3.26 1.597.59 3.213 1.21 4.829 1.85.351.13.692.27 1.044.41h.01Z" clip-rule="evenodd"/>
  <path fill="#99999A" fill-rule="evenodd" d="M144.397 58.74c.02 1.04.03 2.09.02 3.15-3.543-1.7-7.98-3.69-13.15-5.8 0-1.04-.03-2.1-.06-3.18 4.316 1.77 8.713 3.71 13.19 5.83Zm6.095 6.18a168.88 168.88 0 0 0-3.222-1.64c-.02-1.05-.05-2.12-.09-3.21.933.45 1.857.91 2.79 1.37l.181 1.13c.04.22.07.44.1.66.081.57.161 1.13.231 1.69h.01Z" clip-rule="evenodd"/>
  <path fill="#CCCBCB" fill-rule="evenodd" d="M9.034 33.67c1.396-.41 3.212-.89 5.42-1.39-.4.93-.782 1.84-1.144 2.74-1.887.35-3.784.74-5.681 1.17.23-.43.462-.87.713-1.3.2-.36.411-.72.622-1.08.02-.04.05-.08.08-.13l-.01-.01Zm16.745-3.42a136.86 136.86 0 0 0-1.215 3.05c-2.65.31-5.31.69-7.98 1.14l-.361.06c.371-.96.742-1.91 1.124-2.84a136.058 136.058 0 0 1 8.432-1.4v-.01Zm11.141-1.08a166.57 166.57 0 0 0-1.215 3.18c-2.79.15-5.591.36-8.412.65.371-1.04.763-2.07 1.154-3.08 2.62-.31 5.441-.56 8.473-.75Zm20.439-.05c-.372 1.1-.733 2.19-1.064 3.25-5.832-.32-11.795-.39-17.838-.16.371-1.08.753-2.14 1.154-3.19 5.36-.25 11.283-.26 17.758.09l-.01.01Zm11.905 1.01c-.301 1.11-.582 2.2-.843 3.27a196.48 196.48 0 0 0-9.597-.87c.321-1.1.663-2.19 1.004-3.26 3.032.2 6.183.49 9.436.86Zm12.889 1.89c-.16 1.12-.31 2.23-.462 3.31a222.23 222.23 0 0 0-10.148-1.55c.24-1.1.502-2.2.773-3.28a208 208 0 0 1 9.837 1.52Zm27.03 9.86a246.752 246.752 0 0 0-23.218-5.75l.421-3.32a232.31 232.31 0 0 1 22.657 5.71c.06 1.11.11 2.23.14 3.36Zm9.961 3.2c-2.329-.8-4.748-1.6-7.248-2.37-.05-1.1-.12-2.22-.201-3.36 2.369.75 4.778 1.55 7.208 2.4.09 1.1.17 2.21.241 3.34v-.01Zm8.814.02c.07 1.07.13 2.16.18 3.25-.441-.17-.893-.34-1.355-.52a318.44 318.44 0 0 0-4.607-1.7c-.081-1.09-.171-2.2-.281-3.33 1.425.51 2.85 1.05 4.296 1.6.592.22 1.174.45 1.777.68l-.01.02Z" clip-rule="evenodd"/>
  <path fill="#99999A" fill-rule="evenodd" d="M144.097 52.01c.07 1.06.14 2.13.191 3.22a244.497 244.497 0 0 0-13.241-5.73c-.06-1.07-.14-2.16-.231-3.26 4.347 1.75 8.774 3.67 13.291 5.77h-.01Zm5.151 5.62c-.693-.35-1.446-.72-2.249-1.11-.07-1.07-.16-2.17-.261-3.28l1.626.78c.041.12.071.25.101.37.251.93.472 1.85.672 2.77.041.15.071.31.101.46l.01.01Z" clip-rule="evenodd"/>
  <path fill="#CCCBCB" fill-rule="evenodd" d="M13.842 26.53c1.095-.26 2.31-.52 3.614-.78-.482.97-.933 1.93-1.375 2.88-1.446.25-2.891.51-4.347.8.281-.41.573-.83.874-1.24.13-.19.27-.37.411-.56.271-.37.542-.73.823-1.1Zm14.687-2.51c-.492 1.05-.964 2.08-1.416 3.11-1.857.19-3.714.41-5.58.67-.894.12-1.798.25-2.701.39.442-1 .903-1.99 1.365-2.96 1.275-.23 2.63-.45 4.066-.66 1.355-.2 2.78-.39 4.266-.56v.01Zm10.941-.88a118.95 118.95 0 0 0-1.395 3.19c-2.78.11-5.58.29-8.391.54.451-1.07.903-2.11 1.375-3.14 2.62-.25 5.43-.47 8.412-.6v.01Zm20.015.21c-.432 1.1-.843 2.18-1.235 3.25-5.731-.37-11.604-.5-17.566-.34.441-1.09.893-2.17 1.345-3.21 5.3-.17 11.132-.1 17.446.31l.01-.01Zm11.405 1.08c-.33 1.11-.652 2.19-.953 3.26-3.041-.37-6.133-.68-9.265-.92.391-1.1.783-2.18 1.194-3.25 2.912.23 5.923.52 9.035.91h-.01Zm12.127 1.84c-.17 1.11-.34 2.21-.501 3.3a210.19 210.19 0 0 0-9.567-1.51c.291-1.1.582-2.19.894-3.26 2.98.4 6.032.89 9.174 1.47Zm25.867 9.61a248.637 248.637 0 0 0-22.185-5.51c.14-1.11.281-2.21.412-3.31a231.394 231.394 0 0 1 21.461 5.42c.111 1.12.211 2.25.302 3.41l.01-.01Zm2.579.79c-.1-1.12-.221-2.26-.361-3.41 2.338.73 4.717 1.52 7.117 2.35.15 1.11.291 2.25.411 3.4-2.309-.78-4.698-1.57-7.167-2.33v-.01Zm15.943 2.32c.13 1.09.24 2.19.341 3.32a276.477 276.477 0 0 0-6.133-2.27c-.131-1.11-.282-2.24-.442-3.39a288.72 288.72 0 0 1 6.254 2.34h-.02Z" clip-rule="evenodd"/>
  <path fill="#99999A" fill-rule="evenodd" d="M143.515 45.84c.131 1.08.241 2.17.342 3.29a240.942 240.942 0 0 0-13.321-5.73c-.11-1.09-.241-2.21-.391-3.33 4.366 1.75 8.823 3.67 13.37 5.77Zm3.925 5a46.58 46.58 0 0 0-.993-.48c-.121-1.1-.261-2.22-.412-3.35.04.02.08.03.121.06.04.1.08.2.11.31.09.23.171.47.251.71.161.44.311.87.452 1.31.17.49.321.97.471 1.45v-.01Z" clip-rule="evenodd"/>
  <path fill="#CCCBCB" fill-rule="evenodd" d="M20.359 19.28c.18-.03.371-.07.562-.1a128.96 128.96 0 0 0-1.636 3.02c-.693.1-1.385.21-2.078.32.13-.14.261-.29.402-.44.16-.18.34-.36.511-.55.171-.18.342-.36.522-.54.181-.19.362-.38.553-.56.34-.35.702-.69 1.064-1.04l.12-.12-.02.01Zm11.313-1.52c-.572 1.06-1.114 2.11-1.636 3.16-.873.07-1.747.16-2.63.25-1.837.19-3.674.4-5.531.65.542-1.05 1.084-2.07 1.626-3.06 2.209-.34 4.618-.64 7.208-.91.31-.03.632-.06.963-.09Zm10.698-.66c-.552 1.08-1.084 2.15-1.586 3.21-2.75.07-5.52.21-8.311.41.532-1.09 1.064-2.15 1.596-3.18 2.6-.2 5.37-.36 8.301-.45v.01Zm19.525.49c-.482 1.09-.943 2.17-1.385 3.23a198.9 198.9 0 0 0-17.205-.55c.512-1.11 1.034-2.18 1.556-3.22a185.9 185.9 0 0 1 17.044.54h-.01Zm10.802 1.13c-.371 1.1-.712 2.18-1.054 3.24-2.89-.37-5.822-.69-8.803-.95.441-1.1.893-2.18 1.355-3.23 2.75.24 5.581.55 8.502.94Zm11.253 1.79c-.19 1.1-.37 2.2-.551 3.29-2.901-.54-5.852-1.02-8.864-1.45.331-1.1.663-2.19.994-3.25 2.74.4 5.541.87 8.412 1.4l.01.01Zm24.323 9.26a246.102 246.102 0 0 0-20.859-5.18c.13-1.12.271-2.23.402-3.32a235.317 235.317 0 0 1 19.986 5.04c.17 1.13.331 2.28.471 3.46Zm9.535 3.02c-2.279-.77-4.628-1.53-7.067-2.27a169.5 169.5 0 0 0-.522-3.47c2.309.71 4.637 1.47 6.996 2.28.211 1.12.402 2.28.593 3.46Zm8.734-.08c.181 1.1.351 2.23.502 3.39a269.66 269.66 0 0 0-6.324-2.31c-.191-1.14-.391-2.3-.622-3.46.592.21 1.174.42 1.776.64 1.546.56 3.102 1.14 4.678 1.75l-.01-.01Z" clip-rule="evenodd"/>
  <path fill="#99999A" fill-rule="evenodd" d="M129.734 37.14c-.171-1.12-.361-2.26-.562-3.4 4.397 1.74 8.884 3.65 13.461 5.75.181 1.09.351 2.22.512 3.37a241.449 241.449 0 0 0-13.411-5.71v-.01Z" clip-rule="evenodd"/>
  <path fill="#CCCBCB" fill-rule="evenodd" d="M29.049 12.37a147.1 147.1 0 0 1 6.033-.62 150.63 150.63 0 0 0-1.867 3.2c-2.66.2-5.32.47-8 .81l-.985.12.03-.03c.07-.05.131-.11.201-.16l.13-.1c.111-.09.232-.19.352-.27.12-.09.241-.19.351-.27.01-.01.03-.02.04-.03.191-.15.392-.3.593-.44.11-.09.22-.17.331-.25l.663-.48c.22-.16.441-.32.672-.47.231-.15.452-.31.683-.47.25-.17.512-.34.773-.52v-.02Zm16.514-1.16a150.88 150.88 0 0 0-1.797 3.23c-2.72.06-5.45.17-8.211.34.512-.93 1.024-1.83 1.526-2.71.1-.17.19-.33.29-.5.101 0 .211-.01.312-.02 2.48-.17 5.11-.29 7.87-.34h.01Zm19.042.62a156.08 156.08 0 0 0-1.556 3.22c-5.5-.44-11.132-.67-16.854-.64a157.16 157.16 0 0 1 1.767-3.23c5.12-.03 10.68.16 16.633.65h.01Zm10.129 1.1c-.402 1.09-.793 2.17-1.165 3.23-2.71-.35-5.46-.66-8.24-.92.511-1.11 1.023-2.18 1.525-3.22 2.55.24 5.17.54 7.87.9l.01.01Zm10.288 1.63c-.21 1.1-.411 2.2-.602 3.29-2.64-.47-5.33-.92-8.06-1.31.36-1.11.732-2.19 1.084-3.23 2.469.36 4.989.78 7.568 1.25h.01Zm22.275 8.62a247.83 247.83 0 0 0-19.153-4.62c.131-1.14.272-2.25.402-3.32a228.66 228.66 0 0 1 18.089 4.41c.231 1.14.452 2.32.662 3.53Zm9.275 2.82c-2.228-.73-4.537-1.44-6.906-2.14-.221-1.17-.452-2.35-.713-3.54 2.249.66 4.527 1.38 6.836 2.13.271 1.15.542 2.33.793 3.54l-.01.01Zm8.655-.24c.251 1.12.482 2.28.703 3.48-1.877-.69-3.825-1.38-5.842-2.07l-.693-.24c-.14-.65-.291-1.29-.442-1.95v-.01c-.12-.52-.251-1.05-.371-1.58 2.188.75 4.407 1.53 6.645 2.37Z" clip-rule="evenodd"/>
  <path fill="#99999A" fill-rule="evenodd" d="M140.312 35.02a260.2 260.2 0 0 0-11.815-4.82c-.241-1.15-.492-2.31-.763-3.49 3.162 1.21 6.365 2.51 9.627 3.89l.512.72c.161.22.321.45.472.67.311.45.612.91.913 1.36.151.23.291.45.442.68.15.23.291.46.431.69.061.1.121.2.181.29v.01Z" clip-rule="evenodd"/>
  <path fill="#CCCBCB" fill-rule="evenodd" d="M37.321 7.81c.1-.05.2-.1.311-.14-.401.61-.783 1.22-1.174 1.83-.994.07-1.988.14-2.981.22.21-.12.431-.23.642-.35.522-.27 1.044-.54 1.576-.8.271-.13.532-.27.803-.39s.542-.25.823-.38v.01ZM48.764 5.9a127.81 127.81 0 0 0-1.988 3.23c-2.108.02-4.226.07-6.354.17-.572.02-1.144.05-1.727.08a144.12 144.12 0 0 1 1.857-2.94v-.01l.181-.27.622-.03h.01c1.075-.06 2.159-.1 3.273-.14 1.345-.04 2.7-.07 4.105-.08l.02-.01Zm18.533.78c-.592 1.08-1.154 2.14-1.697 3.2-5.36-.47-10.85-.73-16.432-.75a121.33 121.33 0 0 1 1.967-3.23c5 .02 10.4.26 16.172.78h-.01Zm9.423 1.08c-.432 1.08-.853 2.15-1.255 3.22-2.51-.34-5.06-.64-7.63-.88a132.01 132.01 0 0 1 1.687-3.2c2.34.24 4.738.53 7.198.87v-.01Zm9.345 1.5-.662 3.28c-2.39-.43-4.809-.83-7.278-1.19.401-1.12.783-2.2 1.164-3.22 2.209.33 4.467.71 6.766 1.13h.01Zm20.07 7.99a238.042 238.042 0 0 0-17.346-4.07c.14-1.16.271-2.27.391-3.32 5.17 1.03 10.54 2.29 16.112 3.81.281 1.14.562 2.34.833 3.58h.01Zm9.014 2.65c-2.188-.69-4.447-1.36-6.756-2.01a104.41 104.41 0 0 0-.893-3.59c1.957.55 3.935 1.14 5.933 1.77.24.08.491.15.732.23.131.46.261.93.392 1.4.191.72.391 1.45.592 2.21v-.01Zm8.58-.39c.301 1.13.592 2.31.893 3.55-2.158-.77-4.396-1.53-6.715-2.29-.322-1.19-.663-2.4-1.024-3.61 2.258.74 4.537 1.52 6.846 2.35Z" clip-rule="evenodd"/>
  <path fill="#99999A" fill-rule="evenodd" d="M134.291 26.73c-2.279-.91-4.698-1.84-7.238-2.78-.301-1.18-.622-2.37-.963-3.57 1.094.4 2.198.82 3.302 1.25.031.03.061.05.081.08.21.19.411.39.612.58.221.2.422.4.632.61.422.41.824.83 1.225 1.25.201.21.402.42.592.63a72.513 72.513 0 0 1 1.747 1.94l.01.01Z" clip-rule="evenodd"/>
  <path fill="#878B8B" fill-rule="evenodd" d="M48.586 3.85c.582-.16 1.184-.3 1.787-.44-.09.14-.191.28-.281.43h-1.506v.01Z" clip-rule="evenodd"/>
  <path fill="#CCCBCB" fill-rule="evenodd" d="M70.235 1.53a135.46 135.46 0 0 0-1.847 3.18c-5.2-.49-10.53-.78-15.95-.86.23-.35.461-.69.672-1.02 4.608-.89 9.607-1.41 15.037-1.5.683.06 1.375.13 2.068.19l.02.01Zm8.635 1.04c-.461 1.07-.903 2.14-1.344 3.19-2.279-.31-4.588-.59-6.917-.83.633-1.13 1.245-2.19 1.837-3.18 2.098.23 4.237.5 6.415.81l.01.01Zm8.362 1.35c-.251 1.08-.492 2.17-.723 3.26-2.118-.38-4.276-.73-6.454-1.06.441-1.16.853-2.23 1.234-3.21 1.948.3 3.925.63 5.943 1v.01Zm17.417 7.25a240.488 240.488 0 0 0-15.208-3.44c.14-1.22.271-2.34.392-3.32 4.447.86 9.044 1.9 13.792 3.13.342 1.13.693 2.34 1.034 3.63h-.01Zm8.703 2.42c-.733-.22-1.486-.44-2.239-.66-1.415-.41-2.841-.81-4.306-1.2-.342-1.21-.703-2.42-1.084-3.65.572.15 1.134.31 1.716.47 1.335.37 2.69.76 4.056 1.17h.02c.14.06.271.13.411.19.05.03.101.05.151.07.04.02.07.03.11.05.382 1.09.763 2.28 1.155 3.55l.01.01Zm10.44 3.37c-.281-.1-.572-.2-.853-.3a256.46 256.46 0 0 0-6.907-2.25c-.311-.97-.632-1.95-.973-2.93.22.12.451.24.672.36.884.48 1.747.97 2.59 1.47.281.17.552.34.833.51.241.15.472.29.703.44.04.03.07.05.11.07.271.17.532.34.793.51.01 0 .02.02.03.02.261.17.522.35.773.52l.783.54c.151.11.311.21.462.32.1.07.201.14.311.22l.572.42a.6.6 0 0 0 .091.07l.01.01Z" clip-rule="evenodd"/>
  <path fill="#878B8B" fill-rule="evenodd" d="M54.586 38.34c.893.05 1.777.1 2.66.16a89.466 89.466 0 0 0-.823 3.84c-.934-.05-1.857-.09-2.77-.13.28-1.25.602-2.54.943-3.86l-.01-.01Zm1.71-5.97c.843.04 1.686.1 2.52.15-.262.89-.513 1.79-.764 2.7-.873-.05-1.726-.1-2.58-.14.262-.89.523-1.79.814-2.71h.01Zm1.957-5.77c.803.05 1.616.11 2.419.17-.281.82-.562 1.66-.843 2.5-.833-.05-1.647-.1-2.47-.14.281-.83.583-1.67.894-2.53Zm2.247-5.78c.783.06 1.566.12 2.34.19-.332.82-.663 1.66-.984 2.51-.803-.06-1.596-.12-2.38-.17.322-.83.663-1.68 1.025-2.53Zm2.549-5.77c.763.06 1.526.12 2.289.19-.382.83-.763 1.67-1.135 2.54-.783-.07-1.546-.14-2.309-.19.372-.84.763-1.69 1.165-2.54h-.01ZM65.6 9.88l2.25.21a116.7 116.7 0 0 0-.974 1.94c-.763-.07-1.516-.14-2.259-.2.321-.65.653-1.3.994-1.95h-.01Zm5.01-4.95a69.09 69.09 0 0 0-1.085 1.96l-2.228-.21c.351-.65.713-1.31 1.094-1.97.743.07 1.486.14 2.228.22h-.01Zm71.931 34.04c.111.21.221.42.322.63-.081-.04-.161-.08-.241-.11-.031-.17-.061-.35-.091-.52h.01Zm3.482 8.04c-.843-.4-1.676-.79-2.499-1.17-.121-1.01-.241-2.01-.372-2.98.552.26 1.095.51 1.616.76.051.1.091.2.131.3.09.21.171.42.261.62.1.24.191.47.291.71l.211.54c.11.26.211.53.301.79v.01c.02.15.04.28.06.42Zm-1.925 5c-.07-.98-.151-1.93-.231-2.88.904.42 1.767.83 2.58 1.23.11.98.211 1.94.291 2.89-.883-.42-1.767-.84-2.64-1.24Zm3.083 8.06c-.934-.45-1.857-.9-2.791-1.33-.02-1.19-.06-2.36-.12-3.51.963.45 1.867.88 2.71 1.29.08 1.21.14 2.39.191 3.55h.01Zm-.081 12.3a142.83 142.83 0 0 0-3.022-1.99c.221-2.89.321-5.73.341-8.49 1.024.49 1.978.96 2.851 1.39.05 3.22-.02 6.26-.17 9.09Zm-21.001-51.99a85.42 85.42 0 0 0-2.369-.86c-.261-1-.532-1.95-.793-2.85-.04-.14-.08-.27-.121-.41.101.07.201.14.312.22l.572.42c.03.03.06.05.09.07.281.2.552.41.823.62.241.19.492.37.723.57.04.03.09.06.13.1.221.72.422 1.43.623 2.13l.01-.01Zm1.638 6.33c-.843-.32-1.677-.64-2.51-.95-.19-.93-.401-1.83-.602-2.7.823.3 1.646.59 2.439.89.241.93.462 1.85.673 2.76Zm1.433 7.03c-.883-.35-1.766-.69-2.64-1.03a96.94 96.94 0 0 0-.612-3.47c.873.32 1.727.64 2.57.96.251 1.19.472 2.37.672 3.54h.01Zm.973 6.33c-.923-.37-1.837-.73-2.75-1.08-.111-.98-.231-1.94-.362-2.89.914.35 1.817.7 2.69 1.04.151.99.292 1.97.412 2.93h.01Zm.665 6.16c-.954-.39-1.897-.77-2.841-1.13-.06-.95-.131-1.88-.221-2.8.954.37 1.887.73 2.801 1.09.1.96.19 1.9.261 2.83v.01Zm.39 6.68c-.993-.41-1.977-.81-2.961-1.2-.02-1.13-.05-2.25-.1-3.36.993.38 1.957.76 2.901 1.14.07 1.16.12 2.3.16 3.42Zm-.04 9.9c-1.044-.56-2.098-1.1-3.142-1.63.13-2.13.21-4.23.23-6.29 1.034.4 2.038.8 3.022 1.2.02 2.35-.02 4.6-.11 6.71v.01Zm-14.285-45.65c-.914-.3-1.817-.59-2.711-.87-.271-.94-.542-1.83-.803-2.69.904.27 1.797.54 2.671.82.301.92.572 1.84.843 2.75v-.01Zm1.697 6.24c-.211-.07-.412-.14-.623-.21-.732-.25-1.455-.49-2.178-.73-.211-.88-.421-1.73-.632-2.56l1.054.33c.572.18 1.134.36 1.696.54.231.88.462 1.76.673 2.62l.01.01Zm1.518 6.93c-.964-.34-1.918-.68-2.861-1a88.854 88.854 0 0 0-.653-3.32c.954.31 1.897.62 2.821.93.251 1.14.482 2.27.693 3.39Zm1.071 6.32c-.984-.36-1.957-.7-2.931-1.04-.131-.95-.261-1.89-.412-2.82.984.33 1.948.66 2.901 1 .161.96.302 1.92.442 2.86Zm.735 6.16c-1.004-.36-2.008-.72-3.002-1.07-.08-.93-.171-1.84-.271-2.74 1.004.35 1.998.69 2.971 1.04.111.94.211 1.86.291 2.77h.011Zm.483 6.64c-1.034-.38-2.058-.76-3.082-1.12-.03-1.09-.08-2.18-.15-3.25 1.033.35 2.037.71 3.041 1.06.08 1.13.151 2.23.191 3.31Zm.109 9.06c-1.074-.5-2.148-.98-3.232-1.45.08-1.85.11-3.67.09-5.46 1.064.37 2.118.75 3.142 1.12.04 2.02.04 3.96 0 5.79ZM105.722 8.09c-.713-.19-1.405-.37-2.108-.55-.11-.36-.211-.7-.321-1.04.733.24 1.456.5 2.158.76.091.28.181.56.261.84l.01-.01Zm1.776 6.2c-.743-.21-1.476-.42-2.209-.62-.211-.87-.431-1.7-.652-2.5.722.18 1.445.38 2.158.57.241.86.472 1.71.693 2.55h.01Zm1.445 6.04c-.772-.23-1.545-.45-2.308-.67-.161-.82-.332-1.62-.502-2.4.763.21 1.516.42 2.258.63.201.82.382 1.63.552 2.45v-.01Zm1.275 6.71c-.813-.25-1.626-.49-2.419-.73-.161-1.07-.321-2.11-.502-3.13.793.23 1.586.45 2.359.69.201 1.07.391 2.13.562 3.18v-.01Zm.886 6.22c-.843-.27-1.686-.53-2.529-.78-.091-.92-.191-1.82-.302-2.71.834.25 1.667.5 2.48.75.13.93.251 1.84.351 2.75v-.01Zm-2.058 5.26c-.051-.9-.101-1.77-.171-2.64.873.26 1.737.52 2.58.78.09.9.16 1.8.221 2.67-.884-.28-1.767-.56-2.64-.82l.01.01Zm2.958 7.33c-.933-.3-1.857-.6-2.78-.89 0-1.04-.02-2.07-.04-3.08.913.27 1.806.55 2.7.83.05 1.07.09 2.12.12 3.14Zm.054 3.3c0 1.7-.03 3.34-.091 4.91l-2.971-1.12c.1-1.58.171-3.14.211-4.69.964.3 1.917.59 2.861.89l-.01.01Zm-45.012-9.77c1.094.13 2.188.26 3.262.4-.23 1.25-.441 2.5-.622 3.74l-3.393-.39c.23-1.21.482-2.46.753-3.75Zm4.498-5.6c-.21.9-.402 1.8-.592 2.7a196.83 196.83 0 0 0-3.183-.39c.211-.88.422-1.78.653-2.7 1.044.12 2.088.24 3.122.38v.01Zm1.392-5.71c-.211.81-.422 1.62-.623 2.43-1.024-.13-2.047-.26-3.051-.37.21-.8.431-1.62.672-2.44 1.004.12 2.008.25 3.002.38Zm1.608-5.71c-.24.81-.471 1.62-.712 2.45-.994-.14-1.968-.26-2.941-.38.24-.81.491-1.63.752-2.46.974.13 1.938.26 2.901.4v-.01Zm1.816-5.82c-.282.84-.553 1.7-.824 2.57-.954-.14-1.897-.27-2.84-.39.28-.84.572-1.7.873-2.56a208 208 0 0 1 2.78.38h.01Zm1.767-5.19c-.22.64-.451 1.29-.682 1.96-.914-.13-1.817-.26-2.71-.38.23-.65.481-1.3.732-1.95.894.12 1.777.24 2.66.37Zm1.918-5.22c-.25.64-.492 1.31-.753 2-.863-.13-1.716-.26-2.57-.37.262-.66.533-1.33.804-2l2.52.36v.01Zm1.627-4.16c-.12.3-.251.62-.382.95-.813-.12-1.616-.24-2.419-.35.12-.28.231-.55.362-.83.802.06 1.616.14 2.439.23Zm-2.954 59.88c-.03.33-.04.5-.04.5s-.883-.41.04-.5Zm2.17-20.44c1.445.26 2.87.53 4.296.81-.17 1.31-.341 2.58-.512 3.81-1.425-.3-2.84-.58-4.246-.84.14-1.22.3-2.48.462-3.78Zm.804-6.08c1.445.25 2.87.52 4.286.8-.12.93-.24 1.86-.361 2.78-1.446-.29-2.881-.56-4.297-.82.12-.91.241-1.83.372-2.76Zm.81-5.75c1.405.25 2.8.52 4.186.79l-.301 2.44c-1.426-.28-2.851-.55-4.246-.79.12-.81.23-1.62.351-2.44h.01Zm.905-5.77c1.345.25 2.69.5 4.005.78l-.3 2.48c-1.376-.28-2.751-.54-4.096-.78l.391-2.47v-.01Zm1.014-5.96c1.255.23 2.49.47 3.724.71l-.331 2.7c-1.305-.27-2.59-.52-3.865-.75.15-.89.311-1.77.472-2.66Zm.984-5.31c1.134.2 2.269.41 3.383.64-.08.67-.16 1.36-.241 2.07-1.185-.24-2.36-.47-3.524-.68.12-.67.251-1.35.392-2.02l-.01-.01Zm1.093-5.36c.984.17 1.968.35 2.941.54-.08.68-.16 1.39-.25 2.13-1.045-.21-2.089-.41-3.123-.6.14-.7.291-1.39.442-2.08l-.01.01Zm3.475-4.04c-.05.39-.09.81-.15 1.26-.874-.17-1.737-.33-2.6-.49.09-.4.18-.8.28-1.19.834.13 1.657.27 2.47.41v.01Z" clip-rule="evenodd"/>
  <path fill="#878B8B" fill-rule="evenodd" d="M69.686 43.52c-1.134-.14-2.269-.27-3.393-.39l3.393.39Zm9.032 18.33c-.03.33-.04.5-.04.5s-.883-.41.04-.5Zm33.249-7.78c-.993-.38-1.987-.76-2.971-1.12l2.971 1.12Z" clip-rule="evenodd"/>
  <path fill="#CCCBCB" fill-rule="evenodd" d="M150.723 81.33C94.529 54.01 46.115 44.31 0 57.34a71.259 71.259 0 0 1 2.218-9.77c9.758-2.71 76.541-18.76 148.756 25.81.03 2.58-.05 5.23-.251 7.95Z" clip-rule="evenodd"/>
  <path fill="#fff" fill-rule="evenodd" d="M13.572 45.09c-.342 3.04-.542 6.12-.663 9.21-3.242.62-6.475 1.34-9.697 2.18-.502.13-1.014.26-1.506.4-.572.15-1.134.31-1.706.47a71.259 71.259 0 0 1 2.218-9.77c1.847-.52 5.752-1.51 11.364-2.48l-.01-.01Z" clip-rule="evenodd"/>
  <path fill="#F2F2F2" fill-rule="evenodd" d="M13.572 45.09c-.342 3.04-.542 6.12-.663 9.21-3.252.61-6.475 1.34-9.697 2.18-.502.13-1.004.26-1.506.4-.572.15-1.134.31-1.706.47a71.259 71.259 0 0 1 2.218-9.77c1.847-.52 5.752-1.51 11.364-2.48l-.01-.01Z" clip-rule="evenodd"/>
  <path fill="#727576" fill-rule="evenodd" d="M150.724 81.33c-2.058-1-4.095-1.97-6.133-2.92-.733-.35-1.456-.68-2.178-1.01-2.098-.97-4.186-1.91-6.274-2.83-.823-.36-1.657-.73-2.48-1.08-.933-.41-1.867-.8-2.79-1.2-.03-.02-.071-.03-.101-.04-.893-.38-1.786-.75-2.67-1.12h-.02c.241-3.29.321-6.6.271-9.91a215.956 215.956 0 0 1 22.626 12.17c.03 2.58-.05 5.23-.251 7.95v-.01Z" clip-rule="evenodd"/>
  <path fill="#727576" fill-rule="evenodd" d="M150.724 81.33c-2.058-1-4.095-1.97-6.133-2.92-.733-.35-1.456-.68-2.178-1.01-2.098-.97-4.186-1.91-6.274-2.83-.823-.36-1.657-.73-2.48-1.08-.933-.41-1.867-.8-2.79-1.2-.03-.02-.071-.03-.101-.04-.893-.38-1.786-.75-2.67-1.12h-.02c.241-3.29.321-6.6.271-9.91a215.956 215.956 0 0 1 22.626 12.17c.03 2.58-.05 5.23-.251 7.95v-.01Z" clip-rule="evenodd"/>
</svg>
