<svg xmlns="http://www.w3.org/2000/svg" width="167" height="137" fill="none" viewBox="0 0 167 137">
  <g clip-path="url(#a)">
    <path fill="#19A5A7" d="M127.824 11.086s-.404-3.237 0-3.642c.405-.405 4.706-2.694 7.39-2.289 2.683.406 8.06 2.828 9.269 4.444 1.208 1.616 4.03 3.633 2.822 5.116-1.209 1.482-2.299 4.19-5.382 3.642l-11.815-2.026-2.284-5.245Z"/>
    <path fill="#1EAFB2" d="M23.04 36.46s10.605-22.957 14.369-24.573C41.173 10.27 58.231 1.345 67.367.444c0 0 20.689-.357 23.915 0 3.226.358 39.455 10.813 45.365 14.046 5.91 3.232 18.452 16.115 19.885 21.97 1.432 5.854 9.854 21.645 10.211 40.854.357 19.21 1.256 30.538-10.012 30.252L23.039 36.46Z"/>
    <path fill="#0E94AD" d="M147.307 14.714c.333-.41.352-.863.191-1.335a5.523 5.523 0 0 1-.105-.257c-.533-1.116-1.965-2.332-2.798-3.385a54.065 54.065 0 0 0-.952-.935c-.009-.01-.019-.014-.028-.024-.01.053-.604 3.657-.695 5.264-.09 1.616-6.271.448-6.271.448-.024 1.192 1.023 2.37 2.279 3.352l2.998.515c3.083.548 4.173-2.165 5.381-3.643Zm-1.323 78.659s12.876-18.81 12.876-26.767c0-7.957-1.266-26.866-1.266-26.866s8.97 18.551 9.327 39.549c.357 20.997-.138 30.532-10.188 28.277 0 0-9.473-2.984-10.749-14.193Z"/>
    <path fill="#47B7C1" d="M95.985 63.956s16.392-32.144 18.809-33.493c2.417-1.35 21.855-15.977 21.855-15.977L119.371 8.35s-47.839-.773-51.87 1.378c-4.03 2.15-23.09 28.478-23.09 28.478l4.82 24.291 46.754 1.454v.005Z"/>
    <path fill="#80C6CB" d="M75.385 18.981c6.27-2.331 24.362-8.077 48.876-9.068C111.414 5.74 93.504.692 91.281.444c-3.225-.357-23.914 0-23.914 0-9.136.896-26.199 9.826-29.958 11.443-3.764 1.616-14.37 24.573-14.37 24.573l26.194 5.134c6.876-6.808 17.092-19.242 26.152-22.618v.005Z"/>
    <path fill="#0E94AD" d="m129.571 92.39.357 2.337-6.177 13.164-1.251.677 7.071-16.177Z"/>
    <path fill="#19A5A7" d="M134.14 65.2s4.011-9.883 3.483-11.266c-.529-1.383-.976-39.439-.976-39.439s17.016 12.349 19.885 21.97c2.869 9.621 4.749 30.146 4.749 30.146l-11.097 31.596-22.539-23.31 6.495-9.692V65.2Z"/>
    <path fill="#0E94AD" d="m49.23 41.595 48.083 18.217 25.004 17.23 20.422 21.16 11.154 4.72 5.933-20.763 3.693-16.153s-26.423-.267-29.378-.806c-2.955-.539-32.242-13.464-32.242-13.464L49.235 41.595h-.005Z"/>
    <path fill="#1EAFB2" d="M6.982 78.121S-.745 72.858.059 66.607c.804-6.25 11.824-29.14 19.613-29.407 0 0 6.181-2.422 20.422 0 14.242 2.421 65.831 25.04 84.102 37.155 18.272 12.114 32.628 31.276 34.755 36.668 3.535 8.968-4.625 18.456-7.357 21.374-4.03 4.31-9.93 3.881-9.93 3.881l5.91-7.271s-28.212-28.539-69.594-44.426C37.41 69.01 23.702 65.391 9.999 66.945L6.977 78.121h.005Z"/>
    <path fill="#0E94AD" d="M150.711 130.566c3.493-2.289-20.151-22.466-20.151-22.466-17.33-14.522-95.522-43.096-108.15-43.768-12.628-.672-14.241-.806-17.734 2.827-3.493 3.633 3.283 7.724 3.283 7.724l2.089-7.724c13.704-1.554 27.412 2.06 67.981 17.636 41.378 15.886 69.594 44.426 69.594 44.426l-2.598 3.195s2.194.438 5.686-1.85Z"/>
    <path fill="#E6D2C3" d="M86.45 92.39s1.745-.267 2.954-1.75 10.078-18.384 10.078-18.384l28.402 15.857-8.246 15.987s-.39 2.407-6.024 1.945c-2.812-.229-27.165-13.655-27.165-13.655Z"/>
    <path fill="#DFC5B3" d="M86.446 92.39s1.746-.267 2.955-1.75l30.229 13.465s-.39 2.407-6.024 1.945c-2.812-.229-27.165-13.655-27.165-13.655l.005-.005Z"/>
    <path fill="#C39A7F" d="m89.93 89.854-2.293-1.035s-3.145 2.9-1.194 3.571c0 0 1.894.182 3.487-2.536Z"/>
    <path fill="#80C6CB" d="M.691 63.956s5.192-3.877 8.237-4.053c3.045-.176 12.362.896 12.362.896S30.426 39.44 31.5 38.901c1.075-.539 3.788-2.384 3.788-2.384s-10.92-1.31-17.91 1.335C7.496 41.595.69 63.956.69 63.956Z"/>
    <path fill="#6FC1C7" d="M138.521 6.123s-4.92 1.907-5.096 3.16c-.176 1.255-.728 3.8-.728 3.8l-4.873-2.002s-.404-2.832 0-3.642c.405-.81 4.502-2.25 6.786-2.337 2.283-.085 3.911 1.016 3.911 1.016v.005Z"/>
  </g>
  <defs>
    <clipPath id="a">
      <path fill="#fff" d="M0 .287h167v136H0z"/>
    </clipPath>
  </defs>
</svg>
