<svg xmlns="http://www.w3.org/2000/svg" width="182" height="82" fill="none" viewBox="0 0 182 82">
  <path fill="#DD565B" d="M17.268 28.439c8.184-3.867 20.259-3.701 25.101-3.56C54.49 16.6 70.102 11.763 88.117 12.01c31.07.426 52.041 11.492 63.629 27.117-1.506 1.644-11.786 3.045-25.576 3.346h.153c.177.042.268.062.268.062 6.324 9.27 8.366 18.191 8.77 24.994 12.239-1.582 21.801-3.965 25.967-6.778 7.813-5.279 12.186-10.43 14.661-14.408-9.319-8.302-24.157-7.215-24.157-7.215-6.216-8.381-15.135-15.449-26.862-20.27.672-7.781 8.444-9.086 9.207-9.198-11.74-3.845-25.089-6.72-39.366-8.228C52.224-3.066 15.156 6.042 3.668 22.37c.029.19 1.015 6.34 6.064 14.18 1.844-3.375 4.327-6.6 7.532-8.112h.004Z"/>
  <path fill="#DD565B" d="M82.064 39.632c-11.938-2.073-21.896-5.63-29.333-9.087-1.085.219-16.17 3.391-19.314 11.987-1.6 4.374-2.434 9.314-2.17 13.874a82.64 82.64 0 0 0 8.704 4.342c10.268 4.403 24.714 6.972 40.125 8.128 2.784-13.965 2.017-28.67 1.988-29.244Z"/>
  <path fill="#F2E1D6" d="m52.457 18.938.623-.09c8.795-3.917 18.852-6.287 29.899-6.709a.755.755 0 0 0 .181-.314c.652-2.73-3.172-10.384-3.671-11.367-16.183-.52-31.132.958-43.606 4.048 11.653 1.19 16.574 14.428 16.574 14.428v.004Zm.273 11.607.066-.012c-4.352-2.024-7.838-4.015-10.346-5.655h-.087c2.513 1.64 6.006 3.635 10.37 5.667h-.003Z"/>
  <path fill="#F2E1D6" d="M33.417 42.532C36.56 33.936 51.645 30.76 52.73 30.545c-4.364-2.028-7.858-4.023-10.37-5.667h.004c-4.843-.14-16.917-.302-25.101 3.56-3.205 1.512-5.689 4.738-7.533 8.113 4.039 6.27 10.68 13.618 21.513 19.855-.264-4.56.569-9.496 2.17-13.874h.004Zm52.721-2.276a127.693 127.693 0 0 1-4.076-.64v.017c1.308.227 2.636.438 3.99.628 13.732 1.92 28.227 2.478 40.12 2.218-11.876.256-26.335-.302-40.03-2.218l-.004-.005Z"/>
  <path fill="#F2E1D6" d="M135.363 67.526c-.405-6.803-2.442-15.725-8.77-24.994 0 0-.091-.02-.268-.062h-.153c-11.893.26-26.388-.297-40.12-2.218-1.354-.19-2.682-.4-3.99-.628.034.574.797 15.279-1.988 29.244 18.963 1.425 39.382.71 55.289-1.346v.004Zm43.668-27.795c.013-.037.025-.082.037-.12-5.836-11.714-22.378-22.614-44.818-29.963 0 0-.029 0-.066.009 22.502 7.373 39.068 18.319 44.852 30.07l-.005.004Z"/>
  <path fill="#F2E1D6" d="M124.973 18.856c12.144 5.832 20.646 11.883 26.862 20.268 0 0 14.838-1.09 24.157 7.216 1.893-3.044 2.677-5.398 3.04-6.609-5.779-11.75-22.35-22.697-44.852-30.07-.763.112-8.535 1.417-9.207 9.199v-.004Z"/>
  <path fill="#B13B32" d="M172.542 43.503c-1.122 4.643-3.692 9.203-6.815 12.334-3.123 3.13-14.017 7.802-15.527 8.294-4.822 1.739-7.652 2.127-12.948 3.106a44.2 44.2 0 0 1-1.894.29c.429 7.248-.998 12.093-1.085 12.382 25.432-4.019 43.565-13.92 46.56-27.216-.916-1.854-3.84-6.332-8.291-9.19Z"/>
  <path fill="#E4C5AE" d="m116.586 81.677-1.406.062a78.9 78.9 0 0 0 1.406-.062Zm-2.502.099c-.722.025-1.444.046-2.174.058a308.83 308.83 0 0 0 2.174-.058Zm-2.559.071c-.936.016-1.881.029-2.83.033.949 0 1.894-.013 2.83-.033Zm-3.159.033c-.945 0-1.889 0-2.846-.013.952.013 1.901.017 2.846.013Z"/>
  <path fill="#B13B32" d="M5.597 47.25c.297-1.178 1.617-6.077 4.137-10.699-5.049-7.84-6.035-13.99-6.063-14.18C1.67 25.213.44 28.274.098 31.524-.47 36.92 1.451 42.322 5.415 47.481c.062-.079.116-.157.182-.232Zm80.95 33.485a211.979 211.979 0 0 1-9.5-1.222c1.308-3.313 2.29-6.948 3.024-10.637-15.412-1.156-29.853-3.721-40.125-8.129a82.619 82.619 0 0 1-8.704-4.34c.277 4.733 1.737 9.066 4.76 11.94-.396-.165-.783-.334-1.175-.503l.037.058C49.161 74.06 66.944 78.67 86.452 80.73a205.468 205.468 0 0 0 19.05 1.128 205.01 205.01 0 0 1-18.96-1.132l.005.008Z"/>
  <path fill="#E4C5AE" d="M9.735 36.55c-2.888 5.288-4.2 10.947-4.204 10.963 6.002 7.795 16.674 15.031 30.48 20.839-3.027-2.88-4.484-7.208-4.76-11.942C20.42 50.173 13.777 42.825 9.74 36.555l-.004-.004ZM134.27 79.925s0-.004.004-.012a156.652 156.652 0 0 1-12.09 1.417c4.178-.326 8.217-.797 12.086-1.404Zm-12.499 1.435Zm-6.592.38c-.363.012-.73.028-1.097.04.367-.012.73-.024 1.097-.04Zm-3.272.098c-.128 0-.255.008-.387.008.127 0 .255-.008.387-.008Z"/>
  <path fill="#E4C5AE" d="M135.363 67.526c-15.906 2.057-36.326 2.771-55.288 1.346-.735 3.689-1.717 7.324-3.024 10.636 3.114.475 6.282.884 9.5 1.223a206.45 206.45 0 0 0 18.959 1.132h.012c.953.012 1.902.016 2.846.012h.33c.949 0 1.894-.012 2.83-.033.128 0 .256-.008.388-.008.726-.017 1.452-.037 2.174-.058.367-.012.73-.025 1.097-.041.47-.017.941-.042 1.407-.062 1.749-.083 3.477-.186 5.185-.318.14-.013.276-.021.417-.033 4.182-.33 8.221-.806 12.09-1.417.087-.29 1.518-5.134 1.085-12.383l-.008.004Zm43.668-27.794c1.766 3.59 2.529 7.253 2.146 10.913a18.138 18.138 0 0 1-.339 2.053c.021.041.042.078.058.115.165-.714.293-1.437.367-2.168.388-3.701-.392-7.402-2.199-11.029-.012.037-.024.079-.037.116h.004Z"/>
  <path fill="#E4C5AE" d="M171.941 30.174c.009.111.025.264.046.434.676 2.383 1.043 4.861 1.155 7.306.086 1.905-.161 3.891-.66 5.858 5.309 3.226 7.363 6.918 8.353 8.922.153-.674.248-1.364.338-2.053.821-6.237-1.732-13.26-9.232-20.467Z"/>
  <path fill="#FDF6F3" d="M28.62 31.714c-1.612-1.483-2.961-3.234-3.597-5.444-1.027-3.565 1.787-5.68 4.406-7.154 7.627-4.3 16.85-6.209 25.357-7.87 4.632-.904 9.302-1.643 14.004-2.06 3.936-.347 3.973-6.547 0-6.196-10.246.905-20.559 2.883-30.397 5.902-7.883 2.421-21.133 6.68-19.677 17.307.512 3.73 2.772 7.365 5.528 9.897 2.929 2.693 7.318-1.677 4.377-4.382Z"/>
  <path fill="#E89BAA" d="M29.429 19.129c5.854-3.3 12.648-5.192 19.334-6.642-1.336-1.768-3.052-3.594-5.18-5.064-1.742.462-3.474.958-5.19 1.483-7.883 2.42-21.133 6.679-19.677 17.307.07.5.17 1 .301 1.495 1.873-.719 3.894-1.264 5.949-1.673-.825-3.412 1.905-5.465 4.463-6.906Z"/>
  <path fill="#B13B32" d="M42.367 24.874c5.791-3.957 10.09-5.936 10.09-5.936s-.475-1.276-1.481-3.073c-8.147 3.09-13.39 7.142-12.71 8.96 1.634-.009 3.04.02 4.1.053v-.004Z"/>
  <path fill="#E4C5AE" d="M53.018 18.83a74.572 74.572 0 0 1 8.94-3.3 80.797 80.797 0 0 1 11.66-2.602l1.7-.946c-8.984-.574-17.688 1.314-24.408 3.862 1.003 1.797 1.481 3.074 1.481 3.074s.223-.034.623-.091l.004.004Zm-10.711 6.028c-1.06-.03-2.462-.062-4.1-.054 1.242 3.313 8.848 2.887 8.848 2.887a74.464 74.464 0 0 1-4.756-2.83h.004l.004-.003Z"/>
  <path fill="#B13B32" d="M153.979 39.128c-1.44-.02-2.306.041-2.306.041h-.091c-.54.591-2.219 1.153-4.785 1.64 4.933.232 6.905-.247 7.177-1.68h.005Z"/>
  <path fill="#E4C5AE" d="M151.642 39.125s.866-.062 2.306-.042c.243-1.272-.231-3.709-2.397-6.22-8.32-9.64-24.239-12.904-24.239-12.904v.008c10.486 4.767 18.572 11.396 24.326 19.162l.004-.004Z"/>
</svg>
