<svg xmlns="http://www.w3.org/2000/svg" width="157" height="113" fill="none" viewBox="0 0 157 113">
  <path fill="#E4C5AE" d="M15.68 40.63c3.824-4.907 15.852-20.607 42.657-24.003 9.47-1.197 18.782-.95 32.147 1.132 52.413 8.162 59.566 42.057 59.566 42.057l.557 32.76S10.487 47.292 15.68 40.63Z"/>
  <path fill="#CC8250" d="M98.745 53.285c-10.832-.814-19.136-10.455-24.391-18.732-4.988-7.856-7.021-13.866-15.997-14.374-9.616-.546-17.235 5.307-23.744 11.007C27.473 37.44 22.1 44.074 22.052 44.14l-3.123-2.342c.813-1.087 20.102-26.576 39.733-25.46 10.032.565 15.25 8.79 20.295 16.736 5.202 8.19 10.115 15.932 19.89 16.357 19.773.86 38.455-10.037 38.661-10.16l2.537 2.634c-.829.5-19.148 13.044-41.304 11.38h.004ZM93.259 65.07c-10.853-.47-16.29-9.034-21.546-17.312-4.987-7.856-9.644-14.213-18.62-14.717-18.534-1.037-35.938 24.73-36.127 24.99l-3.54-2.656c.202-.268 5.037-6.696 12.334-13.094 9.9-8.674 18.942-14.585 27.217-14.114 10.033.566 16.85 8.74 21.896 16.692 5.202 8.19 9.282 15.361 19.058 15.787 19.825.875 50.59-12.235 50.85-12.359l2.396 3.891c-.066.033-12.833 6.63-21.916 9.69-7.867 2.652-31.322 3.23-32.006 3.201l.004.001Z"/>
  <path fill="#CC8250" d="M86.941 77.192c-10.79-1.254-16.29-9.032-21.545-17.31-4.987-7.856-9.698-15.28-18.67-15.783C28.204 43.07 8.953 68.478 8.76 68.739l-1.65-1.24c.202-.27 5.036-6.696 12.334-13.094 9.9-8.678 21.22-16.333 29.498-15.861 10.032.566 15.774 10.1 20.82 18.05 5.201 8.19 7.49 18.113 17.267 18.538 19.866.858 61.826-18.03 62.222-18.19l.797 2.877c-1.589.645-42.641 19.757-63.11 17.379l.004-.005Zm49.509-36.628c-17.981-15.341-43.758-22.61-55.738-23.43-12.998-.884-21.776 1.215-21.862 1.235l-.49-2.006c.366-.09 9.111-2.194 22.406-1.297 12.256.825 43.569 9.15 56.745 24.2l-1.061 1.294v.003Zm-7.648 5.34c-4.57-3.11-26.606-15.056-34.679-16.527-5.808-1.06-15.84-1.69-22.68-1.56l-1.538-4.264c6.967-.123 22.91 1.534 28.842 2.616 8.242 1.503 29.705 14.741 34.366 17.914l-4.311 1.822Z"/>
  <path fill="#835B2E" d="m108.68 48.068 17.718-34.329 6.789 3.78-20.732 31.36-.4.09a3.741 3.741 0 0 1-3.375-.9Z"/>
  <path fill="#684322" fill-rule="evenodd" d="m110.512 48.993 18.748-32.458 3.804 1.19-20.613 31.153s-1.069.4-1.943.115" clip-rule="evenodd"/>
  <path fill="#E4C5AE" d="M124.351 24.995c-1.593-.925-2.645-2.078-2.356-2.582l-1.25 2.371c-.276.48.735 1.586 2.257 2.47 1.522.884 2.986 1.215 3.263.735l1.493-2.23c-.289.5-1.815.157-3.407-.764Z"/>
  <path fill="#966F48" d="M133.068 17.719c.338-.584-.894-1.932-2.753-3.011-1.859-1.08-3.639-1.48-3.978-.897-.339.583.895 1.933 2.753 3.012s3.639 1.48 3.978.896Z"/>
  <path fill="#E4C5AE" d="M126.619 21.083c-1.691-.983-2.862-2.21-2.553-2.74l-1.275 2.52c-.297.509.78 1.686 2.397 2.628 1.617.942 3.23 1.318 3.523.81l1.596-2.413c-.309.533-1.996.182-3.688-.8v-.005Z"/>
  <path fill="#835B2E" d="m113.496 52.314 26.388-31.029 4.423 5.33-27.143 27.38-.5-.045a4.718 4.718 0 0 1-3.036-1.49l-.132-.146Z"/>
  <path fill="#684322" fill-rule="evenodd" d="m115.035 53.495 27.721-28.748 1.551 1.867-27.143 27.381s-1.535.112-2.129-.5Z" clip-rule="evenodd"/>
  <path fill="#966F48" d="M144.2 26.724c.529-.42-.01-1.98-1.202-3.485s-2.587-2.384-3.115-1.964c-.528.42.01 1.98 1.202 3.484s2.587 2.384 3.115 1.965Z"/>
  <path fill="#E4C5AE" d="M134.519 31.992c-1.106-1.173-1.671-2.52-1.3-2.867l-1.534 1.81c-.355.334.074 1.499 1.134 2.622 1.06 1.123 2.723 1.876 3.073 1.541l1.663-1.677c-.367.347-1.931-.255-3.036-1.429Zm2.731-2.838c-1.193-1.264-1.881-2.61-1.485-2.986l-1.659 1.904c-.379.36.169 1.553 1.312 2.767s2.702 1.991 3.081 1.632l1.688-1.702c-.396.376-1.749-.35-2.942-1.619l.005.004Z"/>
  <path fill="#6A7F4A" fill-rule="evenodd" d="M18.497 36.065s.458-.4-1.245-3.148c-1.703-2.747-7.76-7.575-3.602-10.66 4.158-3.085 6.69-.69 8.143-2.198 1.452-1.508-2.85-7.167 0-9.43s7-2.854 10.734-.603c0 0 1.237.673 2.02-1.462C35.33 6.43 35.719-.499 40.315.36c4.596.86 5.618 8.546 4.216 13.486 0 0-.08.348.627 1.967.706 1.62 3.819 4.246 1.283 6.951-2.536 2.705-10.994 2.495-10.528 5.172.466 2.677 5.68 4.46 3.577 8.538-2.103 4.078-24.97 5.551-26.421 8.38l5.432-8.79-.004.001Z" clip-rule="evenodd"/>
  <path fill="#6A7F4A" d="M23.839 38.42c-.03 0-.053-.009-.082-.013l.115-.133c-.008.025-.02.05-.03.075-.008.025-.007.045-.007.07h.004Zm-2.112 2.21.132-.146.19.033-.326.108.004.004Z"/>
  <path fill="#95AA71" d="M29.22 37.808c-1.023.124-1.98.462-2.962.76-.953.29-1.94.495-2.92.305l.42-.466c.029 0 .053.008.082.012 0-.02 0-.045.009-.07l.029-.075c.578-.642 1.15-1.29 1.716-1.945.882-.459 1.84-.454 2.796-.31l7.1.896 3.522.153c-.028.265-1.324.888-1.344.888l-8.444-.153-.004.005Zm1.773-8.1 1.436-1.946c.198.058.387.157.565.26.87.513 2.054.893 3.08.48.117.267.263.52.434.756-.03.004-3.91.892-5.52.442l.005.008Zm10.758-9.55a44.13 44.13 0 0 0-5.358 1.76c-.07.03-.128.024-.173 0l1.196-2.247c.866-.29 1.869-.389 2.623-.5 1.976-.293 4.452-.768 6.357-1.388.087.194.318.475.396.665-1.328.838-3.53 1.318-5.04 1.706l-.001.004Zm-3.745-4.696-.013-.054c0 .016 0 .033-.004.05l-1.01-3.87a4.376 4.376 0 0 0-.974-1.818l-1.11-1.202c-.09.22-.185.417-.284.595.742 1.164 1.406 2.354 1.712 3.713l.784 3.986.91-1.388c0-.008-.007-.012-.011-.02v.008Zm2.718-.392c1.275-.33 2.52-.77 3.762-1.22l.112.604c-.97.483-1.836 1.156-2.772 1.701-1.044.608-2.19 1-3.38 1.215l.64-1.826c.31-.223 1.217-.36 1.638-.47v-.004Zm-8.143-2c.842.83 1.522 1.826 2.248 2.747l1.613 2.044-.722 1.054-.585-.822-1.048-1.4-2.08-2.764c-.33-.413-.692-.814-1.117-1.14-.42-.326-.9-.582-1.357-.863-1.003-.612-1.836-1.388-2.45-2.363a.223.223 0 0 1 .008-.256l-.004-.004.713-.02c.615.64 1.279 1.234 1.993 1.775.907.686 1.967 1.21 2.776 2.012h.012Zm-4.974 12.64c.622.487 1.394.982 1.823 1.664l-1.394 1.714a9.708 9.708 0 0 0-1.048-2.239c-.565-.888-1.28-1.635-2.054-2.354a12.347 12.347 0 0 1-1.902-2.222c-.371-.554-1.13-1.45-1.572-1.946.21-.12.388-.297.475-.466 1.192 1.053 2.532 2.68 3.584 3.858.64.714 1.32 1.396 2.083 1.99h.005v.001Zm-9.65 1.573 1.779 6.993.788 3.094c-.368.368-.739.731-1.114 1.09l-1.345-6.6-1.501-6.906c-.301-1.124-.966-2.549-1.423-3.623.185-.103.51-.219.684-.297 1.028 1.821 1.626 4.242 2.133 6.245v.004Z"/>
  <path fill="#E4C5AE" d="m38.24 15.148-1.13 1.722-.67.992-.721 1.053-.7 1.008-1.3 1.817a146.214 146.214 0 0 1-5.686 7.348 123.416 123.416 0 0 1-4.021 4.635l-1.044 1.127a100.184 100.184 0 0 1-5.099 5.056 73.404 73.404 0 0 1-5.724 4.775l2.83 2.813 2.61-2.565a192.017 192.017 0 0 0 4.137-4.304l.133-.145.424-.458c.495-.537.986-1.077 1.474-1.62l.114-.132 1.716-1.945a142.12 142.12 0 0 0 3.247-3.87l2.162-2.76 1.436-1.945a77.459 77.459 0 0 0 2.4-3.544c.481-.755.945-1.522 1.39-2.3l1.196-2.248 1.032-2.305.651-1.87c.152-.513-.57-.81-.861-.352l.004.017Z"/>
  <path fill="#D23740" d="M69.511 74.855c38.904 7.426 69.21 8.273 86.247 2.5l.639-10.092c0-4.255-6.352-7.452-6.352-7.452v4.461c-7.285 6.75-45.12 2.673-75.489-2.239-30.369-4.912-48.565-17.1-53.692-19.785-2.624-1.375-3.18-2.96-3.102-4.184.078-1.223-3.057-1.128-3.527-.054-1.134 2.615-2.88 6.952-4.793 11.975 2.5 1.896 5.795 4.18 9.908 6.617 9.86 5.84 26.566 13.742 50.161 18.25v.003Zm85.471 12.284.434-5.349c-7.652 2.292-17.511 3.445-29.264 3.445-15.947 0-35.36-2.107-57.412-6.316-24.28-4.634-41.499-12.813-51.663-18.856a110.074 110.074 0 0 1-9.145-6.039c-.54 1.454-1.072 2.91-1.596 4.37 7.581 5.824 28.153 19.306 63.18 25.994 38.317 7.315 68.298 8.244 85.471 2.755l-.005-.004ZM68.74 88.44C34.134 81.835 13.521 68.997 4.875 62.513 1.072 73.43-.793 78.514.325 80.303c1.246 1.987 4.666 3.936 4.666 3.936 57.054 31.706 125.79 29.81 141.164 27.068 6.117-1.091 7.202-4.924 7.202-4.924l1.262-14.833c-7.536 2.136-17.123 3.206-28.467 3.206-15.947 0-35.356-2.107-57.408-6.316h-.004Z"/>
  <path fill="#B3323B" d="M153.352 102.196s-1.089 3.833-7.202 4.923c-15.374 2.743-84.11 4.635-141.164-27.067 0 0-3.3-1.884-4.596-3.837-.482 2.044-.532 3.35-.07 4.089 1.246 1.987 4.666 3.936 4.666 3.936 57.053 31.706 125.79 29.81 141.164 27.068 6.117-1.091 7.202-4.924 7.202-4.924l1.262-14.833-.359.099-.903 10.546Z"/>
  <path fill="#E4C5AE" d="M68.74 78.912c22.052 4.209 41.465 6.314 57.412 6.314 11.753 0 21.612-1.151 29.264-3.444l.346-4.436c-17.036 5.778-47.347 4.927-86.247-2.5-23.59-4.502-40.298-12.408-50.16-18.248-4.113-2.437-7.405-4.721-9.91-6.617a506.712 506.712 0 0 0-1.513 4.032c2.948 2.16 6 4.176 9.145 6.038 10.17 6.043 27.382 14.221 51.663 18.856v.005Zm.771 5.472c-35.026-6.686-55.598-20.17-63.18-25.993a410.71 410.71 0 0 0-1.46 4.123c8.646 6.488 29.26 19.321 63.864 25.926 22.053 4.21 41.466 6.317 57.409 6.317 11.344 0 20.931-1.07 28.467-3.207l.363-4.415c-17.172 5.493-47.153 4.56-85.47-2.755l.007.005Z"/>
  <path fill="#518D57" d="M62.04 31.703c-.84-2.264-2.178-3.858-2.982-3.556l-4.546 1.697c-.804.302-.77 2.38.07 4.643.841 2.263 2.178 3.858 2.983 3.556l4.546-1.697c.804-.302.771-2.38-.07-4.643Z"/>
  <path fill="#286138" d="M57.58 37.866c.76-.283.717-2.284-.096-4.47s-2.087-3.725-2.847-3.442c-.76.283-.718 2.285.095 4.47.813 2.185 2.088 3.726 2.848 3.442Z"/>
  <path fill="#61AD62" d="m56.742 31.777 4.616-1.582.681 1.508-4.546 1.697-.75-1.623Z"/>
  <path fill="#428348" d="M93.698 32.36c-1.856-.677-3.692-.635-4.096.1l-2.29 4.155 6.725 2.462 2.288-4.155c.404-.736-.77-1.88-2.627-2.561Z"/>
  <path fill="#286138" d="M94.004 38.866c.245-.743-1.026-1.832-2.842-2.432-1.815-.6-3.484-.485-3.73.258-.244.743 1.028 1.832 2.843 2.432 1.814.6 3.484.485 3.73-.258Z"/>
  <path fill="#61AD62" d="m89.977 36.13 2.405-4.138 1.32.368-2.29 4.155-1.435-.385Z"/>
  <path fill="#518D57" d="m74.085 55.416-4.069-3.097c-.718-.55-2.656.631-4.323 2.631-1.666 2-2.441 4.069-1.72 4.613l.706.537 3.064.67 1.094.19.269.032.239-.032c.671.15 1.043.367 1.737.466.4-.363.895-.933 1.282-1.395 1.67-2.003 2.441-4.07 1.72-4.614Z"/>
  <path fill="#286138" d="m68.807 61 .268.034c.288.103 1.093.223 1.806.355.41-.368.912-.942 1.312-1.42 1.61-1.93 2.364-3.917 1.683-4.433-.68-.516-2.537.624-4.15 2.557-.804.966-1.39 1.941-1.695 2.742l.771.166h.005Z"/>
  <path fill="#61AD62" d="m68.642 59.613-3.994-3.222 1.044-1.442 4.067 3.098-1.117 1.566Z"/>
  <path fill="#518D57" d="M95.888 44.3c-2.413-.978-4.558-1.213-4.785-.524l-1.287 3.883c-.227.686 1.547 2.036 3.96 3.011 2.413.98 4.558 1.215 4.785.525l1.287-3.883c.227-.686-1.547-2.037-3.96-3.012Z"/>
  <path fill="#286138" d="M98.422 51.092c.259-.633-1.415-1.92-3.74-2.875-2.325-.955-4.42-1.216-4.679-.582-.259.634 1.415 1.92 3.74 2.875 2.325.955 4.42 1.215 4.679.582Z"/>
  <path fill="#61AD62" d="m92.785 47.573 1.423-3.85 1.683.579-1.287 3.883-1.819-.612Z"/>
  <path fill="#6A7F4A" d="m30.239 36.333.025.058c.025-.037.05-.074.078-.11l-.053.036c-.017.012-.033.012-.05.02v-.004Zm-1.278 1.975.082-.124c-.02-.046-.045-.09-.066-.132 0 .086-.012.173-.016.26v-.004Z"/>
  <path fill="#D3AF97" d="M86.315 22.43c-2.207.822-2.421 5.725-.433 8.21a4.269 4.269 0 0 0 6.349.365l1.889-1.628s3.007 5.163 7.541 5.027c1.86-1.123-.104-3.676-.104-3.676s8.082 1.227 6.151-5.795"/>
  <path fill="#AB6B3E" d="m106.25 20.922.466.165c-.091-.235 1.138 1.512 1.209 2.916l-1.518-.235-.161-2.846h.004Z"/>
  <path fill="#AB6B3E" fill-rule="evenodd" d="M104.295 28.48s-5.952-.957-6.006 2.087c.017 0 3.758 1.516 4.01 1.578a4.28 4.28 0 0 0-.738-1.413s4.063.595 5.577-1.36l.086-.073-2.924-.814-.005-.004Z" clip-rule="evenodd"/>
  <path fill="#E384B0" d="M87.886 17.601s-1.51-4.622.487-5.262c1.996-.645 3.745 3.684 3.745 3.684s.768-.908 2.5-.933c1.732-.025 1.642 2.747 1.642 2.747s6.893-3.387 9.888 4.428c2.995 7.815-5.829 6.547-5.829 6.547s2.302 4.597-.623 5.18c-2.925.583-6.814-6.531-6.814-6.531s-5.334 5.626-7.628 2.846c-2.294-2.78-3.997-8.365-.177-9.79 0 0-5.082-.966-3.754-3.081 1.328-2.115 4.616-2.842 6.563.165Z"/>
  <path fill="#BF4965" d="M95.22 18.952c-4.574-1.454-8.497 2.846-3.312 6.096 1.638.983 3.898 1.413 5.338.9 2.025-.627 1.848-2.824.355-3.98-1.032-1.025-3.94-1.442-3.548.643.045.17.107.38.3.343.368-.07.806-1.082 1.705-.685.874.322 1.976 1.557 1.068 2.395-3.391 2.127-10.19-3.713-3.737-5.105.392-.149 2.108-.297 1.86-.582l-.028-.02v-.005Z"/>
  <path fill="#E58F9F" d="M9.824 86.858s-1.296-1.74-.19-4.073c1.106-2.334 13.138-34.796 13.138-34.796s.214-2.705 3.292-2.85l3.72 2.057s-2.69.17-3.065 1.958-13.414 36.312-13.414 36.312-.7 2.788.07 3.156l-3.552-1.764h.001Zm7.408 3.61s-1.465-1.722-.359-4.052c1.106-2.33 13.138-34.796 13.138-34.796s.215-2.705 3.292-2.85l8.135 3.908s-1.597.483-1.972 2.272c-.375 1.789-11.806 38.158-11.806 38.158s.478 1.978 1.25 2.346l-7.23-2.987a429.74 429.74 0 0 1-4.448-2Z"/>
  <path fill="#CD7185" d="m13.197 85.442.342-.904a194.177 194.177 0 0 1-3.923-1.98l-.09.204c-1.003 2.114-.034 3.738.156 4.023l3.098 1.569.293.145.185.09c-.754-.388-.061-3.147-.061-3.147Zm14.35 7.638.657-2.082a204.522 204.522 0 0 1-11.328-4.87l-.111.256c-1.07 2.259.264 3.94.35 4.044l.652.3 2.108.956 1.258.56c.025.014.05.022.079.034l1.068.459 6.22 2.56.294.116c-.76-.388-1.234-2.333-1.234-2.333h-.012Z"/>
  <path fill="#F6E3D5" d="m23.273 58.828-3.746-2.078-1.46 3.916 3.754 2.086 1.452-3.924Zm-6.885 6.336c-.496 1.33-.995 2.658-1.497 3.986l3.766 2.09 1.485-3.981-3.754-2.095Zm18.794 3.904 1.225-3.957a143.743 143.743 0 0 1-9.743-4.466l-1.452 3.892a148.831 148.831 0 0 0 9.966 4.535l.004-.004Zm-13.15 3.965a148.255 148.255 0 0 0 10.428 4.775l1.25-4.011a148.287 148.287 0 0 1-10.194-4.725l-1.485 3.957v.004Zm71.396-8.223s3.469-11.96 13.225-16.21c9.756-4.251 11.389-1.734 12.866 0 1.477 1.734 4.917 10.24 3.04 19.01 0 0-26.103-1.933-29.131-2.8Z"/>
  <path fill="#EFAE42" d="M117.495 64.88a8.356 8.356 0 0 1-.347 2.403l-16.455-1.543a8.429 8.429 0 0 1 8.378-9.298 8.43 8.43 0 0 1 8.424 8.434v.004Z"/>
  <path fill="#F8D181" d="M105.417 61.683c.186-.197.386-.38.598-.55l.103-.086.045-.037c-.157.124.029-.02.058-.041l.132-.095a8.425 8.425 0 0 1 1.035-.628c.083-.041.326-.21.421-.198l-.058.024.066-.024.26-.091.404-.12c.153-.037.347-.041.491-.1-.152.02-.173.02-.057.01.123-.014.247-.024.371-.03.176-.004.352 0 .528.013.54.037 1.056-.504 1.031-1.033-.025-.59-.454-.991-1.031-1.033-1.452-.103-2.904.4-4.121 1.17-.619.392-1.238.85-1.737 1.39-.367.398-.42 1.075 0 1.463.42.388 1.065.422 1.461 0v-.004Z"/>
</svg>
