<svg xmlns="http://www.w3.org/2000/svg" width="181" height="129" fill="none" viewBox="0 0 181 129">
  <g clip-path="url(#a)">
    <path fill="#C36477" d="M130.385 103.122s9.989 23.539 19.821 19.875c9.833-3.663 14.731-11.064-.534-26.405l-14.316-6.917-4.962 13.447h-.009Z"/>
    <path fill="#000" d="M91.979 30.258c5.359-6.15 5.447-14.137 1.15-18.652-4.56-4.776-12.56-4.135-13.54-4.046-1.612.152-5.029.472-7.601 2.585-4.276 3.517-4.798 10.824-1.083 17.988l21.067 2.124.007.001Z"/>
    <path fill="#F4F1ED" d="M135.999 88.288c-1.398-.155-16.43 1.185-18 1-57.468-6.665-68.31-8.27-79.614-14.161-3.363-1.753-4.988-3.646-11.385-8.34-1.5-15.5 4.136-33.621 31.5-44 3.548-2.014 7.454-1.526 10.919-2.846 4.506-.149 9.203-.138 14.068.078 22.002.964 41.038 5.746 56.382 11.32 0 0 .004.028.019.083l.013.062c.503 2.725 17.291 37.538-3.902 56.804Z"/>
    <path fill="#191919" d="M74.499 44.287c-7.5 12.21-17.36 14.867-22.577 14.428-4.246-.36-7.488-3.242-7.832-3.558-3.278-2.991-3.637-6.674-3.725-7.594 2.134-11.776 18.133-21.497 24.634-23.276 2.812-.641 10.328.338 12.193 1.78 2.363 1.826 1.513 5.668 1.208 7.038-.97 4.367-2.539 9.898-3.901 11.182Z"/>
    <path fill="#F4F1ED" d="M173.013 89.37c-.689.386-1.398.763-2.125 1.126-20.392-1.127-23.392-1.127-35.373-2.209-2.064-.208 4.03.453 0 0 21.193-19.265 4.886-54.079 4.383-56.804 3.54 14.42 14.256 22.223 22.19 20.583 3.453 6.434 7.114 15 9.275 25.48a93.11 93.11 0 0 1 1.65 11.823Z"/>
    <path fill="#000" d="M172.521 41.06c-1.112 5.511-5.764 9.567-10.433 11.006-7.513 2.313-15.174-2.012-19.049-7.517l-1.836-3.329c21.968 3.421 19.376-15.809 18.801-19.01 2.238.802 3.868 1.985 4.766 2.652.181.132.592.442 1.134.918 2.566 2.203 8.102 7.929 6.617 15.28Z"/>
    <path fill="#191919" d="m141.204 41.22 1.837 3.329a10.48 10.48 0 0 1-.316-.46c-3.452-5.249-3.078-10.828-2.857-12.75 3.651-6.294 9.712-10.234 15.932-9.97 1.568.072 2.97.394 4.199.84h.006c.576 3.202 3.168 22.432-18.801 19.011ZM76.271 69.515c-.085-3.005-6.16-4.857-7.889-5.386-2.984-.911-7.68-2.343-9.802.157-2.008 2.365-.878 7.251 2.013 9.56 2.295 1.834 5.099 1.547 6.608 1.397 4.03-.404 9.15-2.931 9.07-5.728Z"/>
    <path fill="#F4F1ED" d="M66.327 47.285A3.348 3.348 0 1 0 67 40.623a3.348 3.348 0 0 0-.672 6.662Z"/>
    <path fill="#191919" d="M78.5 43.287c1.256 11.944 1.82 18.057 5.307 23.429.4.616.915 1.158 1.587 1.681 3.354 2.63 7.695 2.72 8.157 2.726 4.44.045 7.207-2.41 7.899-3.024C110 58.287 114.5 41.287 98 31.365c-3-2.078-7.06-2.565-9.308-2.738-2.394-.188-5.151.767-6.677 2.738-1.865 2.406-4.03 6.997-3.515 11.922Z"/>
    <path fill="#F4F1ED" d="M85.386 52.54a3.348 3.348 0 1 0 .672-6.662 3.348 3.348 0 0 0-.672 6.662Z"/>
    <path fill="#191919" d="m172.998 89.287-7 4.5c-1.144.356-10.328 5.564-22.667 8.217-1.229.269-2.439.511-3.595.731l-.026.009c-2.582.491-4.946.852-6.906 1.019-12.04 1.029-100.935-5.13-122.435-20.193-21.5-15.063 16.418-19.09 16.418-19.09.51.264 1.005.521 1.508.774a191.228 191.228 0 0 0 19.708 8.653c14.583 5.446 26.363 7.279 99.495 15.38 1.998.224 7.5.5 11 .5 5.5 0 11.876-.77 14.5-.5Z"/>
    <ellipse cx="38.5" cy="58.286" fill="#C36477" rx="6.5" ry="4" transform="rotate(28.926 38.5 58.286)"/>
    <ellipse cx="104.182" cy="74.534" fill="#C36477" rx="6.5" ry="4" transform="rotate(-11.83 104.182 74.534)"/>
  </g>
  <defs>
    <clipPath id="a">
      <path fill="#fff" d="M11.235.287 180.278 17.33 169.04 128.784-.002 111.74z"/>
    </clipPath>
  </defs>
</svg>
