<svg xmlns="http://www.w3.org/2000/svg" width="171" height="108" fill="none" viewBox="0 0 171 108">
  <g clip-path="url(#a)">
    <path fill="#F8D181" d="M18.768 79.824S-12.04 90.24 5.584 100.206c17.625 9.967 66.73 11.616 119.188-7.993 52.462-19.61-106.008-12.389-106.008-12.389h.004Z"/>
    <path fill="#ECA241" d="M87.59 7.747s13.523 2.299 18.562 4.682c5.039 2.384 38.981 12.61 41.413 12.61 2.433 0 22.946 8.351 22.569 30.5-.377 22.147.005 25.218.005 25.218s-37.685 12.695-55.686 10.18c-18.002-2.511-26.858-83.19-26.858-83.19h-.005Z"/>
    <path fill="#0779B9" d="M87.593 7.747s21.286 8.05 24.223 25.685c2.937 17.631 5.152 45.62 2.635 57.504 0 0-52.462 4.22-85.618-2.685 0 0-8.814.396-10.073-8.427V42.633s-4.195-23.467 13.434-26.496c17.629-3.029 55.399-8.394 55.399-8.394v.005Z"/>
    <path fill="#F8D181" d="M147.565 25.044c-2.422 0-36.374-10.222-41.413-12.61-5.034-2.383-18.562-4.682-18.562-4.682s21.286 8.05 24.223 25.685c.377 2.257.74 4.683 1.084 7.226a220.11 220.11 0 0 0 49.328-6.35c-5.944-6.523-13.278-9.27-14.674-9.27h.014Z"/>
    <path fill="#2E97D3" d="M111.438 33.418c-2.941-17.63-24.223-25.686-24.223-25.686s-37.775 5.37-55.399 8.394c-5.1.872-8.366 3.462-10.445 6.698 10.841 4.814 36.52 14.607 70.817 17.202 6.486.495 13.278.726 20.339.617a221.781 221.781 0 0 0-1.084-7.225h-.005Z"/>
    <path fill="#ECA241" d="M63.949 79.89c11.953 0 21.64-8.332 21.64-18.605 0-10.274-9.691-18.606-21.64-18.606-11.95 0-21.64 8.332-21.64 18.605 0 10.274 9.686 18.606 21.64 18.606Z"/>
    <path fill="#DF8F3E" d="M78.433 47.582c1.838 2.737 2.899 5.911 2.899 9.298 0 10.278-9.686 18.606-21.64 18.606-5.572 0-10.648-1.809-14.485-4.786 3.743 5.563 10.733 9.313 18.741 9.313 11.954 0 21.64-8.333 21.64-18.606 0-5.488-2.762-10.42-7.155-13.825Z"/>
    <path fill="#010101" d="M49.356 55.755c-1.093.047-2.012.885-2.012 2.006v2.017c0 1.05.924 2.058 2.012 2.006 1.094-.047 2.013-.886 2.013-2.006V57.76c0-1.05-.924-2.058-2.013-2.006Zm26.168 1.003c-1.088.042-2.012.782-2.012 1.77v1.48c0 .928.924 1.818 2.012 1.77 1.09-.041 2.013-.781 2.013-1.77v-1.48c0-.927-.924-1.817-2.013-1.77ZM56.441 62.31c.35 1.536 1.348 3.143 2.776 3.943 1.26.707 2.777.726 4.092.17 1.032-.438 1.843-1.328 2.37-2.261.326-.575.614-1.21.755-1.851.146-.64-.188-1.328-.877-1.484-.631-.141-1.39.184-1.541.843-.024.113-.061.226-.094.34-.033.112-.076.23-.123.343-.023.07-.061.146-.085.212-.061.156.146-.301 0 0-.17.349-.372.66-.584.975-.137.203.155-.17.037-.047-.032.033-.06.07-.094.104-.07.08-.146.16-.226.235-.07.066-.15.132-.221.193-.147.137.047-.047.075-.051-.047.009-.15.099-.184.127a4.805 4.805 0 0 1-.264.15c-.311.156.175-.037-.099.043-.118.033-.236.07-.353.094-.02 0-.16.038-.165.028.014.024.301-.023-.015-.004a4.796 4.796 0 0 1-.367 0s-.165 0-.175-.015c.024.024.26.048.076.005-.118-.028-.24-.052-.363-.085-.052-.014-.1-.037-.15-.051-.11-.029.254.131.008 0-.099-.052-.207-.104-.301-.17-.047-.028-.085-.056-.127-.08-.104-.066-.095 0 .075.056-.165-.051-.368-.33-.48-.447a1.92 1.92 0 0 0-.095-.104c-.17-.183.132.189.038.052-.052-.075-.109-.15-.16-.226a6.966 6.966 0 0 1-.321-.532c-.052-.09-.09-.184-.137-.273-.137-.273.1.25-.01-.02-.056-.145-.112-.286-.16-.432a4.084 4.084 0 0 1-.117-.41c-.142-.617-.924-1.037-1.542-.843-.67.211-1.027.824-.877 1.483h.005v-.01Z"/>
    <path fill="#2E97D3" d="M34.135 28.232c-5.788-2.011-10.422-3.905-13.74-5.37-5.001 7.942-2.904 19.675-2.904 19.675V79.73c1.259 8.823 10.073 8.427 10.073 8.427 3.37.702 6.938 1.286 10.634 1.776l-4.059-61.696-.004-.005Z"/>
    <path fill="#53B5E0" d="M30.92 16.041c-5.166.886-8.456 3.529-10.526 6.821 3.319 1.465 7.952 3.363 13.74 5.37l51.553-20.5C80.7 8.444 47.21 13.24 30.92 16.037v.005Z"/>
    <path fill="#0779B9" d="M78.917 8.995S76.325-.944 90.074.592c13.75 1.535 12.43 10.504 12.43 10.504s-14.08 2.897-23.587-2.1Z"/>
    <path fill="#2E97D3" d="M92.47.964a28.77 28.77 0 0 0-2.404-.372C76.316-.944 78.91 8.995 78.91 8.995c3.163 1.573 6.684 2.252 8.438 2.548 0 0-5.091-10.362 5.123-10.579Z"/>
    <path fill="#53B5E0" d="M80.442 7.705c-.688-2.167.75-6.001 3.055-5.45.457.108.801.499.91.96.334 1.418.928 4.73-.68 5.337-2.054.778-3.285-.847-3.285-.847Z"/>
  </g>
  <defs>
    <clipPath id="a">
      <path fill="#fff" d="M.14.432h170v107H.14z"/>
    </clipPath>
  </defs>
</svg>
