<svg xmlns="http://www.w3.org/2000/svg" width="179" height="104" fill="none" viewBox="0 0 179 104">
  <g clip-path="url(#a)">
    <path fill="#F68926" d="m135.194 18.125.095.32c.032.11.063.25.116.41.643 2.5 2.791 11.359 4.35 26.527-.379.03-.758.05-1.148.07-8.51.51-19.317.13-30.681-2.92-.506-.13-1.022-.28-1.538-.43a79.152 79.152 0 0 1-9.09-3.21c-.4-.17-.8-.34-1.2-.52a76.027 76.027 0 0 1-4.993-2.419c-.516-.27-1.032-.55-1.548-.84a40.59 40.59 0 0 1-1.264-.72c-.6-.35-1.2-.71-1.8-1.09-.517-.31-1.023-.64-1.528-.97C97.33 17.965 107.81 10.127 107.81 10.127c-6.32-2-7.404-8.01-7.404-8.01s22.623-8.799 40.444 12.21c.211.25.432.51.643.77 0 .03-.021 2.039-6.299 3.029Zm6.309 70.284a139.39 139.39 0 0 1-35.8-.29c-18.769-2.59-34.494-8.71-46.996-15.469 3.94-8.499 8.458-16.238 13.113-23.137 10.733 6.52 24.13 12.468 40.203 15.608a124.513 124.513 0 0 0 29.248 2.17c.243 6.41.337 13.459.232 21.118Z"/>
    <path fill="#F47236" d="M151.129 103.258c-2.285-.03-4.476-.09-6.456-.14-45.711-1.21-80.184-12.54-102.544-22.488a242.172 242.172 0 0 1-15.42-7.51c-2.707-1.44-6.593-3.51-10.564-5.869-8.468-5-17.326-11.259-16.02-15.279 1.316-4.05 12.923-5.499 22.34-5.999l.484-.03c6.467-.32 11.786-.21 11.786-.21-1.359.86-2.718 1.71-4.076 2.57-.253.16-.474.35-.643.56a2.57 2.57 0 0 0 .232 3.59A144.325 144.325 0 0 0 58.707 72.64c12.502 6.769 28.227 12.888 46.996 15.478a139.4 139.4 0 0 0 35.8.29l3.36 5.18 6.266 9.669Z"/>
    <path fill="#F4F1ED" d="M141.272 67.29a124.52 124.52 0 0 1-29.249-2.17c-16.073-3.139-29.47-9.088-40.203-15.608a184.972 184.972 0 0 1 13.145-17.178c.505.33 1.011.66 1.527.97.6.38 1.2.74 1.801 1.09.421.25.843.49 1.264.72.516.29 1.032.57 1.548.84 1.664.88 3.329 1.69 4.993 2.42.4.18.8.35 1.2.52a79.152 79.152 0 0 0 9.09 3.209c.516.15 1.032.3 1.538.43 11.364 3.05 22.171 3.43 30.681 2.92.39-.02.769-.04 1.148-.07.653 6.24 1.201 13.538 1.517 21.908Z"/>
    <path fill="#F47236" d="M104.017 3.297c.695-2.02 8.152-1.8 12.692-1.12 5.74.85 9.721 2.86 12.523 4.31.126.06.19.1.274.14 4.276 2.24 8.952 6.499 8.247 8.329-.148.38-.737 1.19-5.783 1.06-4.95-.13-15.093-1.2-24.804-8.88-3.022-2.39-3.328-3.3-3.149-3.84Z"/>
    <path fill="#E66327" d="M179 97.697c0 .22-.032.43-.085.64-.779 2.99-7.109 4.24-14.703 4.7-4.213.26-8.816.28-13.081.22l-6.267-9.67-3.36-5.179a142.41 142.41 0 0 0 15.283-2.66c1.474-.34 2.39-1.73 2.074-3.15 1.359.66 2.771 1.37 4.182 2.11 7.857 4.11 15.957 9.2 15.957 12.99Z"/>
    <path fill="#F9B024" d="M71.82 49.513c-4.655 6.899-9.173 14.638-13.112 23.127a144.328 144.328 0 0 1-28.46-20.188 2.57 2.57 0 0 1-.231-3.59l4.719-3.129 2.57-1.71 14.408-9.569A130.27 130.27 0 0 0 71.82 49.513Z"/>
    <path fill="#fff" d="M84.966 32.334a184.988 184.988 0 0 0-13.145 17.178 130.274 130.274 0 0 1-20.107-15.059l19.897-13.208c.442.46.906.93 1.369 1.39.463.46.948.93 1.443 1.39.484.46.99.92 1.506 1.38.358.33.727.65 1.106.97.274.25.558.48.843.71.326.27.663.55 1 .82l.6.48c.39.31.78.62 1.19.92.432.33.875.66 1.317.97.337.26.674.5 1.022.73.537.38 1.074.75 1.632 1.12.106.07.222.139.327.209Z"/>
    <path fill="#F9B024" d="M107.81 10.126s-10.48 7.84-22.845 22.208c-.106-.07-.222-.14-.327-.21-.558-.37-1.095-.74-1.633-1.12-.347-.23-.684-.47-1.021-.73-.442-.31-.885-.64-1.317-.97-.41-.3-.8-.61-1.19-.92l-.6-.48c-.337-.27-.674-.55-1-.82-.285-.23-.57-.46-.843-.71-.38-.32-.748-.64-1.106-.97a65.15 65.15 0 0 1-1.506-1.379c-.495-.46-.98-.93-1.443-1.39-.464-.46-.927-.93-1.37-1.39L91.737 7.877l8.668-5.76s1.085 6.01 7.405 8.01Z"/>
    <path fill="#F47236" d="M156.788 85.749a142.386 142.386 0 0 1-15.283 2.66c.105-7.66.011-14.71-.232-21.119 1.349-.06 2.665-.13 3.95-.23a125.6 125.6 0 0 0 9.374-1.04l3.739 14.52.527 2.059c.316 1.42-.601 2.81-2.075 3.15Z"/>
    <path fill="#E2DED7" d="M154.598 66.021c-2.865.43-5.993.79-9.374 1.04-1.285.1-2.601.17-3.95.23-.315-8.37-.863-15.668-1.516-21.908l.79-.06 1.074-.09c.169-.01.327-.03.485-.04l.6-.06c.663-.07 1.306-.13 1.927-.21 1.601-.18 3.065-.39 4.382-.6l5.582 21.698Z"/>
    <path fill="#F47236" d="M149.014 44.323a95.49 95.49 0 0 1-4.382.6c-.621.08-1.263.14-1.927.21l-.6.06c-.158 0-.316.03-.485.04l-1.074.09-.79.06c-1.559-15.169-3.708-24.028-4.35-26.528-.053-.16-.084-.3-.116-.41l-.095-.32c6.278-.99 6.299-3 6.299-3.03l7.52 29.228Z"/>
  </g>
  <defs>
    <clipPath id="a">
      <path fill="#fff" d="M0 .287h179v103H0z"/>
    </clipPath>
  </defs>
</svg>
