<svg xmlns="http://www.w3.org/2000/svg" width="122" height="58" fill="none" viewBox="0 0 122 58">
  <path fill="#1F79CC" d="m61.06 3.3.3-2.47c.06-.48.46-.83.94-.83h2.92c.52 0 .95.42.95.95V3.7c0 .55-.47.99-1.03.94l-3.22-.28a.954.954 0 0 1-.86-1.06Z"/>
  <path fill="#0A2742" d="M66.16 2.21c-.34-.14-.69-.27-1.04-.38-.14-.04-.28-.08-.42-.11-.09-.02-.18-.04-.26-.05h-.06c-.35-.02-.69-.01-1.04.02-.08.01-.38.06-.42.06l-.62.12c-.36.07-.72.14-1.08.2l-.15 1.22c-.06.53.32 1.01.86 1.06l3.22.28a.949.949 0 0 0 1.03-.94V2.21h-.02Z" opacity=".6"/>
  <path fill="#FDF5FF" d="M121.88 37.83c-5.51 10.62-43.37 6.38-46.75 5.56-3.37-.82-15.74-3.6-24.39-2.39C25.87 44.88 0 32.27 0 32.27c1.18-1.82 2.37-3.53 3.59-5.13 1.53-2.02 3.1-3.87 4.7-5.57 0-.01.01-.01.01-.02a59.91 59.91 0 0 1 3.43-3.36h.01C26.15 5.13 42.98 3.16 62.04 3.16c17.42 0 37.17 11.3 49.24 21.99 2.6 2.31 4.84 4.58 6.63 6.7 1.85 2.2 3.21 4.23 3.97 5.98Z"/>
  <path fill="#1F79CC" d="M111.28 25.15c-5.35 5.92-23.42 7.5-30.62 4.57-8.45-3.45-20.77-4.4-38.33-2.48-13.99 1.53-29.66-2.57-34.04-5.67 0-.01.01-.01.01-.02a59.91 59.91 0 0 1 3.43-3.36h.01C26.15 5.13 42.98 3.16 62.04 3.16c17.42 0 37.17 11.3 49.24 21.99Z"/>
  <path fill="#1F79CC" d="M121.88 37.83c-5.51 10.62-43.37 6.38-46.75 5.56-3.37-.82-15.74-3.6-24.39-2.39C25.87 44.88 0 32.27 0 32.27c1.18-1.82 2.37-3.53 3.59-5.13 6.57 2.8 26.09 10.12 44.11 7.18 18.82-3.07 30.1 3.39 34.95 4.07 4.13.57 26.93 3.25 35.26-6.54 1.85 2.2 3.21 4.23 3.97 5.98Z"/>
  <path fill="#90D6DD" d="M13.79 24.43c3.93-3.6 8.3-6.72 12.78-9.6 4.74-3.05 9.63-5.67 14.98-7.51 5.78-1.99 11.86-3.14 17.96-3.57 2.46-.17 4.92-.29 7.39-.32-1.63-.18-3.25-.28-4.86-.28-19.06 0-35.89 1.97-50.3 15.03h-.01a59.91 59.91 0 0 0-3.43 3.36s-.01 0-.01.02c-1.6 1.7-3.17 3.55-4.7 5.57-1.22 1.6-2.41 3.31-3.59 5.13 0 0 2.04.99 5.52 2.34 2.08-3.85 5.04-7.21 8.27-10.17Z" opacity=".4"/>
  <path fill="#0A2742" d="M117.91 31.85c-1.79-2.12-4.03-4.39-6.63-6.7C100.42 15.53 83.35 5.43 67.35 3.5c9.76 3.85 18.61 9.83 26.44 16.77a98.97 98.97 0 0 1 10.23 10.55c3.26 3.89 5.57 8.11 7.38 12.77 5.01-1.05 8.96-2.84 10.48-5.76-.76-1.75-2.12-3.78-3.97-5.98Z" opacity=".6"/>
  <path fill="#8F8F8F" d="M111.9 53.34c-.18-1.88-4.05-21.73-18.26-27.64-1.01-.42-2.09-.66-3.18-.59-1.13.08-2.33.46-1.99 1.75.61 2.34 8.48 25.38 8.65 27.5.16 2.13 2.3 3.89 5.83 3.39 3.53-.49 9.13-2.46 8.94-4.4l.01-.01Zm-10.44-2.21c-.38-1.23-6.12-16.48-7.35-19.74-.09-.24.16-.45.38-.33 5.78 2.98 12.6 16.22 12.68 18.09.07 1.93-5.31 3.21-5.71 1.99v-.01Z"/>
  <path fill="#D0C7D3" d="M102.76 56.03c-1.35-1.01-2.43-2.19-3.16-3.73-.79-1.67-1.28-3.49-2.01-5.19-1.71-3.99-3.37-8.01-5.07-12-.78-1.84-1.53-3.68-2.34-5.5-.56-1.26-1.11-2.56-1.47-3.9-.26.26-.38.63-.25 1.16.61 2.34 8.48 25.38 8.65 27.5.16 2.13 2.3 3.89 5.83 3.39.57-.08 1.2-.2 1.85-.35-.73-.43-1.43-.89-2.05-1.36l.02-.02Z"/>
  <path fill="#575757" d="M111.9 53.34c-.18-1.88-4.05-21.73-18.26-27.64-.28-.12-.56-.21-.84-.29 1.71.93 2.91 2.49 4.28 3.99.58.57 1.13 1.17 1.66 1.78 1.83 1.96 3.65 3.93 5.14 6.16 1.78 2.66 3.29 5.5 4.42 8.5 1.1 2.93 2.1 6 2.54 9.12.69-.52 1.11-1.07 1.05-1.62h.01Z"/>
  <path fill="#0A2742" d="M45.22 38.87c-.03.95.84 1.68 1.76 1.45 3.36-.82 10.91-2.23 16.19.1 6.61 2.91-2.07-29.96-.22-36.01.1-.34-.25-.64-.58-.5-6.81 2.75-16.78 23.5-17.16 34.97l.01-.01Z" opacity=".3"/>
</svg>
