<svg xmlns="http://www.w3.org/2000/svg" width="91" height="94" fill="none" viewBox="0 0 91 94">
  <g clip-path="url(#a)">
    <path fill="#242424" d="M5.933.028c4.76.9 21.391 2.523 41.78 2.42.388 0 .726.29.805.695l.05.25C59.47 3.256 71.707 2.34 84.462.034c.901-.165 1.746.53 1.814 1.497L87.35 15.6c.067.888-.541 1.686-1.375 1.777-9.324 1.127-59.761 6.717-82.752-1.652-.716-.256-1.155-1.041-1.031-1.838L4.119 1.389C4.266.473 5.072-.137 5.933.03Z"/>
    <path fill="#242424" d="M86.19 31.802h-.011l-.755-10.287-.068-.974-1.02-13.84-14.945 1.873a190.89 190.89 0 0 1-19.127 1.435c-.473.022-.952.028-1.425.04-9.74.176-19.498-.37-29.176-1.652L5.403 6.69h-.01l-.716 12.634L.52 83.149c11.903 4.788 25.503 6.814 37.553 2.493l2.26-.945 3.104-33.572c1.667 11.187 2.467 22.05 4.135 33.23.552.075 3.002.644 3.56.707 12.755 3.98 24.428 3.37 37.148-.706l2.721-3.28-4.805-49.28-.006.006Zm-56.51 30.63c-2.356.33-4.784.637-8.457 0-4.693-.81-12.078-3.28-11.881-5.181.191-1.89 7.836-3.234 14.58-1.725 5.149 1.15 10.377 4.093 10.09 5.562-.158.763-1.798.99-4.327 1.343h-.006Z"/>
    <path fill="#1B1B1B" d="M4.681 16.225s22.27 5.437 44.714 6.257c.322 0 .26-1.24.592-1.23 13.126.416 26.337-.341 35.374-3.802l.833 11.26s-54.066.963-81.507-10.691v-1.8l-.011.012.005-.006Z"/>
    <path fill="#464646" d="M42.2 16.567c2.14 0 3.887-1.85 3.887-4.145 0-2.294-1.735-4.144-3.887-4.144s-3.888 1.85-3.888 4.144c0 2.295 1.736 4.145 3.888 4.145Z"/>
    <path fill="#1B1B1B" d="M49.991 21.253 48.555 3.399l.997-.023 3.803 19.106h-3.96l.59-1.23h.006Z"/>
    <path fill="#E6E7E7" d="M41.547 15.947c2.147 0 3.893-1.85 3.893-4.145 0-2.294-1.735-4.145-3.893-4.145-2.157 0-3.887 1.85-3.887 4.145 0 2.294 1.735 4.145 3.887 4.145Z"/>
    <path fill="#1B1B1B" d="M3.76 32.303s16.297 2.5 18.01-12.718l-17.104-3.36-.924 16.078h.017Zm65.363-11.136s1.679 14.05 17.498 13.493l-1.273-17.205-16.23 3.723v-.011h.005ZM34.305 49.628l9.447 6.957.71-5.295-.834.051a16.78 16.78 0 0 1-6.073-.723l-3.239-1.002-.011.012Z"/>
    <path fill="#1B1B1B" d="m44.449 51.29 1.036 5.55 10.67-6.604-4.151.82a20.79 20.79 0 0 1-4.97.364l-2.596-.125h.01v-.005Z"/>
    <path fill="#838383" d="M80.26 69.166s.085 0 .124.012c.338.102.58.546.214.82-2.202 1.61-5.566 3.564-10 4.526a25.608 25.608 0 0 1-12.016-.28c-.507-.136-.282-.546-.04-.705.339-.228 1.544-.011 1.961-.023l4.13-.091c.856-.023 1.825-.091 2.394-.763.75.558 1.758.421 2.66.268.861-.154 1.729-.308 2.59-.456.378-.062.755-.136 1.116-.29.4-.177.755-.444 1.138-.66.4-.228.834-.405 1.262-.57 1.087-.421 2.18-.848 3.267-1.28.265-.103.857-.468 1.195-.496l.011-.011h-.006Zm-.803-4.924c.456-.126.726.518.338.797-2.203 1.61-5.567 3.564-10 4.526a25.608 25.608 0 0 1-12.017-.28c-.67-.176-.163-.745.175-.825.794-.205 1.893 0 2.727-.011.253 0 .501 0 .738.09.298.126.54.394.856.456.591.126 1.065-.495 1.64-.683.754-.25 1.61.28 2.326-.074.282-.136.507-.393.794-.495.39-.137.817.028 1.223 0 .281-.023.552-.142.817-.268a45.79 45.79 0 0 1 5.323-1.998c1.668-.507 3.375-.763 5.043-1.241h.017v.006Z"/>
    <path fill="#464646" d="M36.05 85.898c.406-.637.941-.46 1.522-.734.09-.04.185-.085.287-.068.225.04.304.37.512.46 0-.05.04-.096.09-.119a.603.603 0 0 0 .063.393c.067-.165.135-.33.208-.5a.375.375 0 0 1 .079-.149.308.308 0 0 1 .158-.097c.146-.068.298-.136.417-.256.135-.148.13-.302.208-.467.09-.165.248-.313.338-.49.18-.33.287-.705.344-1.075.05-.33.169-1.293-.214-1.486-.13-.057-.26.08-1.623 1.121-.355.274-.546.41-.563.433a3.3 3.3 0 0 1-2.89.734c-.586-.136-1.189-.432-1.741-.204-.383.153-.654.54-1.008.762-.575.37-1.386.262-1.86-.233-1.036 1.116-2.552 1.69-4.016 1.543-.338-.029-.682-.097-.992.057-.067.04-.146.09-.225.09-.22-.016-.226-.392-.417-.517-.13-.08-.287-.017-.423.028a3.368 3.368 0 0 1-2.867-.284c-.288-.177-.552-.399-.879-.49-.642-.176-1.375.313-1.504 1.019-.456-.342-.772-.888-.868-1.475-.445.985-1.712 1.691-2.687 1.213-.868-.427-1.177-1.65-2.265-1.64-.343 0-.749.109-.997-.153-.146-.16-.186-.393-.276-.598-.146-.37-.304-.313-.603-.313-.383 0-.197.216-.512-.125-.457-.479-.772-1.02-1.313-1.43-.079-.056-.169-.119-.26-.108-.106 0-.185.086-.264.166-.422.41-.913.745-1.437.979.108-.234-.107-.541-.354-.575-.248-.04-.485.085-.71.205-.473.262-.941.518-1.414.774-.062.028-.119.057-.18.051-.063-.011-.102-.057-.141-.097a4.253 4.253 0 0 0-1.91-1.212c-.028.393-.473.666-.8.5-.18-.09-.288-.261-.406-.432a6.22 6.22 0 0 0-1.622-1.554c-.012.467-.023.928-.023 1.4-.011 3.024.197 6.11.423 9.132.118.069.236-.09.287-.216.75-1.879.524-4.008.366-6.04-.028-.439 0-.997.378-1.162.22 1.23.433 2.465.664 3.706.276-.324.367-.774.367-1.212 0-.439-.062-.871-.04-1.298.05-1.088 2.71.193 3.256.37.457.148.919.341 1.375.438.642.137 1.228-.57 1.887-.774.068-.017.147-.04.22-.017.101.028.169.12.225.193.474.627 1.02 1.446 1.73 1.68.563.188 1.205.245 1.78.364 1.403.285 2.811.598 4.23.763 1.415.165 1.314 1.292 1.561 1.332.248.04.71-1.076.998-1.053.287.017.535-.37.912-.37.378 0 .868.586 1.037.546.169-.04 1.155.832 1.78.832s3.065-.137 4.27-.137c1.206 0 1.505-.598 2.214-1.122.71-.529 2.237-1.782 2.789-1.782s.248 6.309.552 6.764c.304.461.445-1.577.434-3.353-.011-1.782.135-2.778.862-2.574.72.205.298 1.919.72 2.198.266.176.21-1.429.733-2.249l.029.012v-.017Z"/>
    <path fill="#838383" d="M36.05 87.464c.406-.689.941-.495 1.522-.797.09-.04.185-.097.287-.074.225.04.304.404.512.495 0-.05.04-.108.09-.125a.683.683 0 0 0 .063.422 21.2 21.2 0 0 1 .208-.541.429.429 0 0 1 .079-.16.375.375 0 0 1 .158-.108c.146-.074.298-.148.417-.273.135-.16.13-.33.208-.507.09-.182.248-.341.338-.53.18-.358.287-.762.344-1.166.05-.36.169-1.4-.214-1.612-.13-.062-.26.086-1.623 1.219-.355.296-.546.444-.563.467-.8.751-1.887 1.047-2.89.797-.586-.148-1.189-.467-1.741-.222-.383.17-.654.58-1.008.825-.575.404-1.386.285-1.86-.256-1.036 1.207-2.552 1.833-4.016 1.674-.338-.029-.682-.109-.992.062-.067.04-.146.097-.225.097-.22-.023-.226-.421-.417-.563-.13-.086-.287-.023-.423.034-.94.37-2.005.256-2.867-.308-.288-.188-.552-.432-.879-.53-.642-.187-1.375.342-1.504 1.105-.456-.37-.772-.962-.868-1.6-.445 1.07-1.712 1.834-2.687 1.316-.868-.467-1.177-1.788-2.265-1.782-.343 0-.749.114-.997-.171-.146-.171-.186-.421-.276-.644-.146-.404-.304-.341-.603-.341-.383 0-.197.233-.512-.137-.457-.518-.772-1.099-1.313-1.548-.079-.063-.169-.126-.26-.12-.106 0-.185.097-.264.182a5.06 5.06 0 0 1-1.437 1.06c.108-.257-.107-.581-.354-.627-.248-.04-.485.097-.71.222-.473.285-.941.564-1.414.837-.062.028-.119.063-.18.051-.063-.011-.102-.062-.141-.108a4.197 4.197 0 0 0-1.91-1.315c-.028.421-.473.717-.8.54-.18-.096-.288-.284-.406-.466a6.479 6.479 0 0 0-1.622-1.685 63.616 63.616 0 0 0-.023 1.514c-.011 3.274.197 6.621.423 9.895.118.074.236-.097.287-.234.75-2.032.524-4.343.366-6.547-.028-.478 0-1.081.378-1.258.22 1.332.433 2.67.664 4.014.276-.347.367-.837.367-1.315 0-.479-.062-.945-.04-1.407.05-1.172 2.71.211 3.256.405.457.16.919.37 1.375.478.642.148 1.228-.615 1.887-.837.068-.023.147-.04.22-.023.101.034.169.126.225.21.474.678 1.02 1.567 1.73 1.823.563.199 1.205.267 1.78.392 1.403.308 2.811.644 4.23.826 1.415.182 1.314 1.395 1.561 1.44.248.04.71-1.167.998-1.144.287.023.535-.404.912-.404.378 0 .868.638 1.037.592.169-.04 1.155.9 1.78.9s3.065-.149 4.27-.149c1.206 0 1.505-.643 2.214-1.218.71-.575 2.237-1.93 2.789-1.93s.248 6.832.552 7.333c.304.495.445-1.708.434-3.632-.011-1.93.135-3.012.862-2.784.72.222.298 2.078.72 2.385.266.194.21-1.548.733-2.436l.029.01v.012Z"/>
    <path fill="#464646" d="M88.892 84.248s.074-.04.113-.063c.389-.216.862-.33 1.138-.712.265-.364.287-.86.276-1.326a47.522 47.522 0 0 0-.236-4.19c-.648 2.659-3.088 4.298-5.33 5.67-.913.558-1.87 1.139-2.912 1.287-.902.125-1.848-.063-2.699.25-.389.137-.738.365-1.11.541-1.189.57-2.625.547-3.808-.04a16.036 16.036 0 0 1-6.828.883 20.33 20.33 0 0 1-1.425-.177c-.31-.04-.626-.085-.936-.125-1.222-.165-4.095-.307-4.62-1.605-.151-.393-.326-.33-.647-.33-.411 0-.214.227-.558-.137-.484-.507-.822-1.076-1.408-1.503-.085-.063-.175-.126-.276-.114-.113 0-.203.091-.288.176a5.11 5.11 0 0 1-1.538 1.025c.124-.25-.112-.57-.377-.609-.265-.04-.524.091-.76.216-.502.268-1.009.547-1.51.82-.062.029-.124.063-.186.051-.062-.011-.102-.062-.147-.102a4.437 4.437 0 0 0-2.045-1.275c-.028.415-.501.706-.862.53-.462-.24-1.876-2.079-2.32-1.23-.113.216.061.973.084 1.23.04.483.101.961.174 1.445.136.922.31 1.845.485 2.756.073.392.287.9.665.82a21.233 21.233 0 0 0-.186-3.052 100.194 100.194 0 0 0 1.724 4.076v-1.987a8.08 8.08 0 0 0 1.774 3.621c.05-.797 0-1.605-.146-2.38-.152-.82-.186-1.844.76-2.06.676-.154 1.685-.086 2.36.062.688.142 1.308-.598 2.023-.808a.47.47 0 0 1 .237-.023c.101.034.175.125.248.205.501.66 1.087 1.531 1.848 1.782.602.2 1.284.262 1.91.381 1.498.29 3.008.632 4.517.809 1.522.176 1.409 1.355 1.674 1.406.27.051.76-1.139 1.07-1.116.327.029.665-.341 1.009-.393.563-.09 1.414.103 2.022.091.09 0 .203 0 .276.063.09.085.102.216.14.33.153.382.7.427 1.02.165.316-.262.451-.671.575-1.076.164.313.35.644.648.809.299.165.75.09.873-.24.378.257.772.519 1.223.621.45.103.952 0 1.25-.364.215-.268.31-.672.603-.837.214-.125.485-.086.721-.063 1.138.103 2.124-.415 3.07-1.036.66-.433 2.023-1.73 2.75-.712.214.302.27.695.299 1.076.01.126.028.262.039.382l.49 4.822c.597-1.241-.276-2.858.299-4.1.135.445.214.9.259 1.367.597-1.201-.4-2.772.152-3.996.237-.53.721-.871 1.183-1.19 1.273-.888 2.208-1.572 2.969-3.023a2.79 2.79 0 0 0 .259-.592c.085-.32.05-.66.011-.997a219.01 219.01 0 0 0-.287-2.76c-.011-.103-.085-.251-.175-.2-.028.023-.04.051-.062.085-.073.165-.14.33-.203.484"/>
    <path fill="#838383" d="M88.892 85.284s.074-.04.113-.063c.389-.216.862-.33 1.138-.712.265-.364.287-.86.276-1.326a47.524 47.524 0 0 0-.236-4.19c-.648 2.658-3.088 4.298-5.33 5.67-.913.558-1.87 1.139-2.912 1.287-.902.125-1.848-.063-2.699.25-.389.137-.738.364-1.11.541-1.189.57-2.625.547-3.808-.04a16.036 16.036 0 0 1-6.828.883 20.27 20.27 0 0 1-1.425-.177c-.31-.04-.626-.085-.936-.125-1.222-.165-4.095-.308-4.62-1.606-.151-.392-.326-.33-.647-.33-.411 0-.214.228-.558-.136-.484-.507-.822-1.076-1.408-1.503-.085-.063-.175-.126-.276-.114-.113 0-.203.09-.288.176a5.11 5.11 0 0 1-1.538 1.025c.124-.25-.112-.57-.377-.61-.265-.04-.524.092-.76.217-.502.268-1.009.547-1.51.82-.062.028-.124.063-.186.051-.062-.011-.102-.062-.147-.102a4.437 4.437 0 0 0-2.045-1.276c-.028.416-.501.706-.862.53-.462-.24-1.876-2.078-2.32-1.23-.113.216.061.974.084 1.23.04.484.101.962.174 1.452.136.922.31 1.844.485 2.755.073.393.287.9.665.82a21.233 21.233 0 0 0-.186-3.052 100.194 100.194 0 0 0 1.724 4.077v-1.987a8.08 8.08 0 0 0 1.774 3.62c.05-.796 0-1.605-.146-2.38-.152-.819-.186-1.844.76-2.06.676-.154 1.685-.085 2.36.063.688.142 1.308-.598 2.023-.809a.47.47 0 0 1 .237-.023c.101.035.175.126.248.205.501.66 1.087 1.532 1.848 1.782.602.2 1.284.262 1.91.382 1.498.29 3.008.632 4.517.808 1.522.177 1.409 1.355 1.674 1.406.27.052.76-1.138 1.07-1.115.327.028.665-.342 1.009-.393.563-.091 1.414.102 2.022.09.09 0 .203 0 .276.064.09.085.102.216.14.33.153.381.7.427 1.02.165.316-.262.451-.672.575-1.076.164.313.35.643.648.808.299.165.75.091.873-.239.378.256.772.518 1.223.62.45.103.952 0 1.25-.364.215-.267.31-.672.603-.837.214-.125.485-.085.721-.062 1.138.102 2.124-.416 3.07-1.036.66-.433 2.023-1.731 2.75-.712.214.302.27.695.299 1.076.01.125.028.262.039.381l.49 4.822c.597-1.24-.276-2.858.299-4.099.135.444.214.9.259 1.367.597-1.201-.4-2.773.152-3.997.237-.53.721-.87 1.183-1.19 1.273-.888 2.208-1.571 2.969-3.023.101-.188.203-.381.259-.592.085-.319.05-.66.011-.996a219.01 219.01 0 0 0-.287-2.761c-.011-.103-.085-.25-.175-.2-.028.023-.04.052-.062.086-.073.165-.14.33-.203.484"/>
    <path fill="#464646" d="M9.543 57.689s-.71 1.27-.253 2.562c.388 1.087 1.408 1.611 2.203 1.953 4.704 2.004 7.582.267 12.241 2.191 1.127.467 1.628.837 2.772.985 2.986.353 5.256-1.531 5.673-1.873 1.009-.837 1.375-1.605 1.482-1.873.203-.484.298-.922.338-1.23-2.299 1.042-5.978 2.33-10.575 2.295-2.191-.011-6.044-.091-10.224-2.386a19.21 19.21 0 0 1-3.68-2.624h.023Z"/>
    <path fill="#838383" d="M9.333 56.562c-.924 2.015 0 3.763 1.95 4.52 4.151 1.6 8.805 1.304 13.086 2.357.552.136 1.386.205 1.68.774.472.922.472 2.027.472 3.069.085-.58.175-1.167.265-1.748.011-.074.017-.142.068-.188a.292.292 0 0 1 .158-.074 5.819 5.819 0 0 0 1.183-.404.668.668 0 0 0 .225-.137c.067-.062.096-.136.146-.205.215-.29.564-.421.89-.535.068-.023.378.302.615.205.191-.085.298-.353.467-.484.473-.393 1.166-.712 1.718-.985.857-.421 1.38-1.48 1.77-2.345-1.263.609-2.998.518-4.367.683-.326.04-.687.09-.93.341-.213.217-.337.587-.63.65-.36.062-.67-.405-1.02-.302-.214.062-.366.341-.58.29-.147-.028-.226-.188-.321-.302-.338-.404-.941-.319-1.448-.239-2.085.319-4.479-.051-6.546-.467a18.977 18.977 0 0 1-2.66-.734c-.32-.114-.71-.353-1.047-.307-.147.01-.727.25-.648.483-.107-.364-.242-.723-.468-1.013-.225-.29-.54-.53-.901-.535-.124 0-.254.011-.366-.029-.192-.074-.299-.29-.434-.455a.93.93 0 0 0-1.065-.262c-.079.034-.175.086-.253.04-.085-.04-.107-.154-.107-.262-.017-.25-.017-.507-.085-.746-.146-.455-.484-.415-.777-.672h-.017l-.023.018Z"/>
    <path stroke="#838383" stroke-linecap="round" stroke-linejoin="round" stroke-width=".75" d="M9.336 56.562a96.97 96.97 0 0 1 10.614 1.024 101.92 101.92 0 0 1 14.422 3.28"/>
    <path stroke="#838383" stroke-linecap="round" stroke-linejoin="round" stroke-width=".5" d="M9.465 56.83a54.38 54.38 0 0 1 10.484 3.307 55.679 55.679 0 0 1 6.693 3.433M9.336 56.562a26.297 26.297 0 0 1 10.659-1.355c7.11.58 12.146 3.94 14.377 5.653"/>
    <path fill="#575858" d="M3.752 32.303s4.157.547 5.684-.068l-3.842 49.77-.693.33s-1.358-1.31-2.045-1.31c0 0-.017.7-.8.501 0 0-1.059-1.224-1.33-1.451l3.026-47.772ZM6.46 16.578s-2.169-2.983-1.78-5.317c.495-2.972.98-9.189 2.248-10.1C7.705.603 9.558.57 9.558.57L5.93.03S4.37-.263 4.116 1.394l-1.932 12.49s-.366 1.646 1.56 2.175c1.51.416 2.71.524 2.71.524l.006-.006Z"/>
  </g>
  <defs>
    <clipPath id="a">
      <path fill="#fff" d="M0 0h91v94H0z"/>
    </clipPath>
  </defs>
</svg>
