<svg xmlns="http://www.w3.org/2000/svg" width="100" height="64" fill="none" viewBox="0 0 100 64">
  <mask id="a" width="100" height="64" x="0" y="0" maskUnits="userSpaceOnUse" style="mask-type:luminance">
    <path fill="#fff" d="M99.963 0H0v63.498h99.963V0Z"/>
  </mask>
  <g mask="url(#a)">
    <path fill="#575858" d="M55.733 42.449c-1.675.305-3.37.425-5.06.346l-2.65-.128-.852.062a18.046 18.046 0 0 1-6.188-.697l-3.303-.966 9.62 6.69.723-5.068 1.066 5.32 10.864-6.343-4.216.784h-.004Z"/>
    <path fill="#1D4E77" d="M99.966 54.956c-5.746 3.219-16.639 8.224-30.9 8.348a63.046 63.046 0 0 1-17.438-2.34c-.165-.833-.326-1.675-.496-2.513-.099-.516-.206-1.04-.306-1.56-.93-4.745-1.864-9.47-2.807-14.199l1.067 5.32 10.864-6.343-4.217.784a22.42 22.42 0 0 1-5.06.347l-2.65-.128-.851.062a18.135 18.135 0 0 1-6.189-.698l-3.303-.965 9.62 6.689c-.298 2.133-.603 4.258-.897 6.392-.145 1.064-.306 2.12-.455 3.185-.161 1.09-.306 2.183-.463 3.276a62.003 62.003 0 0 1-22.881 2.74A62.028 62.028 0 0 1 .008 57.362c.178-1.11.364-2.233.541-3.343.17-1.002.335-2.013.496-3.016 2.456-15.016 4.92-30.053 7.38-45.077.157-.982.318-1.964.487-2.946C9.07 1.985 9.24.999 9.4.004a246.748 246.748 0 0 0 44.547 3.054A247.38 247.38 0 0 0 87.527.021c.228.994.455 1.997.67 2.983.1.438.198.855.298 1.28l.029.14c3.456 15.23 6.912 30.494 10.36 45.725v.016c.12.496.227 1.003.342 1.498.244 1.09.496 2.191.74 3.285h-.004l.004.008Z"/>
    <path fill="#EAA742" d="M44.937 16.464c-2.237-2.17-5.928-4.25-10.525-1.16-1.559 1.049-2.076 3.12-1.059 4.684 1.084 1.663 3.733 3.219 10.033 2.715 0 0-12.947 5.744-9.61 10.32 3.335 4.577 11.198-3.746 11.198-3.746s-4.895 10.365 2.075 10.407c0 0 5.482-1.622 2.898-10.667.157-.008.306-.037.455-.078 2.488 1.77 11.848 7.864 12.315-.075.4-6.755-5.684-7.172-8.909-6.924.33-.879 2.592-4.877 2.865-6.454.269-1.56-.53-4.126-1.608-5.608-.93-1.275-3.27-.9-4.324.516-2.307 3.1-3.188 5.063-3.543 8.91a14.576 14.576 0 0 0-2.27-2.84"/>
    <path fill="#193C59" d="m48.023 42.675-.724 5.084-9.62-6.689 3.304.966c2.009.586 4.1.821 6.188.697l.852-.05v-.008Zm11.931-1.01-10.86 6.342-1.067-5.32v-.016l2.65.128c1.691.079 3.394-.04 5.06-.346l4.217-.784v-.004Z"/>
    <path fill="#EAA742" d="M44.948 10.6A155.263 155.263 0 0 1 30.1 9.566a174.08 174.08 0 0 1-10.07-1.527c-.967-.177-1.939-.367-2.914-.573-.89-.165-1.79-.368-2.68-.566a82.46 82.46 0 0 1-2.914-.672 176.026 176.026 0 0 1-3.084-.776c.158-1.213.319-4.238.488-5.451.505.14 20.348 3.087 39.55 3.115 19.202.03 38.16-2.867 39.049-3.094.008-.009 1.223 5.41 1.223 5.41-1.72.437-3.356.854-5.076 1.25h-.008c-.968.218-1.947.425-2.915.635-.913.19-1.827.367-2.74.532-.989.178-1.98.368-2.956.525-8.876 1.497-17.772 2.265-26.648 2.265-1.149 0-2.302-.012-3.447-.037"/>
    <path fill="#CA6838" d="M44.111 10.642a453.297 453.297 0 0 1-.074-3.338c-.033-1.49-2.394-1.494-2.36 0 .024 1.02.045 2.042.07 3.062.797.194 1.62.346 2.372.412v-.136h-.008Z"/>
    <path fill="#193C59" d="M41.746 10.366c.033 1.448.066 2.896.104 4.345.818.371 1.343 1.081 2.39 1.118-.038-1.712-.08-3.536-.12-5.249-.753-.062-1.576-.02-2.374-.214Z"/>
    <path fill="#CA6838" d="M41.844 14.71c.025 1.028.045 2.052.07 3.083.033 1.49 2.394 1.494 2.36 0-.012-.627-.032-1.337-.045-1.964-.996-.516-1.575-.743-2.39-1.118h.005Zm7.957-7.534c.17 6.19.335 12.371.505 18.556.041 1.49 2.406 1.494 2.36 0-.17-6.19-.335-12.37-.504-18.556-.041-1.49-2.406-1.494-2.36 0ZM42.294 9.76a2.656 2.656 0 0 0 2.65-2.662 2.656 2.656 0 0 0-2.65-2.662 2.656 2.656 0 0 0-2.65 2.662 2.656 2.656 0 0 0 2.65 2.661Z"/>
    <path fill="#CA6838" d="M50.431 9.76a2.656 2.656 0 0 0 2.65-2.662 2.656 2.656 0 0 0-2.65-2.662 2.656 2.656 0 0 0-2.65 2.662 2.656 2.656 0 0 0 2.65 2.661Z"/>
    <path fill="#F0D8CE" d="M42.544 18.953c-.64 0-1.166-.5-1.182-1.13-.038-1.746-.079-3.492-.125-5.241-.04-1.75-.086-3.5-.123-5.25a1.17 1.17 0 0 1 1.153-1.184h.029c.64 0 1.166.5 1.182 1.131.037 1.746.079 3.495.124 5.245.042 1.75.087 3.495.124 5.24a1.17 1.17 0 0 1-1.153 1.185h-.03v.004Zm8.397 7.939c-.637 0-1.162-.5-1.182-1.126l-.505-18.557a1.168 1.168 0 0 1 1.15-1.193 1.16 1.16 0 0 1 1.215 1.127l.505 18.557c.02.64-.497 1.176-1.15 1.192h-.033Z"/>
    <path fill="#3075AF" d="M94.734 22.019v.008l.005.005v-.017h-.005v.004Z"/>
    <path fill="#193C59" d="M99.224 51.675c-.12-.495-.227-1.002-.343-1.498v-.02c-3.448-15.235-6.895-30.49-10.36-45.725l-.028-.14c-.1-.426-.199-.847-.298-1.28-.22-.994-.442-1.997-.67-2.983-4.564.73-9.43 1.374-14.568 1.881.087.285.174.566.26.855.79 5.78 1.584 11.558 2.374 17.339.343 8.983-1.559 17.356-5.718 25.13-2.158 6.524-5.556 12.33-10.182 17.434a62.35 62.35 0 0 0 9.38.64c14.262-.12 25.155-5.13 30.901-8.348-.243-1.09-.496-2.195-.74-3.285h-.008Z"/>
    <path fill="#3075AF" d="M94.734 21.998v.025s.009-.025 0-.025Z"/>
    <path fill="#1D4E77" d="M94.735 22.019v-.025.037l-.004-.004v-.008h.004ZM31.238 55.736s.03.008.046.016c-.017 0-.03-.008-.046-.016Z"/>
    <path fill="#45809B" d="M94.968 32.888S90.47 19.605 75.973 26.47c0 0 3.588 17.822 20.921 14.905l-1.922-8.488h-.004Z"/>
    <path fill="#1195AE" d="M94.968 32.888S90.47 19.605 75.973 26.47c0 0 17.031 6.256 20.921 14.905l-1.922-8.488h-.004Z"/>
    <path fill="#45809B" d="M82.442 24.56s-1.211-7.002 1.19-10.526c0 0 5.462-.173 7.69 2.777l4.006 17.682-12.882-9.928h-.004v-.004Z"/>
    <path fill="#1195AE" d="M90.42 23.31s-3.865-6.56-6.783-9.28c0 0 5.46-.174 7.689 2.777l4.006 17.682-4.907-11.175h-.004v-.004Z"/>
    <path fill="#44809B" d="M6.781 16.275s3.48-2.967 5.296-3.537c0 0 2.939 3.727 3.179 6.73 0 0-4.283 12.512-11.026 12.264l2.551-15.457Z"/>
    <path fill="#5AA8A6" d="M4.23 31.733s2.253-9.47 9.525-11.856c7.272-2.385 14.196 1.523 14.196 1.523s-3.828 15.334-23.72 10.333Z"/>
    <path fill="#44809B" d="M4.23 31.733s4.16-4.696 11.427-7.086c7.271-2.385 12.29-3.247 12.29-3.247S24.12 36.734 4.227 31.733h.004Z"/>
    <path fill="#5AA8A6" d="M12.079 12.742s-.207 8.629-3.2 11.653l6.383-4.927s-1.092-4.93-3.18-6.73h-.003v.004Zm19.786 39.73s7.834-6.43 13.725-1.973c0 0-1.224 12.058-17.235 5.526l3.514-3.553h-.004Z"/>
    <path fill="#45809B" d="M45.586 50.5s-1.224 12.057-17.234 5.525l.872-.883c6.461.701 8.995-.599 16.362-4.643Z"/>
    <path fill="#5AA8A6" d="M67.468 26.496s8.913 6.549 2.824 13.209c0 0-9.455-3.83-2.824-13.209Z"/>
    <path fill="#45809B" d="M67.469 26.496s8.913 6.549 2.823 13.209c0 0 .352-3.293-.574-7.077-.488-1.98-.96-2.781-2.25-6.132Zm3.778-6.763s-2.34-3.875 2.058-6.566c0 0 3.159 4.325-2.058 6.566Z"/>
    <path fill="#DF8F3E" d="M68.832 63.386s-3.394-1.081-1.596-3.42c1.795-2.34 6.11-1.325 6.11-1.325s-5.064-6.107-1.91-9.326c3.155-3.219 9.542 4.807 9.6 7.803 0 0-.211-11.694 3.774-11.224 3.993.47 4.775 4.968.252 12.09 0 0 4.832-6.532 6.722-4.98 1.889 1.552 1.244 4.444.004 5.715-1.236 1.271-15.978 5.505-22.956 4.667Z"/>
    <path fill="#EAA742" d="M2.734 40.678s5.217-2.112 5.817 11.286c0 0 .508-16.159 7.746-13.885 7.239 2.273-3.65 14.748-3.65 14.748s8.181-5.716 12.853-1.783a2.96 2.96 0 0 1 1.058 2.604c-.256 2.302-2.154 6.251-12.58 4.621 0 0 2.613 3.43 3.159 4.453 0 0-8.71-1.147-16.619-5.142-.264-.136-.541-.165-.516-.565l2.732-16.337Z"/>
    <path fill="#467E9A" d="M59.247 45.527c-1.807-.248-4.03.115-5.259 2.81 0 0 6.094 7.733 12.741 1.824l-3.675-2.946c-1.096-.884-2.41-1.494-3.812-1.684h.005v-.004Z"/>
    <path fill="#DF8F3E" d="M78.001 7.848a124.82 124.82 0 0 0 2.74-.532c.968-.21 1.948-.417 2.915-.635h.009c1.72-.397 3.356-.813 5.076-1.25-.074-.335-.153-.67-.227-1l-.03-.14c-.098-.425-.198-.846-.297-1.279-.219-.994-.442-1.997-.67-2.983a.12.12 0 0 0-.037.004c-.442.103-3.315.57-7.784 1.114-2.191.277-4.44.532-6.75.768l.26.854c.264 1.927.529 3.858.79 5.785.35-.054.698-.107 1.045-.165.98-.157 1.964-.347 2.956-.524v-.008l.004-.009Z"/>
  </g>
</svg>
