<svg xmlns="http://www.w3.org/2000/svg" width="99" height="91" fill="none" viewBox="0 0 99 91">
  <g clip-path="url(#a)">
    <path fill="#26324F" d="m75.055 4.267.702-.121c-.234.04-.458.08-.702.12ZM61.31 87.045a.501.501 0 0 1 .488-.523l.407-.02A91.8 91.8 0 0 0 72.38 68.711c9.708-22.542 7.734-43.312 6.014-53.486a182.31 182.31 0 0 1-62.316-3.35c-3.785 18.958-9.575 51.03-10.41 73.782h.753a.511.511 0 0 1 .59-.242c.265.08.428.352.346.624l-.081.262a.512.512 0 0 1-.489.362h.01-1.17a99.79 99.79 0 0 0-.06 3.452c.529.02 1.068.05 1.597.07l9.596-28.368 1.577 28.79c11.641.363 23.73.494 36.236.313 1.425-.02 2.839-.05 4.253-.08a101.331 101.331 0 0 0 2.687-3.422c-.112-.09-.204-.222-.204-.373ZM20.178 14.26c.02-.282.274-.463.55-.463.284.02.488.271.467.543l-.346 4.015a.508.508 0 0 1-.508.463H20.3a.508.508 0 0 1-.468-.543l.346-4.015Zm-.702 8.02c.02-.282.285-.463.55-.463.284.02.488.271.467.543l-.346 4.015a.508.508 0 0 1-.508.463h-.041a.508.508 0 0 1-.468-.543l.346-4.015Zm-.703 8.02a.51.51 0 0 1 1.018.08l-.346 4.016a.508.508 0 0 1-.509.462h-.04a.508.508 0 0 1-.468-.543l.346-4.015Zm-.691 8.02a.51.51 0 0 1 1.017.08l-.346 4.016a.508.508 0 0 1-.509.463h-.04a.508.508 0 0 1-.468-.544l.346-4.015ZM9.647 78.31l-1.14 3.865a.5.5 0 0 1-.488.362s-.092 0-.143-.02a.496.496 0 0 1-.346-.624l1.14-3.864a.503.503 0 0 1 .63-.342c.276.08.428.352.347.624Zm2.27-7.728-1.14 3.864a.5.5 0 0 1-.489.363s-.092 0-.143-.02a.496.496 0 0 1-.345-.624l1.14-3.865a.51.51 0 0 1 .63-.342c.275.08.428.353.346.624Zm2.278-7.728-1.14 3.864a.5.5 0 0 1-.488.362s-.091 0-.142-.02a.495.495 0 0 1-.346-.624l1.14-3.864a.503.503 0 0 1 .63-.342c.275.08.428.352.346.624Zm2.27-7.729-1.14 3.865a.5.5 0 0 1-.489.362s-.091 0-.142-.02a.495.495 0 0 1-.346-.624l1.14-3.864a.503.503 0 0 1 .63-.343.497.497 0 0 1 .347.624Zm1.15-3.874a.5.5 0 0 1-.489.362h-.01s-.092 0-.143-.02a.503.503 0 0 1-.345-.624l.773-2.616a.525.525 0 0 1 .529-.362c.244.02.438.201.468.432l.183 1.288a.494.494 0 0 1-.437.564.6.6 0 0 1-.234-.02l-.296.996Zm1.058 6.581-.56-3.985a.495.495 0 0 1 .438-.563c.274-.03.539.15.57.433l.56 3.985a.495.495 0 0 1-.438.563h-.072a.495.495 0 0 1-.498-.433Zm1.109 7.98-.56-3.985a.495.495 0 0 1 .438-.563c.275-.04.54.15.57.433l.56 3.984a.495.495 0 0 1-.438.564h-.071a.495.495 0 0 1-.5-.433Zm1.12 7.97-.56-3.985a.495.495 0 0 1 .437-.563c.275-.04.54.15.57.433l.56 3.984a.495.495 0 0 1-.438.564H21.4a.495.495 0 0 1-.499-.433Zm1.108 7.97-.56-3.985a.495.495 0 0 1 .438-.563c.275-.04.54.15.57.432l.56 3.985a.495.495 0 0 1-.438.564h-.07a.495.495 0 0 1-.5-.433Zm4.61 5.605s-.03-.01-.05-.01c-2.646-.271-3.38-.563-3.705-.754a.493.493 0 0 1-.234-.363l-.071-.493a.495.495 0 0 1 .438-.563c.274-.03.539.15.57.432l.03.222c.346.13 1.17.322 3.073.523.275.03.478.272.458.553a.506.506 0 0 1-.509.453Zm8.14.443h-.02c-1.475-.04-2.839-.09-4.08-.16a.492.492 0 0 1-.478-.524c.02-.272.234-.523.529-.473 1.241.06 2.595.11 4.06.15.285 0 .498.242.498.514a.506.506 0 0 1-.508.493Zm8.141.09h-.55c-1.22 0-2.4 0-3.53-.02a.495.495 0 0 1-.499-.513c0-.281.204-.493.52-.493 1.129 0 2.31.02 3.52.02h.54c.284 0 .508.222.508.504a.501.501 0 0 1-.509.503Zm8.13-.1c-1.383.03-2.737.05-4.07.07h-.01a.506.506 0 0 1-.509-.493c0-.271.224-.503.5-.513 1.322-.02 2.685-.04 4.06-.07.254.03.508.211.518.493a.507.507 0 0 1-.498.513h.01Zm21.003-51.311a.511.511 0 0 1 .682-.232 24.239 24.239 0 0 0 3.704 1.43c.275.08.428.351.346.623a.5.5 0 0 1-.488.362s-.092 0-.143-.02a23.584 23.584 0 0 1-3.867-1.49.5.5 0 0 1-.234-.673Zm-6.43-4.88a.517.517 0 0 1 .722.02 22.762 22.762 0 0 0 2.981 2.595.507.507 0 0 1 .112.705.517.517 0 0 1-.712.1 23.438 23.438 0 0 1-3.124-2.706.503.503 0 0 1 .02-.715Zm-6.422 55.93c-1.363.06-2.727.11-4.07.15h-.02.01a.504.504 0 0 1-.509-.483c0-.281.214-.513.489-.523 1.343-.04 2.696-.09 4.06-.15.325 0 .519.2.529.482a.501.501 0 0 1-.489.523Zm.988-65.5c-.051 0-.092.02-.143.02a.521.521 0 0 1-.488-.373 24.887 24.887 0 0 1-.835-4.025.501.501 0 0 1 .448-.554c.285-.03.53.171.56.443.07.674.285 2.073.803 3.864a.508.508 0 0 1-.345.624Zm1.058 2.827c.254-.12.56 0 .671.251a24.265 24.265 0 0 0 1.944 3.442.498.498 0 0 1-.427.775.533.533 0 0 1-.428-.222 25.662 25.662 0 0 1-2.015-3.582.495.495 0 0 1 .255-.664Zm32.737 5.253a254.978 254.978 0 0 0-3.531-17.007c1.485 6.47 3.286 15.668 4.874 27.573-.814-7.507-1.333-10.566-1.333-10.566h-.01ZM79.023 3.573c.112-.02.224-.04.346-.06-.112.02-.224.04-.346.06ZM99 89.048l-34.18 1.66A790.59 790.59 0 0 0 99 89.048Z"/>
    <path fill="#152035" d="M72.125 4.72c.997-.141 1.974-.292 2.93-.443-.986.16-1.963.302-2.93.443Zm23.172 35.955c.967 8.966 2.34 24.272 3.704 48.373-.509-19.281-1.974-35.412-3.704-48.373ZM79.371 3.502c2.89-.553 5.576-1.157 8.029-1.771a155.265 155.265 0 0 1-8.029 1.771ZM64.819 90.708c-1.985.05-3.979.1-5.994.14-.04.051-.081.112-.122.162l6.116-.292v-.01ZM75.758 4.156Z"/>
    <path fill="#152035" d="M87.398 1.731a264.322 264.322 0 0 1 3.033 11.371C88.7 5.565 87.398 1.731 87.398 1.731Z"/>
    <path fill="#152035" d="M95.297 40.675C93.71 28.77 91.91 19.563 90.423 13.102a264.469 264.469 0 0 0-3.032-11.371 146.899 146.899 0 0 1-8.029 1.771c-.112.02-.224.04-.346.06a170.12 170.12 0 0 1-3.266.584l-.703.12c-.956.152-1.933.303-2.93.444-1.242.18-2.473.332-3.694.473a143.08 143.08 0 0 1-29.784.312 141.953 141.953 0 0 1-20.545-3.482c-.02.08-.03.15-.051.231-.356 1.7-.784 3.723-1.242 5.998l.6.15a.5.5 0 0 1 .377.604.51.51 0 0 1-.498.383h-.122c-.194-.05-.377-.09-.57-.141-.173.845-.346 1.72-.53 2.636a180.721 180.721 0 0 0 20.057 3.442 182.317 182.317 0 0 0 42.26-.09c1.72 10.173 3.694 30.943-6.014 53.484a91.799 91.799 0 0 1-10.176 17.792l1.221-.05a.508.508 0 0 1 .53.483.501.501 0 0 1-.489.523l-1.638.07a.494.494 0 0 1-.305-.11 89.027 89.027 0 0 1-2.687 3.421c2.005-.04 4.01-.09 5.994-.14l34.18-1.661c-1.364-24.091-2.737-39.407-3.704-48.373l.01.01ZM25.277 11.09v-.02h-.1a200.417 200.417 0 0 1-4-.796.496.496 0 0 1-.387-.593.507.507 0 0 1 .6-.383c1.303.282 2.626.544 3.98.795a.502.502 0 0 1-.092.997Zm8.02 1.298h-.072a162.147 162.147 0 0 1-4.04-.614.495.495 0 0 1-.417-.574.504.504 0 0 1 .58-.412c1.313.211 2.656.422 4.01.604.274.04.468.291.437.563a.51.51 0 0 1-.499.433Zm8.069.915h.01s-.03.01-.051.01a143.47 143.47 0 0 1-4.06-.422.507.507 0 0 1-.448-.554c.03-.271.295-.463.56-.442 1.353.16 2.707.291 4.04.412a.498.498 0 0 1-.051.996Zm8.14.564-.02-.01c-1.343-.06-2.707-.13-4.08-.221a.499.499 0 0 1-.469-.534.494.494 0 0 1 .54-.463c1.363.09 2.717.171 4.05.222a.504.504 0 0 1-.02 1.006Zm8.13.161h-.701c-1.11 0-2.239-.01-3.379-.03a.495.495 0 0 1-.498-.513c0-.282.264-.514.519-.493 1.18.02 2.34.04 3.49.03h.57a.5.5 0 0 1 .508.503.501.501 0 0 1-.508.503Zm8.172-.221c-1.343.07-2.697.12-4.08.16h-.02a.505.505 0 0 1-.51-.492c0-.282.214-.514.499-.514 1.374-.04 2.727-.09 4.06-.15.316-.04.519.2.53.472a.5.5 0 0 1-.48.524Zm8.13-.594c-1.333.13-2.686.241-4.07.342h-.03a.508.508 0 0 1-.51-.463.509.509 0 0 1 .469-.543c1.374-.1 2.717-.212 4.04-.342.274-.02.529.17.56.452a.502.502 0 0 1-.459.554Zm-2.33 73.873-4.07.19h-.02a.504.504 0 0 1-.02-1.005l4.07-.192c.284-.04.518.202.529.483a.501.501 0 0 1-.489.524Zm6.39-74.306h-.06a.521.521 0 0 1-.51-.443.515.515 0 0 1 .448-.563c1.374-.161 2.717-.342 4.02-.523.275-.03.54.15.58.422a.51.51 0 0 1-.428.574c-1.312.191-2.666.362-4.05.533Zm1.75 73.903-4.07.201h-.02a.488.488 0 0 1-.509-.473.5.5 0 0 1 .478-.523l4.07-.201a.482.482 0 0 1 .53.473.5.5 0 0 1-.478.523Zm.723-48a.512.512 0 0 1 .662-.282 15.1 15.1 0 0 0 3.795.956c.275.03.478.281.448.553a.513.513 0 0 1-.509.443h.02s-.04.01-.06.01a15.893 15.893 0 0 1-4.07-1.026.499.499 0 0 1-.286-.655ZM87.89 86.26l-4.07.222h-.03a.51.51 0 0 1-.51-.473.515.515 0 0 1 .479-.534l4.07-.22c.295-.031.52.2.54.472a.508.508 0 0 1-.479.533Zm1.059-45.988a.5.5 0 0 1-.072-.996 14.534 14.534 0 0 0 3.755-1.127c.255-.12.56 0 .672.252a.495.495 0 0 1-.255.664 15.554 15.554 0 0 1-4.019 1.207h-.081Zm7.082 45.536s-1.506.09-4.07.231h-.03a.516.516 0 0 1-.51-.473.508.508 0 0 1 .479-.533c2.564-.141 4.07-.232 4.07-.232a.491.491 0 0 1 .54.473.501.501 0 0 1-.48.534ZM7.164 90.185l5.403.221c-1.81-.06-3.612-.14-5.403-.22Z"/>
    <path fill="#152035" d="m12.567 90.406 4.193-28.589-9.596 28.368c1.791.08 3.592.161 5.403.221Z"/>
    <path fill="#384A6D" d="M18.895 34.858h.041a.508.508 0 0 0 .509-.463l.346-4.015a.51.51 0 0 0-1.018-.08l-.346 4.015a.508.508 0 0 0 .468.543Zm-.691 8.021h.04a.508.508 0 0 0 .51-.463l.345-4.015a.51.51 0 0 0-1.017-.08l-.346 4.014a.508.508 0 0 0 .468.544Zm1.394-16.041h.041a.508.508 0 0 0 .509-.463l.346-4.015a.508.508 0 0 0-.468-.543c-.265 0-.53.181-.55.463l-.346 4.015a.508.508 0 0 0 .468.543Zm.704-8.02h.04a.508.508 0 0 0 .509-.463l.346-4.015a.508.508 0 0 0-.468-.544c-.275 0-.53.181-.55.463l-.346 4.015a.508.508 0 0 0 .469.544ZM18.58 49.712l-.183-1.289a.507.507 0 0 0-.468-.432.525.525 0 0 0-.53.362l-.773 2.616a.503.503 0 0 0 .489.644h.01a.5.5 0 0 0 .489-.362l.295-.996a.6.6 0 0 0 .234.02.495.495 0 0 0 .437-.563Zm-2.463 4.79a.503.503 0 0 0-.631.342l-1.14 3.864a.495.495 0 0 0 .346.624c.05.02.143.02.143.02a.5.5 0 0 0 .488-.362l1.14-3.864a.495.495 0 0 0-.346-.624Zm3.565 3.199-.56-3.985c-.03-.282-.295-.463-.57-.433a.495.495 0 0 0-.437.564l.56 3.985c.03.252.244.433.498.433h.071a.495.495 0 0 0 .438-.564Zm1.105 7.98-.56-3.985a.498.498 0 0 0-.57-.432.495.495 0 0 0-.437.563l.56 3.985c.03.252.244.433.498.433h.072a.494.494 0 0 0 .437-.564ZM9.3 77.687a.503.503 0 0 0-.63.342l-1.14 3.864a.496.496 0 0 0 .346.624c.05.02.142.02.142.02a.5.5 0 0 0 .489-.362l1.14-3.864a.496.496 0 0 0-.347-.624Zm12.608-4.036-.56-3.984a.498.498 0 0 0-.57-.433.495.495 0 0 0-.437.563l.56 3.985c.03.252.244.433.499.433h.07a.495.495 0 0 0 .438-.564ZM13.851 62.23a.503.503 0 0 0-.63.342l-1.14 3.864a.495.495 0 0 0 .345.624c.051.02.143.02.143.02a.5.5 0 0 0 .488-.362l1.14-3.865a.495.495 0 0 0-.346-.623Zm-2.281 7.728a.51.51 0 0 0-.631.343l-1.14 3.864a.495.495 0 0 0 .346.624c.051.02.143.02.143.02a.5.5 0 0 0 .488-.362l1.14-3.865a.496.496 0 0 0-.346-.624ZM6.787 86.663a.512.512 0 0 0 .488-.363l.081-.261a.503.503 0 0 0-.346-.624.511.511 0 0 0-.59.241h-.753l-.03 1.007h1.16-.01Zm44.225.121c-1.374.03-2.737.05-4.06.07a.514.514 0 0 0-.499.513c0 .282.234.493.509.493 1.333-.02 2.686-.04 4.07-.07a.507.507 0 0 0 .499-.513c0-.282-.265-.463-.52-.493Zm8.13-.262c-1.363.06-2.717.11-4.06.15a.515.515 0 0 0-.488.524c.01.272.234.483.508.483h.01c1.344-.04 2.707-.09 4.071-.15a.501.501 0 0 0 .489-.524c0-.282-.204-.483-.53-.483Zm-32.471-.171c-1.903-.201-2.727-.392-3.073-.523l-.03-.222c-.031-.281-.296-.462-.57-.432a.495.495 0 0 0-.438.563l.071.493c.02.151.102.282.234.363.326.19 1.059.483 3.704.754h.051a.49.49 0 0 0 .509-.442.516.516 0 0 0-.458-.554Zm-3.653-4.73-.56-3.985a.498.498 0 0 0-.57-.432.495.495 0 0 0-.437.563l.56 3.985c.03.252.244.433.498.433h.071a.495.495 0 0 0 .438-.564ZM42.9 86.884h-.54c-1.21 0-2.39-.01-3.52-.02-.316 0-.52.212-.52.493a.495.495 0 0 0 .5.514c1.129.02 2.31.02 3.53.02h.55a.501.501 0 0 0 .508-.504.501.501 0 0 0-.508-.503Zm-8.13-.09c-1.465-.04-2.818-.09-4.06-.151-.295-.05-.509.201-.529.473a.492.492 0 0 0 .478.523c1.242.07 2.605.12 4.08.16h.021a.505.505 0 0 0 .509-.492.507.507 0 0 0-.499-.513Z"/>
    <path fill="#26324F" d="M61.309 87.045c0 .161.092.292.204.373.233-.312.457-.604.691-.916l-.407.02a.501.501 0 0 0-.488.523Zm21.969-1.036a.51.51 0 0 0 .508.473h.031l4.07-.222a.508.508 0 0 0 .479-.533c-.02-.272-.245-.503-.54-.473l-4.07.221a.515.515 0 0 0-.478.534Zm8.142-.443c.02.262.243.473.508.473h.03c2.565-.141 4.07-.232 4.07-.232a.5.5 0 0 0 .48-.533.491.491 0 0 0-.54-.473s-1.506.09-4.07.232a.508.508 0 0 0-.479.533Zm-23.903 1.711h.02l4.07-.192a.5.5 0 0 0 .489-.523c-.01-.282-.244-.523-.53-.483l-4.07.191a.504.504 0 0 0 .02 1.006Z"/>
    <path fill="#26324F" d="m61.82 87.528 1.638-.07a.501.501 0 0 0 .488-.523.508.508 0 0 0-.529-.484l-1.221.05c-.234.313-.458.605-.692.916a.51.51 0 0 0 .305.111h.01Zm13.838-.634.02-.01 4.07-.201a.5.5 0 0 0 .478-.523.482.482 0 0 0-.529-.473l-4.07.201a.504.504 0 0 0 .03 1.006Zm13.288-46.622h.081a15.555 15.555 0 0 0 4.02-1.207.495.495 0 0 0 .254-.665.505.505 0 0 0-.672-.251c-1.2.543-2.462.925-3.755 1.127a.5.5 0 0 0 .071.996Zm-8.476-1.59a.499.499 0 0 0 .284.654c1.313.524 2.676.866 4.07 1.027h.062-.02a.531.531 0 0 0 .508-.453.507.507 0 0 0-.448-.553 15.105 15.105 0 0 1-3.795-.956.512.512 0 0 0-.662.281Z"/>
    <path fill="#384A6D" d="M72.27 37.153a23.583 23.583 0 0 0 3.867 1.49.5.5 0 0 0 .142.02.5.5 0 0 0 .489-.363.495.495 0 0 0-.346-.624 24.25 24.25 0 0 1-3.704-1.429.511.511 0 0 0-.682.232.5.5 0 0 0 .234.674Zm-3.562-2.133a.517.517 0 0 0 .712-.1.507.507 0 0 0-.112-.706 22.777 22.777 0 0 1-2.981-2.596.517.517 0 0 0-.722-.02.503.503 0 0 0-.02.714 23.437 23.437 0 0 0 3.123 2.707Zm-5.292-5.696a.498.498 0 0 0 .427-.775 24.264 24.264 0 0 1-1.944-3.442.505.505 0 0 0-.671-.251.494.494 0 0 0-.255.664 25.653 25.653 0 0 0 2.015 3.582.534.534 0 0 0 .428.222ZM59.71 17.54a.504.504 0 0 0-.56-.443.501.501 0 0 0-.448.554c.082.704.295 2.173.835 4.025a.5.5 0 0 0 .488.362h.143a.508.508 0 0 0 .346-.624c-.52-1.79-.733-3.19-.804-3.864v-.01Z"/>
    <path fill="#26324F" d="M17.175 9.379h.112a.51.51 0 0 0 .499-.383.5.5 0 0 0-.377-.603c-.203-.05-.396-.101-.6-.151-.061.322-.132.654-.204.986.194.05.377.1.57.14v.01Zm24.24 2.928c-1.333-.12-2.686-.252-4.04-.412-.264-.02-.529.17-.56.442a.507.507 0 0 0 .448.554c1.364.16 2.717.302 4.06.422h.051-.01a.516.516 0 0 0 .509-.463.498.498 0 0 0-.458-.543Zm16.219.715h-.57c-1.15.01-2.31-.01-3.49-.03a.507.507 0 0 0-.52.492c0 .282.214.514.5.514 1.139.02 2.268.03 3.378.03h.702a.501.501 0 0 0 .509-.503.501.501 0 0 0-.51-.503Zm-8.11-.162c-1.333-.05-2.686-.13-4.05-.22a.494.494 0 0 0-.539.462.499.499 0 0 0 .468.533c1.374.09 2.737.161 4.08.222h.02a.489.489 0 0 0 .51-.473.507.507 0 0 0-.489-.524Zm-24.155-2.767a138.508 138.508 0 0 1-3.979-.795.507.507 0 0 0-.6.383.496.496 0 0 0 .386.593c1.313.272 2.646.544 4 .795h.09v.02a.504.504 0 0 0 .51-.412.503.503 0 0 0-.407-.584Zm40.385 2.717c-1.333.06-2.686.11-4.06.151a.501.501 0 0 0-.499.513c.01.282.234.493.51.493h.02c1.383-.04 2.737-.09 4.08-.16a.5.5 0 0 0 .478-.524c0-.272-.213-.513-.529-.473Zm16.722-1.137c-.04-.272-.305-.453-.58-.423-1.302.181-2.646.363-4.02.524a.515.515 0 0 0-.447.563.52.52 0 0 0 .509.443h.06a189.46 189.46 0 0 0 4.05-.533.51.51 0 0 0 .428-.574Zm-8.643.534c-1.322.13-2.666.241-4.04.342a.509.509 0 0 0-.467.543c.02.262.244.463.508.463h.03c1.385-.1 2.738-.211 4.071-.342a.502.502 0 0 0 .458-.554.518.518 0 0 0-.56-.453Zm-40.478-.816a152.466 152.466 0 0 1-4.009-.604.504.504 0 0 0-.58.413.495.495 0 0 0 .417.574 161.6 161.6 0 0 0 4.04.613h.071a.51.51 0 0 0 .499-.432.515.515 0 0 0-.438-.564Z"/>
    <path fill="#42587A" d="M3.003 86.663a.501.501 0 0 1-.508-.503.5.5 0 0 1 .508-.504H5.67c.835-22.752 6.625-54.833 10.41-73.782a199.02 199.02 0 0 1-7.245-1.811 599.703 599.703 0 0 0-5.77 40.03 600.616 600.616 0 0 0-3.052 39.75c1.842.1 3.704.19 5.566.281 0-1.117.03-2.274.06-3.451H3.015l-.01-.01Z"/>
    <path fill="#fff" d="M8.824 10.053Z"/>
    <path fill="#26324F" d="M10.707 0v.02c-.6 3.07-1.19 6.209-1.76 9.379-.041.221-.082.443-.123.654 2.3.634 4.732 1.238 7.245 1.811.184-.905.357-1.79.53-2.636a548.89 548.89 0 0 1-3.389-.845.5.5 0 0 1-.366-.614.507.507 0 0 1 .62-.363 200.8 200.8 0 0 0 3.338.836c.468-2.275.885-4.297 1.242-5.998.02-.08.03-.15.05-.231A144.272 144.272 0 0 1 10.697 0h.01Z"/>
    <path fill="#6F88AD" d="M2.495 86.16a.5.5 0 0 0 .508.503H5.63l.03-1.006H2.993a.501.501 0 0 0-.509.503h.01Z"/>
    <path fill="#384A6D" d="M12.853 7.779a.5.5 0 0 0 .366.614c1.11.281 2.239.563 3.389.845.07-.332.132-.664.203-.986-1.13-.272-2.249-.554-3.338-.836a.507.507 0 0 0-.62.363Z"/>
  </g>
  <defs>
    <clipPath id="a">
      <path fill="#fff" d="M0 0h99v91H0z"/>
    </clipPath>
  </defs>
</svg>
