<svg xmlns="http://www.w3.org/2000/svg" width="107" height="79" fill="none" viewBox="0 0 107 79">
  <path fill="#EBA741" d="m94.012 37.914 11.836 4.626a.66.66 0 0 1 .125 1.144l-10.657 7.229-1.304-12.999Z"/>
  <path fill="#EBA741" d="m95.313 50.913 11.228 4.556a.66.66 0 0 1 .124 1.145l-10.57 7.224s-.14-3.961-.207-5.172c-.107-2.028-.58-7.757-.58-7.757l.005.004Zm.787 12.924 6.121 2.64a.38.38 0 0 1 .071.66l-6.233 4.276.041-7.576Z"/>
  <path fill="#E47D3A" d="m105.85 42.54-.228-.09c-.041.029-.079.062-.116.09-1.263.934-2.895 1.587-4.444 1.905-2.261.458-4.315.557-6.39.033l.646 6.435 10.656-7.228a.658.658 0 0 0-.124-1.144Zm.697 12.929-.559-.227c-2.116 2.701-5.318 5.014-8.78 4.965a4.378 4.378 0 0 1-1.251-.199c.062 1.496.133 3.482.145 3.788.054-.025.108-.045.161-.066l10.408-7.117a.658.658 0 0 0-.124-1.144Zm-4.33 11.008-.629-.272a2.522 2.522 0 0 1-.597.656c.385-.297-.178.161-.24.22-.133.119-.265.243-.398.367-.38.351-.774.698-1.2.995-.817.575-1.968.938-2.962.694-.041-.012-.079-.029-.12-.045l-.012 2.317 6.233-4.275a.38.38 0 0 0-.071-.66l-.004.003Z"/>
  <path fill="#399652" d="M14.948.004s36.802 12.891 75.687 0c0 0 6.535 61.128 6.154 72.074 0 0-11.931 7.013-40.156 4.527 0 0-1.794-7.005-6.097-35.073L46.188 76.06s-24.655 7.57-35.94-4.548c0 0-1.016-17.456 1.569-41C14.19 8.89 14.952.004 14.952.004h-.004Z"/>
  <path fill="#1A7A58" d="M67.61 77.084c21.06.723 29.173-5.01 29.173-5.01C97.163 62.685 90.629 0 90.629 0c-1.806.52-3.848 1.053-5.641 1.479 2.903 13.474 17.746 66.737-17.382 75.601l.004.004Z"/>
  <path fill="#EBA741" d="M11.278 38.761.713 43.631a.66.66 0 0 0-.091 1.148l10.325 6.927.331-12.945Z"/>
  <path fill="#EBA741" d="M10.95 51.702.385 56.572a.66.66 0 0 0-.091 1.148l10.768 6.927-.112-12.945Z"/>
  <path fill="#EBA741" d="m11.06 64.647-6.042 2.809a.381.381 0 0 0-.054.66l6.353 4.098-.257-7.57v.003Z"/>
  <path fill="#E47D3A" d="M7.888 45.717c-2.878.822-4.92-.822-7.293-2.003a.655.655 0 0 0 .041 1.061l10.325 6.927.212-8.282a6.164 6.164 0 0 1-3.289 2.297h.004Zm2.911 10.393c-.17.636-.402 1.263-.8 1.788-.811 1.074-2.182 1.632-3.503 1.718-2.295.145-4.58-.9-6.457-2.288a.655.655 0 0 0 .27.392l10.767 6.927-.083-9.43c-.033.298-.12.612-.194.892ZM7.895 69.996l3.441 2.222-.132-3.878c-.796.913-2.03 1.487-3.31 1.656Z"/>
  <path fill="#1A7A58" d="M74.692 69.253c.348-1.52.088-3.185-.873-4.461a2.447 2.447 0 0 1-.096-.124c-.004-.009-.012-.017-.016-.021-.534-.686-1.098-1.219-1.984-1.466a5.275 5.275 0 0 0-1.918-.384c-3.296-.03-5.64 3.994-4.808 6.96.886 3.163 4.601 4.493 7.385 2.816a4.864 4.864 0 0 0 1.59-1.56 2.62 2.62 0 0 0 .67-1.364c.022-.132.038-.264.055-.392l-.005-.004Zm6.205-13.593a3.466 3.466 0 0 0-.907-1.55l-.713-.549a3.497 3.497 0 0 0-1.776-.48h-.158a2.673 2.673 0 0 0-1.354.302c-.435.14-.816.384-1.135.727a2.647 2.647 0 0 0-.729 1.132c-.22.417-.323.867-.302 1.35l.124.934c.166.595.468 1.111.907 1.55l.713.549c.55.318 1.143.479 1.776.479h.158c.484.016.936-.083 1.354-.302.435-.14.816-.384 1.135-.727.344-.318.584-.694.729-1.132.22-.417.323-.867.302-1.35l-.124-.934Zm-9.272.458-.037-.285a2.365 2.365 0 0 0-.042-.294c-.029-.099-.079-.194-.116-.285-.149-.346-.17-.392-.476-.735-.36-.405-.982-.632-1.55-.607-.057 0-.11-.008-.173-.004l-.55.074c-.353.1-.655.277-.916.533-.108.14-.216.277-.323.417-.187.322-.282.67-.282 1.041l.025.504c-.012.285.05.55.178.797.083.256.228.48.427.665.14.108.277.215.418.322.323.186.67.281 1.044.281.103 0 .223-.024.319-.037.099-.012.215-.02.314-.045a2.57 2.57 0 0 0 .265-.112c.091-.037.178-.074.265-.111.013-.009.025-.013.038-.02.074-.059.149-.117.227-.174.08-.054.154-.112.224-.174.008-.008.02-.02.03-.033.078-.083.285-.326.372-.5.066-.132.178-.384.22-.524l.012-.054c.016-.095.029-.19.037-.285.017-.1.03-.198.037-.297v-.054l.013-.004Zm7.15-41a2.216 2.216 0 0 0-.613-.095c-2.224-1.371-5.553-.128-5.86 2.817-.373 3.606 3.541 5.82 6.76 5.34 1.966-.293 3.329-1.965 3.275-3.94-.054-2.07-1.677-3.564-3.562-4.122ZM27.76 50.178c-1.47-.983-3.976-.413-4.507 1.388-.34 1.16.324 2.337 1.388 2.829.091.041.186.082.282.116.75.582 1.805.718 2.68.243.65-.355 1.167-1.008 1.312-1.739.228-1.136-.19-2.189-1.16-2.837h.005Zm-.106-11.434c-1.048-1.321-2.933-2.131-4.577-1.507a2.743 2.743 0 0 0-1.255.941c-1.122.653-1.975 1.797-2.083 3.181-.236 3.052 2.9 5.448 5.794 4.444 3.003-1.04 4.113-4.547 2.12-7.059Zm8.64 7.039a1.546 1.546 0 0 0-.245-.768c-.285-.442-.708-.83-1.238-.95-.439-.1-.928-.1-1.346.078-.36 0-.716.083-1.031.264-.43.253-.84.744-.953 1.236-.12.528-.095 1.123.207 1.59.286.446.709.822 1.239.95.538.128.94.115 1.482.02.079-.012.15-.033.224-.057.228-.083.472-.174.675-.306.452-.293.808-.706.953-1.235.087-.273.099-.55.037-.822h-.004ZM25.258 67.307c-1.069-.599-2.32-.4-3.235.372-.389.33-.646.81-.807 1.289-.178.529-.125 1.028-.038 1.57.075.479.551 1 .953 1.234a2.19 2.19 0 0 0 1.002.281c.253.112.53.178.829.186 1.18.03 2.253-.834 2.56-1.954.314-1.148-.229-2.395-1.264-2.974v-.004Zm14.862-7.253c-.812-.85-2.175-.925-3.165-.372-.426.24-.778.595-1.03 1.012a2.43 2.43 0 0 0-.266.653c-.124.491-.079.78 0 1.272.07.438.468.905.84 1.16.059.075.113.15.183.216l.418.322c.323.186.671.28 1.044.28a.672.672 0 0 0 .128 0 3.1 3.1 0 0 0 .613-.086c.22-.062.468-.161.663-.29.393-.251.754-.602.97-1.02.546-1.057.43-2.28-.407-3.151l.009.004Z"/>
  <path fill="#66B673" d="M14.947.017s-.762 8.88-3.135 30.508c-2.58 23.544-1.57 40.987-1.57 40.987.737.79 2.472 2.177 3.296 2.834.394-5.486.601-8.443.601-14.205 0-6.2 4.523-44.065 6.279-58.534-3.504-.9-5.471-1.59-5.471-1.59Z"/>
  <path fill="#1A7A58" d="M46.182 76.06s-9.51 2.767-19.565 2.218c0 0 12.785-5.324 16.057-13.63 3.276-8.311 5.074-26.436 6.548-27.622 1.474-1.185 1.309 4.507 1.309 4.507"/>
</svg>
