<svg xmlns="http://www.w3.org/2000/svg" width="116" height="92" fill="none" viewBox="0 0 116 92">
  <g clip-path="url(#a)">
    <path fill="#399551" d="M25.71 2.143s11.368 5.438 28.507 6.142c1.863.074 4.168.154 6.035.224 0 0 .19-.55 1.027-.522 14.43.503 28.901-.068 39.22-3.987V1.5s2.423 1.5 3.044 2.745c1.05 2.106 1.309 8.525.956 9.755-.353 1.23-3.056 3.054-4.807 3.054-1.752 0-40.23 7.544-73.987-3.159 0 0-1.766-.41-1.766-2.139 0-1.728-1.36-7.092-.31-10.153C23.998.5 25.498.5 25.498.5l.21 1.639v.004Z"/>
    <path fill="#399551" d="m25.711 13.895-4.557 24.5-1.97 10.587-3.355 10.699.832 2.847-.34 1.826s-1.746 1.375-2.271 2.242c-.488.81.994 2.903.994 2.903-.13.652-1.682.638-1.821 1.276-.395 1.771.204 1.701.6 2.41 0 0 19.066 11.401 45.999 6.667 0 0 37.604 2.633 52.295-4.734 0 0 1.245-1.645.785-2.567-.46-.923-2.49-1.906-2.49-2.633 0-.727 3.475-1.58 3.215-3.024-.261-1.445-1.901-3.42-1.901-3.42l-8.701-49.579H25.711Z"/>
    <path fill="#399551" d="M13.817 73.19s-.655-.043-.702 1.052c-.042 1.095-.218 7.982-.218 7.982s-.344 1.403.464 1.84c.804.439 13.05 8.598 32.29 7.894 19.239-.703 17.055-2.544 17.055-2.544l-2.885-9.561-22.881.843-23.119-7.507h-.004Z"/>
    <path fill="#399551" d="m59.816 79.857 2.886 9.561s19.852 2.018 31.397 0c11.545-2.017 21.515-6.728 21.864-8.41.348-1.682-1.798-6.799-3.847-5.89-.962.424-9.32 2.67-21.339 3.686-13.585 1.146-30.96 1.053-30.96 1.053Z"/>
    <path fill="#1A7957" d="M25.712 13.895s15.661 4.627 34.435 5.247c.433.014.112 1.528.544 1.57 17.673 1.77 31.992-1.454 42.603-5.237l1.376 7.847s-51.677 3.727-78.963-9.427h.005Z"/>
    <path fill="#1A7957" d="M22.258 32.44S37.718 35.821 37.499 18c-.013-1.058-9.5-3-9.5-3l-1.5-1-2.5-2-1.741 20.44Zm61.176-11.89s1.923 18.61 19.043 14.751l-3.224-18.498-15.82 3.746Z"/>
    <path stroke="#1A7957" stroke-miterlimit="10" stroke-width="2" d="m59.816 8.508.878 28.191"/>
    <path fill="#396136" d="M67.092 17.222a2.69 2.69 0 0 0 2.685-2.693 2.69 2.69 0 0 0-2.685-2.694 2.69 2.69 0 0 0-2.686 2.694 2.69 2.69 0 0 0 2.686 2.693Z"/>
    <path fill="#1A7957" d="M58.594 36.63a31.183 31.183 0 0 1 2.852-.49c.474-.06.953-.247 1.427-.14.52.098.985.27 1.426.63v.14c-.878.712-1.812.75-2.853.488a31.183 31.183 0 0 1-2.852-.489v-.14Z"/>
    <path fill="#E7D6CB" d="M66.623 16.803a2.69 2.69 0 0 0 2.685-2.694 2.69 2.69 0 0 0-2.685-2.693 2.69 2.69 0 0 0-2.686 2.693 2.69 2.69 0 0 0 2.686 2.694Z"/>
    <path fill="#1A7957" d="m99.478 16.76-.459.075 4.733 29.37.459-.074-4.733-29.37ZM19.342 48.13l10.741.852-12.2 4.152 1.459-5.005Zm67.58-1.958 4.07 8.509h8.887s1.738 4.296 4.93 4.515l3.847-.307s-3.936-2.806-4.284-4.516c0 0 4.739.471 5.673-.442l-.776-3.942-22.347-3.817Z"/>
    <path fill="#1A7957" d="m30.96 45.474-3.238 9.473v3.68l1.18 3.51-1.18 1.756-11.062-1.365 11.062 2.94 3.238-2.278-.878-4.926.878-12.79Z"/>
    <path fill="#5FB366" d="m32.028 42.207-2.272 6.775h-9.004a6.422 6.422 0 0 1-2.973-.731l-.474-.252 3.178-6.034 1.268.303c.985.233 1.993.33 3.001.284l7.271-.345h.005Z"/>
    <path fill="#106354" d="m28.902 62.136-13.074-2.455.832 2.847 11.062 1.365 1.18-1.757Z"/>
    <path fill="#5FB366" d="M86.922 46.172s12.702 1.971 17.06 0l4.358-1.97 2.378 6.854s-3.187 1.845-5.352 2.078c-2.165.233-14.235 0-14.235 0l-4.204-6.962h-.005Z"/>
    <path fill="#1A7957" d="m86.922 46.172.99 10.177v7.544l-.493 3.155 1.784 1.053 3.238-1.93-1.663-2.278.172-2.106-4.028-15.615ZM60.546 89.717s2.202-.2 2.16-1.613l-.218-7.096s-1.529.624-2.23.708l.288 8Z"/>
    <path fill="#106354" d="m89.203 68.1 13.018 1.403h5.171l4.33-6.03-5.027 1.995-3.754 1.02-10.5-.316-3.238 1.929Z"/>
    <path fill="#1A7957" d="m89.203 68.1 5.37 2.457h5.892l7.104 1.053 2.843-1.687s-.093-.159 1.203-.96c1.296-.801 2.044-1.202 2.003-1.738-.042-.536-.256-2.148-1.896-3.746l-4.33 6.03-18.189-1.403V68.1Zm18.58 3.437-.439.152 1.574 4.562.439-.152-1.574-4.562Zm-93.967 1.652s23.263 12.26 48.188 7.819v-2.204s-30.788 5.004-48.782-8.02c0 0-.655 1.59.6 2.41l-.006-.005Z"/>
    <path fill="#196961" d="M62.004 81.008s30.696 3.322 50.111-5.89c0 0 1.491-1.761.785-2.567 0 0-4.808 7.04-50.896 6.248v2.209Z"/>
    <path fill="#1A7957" d="m24.672 77.41 19.234.34.827-4.561 5.338-4.39-1.268-4.03 7.303-8.728.525-11.84 5.422 1.966c3.085 0 2.964 4.52 2.676 7.209l-.427 14.58-3.248 9.119.953 4.632-19.504.35s-15.378-1.646-17.831-4.642v-.005Z"/>
    <path fill="#1A7957" d="m62.004 81.008.701 8.41 4.41.303s-.474-6.039-1.125-8.299l-3.981-.41-.005-.004Z"/>
    <path fill="#1A7957" d="M32.205 88.976c6.24.955 22.101 1.267 30.301-1.934l.195 2.372s.177.056.038.303c-.14.247 1.268 1.784-16.266 2.209-17.534.424-26.236-4.436-29.887-6.063-3.652-1.626-3.768-1.715-3.694-3.644.037-.969 12.419 5.704 19.309 6.752l.004.005Z"/>
    <path fill="#1A7957" d="M62.508 87.047s19.699 1.84 28.006 0c8.306-1.84 20.46-4.492 25.009-8.649 0 0 1.291 2.577-.576 3.733-1.868 1.155-12.28 11.672-52.244 7.287l-.195-2.371Z"/>
    <path fill="#196961" d="M56.659 44.09c1.881.503 7.763 1.789 8.12 3.974.136 2.171.382 7.409.489 9.645.093 2.079.172 4.157.288 6.235-.34 1.985-.525 4.007-.93 5.978-.566 1.617-1.602 4.255-2.127 5.34-.47 1.794-1.13 3.845-.405 5.666l-.171.159c-.47-.312-.823-.816-1.055-1.337-.674-1.617-.734-3.402-.427-5.117.585-1.85 1.226-3.75 1.942-5.55l-.056.196c.38-1.864.855-3.713 1.259-5.572l-.019.2c.047-2.05.056-4.105.08-6.16.032-2.227.116-7.437.167-9.613-.019-.238-.219-.443-.423-.638-1.12-.956-2.56-1.543-3.926-2.12a45.158 45.158 0 0 0-2.871-1.063l.06-.224h.005Z"/>
    <path fill="#196961" d="M60.547 49.938c.409-.625.92-1.17 1.52-1.627.296-.223.58-.554.984-.592.437-.05.869.029 1.24.336l.02.14c-.289.433-.53.652-.795.843-.251.205-.609.159-.93.261-.316.103-.636.215-.961.34-.33.112-.65.261-.985.401l-.093-.102Z"/>
    <path fill="#1A7957" d="M99.531 53.236s.809 5.042 3.522 5.22h3.642s-3.651-2.19-3.749-5.22h-3.415Z"/>
    <path fill="#5FB366" d="M101.016 57.137c.511.717 1.18 1.258 2.039 1.314h3.643s-2.045-1.226-3.113-3.108a3.28 3.28 0 0 1-2.495 1.784l-.07.01h-.004Z"/>
    <path fill="#1A7957" d="M18.402 48.53s-.869 3.104-2.086 3.532c-.58.205-1.245.215-1.789.168.112.256.19.531.237.81.902-.018 2.068-.172 2.76-.777 1.245-1.086 1.617-3.486 1.617-3.486l-.748-.247h.01Zm92.009 21.393-9.394 5.088s-.799 2.684-.019 2.549c9.218-1.594 11.908-5.01 11.908-5.01l-2.49-2.632-.005.005ZM14.047 66.6s9.213 4.394 11.662 4.483c2.448.088 5.096 0 5.096 0l3.3 1.053-2.844.415-6.593.633-9.626-3.685s-1.543-1.328-.995-2.903v.004Z"/>
    <path fill="#5FB366" d="m20.488 41.965 2.75.55L25 32.5l-2.742-.06-1.77 9.525Zm-3.829 20.563 1.589.424-.944 1.86s-2.202 1.882-2.257 2.254l-1.004-.47s1.101-1.692 2.272-2.242l.339-1.826h.005Zm-3.44 8.252 1.366.936s-.089-1.076.26-1.915c0 0-.502.299-1.069.49-.566.19-.553.489-.553.489h-.004Zm2.931 3.518s-.975.336-1.063.774c-.089.438.255 7.8.255 7.8l-2.444-.652.19-8.378s.117-.485.726-.657l2.332 1.109.005.004Z"/>
    <path fill="#399551" d="m22.238 32.649 2.742.06 1.5-16.5L23.998 12l-1.76 20.649Z"/>
    <path fill="#5FB366" d="M25.499.5s-.412.725-.575 2.617c-.325 3.765-.06 9.767 1.729 10.988 0 0-1.231-.06-2.114-.881-.883-.82-1.04-2.224-1.04-2.224s-.493-5.325-.261-7.058c.232-1.733.063-3.54 2.26-3.442Z"/>
  </g>
  <defs>
    <clipPath id="a">
      <path fill="#fff" d="M0 0h116v92H0z"/>
    </clipPath>
  </defs>
</svg>
