<svg xmlns="http://www.w3.org/2000/svg" width="101" height="66" fill="none" viewBox="0 0 101 66">
  <g clip-path="url(#a)">
    <path fill="#9F9F9F" d="M6.56 18.418c-1.836 11.53-3.673 23.069-5.51 34.588l5.51-34.588Zm7.221-16.345c.561.134 1.03.237 1.296.299.898.206 1.795.402 2.703.588.98.216 1.97.422 2.949.598a144.52 144.52 0 0 0 9.957 1.557c14.711 1.794 29.596 1.392 44.41-1.165.989-.165 1.989-.34 2.989-.547a65.57 65.57 0 0 0 2.764-.557c.95-.175 5.856-1.33 7.784-1.825-.07-.33-.142-.67-.214-1a243.8 243.8 0 0 1-39.451 3.217c-12.977 0-24.75-1.042-35.044-2.547h.072l-.205 1.382h-.01Zm-7.039 53.15c.878.3 1.765.578 2.663.836l.306-1.877 7.57-46.334v-.093a83.22 83.22 0 0 1-2.683-.588l-.03.206-7.826 47.85Zm10.734 5.807a70.935 70.935 0 0 1-12.079-3.022l-.561 3.754a61.202 61.202 0 0 0 17.996 4.094 60.836 60.836 0 0 0 23.118-2.847c.163-1.134.306-2.268.47-3.403-5.938 1.526-11.947 2.3-17.936 2.3a70.57 70.57 0 0 1-11.008-.866v-.01ZM.55 56.141c-.183 1.155-.366 2.32-.55 3.475l.55-3.475ZM0 59.617a64.897 64.897 0 0 0 4.795 2.124L0 59.617Z"/>
    <path fill="#9F9F9F" d="M99.9 52.15v-.02c-3.407-15.48-6.815-30.99-10.233-46.468-1.734.453-3.397.866-5.141 1.278h-.01c-.98.227-1.97.444-2.949.66-.918.196-1.846.382-2.765.557-1 .186-2 .382-2.989.547-8.967 1.557-17.955 2.351-26.923 2.351a153.76 153.76 0 0 1-18.486-1.114 166.688 166.688 0 0 1-10.182-1.588h-.01l-7.672 46.87-.255 1.62c1.857.453 3.734.835 5.632 1.134 9.64 1.516 19.373.938 28.953-1.691.296-2.218.612-4.424.908-6.642l-9.712-6.95 3.336 1c2.03.609 4.142.856 6.254.722l.857-.062 2.672.134a21.817 21.817 0 0 0 5.112-.36l4.264-.815-10.977 6.59-1.082-5.528c.95 4.919 1.898 9.828 2.837 14.757.102.536.214 1.083.306 1.619.173.866.326 1.743.5 2.61a61.916 61.916 0 0 0 17.618 2.433c14.416-.124 25.414-5.332 31.219-8.673-.245-1.134-.5-2.28-.745-3.413-.123-.516-.225-1.042-.347-1.558h.01Z"/>
    <path fill="#2B2B2B" d="M13.08 6.806 5.867 54.893c.296.103.582.227.878.32l7.824-47.84.031-.206h-.02c-.5-.113-1-.237-1.51-.36h.01Zm4.202 1.042-7.57 46.334-.306 1.877c.96.278 1.928.546 2.898.783l.255-1.619 7.672-46.87a105.3 105.3 0 0 1-2.928-.598v.093h-.02Z"/>
    <path fill="#7B7A7A" d="M9.251.97c-.173 1.257-.479 3.526-.673 4.712L9.323.99S9.272.98 9.24.97h.01Zm80.16 3.485.03.144c.082.35.154.712.236 1.062 0 0-.806-4.702-.817-4.692-.06.02-.142.031-.204.052.153.701.316 1.402.46 2.104.101.453.203.886.295 1.33ZM78.088 3.403c-1 .206-2 .382-2.99.547C60.275 6.507 45.4 6.91 30.688 5.115a144.526 144.526 0 0 1-9.956-1.557 74.617 74.617 0 0 1-2.949-.598c-.908-.186-1.805-.382-2.703-.588-.265-.062-.735-.165-1.296-.3l-.296 1.94a72.8 72.8 0 0 0 1.582.299l-.47 2.846a86.45 86.45 0 0 0 2.683.588l.153-.949.327-2.01c.98.174 1.969.34 2.948.484l-.336 2.093-.164.96v.02c3.398.64 6.795 1.165 10.182 1.588a153.746 153.746 0 0 0 18.486 1.114c8.968 0 17.956-.794 26.923-2.351.99-.165 1.99-.361 2.99-.547.918-.175 1.846-.36 2.764-.557.98-.216 1.97-.433 2.948-.66h.01c1.735-.412 3.398-.825 5.143-1.279-.082-.35-.153-.711-.235-1.062l-.03-.144c-.103-.444-.205-.877-.296-1.33l-.46-2.104c-1.928.495-6.835 1.65-7.784 1.825a65.57 65.57 0 0 1-2.764.557v.01Z"/>
    <path fill="#7B7A7A" d="M14.58 7.167h.02l.47-2.846c-.53-.093-1.05-.206-1.581-.299l-.419 2.795c.5.123 1.01.247 1.51.36v-.01Zm5.804.207.337-2.094a97.56 97.56 0 0 1-2.948-.485l-.327 2.011-.153.95c.98.216 1.959.412 2.928.597v-.02l.163-.96ZM1.05 53.006C.888 54.048.725 55.1.55 56.141l.5-3.135Zm8.213 3.929.142-.876a65.888 65.888 0 0 1-2.662-.835l-.357 2.227-.878-.155-.102.712a71.418 71.418 0 0 0 12.08 3.022c3.652.577 7.335.866 11.007.866 5.989 0 11.998-.774 17.936-2.3l.459-3.31c-9.58 2.63-19.313 3.207-28.954 1.691a70.74 70.74 0 0 1-5.631-1.134l-.092.608-2.948-.516Z"/>
    <path fill="#7B7A7A" d="m5.5 57.296.877.155.357-2.227c-.295-.104-.581-.217-.877-.32L5.5 57.296Zm3.762-.361 2.948.516.092-.609a70.593 70.593 0 0 1-2.897-.783l-.143.876Z"/>
    <path fill="#fff" d="M4.837 61.75s-.03-.01-.04-.02l.04.02ZM9.336.99 9.489 0l-.153.99Zm-.747 4.692-2.03 12.736c.653-4.084 1.305-8.178 1.948-12.261.02-.155.051-.32.072-.475h.01ZM9.488 0c1.449.237 2.928.464 4.438.69L9.488 0Z"/>
    <path fill="#DDD" d="M13.783 2.073 13.987.7h-.072A327.79 327.79 0 0 1 9.477 0l-.153.99c.827.227 2.969.742 4.459 1.093v-.01ZM3.887 54.182 11.62 6.806l.051-.33s-.03 0-.04-.01c-1.041-.258-2.01-.505-3.051-.784-.02.155-.051.32-.072.474-.652 4.084-1.305 8.178-1.948 12.262L1.05 53.006c.94.423 1.888.815 2.837 1.176Zm.949 7.569.56-3.754a71.121 71.121 0 0 1-4.845-1.866L0 59.606l1.857.897s2.958 1.238 2.979 1.248Z"/>
    <path fill="#686868" d="M13.079 6.806c-.47-.113-.929-.206-1.398-.33l-.05.33-7.744 47.376c.653.258 1.316.484 1.979.722l7.213-48.098Z"/>
    <path fill="#fff" d="M8.998 3.094 9.335.99 8.59 5.682c.132-.866.265-1.722.408-2.588Z"/>
    <path fill="#BFBFBF" d="m9.335.99-.337 2.104c-.143.866-.276 1.722-.408 2.588 1.04.278 2.01.526 3.05.784.01 0 .03 0 .041.01.46.124.928.227 1.398.33l.418-2.795.296-1.938c-1.49-.351-3.632-.867-4.458-1.094v.01ZM3.887 54.182a51.446 51.446 0 0 1-2.836-1.176l-.5 3.135c1.591.681 3.213 1.3 4.846 1.867l.102-.712.357-2.392c-.663-.237-1.316-.464-1.98-.722h.01Z"/>
    <path fill="#565656" d="M56.305 44.127a21.81 21.81 0 0 1-5.111.361l-2.673-.134-.857.062a17.853 17.853 0 0 1-6.254-.722l-3.336-1 9.723 6.95.724-5.27 1.081 5.528 10.978-6.59-4.265.815h-.01Z"/>
    <path fill="#7B7A7A" d="m48.521 44.364-.724 5.28-9.723-6.95 3.336 1c2.03.609 4.142.856 6.254.722l.857-.051Z"/>
    <path fill="#7B7A7A" d="m60.57 43.313-10.977 6.59-1.081-5.528v-.02l2.673.133a21.812 21.812 0 0 0 5.11-.36l4.265-.816h.01Z"/>
    <path fill="#2B2B2B" d="m94.938 55.337-2.907.742-.276-1.175-11.038-46.19-.725-3.022a74.12 74.12 0 0 0 2.959-.526l.714 3.012L94.53 53.676l.398 1.66h.01Zm-5.733 1-2.908.742-.04-.154L74.951 9.6l-.714-3.022c.99-.134 1.99-.278 2.99-.443l.724 3.021 11.171 46.788.092.392h-.01Z"/>
    <path fill="#7B7A7A" d="M100.246 53.708c-.122.061.123-.062 0 0-9.487 5.053-19.587 7.91-30.034 8.487a69.216 69.216 0 0 1-3.877.103c-4.917 0-9.835-.516-14.68-1.547-.103-.536-.215-1.083-.307-1.62l-.285-1.525c6.06 1.33 12.854 1.846 18.996 1.495a68.06 68.06 0 0 0 17.057-3.156 58.282 58.282 0 0 0 5.489-2.032 54.432 54.432 0 0 0 2.785-1.227c1.275-.587 2.939-1.299 4.193-1.98l.306 1.424v.02l.347 1.558h.01Zm-56.887-31.98c-.55 0-1.01-.443-1.02-1.01l-.245-10.9a1.03 1.03 0 0 1 1-1.052c.55 0 1.03.443 1.04 1.01l.245 10.9a1.03 1.03 0 0 1-1 1.052h-.02Z"/>
    <path fill="#2B2B2B" d="M42.735 10.91c.99 0 1.785-.824 1.785-1.845s-.796-1.846-1.785-1.846c-.99 0-1.786.825-1.786 1.846 0 1.02.796 1.846 1.786 1.846Z"/>
    <path fill="#7B7A7A" d="M51.847 29.978c-.55 0-1-.443-1.02-1l-.51-19.284a1.03 1.03 0 0 1 .99-1.063c.581 0 1.03.433 1.05 1l.51 19.285a1.03 1.03 0 0 1-.989 1.062h-.03Z"/>
    <path fill="#2B2B2B" d="M50.887 10.91c.99 0 1.785-.824 1.785-1.845s-.795-1.846-1.785-1.846c-.99 0-1.785.825-1.785 1.846 0 1.02.806 1.846 1.785 1.846Z"/>
    <path fill="#E6E6E6" d="M42.98 21.213c-.55 0-1.01-.444-1.02-1.01l-.245-10.901a1.03 1.03 0 0 1 1-1.052c.55 0 1.03.443 1.04 1.01L44 20.16a1.03 1.03 0 0 1-1 1.053h-.02Zm8.48 8.25c-.55 0-1-.444-1.02-1l-.51-19.285a1.03 1.03 0 0 1 .99-1.062c.581 0 1.03.433 1.05 1l.51 19.284a1.03 1.03 0 0 1-.989 1.063h-.03Z"/>
  </g>
  <defs>
    <clipPath id="a">
      <path fill="#fff" d="M0 0h101v66H0z"/>
    </clipPath>
  </defs>
</svg>
