<svg xmlns="http://www.w3.org/2000/svg" width="90" height="93" fill="none" viewBox="0 0 90 93">
  <g clip-path="url(#a)">
    <path fill="#0E94AD" d="M5.867.121c4.712.891 21.154 2.492 41.318 2.393.381 0 .72.285.797.683l.047.247C58.812 3.31 70.91 2.4 83.525.12c.891-.164 1.727.52 1.795 1.48l1.067 13.904c.069.878-.536 1.666-1.362 1.757-9.22 1.111-59.105 6.64-81.844-1.636-.711-.255-1.14-1.034-1.015-1.817L4.072 1.471C4.218.562 5.01-.043 5.867.12Z"/>
    <path fill="#1EAFB2" d="M85.247 31.53h-.009l-.75-10.167-.055-4.024s.998-.095 1.482-.506c.578-.497.48-1.107.48-1.107L85.328 1.605s.004-.666-.685-1.237C84.069-.104 83.16.19 83.16.19L48.067 3.906s.167-1.527-1.092-1.466c-6.13.298-27.85-.06-40.106-2.345-1.996-.372-2.63.402-2.785 1.376L2.152 13.28c-.162 1.263.287 1.943 1.037 2.35l1.457.488-.022 3.072L.512 81.414c11.772 4.733 25.223 6.736 37.14 2.462l2.237-.93 3.067-32.317c1.65 11.058 2.442 21.791 4.091 32.845.549.073 2.974.636 3.518.696 12.616 3.933 24.156 3.331 36.742-.696l2.69-3.24-4.754-48.71.004.005Z"/>
    <path fill="#0E94AD" d="M4.633 16.132S26.66 21.51 48.86 22.314c.317 0 .257-1.224.587-1.215 12.98.41 26.046-.338 34.986-3.76l.827 11.127s-53.476.952-80.614-10.564v-1.779l-.009.01h-.004Zm37.104.338c2.121 0 3.847-1.83 3.847-4.097 0-2.267-1.717-4.097-3.847-4.097-2.129 0-3.846 1.83-3.846 4.097 0 2.267 1.718 4.097 3.846 4.097Z"/>
    <path fill="#0E94AD" d="M49.442 21.099 48.02 3.452l.99-.021 3.76 18.88h-3.915l.587-1.216v.004Z"/>
    <path fill="#E6E7E7" d="M41.097 15.855c2.12 0 3.847-1.83 3.847-4.097 0-2.266-1.718-4.096-3.847-4.096-2.13 0-3.847 1.83-3.847 4.096 0 2.267 1.718 4.097 3.847 4.097Z"/>
    <path fill="#0E94AD" d="M3.72 32.022s16.116 2.475 17.816-12.567L4.623 16.132l-.912 15.89h.009Z"/>
    <path fill="#81C7CE" d="M12.622 31.174 9.41 80l-.908 3.093-7.99-2.289 3.21-48.782s4.51.662 8.901-.848Z"/>
    <path fill="#0E94AD" d="M68.371 21.017s1.662 13.887 17.307 13.333l-1.255-17.002-16.052 3.677v-.008ZM32.906 48.868l9.498 7.74.548-6.095-.827.051a16.642 16.642 0 0 1-6.006-.713l-3.204-.991-.009.008Z"/>
    <path fill="#0E94AD" d="m42.942 50.512.878 6.425 10.702-7.467-4.105.809a20.614 20.614 0 0 1-4.913.359l-2.57-.121h.008v-.005Zm-7.287 34.485c.402-.628.93-.455 1.508-.727.09-.04.184-.087.282-.07.223.04.304.368.51.455 0-.048.039-.095.09-.117-.03.126 0 .273.06.385l.206-.493c.017-.048.038-.108.077-.147a.315.315 0 0 1 .158-.095c.146-.07.291-.135.412-.251.137-.147.124-.299.205-.463.09-.165.244-.312.334-.485.176-.329.283-.696.343-1.064.051-.329.167-1.276-.214-1.47-.129-.057-.253.077-1.607 1.11-.351.273-.54.408-.557.425a3.266 3.266 0 0 1-2.857.727c-.578-.134-1.174-.424-1.722-.204-.381.156-.647.532-.998.753-.566.368-1.371.26-1.838-.234-1.028 1.104-2.523 1.675-3.971 1.528-.334-.03-.677-.096-.977.056-.068.039-.146.086-.227.086-.214-.017-.227-.385-.411-.51-.129-.078-.283-.017-.42.03a3.322 3.322 0 0 1-2.836-.281c-.283-.173-.548-.398-.87-.484-.634-.174-1.358.307-1.486 1.003-.45-.337-.763-.878-.861-1.458-.441.978-1.692 1.67-2.66 1.199-.861-.424-1.166-1.631-2.24-1.623-.344 0-.746.108-.99-.156-.146-.155-.185-.385-.275-.588-.145-.368-.304-.311-.595-.311-.381 0-.197.212-.51-.126-.45-.471-.762-1.003-1.302-1.41-.077-.056-.167-.117-.253-.108-.107 0-.184.086-.265.164-.42.407-.9.736-1.418.965.107-.234-.108-.532-.352-.571-.244-.04-.48.086-.702.203-.472.26-.93.51-1.401.766-.06.03-.116.056-.176.047-.06-.008-.098-.056-.137-.095a4.158 4.158 0 0 0-1.889-1.198c-.03.385-.471.657-.793.493-.175-.086-.282-.26-.402-.424a6.236 6.236 0 0 0-1.602-1.536c-.009.463-.022.918-.022 1.385-.008 2.985.197 6.04.42 9.024.116.07.236-.086.283-.212.745-1.856.518-3.963.36-5.97-.03-.437 0-.986.372-1.15.214 1.22.429 2.435.656 3.664.274-.32.36-.766.36-1.199 0-.432-.06-.86-.039-1.285.047-1.073 2.682.195 3.217.368.45.147.908.338 1.358.437.634.134 1.213-.562 1.868-.766.068-.017.146-.039.214-.017.099.03.167.117.227.195.471.618 1.007 1.432 1.714 1.66.557.183 1.195.243 1.76.36 1.388.281 2.776.588 4.186.753 1.396.164 1.302 1.276 1.546 1.315.244.039.703-1.064.99-1.043.283.018.527-.368.9-.368.372 0 .86.58 1.028.541.167-.039 1.143.822 1.76.822s3.033-.134 4.224-.134c1.191 0 1.487-.588 2.19-1.112.702-.523 2.21-1.76 2.758-1.76s.244 6.234.548 6.688c.304.454.442-1.558.433-3.314-.009-1.76.137-2.747.852-2.544.716.204.292 1.895.716 2.176.265.173.206-1.41.724-2.223l.03.008-.004.005Z"/>
    <path fill="#E6D2C3" d="M35.655 86.54c.402-.678.93-.492 1.508-.782.09-.043.184-.095.282-.074.223.044.304.398.51.493 0-.052.039-.103.09-.125a.68.68 0 0 0 .06.42l.206-.532a.408.408 0 0 1 .077-.156.33.33 0 0 1 .158-.104c.146-.074.291-.147.412-.273.137-.155.124-.324.205-.501.09-.178.244-.334.334-.524a3.92 3.92 0 0 0 .343-1.15c.051-.356.167-1.385-.214-1.593-.129-.06-.253.082-1.607 1.203-.351.294-.54.437-.557.459-.792.744-1.867 1.038-2.857.782-.578-.147-1.174-.458-1.722-.22-.381.169-.647.575-.998.817-.566.398-1.371.282-1.838-.25-1.028 1.194-2.523 1.812-3.971 1.652-.334-.03-.677-.104-.977.065-.068.043-.146.095-.227.095-.214-.021-.227-.42-.411-.553-.129-.083-.283-.022-.42.03-.93.363-1.988.25-2.836-.303-.283-.186-.548-.428-.87-.523-.634-.186-1.358.337-1.486 1.09-.45-.368-.763-.952-.861-1.58-.441 1.056-1.692 1.813-2.66 1.298-.861-.458-1.166-1.769-2.24-1.76-.344 0-.746.117-.99-.169-.146-.169-.185-.42-.275-.636-.145-.398-.304-.333-.595-.333-.381 0-.197.23-.51-.138-.45-.511-.762-1.09-1.302-1.528-.077-.06-.167-.125-.253-.116-.107 0-.184.095-.265.177-.42.437-.9.796-1.418 1.047.107-.251-.108-.576-.352-.619-.244-.043-.48.095-.702.22-.472.282-.93.555-1.401.827-.06.03-.116.06-.176.052-.06-.009-.098-.065-.137-.104a4.128 4.128 0 0 0-1.889-1.298c-.03.42-.471.71-.793.533-.175-.096-.282-.282-.402-.463a6.56 6.56 0 0 0-1.602-1.666c-.009.502-.022.995-.022 1.497-.008 3.236.197 6.541.42 9.777.116.074.236-.095.283-.23.745-2.01.518-4.29.36-6.471-.03-.472 0-1.069.372-1.246.214 1.32.429 2.639.656 3.967.274-.346.36-.826.36-1.298 0-.471-.06-.93-.039-1.393.047-1.164 2.682.208 3.217.398.45.156.908.368 1.358.472.634.147 1.213-.606 1.868-.827.068-.021.146-.043.214-.021.099.03.167.125.227.212.471.67 1.007 1.549 1.714 1.8.557.198 1.195.263 1.76.389 1.388.303 2.776.636 4.186.817 1.396.178 1.302 1.38 1.546 1.424.244.043.703-1.151.99-1.13.283.022.527-.397.9-.397.372 0 .86.627 1.028.584.167-.044 1.143.89 1.76.89s3.033-.146 4.224-.146c1.191 0 1.487-.636 2.19-1.203.702-.567 2.21-1.903 2.758-1.903s.244 6.753.548 7.246c.304.493.442-1.687.433-3.59-.009-1.909.137-2.973.852-2.752.716.22.292 2.05.716 2.353.265.19.206-1.527.724-2.41l.03.013-.004-.008Z"/>
    <path fill="#0E94AD" d="m87.918 83.362.111-.061c.386-.216.853-.329 1.127-.705.265-.36.282-.848.274-1.311a46.44 46.44 0 0 0-.236-4.145c-.638 2.63-3.054 4.244-5.269 5.607-.904.554-1.846 1.125-2.883 1.268-.895.12-1.83-.06-2.669.246-.385.134-.732.36-1.096.532a4.35 4.35 0 0 1-3.766-.039 15.816 15.816 0 0 1-6.751.87 22.42 22.42 0 0 1-1.41-.173l-.92-.121c-1.209-.165-4.053-.307-4.572-1.588-.15-.39-.325-.329-.638-.329-.407 0-.214.225-.548-.134-.476-.502-.814-1.064-1.392-1.484-.082-.06-.172-.12-.275-.112-.111 0-.201.09-.283.173a5.012 5.012 0 0 1-1.52 1.012c.12-.246-.112-.562-.377-.601-.266-.039-.519.09-.75.216-.497.264-.994.541-1.49.81-.06.03-.125.06-.185.051-.06-.008-.103-.06-.141-.104a4.38 4.38 0 0 0-2.022-1.259c-.03.411-.497.697-.853.524-.458-.238-1.859-2.055-2.296-1.22-.111.216.06.96.081 1.22.04.48.103.952.172 1.432.133.913.304 1.821.475 2.721.073.39.287.891.66.809a21.578 21.578 0 0 0-.184-3.02 95.14 95.14 0 0 0 1.705 4.032v-1.964a7.979 7.979 0 0 0 1.756 3.582 9.6 9.6 0 0 0-.141-2.353c-.15-.81-.18-1.821.754-2.038.668-.151 1.666-.082 2.335.06.68.144 1.289-.592 2-.8a.48.48 0 0 1 .236-.021c.103.03.171.125.244.203.497.653 1.075 1.514 1.83 1.76.599.196 1.267.256 1.888.382 1.483.285 2.973.623 4.468.8 1.504.173 1.393 1.341 1.654 1.389.266.052.754-1.125 1.058-1.103.326.03.66-.338.994-.39.557-.09 1.4.104 2 .091.09 0 .202 0 .275.06.09.083.103.217.141.33.154.38.69.419 1.007.164.313-.255.445-.666.57-1.064.162.307.342.636.638.8.295.164.74.09.86-.234.378.255.763.51 1.209.615.446.103.942 0 1.238-.36.214-.263.304-.666.6-.83.214-.121.475-.082.71-.06 1.127.103 2.104-.407 3.038-1.022.651-.428 2-1.709 2.72-.705.215.299.266.684.296 1.064.008.122.03.256.038.381l.489 4.768c.587-1.23-.274-2.825.296-4.05a6.6 6.6 0 0 1 .252 1.35c.591-1.185-.394-2.743.154-3.95.236-.523.712-.856 1.17-1.177 1.26-.878 2.185-1.553 2.934-2.989.103-.182.202-.38.253-.584.082-.316.052-.653.009-.982-.09-.913-.18-1.821-.283-2.73-.009-.104-.081-.246-.171-.195-.03.022-.039.052-.06.083-.073.164-.142.328-.202.48M32.909 66.815c.676-5.05-3.279-9.76-8.833-10.517-5.554-.759-10.605 2.72-11.281 7.77-.677 5.051 3.278 9.76 8.832 10.519 5.555.758 10.606-2.721 11.282-7.772Z"/>
    <path fill="#E6D2C3" d="M87.918 84.382s.073-.038.111-.06c.386-.216.853-.329 1.127-.705.265-.36.282-.848.274-1.311a46.54 46.54 0 0 0-.236-4.145c-.638 2.63-3.054 4.244-5.269 5.607-.904.554-1.846 1.125-2.883 1.268-.895.12-1.83-.06-2.669.246-.385.134-.732.36-1.096.532a4.354 4.354 0 0 1-3.766-.038 15.816 15.816 0 0 1-6.751.87 22.42 22.42 0 0 1-1.41-.174l-.92-.121c-1.209-.165-4.053-.307-4.572-1.588-.15-.39-.325-.329-.638-.329-.407 0-.214.225-.548-.134-.476-.502-.814-1.064-1.392-1.484-.082-.06-.172-.12-.275-.112-.111 0-.201.09-.283.173a5.012 5.012 0 0 1-1.52 1.012c.12-.246-.112-.562-.377-.601-.266-.039-.519.09-.75.216-.497.264-.994.541-1.49.81-.06.03-.125.06-.185.051-.06-.008-.103-.06-.141-.104a4.38 4.38 0 0 0-2.022-1.259c-.03.411-.497.697-.853.524-.458-.238-1.859-2.055-2.296-1.22-.111.216.06.96.081 1.22.04.48.103.952.172 1.432.133.908.304 1.821.475 2.721.073.39.287.891.66.809a21.578 21.578 0 0 0-.184-3.02 95.08 95.08 0 0 0 1.705 4.032v-1.964a7.979 7.979 0 0 0 1.756 3.582 9.6 9.6 0 0 0-.141-2.353c-.15-.81-.18-1.821.754-2.038.668-.151 1.666-.082 2.335.06.68.144 1.289-.592 2-.8a.48.48 0 0 1 .236-.021c.103.03.171.125.244.203.497.653 1.075 1.514 1.83 1.76.599.196 1.267.256 1.888.382 1.483.285 2.973.623 4.468.8 1.504.173 1.393 1.341 1.654 1.389.266.052.754-1.125 1.058-1.103.326.03.66-.338.994-.39.557-.09 1.4.104 2 .091.09 0 .202 0 .275.06.09.083.103.217.141.33.154.38.69.419 1.007.164.313-.255.445-.666.57-1.064.162.307.342.636.638.8.295.164.74.09.86-.234.378.255.763.51 1.209.615.446.103.942 0 1.238-.36.214-.263.304-.666.6-.83.214-.121.475-.082.71-.06 1.127.103 2.104-.407 3.038-1.022.651-.428 2-1.709 2.72-.705.215.299.266.684.296 1.064.008.122.03.256.038.381l.489 4.768c.587-1.23-.274-2.825.296-4.05a6.6 6.6 0 0 1 .252 1.35c.591-1.185-.394-2.743.154-3.95.236-.523.712-.856 1.17-1.177 1.26-.878 2.185-1.553 2.934-2.989.103-.182.202-.38.253-.584.082-.316.052-.653.009-.982-.09-.913-.18-1.821-.283-2.73-.009-.104-.081-.246-.171-.195-.03.022-.039.052-.06.083-.073.164-.142.328-.202.48"/>
    <path fill="#fff" d="M32.545 66.052c.676-5.05-3.278-9.76-8.832-10.518-5.555-.758-10.606 2.721-11.282 7.772-.676 5.05 3.279 9.759 8.833 10.517 5.554.759 10.605-2.72 11.281-7.771Z"/>
    <path fill="#ECA140" d="M31.267 65.88c.589-4.4-2.857-8.501-7.696-9.162-4.84-.66-9.24 2.37-9.829 6.77-.589 4.398 2.857 8.5 7.696 9.161 4.84.66 9.24-2.37 9.829-6.77Z"/>
    <path fill="#5D2357" d="M16.768 61.272c-.472-.044-.917.264-.981.752l-.116.879c-.06.458.278.947.745.99.472.044.917-.264.981-.752l.116-.879c.06-.458-.278-.947-.745-.99Zm10.635 1.821c-.471-.043-.917.264-.981.753l-.099.73c-.06.46.279.948.746.992.47.043.916-.264.98-.753l.1-.731c.06-.459-.28-.948-.746-.991Zm-7.843 1.583c.052.636.347 1.337.853 1.735.445.35 1.024.437 1.56.281.42-.12.775-.437 1.032-.787a2.9 2.9 0 0 0 .39-.705c.09-.251 0-.545-.258-.64-.235-.091-.544 0-.634.26-.017.042-.034.086-.055.129l-.064.13-.043.082c-.03.056.072-.113 0 0a2.82 2.82 0 0 1-.279.363c-.064.074.069-.06.017-.017a.279.279 0 0 1-.043.039c-.03.03-.064.056-.098.082-.03.022-.064.043-.094.065-.065.048.021-.017.034-.017-.017 0-.064.034-.077.039a.868.868 0 0 1-.111.047c-.129.048.068-.004-.043.013a1.742 1.742 0 0 1-.142.022c-.008 0-.064.004-.064 0 .004.013.116.004-.004 0-.047 0-.095-.009-.142-.017 0 0-.064-.01-.068-.014.008.013.094.035.03.01-.043-.018-.09-.035-.133-.057-.017-.009-.038-.022-.056-.03-.038-.018.09.065 0 0-.034-.026-.073-.052-.107-.083-.013-.012-.03-.025-.043-.038-.038-.035-.034-.005.026.026-.06-.03-.124-.152-.158-.208-.009-.017-.022-.035-.03-.048-.056-.082.038.082.012.022-.012-.035-.034-.065-.05-.1-.035-.078-.07-.155-.095-.233l-.039-.117c-.038-.117.026.108 0-.009l-.038-.181a85.207 85.207 0 0 0-.026-.17.49.49 0 0 0-.544-.419.499.499 0 0 0-.416.55v-.005Z"/>
    <path fill="#0E94AD" d="M82.804 56.115c-.56.424-1.31.86-2.257 1.323-2.155 1.056-5.102 2.107-8.294 2.964-3.191.857-6.267 1.419-8.653 1.588-3.008.207-4.481-.212-4.785-1.363-.309-1.172.827-2.315 3.684-3.677L63 52.563l.99-13.701.18-.22c.081-.1.826-.966 1.88-1.104a1.51 1.51 0 0 1 .681.013l.133.03.261.074 12.54 14.813c2.724-.139 4.073.294 4.36 1.388.197.749-.188 1.476-1.22 2.259ZM60.721 60.12c1.152.303 5.017.186 11.078-1.44 6.062-1.627 9.476-3.457 10.324-4.305-.372-.1-1.178-.212-2.784-.1l-.446.03L66.21 39.321c-.176.043-.36.172-.502.29l-.946 13.12-.621 5.421-.455.208c-1.872.857-2.647 1.454-2.96 1.76h-.004Z"/>
    <path fill="#E78E40" d="M27.486 58.14c1.67 1.717 2.566 4.036 2.24 6.45-.59 4.4-4.99 7.432-9.827 6.77a9.535 9.535 0 0 1-3.864-1.418c1.375 1.41 3.269 2.414 5.453 2.712 4.841.662 9.24-2.37 9.828-6.77.415-3.098-1.174-6.04-3.83-7.744Z"/>
    <path fill="#fff" d="M81.785 55.812c-.561.424-1.311.86-2.258 1.324-2.154 1.055-5.102 2.107-8.293 2.963-3.192.857-6.268 1.42-8.654 1.588-3.007.208-4.48-.212-4.785-1.363-.308-1.172.827-2.314 3.684-3.677l.502-4.387.99-13.7.179-.221c.081-.1.827-.965 1.88-1.104.223-.047.45-.043.682.013l.133.03.26.074 12.54 14.813c2.724-.138 4.074.294 4.36 1.389.198.748-.188 1.475-1.22 2.258Zm-22.083 4.006c1.152.303 5.016.186 11.078-1.44 6.061-1.627 9.476-3.457 10.324-4.305-.373-.1-1.178-.212-2.785-.1l-.445.03-12.685-14.985c-.175.043-.36.173-.501.29l-.947 13.12-.621 5.422-.454.207c-1.872.857-2.647 1.454-2.96 1.761H59.7Z"/>
    <path fill="#E78E40" d="M65.838 38.062c-.96-.242-1.782.766-1.782.766l-.415 5.819c4.18-2.272 5.732-1.874 6.168-1.895l-3.97-4.69Zm-2.75 14.22-.776 6.77c7.913-4.594 17.123-4.931 17.123-4.931l-4.164-4.923c-4.674-.36-10.474 2.267-12.179 3.084h-.004Z"/>
    <path fill="#fff" d="M69.811 42.752c-.437.021-1.988-.377-6.169 1.894l-.552 7.636c1.705-.817 7.505-3.443 12.179-3.084l-5.458-6.446Z"/>
    <path fill="#D56637" d="M67.305 41.185c2.33 3.37 4.46 6.931 5.591 10.755.296.991.501 1.999.617 2.994 3.461-.718 5.916-.809 5.916-.809L65.836 38.066c-.33-.13-.484 0-.711.082a108.503 108.503 0 0 1 2.18 3.042v-.005Z" opacity=".5"/>
    <path fill="#D56637" d="M71.238 59.155c6.491-1.743 11.482-4.186 11.148-5.456-.334-1.27-5.868-.886-12.359.857-6.491 1.743-11.483 4.185-11.148 5.455.334 1.27 5.868.887 12.359-.856Z"/>
    <path fill="#B63A30" d="M71.284 57.815c4.106-1.102 7.31-2.472 7.156-3.058-.155-.587-3.609-.168-7.715.934-4.107 1.103-7.31 2.472-7.156 3.059.154.586 3.608.168 7.715-.935Z"/>
    <path fill="#CA5E36" d="M69.695 74.038a.75.75 0 0 0 .159.074c-.073 0-.129-.018-.159-.074Z"/>
    <path fill="#0E94AD" d="M22.756 40.688s-.013.013-.021.017l-.04.026v-.013l-.02.013-.896-2.168.017-.013-.038-.09-.034.021-2.73-6.299.095.048 2.09 4.824-1.974-4.79-3.599-1.925c-.351.212-.707.403-1.07.576 1.366.727 2.77 1.48 4.236 2.271.977 2.708 2 5.382 3.05 7.956.116.29.368.506.673.575a.941.941 0 0 0 .856-.216 170.614 170.614 0 0 0 5.848-5.49h-.017l-6.43 4.672.004.005Zm11.49-15.016-.407 1.38s.008.034.017.052c1.13 2.591 2.21 5.196 3.221 7.765h-.043v.013l-7.702 1.108a165.96 165.96 0 0 0 7.89-.126.904.904 0 0 0 .768-.445.972.972 0 0 0 .094-.887 207.082 207.082 0 0 0-3.23-7.882c.094-.29.184-.572.278-.857l-.89-.13.004.009Z"/>
    <path fill="#0E94AD" d="m35.411 21.717-1.165 3.954.891.13c.446-1.367.883-2.69 1.311-3.976-.347-.034-.69-.073-1.032-.108h-.005Zm-.087-.008c-.42 1.276-.848 2.583-1.285 3.937.064.008.133.017.197.03l1.165-3.954-.077-.009v-.004Z"/>
    <path fill="#E386A6" d="M15.43 29.903a596.76 596.76 0 0 1 3.59 1.933c.24.126.415.338.51.597a236.652 236.652 0 0 0 2.107 5.655l5.663-4.742c.266-.22.591-.354.934-.38l7.63-.61-3.012-7.264c-4.082-.623-8.118-1.354-11.995-2.22-1.096 3.453-3.131 5.65-5.427 7.035v-.004Z"/>
    <path fill="#DA3555" d="m28.989 35.596-.009.009.133-.018h-.043l-.081.013v-.004Zm4.597-8.896.004.013.021-.068s0-.009-.004-.013l-.021.068Z"/>
    <path fill="#C95B80" d="M33.655 21.138a256.077 256.077 0 0 1-12.192-1.7l.111.026a17.694 17.694 0 0 1-.71 3.404c3.876.865 7.912 1.6 11.994 2.22l-.214-.515 1.01-3.435Z"/>
    <path fill="#9F2C43" d="m33.594 26.714 3.213 7.753-3.213-7.757v.004Zm-4.606 8.882.08-.013h-.067l-.013.013Z"/>
    <path fill="#C95B80" d="M28.585 34.627a1.13 1.13 0 0 1 .415-.083c2.84.022 5.415 0 7.806-.077l-3.213-7.753-.005-.013.022-.07a1.087 1.087 0 0 1-.013-.717c.073-.23.146-.45.218-.68a73.914 73.914 0 0 1-.96-.147l3.012 7.264-7.63.61c-.342.026-.667.16-.933.38l-5.663 4.742c.287.74.574 1.471.865 2.198l.103-.074c1.76-1.6 3.62-3.365 5.633-5.351a.996.996 0 0 1 .347-.23h-.004Z"/>
    <path fill="#B84671" d="m33.656 21.138-1.011 3.435.214.514c.321.048.638.1.96.148.436-1.35.865-2.661 1.284-3.937-.484-.052-.968-.104-1.447-.16Z"/>
    <path fill="#E386A6" d="M21.46 19.442a1.172 1.172 0 0 0-.12-.022l.12.022Z"/>
    <path fill="#fff" d="M22.53 40.277s-.014.013-.022.017l-.039.026v-.013l-.021.013-.895-2.167.017-.013-.039-.091-.034.022-2.729-6.3.094.048 2.09 4.824-1.974-4.79-3.598-1.924a12.31 12.31 0 0 1-1.071.575c1.366.727 2.771 1.48 4.236 2.271.977 2.709 2 5.382 3.05 7.956.116.29.369.506.673.576a.942.942 0 0 0 .857-.217 170.437 170.437 0 0 0 5.847-5.49h-.017l-6.43 4.673.004.004ZM34.02 25.26l-.408 1.38s.009.035.017.053a229.725 229.725 0 0 1 3.222 7.765h-.043v.013l-7.703 1.108c2.905.017 5.492-.026 7.891-.126a.907.907 0 0 0 .767-.446.973.973 0 0 0 .094-.886 207.146 207.146 0 0 0-3.23-7.883l.279-.856-.891-.13.004.009Z"/>
    <path fill="#fff" d="M33.605 26.628s0 .009.005.013l.407-1.38h-.009l-.403 1.367Zm-4.657 8.976-6.344 4.608c-.026.021-.051.047-.073.069l6.43-4.672h.018s.004-.009.008-.009h-.038v.004Zm-9.418-3.17a1.123 1.123 0 0 0-.51-.597 596.76 596.76 0 0 0-3.59-1.934l-.051.03 3.598 1.925 1.975 4.79.6 1.388-.021.017.038.091.069-.056a233.8 233.8 0 0 1-2.108-5.654Zm17.281 2.046-7.74 1.107h.042l7.703-1.099-.005-.008ZM35.18 21.307l-1.164 3.954h.008l1.165-3.954h-.008Zm-13.625 16.85.895 2.163.013-.008-.891-2.168-.017.013Zm15.258-3.677h.004l-.008-.013.004.013Zm-3.221-8.57c-.077.233-.068.484.013.718l.403-1.367c-.064-.009-.133-.018-.197-.03l-.219.679Z"/>
    <path fill="#fff" d="m21.643 38.083-.069.057.895 2.167.04-.03c-.292-.727-.58-1.458-.866-2.198v.004Zm7.358-3.538c-.141 0-.287.03-.415.082a.956.956 0 0 0-.347.23 186.171 186.171 0 0 1-5.634 5.35L28.95 35.6h.038l.013-.017h.069l7.74-1.108v-.013c-2.394.078-4.969.104-7.809.078v.005Z"/>
    <path fill="#E89FBE" d="m35.189 21.307-1.166 3.954.891.13c.446-1.367.883-2.691 1.311-3.976-.347-.035-.69-.074-1.032-.108h-.004Zm-.087-.009c-.42 1.276-.849 2.583-1.286 3.937a2.6 2.6 0 0 1 .197.03l1.166-3.954-.077-.009v-.004Z"/>
    <path fill="#fff" d="m18.868 31.823-.095-.047 2.73 6.295.034-.022-.579-1.402-2.09-4.823Z"/>
    <path fill="#fff" d="m20.957 36.647.578 1.402.022-.013-.6-1.389Z"/>
    <path fill="#81C7CE" d="M12.622 1.003S9.68 1.886 9.56 3.43c-.12 1.545-1.208 10.093-1.208 10.093s-.548 2.484.313 3.4c0 0-4.014-.726-4.584-.955-.57-.23-2.45-.338-1.932-3.094.518-2.755 1.928-11.403 1.928-11.403S3.973-.385 6.86.095c2.888.48 5.762.908 5.762.908Z"/>
  </g>
  <defs>
    <clipPath id="a">
      <path fill="#fff" d="M0 0h90v93H0z"/>
    </clipPath>
  </defs>
</svg>
