<svg xmlns="http://www.w3.org/2000/svg" width="103" height="89" fill="none" viewBox="0 0 103 89">
  <g clip-path="url(#a)">
    <path fill="#9D82B7" d="M41.62 75.544s-2.413 1.508-.755 3.084l-4.988 2.562-3.459-5.119 3.553-2.604 5.65 2.077Z"/>
    <path fill="#B59BC5" d="M7.186 10.755s-2.188 1.388-2.188 3.294c0 1.905-3.46 51.173-3.46 51.173S.082 67.13.082 68.516c0 1.385.91 4.68 2.003 5.554 1.094.87-1.818 3.47-2.003 4.68-.185 1.212 0 4.336 0 4.336s7.104 5.378 14.207 5.378c7.104 0 24.228-1.386 25.684-3.816 1.456-2.427 3.644-4.855 2.003-5.723-1.64-.866-6.379.174-6.194-1.388.185-1.562 6.451-1.042 6.78-2.95.328-1.908-.765-6.94-.765-6.94l-.185-3.815s2.365-4.335 2.365-5.377c0-1.043 1.819-8.848 1.819-8.848s2.003 12.317 2.735 12.837c.729.52 2.003 3.124 2.003 3.124s-.732 6.763-2.003 7.982c-1.28 1.216 2.003 5.032 2.003 5.032l2.003.345s-1.094 4.512-.73 5.378c.363.868.886 1.733 3.993 3.124 3.111 1.388 28.978 4.512 36.081-5.552 0 0 2.003-3.815 1.819-5.2-.185-1.389-1.094-5.555-1.094-5.555l1.103-3.99s-.741-4.166-1.835-5.723c-1.094-1.557-.73-5.551-.73-5.551l-.547-1.908s0-25.154-.546-27.758c-.547-2.605-.732-14.225-2.913-15.44-2.185-1.215-79.97 0-79.97 0h.015l.003.003Z"/>
    <path fill="#9D82B7" d="M.08 83.09s13.776 2.645 22.108 1.54c8.331-1.106 19.784-5.705 19.784-5.705s1.284.437.17 2.253a228.305 228.305 0 0 1-2.173 3.47s-.163.621-1.926 1.13c-1.761.507-8.55 2.455-22.8 2.676 0 0-4.674-.1-8.69-1.743-2.385-.976-5.971-3.063-6.475-3.625v.005h.003Zm48.457-9.543s4.393 2.692 5.83 2.95c1.79.323-1.819 2.428-1.819 2.428l-2.003-.346s-2.55-2.964-2.279-3.994l.276-1.033-.005-.005Zm3.201 10.146s22.117 3.206 27.764 0C85.15 80.487 92.62 71.12 92.62 71.12l1.094 5.551s-.61 5.921-4.707 8.01c-4.097 2.087-7.518 4.096-16.743 4.265-9.221.172-15.337-.482-18.3-2.447-1.803-1.197-2.168-1.825-2.226-2.801v-.005ZM.082 68.522s11.657 6.764 25.046 8.805c0 0-15.94 1.433-23.043-3.253 0 0-1.418-1.047-2.003-5.552Z"/>
    <path fill="#9D82B7" d="M55.832 73.903c-.096-.102.023-.25.155-.193 1.97.88 8.86 3.797 13.042 3.613 4.915-.216 16.136-2.404 16.94-3.166 0 0-9.93 6.33-16.67 6.42-6.086.077-11.817-4.936-13.465-6.672l-.002-.002Z"/>
    <path fill="#D3C1DB" d="M14.23 14.439s-2.3.517-2.3 2.378c0 1.86-2.437 48.753-2.437 48.753s-2.437 1.727-2.303 3.056c.135 1.329 1.145 3.848 1.145 3.848L.082 68.522s.278-2.317 1.456-3.298L5 14.048s.288-1.651 2.188-3.293l7.041 3.684Z"/>
    <path fill="#8670A8" d="M85.379 80.03c-.847-1.423-.389-3.714-.11-4.584.333-.626 1.674-3.456-.161-5.74-.422-.525-.629-1.419-.59-2.585.057-2.033-.425-4.009-1.404-5.714-1.679-2.927-2.603-5.413-2.603-7.008 0-.918.15-2.548.353-4.801.585-6.448 1.68-18.45.943-33.891-.053-1.134-.933-3.206-1.96-5.382-.837-.014-1.732-.026-2.675-.038l.13.273c1.35 2.83 2.05 4.599 2.084 5.253.73 15.293-.352 27.193-.94 33.59-.211 2.312-.362 3.98-.362 4.998 0 2.033.976 4.76 2.897 8.109.77 1.346 1.157 2.917 1.109 4.545-.053 1.722.314 3.086 1.09 4.05 1.055 1.313-.083 3.313-.092 3.331l-.096.208c-.053.155-1.308 3.855.276 6.523.643 1.089.18 4.138-.456 6.469.928-.245 1.833-.52 2.697-.842.48-2.172.842-5.107-.137-6.761l.005-.005.002.002Z"/>
    <path fill="#8670A8" d="M90.809 75.446c.333-.626 1.674-3.456-.16-5.74-.423-.525-.63-1.419-.591-2.585.058-2.033-.425-4.009-1.403-5.714-1.68-2.927-2.603-5.413-2.603-7.008 0-1.101.076-3.152.19-5.994.256-6.749.69-18.047.69-32.58 0-1.05-.828-3.475-1.746-5.336a107.95 107.95 0 0 0-2.764-.1c.76 1.206 2.09 4.45 2.09 5.44 0 14.49-.43 25.761-.692 32.498-.112 2.866-.189 4.94-.189 6.077 0 2.032.979 4.758 2.9 8.108.77 1.346 1.157 2.917 1.109 4.545-.053 1.722.314 3.086 1.089 4.05 1.055 1.314-.082 3.313-.094 3.332l-.096.207c-.055.155-1.307 3.855.276 6.523.43.725.362 2.327.087 4.004.993-.607 1.883-1.303 2.636-2.1.015-1.156-.144-2.245-.614-3.038-.847-1.423-.389-3.714-.11-4.585l-.005-.004Z"/>
    <path fill="#B59BC5" d="M4.677 79.059c.038-.37.794-1.428 1.243-2.063.875-1.23 1.63-2.29 1.63-3.277 0-.988-.73-1.927-1.578-3.044-.45-.595-1.293-1.71-1.293-2.089.01-.247.514-.835.847-1.22.799-.928 1.79-2.078 1.451-3.558-.333-2.677 2.512-46.28 2.875-48.228.29-1.557 2.075-3.844 2.74-4.595l-.334-.265-2.526.037c-.857 1.148-1.975 2.88-2.26 4.423-.228 1.23-1.075 13.505-1.756 24.655-.943 15.347-1.313 23.578-1.1 24.458.097.393-.465 1.037-.956 1.614-.634.736-1.356 1.571-1.394 2.597-.043 1.148.827 2.3 1.746 3.521.4.53 1.075 1.419 1.123 1.687-.038.35-.775 1.383-1.214 2-.799 1.124-1.552 2.182-1.65 3.142-.092.93-.233 3.477.184 5.763.79.494 1.694.981 2.894 1.572-1.147-2.489-.78-5.985-.667-7.123l-.005-.005v-.002Z"/>
    <path fill="#8670A8" d="M7.363 11.645s11.25 3.857 24.62 4.56c13.369.707 32.94 1.751 55.988-4.363 0 0 1.2 2.663 1.545 8.967 0 0-50.46 5.604-82.15-9.165h-.003Z"/>
    <path fill="#8670A8" d="M36.078 18.306v18.476c0 1.433 2.418 1.433 2.418 0V18.306c0-1.432-2.418-1.432-2.418 0Zm16.949-.611v25.817c0 2 2.419 2.004 2.419 0V17.695c0-2-2.419-2.005-2.419 0Z"/>
    <path fill="#69548A" d="M81.198 13.491a161.2 161.2 0 0 1-2.39.487c.363.908.557 1.536.572 1.87.09 1.962.156 3.87.199 5.719.851-.04 1.66-.087 2.418-.134-.038-1.84-.103-3.738-.197-5.69-.024-.558-.257-1.346-.6-2.254l-.002.002Zm5.724 2.373c0-.72-.391-2.09-.933-3.479-.79.198-1.579.388-2.356.572.48 1.18.87 2.378.87 2.912 0 1.856-.004 3.665-.019 5.41.924-.065 1.737-.129 2.419-.188.01-1.69.019-3.432.019-5.224v-.003Z"/>
    <path fill="#fff" d="M87.974 2.34c-.547-.52-1.228-1.432-2.255-1.364 0 0-10.093 8.862-44.836 6.138C9.922 4.686 8.19 0 8.19 0S6.685.259 6.414 1.299c-.27 1.042-.547 8.99-.547 8.99s.47 1.221 1.5 1.355c.846.106 12.232 3.59 27.576 4.834-.052 6.392-.107 12.783-.165 19.172-.014 1.482 2.406 1.482 2.42 0l.159-18.997c2.579.16 5.249.26 7.993.26 2.07 0 4.132-.032 6.168-.096v26.377c0 1.485 2.419 1.485 2.419 0v-26.47c18.004-.798 33.44-3.866 34.035-4.88.688-1.174.827-2.195.827-3.373 0-1.179-.27-5.603-.818-6.123l-.01-.01.003.003Z"/>
    <path fill="#E6CEE1" d="M85.781 74.276a.836.836 0 0 0 .19-.12s-.067.047-.19.12Zm-.003.001-.028.014a.074.074 0 0 1 .033-.019l-.005.005Z"/>
    <path fill="#69548A" d="M85.376 80.03a2.973 2.973 0 0 1-.295-.705 49.683 49.683 0 0 1-1.884 1.691c.024.047.048.096.075.144.623 1.053.204 3.966-.4 6.266.99-.322 1.885-.682 2.732-1.065.431-2.115.693-4.787-.224-6.33h-.004Zm.375-5.74c-.463.226-1.514.525-2.903.852a12.19 12.19 0 0 0-.204.932 57.062 57.062 0 0 0 3.107-1.779v-.005Zm5.771 8.18c-.043-.927-.218-1.783-.605-2.437-.847-1.424-.388-3.715-.11-4.585.209-.39.808-1.64.782-3.082a99.268 99.268 0 0 1-3.43 3.86c-.224 1.355-.3 3.331.652 4.94.389.654.367 2.033.156 3.534.01-.005.024-.01.034-.02 1.055-.538 1.878-1.33 2.521-2.21ZM6.812 71.825a81.607 81.607 0 0 1-4.234-1.983c.329.71.871 1.428 1.432 2.171.401.53 1.075 1.419 1.123 1.687-.029.266-.47.941-.87 1.515.731.313 1.513.581 2.331.816.557-.835.962-1.595.962-2.312 0-.619-.3-1.235-.741-1.894H6.81h.002Z"/>
    <path fill="#D3C1DB" d="M2.083 74.074s3.51 2.05 7.068 2.58c0 0-1.303 4.92.261 7.778L.08 83.086s.075-3.773 0-4.335c-.074-.563 1.819-3.004 1.972-3.526.12-.407.031-1.15.031-1.15Z"/>
    <path fill="#B59BC5" d="M3.925 75.71c-.799 1.124-1.552 2.182-1.65 3.142-.092.93-.233 3.477.184 5.763a29.662 29.662 0 0 0 2.889 1.56c-1.14-2.486-.773-5.975-.662-7.111l-.005-.005c.038-.37.794-1.428 1.242-2.063.236-.332.461-.65.667-.957-.81-.236-1.59-.506-2.322-.814-.122.174-.24.34-.343.484Z"/>
    <path fill="#69548A" d="m2.293 83.474 2.394.37.658 2.34s-.629-.306-.838-.41c-.295-.148-.87-.456-1.156-.613-.233-.13-.914-.527-.914-.527l-.14-1.155-.004-.005Z"/>
    <path fill="#8670A8" d="m50.402 73.028 3.25-9.318-2.156-3.188-2.315-10.228s-1.76-1.992-3.387-1.84c-1.627.153-5.825-.672-5.825-.672 0 1.34 5.825 1.832 5.825 1.832S47.269 61.48 47.999 62c.729.52 1 3 1 3s.803 7.322-.466 8.552l2.846 1.633-.98-2.155.003-.002Z"/>
  </g>
  <defs>
    <clipPath id="a">
      <path fill="#fff" d="M0 0h103v89H0z"/>
    </clipPath>
  </defs>
</svg>
