<svg xmlns="http://www.w3.org/2000/svg" width="185" height="123" fill="none" viewBox="0 0 185 123">
  <path fill="#8C69C4" d="M92.18 122.55c50.91 0 92.18-5.261 92.18-11.75 0-6.49-41.27-11.75-92.18-11.75C41.27 99.05 0 104.31 0 110.8c0 6.489 41.27 11.75 92.18 11.75Z"/>
  <path fill="#A786D1" d="M30.1 59.88s-12.39 8.29-17.2 33.91c-3.33 6.03-6.73 11.29-8.95 13.56-2.22 2.27 17.46 9.24 39.47 7.55 11.59 2.94 31.23 4.57 43.1.16 11.91 1.91 35.331 5.68 55.121.03 19.79-1.32 40.12-.05 41.42-3.63-7.63-5.78-12.01-12.01-12.56-14.08-.55-2.07-1.66-25.81-15.91-39-20.35 1.13-124.48 1.51-124.48 1.51l-.01-.01Z"/>
  <path fill="#8C69C4" d="M170.491 97.37c-.55-2.07-1.66-25.81-15.91-39-1.26.07-2.84.14-4.69.2 2.75 5.32 5.27 10.75 7.23 16.42 1.39 4.01 2.23 8.18 3.67 12.17 1.21 3.35 2.75 6.62 3.53 10.11 1.61 7.18-.94 11.82-6.65 16.12-.49.37-1.01.72-1.52 1.08 14.18-.37 25.93-.32 26.91-3.02-7.63-5.78-12.01-12.01-12.56-14.08h-.01Z"/>
  <path fill="#C4A9DB" d="M10.79 109.35c1.57-2.62 4.03-4.56 5.64-7.15 3.05-4.93 2.99-11.06 4.04-16.59 1.93-10.18 7.78-17.87 13.91-25.76-2.73.01-4.28.02-4.28.02s-12.39 8.29-17.2 33.91c-3.33 6.03-6.73 11.29-8.95 13.56-.85.86 1.5 2.41 5.95 3.91a9.9 9.9 0 0 1 .89-1.9Z"/>
  <path fill="#8C69C4" d="M23.11 111.34s6.2-17.28 7.12-24.37c2.12 9.95 1.98 26.99 1.98 26.99l-9.1-2.62Zm39.8-27.26c-2.29 11.24-5.01 21.89-8.19 31.68 3.97 1.21 8.19 1.95 12.37 2.01-2.26-7.35-3.33-17.64-3.87-26.98-.13-2.24-.23-4.47-.32-6.71h.01Zm62.519 32.65c-5.91-8.77-7.99-20.09-10.52-31.03-.72 3.46-1.3 6.94-1.62 10.47-.66 7.37-.57 15.63 4.23 20.61 2.61.04 5.25.02 7.9-.05h.01Zm29.11-18.71c-2.42-4.51-4.08-9.38-6.45-13.94-.87 4.84.25 10.13 2.07 14.48 2.11 5.04 6.47 9.72 11.86 12.89 1.56-.38 3.03-.77 4.4-1.18-5.31-2.81-9.17-7.22-11.87-12.25h-.01Z"/>
  <path fill="#8C69C4" d="M151.06 108.23c-4.92.47-9.72 1.1-14.7 2.58-6.93 2.05-13.71 2.61-20.98 1.98-7.46-.64-14.78-2.19-22.24-2.78-4.16-.33-8.54-.46-12.67.12-3.37.47-6.51 1.68-9.83 2.32-7.19 1.38-12.07-2.23-18.78-3.38-8.16-1.4-17.07.03-25.26.57-7.42.49-15.67.45-22.51-2.3-.92 1.13-1.75 2.05-2.46 2.69-2.19 1.97 17.22 8.06 38.93 6.58 11.43 2.56 30.8 3.99 42.51.14 11.75 1.67 34.85 4.96 54.37.03 19.52-1.15 39.58-.05 40.85-3.17a55.853 55.853 0 0 1-5.56-4.25c-7.22-.43-14.44-1.05-21.68-1.13h.01Zm2.12-34.68c3.04-1.04 5.87-2.63 8.8-4.41.17-.11.35-.21.52-.32-2.04-3.78-4.63-7.4-7.92-10.45C134.23 59.5 30.1 59.88 30.1 59.88s-2.9.23-7.61 8.54c4.69 5.68 9.03 11.01 16.25 12.35 3.52.65 7.07 2.09 10.61 1.67 1.76-.21 3.48-.5 5.16-1.11 1.6-.59 3.2-1.41 4.93-1.5 3.11-.17 6.19 1.7 8.87 3.08 3.2 1.64 6.31 2.52 9.92 2.65 3.85.14 7.71-.56 11.24-2.15 2.48-1.12 4.81-2.95 7.64-2.91 3.36.05 6.62 1.79 9.89 2.48 3.75.79 7.5 1.11 11.32.85 3.76-.25 7.62-1.05 11.09-2.59 2.9-1.29 5.44-3.25 8.25-4.69 2.94-1.52 5.82-2.18 9.1-2.29 2.14-.08 4.28-.65 6.42-.69v-.02Z"/>
  <path fill="#B798D8" d="m39.45 33.15-17.11 26.4c-.94 1.45-.97 3.3-.06 4.77 3.72 6.01 15.14 20 36.94 11.23 21.91 6.65 28.24 4.03 36.23-.75 10.109 4.76 34.679 7.48 45.879-4.78 10.35 0 17.34-3.96 20.69-6.45 1.38-1.02 1.72-2.9.78-4.32-3.92-5.92-14.58-21.28-22.63-26.11-20.46 2.84-100.71.01-100.71.01h-.01Z"/>
  <path fill="#C4A9DB" d="M50.81 71.14c.23-3.7.54-7.39.73-11.09a281.39 281.39 0 0 0-4.59 8.99c-1.45 2.97-2.9 6.03-4.71 8.83l.51.3c2.33.27 4.86.26 7.61-.15.29-2.28.31-4.61.45-6.89v.01Zm31.51-4.75c-.71-2.88-1.45-6.11-2.66-9.04-.61 3.55-1.32 7.07-2.54 10.46-1.34 3.72-2.96 7.34-4.21 11.08 5.03.82 8.83.82 12.02.26-.67-4.28-1.55-8.5-2.61-12.77v.01Zm45.379 11.14a871.24 871.24 0 0 0-5.32-11.11c-1.88-3.84-3.93-7.91-6.6-11.38.93 7.89 1.71 15.8 1.95 23.75 3.36-.08 6.75-.47 9.97-1.26ZM37.68 41.54c1.39-3.48 3.86-5.95 6.57-8.23-3.05-.1-4.8-.16-4.8-.16l-17.11 26.4c-.94 1.45-.97 3.3-.06 4.77 1.22 1.97 3.27 4.8 6.24 7.4-1.27-2.5-2.02-5.24-1.99-8.16.1-8.5 5.54-16.04 11.14-22.03l.01.01Z"/>
  <path fill="#A786D1" d="M65 62.66c-1.61 4.38-3.13 8.8-4.46 13.28 1.68.5 3.27.94 4.77 1.32-.31-3.78-.62-7.56-.47-11.37.04-1.07.1-2.15.16-3.23Zm29.99 2.37c-.31 3.5-.61 6.99-.8 10.5.42-.24.83-.49 1.25-.74 1.31.62 2.86 1.2 4.599 1.72-2.09-3.51-3.67-7.45-5.05-11.48Zm46.33 4.98c2.06 0 3.99-.16 5.78-.43-1.74-2.33-3.23-4.9-4.75-7.22-2.33-3.57-4.22-7.44-6.27-11.21.48 3.73 1.03 7.42 1.77 11.1.59 2.95 1.47 5.85 2.62 8.62.29-.28.57-.57.84-.86h.01Z"/>
  <path fill="#A786D1" d="M39.93 48.7c3 4.38 8.54 4.74 13.53 3.71 5-1.03 8.94-.38 13.38 2.18 4.71 2.72 9.52 3.74 14.91 3.96 5.89.24 11.62.39 16.94-2.54 5.221-2.87 10.381-6.34 16.421-7.03 5-.57 9.44 2.66 14.38 1.93 2.88-.43 5.72-1.76 8.07-3.48 2.09-1.53 3.89-3.54 6.67-3.52 5.19.05 7.33 4.37 9.92 7.91 2.41 3.3 4.46 8.86 4.41 13.94 5.7-2.61 5.15-5.1 4.22-6.51-3.92-5.92-14.58-21.28-22.63-26.11-20.46 2.84-100.71.01-100.71.01l-4.81 7.42s1.68 2.86 5.29 8.13h.01Z"/>
  <path fill="#C4A9DB" d="M33.68 33.02c-.16 1.17.11 2.36.75 3.35 1.81 2.77 6.65 9.37 12.83 11.29 7.88 2.45 8.64-3.79 17.55-2.15 8.23 1.51 5.71 5.87 8.8 7.23 3.09 1.36 18.06 4.36 25.67-1.09 7.61-5.45 12.29-11.98 23.12-5.72 9 5.21 20.39-6.59 23.98-10.71.72-.83.79-2.04.17-2.95-.98-1.45-2.95-4.17-6.91-9.21C132.02 13.4 127.96-.85 124.18.04 87.66 8.7 50.97.31 50.97.31s-15.93 23.06-17.29 32.7v.01Z"/>
  <path fill="#D3BEEA" d="M42.7 41.55c-2.84-5.64-2.67-11.68-.39-17.5 2.06-5.26 4.54-10.48 7.23-15.44 1.42-2.62 2.99-5.22 4.81-7.62-2.18-.4-3.39-.67-3.39-.67s-15.93 23.06-17.29 32.7c-.16 1.17.11 2.36.75 3.35 1.79 2.74 6.54 9.22 12.62 11.22-1.7-1.79-3.2-3.77-4.34-6.04Zm28.11-8.09c-.01-6.37-.08-12.88-1.19-19.17-3.39 10.46-6.31 21.08-10.41 31.27 1.49-.35 3.26-.47 5.59-.04 2.71.5 4.25 1.31 5.22 2.22.65-4.75.8-9.48.79-14.27v-.01Zm42.11-2.54c-2.63-4.32-5.44-8.48-8.36-12.6-.99-1.41-1.93-2.85-2.89-4.28.13.65.27 1.3.4 1.94.81 3.94 1.36 7.97 1.95 11.95.91 6.18 1.65 12.38 1.95 18.62 4.13-2.92 8.24-4.56 14.5-1.62-2.29-4.77-4.78-9.44-7.56-14.01h.01Zm20.59-2.64c-1.51-2.28-2.92-4.64-4.62-6.79-.56-.71-1.15-1.43-1.79-2.09 2.09 8.64 5.18 16.98 8.27 25.3 2.07-1.2 4.02-2.69 5.72-4.18-2.58-4.05-4.96-8.26-7.59-12.24h.01Z"/>
  <path fill="#AB91C6" d="M50.96.32s-.37.54-1.69 2.51c28.28 14.75 53.46 10.89 66.1 7.21 5.37-1.56 11.13.48 14.36 5.12l8.19 11.76c2.54 3.01 5.33 6.82 5.79 11.15.36-.39 2.38-2.53 2.65-2.85.72-.83.79-2.04.17-2.95-.98-1.45-2.95-4.17-6.91-9.21C132 13.4 127.94-.85 124.16.04 87.64 8.7 50.95.31 50.95.31m1.89 47.65c1.22-4.73 2.85-9.78 3.8-14.48.56-2.77.77-5.94 1.2-8.95-1.11 2.81-2.84 5.8-4.05 8.54-1.25 2.82-2.57 5.59-4.29 8.15-1.28 1.91-2.73 3.79-3.76 5.88.49.22.99.41 1.51.57 2.37.74 4.1.69 5.59.3v-.01Zm46.23 3.83c-2.13 1.46-4.81 2.29-7.63 2.69 4.64-13.75 1.04-30 1.04-30l6.6 27.31h-.01Z"/>
  <path fill="#AB91C6" d="M124.709 35.88c-2.19-4.14-8.76-19.77-10.77-22.31 2.68 5.24 8.55 28.14 11.14 33.43 1.98.45 4.01.25 6.02-.37-3.08-2.19-4.66-7.49-6.38-10.74l-.01-.01ZM76.09 14.7c-.24 5.3-3.9 31.17-4.04 36.48.33.65.76 1.21 1.56 1.56.63.28 1.75.62 3.2.95-.49-6.25 2.59-20.21-.72-38.98v-.01Z"/>
  <path fill="#E8D2FF" d="M52.74 16.47a5.38 5.38 0 0 1-2.54 3.1c-.13.07-.11.28.04.32 1.78.53 1.85 1.17 2.74 2.48.08.11.25.1.3-.03.57-1.34 1.21-2.33 2.53-2.69.16-.04.18-.27.02-.33-1.38-.55-2.39-1.91-2.76-2.86-.06-.15-.27-.15-.32 0l-.01.01Zm17.79 51.48a5.38 5.38 0 0 1-2.54 3.1c-.13.07-.11.28.04.32 1.78.53 1.85 1.17 2.74 2.48.08.11.25.1.3-.03.57-1.34 1.21-2.33 2.53-2.69.16-.04.18-.27.02-.33-1.38-.55-2.39-1.91-2.76-2.86-.06-.15-.27-.15-.32 0l-.01.01Zm-7.89-16.4a5.38 5.38 0 0 1-2.54 3.1c-.13.07-.11.28.04.32 1.78.53 1.85 1.17 2.74 2.48.08.11.25.1.3-.03.57-1.34 1.21-2.33 2.53-2.69.16-.04.18-.27.02-.33-1.38-.55-2.39-1.91-2.76-2.86-.06-.15-.27-.15-.32 0l-.01.01Zm62.51 6.54a5.38 5.38 0 0 1-2.54 3.1c-.13.07-.11.28.04.32 1.78.53 1.85 1.17 2.74 2.48.08.11.25.1.3-.03.57-1.34 1.21-2.33 2.53-2.69.16-.04.18-.27.02-.33-1.38-.55-2.39-1.91-2.76-2.86-.06-.15-.27-.15-.32 0l-.01.01Zm.74 32.27a5.38 5.38 0 0 1-2.54 3.1c-.13.07-.11.28.04.32 1.78.53 1.85 1.17 2.74 2.48.08.11.25.1.3-.03.57-1.34 1.21-2.33 2.53-2.69.16-.04.18-.27.02-.33-1.38-.55-2.39-1.91-2.76-2.86-.06-.15-.27-.15-.32 0l-.01.01ZM73.66 91.8a5.38 5.38 0 0 1-2.54 3.1c-.13.07-.11.28.04.32 1.78.53 1.85 1.17 2.74 2.48.08.11.25.1.3-.03.57-1.34 1.21-2.33 2.53-2.69.16-.04.18-.27.02-.33-1.38-.55-2.39-1.91-2.76-2.86-.06-.15-.27-.15-.32 0l-.01.01Zm-7.57-3.08c-.18.64-.62 1.69-1.69 2.36-.09.06-.07.21.02.24 1.19.4 1.23.89 1.82 1.9.05.09.16.07.2-.02.38-1.03.8-1.78 1.68-2.05.11-.03.12-.2.01-.25-.92-.42-1.59-1.45-1.83-2.18-.04-.12-.18-.11-.21 0Zm56.24 7.69c-.18.64-.62 1.69-1.69 2.36-.09.06-.07.21.02.24 1.19.4 1.23.89 1.82 1.9.05.09.16.07.2-.02.38-1.03.8-1.78 1.68-2.05.11-.03.12-.2.01-.25-.92-.42-1.59-1.45-1.83-2.18-.04-.12-.18-.11-.21 0Zm-27.8 10.13c-.18.64-.62 1.69-1.69 2.36-.09.06-.07.21.02.24 1.19.4 1.23.89 1.82 1.9.05.09.16.07.2-.02.38-1.03.8-1.78 1.68-2.05.11-.03.12-.2.01-.25-.92-.42-1.59-1.45-1.83-2.18-.04-.12-.18-.11-.21 0Zm66.669-10.13c-.18.64-.62 1.69-1.69 2.36-.09.06-.069.21.021.24 1.19.4 1.229.89 1.819 1.9.05.09.16.07.2-.02.38-1.03.8-1.78 1.68-2.05.11-.03.12-.2.01-.25-.92-.42-1.59-1.45-1.83-2.18-.04-.12-.18-.11-.21 0Zm-9.269-22.62c-.18.64-.62 1.69-1.69 2.36-.09.06-.07.21.02.24 1.19.4 1.23.89 1.82 1.9.05.09.16.07.2-.02.38-1.03.8-1.78 1.68-2.05.11-.03.12-.2.01-.25-.92-.42-1.59-1.45-1.83-2.18-.04-.12-.18-.11-.21 0Zm-19.09 31.329c-.18.64-.62 1.691-1.69 2.361-.09.06-.07.21.02.24 1.19.4 1.23.889 1.82 1.899.05.09.16.071.2-.019.38-1.03.8-1.78 1.68-2.05.11-.03.12-.2.01-.25-.92-.42-1.59-1.451-1.83-2.181-.04-.12-.18-.11-.21 0ZM34.7 98.23c-.18.64-.62 1.69-1.69 2.36-.09.06-.07.21.02.24 1.19.4 1.23.89 1.82 1.9.05.09.16.07.2-.02.38-1.03.8-1.78 1.68-2.05.11-.03.12-.2.01-.25-.92-.42-1.59-1.45-1.83-2.18-.04-.12-.18-.11-.21 0ZM23.37 81.85c-.18.64-.62 1.69-1.69 2.36-.09.06-.07.21.02.24 1.19.4 1.23.89 1.82 1.9.05.09.16.07.2-.02.38-1.03.8-1.78 1.68-2.05.11-.03.12-.2.01-.25-.92-.42-1.59-1.45-1.83-2.18-.04-.12-.18-.11-.21 0Zm15.09 20.94a5.38 5.38 0 0 1-2.54 3.1c-.13.07-.11.28.04.32 1.78.53 1.85 1.17 2.74 2.48.08.11.25.1.3-.03.57-1.34 1.21-2.33 2.53-2.69.16-.04.18-.27.02-.33-1.38-.55-2.39-1.91-2.76-2.86-.06-.15-.27-.15-.32 0l-.01.01ZM19.3 85.7a5.38 5.38 0 0 1-2.54 3.1c-.13.07-.11.28.04.32 1.78.53 1.85 1.17 2.74 2.48.08.11.25.1.3-.03.57-1.34 1.21-2.33 2.53-2.69.16-.04.18-.27.02-.33-1.38-.55-2.39-1.91-2.76-2.86-.06-.15-.27-.15-.32 0l-.01.01Zm140.289-13.33a5.38 5.38 0 0 1-2.54 3.1c-.13.07-.11.28.04.32 1.78.53 1.85 1.17 2.74 2.48.08.11.25.1.3-.03.57-1.34 1.21-2.33 2.53-2.69.16-.04.18-.27.02-.33-1.38-.55-2.39-1.91-2.76-2.86-.06-.15-.27-.15-.32 0l-.01.01Zm6.541 29a5.38 5.38 0 0 1-2.54 3.1c-.13.07-.11.28.04.32 1.78.53 1.85 1.17 2.74 2.48.08.11.25.1.3-.03.57-1.34 1.21-2.33 2.53-2.69.16-.04.18-.27.02-.33-1.38-.55-2.39-1.91-2.76-2.86-.06-.15-.27-.15-.32 0l-.01.01Zm-9.449-43.3a5.38 5.38 0 0 1-2.54 3.1c-.13.07-.11.28.04.32 1.78.53 1.85 1.17 2.74 2.48.08.11.25.1.3-.03.57-1.34 1.21-2.33 2.53-2.69.16-.04.18-.27.02-.33-1.38-.55-2.39-1.91-2.76-2.86-.06-.15-.27-.15-.32 0l-.01.01Z"/>
  <path fill="#fff" d="M58.92 13.63a2.97 2.97 0 0 1-1.39 1.7c-.07.04-.06.15.02.17.98.29 1.01.64 1.5 1.36.04.06.14.05.16-.02.31-.74.66-1.28 1.39-1.47.09-.02.1-.15.01-.18-.76-.3-1.31-1.05-1.51-1.57-.03-.08-.15-.08-.18 0v.01Zm3.85-8.2a2.97 2.97 0 0 1-1.39 1.7c-.07.04-.06.15.02.17.98.29 1.01.64 1.5 1.36.04.06.14.05.16-.02.31-.74.66-1.28 1.39-1.47.09-.02.1-.15.01-.18-.76-.3-1.31-1.05-1.51-1.57-.03-.08-.15-.08-.18 0v.01ZM45.82 34.77a2.93 2.93 0 0 1-1.62 1.47c-.08.03-.08.14 0 .18.92.43.91.79 1.29 1.57.03.07.13.07.17 0 .42-.68.84-1.17 1.58-1.25.09-.01.12-.13.04-.18-.71-.41-1.14-1.23-1.27-1.78-.02-.09-.14-.1-.18-.02l-.01.01Zm-5.39 19.96a2.93 2.93 0 0 1-1.62 1.47c-.08.03-.08.14 0 .18.92.43.91.79 1.29 1.57.03.07.13.07.17 0 .42-.68.84-1.17 1.58-1.25.09-.01.12-.13.04-.18-.71-.41-1.14-1.23-1.27-1.78-.02-.09-.14-.1-.18-.02l-.01.01Zm44.22-41.64a2.93 2.93 0 0 1-1.62 1.47c-.08.03-.08.14 0 .18.92.43.91.79 1.29 1.57.03.07.13.07.17 0 .42-.68.84-1.17 1.58-1.25.09-.01.12-.13.04-.18-.71-.41-1.14-1.23-1.27-1.78-.02-.09-.14-.1-.18-.02l-.01.01Z"/>
  <path fill="#E8D2FF" d="M116.7 29.62a5.38 5.38 0 0 1-2.54 3.1c-.13.07-.11.28.04.32 1.78.53 1.85 1.17 2.74 2.48.08.11.25.1.3-.03.57-1.34 1.21-2.33 2.53-2.69.16-.04.18-.27.02-.33-1.38-.55-2.39-1.91-2.76-2.86-.06-.15-.27-.15-.32 0l-.01.01Zm23.321-1.14c-.22.68-.76 1.8-2.06 2.52-.11.06-.09.22.03.26 1.45.43 1.5.95 2.22 2.02.06.09.2.08.24-.02.46-1.09.98-1.9 2.05-2.19.13-.04.14-.22.02-.27-1.12-.44-1.94-1.55-2.24-2.32a.137.137 0 0 0-.26 0ZM92.09 46.34a5.38 5.38 0 0 1-2.54 3.1c-.13.07-.11.28.04.32 1.78.53 1.85 1.17 2.74 2.48.08.11.25.1.3-.03.57-1.34 1.21-2.33 2.53-2.69.16-.04.18-.27.02-.33-1.38-.55-2.39-1.91-2.76-2.86-.06-.15-.27-.15-.32 0l-.01.01Zm9.511-39.58a5.38 5.38 0 0 1-2.54 3.1c-.13.07-.11.28.04.32 1.78.53 1.85 1.17 2.74 2.48.08.11.25.1.3-.03.57-1.34 1.21-2.33 2.53-2.69.16-.04.18-.27.02-.33-1.38-.55-2.39-1.91-2.76-2.86-.06-.15-.27-.15-.32 0l-.01.01ZM35.71 59.04c-.31.82-1.04 2.16-2.69 2.96-.14.07-.12.27.02.32 1.75.62 1.79 1.26 2.61 2.62.07.12.24.11.3-.01.64-1.31 1.32-2.27 2.66-2.55.17-.04.19-.26.04-.33-1.35-.62-2.29-2.03-2.61-3-.05-.16-.26-.16-.32 0l-.01-.01Z"/>
  <path fill="#fff" d="M122.89 26.78a2.97 2.97 0 0 1-1.39 1.7c-.07.04-.06.15.02.17.98.29 1.01.64 1.5 1.36.04.06.14.05.16-.02.31-.74.66-1.28 1.39-1.47.09-.02.1-.15.01-.18-.76-.3-1.31-1.05-1.51-1.57-.03-.08-.15-.08-.18 0v.01Zm-16.959 47.21a2.97 2.97 0 0 1-1.39 1.7c-.07.04-.06.15.02.17.98.29 1.01.64 1.5 1.36.04.06.14.05.16-.02.31-.74.66-1.28 1.39-1.47.09-.02.1-.15.01-.18-.76-.3-1.31-1.05-1.51-1.57-.03-.08-.15-.08-.18 0v.01ZM77.49 84.8a2.97 2.97 0 0 1-1.39 1.7c-.07.04-.06.15.02.17.98.29 1.01.64 1.5 1.36.04.06.14.05.16-.02.31-.74.66-1.28 1.39-1.47.09-.02.1-.15.01-.18-.76-.3-1.31-1.05-1.51-1.57-.03-.08-.15-.08-.18 0v.01Zm-49.42 20.94a2.97 2.97 0 0 1-1.39 1.7c-.07.04-.06.15.02.17.98.29 1.01.64 1.5 1.36.04.06.14.05.16-.02.31-.74.66-1.28 1.39-1.47.09-.02.1-.15.01-.18-.76-.3-1.31-1.05-1.51-1.57-.03-.08-.15-.08-.18 0v.01Zm97.951-3.37a2.97 2.97 0 0 1-1.39 1.7c-.07.04-.06.15.02.17.98.29 1.01.64 1.5 1.36.04.06.14.05.16-.02.31-.74.66-1.28 1.39-1.47.09-.02.1-.15.01-.18-.76-.3-1.31-1.05-1.51-1.57-.03-.08-.15-.08-.18 0v.01Zm30.789-22.16a2.97 2.97 0 0 1-1.39 1.7c-.07.04-.06.15.02.17.98.29 1.01.64 1.5 1.36.04.06.14.05.16-.02.31-.74.66-1.28 1.39-1.47.09-.02.1-.15.01-.18-.76-.3-1.31-1.05-1.51-1.57-.03-.08-.15-.08-.18 0v.01ZM87.72 38.14a2.97 2.97 0 0 1-1.39 1.7c-.07.04-.06.15.02.17.98.29 1.01.64 1.5 1.36.04.06.14.05.16-.02.31-.74.66-1.28 1.39-1.47.09-.02.1-.15.01-.18-.76-.3-1.31-1.05-1.51-1.57-.03-.08-.15-.08-.18 0v.01Zm2.67 25.29a2.97 2.97 0 0 1-1.39 1.7c-.07.04-.06.15.02.17.98.29 1.01.64 1.5 1.36.04.06.14.05.16-.02.31-.74.66-1.28 1.39-1.47.09-.02.1-.15.01-.18-.76-.3-1.31-1.05-1.51-1.57-.03-.08-.15-.08-.18 0v.01Zm31.189-9.48a2.97 2.97 0 0 1-1.39 1.7c-.07.04-.06.15.02.17.98.29 1.01.64 1.5 1.36.04.06.14.05.16-.02.31-.74.66-1.28 1.39-1.47.09-.02.1-.15.01-.18-.76-.3-1.31-1.05-1.51-1.57-.03-.08-.15-.08-.18 0v.01ZM43.99 72.32a2.97 2.97 0 0 1-1.39 1.7c-.07.04-.06.15.02.17.98.29 1.01.64 1.5 1.36.04.06.14.05.16-.02.31-.74.66-1.28 1.39-1.47.09-.02.1-.15.01-.18-.76-.3-1.31-1.05-1.51-1.57-.03-.08-.15-.08-.18 0v.01Zm78.9-65.22a2.97 2.97 0 0 1-1.39 1.7c-.07.04-.06.15.02.17.98.29 1.01.64 1.5 1.36.04.06.14.05.16-.02.31-.74.66-1.28 1.39-1.47.09-.02.1-.15.01-.18-.76-.3-1.31-1.05-1.51-1.57-.03-.08-.15-.08-.18 0v.01Zm27.06 46.85a2.97 2.97 0 0 1-1.39 1.7c-.07.04-.06.15.02.17.98.29 1.01.64 1.5 1.36.04.06.14.05.16-.02.31-.74.66-1.28 1.39-1.47.09-.02.1-.15.01-.18-.76-.3-1.31-1.05-1.51-1.57-.03-.08-.15-.08-.18 0v.01Z"/>
</svg>
