<svg xmlns="http://www.w3.org/2000/svg" width="92" height="70" fill="none" viewBox="0 0 92 70">
  <path fill="#FFFDFE" d="M88.352 68.71c-2.53-.76-1.41-2.05-3.16-1.99-1.74.05-1.05 2-2.65 2.06-1.59.06-4.36-2.42-5.32-2.14-.97.28-1.38 2.49-2.95 2.69-.72.09-1.88.12-2.97.04-1.3-.08-2.5-.29-2.75-.68-.48-.71-2.37-.17-3.17.25-.8.42-5.37.43-7.43-1.01-2.06-1.43-1.91.71-3.73.83s-3.09-1.52-3.09-1.52-1.49.75-2.86-.1c0 0-5.01 3.15-8.11-.78-1.86.95-4.04 2.45-6.34-1.38 0 0-.923 5.657-6.35 4.88a.87.87 0 0 1-.744-.939c.252-2.818 1.715-5.172.964-5.831-.82-.72-2 1.12-2.13 2.69-.13 1.57.38 3.57-1.87 3.74-2.24.17-5.65-1.57-6.82-1.25-1.17.33-2.89.85-3.26.57-.55.87-4.09 2.17-5.79-.82 0-1.48 1.27-2.28.48-3.1-.79-.81-1.69 3.63-3.8 3.53-2.1-.1-5.15-1.87-4.38-4.94.78-3.07 4.41-7.54 4.41-7.54l62.98.9 1.3.02 19.5.28s1.91 5.65 3.14 7.92c1.02 1.88-.56 4.37-3.09 3.61l-.01.01Z"/>
  <path fill="#FFEEF5" d="M63.93 64.93c-.16-.99-.3-2.08-.78-2.96-.13-.25-.34-.58-.62-.41-.4.25-.63.96-.78 1.39-.28.76-.48 1.53-.61 2.34-.14.86-.2 1.73-.41 2.57-.09.35-.2.69-.34 1.01 1.74.37 3.66.36 4.57.18-.33-1.38-.81-2.72-1.03-4.12Zm17.772-.53c-.37-1.84-.66-3.69-.86-5.56l-.15-1.46c0-.07-.02-.19-.03-.31l-1.08-.02c-1.02 1.73-1.37 3.74-1.41 5.79-.03 1.51 0 3.05.66 4.31 1.2.65 2.7 1.65 3.72 1.61.14 0 .25-.03.36-.06-.66-1.35-.9-2.82-1.21-4.32v.02Zm-10.401 4.97c-1.3-.08-2.5-.29-2.75-.68-.18-2.3-1.01-4.89-1.36-7.27-.24-1.67 0-3.12.32-4.54l1.3.02c.15.43.26.85.36 1.25.55 2.35.52 4.46.83 6.71.18 1.39.59 2.89 1.31 4.51h-.01ZM44.833 57.96c-.11.29-1.31 2.74-1.4 3.02-.25.77-.53 1.54-.77 2.31-.43 1.42-.72 2.87-1.19 4.27 2.01 1.29 4.35.67 5.69.11-.05-.12-.09-.24-.13-.36-.26-.84-.23-1.7-.23-2.56 0 0 .42-6.01 1.53-7.55 1.12-1.54-3.51.76-3.51.76h.01ZM17.19 64.7c.31-1.27.72-2.67 1.36-3.81.25-.45.54-.88.79-1.33l.12-.21c-1.82.86-3.24 2.62-4.23 4.4-.62 1.11-1.09 2.3-1.55 3.49-.26.69-.51 1.39-.68 2.11.29-.16.5-.34.6-.51.36.27 1.97-.21 3.13-.53-.02-1.24.19-2.5.46-3.61Zm10.492-1.61c.16.14.21.35.21.62.16-.46.32-.92.46-1.38.28-.92.57-1.93.57-2.92-2.61.65-4.09 3.69-4.79 6.23-.36 1.32-.8 2.81-1.62 3.84.41.06.8.08 1.17.05 2.25-.17 1.75-2.17 1.87-3.74.12-1.57 1.31-3.41 2.13-2.7Zm12.848-6.6-2.44-.04c-.98.36-1.23 1.72-1.48 2.67-.41 1.62-.91 3.27-1.01 4.96-.06 1.03.03 2.04.22 3.03.54.29 1.06.37 1.58.32.18-3.91 1.21-7.61 3.13-10.94Zm49.443 11.58c-.66-.78-1.22-1.59-1.68-2.52-.27-.56-.53-1.12-.77-1.7.04 1.52.06 3.05.07 4.57.21.1.45.2.75.29.8.24 1.5.16 2.06-.13-.14-.17-.29-.34-.43-.51ZM55.4 60.12c-.09-.42-.16-.95-.45-1.27-.29-.33-.81-.31-1.2-.22-.85.19-1.39.94-1.73 1.74-.36.85-.55 4.46-.62 5.38-.04.6 0 1.2 0 1.8.47.47 1.49 1.28 2.8 1.2.95-.06 1.37-.68 1.84-1.04-.05-1.67-.29-5.96-.64-7.59Z"/>
  <path fill="#FFD9ED" d="M88.62 57.92c-.09 4.84-11.06 3.64-15.42 4.5-11.67 1.04-23.13-2.08-34.48-4.04-5.73-.46-12.21.21-17.55 1.5-5.06 1.71-9.03 2.93-14.24 1.62-2.24-.53-3.96-1.48-4.07-2.93-.32-3.73 8.15-56.24 8.15-56.24S47.57 13.74 83.56.01c2.36 31.39 3.69 41.17 5.06 57.92v-.01Z"/>
  <path fill="#FCC8DD" d="M88.592 58.61c-.17 1.02-.91 1.87-1.92 2.09-.69.14-1.53.32-2.51.5l-2.08-50.99 6.51 48.4ZM14.754 11.09l-1.78 50.89c-1.96.09-4.18-.05-6.04-.49l7.82-50.4Z"/>
  <path fill="#FFB6D4" d="M84.404 10.81c-.38-4.71-.57-7.22-.84-10.81-35.99 13.73-72.55 2.32-72.55 2.32s-.65 4.02-1.58 9.9c0 0 33.02 8.66 74.97-1.41Z"/>
  <path fill="#FFEBF6" d="M13.773 58.01c-.05-11.8.73-23.55 1.77-35.22.42-4.78.94-9.54 1.26-14.3.1-1.48.24-3.09.84-4.52-4.21-.89-6.64-1.64-6.64-1.64s-8.47 52.5-8.15 56.24c.11 1.45 1.83 2.4 4.07 2.93 2.48.62 4.68.67 6.85.37v-3.86Z"/>
  <path fill="#F2A0C5" d="M17.654 3.97c-1.16 3.11-.82 6.43-1.27 9.64-4.47-.73-6.95-1.39-6.95-1.39.51-3.32 1.06-6.64 1.57-9.9 1.26.4 4.59 1.23 6.64 1.64l.01.01Z"/>
  <path fill="#FCD0E6" d="M17.654 3.97c-.5 2.74-.82 6.43-1.27 9.64-4.47-.73-6.95-1.39-6.95-1.39.51-3.32 1.06-6.64 1.57-9.9 1.26.4 4.59 1.23 6.64 1.64l.01.01Z"/>
  <path fill="#F7C4E1" d="M83.563 0a95.44 95.44 0 0 1-9.34 3.01c.7 1.78 1.09 3.67 1.35 5.18.76 4.49.96 9.09 1.32 13.64.62 7.93 1.18 15.9 2.04 23.86.58 5.38 1.33 10.74 2.15 16.12 3.9-.33 7.5-1.12 7.56-3.89-1.38-16.75-2.7-26.53-5.06-57.92h-.02Z"/>
  <path fill="#EF9AC0" d="M84.4 10.82c-2.79.67-5.54 1.26-8.24 1.76-.4-3.34-.67-6.19-1.93-9.56 3.18-.85 6.29-1.85 9.34-3.02.27 3.6.56 7.34.84 10.81l-.01.01Z"/>
  <path fill="#EF9AC0" d="M84.39 10.82c-2.79.67-5.54 1.26-8.23 1.76-.4-3.34-.67-6.19-1.93-9.56 3.18-.85 6.29-1.85 9.34-3.02.27 3.6.58 7.34.83 10.81l-.01.01Z"/>
</svg>
