<svg xmlns="http://www.w3.org/2000/svg" width="117" height="55" fill="none" viewBox="0 0 117 55">
  <g clip-path="url(#a)">
    <path fill="#3A3A3A" d="m112.637 41.521-3.785 2.87 8.03-6.085-3.593-6.161-3.735 3.391 3.083 5.985Zm-93.621-7.748-3.807-2.544-3.771 6.492 4.663 3.402-2.414 6.078 6.669-16.798-1.34 3.37Zm70.165-12.215-.125-.287 4.427-2.303-1.86-3.567 6.459-2.12 1.34 2.598 3.369-1.753 3.131 5.374-3.345 2.497 3.581 6.947 3.543-2.963-8.12-13.939c-.029.01-5.548 2.306-14.8 4.056l2.4 5.457v.003Zm-67.24 28.19.154-1.168v-.003l-.154 1.17Zm-.051-30.029-3.406 5.863 3.02 1.925 2.604-6.563-2.217-1.225Zm21.47-3.715 4.047.571a111.9 111.9 0 0 1-15.265-3.614l.029.011-.53 4.466 8.14 1.426.542-3.683 3.033.827.004-.004Zm37.816 4.703 5.773-.859.828 7.677-5.688.787.967 8.054 5.562-1.024.674 6.266-2.74-25.46c-1.802.338-3.743.654-5.81.927l.437 3.632h-.003Zm-6.087 17.125-1.125-8.396-4.34.6-.839-4.487 3.589 19.27-1.168-6.272 3.883-.715Zm-9.015-14.654-.269 2.048-.551 4.246L66.74 18.06l-.666 5.12Zm6.342-5.309h.01c-1.625.093-3.305.158-5.032.183l.853 4.58 4.713-.7-.544-4.06v-.003Zm-7.603 15.02.15-1.164-.15 1.164Zm-40.139-3.812.01.004.906-6.837.301-2.468-3.785 28.733.813-6.118.88-6.643.875-6.67Zm39.012 12.444-.616-9.829-8.317-.136 1.372 8.593 7.5.416-.724 6.977-5.637-.248 1.175 7.379h-9.12l-.085-1.972h-.007l.093 1.972h12.772l.122-1.886 1.884-.014-1.88.014 1.468-11.266Zm25.807 1.955-5.505.671 1.063 8.856-7.736 1.422-1.247-9.311-3.556.434 1.332 7.153h-.003l.179 2.3 16.472-2.868-.326-2.425h-.004l-.67-6.232Zm15.071-3.209-.075-.14-5.104 4.627-3.263-7.418 4.824-4.034-3.71-7.124-.008.007-.075-.14-4.516 3.37 7.593 17.261h.004l1.361 3.215 5.734-4.343-2.758-5.288-.007.007ZM53.332 22.632l9.198.395-.312-5.015h.047a113 113 0 0 1-9.882-.736l.1.014.853 5.342h-.004ZM27.787 49.884l-.373 3.118 7.15 1.423.422-2.892-7.2-1.649ZM26.37 15.25l.18-.456-.226 1.71h.028l.699-5.267.204.068c-.133-.046-.265-.097-.398-.143l-1.877 3.233 1.39.851v.004Z"/>
    <path fill="#010101" d="m22.097 48.577.011-.069L26.002 20l.325-3.343v-.15l.175-1.007-.07-.214-2.322 5.658-2.604 6.563-1.15 2.896L13.688 47.2l8.246 2.633.01-.086.154-1.171Zm13.274 3.858 13.854.266v-.004l-13.854-.262Z"/>
    <path fill="#010101" d="m45.823 31.405-.043-.266-2.422-15.135-8.374 36.424.387.007 13.854.262v.004h.007l-3.41-21.296Zm18.275 21.368 9.742-.072v-.004l-9.742.076Z"/>
    <path fill="#010101" d="m72.513 45.548-.137-.726-3.588-19.27-.545-2.92-.852-4.58c-.215 0-.43.007-.649.01l-1.486 11.41-.294 2.252-.15 1.165-1.125 8.632-1.468 11.266 1.88-.014 9.739-.076.003.004-1.332-7.156.004.003Zm17.655 4.16 10.068-3.028-.004-.004-10.068 3.029.004.003Z"/>
    <path fill="#010101" d="m92.636 29.415-3.456-7.857-2.4-5.457-.23.043 2.74 25.46.201 1.868.67 6.236v-.003l10.068-3.029-7.593-17.261Zm8.944-17.369-2.096-3.593 2.096 3.593Z"/>
    <path fill="#010101" d="M93.36 10.968h-.007a84.1 84.1 0 0 1-7.922 2.31 95.823 95.823 0 0 1-8.636 1.656 104.1 104.1 0 0 1-9.8.952c-1.432.072-2.904.115-4.416.129h-.795c-.852.004-1.715 0-2.593-.022a112.67 112.67 0 0 1-9.635-.628 119.76 119.76 0 0 1-8.252-1.186c-1.454-.262-2.93-.557-4.427-.883a115.03 115.03 0 0 1-9.807-2.508l-.215.374c.133.05.265.097.398.143l4.89 1.653a111.9 111.9 0 0 0 15.264 3.614l4.972.7c3.413.406 6.715.64 9.882.737h4.484l-.007.05.268-2.055.38 2.048c1.726-.025 3.406-.09 5.032-.183l8.317-.794a109.21 109.21 0 0 0 5.81-.927l-.08-.744.309.7c9.251-1.752 14.771-4.044 14.799-4.055l-2.095-3.592s-.738.34-2.127.872l-3.998 1.642.008-.003Z"/>
    <path fill="#010101" d="M66.742 18.059c.219 0 .434-.007.648-.01L67.01 16l-.268 2.055v.004Zm19.81-1.914c.075-.015.15-.03.229-.044l-.308-.7.079.744Z"/>
    <path fill="#3A3A3A" d="m27.788 2.001-.354 4.451.354-4.451ZM33.64 8.04c2.278.499 4.835.97 7.664 1.372V4.225h.011A154.567 154.567 0 0 1 33.63 3.1h.014v4.94h-.003Zm-4.294-5.745c-.577-.118-1.132-.237-1.659-.352l.104.058 1.558.294h-.003Zm37.04 8.145c3.535-.166 6.708-.4 9.552-.687l-.849-5.155.086-.01c-3.216.33-6.357.542-9.402.657h.033l.58 5.195Zm-16.628-.137c2.793.198 5.773.31 8.936.32l-.49-5.277h.06a155.223 155.223 0 0 1-8.338-.32h.04l-.205 5.277h-.003Zm49.726-1.85-.3-7.127.103 2.45.197 4.677Zm-15.187.187c3.35-.575 6-1.21 8.08-1.829l-1.128-4.81a136.961 136.961 0 0 1-8.284 1.57l.09-.01 1.239 5.079h.003Zm-55.532 2.618c-.556-.158-1.114-.326-1.677-.495l-.018.028c3.335 1.01 6.605 1.84 9.807 2.508-1.07-.234-2.149-.478-3.238-.747a136.802 136.802 0 0 1-4.875-1.293ZM97.36 9.326a37.81 37.81 0 0 0 2.127-.873l-2.128.873Z"/>
    <path fill="#9F383D" d="m108.85 44.392-1.522 1.156 1.522-1.156Z"/>
    <path fill="#783637" d="m102.575 21.997-.011.01.075.14-5.405 4.031 3.711 7.124 5.211-4.358-3.581-6.947Zm-4.489-8.716-6.461 2.123 1.859 3.564 5.938-3.09-1.336-2.597Zm14.55 28.24-3.084-5.985-.01.007.075.14-5.047 4.577 2.758 5.288 1.522-1.157 3.786-2.87ZM21.89 19.719l2.218 1.225 2.26-5.694-1.39-.852-3.087 5.32Z"/>
    <path fill="#9F383D" d="m26.43 15.286-.06-.036-2.26 5.694 2.32-5.658Z"/>
    <path fill="#783637" d="m15.207 31.229 3.807 2.543 1.34-3.37 1.15-2.895-3.02-1.926-3.277 5.648Z"/>
    <path fill="#9F383D" d="m21.505 27.507-1.15 2.896 1.15-2.896Z"/>
    <path fill="#783637" d="m16.1 41.122-4.664-3.402-3.893 6.71 5.706 3.77.426-1 .01.004v-.003l2.415-6.079Z"/>
    <path fill="#3A3A3A" d="m28.54 43.554 7.395 1.53.996-6.789-7.593-1.473-.799 6.732Zm1.605-13.518 7.797 1.369 1.006-6.833-7.987-1.394-.816 6.858Z"/>
    <path fill="#783637" d="m23.8 35.748-.882 6.642 5.62 1.164.798-6.732-5.537-1.074Zm2.555-19.238 5.29.928.53-4.466-.028-.01a110.322 110.322 0 0 1-4.889-1.653l-.204-.068-.698 5.27Z"/>
    <path fill="#783637" d="M27.258 11.31c1.64.595 3.27 1.145 4.889 1.652l-4.89-1.653Zm2.884 18.726.817-6.858-5.37-.934-.905 6.837 5.458.955ZM22.097 48.58l-.154 1.168-.011.086-.233 2.026 5.717 1.143.372-3.118-5.691-1.304Zm-.167 1.254.01-.086-.01.086ZM39.785 18.86l2.808.493.767-3.349-3.034-.826-.54 3.682Zm-4.8 32.673-.422 2.892.648-2.841-.226-.05Zm.949-6.448.73.151 1.533-6.696-1.268-.245-.995 6.79Zm2.007-13.68 1.82.32 1.544-6.743-2.357-.41-1.007 6.833Z"/>
    <path fill="#783637" d="m38.948 24.572.838-5.712-8.141-1.422-.684 5.74 7.987 1.394Z"/>
    <path fill="#ECADB2" d="m41.326 24.985 1.268-5.633-1.29 5.63.022.003Z"/>
    <path fill="#9F383D" d="m25.59 22.244 5.369.934.684-5.74-5.29-.927-.763 5.733Zm13.36 2.328 2.356.41 1.29-5.63-2.809-.492-.838 5.712Z"/>
    <path fill="#ECADB2" d="m24.675 29.077-.874 6.671.885-6.667-.011-.004Zm13.553 9.47 1.533-6.822-1.562 6.814.029.008Z"/>
    <path fill="#783637" d="m29.336 36.822 7.593 1.473 1.01-6.89-7.797-1.369-.806 6.786Z"/>
    <path fill="#9F383D" d="m23.8 35.748 5.538 1.074.806-6.786-5.458-.955-.885 6.667Zm13.13 2.547 1.268.244 1.561-6.815-1.82-.32-1.01 6.891Z"/>
    <path fill="#ECADB2" d="m22.105 48.508-.011.069v.003l.823-6.19-.813 6.118Zm-.011.069.01-.069-.01.069Z"/>
    <path fill="#783637" d="m28.537 43.555-.752 6.33 7.2 1.648.949-6.448-7.397-1.53Z"/>
    <path fill="#9F383D" d="m22.918 42.39-.824 6.19 5.691 1.304.752-6.33-5.62-1.163Zm12.066 9.143.226.05 1.454-6.347-.73-.151-.95 6.448Z"/>
    <path fill="#783637" d="m45.114 26.976-.755-4.732 8.972.388-.853-5.341-.1-.015a111.599 111.599 0 0 1-4.971-.7l-4.048-.572 1.755 10.972Zm4.12 25.724.086 1.973h9.119l-1.175-7.379-8.958-.391-1.16-7.25 8.98.496-1.373-8.593-8.929-.151 3.41 21.296Z"/>
    <path fill="#783637" d="m43.36 16.004 2.42 15.135-.666-4.163-1.755-10.972Zm4.046.572c1.684.276 3.338.506 4.972.7l-4.972-.7Zm15.124 6.451 3.546.155.666-5.12a109.24 109.24 0 0 1-4.48-.05h-.047l.311 5.015h.004Z"/>
    <path fill="#783637" d="m66.743 18.06.007-.051h-4.484c1.525.046 3.019.064 4.48.05h-.003ZM63.07 31.692l.616 9.83 1.125-8.633.15-1.164-1.89-.033Zm.618 9.829 1.124-8.632-1.124 8.632Z"/>
    <path fill="#783637" d="m53.332 22.632 1.422 8.924 8.317.136-.541-8.665-9.198-.395Z"/>
    <path fill="#9F383D" d="m44.36 22.244.755 4.731.71 4.43 8.928.15-1.422-8.923-8.972-.388Zm.753 4.732.666 4.163.043.266-.709-4.43Zm.711 4.429-.043-.266.043.266Zm19.984-6.179.27-2.048-3.547-.15.541 8.664 1.891.033.846-6.5Z"/>
    <path fill="#9F383D" d="m64.96 31.725.295-2.253.551-4.246-.845 6.499Z"/>
    <path fill="#9F383D" d="m64.96 31.725.295-2.253-.294 2.253Z"/>
    <path fill="#783637" d="m62.902 47.542.723-6.976-7.5-.417 1.139 7.145 5.638.248Z"/>
    <path fill="#9F383D" d="m48.305 46.903 8.958.391-1.14-7.145-8.978-.496 1.16 7.25Z"/>
    <path fill="#783637" d="m72.959 21.928 8.22-1.225-.438-3.632c-2.582.345-5.365.622-8.316.794h-.01l.543 4.063Z"/>
    <path fill="#9F383D" d="m80.743 17.075-8.317.794c2.955-.173 5.734-.45 8.317-.794Z"/>
    <path fill="#783637" d="m75.09 37.832 7.965-1.47-.967-8.054-8.123 1.128 1.124 8.396Zm2.223 16.593 7.736-1.422-1.063-8.855-7.92.966 1.247 9.311Zm10.464-26.903-.828-7.677-5.773.862.913 7.601 5.688-.786Z"/>
    <path fill="#783637" d="m73.966 29.436-1.007-7.508-4.717.704.545 2.917.838 4.487 4.34-.6Z"/>
    <path fill="#9F383D" d="m68.242 22.632.545 2.917-.545-2.917Zm5.725 6.804 8.124-1.128-.914-7.602-8.216 1.222 1.006 7.508Z"/>
    <path fill="#783637" d="m83.055 36.363.93 7.785 5.506-.672-.2-1.872-.674-6.265-5.562 1.024Z"/>
    <path fill="#9F383D" d="m89.493 43.476-.2-1.872.2 1.872Z"/>
    <path fill="#783637" d="m71.207 38.547 1.168 6.272.136.73 3.556-.435-.977-7.282-3.883.715Z"/>
    <path fill="#9F383D" d="m72.511 45.548-.136-.73.136.73Zm2.579-7.716.978 7.281 7.919-.966-.931-7.785-7.966 1.47Z"/>
    <path fill="#783637" d="m105.923 19.5-3.131-5.371-3.37 1.75 3.155 6.117 3.346-2.496Zm-12.366-.389-.076-.143-4.43 2.302.129.288 3.456 7.857 4.517-3.37-3.61-6.926.014-.008Z"/>
    <path fill="#9F383D" d="m92.636 29.415-3.456-7.857 3.456 7.857Zm6.851-13.385 3.081 5.977.01-.01-3.155-6.119-5.939 3.09.076.144 5.927-3.083Z"/>
    <path fill="#783637" d="m109.552 35.536 3.735-3.391-3.588-6.161-3.543 2.96 3.396 6.592Zm-8.531-2.094-.075-.14-4.825 4.034 3.263 7.418 5.104-4.627-3.478-6.678.011-.007Z"/>
    <path fill="#9F383D" d="m100.945 33.302.076.14 5.2-4.347 3.32 6.449.011-.008-3.395-6.592-5.212 4.358Z"/>
    <path fill="#783637" d="m97.152 26.045.076.14.007-.007-.072-.14-.01.007Z"/>
    <path fill="#783637" d="m102.565 22.007-5.4 4.031.07.14 5.405-4.03-.075-.14Zm-9.008-2.895-.014.007 3.61 6.926.011-.007-3.607-6.926Z"/>
    <path fill="#9F383D" d="m93.559 19.112 3.606 6.926 5.402-4.03-3.08-5.979-5.928 3.083Z"/>
    <path fill="#783637" d="m104.488 40.127.075.14.008-.007-.072-.143-.011.01Zm.084.133 5.046-4.576-.075-.14-5.043 4.573.072.143Z"/>
    <path fill="#783637" d="m101.022 33.442-.01.007 3.478 6.678.01-.01-3.478-6.675Z"/>
    <path fill="#9F383D" d="m101.023 33.442 3.478 6.675 5.043-4.573-3.32-6.449-5.201 4.347ZM49.562 15.221l-.007.147c3.349.36 6.565.56 9.635.63l-.026-.277a113.779 113.779 0 0 1-9.602-.496v-.004Zm9.303-2.719-.175-1.88a130.848 130.848 0 0 1-8.936-.319l-.047 1.24c2.901.406 5.964.736 9.158.959Z"/>
    <path fill="#9F383D" d="m59.054 14.52-.186-2.018a132.858 132.858 0 0 1-9.158-.96l-.1 2.573c2.99.23 6.146.377 9.448.406h-.004Z"/>
    <path fill="#9F383D" d="m49.605 14.115-.042 1.11c3.32.312 6.525.467 9.602.496l-.111-1.197a139.019 139.019 0 0 1-9.449-.406v-.003Zm17.352 1.411.04.363c3.517-.176 6.79-.514 9.799-.952l-.068-.413c-3.02.442-6.286.794-9.771.999v.003Zm9.437-3.021-.455-2.752a182.28 182.28 0 0 1-9.552.687l.265 2.367c3.155.029 6.407-.065 9.742-.302Z"/>
    <path fill="#9F383D" d="m76.563 13.53-.168-1.025c-3.335.237-6.587.327-9.743.302l.176 1.556c3.155-.155 6.404-.42 9.735-.837v.003Z"/>
    <path fill="#9F383D" d="m66.828 14.366.13 1.16c3.484-.204 6.75-.556 9.77-.998l-.165-.995c-3.33.413-6.583.682-9.735.837v-.004ZM36.879 13.3a122.1 122.1 0 0 0 4.427.883v-.047a111.92 111.92 0 0 1-4.427-.837Zm4.427-3.205v-.683A105.01 105.01 0 0 1 33.64 8.04v.252c2.313.617 4.874 1.232 7.665 1.803Z"/>
    <path fill="#9F383D" d="M41.306 13.227v-3.129a133.477 133.477 0 0 1-7.665-1.803v3.66c2.313.453 4.874.892 7.665 1.272Z"/>
    <path fill="#9F383D" d="M41.306 13.227c-2.79-.384-5.352-.819-7.665-1.271v.6c1.089.269 2.167.513 3.238.747 1.49.312 2.965.589 4.427.837v-.913Zm44.03-.312.09.366a84.1 84.1 0 0 0 7.922-2.31l-.053-.226a98.495 98.495 0 0 1-7.96 2.17Zm7.804-2.849-.763-3.251c-2.08.618-4.731 1.254-8.08 1.828l.713 2.925a109.95 109.95 0 0 0 8.13-1.502Z"/>
    <path fill="#9F383D" d="m93.196 10.307-.058-.241c-2.74.61-5.455 1.106-8.13 1.502l.143.592a122.075 122.075 0 0 0 8.041-1.85l.004-.003Z"/>
    <path fill="#9F383D" d="M85.339 12.915a98.129 98.129 0 0 0 7.958-2.17l-.104-.435a122.738 122.738 0 0 1-8.04 1.85l.186.755Zm-58.224-2.418-.021.266.021-.266Zm2.229-8.202c1.307.27 2.74.54 4.283.809l-4.283-.809Z"/>
    <path fill="#9F383D" d="M27.433 6.452A85.808 85.808 0 0 0 33.64 8.04V3.104h-.014a162.91 162.91 0 0 1-4.284-.808L27.784 2l-.354 4.451h.003Z"/>
    <path fill="#783637" d="M33.64 8.291V8.04a89.735 89.735 0 0 1-6.206-1.588v.015c1.783.574 3.868 1.2 6.207 1.824Z"/>
    <path fill="#783637" d="M33.64 11.952v-3.66a127.066 127.066 0 0 1-6.208-1.826l-.319 4.031c1.856.467 4.044.97 6.53 1.455h-.004Z"/>
    <path fill="#783637" d="M27.094 10.763a123.04 123.04 0 0 0 6.55 1.789v-.6a124.237 124.237 0 0 1-6.529-1.455l-.021.262v.004Z"/>
    <path fill="#9F383D" d="M41.316 4.229c2.676.323 5.556.6 8.61.797l-8.61-.797Z"/>
    <path fill="#9F383D" d="M41.304 9.416c2.593.366 5.409.675 8.453.89l.204-5.273h-.04a158.86 158.86 0 0 1-8.61-.801h-.01v5.184h.003Z"/>
    <path fill="#783637" d="M41.305 14.136v.047c2.833.507 5.587.898 8.252 1.185l.007-.147c-2.683-.251-5.44-.61-8.26-1.085Zm8.402-2.594.047-1.239c-3.041-.212-5.86-.52-8.453-.89v.682a135.9 135.9 0 0 0 8.402 1.447h.004Z"/>
    <path fill="#783637" d="m49.607 14.115.1-2.572a135.822 135.822 0 0 1-8.402-1.448v3.129c2.586.355 5.361.66 8.302.887v.004Z"/>
    <path fill="#783637" d="M41.305 13.227v.913c2.819.474 5.576.833 8.26 1.085l.042-1.11c-2.94-.226-5.716-.532-8.302-.888Z"/>
    <path fill="#9F383D" d="m65.776 5.245-7.514.1c2.428.03 4.935 0 7.514-.1Z"/>
    <path fill="#9F383D" d="M58.694 10.623c1.855.004 3.768-.025 5.748-.1.663-.026 1.311-.054 1.949-.083l-.58-5.195h-.033c-2.578.097-5.086.126-7.514.1h-.06l.49 5.282v-.004Z"/>
    <path fill="#783637" d="m59.168 15.717.025.277c.878.018 1.74.025 2.593.025h.795c1.512-.015 2.984-.061 4.417-.133l-.04-.363c-2.49.147-5.09.22-7.79.194Zm7.485-2.91-.265-2.367c-.637.028-1.285.057-1.948.082-1.98.075-3.893.104-5.749.1l.176 1.88c2.514.175 5.115.28 7.786.305Z"/>
    <path fill="#783637" d="m66.83 14.366-.176-1.555c-2.669-.022-5.269-.13-7.787-.306l.186 2.02c2.511.02 5.108-.026 7.773-.155l.003-.004Z"/>
    <path fill="#783637" d="m59.055 14.52.11 1.197a114.18 114.18 0 0 0 7.79-.194l-.128-1.16c-2.665.129-5.261.179-7.772.154v.003Z"/>
    <path fill="#9F383D" d="M75.176 4.584c2.55-.262 5.15-.596 7.786-1.013l-7.786 1.013Z"/>
    <path fill="#9F383D" d="M75.939 9.753c3.177-.32 5.946-.7 8.356-1.113l-1.24-5.08-.089.01c-2.64.418-5.236.752-7.786 1.014l-.086.01.849 5.156-.004.003Z"/>
    <path fill="#783637" d="m76.727 14.524.068.413a96.061 96.061 0 0 0 8.635-1.656l-.09-.366c-2.575.589-5.458 1.15-8.61 1.613l-.003-.004Zm8.283-2.96-.713-2.924c-2.406.413-5.179.794-8.356 1.113l.455 2.752c2.82-.201 5.695-.51 8.614-.941Z"/>
    <path fill="#783637" d="m85.156 12.157-.144-.593c-2.919.428-5.795.74-8.614.941l.169 1.024a125.81 125.81 0 0 0 8.592-1.372h-.003Z"/>
    <path fill="#783637" d="m76.562 13.529.165.995a108.5 108.5 0 0 0 8.61-1.613l-.186-.754a125.81 125.81 0 0 1-8.592 1.372h.003Z"/>
    <path fill="#9F383D" d="M91.25 2.001C93.85 1.423 96.48.758 99.126 0L91.25 2.001ZM99.129 0l.057 1.326L99.13 0Z"/>
    <path fill="#9F383D" d="m99.287 3.775-.104-2.446-.057-1.326a132.55 132.55 0 0 1-7.876 2.001l1.128 4.81c5.316-1.576 6.91-3.039 6.91-3.039Z"/>
    <path fill="#783637" d="M93.355 10.971h.007l3.997-1.641c-1.014.388-2.375.88-4.058 1.419l.053.226v-.004Zm6.13-2.518-.197-4.677s-1.594 1.458-6.91 3.04l.764 3.25c2.102-.47 4.216-1.002 6.347-1.613h-.004Z"/>
    <path fill="#783637" d="M93.198 10.306c2.08-.553 4.18-1.167 6.29-1.857-2.128.61-4.245 1.146-6.347 1.613l.057.24v.005Z"/>
    <path fill="#783637" d="M93.3 10.745a77.293 77.293 0 0 0 4.057-1.419l2.128-.873c-2.11.686-4.205 1.3-6.29 1.857l.104.435Z"/>
    <path fill="#676767" d="M11.45 28.721 7.544 34.88l3.893 2.841 3.772-6.491-3.757-2.508Z"/>
    <path fill="#CE646E" d="M.025 39.193 0 39.23l.025-.036Zm8.233-12.605.025-.036h-.004l-3.9 5.97h.003l3.876-5.934ZM20.114 8.453h-.01l-1.358 2.08.004.004 1.364-2.084Zm-4.94 7.555-.003-.004-3.417 5.231h.004l3.416-5.227Z"/>
    <path fill="#676767" d="m14.898 23.293 3.586 2.289 3.406-5.863-3.496-1.933-3.496 5.507Zm6.892-10.849 3.194 1.954 1.877-3.233a112.812 112.812 0 0 1-3.42-1.318l-1.652 2.597Z"/>
    <path fill="#010101" d="m20.113 8.453 3.346 1.354-.026.04a113.3 113.3 0 0 0 3.421 1.318l.215-.373c-2.292-.694-4.61-1.47-6.956-2.339Z"/>
    <path fill="#848484" d="M20.113 3.776s2.41 1.077 6.695 2.49c.204.064.411.125.626.19l.355-4.451-.104-.058C22.853.891 20.113 0 20.113 0v3.776Z"/>
    <path fill="#CE646E" d="M20.113 3.776s2.285 1.139 6.695 2.49c-4.28-1.412-6.695-2.49-6.695-2.49Zm.004 4.677.18.065c-.062-.022-.123-.043-.18-.065Z"/>
    <path fill="#CE646E" d="M20.3 8.518c-.11-.04-.175-.061-.179-.065a117.2 117.2 0 0 0 6.956 2.339l.018-.029a137.33 137.33 0 0 1-6.791-2.245H20.3ZM8.258 26.587l-3.875 5.935 3.159 2.303-.025.036.025.018 3.908-6.158-3.192-2.134ZM21.762 12.43l.026.014 1.65-2.597a115.34 115.34 0 0 1-3.32-1.394l-1.364 2.087 3.034 1.858-.026.036v-.004Zm-6.888 10.849.025.014 3.496-5.507-3.22-1.778-3.417 5.227 3.141 2.004-.025.04Z"/>
    <path fill="#CE646E" d="m23.433 9.847.026-.04-3.346-1.354c1.11.489 2.217.949 3.32 1.394Zm-8.236 6.118-.025.04.025-.04Zm-.022.043.026-.04-.004-.003-.025.04.003.003Z"/>
    <path fill="#AA434D" d="m21.89 19.719 3.088-5.32-3.192-1.955-3.392 5.342 3.496 1.933Z"/>
    <path fill="#CE646E" d="m21.788 12.444-.026-.014-3.366 5.306-3.195-1.768-.025.04 3.22 1.778 3.392-5.342ZM8.283 26.552l-.025.036.025-.036Z"/>
    <path fill="#AA434D" d="m14.898 23.294-3.449 5.428 3.757 2.507 3.278-5.647-3.586-2.288Z"/>
    <path fill="#CE646E" d="m14.873 23.279-3.424 5.388-3.166-2.116-.025.036 3.191 2.134 3.45-5.428-.026-.014Z"/>
    <path fill="#AA434D" d="m11.436 37.72-3.893-2.84-4.22 6.642L0 39.23l7.543 5.202 3.893-6.71Z"/>
    <path fill="#CE646E" d="M.025 39.193 0 39.23l.025-.036ZM18.73 10.576l.022-.04-.004-.003-.025.036.007.007Zm3.06 1.818-3.038-1.857-.021.04 3.033 1.853.025-.036Z"/>
    <path fill="#B94E59" d="m21.76 12.43-3.033-1.854-3.528 5.392 3.195 1.768 3.367-5.306Z"/>
    <path fill="#CE646E" d="M11.727 21.278 8.28 26.552h.004l3.442-5.274Zm.007-.004.025-.04h-.003l-.026.037.004.003ZM14.9 23.24l-3.14-2.005-.026.04 3.142 2.004.025-.04Zm-3.17-1.97-.003.008.003-.008Z"/>
    <path fill="#CE646E" d="m11.734 21.274-.003-.004-.004.008-3.442 5.273 3.45-5.277Z"/>
    <path fill="#B94E59" d="m11.451 28.668 3.425-5.389-3.142-2.005-3.449 5.278 3.166 2.116Z"/>
    <path fill="#CE646E" d="M4.357 32.554v.004l.025-.036H4.38L.023 39.193l4.334-6.639Zm3.161 2.306.026-.035-3.16-2.303-.025.036 3.16 2.303Z"/>
    <path fill="#B94E59" d="m7.518 34.86-3.16-2.302-4.333 6.635L0 39.23l3.324 2.292 4.22-6.642-.026-.018Z"/>
    <path fill="#CE646E" d="M27.431 6.452c-.214-.065-.419-.126-.626-.19.204.068.412.136.623.204v-.014h.003Z"/>
    <path fill="#CE646E" d="m20.116 8.453.18.065c.648.226 3.033 1.03 6.812 1.983l.319-4.03c-.215-.07-.42-.137-.623-.206-4.406-1.347-6.691-2.486-6.695-2.49v4.678h.007Z"/>
    <path fill="#848484" d="M27.113 10.497c-3.779-.952-6.164-1.757-6.812-1.983 2.3.83 4.563 1.574 6.79 2.245l.022-.262Z"/>
    <path fill="#3A3A3A" d="m116.999 38.306-3.589-6.161 3.589 6.161Zm-14.086-24.177 1.007 1.728-2.221-3.812 1.214 2.084Z"/>
    <path fill="#010101" d="m101.701 12.046-2.095-3.593 2.091 3.593h.004Zm-.004 0-2.091-3.593 2.091 3.593Z"/>
    <path fill="#9F383D" d="m108.969 44.391 3.789-2.87-3.789 2.87Zm-6.055-30.262 3.13 5.37-2.123-3.642-1.007-1.728Zm3.128 5.371-2.124-3.643 2.124 3.643Z"/>
    <path fill="#783637" d="m104.609 40.127.072.14.011-.007-.072-.143-.011.01Z"/>
    <path fill="#64272A" d="M99.29 3.776s-.749.539-1.014.697c-.294.172-1.221.614-1.221.614l.426 4.24a38.182 38.182 0 0 0 2.127-.874l-.318-4.677Z"/>
    <path fill="#010101" d="m109.676 35.536 3.084 5.985 4.24-3.215-3.588-6.161-3.736 3.391Zm-6.762-21.407-1.214-2.084s-.77.32-2.188.805c.386.708.813 1.509 1.264 2.39l2.138-1.111Zm3.534 14.675 3.374-2.82-3.775-6.48-2.414 1.803a83.388 83.388 0 0 1 2.819 7.5l-.004-.003Z"/>
    <path fill="#010101" d="m101.699 12.046-2.095-3.593s-.738.341-2.127.873c0 0 .823 1.311 2.034 3.524 1.415-.485 2.178-.797 2.188-.804Z"/>
    <path fill="#783637" d="m109.674 35.536-.011.007.036.069-1.297 1.174c.423 2.536.667 5.152.566 7.609l3.79-2.87-3.084-5.985v-.004Zm-6.046-14.233 2.414-1.803-3.13-5.374-2.139 1.11c.892 1.742 1.881 3.8 2.855 6.064v.003Zm6.195 4.681-3.374 2.82c.126.395.251.79.369 1.189l2.858 5.543 3.736-3.388-3.589-6.16v-.004Z"/>
    <path fill="#010101" d="m106.834 30.05 2.83 5.494.011-.008-2.859-5.543c.008.022.011.04.018.061v-.003Z"/>
    <path fill="#783637" d="m108.405 36.786 1.296-1.174-2.865-5.558a57.827 57.827 0 0 1 1.569 6.732ZM97.053 5.087 96.426.665l2.7-.665.162 3.776s-1.025.783-2.235 1.31Z"/>
  </g>
  <defs>
    <clipPath id="a">
      <path fill="#fff" d="M0 0h117v55H0z"/>
    </clipPath>
  </defs>
</svg>
