<svg xmlns="http://www.w3.org/2000/svg" width="89" height="86" fill="none" viewBox="0 0 89 86">
  <g clip-path="url(#a)">
    <path fill="#1E1E1E" d="M5.312 0s33.796 11.58 78.46 1.598l.038.038c.38.382.608.887.646 1.424l.56 8.285a2.599 2.599 0 0 1-.49 1.702l4.48 68.035s-11.666 9.586-39.026 2l-8.45-42.739-3.62 42.337S7.73 87.07.083 77.885l4.503-67.059-.11-.174a3.43 3.43 0 0 1-.503-2.019l.4-6.473A3.37 3.37 0 0 1 5.064.32l.247-.315V0Z"/>
    <path fill="#A781B5" d="m75.487 85.656-10.042-69.85 4.166-.44 9.642 69.752-3.766.538Z"/>
    <path fill="#1EAFB2" d="m69.61 15.367 4.868-.641 9.096 69.34-4.322 1.052-9.643-69.751Z"/>
    <path fill="#0779B9" d="m74.48 14.725 5.316-.83 7.495 68.757-3.714 1.415-9.096-69.342Z"/>
    <path fill="#EBA741" d="m79.793 13.896 7.495 68.756 1.71-.943-4.474-68.662-4.731.849Z"/>
    <path fill="#010101" d="M41.524 40.338s-5.23-5.46-6.574-5.993c0 0 3.487 21.035 0 32.752-3.486 11.717-23.602 15.55-23.602 15.55s8.854 3.886 26.557.024l3.62-42.338v.005ZM4.586 10.826s36.94 9.944 79.937 2.221l.77 11.807s-66.581-.184-80.86-11.807l.148-2.22h.005Z"/>
    <path fill="#EBA741" d="M79.926 13.872c1.563-.245 3.097-.519 4.598-.825l-4.598.825Z"/>
    <path fill="#010101" d="m85.297 24.854-.77-11.807.77 11.807Z"/>
    <path fill="#8670A8" d="m69.561 15.027-4.194.25 1.302 9.058c1.458.066 2.864.123 4.203.175l-1.31-9.483Z"/>
    <path fill="#0E94AD" d="m69.563 15.027 1.31 9.483c1.763.066 3.406.117 4.912.165L74.46 14.589l-4.897.438Z"/>
    <path fill="#185889" d="m74.46 14.589 1.326 10.085a607 607 0 0 0 5.197.123l-1.188-10.902-5.33.694h-.004Z"/>
    <path fill="#E2723C" d="M80.98 24.797c2.727.052 4.313.057 4.313.057l-.77-11.807a89.332 89.332 0 0 1-4.597.825l-.133.024 1.188 10.901Z"/>
    <path fill="#A781B5" d="m8.7 11.783-4.265 69.19-2.712-1.556L6.397 11.27l2.303.514Z"/>
    <path fill="#1EAFB2" d="M6.4 11.27 1.725 79.417.082 77.885l4.503-67.059 1.814.443Z"/>
    <path fill="#010101" d="m4.438 13.047.147-2.22-.147 2.22Z"/>
    <path fill="#A781B5" d="M6.406 11.269c.618.146 1.387.316 2.294.51l-2.294-.51Z"/>
    <path fill="#8670A8" d="M6.195 14.258c.694.42 1.454.82 2.28 1.203l.228-3.683c-.912-.193-1.676-.367-2.294-.509h-.005l-.204 2.99h-.005Z"/>
    <path fill="#1EAFB2" d="M4.582 10.826s.627.17 1.81.443l-1.81-.443Z"/>
    <path fill="#0E94AD" d="M6.398 11.27a88.334 88.334 0 0 1-1.81-.444l-.147 2.221c.518.42 1.112.825 1.758 1.216l.204-2.989-.005-.005Z"/>
    <path fill="#1EAFB2" d="M4.356 13.047 0 77.885l4.356-64.838Z"/>
    <path fill="#575858" d="M6.315 11.27h.004l2.295.508c-.703-.796-.437-1.994-.437-1.994s-.2-6.125 0-7.323c.2-1.197.988-1.32.988-1.32C8.177.886 5.222 0 5.222 0 4.42.566 4.32 1.839 4.32 1.839s-.404 6.257-.433 7.318c-.023 1.06.608 1.674.608 1.674l.77.188 1.04.255.01-.005Z"/>
    <path fill="#A999C5" d="M8.394 15.466a25.455 25.455 0 0 1-2.28-1.203l-4.47 65.154 2.713 1.556 4.037-65.507Z"/>
    <path fill="#5CBBBE" d="M6.113 14.258a15.836 15.836 0 0 1-1.757-1.216L0 77.885l1.643 1.537 4.47-65.163Z"/>
  </g>
  <defs>
    <clipPath id="a">
      <path fill="#fff" d="M0 0h89v86H0z"/>
    </clipPath>
  </defs>
</svg>
