<?xml version="1.0" encoding="UTF-8"?>
<svg version="1.1" xmlns="http://www.w3.org/2000/svg" width="1184" height="864">
<path d="M0 0 C2.21484375 1.875 2.21484375 1.875 3.9375 4 C4.81728516 5.051875 4.81728516 5.051875 5.71484375 6.125 C7 8 7 8 7 10 C7.56968506 10.24588867 8.13937012 10.49177734 8.72631836 10.74511719 C13.35977057 13.30239673 16.85850984 17.52354698 20.5625 21.25 C21.46057373 22.15081299 22.35864746 23.05162598 23.28393555 23.97973633 C30.13588926 30.93947776 36.20968126 38.15637674 42 46 C43.87718918 48.28825251 45.75670871 50.57339154 47.66015625 52.83984375 C49.09481191 55.15286002 49.61461054 57.32367771 50.2956543 59.93579102 C51.82628245 64.42156608 54.48684946 68.42800798 56.875 72.5 C63.11941839 83.34373144 69.00317851 94.33692347 74.70556641 105.47412109 C75.83113323 107.67048367 76.96662307 109.86129079 78.10546875 112.05078125 C84.15362255 123.79429265 89.37909108 135.92085862 94.68530273 148.01245117 C95.8384509 150.63289204 97.00452462 153.24699843 98.17578125 155.859375 C99.85980772 159.6430398 101.41750233 163.45987432 102.9375 167.3125 C105.9697968 174.95803467 109.12680112 182.54767863 112.31640625 190.12890625 C112.74824219 191.15886719 113.18007812 192.18882812 113.625 193.25 C114.20121094 194.61898437 114.20121094 194.61898437 114.7890625 196.015625 C116.82487847 201.03292631 118.70240645 206.09917677 120.46484375 211.21875 C120.70783203 211.92386719 120.95082031 212.62898437 121.20117188 213.35546875 C121.69164681 214.78396075 122.17863474 216.21365483 122.66210938 217.64453125 C123.87678143 221.15073502 125.1834528 224.45368664 126.921875 227.734375 C129.71999875 233.1616842 131.44351563 238.95291833 133.3125 244.75 C134.10288721 247.16448171 134.89456519 249.57854124 135.6875 251.9921875 C136.07679687 253.1790918 136.46609375 254.36599609 136.8671875 255.58886719 C138.70584689 261.12545103 140.64670047 266.62506387 142.61645508 272.11621094 C144.1588647 276.45451022 145.54135788 280.80966771 146.84375 285.2265625 C149.32514893 293.38473272 152.73569021 301.1115842 156.19726562 308.89453125 C159.13769599 315.81272155 160.61100026 321.69061749 160.7421875 329.22802734 C161.08653552 332.93042071 162.50262403 335.02722014 164.6640625 337.95703125 C166.81169254 341.24127251 167.87721694 344.8763694 169.10546875 348.58203125 C169.97015407 351.20607128 169.97015407 351.20607128 172 354 C172.43676874 355.38357067 172.82708052 356.78210592 173.1875 358.1875 C174.7883896 363.7906136 177.08674086 368.99413318 179.48706055 374.28979492 C184.1327003 384.58192812 184.1327003 384.58192812 183.80078125 388.12890625 C180.15502788 396.64752022 171.71284912 403.85473548 165.39990234 410.52099609 C164.19355645 411.79550663 162.99628367 413.07859393 161.80078125 414.36328125 C157.0228941 419.3543804 151.76459352 423.21211676 146 427 C142.13033814 429.51684877 142.13033814 429.51684877 138.421875 432.2578125 C128.60427512 440.06920719 117.0365247 445.59830112 105.81958008 451.10302734 C100.30443731 453.81373267 94.93065986 456.73910211 89.57421875 459.75 C87 461 87 461 84 461 C84 461.66 84 462.32 84 463 C83.30132813 463.19335938 82.60265625 463.38671875 81.8828125 463.5859375 C80.51769531 463.97652344 80.51769531 463.97652344 79.125 464.375 C77.76761719 464.75785156 77.76761719 464.75785156 76.3828125 465.1484375 C73.85430274 465.8604315 73.85430274 465.8604315 72 468 C70.20336914 468.73022461 70.20336914 468.73022461 68.03515625 469.40234375 C67.24012695 469.65137451 66.44509766 469.90040527 65.62597656 470.15698242 C64.7800293 470.41455322 63.93408203 470.67212402 63.0625 470.9375 C62.20237305 471.20473877 61.34224609 471.47197754 60.45605469 471.74731445 C55.14451667 473.38528875 49.8197015 474.93037564 44.421875 476.26171875 C41.85090678 476.98683818 41.85090678 476.98683818 38.9609375 478.390625 C33.80546637 480.65134626 28.33884336 481.78500022 22.875 483.0625 C21.19929932 483.46045776 21.19929932 483.46045776 19.48974609 483.86645508 C12.91314576 485.40201791 6.41247848 486.68352101 -0.28125 487.57421875 C-6.03090991 488.47466836 -11.58421888 490.24101318 -17.12695312 491.98242188 C-21.24798616 493.15264057 -25.34621116 493.64711973 -29.6015625 494.0625 C-30.8336998 494.18709595 -30.8336998 494.18709595 -32.09072876 494.31420898 C-41.83306087 495.24818349 -51.59824878 495.62491489 -61.375 496 C-72.51789441 496.42918996 -83.6211941 496.96215749 -94.7265625 498 C-95.62780853 498.08306396 -96.52905457 498.16612793 -97.45761108 498.25170898 C-98.28709259 498.33364502 -99.1165741 498.41558105 -99.97119141 498.5 C-100.7028653 498.5721875 -101.43453918 498.644375 -102.18838501 498.71875 C-104.09497171 498.92052534 -104.09497171 498.92052534 -106 500 C-106.11498393 506.59561965 -105.83626296 513.01498869 -105.08203125 519.56640625 C-104.98290939 520.44417221 -104.88378754 521.32193817 -104.78166199 522.2263031 C-104.57040743 524.07286349 -104.35595546 525.91906067 -104.13842773 527.76489258 C-103.81629126 530.52995761 -103.51620393 533.29684766 -103.21679688 536.06445312 C-102.07329115 546.12098068 -100.2364146 555.45115597 -97.17944336 565.09350586 C-95.34664119 570.95087859 -94.36745687 576.95310823 -93.375 583 C-93.1682666 584.20406494 -92.9615332 585.40812988 -92.74853516 586.64868164 C-92.15713583 590.09773921 -91.57741612 593.54857885 -91 597 C-90.58170192 599.45971676 -90.16016452 601.91877733 -89.73291016 604.37695312 C-89.4077284 606.24907731 -89.09015592 608.12251921 -88.7734375 609.99609375 C-88.16495767 613.3269509 -87.4049222 616.61360574 -86.6328125 619.91015625 C-84.76517183 627.90932896 -83.11610635 635.94698154 -81.5 644 C-81.26789322 645.1510321 -81.26789322 645.1510321 -81.03109741 646.32531738 C-79.03396183 656.2630661 -77.28475631 666.17192245 -75.99438477 676.22949219 C-74.99885388 683.70871725 -73.09357398 690.75785138 -71 698 C-69.41448782 704.2041781 -68.43929577 710.44795021 -67.5625 716.7890625 C-67.05858168 720.05991117 -67.05858168 720.05991117 -65.9609375 723.37109375 C-63.99224972 730.8056911 -63.30122486 741.16981179 -66.25 748.4375 C-75.49930002 762.7723258 -96.98760296 773.20803875 -111.93701172 780.05126953 C-113.40994206 780.72864318 -114.87714304 781.41853247 -116.34033203 782.11669922 C-147.12360115 796.76843571 -180.14589216 807.09598909 -213 816 C-214.26593994 816.34901367 -215.53187988 816.69802734 -216.83618164 817.05761719 C-223.82989499 818.97254105 -230.78524613 820.67598809 -237.9375 821.875 C-239.81138363 822.20336904 -241.68506886 822.53287157 -243.55859375 822.86328125 C-244.57163574 823.04068848 -245.58467773 823.2180957 -246.62841797 823.40087891 C-252.55969754 824.4548514 -258.48115154 825.56141567 -264.40237427 826.67022705 C-266.43709625 827.05073649 -268.47230436 827.42855455 -270.50756836 827.80615234 C-280.12536373 829.60455782 -289.75597516 831.42114298 -299.24511719 833.82055664 C-307.43347035 835.87387656 -315.33003449 836.60614983 -323.75 837 C-333.17883014 837.51613628 -342.31010327 838.29063784 -351.5612793 840.17602539 C-356.52747563 841.1378124 -361.5228392 841.79624568 -366.5390625 842.4375 C-367.54111221 842.56652206 -368.54316193 842.69554413 -369.57557678 842.82847595 C-420.2774234 849.27251375 -470.72824159 852.1714561 -521.8125 850.625 C-522.92657227 850.5943042 -524.04064453 850.5636084 -525.18847656 850.53198242 C-529.66497939 850.36406142 -533.89750419 850.13139769 -538.24609375 849.0234375 C-545.08776689 847.32440014 -552.23515413 847.33530869 -559.25 847 C-568.28944563 846.56362703 -577.16696842 845.9627294 -586.10888672 844.46386719 C-590.20438714 843.80676106 -594.30638895 843.46889419 -598.4375 843.125 C-608.53700408 842.1986451 -618.40126079 840.39916994 -628.35449219 838.49365234 C-632.47610774 837.72455797 -636.61176074 837.04781339 -640.75 836.375 C-646.86233975 835.37504266 -652.93783632 834.27109884 -659 833 C-659.33 833.66 -659.66 834.32 -660 835 C-660.86625 834.1028125 -660.86625 834.1028125 -661.75 833.1875 C-664.89252248 831.07234064 -666.60319474 830.48309667 -670.20703125 829.68359375 C-677.92753887 827.83859814 -685.41794693 825.39476032 -692.9375 822.875 C-693.66431976 822.6315686 -694.39113953 822.38813721 -695.13998413 822.1373291 C-712.90892892 816.15861039 -729.5950657 808.92193886 -746.1875 800.1875 C-746.81443756 799.86076294 -747.44137512 799.53402588 -748.08731079 799.1973877 C-749.8710246 798.26300121 -751.64473255 797.30958952 -753.41796875 796.35546875 C-754.44688232 795.80528076 -755.4757959 795.25509277 -756.53588867 794.68823242 C-759.12144315 792.91679586 -759.82795291 791.82617584 -761 789 C-762.318142 788.30377886 -763.6535931 787.63985208 -765 787 C-772.79569418 779.65319416 -776.38902942 772.76354109 -777.0078125 762.05859375 C-777.23345278 746.83565541 -775.18091449 730.60935518 -771 716 C-770.49475596 713.67217406 -770.01633281 711.33839281 -769.5625 709 C-769.30367207 707.66921505 -769.04454956 706.33848736 -768.78515625 705.0078125 C-768.65512207 704.33782227 -768.52508789 703.66783203 -768.39111328 702.97753906 C-768.02475398 701.12516058 -767.63621559 699.2772075 -767.24609375 697.4296875 C-764.60812186 684.86133974 -762.85677469 672.16783091 -761.3203125 659.421875 C-760.05731302 649.03800994 -758.51638816 638.76716542 -756.5 628.5 C-756.29842285 627.45553711 -756.0968457 626.41107422 -755.88916016 625.33496094 C-754.77556099 619.85551637 -753.36789366 615.06079232 -751 610 C-749.83562116 605.98961079 -749.83562116 605.98961079 -750.96948242 602.20068359 C-752.30347058 599.35193465 -752.27531146 597.11720202 -752.30078125 593.9765625 C-752.31061035 592.79819824 -752.32043945 591.61983398 -752.33056641 590.40576172 C-752.24285272 572.04989475 -749.4825178 558.46149645 -742.66845703 541.49755859 C-737.55101405 528.7261673 -735.58229206 518.0717755 -735.47265625 504.3203125 C-735.34917739 498.11731563 -734.98194551 493.48804864 -732 488 C-732.99 487.67 -733.98 487.34 -735 487 C-735.33 486.34 -735.66 485.68 -736 485 C-737.68071742 484.2284251 -739.39701321 483.53393896 -741.125 482.875 C-748.73599115 479.80167816 -755.83916184 475.98689901 -763 472 C-763.93972656 471.47921875 -764.87945313 470.9584375 -765.84765625 470.421875 C-785.89365133 458.99998428 -804.96006258 445.93694844 -823.32421875 431.99609375 C-825.76037561 430.1787563 -828.23515992 428.45575389 -830.75 426.75 C-837.51447129 422.06606658 -843.79104837 416.75675604 -850.13574219 411.52783203 C-851.72817795 410.22276877 -853.33529792 408.93565776 -854.9453125 407.65234375 C-862.38625826 401.71069303 -869.26730718 395.23380272 -876.18505859 388.70166016 C-878.84527503 386.20748359 -881.54777245 383.76094927 -884.25 381.3125 C-887.24437647 378.58887012 -890.18540178 375.84199042 -893.01171875 372.9453125 C-893.50317383 372.44217529 -893.99462891 371.93903809 -894.50097656 371.4206543 C-895.85124169 370.02655834 -897.18971504 368.6210688 -898.52734375 367.21484375 C-900.97843831 365.01931355 -902.88841979 363.98524096 -906 363 C-905.2575 362.319375 -904.515 361.63875 -903.75 360.9375 C-897.59333129 354.71114933 -894.67673122 345.9806972 -891.3125 338.0625 C-890.56516602 336.35030273 -890.56516602 336.35030273 -889.80273438 334.60351562 C-886.82656621 327.83224453 -886.82656621 327.83224453 -885.54296875 320.62109375 C-884.89142038 316.27587551 -883.48172902 314.84767191 -880.55078125 311.75146484 C-878.04504597 308.92146722 -876.56024245 305.72963063 -875 302.3125 C-874.48602661 301.21010986 -874.48602661 301.21010986 -873.96166992 300.08544922 C-871.54640312 294.70802011 -869.85087506 289.30537519 -868.3125 283.625 C-863.53681029 266.27458355 -854.55087069 250.14047337 -845.66894531 234.57373047 C-842.3961868 228.81796156 -839.4261049 222.93855723 -836.5 217 C-832.72429791 209.34170501 -828.75918645 201.83907447 -824.55859375 194.40625 C-821.89294451 189.66920453 -819.39243782 184.8802833 -817 180 C-812.99753719 171.85045612 -808.62472598 163.92675694 -804.14892578 156.02880859 C-803.12279975 154.21684359 -802.10570163 152.39977286 -801.08984375 150.58203125 C-795.35906339 140.49115832 -788.5568584 131.50496218 -781.0168457 122.71972656 C-777.66176749 118.80968628 -774.4549812 114.81231019 -771.33984375 110.70703125 C-770 109 -770 109 -768 107 C-767.65598515 105.54877771 -767.34907208 104.08864914 -767.0625 102.625 C-765.28970457 96.33384904 -761.24217306 92.37250961 -756.79296875 87.84375 C-753.86545845 84.86301225 -751.19152688 81.74369243 -748.53515625 78.5234375 C-747 77 -747 77 -744.93359375 76.0390625 C-742.46585424 74.7129641 -742.11162547 73.53432308 -741 71 C-739.96330927 69.44086091 -738.89818654 67.90042686 -737.8125 66.375 C-735.9506881 63.75694698 -734.09519228 61.141366 -732.30078125 58.4765625 C-725.10431216 47.84122124 -716.10679719 38.97772448 -707 30 C-705.66554575 28.66778853 -704.33178024 27.33488462 -703 26 C-703 26.66 -703 27.32 -703 28 C-702.00577026 27.95758179 -702.00577026 27.95758179 -700.99145508 27.91430664 C-693.85887931 27.7435751 -687.59054956 28.73283352 -680.6875 30.4375 C-672.89330226 32.26509195 -665.56738848 33.57587758 -657.546875 33.76171875 C-655 34 -655 34 -652 36 C-649.05487714 36.5642111 -646.1549726 37.03400301 -643.1875 37.4375 C-641.85332031 37.62807983 -641.85332031 37.62807983 -640.4921875 37.82250977 C-637.66262378 38.22394175 -634.83164387 38.61353404 -632 39 C-631.12811035 39.11988281 -630.2562207 39.23976562 -629.35791016 39.36328125 C-624.90462115 39.97486291 -620.450452 40.57985677 -615.99609375 41.18359375 C-581.48912845 45.87403017 -581.48912845 45.87403017 -569.58984375 48.484375 C-566.94973686 49.09763132 -566.94973686 49.09763132 -564 49 C-562.56090584 46.99791294 -561.33753684 45.07076345 -560.125 42.9375 C-557.28323311 38.11711359 -554.34168077 33.49038353 -551 29 C-549.35 29.33 -547.7 29.66 -546 30 C-545.89042969 30.54527344 -545.78085937 31.09054688 -545.66796875 31.65234375 C-544.84979863 35.54364065 -543.94911003 39.27074882 -542.5625 43 C-541.02996357 47.3536234 -540.3375213 51.76949209 -539.625 56.3125 C-538.59707386 62.744201 -536.91041844 68.19821741 -534.1640625 74.140625 C-532.95165155 77.11876197 -532.41307679 79.83578721 -531.875 83 C-529.99580692 92.08826128 -524.90291912 99.77572431 -520.29174805 107.70874023 C-519.1150381 109.79594924 -518.03728851 111.89938257 -516.9921875 114.0546875 C-514.81097279 118.49851793 -512.22390357 122.6428946 -509.5625 126.8125 C-509.04099365 127.63218262 -508.5194873 128.45186523 -507.98217773 129.29638672 C-496.23484034 147.64470896 -483.9905581 166.103668 -469 182 C-464.8532367 180.33928169 -461.93248223 177.34042562 -458.75 174.3125 C-457.57634022 173.21006453 -456.40186565 172.10849582 -455.2265625 171.0078125 C-454.66485352 170.4809082 -454.10314453 169.95400391 -453.52441406 169.41113281 C-451.76685107 167.78417668 -449.9574545 166.22934497 -448.125 164.6875 C-439.32388556 157.06862481 -430.96496428 148.57014801 -423.4609375 139.67578125 C-421.92722273 137.91652019 -420.30327942 136.30882424 -418.625 134.6875 C-403.46396965 119.69380994 -390.05303746 100.79791648 -378.78515625 82.75390625 C-376.9341794 79.89846056 -374.96361468 77.17102474 -372.9375 74.4375 C-368.00297757 67.71206981 -363.74694574 61.09639596 -360.6875 53.3125 C-357.66937737 45.69769718 -353.33712737 38.916726 -349 32 C-344.31963419 33.95877188 -342.2609116 35.38644185 -340.25 40.0625 C-338.60544797 43.85096296 -338.60544797 43.85096296 -336 47 C-333.4347807 46.86814293 -331.03143817 46.62340586 -328.5 46.25 C-327.77022949 46.15074219 -327.04045898 46.05148438 -326.28857422 45.94921875 C-322.53606252 45.42348446 -318.82878608 44.80573592 -315.125 44 C-308.20347907 42.50249888 -301.12403649 41.96148778 -294.08837891 41.24169922 C-292.11752564 41.01360187 -290.15725656 40.69887337 -288.19921875 40.37890625 C-285 40 -285 40 -283.06445312 40.49316406 C-280.78427701 41.05296132 -279.09770367 40.9779465 -276.76953125 40.73046875 C-275.56393555 40.60381836 -275.56393555 40.60381836 -274.33398438 40.47460938 C-273.50189453 40.37986328 -272.66980469 40.28511719 -271.8125 40.1875 C-270.59336914 40.0627832 -270.59336914 40.0627832 -269.34960938 39.93554688 C-265.39898568 39.50496975 -261.58621223 38.94369376 -257.7265625 37.9921875 C-251.74751484 36.58979206 -245.67554688 36.32958053 -239.5625 35.9375 C-237.23021769 35.78370918 -234.89816732 35.62634523 -232.56640625 35.46484375 C-231.03415405 35.36610962 -231.03415405 35.36610962 -229.47094727 35.26538086 C-226.99991837 35.14543578 -226.99991837 35.14543578 -225 34 C-223.4249804 33.74556536 -221.84247725 33.53666076 -220.2578125 33.3515625 C-219.27167969 33.23296875 -218.28554688 33.114375 -217.26953125 32.9921875 C-216.23183594 32.87101562 -215.19414063 32.74984375 -214.125 32.625 C-196.78095693 30.59267538 -179.62212823 27.8562599 -162.48791504 24.49838257 C-157.41823929 23.50516666 -152.34582791 22.52611736 -147.2734375 21.546875 C-146.20875244 21.3411235 -145.14406738 21.13537201 -144.04711914 20.92338562 C-135.90530053 19.35485927 -127.75563381 17.83156501 -119.6015625 16.328125 C-118.40218048 16.10697525 -117.20279846 15.8858255 -115.96707153 15.65797424 C-110.14102476 14.58508135 -104.31422751 13.51638286 -98.48681641 12.45092773 C-96.32967034 12.05497262 -94.17260458 11.65857978 -92.015625 11.26171875 C-90.98282913 11.07211075 -89.95003326 10.88250275 -88.88594055 10.68714905 C-81.66062365 9.34629742 -74.46789407 7.88145343 -67.30975342 6.21647644 C-62.00116608 5.03339501 -56.86734672 4.70999172 -51.4375 4.625 C-44.68279401 4.44300418 -39.19838948 3.33120779 -32.875 0.9375 C-22.24517625 -3.06824549 -10.85070292 -4.05925577 0 0 Z " fill="#FEFEFE" transform="translate(955,3)"/>
<path d="M0 0 C3.71599191 -0.20086443 4.77208445 -0.1519437 8 2 C9.17578125 4.20703125 9.17578125 4.20703125 10.3125 6.8125 C12.87726708 12.13286504 15.89438203 14.84351472 20.73828125 18.20703125 C25.76656205 21.81948143 30.03703801 25.96687928 34.34814453 30.38696289 C38.53007058 34.6329317 42.93538543 38.37780284 47.625 42.0625 C50.69542656 44.56732167 53.35041122 47.10982278 55.6875 50.3125 C59.00283169 54.16545305 62.92341417 56.98902627 67 60 C67.93070312 60.68835938 68.86140625 61.37671875 69.8203125 62.0859375 C76.77598117 67.18423415 83.60373984 71.9648645 91.375 75.75 C92.80087099 76.452943 94.22664969 77.15607324 95.65234375 77.859375 C96.37534668 78.21451172 97.09834961 78.56964844 97.84326172 78.93554688 C99.90227233 79.95176674 101.95436016 80.98047002 104.00390625 82.015625 C112.97507361 86.54515772 122.01811277 90.89883036 131.13427734 95.12890625 C132.75772372 95.88688278 134.37370238 96.66081369 135.98828125 97.4375 C143.45631885 100.97790301 151.13874265 103.4854564 159 106 C161.00090456 106.66394681 163.00122774 107.32966137 165 108 C165.68442334 121.58200087 164.06685533 133.04736596 160 146 C159.41629053 147.91655215 158.83287175 149.83319291 158.25 151.75 C158.02183594 152.48476563 157.79367188 153.21953125 157.55859375 153.9765625 C156.73307754 156.96689394 156.33490383 159.91888477 156 163 C156.98669678 163.114646 157.97339355 163.22929199 158.98999023 163.34741211 C163.19830712 163.9522353 167.12045852 165.14315143 171.16015625 166.44140625 C172.75930813 166.9439273 174.35851279 167.44628042 175.95776367 167.94848633 C176.79004486 168.21190826 177.62232605 168.4753302 178.47982788 168.74673462 C195.0785124 173.9896116 211.7222094 178.82088372 228.59082031 183.125 C231.8030075 183.94943991 235.00724791 184.79948487 238.2109375 185.65625 C319.94760627 207.18501937 405.36514023 219.53636279 489.93100739 219.31805801 C492.17338635 219.31237742 494.41575763 219.3095826 496.65814209 219.30697632 C532.18958581 219.24706002 566.93083561 216.78597045 602 211 C603.15564453 210.81211914 604.31128906 210.62423828 605.50195312 210.43066406 C660.62898198 201.26461095 716.16248853 181.23912604 762.3125 149.5 C762.88750244 149.11513428 763.46250488 148.73026855 764.05493164 148.33374023 C766.35468374 146.68828076 767.82688096 145.4490028 768.85546875 142.78125 C768.98508458 140.28702105 769.01424662 137.82297549 769.0090332 135.32617188 C769.00707695 134.11084778 769.00707695 134.11084778 769.00508118 132.87097168 C769.00340439 132.25355103 769.0017276 131.63613037 769 131 C769.88725517 130.97240852 769.88725517 130.97240852 770.79243469 130.94425964 C809.51538803 130.01763985 809.51538803 130.01763985 848 126 C848.82806152 125.8747998 849.65612305 125.74959961 850.50927734 125.62060547 C858.68490039 124.34943116 866.70866299 122.62971173 874.75 120.6796875 C878.36544442 119.92357292 881.95606839 119.48413125 885.625 119.0625 C891.18532048 118.37526938 895.87787516 117.15649061 901.0546875 115.0703125 C904.67079496 113.75623631 908.32141711 112.88017824 912.0625 112 C917.51215572 110.7031602 922.65038622 109.12869219 927.8046875 106.92578125 C929.87147772 106.0541989 931.93018057 105.31820651 934.0625 104.625 C949.26118789 99.72844033 949.26118789 99.72844033 963.76953125 93.13671875 C966.01692435 91.99137481 968.26685571 91.08008685 970.625 90.1875 C976.15790707 88.05741916 981.3829125 85.36251929 986.64306641 82.64135742 C991.79580672 80 991.79580672 80 994 80 C994 79.34 994 78.68 994 78 C996.31 77.34 998.62 76.68 1001 76 C1001 75.34 1001 74.68 1001 74 C1002.65 73.67 1004.3 73.34 1006 73 C1006 72.34 1006 71.68 1006 71 C1006.55429688 70.73445313 1007.10859375 70.46890625 1007.6796875 70.1953125 C1008.40414063 69.84210938 1009.12859375 69.48890625 1009.875 69.125 C1010.59429688 68.77695312 1011.31359375 68.42890625 1012.0546875 68.0703125 C1014.15135019 67.03442457 1014.15135019 67.03442457 1016 65 C1016.99 65 1017.98 65 1019 65 C1019 64.34 1019 63.68 1019 63 C1019.99 63 1020.98 63 1022 63 C1022 62.34 1022 61.68 1022 61 C1022.99 61 1023.98 61 1025 61 C1025 60.34 1025 59.68 1025 59 C1025.99 59 1026.98 59 1028 59 C1028 58.34 1028 57.68 1028 57 C1029.32 56.67 1030.64 56.34 1032 56 C1032 55.34 1032 54.68 1032 54 C1032.928125 53.566875 1033.85625 53.13375 1034.8125 52.6875 C1037.58214651 51.22121655 1038.94925831 50.22906706 1041 48 C1042.65788785 46.65576661 1044.32576317 45.32381517 1046 44 C1047.010625 43.154375 1048.02125 42.30875 1049.0625 41.4375 C1050.031875 40.633125 1051.00125 39.82875 1052 39 C1052.70125 38.401875 1053.4025 37.80375 1054.125 37.1875 C1056 36 1056 36 1060 36 C1060.39832031 37.02480469 1060.79664063 38.04960937 1061.20703125 39.10546875 C1061.74195417 40.46623758 1062.27712349 41.82690957 1062.8125 43.1875 C1063.07353516 43.86103516 1063.33457031 44.53457031 1063.60351562 45.22851562 C1065.11825103 49.06210523 1066.83932258 52.47662261 1069 56 C1070.53507161 60.76680132 1070.53507161 60.76680132 1070 64 C1067.83701259 67.78198996 1064.95662702 70.81972495 1062 74 C1061.0235642 75.08097069 1060.04835378 76.16304922 1059.07421875 77.24609375 C1056.54329739 80.04116762 1053.97556403 82.79843902 1051.38378906 85.53710938 C1050.18432113 86.80514252 1048.99368559 88.0815194 1047.8046875 89.359375 C1043.02517336 94.351742 1037.76635094 98.21096197 1032 102 C1028.13033814 104.51684877 1028.13033814 104.51684877 1024.421875 107.2578125 C1014.60427512 115.06920719 1003.0365247 120.59830112 991.81958008 126.10302734 C986.30443731 128.81373267 980.93065986 131.73910211 975.57421875 134.75 C973 136 973 136 970 136 C970 136.66 970 137.32 970 138 C969.30132813 138.19335938 968.60265625 138.38671875 967.8828125 138.5859375 C966.51769531 138.97652344 966.51769531 138.97652344 965.125 139.375 C964.22007812 139.63023437 963.31515625 139.88546875 962.3828125 140.1484375 C959.85430274 140.8604315 959.85430274 140.8604315 958 143 C956.20336914 143.73022461 956.20336914 143.73022461 954.03515625 144.40234375 C953.24012695 144.65137451 952.44509766 144.90040527 951.62597656 145.15698242 C950.7800293 145.41455322 949.93408203 145.67212402 949.0625 145.9375 C947.77230957 146.33835815 947.77230957 146.33835815 946.45605469 146.74731445 C941.14451667 148.38528875 935.8197015 149.93037564 930.421875 151.26171875 C927.85090678 151.98683818 927.85090678 151.98683818 924.9609375 153.390625 C919.80546637 155.65134626 914.33884336 156.78500022 908.875 158.0625 C907.75786621 158.32780518 906.64073242 158.59311035 905.48974609 158.86645508 C898.91314576 160.40201791 892.41247848 161.68352101 885.71875 162.57421875 C879.96909009 163.47466836 874.41578112 165.24101318 868.87304688 166.98242188 C864.75201384 168.15264057 860.65378884 168.64711973 856.3984375 169.0625 C855.1663002 169.18709595 855.1663002 169.18709595 853.90927124 169.31420898 C844.16693913 170.24818349 834.40175122 170.62491489 824.625 171 C813.48210559 171.42918996 802.3788059 171.96215749 791.2734375 173 C790.37219147 173.08306396 789.47094543 173.16612793 788.54238892 173.25170898 C787.29816666 173.37461304 787.29816666 173.37461304 786.02880859 173.5 C785.2971347 173.5721875 784.56546082 173.644375 783.81161499 173.71875 C781.90502829 173.92052534 781.90502829 173.92052534 780 175 C779.88501607 181.59561965 780.16373704 188.01498869 780.91796875 194.56640625 C781.01709061 195.44417221 781.11621246 196.32193817 781.21833801 197.2263031 C781.42959257 199.07286349 781.64404454 200.91906067 781.86157227 202.76489258 C782.18370874 205.52995761 782.48379607 208.29684766 782.78320312 211.06445312 C783.92670885 221.12098068 785.7635854 230.45115597 788.82055664 240.09350586 C790.65335881 245.95087859 791.63254313 251.95310823 792.625 258 C792.8317334 259.20406494 793.0384668 260.40812988 793.25146484 261.64868164 C793.84286417 265.09773921 794.42258388 268.54857885 795 272 C795.41829808 274.45971676 795.83983548 276.91877733 796.26708984 279.37695312 C796.5922716 281.24907731 796.90984408 283.12251921 797.2265625 284.99609375 C797.83504233 288.3269509 798.5950778 291.61360574 799.3671875 294.91015625 C801.23482817 302.90932896 802.88389365 310.94698154 804.5 319 C804.73210678 320.1510321 804.73210678 320.1510321 804.96890259 321.32531738 C806.96603817 331.2630661 808.71524369 341.17192245 810.00561523 351.22949219 C811.00114612 358.70871725 812.90642602 365.75785138 815 373 C816.58551218 379.2041781 817.56070423 385.44795021 818.4375 391.7890625 C818.94141832 395.05991117 818.94141832 395.05991117 820.0390625 398.37109375 C822.00775028 405.8056911 822.69877514 416.16981179 819.75 423.4375 C810.50069998 437.7723258 789.01239704 448.20803875 774.06298828 455.05126953 C772.59005794 455.72864318 771.12285696 456.41853247 769.65966797 457.11669922 C738.87639885 471.76843571 705.85410784 482.09598909 673 491 C671.73406006 491.34901367 670.46812012 491.69802734 669.16381836 492.05761719 C662.17010501 493.97254105 655.21475387 495.67598809 648.0625 496.875 C646.18861637 497.20336904 644.31493114 497.53287157 642.44140625 497.86328125 C641.42836426 498.04068848 640.41532227 498.2180957 639.37158203 498.40087891 C633.44030246 499.4548514 627.51884846 500.56141567 621.59762573 501.67022705 C619.56290375 502.05073649 617.52769564 502.42855455 615.49243164 502.80615234 C605.87463627 504.60455782 596.24402484 506.42114298 586.75488281 508.82055664 C578.56652965 510.87387656 570.66996551 511.60614983 562.25 512 C552.82116986 512.51613628 543.68989673 513.29063784 534.4387207 515.17602539 C529.47252437 516.1378124 524.4771608 516.79624568 519.4609375 517.4375 C518.45888779 517.56652206 517.45683807 517.69554413 516.42442322 517.82847595 C465.7225766 524.27251375 415.27175841 527.1714561 364.1875 525.625 C363.07342773 525.5943042 361.95935547 525.5636084 360.81152344 525.53198242 C356.33502061 525.36406142 352.10249581 525.13139769 347.75390625 524.0234375 C340.91223311 522.32440014 333.76484587 522.33530869 326.75 522 C317.71055437 521.56362703 308.83303158 520.9627294 299.89111328 519.46386719 C295.79561286 518.80676106 291.69361105 518.46889419 287.5625 518.125 C277.46299592 517.1986451 267.59873921 515.39916994 257.64550781 513.49365234 C253.52389226 512.72455797 249.38823926 512.04781339 245.25 511.375 C239.13766025 510.37504266 233.06216368 509.27109884 227 508 C226.67 508.66 226.34 509.32 226 510 C225.4225 509.401875 224.845 508.80375 224.25 508.1875 C221.10747752 506.07234064 219.39680526 505.48309667 215.79296875 504.68359375 C208.07246113 502.83859814 200.58205307 500.39476032 193.0625 497.875 C191.97227036 497.50985291 191.97227036 497.50985291 190.86001587 497.1373291 C173.09107108 491.15861039 156.4049343 483.92193886 139.8125 475.1875 C139.18556244 474.86076294 138.55862488 474.53402588 137.91268921 474.1973877 C136.1289754 473.26300121 134.35526745 472.30958952 132.58203125 471.35546875 C131.55311768 470.80528076 130.5242041 470.25509277 129.46411133 469.68823242 C126.87855685 467.91679586 126.17204709 466.82617584 125 464 C123.681858 463.30377886 122.3464069 462.63985208 121 462 C113.20430582 454.65319416 109.61097058 447.76354109 108.9921875 437.05859375 C108.76654722 421.83565541 110.81908551 405.60935518 115 391 C115.50524404 388.67217406 115.98366719 386.33839281 116.4375 384 C116.69632793 382.66921505 116.95545044 381.33848736 117.21484375 380.0078125 C117.34487793 379.33782227 117.47491211 378.66783203 117.60888672 377.97753906 C117.97524602 376.12516058 118.36378441 374.2772075 118.75390625 372.4296875 C121.39187814 359.86133974 123.14322531 347.16783091 124.6796875 334.421875 C125.94268698 324.03800994 127.48361184 313.76716542 129.5 303.5 C129.70157715 302.45553711 129.9031543 301.41107422 130.11083984 300.33496094 C131.22443901 294.85551637 132.63210634 290.06079232 135 285 C136.16437884 280.98961079 136.16437884 280.98961079 135.03051758 277.20068359 C133.69652942 274.35193465 133.72468854 272.11720202 133.69921875 268.9765625 C133.68938965 267.79819824 133.67956055 266.61983398 133.66943359 265.40576172 C133.75714728 247.04989475 136.5174822 233.46149645 143.33154297 216.49755859 C148.44898595 203.7261673 150.41770794 193.0717755 150.52734375 179.3203125 C150.65082261 173.11731563 151.01805449 168.48804864 154 163 C153.01 162.67 152.02 162.34 151 162 C150.67 161.34 150.34 160.68 150 160 C148.31928258 159.2284251 146.60298679 158.53393896 144.875 157.875 C137.26400885 154.80167816 130.16083816 150.98689901 123 147 C122.06027344 146.47921875 121.12054688 145.9584375 120.15234375 145.421875 C100.10634867 133.99998428 81.03993742 120.93694844 62.67578125 106.99609375 C60.23962439 105.1787563 57.76484008 103.45575389 55.25 101.75 C48.48552871 97.06606658 42.20895163 91.75675604 35.86425781 86.52783203 C34.27182205 85.22276877 32.66470208 83.93565776 31.0546875 82.65234375 C23.61374174 76.71069303 16.73269282 70.23380272 9.81494141 63.70166016 C7.15472497 61.20748359 4.45222755 58.76094927 1.75 56.3125 C-1.24437647 53.58887012 -4.18540178 50.84199042 -7.01171875 47.9453125 C-7.74890137 47.19060669 -7.74890137 47.19060669 -8.50097656 46.4206543 C-9.85124169 45.02655834 -11.18971504 43.6210688 -12.52734375 42.21484375 C-14.97843831 40.01931355 -16.88841979 38.98524096 -20 38 C-18.88625 36.9790625 -18.88625 36.9790625 -17.75 35.9375 C-11.46074611 29.56941145 -8.62191864 20.67369012 -5.25 12.5625 C-4.74339844 11.35400391 -4.23679687 10.14550781 -3.71484375 8.90039062 C-2.47253241 5.93525129 -1.23438437 2.968446 0 0 Z " fill="#13227B" transform="translate(69,328)"/>
<path d="M0 0 C2.475 0.495 2.475 0.495 5 1 C5.10957031 1.54527344 5.21914063 2.09054688 5.33203125 2.65234375 C6.15020137 6.54364065 7.05088997 10.27074882 8.4375 14 C9.97003643 18.3536234 10.6624787 22.76949209 11.375 27.3125 C12.40292614 33.744201 14.08958156 39.19821741 16.8359375 45.140625 C18.04834845 48.11876197 18.58692321 50.83578721 19.125 54 C21.00419308 63.08826128 26.09708088 70.77572431 30.70825195 78.70874023 C31.8849619 80.79594924 32.96271149 82.89938257 34.0078125 85.0546875 C36.18902721 89.49851793 38.77609643 93.6428946 41.4375 97.8125 C41.95900635 98.63218262 42.4805127 99.45186523 43.01782227 100.29638672 C54.76515966 118.64470896 67.0094419 137.103668 82 153 C86.1467633 151.33928169 89.06751777 148.34042562 92.25 145.3125 C93.42365978 144.21006453 94.59813435 143.10849582 95.7734375 142.0078125 C96.33514648 141.4809082 96.89685547 140.95400391 97.47558594 140.41113281 C99.23314893 138.78417668 101.0425455 137.22934497 102.875 135.6875 C111.67611444 128.06862481 120.03503572 119.57014801 127.5390625 110.67578125 C129.07277727 108.91652019 130.69672058 107.30882424 132.375 105.6875 C147.53603035 90.69380994 160.94696254 71.79791648 172.21484375 53.75390625 C174.0658206 50.89846056 176.03638532 48.17102474 178.0625 45.4375 C182.99702243 38.71206981 187.25305426 32.09639596 190.3125 24.3125 C193.33062263 16.69769718 197.66287263 9.916726 202 3 C206.41549383 4.88370176 208.59305383 6.09133284 210.4375 10.5625 C212.99213798 16.21919837 216.35724935 20.99924659 220 26 C222 29 222 29 222 32 C222.66 32 223.32 32 224 32 C225.55078125 33.7578125 225.55078125 33.7578125 227.3125 36.125 C229.36443174 38.85381379 231.41520962 41.51499433 233.6875 44.0625 C235.99840813 46.9979779 237.49661038 49.77779407 239.0078125 53.16796875 C239.91359794 55.08130755 239.91359794 55.08130755 241.58984375 56.4453125 C244.0037314 59.10660691 243.45723609 61.93423917 243.3671875 65.37109375 C242.89187146 68.77415431 241.65450495 71.22078999 239.95703125 74.171875 C238.63454606 76.69809161 238.28144687 79.18553132 238 82 C237.34 82 236.68 82 236 82 C235.82017578 83.47919922 235.82017578 83.47919922 235.63671875 84.98828125 C233.94283043 96.75681423 229.56357213 107.57747702 224 118 C221.6250358 122.96400968 219.33603959 127.93485456 217.5 133.125 C216.1197151 136.95824836 214.21750591 140.39896173 212.18359375 143.921875 C211.04744903 145.91669015 210.00782514 147.93790616 209 150 C208.34 150 207.68 150 207 150 C207 150.99 207 151.98 207 153 C206.34 153 205.68 153 205 153 C204.731875 153.69996094 204.46375 154.39992187 204.1875 155.12109375 C202.92480354 158.18230194 201.49421149 161.10769678 200 164.0625 C199.484375 165.08472656 198.96875 166.10695312 198.4375 167.16015625 C197.963125 168.09730469 197.48875 169.03445312 197 170 C196.33245513 171.33289387 195.66538677 172.66602749 195 174 C194.34 174 193.68 174 193 174 C192.67 175.32 192.34 176.64 192 178 C191.34 178 190.68 178 190 178 C190 178.66 190 179.32 190 180 C188.23177853 181.89016777 186.41955956 183.64756997 184.4375 185.3125 C182.76993322 187.0787754 182.76993322 187.0787754 181.8125 190.125 C179.7154725 195.26823588 176.23553298 199.44604704 172 203 C167.1460391 203.61965458 163.38099215 200.59197614 159.29296875 198.1953125 C157.12895546 197.0672238 155.30963336 196.45014179 152.9375 195.9375 C146.23248809 194.48163088 141.68539408 192.128967 137.53515625 186.5859375 C133.32466657 182.23616953 126.89898863 179.312062 121.0625 177.875 C117.49635226 176.85610065 116.58690883 175.58690883 114 173 C109.49847912 170.41257119 105.06291602 168.19013314 100 167 C99.98018066 168.15483887 99.96036133 169.30967773 99.93994141 170.49951172 C99.57780963 191.00111424 99.10675619 211.4515919 97.7331543 231.91235352 C96.79869886 246.35781643 96.57039621 260.81944591 96.34179688 275.29077148 C96.31739281 276.70092026 96.31739281 276.70092026 96.29249573 278.13955688 C96.26239405 279.90647886 96.23622669 281.67347392 96.21470642 283.44052124 C96.14661161 287.41559064 95.97491749 291.11948459 95 295 C86.68737219 295.13425509 78.52662393 294.75613601 70.25 294 C69.15945313 293.90460938 68.06890625 293.80921875 66.9453125 293.7109375 C64.29642593 293.47857903 61.64814335 293.24063437 59 293 C58.84694533 277.32853788 59.30099453 261.75156132 60.09375 246.1015625 C60.20631783 243.80132284 60.31840982 241.50105984 60.43005371 239.20077515 C60.72125995 233.22658732 61.01880839 227.25273273 61.31781006 221.27893066 C61.62335747 215.15099046 61.92272451 209.02274842 62.22265625 202.89453125 C62.80915369 190.92938916 63.40237097 178.96459091 64 167 C59.46541795 168.24127483 55.6873592 169.51175166 51.6875 172 C50.84574219 172.515625 50.00398438 173.03125 49.13671875 173.5625 C46.91236878 174.95963845 46.91236878 174.95963845 45 177 C42.04407687 178.07845349 39.05075318 178.97945834 36.04296875 179.90234375 C32.97741918 180.89544747 32.97741918 180.89544747 30.359375 182.59765625 C27.58636461 184.24585282 25.17156308 184.39497509 22 184.6953125 C18.93022544 185.16297347 16.60095718 186.35061252 14 188 C13.67 188.99 13.34 189.98 13 191 C11.34795544 191.70211894 9.68076231 192.36971413 8 193 C7.67 193.66 7.34 194.32 7 195 C4.93359375 195.8515625 4.93359375 195.8515625 2.4375 196.625 C1.61121094 196.88539063 0.78492188 197.14578125 -0.06640625 197.4140625 C-1.02353516 197.70410156 -1.02353516 197.70410156 -2 198 C-6.85978273 190.86219411 -10.36670076 183.1530379 -13.93725586 175.31787109 C-14.67630772 173.70598082 -15.42809146 172.09989224 -16.18969727 170.49853516 C-30.52706392 139.95577748 -45.8317803 92.93833044 -40 59 C-37.54481061 53.6002147 -33.55654041 50.62186545 -29 47 C-24.54106799 41.76075489 -22.49365062 36.39287035 -20.30859375 29.890625 C-18.91881946 26.82067583 -17.90667294 25.63464379 -15 24 C-14.34 24 -13.68 24 -13 24 C-12.92523438 23.33097656 -12.85046875 22.66195312 -12.7734375 21.97265625 C-11.73748228 17.99103038 -9.78365555 14.91115933 -7.625 11.4375 C-7.22539062 10.77814453 -6.82578125 10.11878906 -6.4140625 9.43945312 C-4.41690275 6.17107491 -2.37569483 3.01176796 0 0 Z " fill="#14227B" transform="translate(404,32)"/>
<path d="M0 0 C0.03738281 0.75925781 0.07476563 1.51851563 0.11328125 2.30078125 C0.17902344 3.29464844 0.24476563 4.28851563 0.3125 5.3125 C0.37050781 6.29863281 0.42851563 7.28476563 0.48828125 8.30078125 C1.06720585 11.35449803 1.59945076 12.12130929 4 14 C4.639375 14.50660156 5.27875 15.01320313 5.9375 15.53515625 C6.618125 16.03917969 7.29875 16.54320313 8 17.0625 C8.680625 17.56910156 9.36125 18.07570313 10.0625 18.59765625 C11.68163543 19.7695708 13.33694329 20.89129552 15 22 C15 22.66 15 23.32 15 24 C16.98 24.99 16.98 24.99 19 26 C19 26.66 19 27.32 19 28 C19.88558594 28.38091797 19.88558594 28.38091797 20.7890625 28.76953125 C23.24269555 30.13506908 24.57844906 31.54091684 26.375 33.6875 C26.97957031 34.40292969 27.58414062 35.11835937 28.20703125 35.85546875 C28.79871094 36.56316406 29.39039063 37.27085938 30 38 C31.02029551 39.16713705 32.0410974 40.33383168 33.0625 41.5 C42 51.97927898 42 51.97927898 42 55 C42.99 55.33 43.98 55.66 45 56 C46.1875 59.0625 46.1875 59.0625 47 62 C18.85472616 76.23155001 18.85472616 76.23155001 6.42578125 79.0234375 C3.58217719 79.83404299 1.02560561 80.77915761 -1.6953125 81.91015625 C-7.08744205 84.1149471 -12.54638285 85.63587801 -18.1875 87.0625 C-19.11369141 87.30548828 -20.03988281 87.54847656 -20.99414062 87.79882812 C-28.25986788 89.668575 -35.57857697 91.18029017 -42.94381714 92.60250854 C-45.06431668 93.01243339 -47.18367247 93.42794626 -49.30297852 93.84399414 C-80.09011972 99.86184258 -110.54804946 103.62606567 -141.94335938 104.60546875 C-143.61301758 104.66154297 -143.61301758 104.66154297 -145.31640625 104.71875 C-146.29037354 104.74904297 -147.26434082 104.77933594 -148.26782227 104.81054688 C-151.52100947 104.97568544 -154.74590109 105.23321709 -157.99072266 105.51147461 C-165.27874091 106.08314362 -172.52493478 106.12691284 -179.83203125 106.09765625 C-181.20350594 106.09578488 -182.57498131 106.09436439 -183.94645691 106.09336853 C-187.50881892 106.08959985 -191.07113838 106.07981981 -194.63348389 106.06866455 C-198.28755112 106.058327 -201.9416254 106.05384481 -205.59570312 106.04882812 C-212.73048587 106.03819082 -219.86524012 106.02118479 -227 106 C-227 105.34 -227 104.68 -227 104 C-232.94 104 -238.88 104 -245 104 C-245 104.66 -245 105.32 -245 106 C-257.87 105.34 -270.74 104.68 -284 104 C-284 103.34 -284 102.68 -284 102 C-286.25073828 102.06018017 -288.50072325 102.14901206 -290.75 102.25 C-292.00296875 102.29640625 -293.2559375 102.3428125 -294.546875 102.390625 C-298.40518636 103.07150347 -299.60916205 103.98126522 -302 107 C-301.54049442 104.85564062 -301.04843718 103.08861376 -299.9921875 101.15625 C-298.17303213 97.20280998 -298.25303279 93.23919851 -299 89 C-300.26720257 86.72942884 -301.66201971 84.91794344 -303.39453125 82.984375 C-305 81 -305 81 -306.40625 78.09375 C-308.12702773 74.75341676 -310.10281211 72.46371418 -312.6875 69.75 C-317 65.21052632 -317 65.21052632 -317 63 C-317.66 63 -318.32 63 -319 63 C-319.9795958 61.20856793 -320.9586633 59.41684696 -321.9375 57.625 C-322.48277344 56.62726562 -323.02804687 55.62953125 -323.58984375 54.6015625 C-324.4149759 53.07929654 -325.22564391 51.54871217 -326 50 C-312.61703744 47.27862137 -299.31480049 44.63103555 -285.70703125 43.359375 C-283.21601847 43.11788588 -280.73180711 42.79327263 -278.26171875 42.390625 C-275 42 -275 42 -273.06054688 42.49243164 C-270.78181374 43.05374517 -269.09669459 42.97783924 -266.76953125 42.73046875 C-265.56393555 42.60381836 -265.56393555 42.60381836 -264.33398438 42.47460938 C-263.50189453 42.37986328 -262.66980469 42.28511719 -261.8125 42.1875 C-260.99974609 42.10435547 -260.18699219 42.02121094 -259.34960938 41.93554688 C-255.39898568 41.50496975 -251.58621223 40.94369376 -247.7265625 39.9921875 C-241.74751484 38.58979206 -235.67554688 38.32958053 -229.5625 37.9375 C-227.23021769 37.78370918 -224.89816732 37.62634523 -222.56640625 37.46484375 C-221.54490479 37.399021 -220.52340332 37.33319824 -219.47094727 37.26538086 C-216.99991837 37.14543578 -216.99991837 37.14543578 -215 36 C-213.4249804 35.74556536 -211.84247725 35.53666076 -210.2578125 35.3515625 C-209.27167969 35.23296875 -208.28554688 35.114375 -207.26953125 34.9921875 C-205.71298828 34.81042969 -205.71298828 34.81042969 -204.125 34.625 C-186.78095693 32.59267538 -169.62212823 29.8562599 -152.48791504 26.49838257 C-147.41823929 25.50516666 -142.34582791 24.52611736 -137.2734375 23.546875 C-136.20875244 23.3411235 -135.14406738 23.13537201 -134.04711914 22.92338562 C-125.90530053 21.35485927 -117.75563381 19.83156501 -109.6015625 18.328125 C-108.40218048 18.10697525 -107.20279846 17.8858255 -105.96707153 17.65797424 C-100.14102476 16.58508135 -94.31422751 15.51638286 -88.48681641 14.45092773 C-86.32967034 14.05497262 -84.17260458 13.65857978 -82.015625 13.26171875 C-80.98282913 13.07211075 -79.95003326 12.88250275 -78.88594055 12.68714905 C-71.66062365 11.34629742 -64.46789407 9.88145343 -57.30975342 8.21647644 C-52.00117274 7.0333965 -46.86734035 6.71003476 -41.4375 6.625 C-33.78050589 6.41821436 -27.60395558 4.79321306 -20.45727539 2.09570312 C-13.51178562 -0.42795659 -7.39276135 -0.64181529 0 0 Z " fill="#D1D1D1" transform="translate(945,1)"/>
<path d="M0 0 C5.46875 3.61328125 5.46875 3.61328125 7 5 C7 5.99 7 6.98 7 8 C7.66 8 8.32 8 9 8 C10.78091653 13.13322999 11.25494003 16.56192653 10 22 C9.34 22.99 8.68 23.98 8 25 C8.66 24.67 9.32 24.34 10 24 C16.40873973 23.54223288 22.09023875 24.37460164 28 27 C31.31276388 30.07036652 32.56872784 32.53698662 33 37 C32.00390625 39.67578125 32.00390625 39.67578125 30.5625 42.3125 C30.08941406 43.19550781 29.61632812 44.07851563 29.12890625 44.98828125 C28.75636719 45.65214844 28.38382813 46.31601562 28 47 C28.99 47 29.98 47 31 47 C31 45.68 31 44.36 31 43 C31.33 42.01 31.66 41.02 32 40 C35.66172475 40.62678171 38.8818995 41.64451846 42.3125 43.0625 C43.19550781 43.42472656 44.07851563 43.78695312 44.98828125 44.16015625 C45.65214844 44.43730469 46.31601562 44.71445312 47 45 C45.76245264 33.77672564 41.6227062 25.91482713 33.3203125 18.27734375 C32.88460937 17.85582031 32.44890625 17.43429687 32 17 C32 16.67 32 16.34 32 16 C35.80108257 15.44324107 39.21241021 15.27928453 43 16 C50.35746176 21.50789651 54.71578565 33.1284376 56 42 C56.92958129 59.32238985 54.32540287 73.61575725 42.8125 87.25 C33.20702502 97.40343832 20.80220327 103.45921385 6.87890625 104.15625 C-9.03075996 104.57446686 -22.24928051 100.20782123 -33.9375 89.1875 C-45.22147986 77.21964257 -49.54766073 63.58027138 -49.28125 47.4375 C-48.86491297 37.74517402 -45.14890459 29.09353958 -40 21 C-39.195625 19.4840625 -39.195625 19.4840625 -38.375 17.9375 C-34.44397962 14.73061495 -29.87229998 15.62197673 -25 16 C-26.299375 17.423125 -26.299375 17.423125 -27.625 18.875 C-35.32237111 27.88256194 -40.60420497 37.71469719 -40.4375 49.6875 C-40.42396484 50.86324585 -40.42396484 50.86324585 -40.41015625 52.06274414 C-40.05117503 64.26685929 -36.15861516 73.85342754 -28 83 C-25.87143047 84.75454743 -25.87143047 84.75454743 -24 86 C-23.95101562 85.16855469 -23.90203125 84.33710938 -23.8515625 83.48046875 C-23.77679687 82.39378906 -23.70203125 81.30710937 -23.625 80.1875 C-23.55539062 79.10855469 -23.48578125 78.02960938 -23.4140625 76.91796875 C-23 74 -23 74 -21 71 C-25.95 69.35 -30.9 67.7 -36 66 C-36.495 63.525 -36.495 63.525 -37 61 C-37.185625 60.34 -37.37125 59.68 -37.5625 59 C-38.08067239 56.63121192 -38 54.41956006 -38 52 C-38.495 50.515 -38.495 50.515 -39 49 C-38.01 48.34 -37.02 47.68 -36 47 C-36.99 47 -37.98 47 -39 47 C-38 44 -38 44 -35.85546875 42.8671875 C-34.53482422 42.37605469 -34.53482422 42.37605469 -33.1875 41.875 C-32.31480469 41.54242188 -31.44210937 41.20984375 -30.54296875 40.8671875 C-28 40 -28 40 -25.73828125 39.5703125 C-24.87783203 39.28800781 -24.87783203 39.28800781 -24 39 C-22.94729537 36.36893239 -22.94729537 36.36893239 -23 35 C-24.485 34.505 -24.485 34.505 -26 34 C-24.68 32.35 -23.36 30.7 -22 29 C-20.42671143 32.78753248 -18.86033273 36.57784014 -17.30029297 40.37084961 C-16.76865608 41.66069346 -16.23513978 42.94976435 -15.69970703 44.23803711 C-14.93027613 46.09023857 -14.16816265 47.94547446 -13.40625 49.80078125 C-12.94541016 50.91622314 -12.48457031 52.03166504 -12.00976562 53.1809082 C-11 56 -11 56 -11 59 C-10.46890625 58.7834375 -9.9378125 58.566875 -9.390625 58.34375 C-8.68421875 58.0653125 -7.9778125 57.786875 -7.25 57.5 C-6.55390625 57.2215625 -5.8578125 56.943125 -5.140625 56.65625 C-3 56 -3 56 1 56 C1 54.68 1 53.36 1 52 C-1.31 51.67 -3.62 51.34 -6 51 C-6.495 47.04 -6.495 47.04 -7 43 C-7.66 43 -8.32 43 -9 43 C-9 42.34 -9 41.68 -9 41 C-8.34 41 -7.68 41 -7 41 C-6.67 38.36 -6.34 35.72 -6 33 C-3.525 32.505 -3.525 32.505 -1 32 C0.33333333 29 0.33333333 29 -1 26 C-9.415 26.495 -9.415 26.495 -18 27 C-16 25 -16 25 -12.5234375 24.8046875 C-11.14049032 24.81798507 -9.75761346 24.84183768 -8.375 24.875 C-7.31539062 24.88853516 -7.31539062 24.88853516 -6.234375 24.90234375 C-4.48943902 24.92592397 -2.74467705 24.96179539 -1 25 C-1.680625 24.071875 -2.36125 23.14375 -3.0625 22.1875 C-3.701875 21.135625 -4.34125 20.08375 -5 19 C-4.505 17.515 -4.505 17.515 -4 16 C-3.505 16.99 -3.505 16.99 -3 18 C-3 15.03 -3 12.06 -3 9 C-2.34 9 -1.68 9 -1 9 C-0.67 6.03 -0.34 3.06 0 0 Z " fill="#FAC9CB" transform="translate(676,240)"/>
<path d="M0 0 C12.10974119 9.60169588 20.43075075 20.79938149 24 36 C25.77091506 53.18024703 22.94637864 68.16397331 12 82 C9.78515625 83.80078125 9.78515625 83.80078125 8 85 C8.268125 84.484375 8.53625 83.96875 8.8125 83.4375 C9.98630214 81.02811667 11.04113048 78.58407941 12.078125 76.11328125 C12.76675194 74.53469152 13.49154937 72.97179072 14.234375 71.41796875 C20.95354082 57.28795828 22.59723606 42.005685 17.3515625 27.0234375 C15.01630841 21.79948761 12.09080982 16.09080982 8 12 C6.31391034 11.92794489 4.62499341 11.91613932 2.9375 11.9375 C2.01839844 11.94652344 1.09929687 11.95554687 0.15234375 11.96484375 C-0.55792969 11.97644531 -1.26820313 11.98804688 -2 12 C-1.49210938 12.43828125 -0.98421875 12.8765625 -0.4609375 13.328125 C6.57381093 19.80957861 11.76138251 27.56305337 12.875 37.25 C12.91625 38.4875 12.9575 39.725 13 41 C7.72 39.02 2.44 37.04 -3 35 C-3.33 36.98 -3.66 38.96 -4 41 C-3.34 41.66 -2.68 42.32 -2 43 C-3.98 43 -5.96 43 -8 43 C-7.62746094 42.26394531 -7.25492188 41.52789062 -6.87109375 40.76953125 C-6.39800781 39.79371094 -5.92492187 38.81789063 -5.4375 37.8125 C-4.72400391 36.36810547 -4.72400391 36.36810547 -3.99609375 34.89453125 C-2.88574334 31.66798359 -2.91604493 30.19766747 -4 27 C-7.04437152 23.03309166 -9.80521678 21.27718318 -14.73046875 20.26953125 C-18.8196915 19.78389206 -22.89082064 19.84843191 -27 20 C-26.66226563 19.30519531 -26.32453125 18.61039062 -25.9765625 17.89453125 C-24.83732834 14.51784121 -24.9875681 12.21313025 -25.375 8.6875 C-25.48585938 7.61886719 -25.59671875 6.55023438 -25.7109375 5.44921875 C-25.80632813 4.64097656 -25.90171875 3.83273438 -26 3 C-26.66 3 -27.32 3 -28 3 C-29.68711423 1.3540349 -31.3545622 -0.31237149 -33 -2 C-33.33 -2 -33.66 -2 -34 -2 C-34.144375 -1.38125 -34.28875 -0.7625 -34.4375 -0.125 C-35 2 -35 2 -36 4 C-36.66 4 -37.32 4 -38 4 C-37.505 8.95 -37.505 8.95 -37 14 C-37.66 14 -38.32 14 -39 14 C-38.505 14.61875 -38.01 15.2375 -37.5 15.875 C-36 18 -36 18 -36 20 C-39.96 20.33 -43.92 20.66 -48 21 C-44.04 21 -40.08 21 -36 21 C-35.34 22.32 -34.68 23.64 -34 25 C-34.66 25.99 -35.32 26.98 -36 28 C-38.625 28.1875 -38.625 28.1875 -41 28 C-40.67 28.99 -40.34 29.98 -40 31 C-40.9375 33.6875 -40.9375 33.6875 -42 36 C-42.66 36 -43.32 36 -44 36 C-44 36.66 -44 37.32 -44 38 C-43.34 38 -42.68 38 -42 38 C-41.26919734 39.97746603 -40.60578253 41.98072489 -40 44 C-40.495 44.99 -40.495 44.99 -41 46 C-38.69 46.33 -36.38 46.66 -34 47 C-34 48.32 -34 49.64 -34 51 C-37.96 51.99 -41.92 52.98 -46 54 C-49.63 45.09 -53.26 36.18 -57 27 C-57.66 27 -58.32 27 -59 27 C-59.33 27.66 -59.66 28.32 -60 29 C-59.34 29.33 -58.68 29.66 -58 30 C-57.67 29.34 -57.34 28.68 -57 28 C-56.67 29.32 -56.34 30.64 -56 32 C-56.66 32 -57.32 32 -58 32 C-58.33 33.65 -58.66 35.3 -59 37 C-59.33 36.34 -59.66 35.68 -60 35 C-62.14898232 35.7830784 -64.29412095 36.57671243 -66.4375 37.375 C-67.63246094 37.81585938 -68.82742188 38.25671875 -70.05859375 38.7109375 C-73.10196898 39.67085236 -73.10196898 39.67085236 -74 42 C-71.03 41.505 -71.03 41.505 -68 41 C-71.75 44 -71.75 44 -74 44 C-73.01 45.32 -72.02 46.64 -71 48 C-71.66 48 -72.32 48 -73 48 C-72.67039784 53.01535052 -72.67039784 53.01535052 -70 57 C-70.33 57.99 -70.66 58.98 -71 60 C-65.06 61.98 -59.12 63.96 -53 66 C-54.32 66.99 -55.64 67.98 -57 69 C-57.70124774 72.18596662 -57.70124774 72.18596662 -57.75 75.6875 C-57.80671875 76.86699219 -57.8634375 78.04648437 -57.921875 79.26171875 C-57.94765625 80.16535156 -57.9734375 81.06898438 -58 82 C-65.4220613 78.75183313 -69.48869051 71.69520551 -72.95703125 64.6875 C-77.1957298 53.76531048 -78.237362 40.40013355 -73.875 29.375 C-70.62854343 22.73493868 -66.43492071 17.01684989 -61 12 C-64.47522484 11.4436893 -67.54117007 11.26882306 -71 12 C-77.54276299 17.67413064 -81.78119594 29.59273934 -83 38 C-84.06572191 54.77201694 -80.79681912 68.25073326 -70.25 81.6875 C-61.44914741 91.3775579 -48.69971318 97.51103439 -35.66796875 98.16796875 C-21.96206213 98.24488181 -11.61661927 94.97855242 0.5625 88.6875 C4 87 4 87 7 87 C-3.71736694 97.46219153 -16.63247958 101.92335733 -31.375 102.3125 C-47.5879555 102.03549473 -60.92603014 96.12147363 -72.37109375 84.78515625 C-83.71414248 72.76792929 -87.62114182 58.16058772 -87.33984375 42.04296875 C-86.68922681 27.77529029 -79.52506081 14.54581018 -69.2265625 4.84375 C-49.69634148 -11.32864355 -21.47802527 -15.09993548 0 0 Z " fill="#F0EEF5" transform="translate(711,245)"/>
<path d="M0 0 C-1.299375 1.423125 -1.299375 1.423125 -2.625 2.875 C-10.32237111 11.88256194 -15.60420497 21.71469719 -15.4375 33.6875 C-15.42396484 34.86324585 -15.42396484 34.86324585 -15.41015625 36.06274414 C-15.02168524 49.26940964 -10.42404184 59.93136442 -0.796875 69.09765625 C8.12206651 76.4417497 16.86441779 79.17743133 28.3125 79.1875 C29.03373047 79.19974609 29.75496094 79.21199219 30.49804688 79.22460938 C41.53376667 79.25430189 51.69292517 75.34862866 59.8125 67.75 C68.71509387 58.07883688 73.38668789 46.1070789 73.2109375 33.03125 C72.34695965 20.61556829 67.43781804 10.66465945 58.3203125 2.27734375 C57.88460937 1.85582031 57.44890625 1.43429687 57 1 C57 0.67 57 0.34 57 0 C60.80108257 -0.55675893 64.21241021 -0.72071547 68 0 C75.35746176 5.50789651 79.71578565 17.1284376 81 26 C81.92958129 43.32238985 79.32540287 57.61575725 67.8125 71.25 C58.20702502 81.40343832 45.80220327 87.45921385 31.87890625 88.15625 C15.96924004 88.57446686 2.75071949 84.20782123 -8.9375 73.1875 C-20.22147986 61.21964257 -24.54766073 47.58027138 -24.28125 31.4375 C-23.86491297 21.74517402 -20.14890459 13.09353958 -15 5 C-14.46375 3.989375 -13.9275 2.97875 -13.375 1.9375 C-9.44397962 -1.26938505 -4.87229998 -0.37802327 0 0 Z " fill="#353895" transform="translate(651,256)"/>
<path d="M0 0 C12.86392119 -0.71356111 24.92871301 0.82653792 36.0703125 7.8515625 C38.02651609 9.09493199 38.02651609 9.09493199 40.47265625 9.9140625 C49.7976562 13.92078582 56.09534313 25.03632443 60 34 C62.55962613 40.75941492 63.55317435 47.0411737 63.5 54.25 C63.49427979 55.16313965 63.48855957 56.0762793 63.48266602 57.01708984 C63.15862204 69.40495282 58.71775534 80.24489538 51 90 C48.78515625 91.80078125 48.78515625 91.80078125 47 93 C47.268125 92.484375 47.53625 91.96875 47.8125 91.4375 C48.98630214 89.02811667 50.04113048 86.58407941 51.078125 84.11328125 C51.76675194 82.53469152 52.49154937 80.97179072 53.234375 79.41796875 C59.95354082 65.28795828 61.59723606 50.005685 56.3515625 35.0234375 C54.01630841 29.79948761 51.09080982 24.09080982 47 20 C45.31391034 19.92794489 43.62499341 19.91613932 41.9375 19.9375 C41.01839844 19.94652344 40.09929688 19.95554687 39.15234375 19.96484375 C38.44207031 19.97644531 37.73179687 19.98804688 37 20 C37.50789062 20.43828125 38.01578125 20.8765625 38.5390625 21.328125 C45.57381093 27.80957861 50.76138251 35.56305337 51.875 45.25 C51.91625 46.4875 51.9575 47.725 52 49 C46.72 47.02 41.44 45.04 36 43 C35.67 44.98 35.34 46.96 35 49 C35.66 49.66 36.32 50.32 37 51 C35.02 51 33.04 51 31 51 C31.37253906 50.26394531 31.74507812 49.52789062 32.12890625 48.76953125 C32.60199219 47.79371094 33.07507813 46.81789063 33.5625 45.8125 C34.27599609 44.36810547 34.27599609 44.36810547 35.00390625 42.89453125 C36.11425666 39.66798359 36.08395507 38.19766747 35 35 C31.95562848 31.03309166 29.19478322 29.27718318 24.26953125 28.26953125 C20.1803085 27.78389206 16.10917936 27.84843191 12 28 C12.33773437 27.30519531 12.67546875 26.61039062 13.0234375 25.89453125 C14.16267166 22.51784121 14.0124319 20.21313025 13.625 16.6875 C13.51414062 15.61886719 13.40328125 14.55023438 13.2890625 13.44921875 C13.19367187 12.64097656 13.09828125 11.83273438 13 11 C12.34 11 11.68 11 11 11 C8.21464217 8.5628119 6.28227106 6.73058393 4.9375 3.25 C4.628125 2.5075 4.31875 1.765 4 1 C1.98052999 0.32700111 1.98052999 0.32700111 0 0 Z " fill="#FBFAFB" transform="translate(672,237)"/>
<path d="M0 0 C5.46875 3.61328125 5.46875 3.61328125 7 5 C7 5.99 7 6.98 7 8 C7.66 8 8.32 8 9 8 C10.78091653 13.13322999 11.25494003 16.56192653 10 22 C9.34 22.99 8.68 23.98 8 25 C8.66 24.67 9.32 24.34 10 24 C16.40873973 23.54223288 22.09023875 24.37460164 28 27 C31.28611755 30.04566992 32.72113424 32.53814776 33 37 C31.85648793 39.70862203 30.69501302 42.09127854 29.25 44.625 C28.8890625 45.29273438 28.528125 45.96046875 28.15625 46.6484375 C26.38037364 49.86560481 24.5969519 52.4382814 22 55 C20.96642853 56.64605826 19.95939668 58.30963442 19 60 C18.01 59.505 18.01 59.505 17 59 C17.33845947 58.23333008 17.67691895 57.46666016 18.02563477 56.67675781 C19.27785127 53.82553058 20.51966834 50.97006277 21.75463867 48.11132812 C22.55439725 46.2686689 23.36601095 44.4311699 24.17773438 42.59375 C24.92700195 40.85351562 24.92700195 40.85351562 25.69140625 39.078125 C26.15748291 38.00981445 26.62355957 36.94150391 27.10375977 35.84082031 C28.01448771 32.9540782 28.29319606 31.7144236 27 29 C22.69135704 26.96713878 18.83625621 26.77885191 14.125 26.875 C12.97257813 26.89304687 11.82015625 26.91109375 10.6328125 26.9296875 C9.76398437 26.95289063 8.89515625 26.97609375 8 27 C7.67 28.65 7.34 30.3 7 32 C8.98 32.33 10.96 32.66 13 33 C13 35.64 13 38.28 13 41 C13.99 41 14.98 41 16 41 C16 41.66 16 42.32 16 43 C15.01 43 14.02 43 13 43 C13 45.64 13 48.28 13 51 C10.36 51.33 7.72 51.66 5 52 C5 53.32 5 54.64 5 56 C3.68 56 2.36 56 1 56 C1 54.68 1 53.36 1 52 C-2.465 51.505 -2.465 51.505 -6 51 C-6.33 48.36 -6.66 45.72 -7 43 C-7.66 43 -8.32 43 -9 43 C-9 42.34 -9 41.68 -9 41 C-8.34 41 -7.68 41 -7 41 C-6.67 38.36 -6.34 35.72 -6 33 C-3.525 32.505 -3.525 32.505 -1 32 C0.33333333 29 0.33333333 29 -1 26 C-9.415 26.495 -9.415 26.495 -18 27 C-16 25 -16 25 -12.5234375 24.8046875 C-11.14049032 24.81798507 -9.75761346 24.84183768 -8.375 24.875 C-7.31539062 24.88853516 -7.31539062 24.88853516 -6.234375 24.90234375 C-4.48943902 24.92592397 -2.74467705 24.96179539 -1 25 C-1.680625 24.071875 -2.36125 23.14375 -3.0625 22.1875 C-3.701875 21.135625 -4.34125 20.08375 -5 19 C-4.67 18.01 -4.34 17.02 -4 16 C-3.67 16.66 -3.34 17.32 -3 18 C-3 15.03 -3 12.06 -3 9 C-2.34 9 -1.68 9 -1 9 C-0.67 6.03 -0.34 3.06 0 0 Z " fill="#F5898D" transform="translate(676,240)"/>
<path d="M0 0 C0.47566406 0.28875 0.95132813 0.5775 1.44140625 0.875 C0.23484375 1.8340625 0.23484375 1.8340625 -0.99609375 2.8125 C-2.83364415 4.28103502 -2.83364415 4.28103502 -4.55859375 5.875 C-5.02107446 13.0058072 -4.68231204 19.80996563 -2.99609375 26.75390625 C-2.55859375 28.875 -2.55859375 28.875 -2.55859375 32.875 C-1.71554687 32.43027344 -0.8725 31.98554688 -0.00390625 31.52734375 C1.09179688 30.96144531 2.1875 30.39554687 3.31640625 29.8125 C4.40695312 29.24402344 5.4975 28.67554688 6.62109375 28.08984375 C7.55179688 27.68894531 8.4825 27.28804688 9.44140625 26.875 C10.10140625 27.205 10.76140625 27.535 11.44140625 27.875 C9.7394824 28.8652653 8.02952614 29.84173206 6.31640625 30.8125 C5.36507812 31.35777344 4.41375 31.90304687 3.43359375 32.46484375 C-6.07861614 36.94775206 -20.77662626 36.26166924 -30.59765625 32.7421875 C-33.0648661 31.65111063 -35.34772714 30.42260662 -37.55859375 28.875 C-35.55859375 27.875 -35.55859375 27.875 -33.17578125 28.65234375 C-31.81839844 29.22662109 -31.81839844 29.22662109 -30.43359375 29.8125 C-29.06847656 30.38291016 -29.06847656 30.38291016 -27.67578125 30.96484375 C-26.97710938 31.26519531 -26.2784375 31.56554687 -25.55859375 31.875 C-22.97507701 18.92251696 -22.97507701 18.92251696 -23.55859375 5.875 C-25.71597357 3.22266022 -27.40921658 2.39344971 -30.55859375 0.875 C-23.23590952 -6.44768423 -8.36341392 -4.43584385 0 0 Z " fill="#FCF8F9" transform="translate(693.55859375,301.125)"/>
<path d="M0 0 C-6.9642809 3.83949615 -15.22229472 4.91112126 -23 6 C-24.4540625 6.495 -24.4540625 6.495 -25.9375 7 C-28.94549007 7.98220084 -31.78012952 8.38276721 -34.91796875 8.71875 C-38.3580268 9.18344827 -41.64373732 10.11966881 -45 11 C-48.00078173 11.73189798 -50.32307117 11.99412598 -53.4375 11.9375 C-56.91360928 11.81272649 -56.91360928 11.81272649 -59.6875 12.9375 C-63.86070993 14.27607677 -67.83435692 14.43431842 -72.1953125 14.65625 C-74.99755257 14.99970004 -76.53743538 15.7100852 -79 17 C-80.78076804 17.3873574 -82.57460494 17.71758509 -84.375 18 C-87.503201 18.52274977 -90.24363492 19.08433517 -93.25 20.125 C-96.57676839 21.18351722 -99.5294258 21 -103 21 C-103.66 21.66 -104.32 22.32 -105 23 C-108.44521146 23.74895901 -111.46032681 24 -115 24 C-117.62562898 24.38290423 -120.19884693 24.7832801 -122.76171875 25.4765625 C-125.75828116 26.17732928 -128.76042635 26.54420829 -131.8125 26.9375 C-132.46323486 27.02249756 -133.11396973 27.10749512 -133.78442383 27.19506836 C-136.55603245 27.55701605 -139.32833678 27.91350501 -142.10058594 28.27050781 C-144.12980722 28.53261953 -146.15865465 28.79749668 -148.1875 29.0625 C-149.39792969 29.21847656 -150.60835937 29.37445313 -151.85546875 29.53515625 C-154.86385162 29.92559534 -154.86385162 29.92559534 -157.21875 30.5625 C-159 31 -159 31 -162.3125 30.9375 C-166.01556723 30.84141789 -166.01556723 30.84141789 -169.5 32 C-173 33 -173 33 -176.25 32.9375 C-179.62289313 32.99371489 -181.76365592 33.42142353 -184.9375 34.375 C-192.16918064 36.48964317 -199.53697405 37.19676941 -207 38 C-208.33998047 38.15275391 -208.33998047 38.15275391 -209.70703125 38.30859375 C-212.57925255 38.63555414 -215.45338036 38.94221974 -218.328125 39.24609375 C-221.67322577 39.60607976 -224.94321975 39.98908072 -228.25 40.625 C-231.14395281 41.01962993 -233.17274361 40.61129868 -236 40 C-236.99 40.33 -237.98 40.66 -239 41 C-241.33333333 41 -243.66666667 41 -246 41 C-246.73605469 41.1546875 -247.47210937 41.309375 -248.23046875 41.46875 C-251.78467794 42.1505165 -255.33118221 42.31918184 -258.9375 42.5 C-263.69181743 42.73971348 -268.30284636 43.21606126 -273 44 C-274.79067806 44.06305204 -276.58337579 44.08671114 -278.375 44.0625 C-279.68597656 44.04896484 -279.68597656 44.04896484 -281.0234375 44.03515625 C-281.67570313 44.02355469 -282.32796875 44.01195312 -283 44 C-280.15182914 42.44246994 -277.61779623 41.58547764 -274.4296875 41 C-273.541604 40.83604736 -272.65352051 40.67209473 -271.73852539 40.50317383 C-270.79356201 40.33712646 -269.84859863 40.1710791 -268.875 40 C-267.90103271 39.82557373 -266.92706543 39.65114746 -265.92358398 39.47143555 C-258.25768029 38.13603625 -250.58981333 37.1534579 -242.84765625 36.39453125 C-240.30496192 36.13380828 -237.76867764 35.79883703 -235.24609375 35.38671875 C-232 35 -232 35 -230.06152344 35.49267578 C-227.78245004 36.05353728 -226.09691174 35.97786232 -223.76953125 35.73046875 C-222.56393555 35.60381836 -222.56393555 35.60381836 -221.33398438 35.47460938 C-220.50189453 35.37986328 -219.66980469 35.28511719 -218.8125 35.1875 C-217.99974609 35.10435547 -217.18699219 35.02121094 -216.34960938 34.93554688 C-212.39898568 34.50496975 -208.58621223 33.94369376 -204.7265625 32.9921875 C-198.74751484 31.58979206 -192.67554688 31.32958053 -186.5625 30.9375 C-184.23021769 30.78370918 -181.89816732 30.62634523 -179.56640625 30.46484375 C-178.54490479 30.399021 -177.52340332 30.33319824 -176.47094727 30.26538086 C-173.99991837 30.14543578 -173.99991837 30.14543578 -172 29 C-170.4249804 28.74556536 -168.84247725 28.53666076 -167.2578125 28.3515625 C-166.27167969 28.23296875 -165.28554688 28.114375 -164.26953125 27.9921875 C-163.23183594 27.87101562 -162.19414063 27.74984375 -161.125 27.625 C-143.78095693 25.59267538 -126.62212823 22.8562599 -109.48791504 19.49838257 C-104.41823929 18.50516666 -99.34582791 17.52611736 -94.2734375 16.546875 C-93.20875244 16.3411235 -92.14406738 16.13537201 -91.04711914 15.92338562 C-82.90530053 14.35485927 -74.75563381 12.83156501 -66.6015625 11.328125 C-65.40218048 11.10697525 -64.20279846 10.8858255 -62.96707153 10.65797424 C-57.14102476 9.58508135 -51.31422751 8.51638286 -45.48681641 7.45092773 C-43.32967287 7.05495889 -41.17260714 6.65856585 -39.015625 6.26171875 C-37.9839621 6.07238266 -36.95229919 5.88304657 -35.88937378 5.68797302 C-28.61649584 4.33864198 -21.37739079 2.86032654 -14.17242432 1.18351746 C-9.34413143 0.10688048 -4.94907476 -0.1520063 0 0 Z " fill="#E3E3E3" transform="translate(902,8)"/>
<path d="M0 0 C-0.33 1.32 -0.66 2.64 -1 4 C0.13888672 4.38091797 0.13888672 4.38091797 1.30078125 4.76953125 C2.29464844 5.11371094 3.28851562 5.45789063 4.3125 5.8125 C5.79169922 6.31716797 5.79169922 6.31716797 7.30078125 6.83203125 C11.38511412 8.5993475 11.38511412 8.5993475 13 11 C14.13521944 19.37376921 13.079558 28.83580931 11 37 C9 38 9 38 6.03125 37.109375 C4.8659375 36.66078125 3.700625 36.2121875 2.5 35.75 C1.3346875 35.31171875 0.169375 34.8734375 -1.03125 34.421875 C-4 33 -4 33 -6 30 C-6.046875 27.1875 -6.046875 27.1875 -5.75 24 C-5.66234375 22.948125 -5.5746875 21.89625 -5.484375 20.8125 C-5 18 -5 18 -3 15 C-7.95 13.35 -12.9 11.7 -18 10 C-18 8.68 -18 7.36 -18 6 C-15.56495491 4.9936345 -13.12729136 3.99473587 -10.6875 3 C-9.65206055 2.57074219 -9.65206055 2.57074219 -8.59570312 2.1328125 C-5.58454326 0.91089256 -3.28113016 0 0 0 Z " fill="#ED252E" transform="translate(658,296)"/>
<path d="M0 0 C4.60416626 0.60875755 8.56483324 1.84722956 12.875 3.5625 C14.02742187 4.01753906 15.17984375 4.47257812 16.3671875 4.94140625 C17.67042969 5.46541016 17.67042969 5.46541016 19 6 C19 7.32 19 8.64 19 10 C13.39 11.65 7.78 13.3 2 15 C2.99 15.66 3.98 16.32 5 17 C5.51171875 20.0390625 5.51171875 20.0390625 5.6875 23.625 C5.78611328 25.40777344 5.78611328 25.40777344 5.88671875 27.2265625 C5.92410156 28.14179688 5.96148438 29.05703125 6 30 C-6.45849802 38 -6.45849802 38 -10 38 C-14.75688492 19.11403429 -14.75688492 19.11403429 -13 11 C-10.04570391 8.01449656 -7.03732815 6.14998934 -3 5 C-0.10546875 5.0234375 -0.10546875 5.0234375 2.8125 5.375 C3.78832031 5.48585938 4.76414062 5.59671875 5.76953125 5.7109375 C6.50558594 5.80632812 7.24164062 5.90171875 8 6 C5.36 5.01 2.72 4.02 0 3 C0 2.01 0 1.02 0 0 Z " fill="#ED222B" transform="translate(701,296)"/>
<path d="M0 0 C0 2.82280706 -0.32840393 4.27688343 -1.25 6.875 C-1.51941406 7.67679687 -1.78882813 8.47859375 -2.06640625 9.3046875 C-2.71377937 11.17367267 -3.39040427 13.03268225 -4.08984375 14.8828125 C-8.80636788 28.27706963 -8.65943542 41.88198766 -3 55 C3.98621169 68.95279919 13.73110964 77.17404745 28.140625 83.0546875 C44.22374497 88.37178454 59.87345733 84.04383777 74.4375 76.78515625 C75.489375 76.24181641 75.489375 76.24181641 76.5625 75.6875 C80 74 80 74 83 74 C72.28263306 84.46219153 59.36752042 88.92335733 44.625 89.3125 C28.4120445 89.03549473 15.07396986 83.12147363 3.62890625 71.78515625 C-7.7135433 59.76856408 -11.61472649 45.16627087 -11.34375 29.05078125 C-10.85225421 18.2317301 -6.69304728 8.48705996 0 0 Z " fill="#C3C4E0" transform="translate(635,258)"/>
<path d="M0 0 C5.44608516 0.04787767 9.25969711 0.31298907 13.875 3.25 C15.16290042 5.97913149 14.8945624 7.1879929 13.97875977 10.09082031 C13.51268311 11.15913086 13.04660645 12.22744141 12.56640625 13.328125 C12.06689453 14.48828125 11.56738281 15.6484375 11.05273438 16.84375 C10.51970703 18.0503125 9.98667969 19.256875 9.4375 20.5 C8.90194835 21.73392135 8.36743088 22.9682921 7.83398438 24.203125 C6.52444192 27.22333102 5.20446719 30.23852421 3.875 33.25 C-0.4399954 32.68584866 -4.14908182 32.05723554 -8.125 30.25 C-7.795 28.6 -7.465 26.95 -7.125 25.25 C-4.125 24.25 -4.125 24.25 -1.125 25.25 C-1.4034375 24.38375 -1.4034375 24.38375 -1.6875 23.5 C-2.16523546 21.04307475 -1.88229364 19.60602466 -1.125 17.25 C-0.135 17.25 0.855 17.25 1.875 17.25 C1.875 16.59 1.875 15.93 1.875 15.25 C0.885 15.25 -0.105 15.25 -1.125 15.25 C-2.25 9.5 -2.25 9.5 -1.125 7.25 C-2.0221875 7.559375 -2.0221875 7.559375 -2.9375 7.875 C-5.125 8.25 -5.125 8.25 -8.125 6.25 C-7.01063979 0.04142168 -6.31914748 0.08636648 0 0 Z " fill="#FBF9FB" transform="translate(690.125,265.75)"/>
<path d="M0 0 C0.66 1.32 1.32 2.64 2 4 C1.01 5.485 1.01 5.485 0 7 C-2.625 7.1875 -2.625 7.1875 -5 7 C-4.67 7.99 -4.34 8.98 -4 10 C-4.9375 12.6875 -4.9375 12.6875 -6 15 C-6.66 15 -7.32 15 -8 15 C-8 15.66 -8 16.32 -8 17 C-7.34 17 -6.68 17 -6 17 C-5.26919734 18.97746603 -4.60578253 20.98072489 -4 23 C-4.33 23.66 -4.66 24.32 -5 25 C-2.69 25.33 -0.38 25.66 2 26 C2 27.32 2 28.64 2 30 C-1.96 30.99 -5.92 31.98 -10 33 C-11.60170835 29.2532759 -13.1859643 25.49969267 -14.75463867 21.73901367 C-15.29029182 20.46163713 -15.83061228 19.18620709 -16.37573242 17.9128418 C-17.15997801 16.07863818 -17.92591791 14.2366419 -18.69140625 12.39453125 C-19.15748291 11.28956299 -19.62355957 10.18459473 -20.10375977 9.04614258 C-21.04861535 5.83476609 -20.969567 4.16073697 -20 1 C-13.30324864 -0.03026944 -6.7685324 -0.10152799 0 0 Z " fill="#FBF8F9" transform="translate(675,266)"/>
<path d="M0 0 C3.85067311 0.52036123 5.31327701 1.31327701 8 4 C9.32 4 10.64 4 12 4 C12 6.64 12 9.28 12 12 C12.99 12 13.98 12 15 12 C15 12.66 15 13.32 15 14 C14.01 14 13.02 14 12 14 C12 16.64 12 19.28 12 22 C8.04 22.495 8.04 22.495 4 23 C4 24.32 4 25.64 4 27 C2.68 27 1.36 27 0 27 C0 25.68 0 24.36 0 23 C-2.31 22.67 -4.62 22.34 -7 22 C-7.33 19.36 -7.66 16.72 -8 14 C-8.66 14 -9.32 14 -10 14 C-10 13.34 -10 12.68 -10 12 C-9.34 12 -8.68 12 -8 12 C-7.67 9.36 -7.34 6.72 -7 4 C-5.824375 3.8453125 -5.824375 3.8453125 -4.625 3.6875 C-1.66954819 3.22404978 -1.66954819 3.22404978 0 0 Z " fill="#383B97" transform="translate(677,269)"/>
<path d="M0 0 C2.64 0 5.28 0 8 0 C8.33 3.3 8.66 6.6 9 10 C9.66 10 10.32 10 11 10 C11.33 6.7 11.66 3.4 12 0 C14.97 0 17.94 0 21 0 C21 6.93 21 13.86 21 21 C19.02 21 17.04 21 15 21 C14.67 17.37 14.34 13.74 14 10 C13.01 13.63 12.02 17.26 11 21 C9.68 21 8.36 21 7 21 C6.34 17.7 5.68 14.4 5 11 C4.67 14.3 4.34 17.6 4 21 C2.68 21 1.36 21 0 21 C0 14.07 0 7.14 0 0 Z " fill="#383A97" transform="translate(662,357)"/>
<path d="M0 0 C1.98 0 3.96 0 6 0 C6 2.64 6 5.28 6 8 C7.65 8 9.3 8 11 8 C11 5.36 11 2.72 11 0 C12.65 0 14.3 0 16 0 C16 6.93 16 13.86 16 21 C14.35 21 12.7 21 11 21 C11 18.03 11 15.06 11 12 C9.35 12 7.7 12 6 12 C6 14.97 6 17.94 6 21 C4.02 21 2.04 21 0 21 C0 14.07 0 7.14 0 0 Z " fill="#333694" transform="translate(624,357)"/>
<path d="M0 0 C4.25018379 -0.41668469 6.35342568 -0.44022082 9.9375 2 C12.77903011 6.13313471 12.62869315 8.04904141 12 13 C10.875 15.4375 10.875 15.4375 9 17 C4.46159878 18.41194705 1.2776463 18.04160392 -3 16 C-5.42857267 12.90908932 -5.39834604 9.82412195 -5 6 C-3.625 3.625 -3.625 3.625 -2 2 C-1.34 2 -0.68 2 0 2 C0 1.34 0 0.68 0 0 Z " fill="#E7E8EC" transform="translate(479,279)"/>
<path d="M0 0 C2.02734375 0.6328125 2.02734375 0.6328125 4.08984375 2.1953125 C5.45575943 5.74669326 5.69574498 8.88361942 5.02734375 12.6328125 C3.52734375 15.1328125 3.52734375 15.1328125 1.02734375 16.6328125 C-3.94254845 17.3427971 -5.82185311 17.42398966 -9.97265625 14.5703125 C-12.50240758 10.85474024 -12.76046905 9.0445642 -11.97265625 4.6328125 C-8.64765347 -0.5155789 -5.69261963 -1.04191042 0 0 Z " fill="#D7DAE0" transform="translate(487.97265625,210.3671875)"/>
<path d="M0 0 C1.98 0 3.96 0 6 0 C6.33 5.28 6.66 10.56 7 16 C8.32 16.33 9.64 16.66 11 17 C11 11.39 11 5.78 11 0 C12.65 0 14.3 0 16 0 C16.08107646 2.75059381 16.14052813 5.49879021 16.1875 8.25 C16.21263672 9.02730469 16.23777344 9.80460937 16.26367188 10.60546875 C16.30741533 14.01745793 16.28469741 16.40278458 14.80078125 19.515625 C12.43846187 21.46287308 11.03850222 21.53617265 8 21.5 C7.13375 21.5103125 6.2675 21.520625 5.375 21.53125 C3 21 3 21 1.19921875 19.515625 C-0.5833204 15.77635722 -0.31952576 12.33264277 -0.1875 8.25 C-0.17396484 7.45722656 -0.16042969 6.66445313 -0.14648438 5.84765625 C-0.11125223 3.89814436 -0.05744821 1.94898374 0 0 Z " fill="#3E409A" transform="translate(685,357)"/>
<path d="M0 0 C0.95734508 7.1800881 -2.06605163 12.13106076 -6 18 C-8.78490697 21.55217726 -11.60281593 25.01694884 -15 28 C-15.99 28 -16.98 28 -18 28 C-17.835 27.360625 -17.67 26.72125 -17.5 26.0625 C-16.84067485 22.02413348 -16.91996221 18.08192742 -17 14 C-18.65 13.67 -20.3 13.34 -22 13 C-19.53908406 10.53908406 -17.481204 9.97154757 -14.1875 8.875 C-13.14980469 8.52179688 -12.11210938 8.16859375 -11.04296875 7.8046875 C-8.19514399 7.05160419 -5.92424374 6.83784231 -3 7 C-3.33 5.35 -3.66 3.7 -4 2 C-1 0 -1 0 0 0 Z " fill="#F9F1F4" transform="translate(723,299)"/>
<path d="M0 0 C3.14181296 2.8543705 4.92379222 5.4326487 6.625 9.3125 C7.23214844 10.66794922 7.23214844 10.66794922 7.8515625 12.05078125 C13.00087453 25.27435465 13.07352316 40.76669479 7.5625 53.90234375 C0.95661537 66.99851002 0.95661537 66.99851002 -5 71 C-4.731875 70.484375 -4.46375 69.96875 -4.1875 69.4375 C-3.01369786 67.02811667 -1.95886952 64.58407941 -0.921875 62.11328125 C-0.23324806 60.53469152 0.49154937 58.97179072 1.234375 57.41796875 C8.12184364 42.93402735 9.34397494 28.04424772 4.16796875 12.734375 C3.05129707 9.94305796 3.05129707 9.94305796 1.375 7.31640625 C-0.20958598 4.64691907 -0.2614881 3.0506945 0 0 Z " fill="#BABBDB" transform="translate(724,259)"/>
<path d="M0 0 C2.875 1.75 2.875 1.75 5 4 C5 5.32 5 6.64 5 8 C3.35 8 1.7 8 0 8 C-0.33 7.01 -0.66 6.02 -1 5 C-1.99 5 -2.98 5 -4 5 C-4 8.96 -4 12.92 -4 17 C-2.68 17.33 -1.36 17.66 0 18 C0 16.68 0 15.36 0 14 C1.65 14 3.3 14 5 14 C4.25 19.75 4.25 19.75 2 22 C-2.34224537 22.79635774 -5.88176647 22.76367168 -9.5625 20.25 C-11.79325389 15.20655641 -11.86050599 10.41744641 -11 5 C-7.99844603 0.40938805 -5.44214974 -1.02040308 0 0 Z " fill="#3A3D98" transform="translate(654,356)"/>
<path d="M0 0 C4.62 0 9.24 0 14 0 C14 1.32 14 2.64 14 4 C11.36 4 8.72 4 6 4 C6 5.32 6 6.64 6 8 C7.65 8 9.3 8 11 8 C11 9.32 11 10.64 11 12 C9.35 12 7.7 12 6 12 C6 13.65 6 15.3 6 17 C8.64 17 11.28 17 14 17 C14 18.32 14 19.64 14 21 C9.38 21 4.76 21 0 21 C0 14.07 0 7.14 0 0 Z " fill="#353895" transform="translate(721,357)"/>
<path d="M0 0 C3.62615842 0.6260993 6.84392368 1.61309467 10.25 3 C11.12140625 3.350625 11.9928125 3.70125 12.890625 4.0625 C15 5 15 5 16 6 C16.203125 7.99609375 16.203125 7.99609375 16.25 10.4375 C16.27578125 11.24058594 16.3015625 12.04367187 16.328125 12.87109375 C16.21984375 13.57363281 16.1115625 14.27617187 16 15 C15.01 15.66 14.02 16.32 13 17 C10.14951077 16.16041203 7.5472392 15.2475567 4.8125 14.125 C4.06291016 13.82980469 3.31332031 13.53460938 2.54101562 13.23046875 C0.68915364 12.4991602 -1.15609381 11.75114245 -3 11 C-3 10.01 -3 9.02 -3 8 C-2.34 7.67 -1.68 7.34 -1 7 C-1 5.68 -1 4.36 -1 3 C-0.67 2.01 -0.34 1.02 0 0 Z " fill="#FCDFE0" transform="translate(708,280)"/>
<path d="M0 0 C0.33 0 0.66 0 1 0 C1.02725341 1.7290774 1.04650987 3.45828176 1.0625 5.1875 C1.07410156 6.15042969 1.08570313 7.11335938 1.09765625 8.10546875 C1.00486622 10.85576513 0.62111685 13.32479591 0 16 C-0.66 15.34 -1.32 14.68 -2 14 C-2.65355469 14.38929688 -3.30710937 14.77859375 -3.98046875 15.1796875 C-8.3837864 16.37593162 -11.21715942 14.84511624 -15.3125 13.125 C-16.05306641 12.82980469 -16.79363281 12.53460938 -17.55664062 12.23046875 C-19.37726407 11.50221937 -21.18952451 10.75312376 -23 10 C-23 10.99 -23 11.98 -23 13 C-19.7 13.99 -16.4 14.98 -13 16 C-16.59089016 16.89772254 -18.08419431 17.01792031 -21.5625 16.5 C-24.68277534 16.03695745 -25.91625283 15.97208428 -29 17 C-29.33 16.34 -29.66 15.68 -30 15 C-29.56042969 14.61199219 -29.12085938 14.22398437 -28.66796875 13.82421875 C-26.6807411 11.65083395 -25.58630548 9.46339249 -24.3125 6.8125 C-23.87550781 5.91144531 -23.43851563 5.01039063 -22.98828125 4.08203125 C-22.66214844 3.39496094 -22.33601562 2.70789063 -22 2 C-21.01 2 -20.02 2 -19 2 C-19 2.99 -19 3.98 -19 5 C-18.30519531 5.12246094 -17.61039063 5.24492187 -16.89453125 5.37109375 C-13.73036021 6.0585857 -10.75191616 7.01857801 -7.6875 8.0625 C-6.61886719 8.42472656 -5.55023437 8.78695313 -4.44921875 9.16015625 C-3.64097656 9.43730469 -2.83273437 9.71445312 -2 10 C-0.41727399 8.41727399 -0.65264253 6.61965997 -0.4375 4.4375 C-0.35371094 3.61121094 -0.26992188 2.78492188 -0.18359375 1.93359375 C-0.09271484 0.97646484 -0.09271484 0.97646484 0 0 Z " fill="#FCDFE0" transform="translate(724,286)"/>
<path d="M0 0 C6.75052102 1.77910928 13.40620337 3.70438191 20 6 C19.35546875 6.35707031 18.7109375 6.71414063 18.046875 7.08203125 C15.15789794 9.78906891 15.40394183 11.80046879 15.25 15.6875 C15.19328125 16.86699219 15.1365625 18.04648437 15.078125 19.26171875 C15.05234375 20.16535156 15.0265625 21.06898438 15 22 C7.9469426 18.95295547 3.19285606 11.76885485 0 5 C-0.09765625 2.29296875 -0.09765625 2.29296875 0 0 Z " fill="#FAF8FA" transform="translate(638,305)"/>
<path d="M0 0 C5.46875 3.61328125 5.46875 3.61328125 7 5 C7 5.99 7 6.98 7 8 C7.66 8 8.32 8 9 8 C10.79217969 13.16569441 11.12029814 16.51053913 10 22 C9.01 22.33 8.02 22.66 7 23 C4.60926555 19.17482487 4.44033448 15.40334476 4 11 C1.97649676 14.03525486 1.67875982 15.19426202 1.375 18.6875 C1.30023437 19.49574219 1.22546875 20.30398438 1.1484375 21.13671875 C1.09945312 21.75160156 1.05046875 22.36648438 1 23 C-0.875 22.6875 -0.875 22.6875 -3 22 C-3.66 21.01 -4.32 20.02 -5 19 C-4.505 17.515 -4.505 17.515 -4 16 C-3.67 16.66 -3.34 17.32 -3 18 C-3 15.03 -3 12.06 -3 9 C-2.34 9 -1.68 9 -1 9 C-0.67 6.03 -0.34 3.06 0 0 Z " fill="#EE2931" transform="translate(676,240)"/>
<path d="M0 0 C5.28 0 10.56 0 16 0 C16 1.32 16 2.64 16 4 C14.35 4 12.7 4 11 4 C11 9.61 11 15.22 11 21 C9.02 21 7.04 21 5 21 C5 15.39 5 9.78 5 4 C3.35 4 1.7 4 0 4 C0 2.68 0 1.36 0 0 Z " fill="#383B97" transform="translate(702,357)"/>
<path d="M0 0 C2.64 0 5.28 0 8 0 C8 0.33 8 0.66 8 1 C5.69 1 3.38 1 1 1 C1 7.93 1 14.86 1 22 C0.67 22 0.34 22 0 22 C-0.144375 21.236875 -0.28875 20.47375 -0.4375 19.6875 C-0.9632594 16.91827092 -0.9632594 16.91827092 -2 14 C-3.65 14 -5.3 14 -7 14 C-7 15.32 -7 16.64 -7 18 C-8.65 17.67 -10.3 17.34 -12 17 C-12 13.04 -12 9.08 -12 5 C-10.68 4.67 -9.36 4.34 -8 4 C-7.67 5.32 -7.34 6.64 -7 8 C-5.35 8 -3.7 8 -2 8 C-1.34 5.36 -0.68 2.72 0 0 Z " fill="#E1E2EF" transform="translate(661,356)"/>
<path d="M0 0 C0.66 0.33 1.32 0.66 2 1 C2.26502747 2.95457759 2.52118214 4.91131132 2.70703125 6.875 C2.95261514 9.22658459 2.95261514 9.22658459 4.1875 12.1875 C5.16682144 15.57745882 4.62023644 16.93955338 3 20 C1.02 19.67 -0.96 19.34 -3 19 C-3.33 18.01 -3.66 17.02 -4 16 C-12.415 16.495 -12.415 16.495 -21 17 C-19 15 -19 15 -15.5234375 14.8046875 C-14.14049032 14.81798507 -12.75761346 14.84183768 -11.375 14.875 C-10.66859375 14.88402344 -9.9621875 14.89304687 -9.234375 14.90234375 C-7.48943902 14.92592397 -5.74467705 14.96179539 -4 15 C-4 14.34 -4 13.68 -4 13 C-3.34 13 -2.68 13 -2 13 C-2.02320313 12.39671875 -2.04640625 11.7934375 -2.0703125 11.171875 C-2.09738281 9.97304688 -2.09738281 9.97304688 -2.125 8.75 C-2.14820313 7.96109375 -2.17140625 7.1721875 -2.1953125 6.359375 C-1.9828378 3.79268059 -1.28654105 2.2083933 0 0 Z " fill="#C492AE" transform="translate(679,250)"/>
<path d="M0 0 C2.31 0 4.62 0 7 0 C6.34 0.33 5.68 0.66 5 1 C4.6278958 2.32303717 4.29369827 3.65737935 4 5 C1.88577677 7.11422323 -2.45332089 6.50847554 -5.375 6.6875 C-6.54675781 6.77741211 -6.54675781 6.77741211 -7.7421875 6.86914062 C-13.64308036 7.23794643 -13.64308036 7.23794643 -17 5 C-18.88033997 4.40678131 -20.77870208 3.86904181 -22.6875 3.375 C-23.68136719 3.11460938 -24.67523438 2.85421875 -25.69921875 2.5859375 C-26.83810547 2.29589844 -26.83810547 2.29589844 -28 2 C-28 1.67 -28 1.34 -28 1 C-14.14 1.495 -14.14 1.495 0 2 C0 1.34 0 0.68 0 0 Z " fill="#D1D1D2" transform="translate(380,58)"/>
<path d="M0 0 C4.25018379 -0.41668469 6.35342568 -0.44022082 9.9375 2 C12.74549961 6.08436307 12.55980872 8.12166689 12 13 C11.34 13.66 10.68 14.32 10 15 C9.67 14.01 9.34 13.02 9 12 C8.67 12.33 8.34 12.66 8 13 C5.66702567 13.04092937 3.33294775 13.04241723 1 13 C-0.125 7.25 -0.125 7.25 1 5 C1.66 5 2.32 5 3 5 C3 4.34 3 3.68 3 3 C3.66 3 4.32 3 5 3 C5 2.34 5 1.68 5 1 C3.35 1 1.7 1 0 1 C0 0.67 0 0.34 0 0 Z " fill="#CFD1D9" transform="translate(479,279)"/>
<path d="M0 0 C0 3.01490557 -0.51952735 4.86864114 -1.5 7.6875 C-1.7784375 8.49574219 -2.056875 9.30398438 -2.34375 10.13671875 C-2.5603125 10.75160156 -2.776875 11.36648438 -3 12 C-3.66 12 -4.32 12 -5 12 C-9.73356853 24.38468243 -9.97628775 36.5370946 -6.59375 49.20703125 C-6 52 -6 52 -7 55 C-13.19502026 41.14417344 -12.817066 26.30057856 -7.51171875 12.26953125 C-5.45550714 7.8223759 -3.03208976 3.84481485 0 0 Z " fill="#9192C6" transform="translate(635,258)"/>
<path d="M0 0 C1 3 1 3 0.22265625 4.82421875 C-0.8515625 6.54947917 -1.92578125 8.27473958 -3 10 C-6.46941546 9.54177532 -9.67395049 9.10868317 -13 8 C-15.41440173 7.87814639 -17.83255526 7.82453907 -20.25 7.8125 C-21.53390625 7.79832031 -22.8178125 7.78414063 -24.140625 7.76953125 C-28.14828876 8.0088553 -31.210452 8.75808854 -35 10 C-36.5625 7.625 -36.5625 7.625 -38 5 C-37.67 4.34 -37.34 3.68 -37 3 C-35.515 3.99 -35.515 3.99 -34 5 C-34 5.99 -34 6.98 -34 8 C-32.845 7.505 -31.69 7.01 -30.5 6.5 C-26.14717108 4.84437043 -22.62477967 4.75224395 -18 5 C-17.67 3.68 -17.34 2.36 -17 1 C-16.67 2.32 -16.34 3.64 -16 5 C-10.06 6.485 -10.06 6.485 -4 8 C-2.68 5.36 -1.36 2.72 0 0 Z " fill="#EA707A" transform="translate(699,291)"/>
<path d="M0 0 C-4.34168393 4.30729435 -7.63170451 4.61183803 -13.4375 4.6875 C-14.91545338 4.73009604 -16.39332569 4.7756166 -17.87109375 4.82421875 C-18.58040039 4.84540771 -19.28970703 4.86659668 -20.02050781 4.88842773 C-22.19281658 4.97457669 -22.19281658 4.97457669 -25.07421875 5.515625 C-28.5479327 6.09071249 -31.85622738 6.09569597 -35.375 6.0625 C-37.24285156 6.04896484 -37.24285156 6.04896484 -39.1484375 6.03515625 C-40.55996094 6.01775391 -40.55996094 6.01775391 -42 6 C-37.15741937 3.30967743 -32.35871332 2.8755394 -26.89453125 2.5 C-25.17266602 2.37625 -25.17266602 2.37625 -23.41601562 2.25 C-21.00200912 2.08252421 -18.58794582 1.91586531 -16.17382812 1.75 C-15.02978516 1.6675 -13.88574219 1.585 -12.70703125 1.5 C-11.6600708 1.4278125 -10.61311035 1.355625 -9.53442383 1.28125 C-6.09280205 0.89932646 -3.59825966 -0.09469104 0 0 Z " fill="#ECECEC" transform="translate(735,37)"/>
<path d="M0 0 C1.89492188 0.01353516 1.89492188 0.01353516 3.828125 0.02734375 C4.79234375 0.03894531 5.7565625 0.05054688 6.75 0.0625 C6.42 0.7225 6.09 1.3825 5.75 2.0625 C5.15832031 2.05089844 4.56664062 2.03929687 3.95703125 2.02734375 C2.77173828 2.01380859 2.77173828 2.01380859 1.5625 2 C0.39654297 1.98259766 0.39654297 1.98259766 -0.79296875 1.96484375 C-3.24032735 1.99573643 -3.24032735 1.99573643 -5.5546875 2.53515625 C-9.08197198 3.22527713 -12.60625369 3.3829389 -16.1875 3.5625 C-20.94181743 3.80221348 -25.55284636 4.27856126 -30.25 5.0625 C-32.04067806 5.12555204 -33.83337579 5.14921114 -35.625 5.125 C-36.93597656 5.11146484 -36.93597656 5.11146484 -38.2734375 5.09765625 C-39.25183594 5.08025391 -39.25183594 5.08025391 -40.25 5.0625 C-33.58004998 1.21445191 -25.54413332 1.76496433 -18.0625 1.45703125 C-17.24523437 1.41964844 -16.42796875 1.38226563 -15.5859375 1.34375 C-14.84907715 1.31345703 -14.1122168 1.28316406 -13.35302734 1.25195312 C-8.76616734 0.83874168 -4.711407 -0.04362414 0 0 Z " fill="#DFE0E0" transform="translate(659.25,46.9375)"/>
<path d="M0 0 C-3.49413883 3.26701981 -6.30894406 3.43616512 -11 3.625 C-15.55241939 3.75641614 -15.55241939 3.75641614 -20.015625 4.51953125 C-22.93526362 5.22645162 -25.75368432 5.09246316 -28.75 5.0625 C-29.92046875 5.05347656 -31.0909375 5.04445313 -32.296875 5.03515625 C-33.18890625 5.02355469 -34.0809375 5.01195312 -35 5 C-35 4.67 -35 4.34 -35 4 C-27.77928167 2.36951522 -20.60155738 1.43914025 -13.24658203 0.69775391 C-12.49747559 0.62089355 -11.74836914 0.5440332 -10.9765625 0.46484375 C-10.30705566 0.399021 -9.63754883 0.33319824 -8.94775391 0.26538086 C-6.96080759 0.04213837 -6.96080759 0.04213837 -4.93896484 -0.59155273 C-3 -1 -3 -1 0 0 Z " fill="#EFEFEF" transform="translate(670,44)"/>
<path d="M0 0 C6.46712188 1.16194152 12.09622349 3.1248748 18 6 C18 6.99 18 7.98 18 9 C13.82423832 8.31583566 10.11919593 6.98634991 6.1875 5.4375 C5.02605469 4.98246094 3.86460937 4.52742188 2.66796875 4.05859375 C1.34732422 3.53458984 1.34732422 3.53458984 0 3 C0 2.01 0 1.02 0 0 Z " fill="#EE3039" transform="translate(703,292)"/>
<path d="M0 0 C1.91796875 0.3671875 1.91796875 0.3671875 4 1 C6.53629129 5.10637637 5.901316 8.40328841 5 13 C4.01 13.33 3.02 13.66 2 14 C0.09391902 10.78817851 -0.22266247 8.46117397 -0.125 4.75 C-0.09792969 3.41195312 -0.09792969 3.41195312 -0.0703125 2.046875 C-0.04710937 1.37140625 -0.02390625 0.6959375 0 0 Z " fill="#EC252F" transform="translate(681,249)"/>
<path d="M0 0 C0 0.99 0 1.98 0 3 C-2.43313372 4.03251062 -4.87056892 5.05119521 -7.3125 6.0625 C-8.34793945 6.50432617 -8.34793945 6.50432617 -9.40429688 6.95507812 C-14.66015625 9.11328125 -14.66015625 9.11328125 -18 8 C-18 7.34 -18 6.68 -18 6 C-15.56495491 4.9936345 -13.12729136 3.99473587 -10.6875 3 C-9.65206055 2.57074219 -9.65206055 2.57074219 -8.59570312 2.1328125 C-5.58454326 0.91089256 -3.28113016 0 0 0 Z " fill="#EE2D35" transform="translate(656,292)"/>
<path d="M0 0 C0.66 0 1.32 0 2 0 C2 4.62 2 9.24 2 14 C-2 12 -2 12 -3 10 C-3.2965955 6.58915179 -3.35902137 4.62012782 -1.625 1.625 C-1.08875 1.08875 -0.5525 0.5525 0 0 Z " fill="#E5E5F1" transform="translate(675,275)"/>
<path d="M0 0 C-0.33 0.99 -0.66 1.98 -1 3 C-3.8359375 4.38671875 -3.8359375 4.38671875 -7.375 5.6875 C-8.53773438 6.12449219 -9.70046875 6.56148438 -10.8984375 7.01171875 C-14 8 -14 8 -17 8 C-17 7.01 -17 6.02 -17 5 C-14.91999989 4.15838146 -12.83585854 3.32699237 -10.75 2.5 C-9.58984375 2.0359375 -8.4296875 1.571875 -7.234375 1.09375 C-4 0 -4 0 0 0 Z " fill="#EE2C34" transform="translate(655,288)"/>
<path d="M0 0 C5.59085785 0.58851135 11.06222629 2.30328743 16 5 C16.33 5.99 16.66 6.98 17 8 C10.99522721 7.35083537 5.599219 5.14204997 0 3 C0 2.01 0 1.02 0 0 Z " fill="#EE2A33" transform="translate(705,288)"/>
<path d="M0 0 C1 3 1 3 -0.2578125 5.77734375 C-0.87398437 6.82019531 -1.49015625 7.86304688 -2.125 8.9375 C-2.72570312 9.97777344 -3.32640625 11.01804687 -3.9453125 12.08984375 C-6.02271102 15.03216675 -8.08846634 16.90953898 -11 19 C-10.731875 18.484375 -10.46375 17.96875 -10.1875 17.4375 C-9.25641252 15.52632043 -8.39556698 13.58089638 -7.5625 11.625 C-6.15049278 8.34914324 -4.62569122 5.17396857 -3 2 C-2.01 2 -1.02 2 0 2 C0 1.34 0 0.68 0 0 Z " fill="#A9AAD4" transform="translate(730,311)"/>
<path d="M0 0 C5.83800028 1.6562536 11.53862656 3.327413 17 6 C17.33 6.66 17.66 7.32 18 8 C18.99 8.66 19.98 9.32 21 10 C13.94566987 9.67934863 7.97396943 6.644212 2 3 C1.34 2.01 0.68 1.02 0 0 Z " fill="#ABACD3" transform="translate(646,335)"/>
<path d="M0 0 C0.66 0.33 1.32 0.66 2 1 C-4.09283149 7.23789891 -10.83613034 9.44100618 -19 12 C-19.66 11.34 -20.32 10.68 -21 10 C-20.2265625 9.68546875 -19.453125 9.3709375 -18.65625 9.046875 C-8.69581824 5.58483096 -8.69581824 5.58483096 0 0 Z " fill="#DFE0EE" transform="translate(716,331)"/>
<path d="M0 0 C4 2 4 2 5 3 C4.8125 6.375 4.8125 6.375 4 10 C2.68 10.99 1.36 11.98 0 13 C0 8.71 0 4.42 0 0 Z " fill="#F0F0F7" transform="translate(682,276)"/>
<path d="M0 0 C1.37478516 0.01740234 1.37478516 0.01740234 2.77734375 0.03515625 C3.69644531 0.04417969 4.61554688 0.05320313 5.5625 0.0625 C6.27277344 0.07410156 6.98304688 0.08570313 7.71484375 0.09765625 C7.38484375 1.74765625 7.05484375 3.39765625 6.71484375 5.09765625 C4.07484375 5.09765625 1.43484375 5.09765625 -1.28515625 5.09765625 C-1.94515625 3.77765625 -2.60515625 2.45765625 -3.28515625 1.09765625 C-2.28515625 0.09765625 -2.28515625 0.09765625 0 0 Z " fill="#E7E9ED" transform="translate(482.28515625,221.90234375)"/>
<path d="M0 0 C5.96564796 0.50771472 10.63809899 2.38592128 16 5 C16 5.66 16 6.32 16 7 C10.03435204 6.49228528 5.36190101 4.61407872 0 2 C0 1.34 0 0.68 0 0 Z " fill="#EE3038" transform="translate(706,284)"/>
<path d="M0 0 C0.33 0 0.66 0 1 0 C1.02725341 1.7290774 1.04650987 3.45828176 1.0625 5.1875 C1.07410156 6.15042969 1.08570313 7.11335938 1.09765625 8.10546875 C1.00486622 10.85576513 0.62111685 13.32479591 0 16 C-0.51046875 15.39671875 -1.0209375 14.7934375 -1.546875 14.171875 C-4.51130715 11.54731405 -7.55105027 10.44539229 -11.25 9.25 C-11.8996875 9.02957031 -12.549375 8.80914062 -13.21875 8.58203125 C-14.80897798 8.04416002 -16.4040371 7.52060822 -18 7 C-17.34 6.34 -16.68 5.68 -16 5 C-11.38 6.65 -6.76 8.3 -2 10 C-0.41727399 8.41727399 -0.65264253 6.61965997 -0.4375 4.4375 C-0.35371094 3.61121094 -0.26992188 2.78492188 -0.18359375 1.93359375 C-0.09271484 0.97646484 -0.09271484 0.97646484 0 0 Z " fill="#E2CCD9" transform="translate(724,286)"/>
<path d="M0 0 C-0.33 0.99 -0.66 1.98 -1 3 C-3.36328125 4.16796875 -3.36328125 4.16796875 -6.3125 5.1875 C-7.27800781 5.53167969 -8.24351562 5.87585938 -9.23828125 6.23046875 C-12 7 -12 7 -16 7 C-16 6.34 -16 5.68 -16 5 C-14.08717875 4.15787744 -12.16957527 3.32661136 -10.25 2.5 C-9.18265625 2.0359375 -8.1153125 1.571875 -7.015625 1.09375 C-4 0 -4 0 0 0 Z " fill="#EE2D35" transform="translate(653,284)"/>
<path d="M0 0 C2.26071155 3.39106733 3.65268823 6.91514137 5.125 10.6875 C5.40214844 11.38939453 5.67929687 12.09128906 5.96484375 12.81445312 C6.64635741 14.54173775 7.32359772 16.27070737 8 18 C7.34 18.66 6.68 19.32 6 20 C1.59225513 10.58997722 1.59225513 10.58997722 1 6 C-0.32 5.67 -1.64 5.34 -3 5 C-2.01 3.35 -1.02 1.7 0 0 Z " fill="#F79CA0" transform="translate(653,269)"/>
<path d="M0 0 C1.32 0.33 2.64 0.66 4 1 C2.87607452 4.89051128 1.96542676 7.27180738 -1 10 C-2.03357147 11.64605826 -3.04060332 13.30963442 -4 15 C-4.66 14.67 -5.32 14.34 -6 14 C-4.02 9.38 -2.04 4.76 0 0 Z " fill="#F57E82" transform="translate(699,285)"/>
<path d="M0 0 C-1 3 -1 3 -3.1796875 4.16796875 C-4.06914063 4.50441406 -4.95859375 4.84085937 -5.875 5.1875 C-6.75929688 5.53167969 -7.64359375 5.87585938 -8.5546875 6.23046875 C-11 7 -11 7 -14 7 C-13 4 -13 4 -10.8203125 2.83203125 C-9.93085937 2.49558594 -9.04140625 2.15914063 -8.125 1.8125 C-7.24070312 1.46832031 -6.35640625 1.12414062 -5.4453125 0.76953125 C-3 0 -3 0 0 0 Z " fill="#EF3A42" transform="translate(651,280)"/>
<path d="M0 0 C5.06998019 0.65419099 9.41990777 2.8546409 14 5 C14 5.66 14 6.32 14 7 C8.93001981 6.34580901 4.58009223 4.1453591 0 2 C0 1.34 0 0.68 0 0 Z " fill="#EF3840" transform="translate(708,280)"/>
<path d="M0 0 C0.33 0.99 0.66 1.98 1 3 C-0.31306433 5.0133653 -1.64837492 7.01231606 -3 9 C-3.78215588 11.7282504 -3.78215588 11.7282504 -4 14 C-4.33 12.68 -4.66 11.36 -5 10 C-5.66 10 -6.32 10 -7 10 C-6.67 7.69 -6.34 5.38 -6 3 C-5.195625 2.87625 -4.39125 2.7525 -3.5625 2.625 C-2.716875 2.41875 -1.87125 2.2125 -1 2 C-0.67 1.34 -0.34 0.68 0 0 Z " fill="#494CA0" transform="translate(676,270)"/>
<path d="M0 0 C0.33 0.66 0.66 1.32 1 2 C3.05376006 2.61365708 3.05376006 2.61365708 5.4375 3 C9.78082192 3.78082192 9.78082192 3.78082192 12 6 C11.09636719 5.91621094 10.19273437 5.83242188 9.26171875 5.74609375 C8.08222656 5.64425781 6.90273438 5.54242188 5.6875 5.4375 C4.51574219 5.33308594 3.34398437 5.22867187 2.13671875 5.12109375 C-1.03032575 4.81422566 -1.03032575 4.81422566 -4 6 C-4.33 5.34 -4.66 4.68 -5 4 C-3.35 2.68 -1.7 1.36 0 0 Z " fill="#F9BCBE" transform="translate(699,297)"/>
<path d="M0 0 C0 0.66 0 1.32 0 2 C-0.66 2 -1.32 2 -2 2 C-2 2.66 -2 3.32 -2 4 C-5.465 5.485 -5.465 5.485 -9 7 C-8.6875 4.625 -8.6875 4.625 -8 2 C-4.77208445 -0.1519437 -3.71599191 -0.20086443 0 0 Z " fill="#F3F4F4" transform="translate(484,280)"/>
<path d="M0 0 C2.5 1.6875 2.5 1.6875 5 4 C5.3125 6.75 5.3125 6.75 5 9 C4.1028125 7.7934375 4.1028125 7.7934375 3.1875 6.5625 C-0.61924313 2.64509573 -5.84652934 3.09927877 -11 3 C-11 2.67 -11 2.34 -11 2 C-7.37 2 -3.74 2 0 2 C0 1.34 0 0.68 0 0 Z " fill="#C6C7E1" transform="translate(719,253)"/>
<path d="M0 0 C0.99 0.33 1.98 0.66 3 1 C3 2.98 3 4.96 3 7 C0.69 7.33 -1.62 7.66 -4 8 C-2.87548273 5.0280615 -1.77706209 2.66559313 0 0 Z " fill="#47499F" transform="translate(686,284)"/>
<path d="M0 0 C4.69159716 3.38772897 9.0299782 6.78185183 13 11 C9.42594199 10.40566226 7.49886665 9.01400148 4.8125 6.625 C4.11769531 6.01914062 3.42289063 5.41328125 2.70703125 4.7890625 C1 3 1 3 0 0 Z " fill="#EEEEF7" transform="translate(639,326)"/>
<path d="M0 0 C1.98 0.99 1.98 0.99 4 2 C4 2.99 4 3.98 4 5 C4.53625 4.67 5.0725 4.34 5.625 4 C8.5391061 2.77300796 10.86867708 2.85766714 14 3 C10.49461443 4.96301592 6.86648272 5.95902388 3 7 C0 2.25 0 2.25 0 0 Z " fill="#F04950" transform="translate(661,294)"/>
<path d="M0 0 C2 3 2 3 1.625 6.1875 C1.41875 7.115625 1.2125 8.04375 1 9 C-0.32 9.33 -1.64 9.66 -3 10 C-3 7.69 -3 5.38 -3 3 C-2.34 3.66 -1.68 4.32 -1 5 C-0.67 3.35 -0.34 1.7 0 0 Z " fill="#A09CC9" transform="translate(682,260)"/>
<path d="M0 0 C0.33 0 0.66 0 1 0 C1 4.62 1 9.24 1 14 C-2 11 -2 11 -2.109375 9.0625 C-1.93148437 8.0415625 -1.93148437 8.0415625 -1.75 7 C-1.64171875 6.319375 -1.5334375 5.63875 -1.421875 4.9375 C-1 3 -1 3 0 0 Z " fill="#D9DAEB" transform="translate(676,364)"/>
<path d="M0 0 C0.66 0.66 1.32 1.32 2 2 C1.2884375 2.6496875 1.2884375 2.6496875 0.5625 3.3125 C-1.23686957 5.02309613 -1.23686957 5.02309613 -2 8 C-4.375 9.75 -4.375 9.75 -7 11 C-7.99 10.67 -8.98 10.34 -10 10 C-9.44570313 9.52949219 -8.89140625 9.05898438 -8.3203125 8.57421875 C-7.59585938 7.95160156 -6.87140625 7.32898438 -6.125 6.6875 C-5.40570312 6.07261719 -4.68640625 5.45773437 -3.9453125 4.82421875 C-1.80820669 2.9587676 -1.80820669 2.9587676 0 0 Z " fill="#E6E6F2" transform="translate(721,323)"/>
<path d="M0 0 C2 1 2 1 2.8515625 3.06640625 C3.10679687 3.89011719 3.36203125 4.71382813 3.625 5.5625 C3.88539063 6.38878906 4.14578125 7.21507812 4.4140625 8.06640625 C4.60742188 8.70449219 4.80078125 9.34257812 5 10 C4.01 10.495 4.01 10.495 3 11 C2.30034557 9.73581754 1.61565237 8.46334598 0.9375 7.1875 C0.55464844 6.47980469 0.17179688 5.77210938 -0.22265625 5.04296875 C-1 3 -1 3 0 0 Z " fill="#F47C81" transform="translate(653,276)"/>
<path d="M0 0 C7.92 0 15.84 0 24 0 C24 0.33 24 0.66 24 1 C16.08 1 8.16 1 0 1 C0 0.67 0 0.34 0 0 Z " fill="#D6D6D6" transform="translate(413,858)"/>
<path d="M0 0 C2.02559537 3.03839305 3.11728545 5.4691418 4 9 C3.01 10.485 3.01 10.485 2 12 C1.46809459 10.56656 0.94984742 9.12804633 0.4375 7.6875 C0.14746094 6.88699219 -0.14257812 6.08648437 -0.44140625 5.26171875 C-1 3 -1 3 0 0 Z " fill="#BEBFDE" transform="translate(629,307)"/>
<path d="M0 0 C1.98 0 3.96 0 6 0 C6 1.32 6 2.64 6 4 C4.02 4 2.04 4 0 4 C0 2.68 0 1.36 0 0 Z " fill="#555A6B" transform="translate(479,286)"/>
<path d="M0 0 C0.99 0.33 1.98 0.66 3 1 C2.20822838 4.82689618 0.79541463 7.20458537 -2 10 C-3.39195915 5.82412255 -1.82323219 3.86525224 0 0 Z " fill="#F8B0B3" transform="translate(704,273)"/>
<path d="M0 0 C1.32 0 2.64 0 4 0 C4 1.65 4 3.3 4 5 C2.35 5 0.7 5 -1 5 C-0.67 3.35 -0.34 1.7 0 0 Z " fill="#5B6075" transform="translate(483,216)"/>
<path d="M0 0 C4.95 0 9.9 0 15 0 C10.4029774 2.2985113 7.1297418 3.69448102 2.125 2.0625 C1.42375 1.711875 0.7225 1.36125 0 1 C0 0.67 0 0.34 0 0 Z " fill="#E0E0E1" transform="translate(666,46)"/>
<path d="M0 0 C2.5625 2.125 2.5625 2.125 5 5 C4.8125 8.3125 4.8125 8.3125 4 11 C1.55160412 7.32740617 0 4.45351799 0 0 Z " fill="#CBCEDE" transform="translate(844,498)"/>
<path d="M0 0 C0.33 0 0.66 0 1 0 C1 3.63 1 7.26 1 11 C0.01 10.01 -0.98 9.02 -2 8 C-1.75528519 5.00224356 -1.34661086 2.69322172 0 0 Z " fill="#F6F6FA" transform="translate(678,259)"/>
<path d="M0 0 C0.99 0.33 1.98 0.66 3 1 C3 1.99 3 2.98 3 4 C3.66 4 4.32 4 5 4 C5 4.66 5 5.32 5 6 C3.68 5.67 2.36 5.34 1 5 C0.67 3.35 0.34 1.7 0 0 Z M-2 5 C-1.01 5 -0.02 5 1 5 C0 7 0 7 -2 8 C-2 7.01 -2 6.02 -2 5 Z " fill="#F37177" transform="translate(680,244)"/>
<path d="M0 0 C0.66 0.33 1.32 0.66 2 1 C-1.465 3.97 -1.465 3.97 -5 7 C-7 6 -7 6 -8 4 C-6.865625 3.525625 -5.73125 3.05125 -4.5625 2.5625 C-1.24259834 1.36377917 -1.24259834 1.36377917 0 0 Z " fill="#9A9CCB" transform="translate(716,331)"/>
<path d="M0 0 C0.66 0.33 1.32 0.66 2 1 C2 2.98 2 4.96 2 7 C0.68 7 -0.64 7 -2 7 C-1.125 2.25 -1.125 2.25 0 0 Z " fill="#F2CFD5" transform="translate(679,250)"/>
<path d="M0 0 C1.9451 2.91765 2.45276317 4.62537285 3 8 C2.01 7.34 1.02 6.68 0 6 C-0.99 5.67 -1.98 5.34 -3 5 C-2.01 3.35 -1.02 1.7 0 0 Z " fill="#F47378" transform="translate(653,269)"/>
<path d="M0 0 C2.99324263 1.0975223 3.84610901 1.67682892 5.25 4.625 C5.4975 5.40875 5.745 6.1925 6 7 C4.125 6.6875 4.125 6.6875 2 6 C0 3 0 3 0 0 Z " fill="#E44A57" transform="translate(671,256)"/>
<path d="M0 0 C0.66 0.33 1.32 0.66 2 1 C2 4.3 2 7.6 2 11 C-1 8 -1 8 -1.07421875 5.95703125 C-0.71614583 3.97135417 -0.35807292 1.98567708 0 0 Z " fill="#F8A5A9" transform="translate(672,248)"/>
<path d="M0 0 C1.0625 1.875 1.0625 1.875 2 4 C1.67 4.66 1.34 5.32 1 6 C0 5 0 5 -0.0625 2.4375 C-0.041875 1.633125 -0.02125 0.82875 0 0 Z " fill="#FEFEFE" transform="translate(6,341)"/>
<path d="M0 0 C4 1 4 1 4 1 Z " fill="#E3E4E4" transform="translate(255,4)"/>
</svg>
