<?xml version="1.0" encoding="UTF-8"?>
<svg version="1.1" xmlns="http://www.w3.org/2000/svg" width="1184" height="864">
<path d="M0 0 C0.74056641 0.00515625 1.48113281 0.0103125 2.24414062 0.015625 C5.42875237 0.06173703 8.02367034 0.23705678 11.0625 1.25 C12.47946507 2.82054206 13.82356816 4.45746664 15.125 6.125 C18.32024361 10.13329587 21.58179973 13.98150392 25.0625 17.75 C29.15601091 22.19727112 32.98692499 26.79717463 36.78125 31.5 C39.12968968 34.33099578 41.57159902 37.04383598 44.0625 39.75 C48.22958116 44.27943605 52.15749616 48.95386651 56.02734375 53.73828125 C60.75723056 59.62603991 60.75723056 59.62603991 65.98266602 65.0625 C68.03743966 67.22364237 69.3228436 69.16731517 70.7265625 71.78515625 C71.44247559 73.10845947 71.44247559 73.10845947 72.17285156 74.45849609 C72.67268555 75.40031738 73.17251953 76.34213867 73.6875 77.3125 C74.47592285 78.77937256 74.47592285 78.77937256 75.28027344 80.27587891 C76.88238671 83.26304182 78.47364275 86.25576902 80.0625 89.25 C80.5255957 90.11834473 80.98869141 90.98668945 81.46582031 91.88134766 C84.36548387 97.3200893 87.2255607 102.77831417 90.0625 108.25 C90.39137207 108.8790625 90.72024414 109.508125 91.05908203 110.15625 C97.84897416 123.18161413 103.70463533 136.65185438 109.65405273 150.07495117 C110.51198821 152.00898669 111.37274137 153.94177964 112.23852539 155.87231445 C114.26789436 160.398629 116.17942488 164.94802289 118 169.5625 C121.0322968 177.20803467 124.18930112 184.79767863 127.37890625 192.37890625 C127.81074219 193.40886719 128.24257812 194.43882812 128.6875 195.5 C129.26371094 196.86898437 129.26371094 196.86898437 129.8515625 198.265625 C131.88737847 203.28292631 133.76490645 208.34917677 135.52734375 213.46875 C135.77033203 214.17386719 136.01332031 214.87898437 136.26367188 215.60546875 C136.75414681 217.03396075 137.24113474 218.46365483 137.72460938 219.89453125 C138.93928143 223.40073502 140.2459528 226.70368664 141.984375 229.984375 C144.78249875 235.4116842 146.50601563 241.20291833 148.375 247 C149.16538721 249.41448171 149.95706519 251.82854124 150.75 254.2421875 C151.13929687 255.4290918 151.52859375 256.61599609 151.9296875 257.83886719 C153.76834689 263.37545103 155.70920047 268.87506387 157.67895508 274.36621094 C159.2213647 278.70451022 160.60385788 283.05966771 161.90625 287.4765625 C164.38764893 295.63473272 167.79819021 303.3615842 171.25976562 311.14453125 C174.20019599 318.06272155 175.67350026 323.94061749 175.8046875 331.47802734 C176.14903552 335.18042071 177.56512403 337.27722014 179.7265625 340.20703125 C181.87419254 343.49127251 182.93971694 347.1263694 184.16796875 350.83203125 C185.03265407 353.45607128 185.03265407 353.45607128 187.0625 356.25 C187.49926874 357.63357067 187.88958052 359.03210592 188.25 360.4375 C189.8508896 366.0406136 192.14924086 371.24413318 194.54956055 376.53979492 C199.89970337 388.39271195 199.89970337 388.39271195 199.0625 393.25 C197.49279549 395.53650599 195.97158967 397.45955806 194.125 399.5 C193.33331421 400.39658325 193.33331421 400.39658325 192.52563477 401.3112793 C182.24160226 412.79082138 171.38596228 423.95518523 159.0625 433.25 C158.54107422 433.6531543 158.01964844 434.05630859 157.48242188 434.47167969 C114.70730762 467.50715321 65.58143074 482.32820901 13.17504883 491.86062622 C11.12472104 492.23853175 9.07797387 492.6321492 7.03125 493.02905273 C-5.17294363 495.35076769 -17.45465509 496.61039463 -29.8125 497.8125 C-30.89746765 497.92016693 -31.9824353 498.02783386 -33.10028076 498.13876343 C-52.35612192 500.04383439 -71.60668662 501.41707797 -90.9375 502.25 C-91.05248393 508.84561965 -90.77376296 515.26498869 -90.01953125 521.81640625 C-89.92040939 522.69417221 -89.82128754 523.57193817 -89.71916199 524.4763031 C-89.50790743 526.32286349 -89.29345546 528.16906067 -89.07592773 530.01489258 C-88.75379126 532.77995761 -88.45370393 535.54684766 -88.15429688 538.31445312 C-87.01079115 548.37098068 -85.1739146 557.70115597 -82.11694336 567.34350586 C-80.28414119 573.20087859 -79.30495687 579.20310823 -78.3125 585.25 C-78.1057666 586.45406494 -77.8990332 587.65812988 -77.68603516 588.89868164 C-77.09463583 592.34773921 -76.51491612 595.79857885 -75.9375 599.25 C-75.51920192 601.70971676 -75.09766452 604.16877733 -74.67041016 606.62695312 C-74.3452284 608.49907731 -74.02765592 610.37251921 -73.7109375 612.24609375 C-73.10245767 615.5769509 -72.3424222 618.86360574 -71.5703125 622.16015625 C-69.70267183 630.15932896 -68.05360635 638.19698154 -66.4375 646.25 C-66.20539322 647.4010321 -66.20539322 647.4010321 -65.96859741 648.57531738 C-63.97146183 658.5130661 -62.22225631 668.42192245 -60.93188477 678.47949219 C-59.93635388 685.95871725 -58.03107398 693.00785138 -55.9375 700.25 C-54.35198782 706.4541781 -53.37679577 712.69795021 -52.5 719.0390625 C-51.99608168 722.30991117 -51.99608168 722.30991117 -50.8984375 725.62109375 C-48.92974972 733.0556911 -48.23872486 743.41981179 -51.1875 750.6875 C-60.43680002 765.0223258 -81.92510296 775.45803875 -96.87451172 782.30126953 C-98.34744206 782.97864318 -99.81464304 783.66853247 -101.27783203 784.36669922 C-132.06110115 799.01843571 -165.08339216 809.34598909 -197.9375 818.25 C-199.20343994 818.59901367 -200.46937988 818.94802734 -201.77368164 819.30761719 C-208.76739499 821.22254105 -215.72274613 822.92598809 -222.875 824.125 C-224.74888363 824.45336904 -226.62256886 824.78287157 -228.49609375 825.11328125 C-229.50913574 825.29068848 -230.52217773 825.4680957 -231.56591797 825.65087891 C-237.49719754 826.7048514 -243.41865154 827.81141567 -249.33987427 828.92022705 C-251.37459625 829.30073649 -253.40980436 829.67855455 -255.44506836 830.05615234 C-265.06286373 831.85455782 -274.69347516 833.67114298 -284.18261719 836.07055664 C-292.37097035 838.12387656 -300.26753449 838.85614983 -308.6875 839.25 C-318.11633014 839.76613628 -327.24760327 840.54063784 -336.4987793 842.42602539 C-341.46497563 843.3878124 -346.4603392 844.04624568 -351.4765625 844.6875 C-352.47861221 844.81652206 -353.48066193 844.94554413 -354.51307678 845.07847595 C-405.2149234 851.52251375 -455.66574159 854.4214561 -506.75 852.875 C-507.86407227 852.8443042 -508.97814453 852.8136084 -510.12597656 852.78198242 C-514.60247939 852.61406142 -518.83500419 852.38139769 -523.18359375 851.2734375 C-530.02526689 849.57440014 -537.17265413 849.58530869 -544.1875 849.25 C-553.22694563 848.81362703 -562.10446842 848.2127294 -571.04638672 846.71386719 C-575.14188714 846.05676106 -579.24388895 845.71889419 -583.375 845.375 C-593.47450408 844.4486451 -603.33876079 842.64916994 -613.29199219 840.74365234 C-617.41360774 839.97455797 -621.54926074 839.29781339 -625.6875 838.625 C-631.79983975 837.62504266 -637.87533632 836.52109884 -643.9375 835.25 C-644.2675 835.91 -644.5975 836.57 -644.9375 837.25 C-645.80375 836.3528125 -645.80375 836.3528125 -646.6875 835.4375 C-649.83002248 833.32234064 -651.54069474 832.73309667 -655.14453125 831.93359375 C-662.86503887 830.08859814 -670.35544693 827.64476032 -677.875 825.125 C-678.60181976 824.8815686 -679.32863953 824.63813721 -680.07748413 824.3873291 C-697.84642892 818.40861039 -714.5325657 811.17193886 -731.125 802.4375 C-731.75193756 802.11076294 -732.37887512 801.78402588 -733.02481079 801.4473877 C-734.8085246 800.51300121 -736.58223255 799.55958952 -738.35546875 798.60546875 C-739.38438232 798.05528076 -740.4132959 797.50509277 -741.47338867 796.93823242 C-744.05894315 795.16679586 -744.76545291 794.07617584 -745.9375 791.25 C-747.255642 790.55377886 -748.5910931 789.88985208 -749.9375 789.25 C-757.73319418 781.90319416 -761.32652942 775.01354109 -761.9453125 764.30859375 C-762.17095278 749.08565541 -760.11841449 732.85935518 -755.9375 718.25 C-755.43225596 715.92217406 -754.95383281 713.58839281 -754.5 711.25 C-754.24117207 709.91921505 -753.98204956 708.58848736 -753.72265625 707.2578125 C-753.59262207 706.58782227 -753.46258789 705.91783203 -753.32861328 705.22753906 C-752.96225398 703.37516058 -752.57371559 701.5272075 -752.18359375 699.6796875 C-749.54562186 687.11133974 -747.79427469 674.41783091 -746.2578125 661.671875 C-744.99481302 651.28800994 -743.45388816 641.01716542 -741.4375 630.75 C-741.23592285 629.70553711 -741.0343457 628.66107422 -740.82666016 627.58496094 C-739.71306099 622.10551637 -738.30539366 617.31079232 -735.9375 612.25 C-734.77312116 608.23961079 -734.77312116 608.23961079 -735.90698242 604.45068359 C-737.24097058 601.60193465 -737.21281146 599.36720202 -737.23828125 596.2265625 C-737.24811035 595.04819824 -737.25793945 593.86983398 -737.26806641 592.65576172 C-737.18035272 574.29989475 -734.4200178 560.71149645 -727.60595703 543.74755859 C-722.48851405 530.9761673 -720.51979206 520.3217755 -720.41015625 506.5703125 C-720.28667739 500.36731563 -719.91944551 495.73804864 -716.9375 490.25 C-717.9275 489.92 -718.9175 489.59 -719.9375 489.25 C-720.2675 488.59 -720.5975 487.93 -720.9375 487.25 C-722.61821742 486.4784251 -724.33451321 485.78393896 -726.0625 485.125 C-733.67349115 482.05167816 -740.77666184 478.23689901 -747.9375 474.25 C-748.87722656 473.72921875 -749.81695313 473.2084375 -750.78515625 472.671875 C-770.83115133 461.24998428 -789.89756258 448.18694844 -808.26171875 434.24609375 C-810.69787561 432.4287563 -813.17265992 430.70575389 -815.6875 429 C-822.45197129 424.31606658 -828.72854837 419.00675604 -835.07324219 413.77783203 C-836.66567795 412.47276877 -838.27279792 411.18565776 -839.8828125 409.90234375 C-847.32375826 403.96069303 -854.20480718 397.48380272 -861.12255859 390.95166016 C-863.78277503 388.45748359 -866.48527245 386.01094927 -869.1875 383.5625 C-872.18187647 380.83887012 -875.12290178 378.09199042 -877.94921875 375.1953125 C-878.44067383 374.69217529 -878.93212891 374.18903809 -879.43847656 373.6706543 C-880.78874169 372.27655834 -882.12721504 370.8710688 -883.46484375 369.46484375 C-885.91593831 367.26931355 -887.82591979 366.23524096 -890.9375 365.25 C-890.195 364.569375 -889.4525 363.88875 -888.6875 363.1875 C-882.53083129 356.96114933 -879.61423122 348.2306972 -876.25 340.3125 C-875.50266602 338.60030273 -875.50266602 338.60030273 -874.74023438 336.85351562 C-871.76406621 330.08224453 -871.76406621 330.08224453 -870.48046875 322.87109375 C-869.82892038 318.52587551 -868.41922902 317.09767191 -865.48828125 314.00146484 C-862.98254597 311.17146722 -861.49774245 307.97963063 -859.9375 304.5625 C-859.42352661 303.46010986 -859.42352661 303.46010986 -858.89916992 302.33544922 C-856.48390312 296.95802011 -854.78837506 291.55537519 -853.25 285.875 C-848.47431029 268.52458355 -839.48837069 252.39047337 -830.60644531 236.82373047 C-827.3336868 231.06796156 -824.3636049 225.18855723 -821.4375 219.25 C-817.66179791 211.59170501 -813.69668645 204.08907447 -809.49609375 196.65625 C-806.83044451 191.91920453 -804.32993782 187.1302833 -801.9375 182.25 C-797.93503719 174.10045612 -793.56222598 166.17675694 -789.08642578 158.27880859 C-788.06029975 156.46684359 -787.04320163 154.64977286 -786.02734375 152.83203125 C-780.29656339 142.74115832 -773.4943584 133.75496218 -765.9543457 124.96972656 C-762.59926749 121.05968628 -759.3924812 117.06231019 -756.27734375 112.95703125 C-754.9375 111.25 -754.9375 111.25 -752.9375 109.25 C-752.59348515 107.79877771 -752.28657208 106.33864914 -752 104.875 C-750.22720457 98.58384904 -746.17967306 94.62250961 -741.73046875 90.09375 C-738.80295845 87.11301225 -736.12902688 83.99369243 -733.47265625 80.7734375 C-731.9375 79.25 -731.9375 79.25 -729.87109375 78.2890625 C-727.40335424 76.9629641 -727.04912547 75.78432308 -725.9375 73.25 C-724.90080927 71.69086091 -723.83568654 70.15042686 -722.75 68.625 C-720.8881881 66.00694698 -719.03269228 63.391366 -717.23828125 60.7265625 C-712.9577282 54.40052373 -708.11183961 48.85553458 -702.9375 43.25 C-701.68253625 41.8168314 -700.43213229 40.37965003 -699.1875 38.9375 C-696.55691894 35.91019558 -693.77361468 33.08611468 -690.9375 30.25 C-689.9475 28.765 -689.9475 28.765 -688.9375 27.25 C-682.9115821 26.62974444 -677.1003488 27.97938479 -671.19482422 29.11425781 C-670.13513428 29.31265762 -669.07544434 29.51105743 -667.98364258 29.71546936 C-664.48532702 30.37199831 -660.9887853 31.03751336 -657.4921875 31.703125 C-655.04153582 32.16491524 -652.5907792 32.62614893 -650.1399231 33.08685303 C-644.33835242 34.17882747 -638.53787315 35.27647344 -632.73789513 36.37686706 C-625.57766998 37.73496807 -618.41576497 39.0841371 -611.25390625 40.43359375 C-590.47763015 44.35064322 -569.70544456 48.28901877 -548.9375 52.25 C-548.38465332 51.41049805 -547.83180664 50.57099609 -547.26220703 49.70605469 C-543.32920894 43.74302677 -539.31897074 37.89280323 -534.9375 32.25 C-533.9475 32.58 -532.9575 32.91 -531.9375 33.25 C-531.94652344 33.82363281 -531.95554687 34.39726563 -531.96484375 34.98828125 C-531.63808506 44.35062818 -528.13809776 52.42039379 -524.78466797 61.03369141 C-522.74570929 66.36788935 -521.04482222 71.82289197 -519.28955078 77.25537109 C-506.52120372 116.25609629 -485.63813348 150.28907587 -458.9375 181.25 C-457.26308754 183.24370303 -455.5995862 185.24598194 -453.9375 187.25 C-450.70701252 185.8300745 -448.55507512 184.11380613 -446.07421875 181.6171875 C-445.35169922 180.89273438 -444.62917969 180.16828125 -443.88476562 179.421875 C-443.13904297 178.66390625 -442.39332031 177.9059375 -441.625 177.125 C-440.89087891 176.39023438 -440.15675781 175.65546875 -439.40039062 174.8984375 C-435.27200908 170.73708752 -431.33046156 166.47049267 -427.50317383 162.03173828 C-425.41910169 159.66006224 -423.19896986 157.4519575 -420.9375 155.25 C-417.38831843 151.7382345 -414.01781543 148.15991099 -410.7734375 144.3671875 C-408.5854383 141.84400545 -406.32456887 139.39445481 -404.0625 136.9375 C-400.02273434 132.50287003 -396.1599355 127.96905146 -392.3984375 123.296875 C-390.60893251 121.08129739 -388.80407933 118.88680326 -386.9765625 116.703125 C-375.57768603 103.00627144 -365.20863769 88.47325234 -355.9375 73.25 C-355.59412598 72.69570312 -355.25075195 72.14140625 -354.89697266 71.5703125 C-350.03649463 63.72281918 -345.61877918 55.80235257 -341.578125 47.50390625 C-339.27378204 42.93362605 -336.66141515 38.58032665 -333.9375 34.25 C-332.9475 34.58 -331.9575 34.91 -330.9375 35.25 C-330.8446875 36.3328125 -330.8446875 36.3328125 -330.75 37.4375 C-329.68918262 41.10956016 -327.67684833 42.64427842 -324.9375 45.25 C-324.23018571 46.56222281 -323.55436101 47.89290578 -322.9375 49.25 C-322.02532557 49.07017956 -321.11315115 48.89035912 -320.17333508 48.70508957 C-308.82636478 46.51769671 -297.43933027 44.75950072 -286.00708008 43.08300781 C-283.94964149 42.77892728 -281.89224419 42.47456727 -279.83488464 42.16995239 C-275.42983237 41.51833213 -271.02450127 40.86864355 -266.61893654 40.22049713 C-259.60239086 39.18818952 -252.58651936 38.15134878 -245.57072449 37.11395264 C-233.15838281 35.27917409 -220.74548298 33.44819454 -208.3324585 31.61804199 C-189.76512297 28.8804624 -171.19827435 26.13958589 -152.63187522 23.39566302 C-145.71014673 22.37284081 -138.78814909 21.3518668 -131.86592859 20.33238006 C-108.13338776 16.83586486 -84.41249897 13.27834146 -60.71501637 9.55080032 C-49.48236511 7.7856323 -38.24368137 6.09819371 -26.97869396 4.55057907 C-22.41987423 3.92058506 -18.16987102 3.07941418 -13.7890625 1.65625 C-9.09193054 0.16308493 -4.90166543 -0.14169223 0 0 Z M-298.9375 81.25 C-297.9375 83.25 -297.9375 83.25 -297.9375 83.25 Z M-295.9375 85.25 C-294.9375 87.25 -294.9375 87.25 -294.9375 87.25 Z " fill="#317176" transform="translate(939.9375,0.75)"/>
<path d="M0 0 C1.11084961 0.00773438 1.11084961 0.00773438 2.24414062 0.015625 C5.42875237 0.06173703 8.02367034 0.23705678 11.0625 1.25 C12.47946507 2.82054206 13.82356816 4.45746664 15.125 6.125 C18.32024361 10.13329587 21.58179973 13.98150392 25.0625 17.75 C29.15601091 22.19727112 32.98692499 26.79717463 36.78125 31.5 C39.12968968 34.33099578 41.57159902 37.04383598 44.0625 39.75 C48.22958116 44.27943605 52.15749616 48.95386651 56.02734375 53.73828125 C60.75723056 59.62603991 60.75723056 59.62603991 65.98266602 65.0625 C68.03743966 67.22364237 69.3228436 69.16731517 70.7265625 71.78515625 C71.20383789 72.6673584 71.68111328 73.54956055 72.17285156 74.45849609 C72.67268555 75.40031738 73.17251953 76.34213867 73.6875 77.3125 C74.21311523 78.29041504 74.73873047 79.26833008 75.28027344 80.27587891 C76.88238671 83.26304182 78.47364275 86.25576902 80.0625 89.25 C80.5255957 90.11834473 80.98869141 90.98668945 81.46582031 91.88134766 C84.36548387 97.3200893 87.2255607 102.77831417 90.0625 108.25 C90.39137207 108.8790625 90.72024414 109.508125 91.05908203 110.15625 C97.84897416 123.18161413 103.70463533 136.65185438 109.65405273 150.07495117 C110.51198821 152.00898669 111.37274137 153.94177964 112.23852539 155.87231445 C114.26789436 160.398629 116.17942488 164.94802289 118 169.5625 C121.0322968 177.20803467 124.18930112 184.79767863 127.37890625 192.37890625 C127.81074219 193.40886719 128.24257812 194.43882812 128.6875 195.5 C129.26371094 196.86898437 129.26371094 196.86898437 129.8515625 198.265625 C131.88737847 203.28292631 133.76490645 208.34917677 135.52734375 213.46875 C135.89182617 214.52642578 135.89182617 214.52642578 136.26367188 215.60546875 C136.75414681 217.03396075 137.24113474 218.46365483 137.72460938 219.89453125 C138.93928143 223.40073502 140.2459528 226.70368664 141.984375 229.984375 C144.78249875 235.4116842 146.50601563 241.20291833 148.375 247 C149.16538721 249.41448171 149.95706519 251.82854124 150.75 254.2421875 C151.13929688 255.4290918 151.52859375 256.61599609 151.9296875 257.83886719 C153.76834689 263.37545103 155.70920047 268.87506387 157.67895508 274.36621094 C159.2213647 278.70451022 160.60385788 283.05966771 161.90625 287.4765625 C164.38764893 295.63473272 167.79819021 303.3615842 171.25976562 311.14453125 C174.20019599 318.06272155 175.67350026 323.94061749 175.8046875 331.47802734 C176.14903552 335.18042071 177.56512403 337.27722014 179.7265625 340.20703125 C181.87419254 343.49127251 182.93971694 347.1263694 184.16796875 350.83203125 C185.03265407 353.45607128 185.03265407 353.45607128 187.0625 356.25 C187.49926874 357.63357067 187.88958052 359.03210592 188.25 360.4375 C189.8508896 366.0406136 192.14924086 371.24413318 194.54956055 376.53979492 C199.89970337 388.39271195 199.89970337 388.39271195 199.0625 393.25 C197.49279549 395.53650599 195.97158967 397.45955806 194.125 399.5 C193.33331421 400.39658325 193.33331421 400.39658325 192.52563477 401.3112793 C182.24160226 412.79082138 171.38596228 423.95518523 159.0625 433.25 C158.54107422 433.6531543 158.01964844 434.05630859 157.48242188 434.47167969 C114.7060007 467.50816256 65.57795326 482.33007598 13.16955566 491.86090088 C11.13535911 492.23654548 9.10528012 492.62966496 7.07519531 493.02685547 C-4.46323766 495.23746803 -16.0697183 496.43548548 -27.75830078 497.55761719 C-31.06484603 497.87522535 -34.37033512 498.20241805 -37.67578125 498.53125 C-67.36579871 501.45928569 -67.36579871 501.45928569 -81.875 501.3125 C-82.76123047 501.30798828 -83.64746094 501.30347656 -84.56054688 501.29882812 C-86.68622917 501.28733795 -88.81187537 501.26942195 -90.9375 501.25 C-93.91291198 494.32400148 -96.08079064 487.43880474 -97.875 480.125 C-100.25677266 470.7147738 -102.95079728 461.48251103 -105.9375 452.25 C-106.88458936 449.2079356 -107.82757795 446.16464057 -108.76831055 443.12060547 C-110.22697516 438.43773254 -111.74914948 433.77790253 -113.2890625 429.12109375 C-113.91961323 427.20152559 -114.54928157 425.28167048 -115.17858887 423.36169434 C-115.80571601 421.45809234 -116.44235951 419.55763404 -117.07910156 417.65722656 C-117.46291992 416.48514648 -117.84673828 415.31306641 -118.2421875 414.10546875 C-118.59265137 413.04996826 -118.94311523 411.99446777 -119.30419922 410.90698242 C-119.9375 408.25 -119.9375 408.25 -118.9375 405.25 C-117.9475 407.89 -116.9575 410.53 -115.9375 413.25 C-116.205625 411.92097656 -116.47375 410.59195312 -116.75 409.22265625 C-119.47897961 395.65654765 -122.15892943 382.08103266 -124.8125 368.5 C-124.98403595 367.62228943 -125.1555719 366.74457886 -125.33230591 365.840271 C-127.14758029 356.54343286 -128.94876333 347.24434684 -130.69140625 337.93359375 C-130.83107315 337.18751358 -130.97074005 336.44143341 -131.11463928 335.67274475 C-131.39491664 334.17497104 -131.6751749 332.67719375 -131.95541382 331.17941284 C-132.09387726 330.4395816 -132.2323407 329.69975037 -132.375 328.9375 C-132.51386627 328.19549347 -132.65273254 327.45348694 -132.79580688 326.68899536 C-135.40185515 312.79738372 -138.22445211 298.95373161 -141.08358765 285.11227417 C-143.80450727 271.93227769 -146.42081892 258.74085865 -148.82250977 245.4987793 C-150.19551377 237.98313719 -151.70729131 230.50710064 -153.28125 223.03125 C-155.83043176 210.90900592 -158.1821174 198.75293701 -160.50326538 186.58526611 C-164.60176684 165.10985698 -168.82665138 143.66610325 -173.29589844 122.26464844 C-173.47568741 121.39889191 -173.65547638 120.53313538 -173.8407135 119.6411438 C-174.17319327 118.04120012 -174.50817082 116.44177253 -174.84617615 114.84298706 C-175.45337897 111.91837528 -175.9375 109.24644846 -175.9375 106.25 C-175.34536713 106.23382629 -174.75323425 106.21765259 -174.14315796 106.20098877 C-123.71756108 104.80019425 -75.16716394 100.54188002 -25.9375 89.25 C-26.80930908 89.42595703 -27.68111816 89.60191406 -28.5793457 89.78320312 C-64.95952051 97.09599297 -100.69283639 102.69535711 -137.88085938 103.85546875 C-139.55051758 103.91154297 -139.55051758 103.91154297 -141.25390625 103.96875 C-142.22787354 103.99904297 -143.20184082 104.02933594 -144.20532227 104.06054688 C-147.4673746 104.22613545 -150.70178288 104.48348773 -153.95556641 104.76147461 C-161.08966206 105.32114965 -168.17919443 105.37730127 -175.33203125 105.34765625 C-176.64539963 105.3462413 -177.95876801 105.34482635 -179.31193542 105.34336853 C-182.75593063 105.3396019 -186.19988174 105.32982378 -189.64385986 105.31866455 C-193.17728072 105.30832243 -196.7107089 105.30384386 -200.24414062 105.29882812 C-207.14194487 105.28819446 -214.0397203 105.27119111 -220.9375 105.25 C-220.9375 104.59 -220.9375 103.93 -220.9375 103.25 C-222.84208984 103.35828125 -222.84208984 103.35828125 -224.78515625 103.46875 C-242.59782714 104.44655045 -260.1306005 104.16755437 -277.9375 103.25 C-277.9375 102.59 -277.9375 101.93 -277.9375 101.25 C-282.8875 101.25 -287.8375 101.25 -292.9375 101.25 C-292.83984375 99.00390625 -292.7421875 96.7578125 -292.64453125 94.51171875 C-293.004481 91.73290667 -293.90130659 91.0768162 -295.9375 89.25 C-296.27083333 87.58333333 -296.60416667 85.91666667 -296.9375 84.25 C-298.1863427 82.6666747 -298.1863427 82.6666747 -299.9375 81.25 C-304.12489079 77.27197875 -307.09834764 73.76745707 -308.9375 68.25 C-309.5975 67.59 -310.2575 66.93 -310.9375 66.25 C-311.5975 65.59 -312.2575 64.93 -312.9375 64.25 C-313.5975 63.92 -314.2575 63.59 -314.9375 63.25 C-314.9375 62.26 -314.9375 61.27 -314.9375 60.25 C-315.9275 59.92 -316.9175 59.59 -317.9375 59.25 C-317.9375 58.26 -317.9375 57.27 -317.9375 56.25 C-318.5975 55.59 -319.2575 54.93 -319.9375 54.25 C-320.94991685 52.92607028 -321.95189389 51.59400833 -322.9375 50.25 C-320.00520235 48.2951349 -318.80734679 47.88839306 -315.45666981 47.39317608 C-314.07176152 47.18282444 -314.07176152 47.18282444 -312.65887529 46.96822327 C-311.64277655 46.82182162 -310.62667781 46.67541997 -309.57978821 46.52458191 C-308.50132745 46.36305879 -307.4228667 46.20153568 -306.31172532 46.03511792 C-302.67931177 45.49298064 -299.04538445 44.96175971 -295.41137695 44.43041992 C-292.81254496 44.0448101 -290.21381265 43.6585279 -287.61517334 43.2716217 C-282.00440333 42.4373158 -276.39283455 41.60856994 -270.78069496 40.78352928 C-262.63158175 39.58549412 -254.4837715 38.37878402 -246.33625533 37.16994134 C-233.07163026 35.20209227 -219.80603597 33.24085873 -206.53979492 31.28393555 C-193.73142916 29.39453621 -180.92341925 27.50275876 -168.1159668 25.60717773 C-167.33134606 25.49105037 -166.54672532 25.37492301 -165.7383282 25.25527664 C-157.13218426 23.98147142 -148.52611885 22.70713602 -139.92006969 21.43269062 C-137.61964368 21.09203753 -135.31921697 20.75138906 -133.01878945 20.41074612 C-131.49954944 20.18577759 -129.9803106 19.96080117 -128.46107294 19.73581675 C-118.17895774 18.21318552 -107.89641522 16.69347342 -97.61355828 15.17586 C-83.08313034 13.03126065 -68.55408681 10.87753609 -54.02699709 8.71041822 C-51.13655413 8.27966442 -48.24587685 7.85052148 -45.35512924 7.42181778 C-41.46533797 6.84420255 -37.57670965 6.25943619 -33.68916929 5.66686308 C-31.80665748 5.38128211 -29.92312948 5.10242306 -28.03954792 4.8239851 C-22.21645609 3.92489764 -16.71419268 2.74405172 -11.12468433 0.8639555 C-7.4311225 -0.17284902 -3.80770579 -0.11006918 0 0 Z " fill="#DB6E42" transform="translate(939.9375,0.75)"/>
<path d="M0 0 C0.99 0.33 1.98 0.66 3 1 C2.99097656 1.57363281 2.98195313 2.14726563 2.97265625 2.73828125 C3.29941494 12.10062818 6.79940224 20.17039379 10.15283203 28.78369141 C12.19179071 34.11788935 13.89267778 39.57289197 15.64794922 45.00537109 C28.41629628 84.00609629 49.29936652 118.03907587 76 149 C77.67441246 150.99370303 79.3379138 152.99598194 81 155 C84.23048748 153.5800745 86.38242488 151.86380613 88.86328125 149.3671875 C89.58580078 148.64273438 90.30832031 147.91828125 91.05273438 147.171875 C91.79845703 146.41390625 92.54417969 145.6559375 93.3125 144.875 C94.04662109 144.14023438 94.78074219 143.40546875 95.53710938 142.6484375 C99.66549092 138.48708752 103.60703844 134.22049267 107.43432617 129.78173828 C109.51839831 127.41006224 111.73853014 125.2019575 114 123 C117.54918157 119.4882345 120.91968457 115.90991099 124.1640625 112.1171875 C126.3520617 109.59400545 128.61293113 107.14445481 130.875 104.6875 C134.91476566 100.25287003 138.7775645 95.71905146 142.5390625 91.046875 C144.32856749 88.83129739 146.13342067 86.63680326 147.9609375 84.453125 C159.35981397 70.75627144 169.72886231 56.22325234 179 41 C179.34337402 40.44570312 179.68674805 39.89140625 180.04052734 39.3203125 C184.90100537 31.47281918 189.31872082 23.55235257 193.359375 15.25390625 C195.66371796 10.68362605 198.27608485 6.33032665 201 2 C201.99 2.33 202.98 2.66 204 3 C204.061875 3.721875 204.12375 4.44375 204.1875 5.1875 C205.24831738 8.85956016 207.26065167 10.39427842 210 13 C210.70151152 14.3153341 211.36525925 15.65117592 212 17 C213.29641348 18.79598682 214.62454913 20.56191491 215.9765625 22.31640625 C217 24 217 24 217 27 C217.99 27.33 218.98 27.66 220 28 C220.33 28.99 220.66 29.98 221 31 C221.7425 31.721875 222.485 32.44375 223.25 33.1875 C225.46561043 35.45346521 226.75479294 37.09397746 228.3125 39.75 C230.7965289 43.93487671 233.87561095 47.31540954 237.23046875 50.82421875 C239.1094406 53.13456603 239.95790868 55.23180146 241 58 C241.66 58.66 242.32 59.32 243 60 C242.96712417 62.72869407 242.43602229 65.2966618 242 68 C241.01 68 240.02 68 239 68 C238.74089844 69.22783203 238.74089844 69.22783203 238.4765625 70.48046875 C227.25654238 119.32358385 203.10285688 162.85218104 171 201 C160.90882638 197.90009699 160.90882638 197.90009699 157 195 C157 194.34 157 193.68 157 193 C156.22003662 192.77562256 155.44007324 192.55124512 154.63647461 192.32006836 C149.80928178 190.56776009 145.36964655 188.24189246 140.81640625 185.87890625 C139.84267563 185.37834213 138.86894501 184.87777802 137.8657074 184.36204529 C134.76254684 182.76621982 131.66233123 181.1647817 128.5625 179.5625 C125.46590691 177.9644527 122.36867556 176.36768045 119.27000427 174.77366638 C117.3454247 173.78338291 115.42207115 172.79071193 113.50013733 171.79530334 C108.7304706 169.33859881 103.96409247 167.03699699 99 165 C98.98279907 165.56785217 98.96559814 166.13570435 98.94787598 166.72076416 C98.24938094 188.95943832 97.04486724 211.17021946 95.84326172 233.38623047 C95.55381511 238.7396016 95.26932133 244.09322373 94.98607635 249.44692612 C94.76520374 253.60949443 94.54144799 257.77190402 94.31684875 261.93427277 C94.21063768 263.91010655 94.10538703 265.88599223 94.00114441 267.86193085 C93.85595926 270.60701759 93.7068032 273.35186132 93.55664062 276.09667969 C93.51505325 276.89871323 93.47346588 277.70074677 93.43061829 278.52708435 C93.17724058 283.07047678 92.71045552 287.50470502 92 292 C81.27873758 292.14045322 70.69727581 291.70899397 60 291 C59.91103571 277.24808539 60.17786906 263.5294334 60.62109375 249.78515625 C60.68612967 247.71114121 60.75099118 245.6371207 60.81568909 243.56309509 C60.9507801 239.25448282 61.08800656 234.94594551 61.22680664 230.63745117 C61.40355847 225.14527122 61.57478423 219.65293502 61.74441433 214.16053104 C61.87686537 209.89227621 62.01228615 205.62411944 62.14857674 201.35598564 C62.21287469 199.33123086 62.27626404 197.30644698 62.33868217 195.28163338 C62.65214925 185.16348778 62.96776746 175.07661819 64 165 C59.67938672 165.7758541 56.08295976 167.23042515 52.171875 169.17578125 C51.51347626 169.49737213 50.85507751 169.81896301 50.17672729 170.15029907 C48.0319115 171.19920296 45.89104238 172.25591843 43.75 173.3125 C42.2703482 174.03721115 40.79036486 174.76124576 39.31005859 175.48461914 C36.3153998 176.94831443 33.32185979 178.41425888 30.32910156 179.88183594 C24.10824084 182.9292322 17.86873684 185.93728098 11.625 188.9375 C10.58698242 189.43870361 9.54896484 189.93990723 8.47949219 190.45629883 C7.52977539 190.91286865 6.58005859 191.36943848 5.6015625 191.83984375 C4.77994629 192.23550537 3.95833008 192.63116699 3.11181641 193.03881836 C1 194 1 194 -2 195 C-25.48801204 155.77320113 -37.06632735 114.97255969 -40.76733398 69.3527832 C-40.97112297 66.99662309 -40.97112297 66.99662309 -41.4050293 64.67407227 C-42.11350962 60.59416825 -41.2895186 58.44869615 -39.0390625 54.9609375 C-36.71393412 51.90408149 -34.22825947 48.98751198 -31.73388672 46.06835938 C-28.52323653 42.23836382 -25.49350414 38.26609123 -22.4375 34.3125 C-21.83019043 33.53398682 -21.22288086 32.75547363 -20.59716797 31.95336914 C-20.02756348 31.22239014 -19.45795898 30.49141113 -18.87109375 29.73828125 C-18.36505615 29.08899658 -17.85901855 28.43971191 -17.33764648 27.77075195 C-15.46579736 25.29283232 -14.06536967 23.21388231 -13.15234375 20.2265625 C-11.82235493 16.50259382 -9.85802193 13.54942128 -7.5625 10.375 C-7.16740234 9.81554688 -6.77230469 9.25609375 -6.36523438 8.6796875 C-4.28986456 5.75137867 -2.16903827 2.85950383 0 0 Z " fill="#2C415E" transform="translate(405,33)"/>
<path d="M0 0 C1.11084961 0.00773438 1.11084961 0.00773438 2.24414062 0.015625 C5.42875237 0.06173703 8.02367034 0.23705678 11.0625 1.25 C12.47946507 2.82054206 13.82356816 4.45746664 15.125 6.125 C18.32024361 10.13329587 21.58179973 13.98150392 25.0625 17.75 C29.15601091 22.19727112 32.98692499 26.79717463 36.78125 31.5 C39.12968968 34.33099578 41.57159902 37.04383598 44.0625 39.75 C50.08047786 46.29372943 55.77248758 53.10267914 61.0625 60.25 C53.59074757 62.18234977 53.59074757 62.18234977 50.1953125 62.6171875 C46.55725364 63.35205724 43.84070389 64.70265612 40.5625 66.4375 C30.768928 71.48735145 21.03383816 76.19667949 10.171875 78.4140625 C7.43384536 79.15016594 5.01322316 80.05913847 2.40234375 81.14453125 C-3.00217948 83.35551838 -8.4705235 84.88249947 -14.125 86.3125 C-15.05119141 86.55548828 -15.97738281 86.79847656 -16.93164062 87.04882812 C-24.19736788 88.918575 -31.51607697 90.43029017 -38.88131714 91.85250854 C-41.00181668 92.26243339 -43.12117247 92.67794626 -45.24047852 93.09399414 C-76.02761972 99.11184258 -106.48554946 102.87606567 -137.88085938 103.85546875 C-139.55051758 103.91154297 -139.55051758 103.91154297 -141.25390625 103.96875 C-142.22787354 103.99904297 -143.20184082 104.02933594 -144.20532227 104.06054688 C-147.4673746 104.22613545 -150.70178288 104.48348773 -153.95556641 104.76147461 C-161.08966206 105.32114965 -168.17919443 105.37730127 -175.33203125 105.34765625 C-176.64539963 105.3462413 -177.95876801 105.34482635 -179.31193542 105.34336853 C-182.75593063 105.3396019 -186.19988174 105.32982378 -189.64385986 105.31866455 C-193.17728072 105.30832243 -196.7107089 105.30384386 -200.24414062 105.29882812 C-207.14194487 105.28819446 -214.0397203 105.27119111 -220.9375 105.25 C-220.9375 104.59 -220.9375 103.93 -220.9375 103.25 C-222.84208984 103.35828125 -222.84208984 103.35828125 -224.78515625 103.46875 C-242.59782714 104.44655045 -260.1306005 104.16755437 -277.9375 103.25 C-277.9375 102.59 -277.9375 101.93 -277.9375 101.25 C-282.8875 101.25 -287.8375 101.25 -292.9375 101.25 C-292.83984375 99.00390625 -292.7421875 96.7578125 -292.64453125 94.51171875 C-293.004481 91.73290667 -293.90130659 91.0768162 -295.9375 89.25 C-296.27083333 87.58333333 -296.60416667 85.91666667 -296.9375 84.25 C-298.1863427 82.6666747 -298.1863427 82.6666747 -299.9375 81.25 C-304.12489079 77.27197875 -307.09834764 73.76745707 -308.9375 68.25 C-309.5975 67.59 -310.2575 66.93 -310.9375 66.25 C-311.5975 65.59 -312.2575 64.93 -312.9375 64.25 C-313.5975 63.92 -314.2575 63.59 -314.9375 63.25 C-314.9375 62.26 -314.9375 61.27 -314.9375 60.25 C-315.9275 59.92 -316.9175 59.59 -317.9375 59.25 C-317.9375 58.26 -317.9375 57.27 -317.9375 56.25 C-318.5975 55.59 -319.2575 54.93 -319.9375 54.25 C-320.94991685 52.92607028 -321.95189389 51.59400833 -322.9375 50.25 C-320.00520235 48.2951349 -318.80734679 47.88839306 -315.45666981 47.39317608 C-314.07176152 47.18282444 -314.07176152 47.18282444 -312.65887529 46.96822327 C-311.64277655 46.82182162 -310.62667781 46.67541997 -309.57978821 46.52458191 C-308.50132745 46.36305879 -307.4228667 46.20153568 -306.31172532 46.03511792 C-302.67931177 45.49298064 -299.04538445 44.96175971 -295.41137695 44.43041992 C-292.81254496 44.0448101 -290.21381265 43.6585279 -287.61517334 43.2716217 C-282.00440333 42.4373158 -276.39283455 41.60856994 -270.78069496 40.78352928 C-262.63158175 39.58549412 -254.4837715 38.37878402 -246.33625533 37.16994134 C-233.07163026 35.20209227 -219.80603597 33.24085873 -206.53979492 31.28393555 C-193.73142916 29.39453621 -180.92341925 27.50275876 -168.1159668 25.60717773 C-167.33134606 25.49105037 -166.54672532 25.37492301 -165.7383282 25.25527664 C-157.13218426 23.98147142 -148.52611885 22.70713602 -139.92006969 21.43269062 C-137.61964368 21.09203753 -135.31921697 20.75138906 -133.01878945 20.41074612 C-131.49954944 20.18577759 -129.9803106 19.96080117 -128.46107294 19.73581675 C-118.17895774 18.21318552 -107.89641522 16.69347342 -97.61355828 15.17586 C-83.08313034 13.03126065 -68.55408681 10.87753609 -54.02699709 8.71041822 C-51.13655413 8.27966442 -48.24587685 7.85052148 -45.35512924 7.42181778 C-41.46533797 6.84420255 -37.57670965 6.25943619 -33.68916929 5.66686308 C-31.80665748 5.38128211 -29.92312948 5.10242306 -28.03954792 4.8239851 C-22.21645609 3.92489764 -16.71419268 2.74405172 -11.12468433 0.8639555 C-7.4311225 -0.17284902 -3.80770579 -0.11006918 0 0 Z " fill="#D2D2D2" transform="translate(939.9375,0.75)"/>
<path d="M0 0 C1.12832357 2.54023648 2.25273428 5.08208838 3.375 7.625 C3.69210937 8.33785156 4.00921875 9.05070312 4.3359375 9.78515625 C9.82049232 22.23966616 9.82049232 22.23966616 9 27 C7.43029549 29.28650599 5.90908967 31.20955806 4.0625 33.25 C3.53470947 33.84772217 3.00691895 34.44544434 2.46313477 35.0612793 C-7.82089774 46.54082138 -18.67653772 57.70518523 -31 67 C-31.52142578 67.4031543 -32.04285156 67.80630859 -32.58007812 68.22167969 C-75.3564993 101.25816256 -124.48454674 116.08007598 -176.89294434 125.61090088 C-178.92714089 125.98654548 -180.95721988 126.37966496 -182.98730469 126.77685547 C-194.52573766 128.98746803 -206.1322183 130.18548548 -217.82080078 131.30761719 C-221.12734603 131.62522535 -224.43283512 131.95241805 -227.73828125 132.28125 C-257.42829871 135.20928569 -257.42829871 135.20928569 -271.9375 135.0625 C-272.82373047 135.05798828 -273.70996094 135.05347656 -274.62304688 135.04882812 C-276.74872917 135.03733795 -278.87437537 135.01942195 -281 135 C-287 120.52427184 -287 120.52427184 -287 114 C-285.77543091 113.90295776 -285.77543091 113.90295776 -284.52612305 113.80395508 C-200.94236177 107.03944783 -115.36535665 90.4933929 -4.25 2.1484375 C-2 0 -2 0 0 0 Z " fill="#C3572B" transform="translate(1130,367)"/>
<path d="M0 0 C11.55 0 23.1 0 35 0 C34.22968667 22.45288288 33.05407219 44.87799774 31.84326172 67.31079102 C31.55400675 72.67204795 31.26946352 78.03354405 30.98607635 83.39511395 C30.76518225 87.56197217 30.54142839 91.72867318 30.31684875 95.89533424 C30.21062217 97.87395836 30.10537156 99.85263514 30.00114441 101.83136559 C29.8559499 104.58135016 29.70679232 107.33109279 29.55664062 110.08081055 C29.51505325 110.88441513 29.47346588 111.68801971 29.43061829 112.51597595 C29.17751257 117.06320029 28.7112846 121.50097561 28 126 C17.27873758 126.14045322 6.69727581 125.70899397 -4 125 C-4.08907244 111.2364089 -3.82182549 97.50597127 -3.37890625 83.75 C-3.31387511 81.67358918 -3.24901348 79.59717304 -3.18431091 77.52075195 C-3.04922849 73.20794328 -2.91199598 68.89521002 -2.77319336 64.58251953 C-2.5963308 59.08127598 -2.42515089 53.57987238 -2.25558567 48.07839966 C-2.12323621 43.80589295 -1.98778374 39.53348881 -1.85142326 35.2611084 C-1.78706873 33.23273775 -1.7236799 31.2043362 -1.66131783 29.17590332 C-1.57368052 26.33981383 -1.48181724 23.50389008 -1.38891602 20.66796875 C-1.36445908 19.84904648 -1.34000214 19.03012421 -1.31480408 18.18638611 C-1.10801698 12.07216178 -0.5564925 6.12141747 0 0 Z " fill="#1E565E" transform="translate(469,199)"/>
<path d="M0 0 C3.75310882 1.55765927 6.09417913 3.8779944 8.921875 6.76171875 C9.61739471 7.46504082 9.61739471 7.46504082 10.32696533 8.18257141 C11.80617025 9.67951598 13.27852701 11.18295749 14.75 12.6875 C20.41989279 18.46592103 26.05860359 24.21102269 32.22119141 29.47290039 C34.9970686 31.85597915 37.64463423 34.37261264 40.3125 36.875 C45.13236077 41.35867269 50.07503978 45.6162423 55.2109375 49.73828125 C57.68692248 51.74611781 60.11416657 53.80065498 62.5300293 55.88012695 C70.75236038 62.94204334 79.3173781 69.51643648 88 76 C88.69689941 76.52319824 89.39379883 77.04639648 90.11181641 77.58544922 C110.45340061 92.79778753 132.10881776 105.89841285 154.18798828 118.40673828 C157.39116648 120.22163157 160.58636253 122.05015201 163.78051758 123.88085938 C166.18462974 125.25809265 168.59197808 126.62961661 171 128 C169.9352129 130.00993521 168.84756779 132.0077761 167.75 134 C167.14671875 135.11375 166.5434375 136.2275 165.921875 137.375 C165.28765625 138.24125 164.6534375 139.1075 164 140 C162.68 140 161.36 140 160 140 C159.67 139.34 159.34 138.68 159 138 C157.31928258 137.2284251 155.60298679 136.53393896 153.875 135.875 C146.26400885 132.80167816 139.16083816 128.98689901 132 125 C131.06027344 124.47921875 130.12054688 123.9584375 129.15234375 123.421875 C109.10634867 111.99998428 90.03993742 98.93694844 71.67578125 84.99609375 C69.23962439 83.1787563 66.76484008 81.45575389 64.25 79.75 C57.48552871 75.06606658 51.20895163 69.75675604 44.86425781 64.52783203 C43.27182205 63.22276877 41.66470208 61.93565776 40.0546875 60.65234375 C32.61374174 54.71069303 25.73269282 48.23380272 18.81494141 41.70166016 C16.15472497 39.20748359 13.45222755 36.76094927 10.75 34.3125 C7.75562353 31.58887012 4.81459822 28.84199042 1.98828125 25.9453125 C1.49682617 25.44217529 1.00537109 24.93903809 0.49902344 24.4206543 C-0.85124169 23.02655834 -2.18971504 21.6210688 -3.52734375 20.21484375 C-5.97843831 18.01931355 -7.88841979 16.98524096 -11 16 C-10.2575 15.319375 -9.515 14.63875 -8.75 13.9375 C-4.76434691 9.96313772 -2.41977757 5.04120328 0 0 Z " fill="#D96E42" transform="translate(60,350)"/>
<path d="M0 0 C5.28 0 10.56 0 16 0 C16 8.25 16 16.5 16 25 C21.61 25 27.22 25 33 25 C33 16.75 33 8.5 33 0 C38.28 0 43.56 0 49 0 C49.09040077 7.88433757 49.16377239 15.76827166 49.20724869 23.65298843 C49.2281161 27.31426511 49.25641706 30.97516858 49.30175781 34.63623047 C49.34524763 38.16998711 49.36914348 41.70338499 49.37950897 45.23738861 C49.39048737 47.24051252 49.42170876 49.24349226 49.45318604 51.24639893 C49.45348816 52.46736267 49.45379028 53.68832642 49.45410156 54.94628906 C49.46298401 56.02106506 49.47186646 57.09584106 49.48101807 58.20318604 C49 61 49 61 45 65 C41.04 65 37.08 65 33 65 C33 56.42 33 47.84 33 39 C27.39 39 21.78 39 16 39 C16 47.58 16 56.16 16 65 C10.72 65 5.44 65 0 65 C0 43.55 0 22.1 0 0 Z " fill="#FCFDFD" transform="translate(689,307)"/>
<path d="M0 0 C0.88076706 0.00707474 1.76153412 0.01414948 2.66899109 0.0214386 C5.4716116 0.04934277 8.2722061 0.11207182 11.07421875 0.17578125 C12.97848669 0.20086935 14.88278607 0.22368163 16.78710938 0.24414062 C21.44608859 0.29915622 26.10356064 0.38539974 30.76171875 0.48828125 C30.76171875 5.10828125 30.76171875 9.72828125 30.76171875 14.48828125 C21.19171875 14.48828125 11.62171875 14.48828125 1.76171875 14.48828125 C1.76171875 18.11828125 1.76171875 21.74828125 1.76171875 25.48828125 C10.01171875 25.48828125 18.26171875 25.48828125 26.76171875 25.48828125 C26.76171875 30.43828125 26.76171875 35.38828125 26.76171875 40.48828125 C18.84171875 40.48828125 10.92171875 40.48828125 2.76171875 40.48828125 C2.76171875 44.11828125 2.76171875 47.74828125 2.76171875 51.48828125 C12.00171875 51.48828125 21.24171875 51.48828125 30.76171875 51.48828125 C30.76171875 60.48828125 30.76171875 60.48828125 28.88671875 63.48828125 C24.92498254 67.21697416 21.21155431 66.61763933 16.03515625 66.5859375 C14.74093246 66.58381508 14.74093246 66.58381508 13.42056274 66.58164978 C10.65924645 66.57604313 7.89801063 66.56348952 5.13671875 66.55078125 C3.26692825 66.54576711 1.39713649 66.54120405 -0.47265625 66.53710938 C-5.06122902 66.52607154 -9.64974148 66.50880245 -14.23828125 66.48828125 C-14.35426275 58.62136908 -14.44304018 50.75465811 -14.49734211 42.88710499 C-14.5234082 39.23359232 -14.55874901 35.58066565 -14.61547852 31.92749023 C-14.6699089 28.40019177 -14.69972427 24.87345598 -14.71266747 21.34576988 C-14.72636764 19.34871723 -14.76538419 17.35189019 -14.80476379 15.35517883 C-14.80751533 6.45996383 -14.80751533 6.45996383 -12.28515625 2.15429688 C-8.07294072 -0.14892098 -4.72783716 -0.14368408 0 0 Z " fill="#F6F9F9" transform="translate(651.23828125,306.51171875)"/>
<path d="M0 0 C1.07765625 0.03609375 2.1553125 0.0721875 3.265625 0.109375 C4.49539063 0.17898438 4.49539063 0.17898438 5.75 0.25 C5.75879936 1.07899055 5.75879936 1.07899055 5.76777649 1.92472839 C5.83177822 7.68395947 5.91621516 13.44263526 6.01245117 19.20141602 C6.04567746 21.34977898 6.07371653 23.49822875 6.09643555 25.64672852 C6.13002331 28.73751776 6.18234221 31.82751312 6.23828125 34.91796875 C6.24467117 35.87648239 6.2510611 36.83499603 6.25764465 37.82255554 C6.36504317 42.70876444 6.44512423 46.35009557 9.75 50.25 C11.91070606 50.96243465 11.91070606 50.96243465 14.25 50.75 C15.0234375 50.7396875 15.796875 50.729375 16.59375 50.71875 C19.22297404 50.14717956 20.11792822 49.35975133 21.75 47.25 C22.67056715 44.48829856 22.89800149 42.72821145 22.95532227 39.87036133 C22.97526749 38.98967484 22.99521271 38.10898834 23.01576233 37.20161438 C23.04083107 35.78117073 23.04083107 35.78117073 23.06640625 34.33203125 C23.08718735 33.35965012 23.10796844 32.38726898 23.12937927 31.38542175 C23.19478748 28.27785335 23.25371929 25.17020015 23.3125 22.0625 C23.35569351 19.95637142 23.39930807 17.85025144 23.44335938 15.74414062 C23.55045999 10.57951409 23.65175219 5.41480222 23.75 0.25 C29.03 0.25 34.31 0.25 39.75 0.25 C39.87430166 6.76034714 39.96467094 13.26999201 40.0246582 19.78125 C40.04968484 21.99263555 40.0837169 24.20393937 40.12719727 26.41503906 C40.18837176 29.60762791 40.21632914 32.79911613 40.23828125 35.9921875 C40.26408768 36.96864227 40.2898941 37.94509705 40.31648254 38.95114136 C40.31960535 46.72575254 38.32752292 53.31539273 33.00923157 59.16452026 C26.36026345 65.3608537 19.98461234 66.90302379 11.0390625 66.65625 C3.92528796 65.77758901 -1.32414447 62.880968 -5.75 57.25 C-10.067214 51.02517982 -10.56811946 45.67541685 -10.5859375 38.27734375 C-10.5925943 37.31727921 -10.5992511 36.35721466 -10.60610962 35.36805725 C-10.61621323 33.34329133 -10.62092735 31.31849227 -10.62060547 29.29370117 C-10.62498996 26.19459558 -10.66136489 23.09690177 -10.69921875 19.99804688 C-10.70508508 18.0286507 -10.7090557 16.05924777 -10.7109375 14.08984375 C-10.72530853 13.16372787 -10.73967957 12.237612 -10.75448608 11.28343201 C-10.70961358 4.97928551 -10.70961358 4.97928551 -8.61181641 1.65063477 C-5.55205982 -0.16390147 -3.53424366 -0.15366277 0 0 Z " fill="#FBFCFC" transform="translate(591.25,306.75)"/>
<path d="M0 0 C-26.97202567 6.17183726 -53.90718158 11.29089568 -81.4375 14.25 C-82.19790588 14.33317474 -82.95831177 14.41634949 -83.74176025 14.50204468 C-109.2082929 17.24936972 -134.6945536 17.13429419 -160.27355957 17.06866455 C-164.76635254 17.0582679 -169.25915149 17.05383263 -173.75195312 17.04882812 C-182.50131803 17.03823761 -191.25065455 17.02126659 -200 17 C-200 16.34 -200 15.68 -200 15 C-205.94 15 -211.88 15 -218 15 C-218 15.66 -218 16.32 -218 17 C-230.87 16.34 -243.74 15.68 -257 15 C-257 14.34 -257 13.68 -257 13 C-261.62 13 -266.24 13 -271 13 C-271 12.67 -271 12.34 -271 12 C-266.05 12 -261.1 12 -256 12 C-256 12.66 -256 13.32 -256 14 C-237.19 14 -218.38 14 -199 14 C-199 14.66 -199 15.32 -199 16 C-191.4014165 15.89164315 -183.80290923 15.77885228 -176.20447254 15.66066074 C-172.67483504 15.60589202 -169.14518891 15.55255506 -165.61547852 15.50268555 C-161.54175357 15.44506322 -157.46815385 15.38086216 -153.39453125 15.31640625 C-152.1492012 15.29969376 -150.90387115 15.28298126 -149.62080383 15.26576233 C-142.69427257 15.15066158 -135.83062396 14.82833811 -128.92858887 14.22822571 C-124.91572592 13.91550223 -120.90626845 13.81390906 -116.88354492 13.70947266 C-89.32758954 12.9811585 -60.98861979 10.84370239 -34.08203125 4.68359375 C-30.13009531 3.80705536 -26.15765406 3.1724536 -22.16015625 2.54296875 C-19.77502652 2.13316278 -17.42389211 1.68006674 -15.05859375 1.17578125 C-14.38497803 1.03333984 -13.7113623 0.89089844 -13.01733398 0.74414062 C-11.09338678 0.33248158 -9.17162693 -0.08936116 -7.25 -0.51171875 C-4.21443795 -0.96778276 -2.83873293 -0.83812047 0 0 Z " fill="#64898A" transform="translate(918,90)"/>
<path d="M0 0 C3.6875 0.4375 3.6875 0.4375 6.625 2.4375 C9.47867716 6.58830314 9.3974846 8.4676078 8.6875 13.4375 C7.1875 15.9375 7.1875 15.9375 4.6875 17.4375 C0.63556323 18.23460231 -2.28078847 18.12530769 -5.75 15.8125 C-7.68481132 12.8715868 -8.24059193 10.96099544 -8.3125 7.4375 C-6.29102066 3.20201949 -4.80866707 0.63510697 0 0 Z " fill="#010101" transform="translate(482.3125,288.5625)"/>
<path d="M0 0 C3.6875 0.4375 3.6875 0.4375 6.625 2.4375 C9.47867716 6.58830314 9.3974846 8.4676078 8.6875 13.4375 C7.1875 15.9375 7.1875 15.9375 4.6875 17.4375 C0.63556323 18.23460231 -2.28078847 18.12530769 -5.75 15.8125 C-7.68481132 12.8715868 -8.24059193 10.96099544 -8.3125 7.4375 C-6.29102066 3.20201949 -4.80866707 0.63510697 0 0 Z " fill="#010101" transform="translate(482.3125,254.5625)"/>
<path d="M0 0 C3.6875 0.4375 3.6875 0.4375 6.625 2.4375 C9.47867716 6.58830314 9.3974846 8.4676078 8.6875 13.4375 C7.1875 15.9375 7.1875 15.9375 4.6875 17.4375 C0.63556323 18.23460231 -2.28078847 18.12530769 -5.75 15.8125 C-7.68481132 12.8715868 -8.24059193 10.96099544 -8.3125 7.4375 C-6.29102066 3.20201949 -4.80866707 0.63510697 0 0 Z " fill="#010101" transform="translate(482.3125,220.5625)"/>
<path d="M0 0 C1.65 0 3.3 0 5 0 C9 6.75 9 6.75 9 9 C9.66 9 10.32 9 11 9 C11 6.03 11 3.06 11 0 C12.32 0 13.64 0 15 0 C15 6.27 15 12.54 15 19 C10 18 10 18 7.6875 14.9375 C7.130625 13.968125 6.57375 12.99875 6 12 C5.67 14.31 5.34 16.62 5 19 C3.35 19 1.7 19 0 19 C0 12.73 0 6.46 0 0 Z " fill="#CD6F33" transform="translate(600,379)"/>
<path d="M0 0 C1.5675 -0.061875 3.135 -0.12375 4.75 -0.1875 C6.07257812 -0.23970703 6.07257812 -0.23970703 7.421875 -0.29296875 C10.4984863 0.05664617 11.80955505 0.8398377 14 3 C14.41052899 6.21581046 14.48606541 8.18136352 12.8125 11 C12.544375 11.66 12.27625 12.32 12 13 C13.28322447 16.23394361 13.28322447 16.23394361 15 19 C13.02 19 11.04 19 9 19 C8.319375 17.5459375 8.319375 17.5459375 7.625 16.0625 C6.34213779 12.92920418 6.34213779 12.92920418 4 12 C4 14.31 4 16.62 4 19 C2.68 19 1.36 19 0 19 C0 12.73 0 6.46 0 0 Z " fill="#CD6E33" transform="translate(663,379)"/>
<path d="M0 0 C4.62 0 9.24 0 14 0 C14 1.32 14 2.64 14 4 C11.03 4 8.06 4 5 4 C5 5.32 5 6.64 5 8 C7.64 8 10.28 8 13 8 C13 9.32 13 10.64 13 12 C10.36 12 7.72 12 5 12 C5 12.99 5 13.98 5 15 C7.97 15 10.94 15 14 15 C14 16.32 14 17.64 14 19 C9.38 19 4.76 19 0 19 C0 12.73 0 6.46 0 0 Z " fill="#C67139" transform="translate(645,379)"/>
<path d="M0 0 C1.65 0 3.3 0 5 0 C5 4.95 5 9.9 5 15 C6.65 15 8.3 15 10 15 C10 10.05 10 5.1 10 0 C11.65 0 13.3 0 15 0 C15.08117951 2.41734542 15.14056926 4.83194949 15.1875 7.25 C15.22520508 8.27287109 15.22520508 8.27287109 15.26367188 9.31640625 C15.30871629 12.40945616 15.16653522 14.66798693 13.76953125 17.453125 C11.55534159 19.38870801 10.41511765 19.53886824 7.5 19.5 C6.7265625 19.5103125 5.953125 19.520625 5.15625 19.53125 C3 19 3 19 1.23046875 17.453125 C-0.46759825 14.06777237 -0.32358058 10.94162194 -0.1875 7.25 C-0.17396484 6.55261719 -0.16042969 5.85523438 -0.14648438 5.13671875 C-0.1112945 3.42414459 -0.05749155 1.71197059 0 0 Z " fill="#C97036" transform="translate(581,379)"/>
<path d="M0 0 C0.66 0.33 1.32 0.66 2 1 C1.34 2.32 0.68 3.64 0 5 C-2.97 4.505 -2.97 4.505 -6 4 C-6 4.99 -6 5.98 -6 7 C-5.43410156 7.13277344 -4.86820313 7.26554687 -4.28515625 7.40234375 C-3.55167969 7.57894531 -2.81820312 7.75554687 -2.0625 7.9375 C-1.33160156 8.11152344 -0.60070312 8.28554688 0.15234375 8.46484375 C2 9 2 9 3 10 C3.4632783 15.32770051 3.4632783 15.32770051 1.83984375 17.68359375 C-0.73057132 19.52272301 -2.56422438 19.29773326 -5.6875 19.1875 C-7.17830078 19.14689453 -7.17830078 19.14689453 -8.69921875 19.10546875 C-9.45847656 19.07066406 -10.21773437 19.03585937 -11 19 C-11.33 18.01 -11.66 17.02 -12 16 C-8.78548731 14.39274365 -5.56387464 14.94251815 -2 15 C-2 14.01 -2 13.02 -2 12 C-2.928125 12.061875 -3.85625 12.12375 -4.8125 12.1875 C-8 12 -8 12 -9.875 10.875 C-11.52854531 8.11909116 -11.39365568 6.14924548 -11 3 C-8.69448048 -1.3228491 -4.29032615 -0.27240166 0 0 Z " fill="#C77037" transform="translate(691,379)"/>
<path d="M0 0 C1.65 0 3.3 0 5 0 C5.66 2.97 6.32 5.94 7 9 C7.66 9 8.32 9 9 9 C9.144375 7.88625 9.28875 6.7725 9.4375 5.625 C10 2 10 2 11 0 C12.65 0 14.3 0 16 0 C14.24980222 6.41739187 12.13097096 12.70018779 10 19 C8.35 18.67 6.7 18.34 5 18 C4.16320723 15.37605694 3.33043058 12.75095616 2.5 10.125 C2.26152344 9.37863281 2.02304687 8.63226563 1.77734375 7.86328125 C0 2.2265625 0 2.2265625 0 0 Z " fill="#CC6F34" transform="translate(627,379)"/>
<path d="M0 0 C4.95 0 9.9 0 15 0 C15 1.32 15 2.64 15 4 C13.35 4 11.7 4 10 4 C10 8.95 10 13.9 10 19 C8.35 19 6.7 19 5 19 C5 14.05 5 9.1 5 4 C3.35 4 1.7 4 0 4 C0 2.68 0 1.36 0 0 Z " fill="#CA7138" transform="translate(705,379)"/>
<path d="M0 0 C1.65 0 3.3 0 5 0 C5.66 1.65 6.32 3.3 7 5 C8.93798263 2.22739701 8.93798263 2.22739701 10 0 C11.98 0 13.96 0 16 0 C15.65066406 0.61746094 15.30132813 1.23492187 14.94140625 1.87109375 C11.78368734 7.74820798 10.32252665 12.3344493 10 19 C8.35 19 6.7 19 5 19 C4.97421875 18.443125 4.9484375 17.88625 4.921875 17.3125 C4.53126873 12.05707023 3.44348335 8.21538881 0.83984375 3.62890625 C0 2 0 2 0 0 Z " fill="#CA6F35" transform="translate(722,379)"/>
<path d="M0 0 C1.65 0 3.3 0 5 0 C5 6.27 5 12.54 5 19 C3.35 19 1.7 19 0 19 C0 12.73 0 6.46 0 0 Z " fill="#C36F38" transform="translate(697,379)"/>
<path d="M0 0 C1.32 0 2.64 0 4 0 C4 6.27 4 12.54 4 19 C2.68 19 1.36 19 0 19 C0 12.73 0 6.46 0 0 Z " fill="#D26E30" transform="translate(620,379)"/>
<path d="M0 0 C7.21877615 4.11717271 9.99486768 9.59486368 13.6875 16.875 C14.79512636 18.99762891 15.90318834 21.12003058 17.01171875 23.2421875 C17.5226709 24.23831055 18.03362305 25.23443359 18.56005859 26.26074219 C19.79142407 28.60321771 21.09018044 30.86821455 22.45703125 33.1328125 C22.96621094 34.07898438 23.47539063 35.02515625 24 36 C23.67 36.66 23.34 37.32 23 38 C22.40574219 36.97003906 21.81148437 35.94007812 21.19921875 34.87890625 C16.20752597 26.2828937 11.05367554 17.8346099 5.58081055 9.53540039 C5.14164307 8.86758545 4.70247559 8.19977051 4.25 7.51171875 C3.86328125 6.92865967 3.4765625 6.34560059 3.078125 5.74487305 C1.92660921 3.88122192 0.95182123 1.97205461 0 0 Z " fill="#427070" transform="translate(1000,61)"/>
<path d="M0 0 C0.99 0.33 1.98 0.66 3 1 C3 4.3 3 7.6 3 11 C2.34 9.68 1.68 8.36 1 7 C-3.35434263 7.96908916 -3.35434263 7.96908916 -6.25 11.0625 C-6.4975 11.701875 -6.745 12.34125 -7 13 C-7.99 13.495 -7.99 13.495 -9 14 C-7.65070536 10.16336928 -5.92248975 7.34827431 -3.375 4.1875 C-2.42753906 3.00220703 -2.42753906 3.00220703 -1.4609375 1.79296875 C-0.97882813 1.20128906 -0.49671875 0.60960937 0 0 Z " fill="#9A727F" transform="translate(405,33)"/>
<path d="M0 0 C-2.82619863 2.82619863 -6.26200296 3.81363347 -9.9375 5.1875 C-10.66646484 5.47302734 -11.39542969 5.75855469 -12.14648438 6.05273438 C-17.63683977 8.12105341 -17.63683977 8.12105341 -21 7 C-18.25643874 5.63121452 -15.50644895 4.27986823 -12.75 2.9375 C-11.97269531 2.54755859 -11.19539062 2.15761719 -10.39453125 1.75585938 C-9.26337891 1.20961914 -9.26337891 1.20961914 -8.109375 0.65234375 C-7.41811523 0.31195068 -6.72685547 -0.02844238 -6.01464844 -0.37915039 C-3.62242947 -1.11635505 -2.33429153 -0.80784795 0 0 Z " fill="#5D8485" transform="translate(994,63)"/>
<path d="M0 0 C1.65 0 3.3 0 5 0 C5.33 1.65 5.66 3.3 6 5 C4.34385343 5.38218767 2.67542976 5.71395102 1 6 C0 5 0 5 -0.0625 2.4375 C-0.041875 1.633125 -0.02125 0.82875 0 0 Z " fill="#2A5A61" transform="translate(480,295)"/>
<path d="M0 0 C1.65 0 3.3 0 5 0 C5.33 1.65 5.66 3.3 6 5 C4.34385343 5.38218767 2.67542976 5.71395102 1 6 C0 5 0 5 -0.0625 2.4375 C-0.041875 1.633125 -0.02125 0.82875 0 0 Z " fill="#2A5A61" transform="translate(480,261)"/>
<path d="M0 0 C1.65 0 3.3 0 5 0 C5.33 1.65 5.66 3.3 6 5 C4.34385343 5.38218767 2.67542976 5.71395102 1 6 C0 5 0 5 -0.0625 2.4375 C-0.041875 1.633125 -0.02125 0.82875 0 0 Z " fill="#2A5A61" transform="translate(480,227)"/>
<path d="M0 0 C7.92 0 15.84 0 24 0 C24 0.33 24 0.66 24 1 C16.08 1 8.16 1 0 1 C0 0.67 0 0.34 0 0 Z " fill="#D6D6D6" transform="translate(413,858)"/>
<path d="M0 0 C1.65 0 3.3 0 5 0 C4.67 1.98 4.34 3.96 4 6 C3.67 5.34 3.34 4.68 3 4 C1.68 4.33 0.36 4.66 -1 5 C-0.67 3.35 -0.34 1.7 0 0 Z " fill="#C2723D" transform="translate(638,379)"/>
<path d="M0 0 C0.33 0 0.66 0 1 0 C1.33951619 1.56116819 1.67132544 3.12401338 2 4.6875 C2.185625 5.55761719 2.37125 6.42773438 2.5625 7.32421875 C2.98972047 9.93712964 3.07616201 12.35813038 3 15 C1.27642881 12.41464321 0.55264982 10.96188386 -0.1875 8.0625 C-0.36667969 7.39347656 -0.54585937 6.72445313 -0.73046875 6.03515625 C-1.03268678 3.75319112 -0.68756692 2.17973341 0 0 Z " fill="#58706A" transform="translate(822,402)"/>
<path d="M0 0 C1.65 0 3.3 0 5 0 C5 1.32 5 2.64 5 4 C3.35 4 1.7 4 0 4 C0 2.68 0 1.36 0 0 Z " fill="#507670" transform="translate(667,383)"/>
<path d="M0 0 C1.0625 1.875 1.0625 1.875 2 4 C1.67 4.66 1.34 5.32 1 6 C0 5 0 5 -0.0625 2.4375 C-0.041875 1.633125 -0.02125 0.82875 0 0 Z " fill="#FEFEFE" transform="translate(6,341)"/>
<path d="M0 0 C0.99 0.495 0.99 0.495 2 1 C1.67 1.66 1.34 2.32 1 3 C0.67 2.01 0.34 1.02 0 0 Z " fill="#BB3A3F" transform="translate(613,43)"/>
<path d="M0 0 C0.99 0.495 0.99 0.495 2 1 C1.67 1.66 1.34 2.32 1 3 C0.67 2.01 0.34 1.02 0 0 Z " fill="#A44C57" transform="translate(610,39)"/>
<path d="M0 0 C4 1 4 1 4 1 Z " fill="#E3E4E4" transform="translate(255,4)"/>
<path d="" fill="#D3D3D4" transform="translate(0,0)"/>
<path d="" fill="#BE3236" transform="translate(0,0)"/>
<path d="" fill="#BB464B" transform="translate(0,0)"/>
<path d="" fill="#A1525F" transform="translate(0,0)"/>
<path d="" fill="#BE3135" transform="translate(0,0)"/>
</svg>
