<svg xmlns="http://www.w3.org/2000/svg" width="134" height="103" fill="none" viewBox="0 0 134 103">
  <path fill="#fff" d="M131.911 55.27c-11.52 10.03-27.87 9.65-33.49 9.16h-.04c-1.25-.1-1.96-.21-1.96-.21s.44 4.12.94 10.94c.02.16.03.33.04.5.17 2.33.34 4.95.52 7.83l.03.46c.12 2.11.24 4.35.35 6.7.05 1.03-.49 2.02-1.4 2.51-5.94 3.22-12.03 5.43-18.07 6.87-.27.07-.53.13-.8.19-.41.1-.83.19-1.24.27-.42.09-.83.17-1.25.25a82.132 82.132 0 0 1-4.94.8c-.41.06-.82.11-1.23.16-1.62.2-3.23.34-4.83.44-.01-.01-.02-.01-.03 0l-1.2.06c-.4.02-.8.04-1.2.05-1.83.08-3.63.09-5.4.05-.7 0-1.39-.03-2.07-.06-20.36-.89-36.17-7.9-37.11-9.25-.48-.7-.37-3.84.01-7.85l.03-.33c.25-2.6.62-5.52 1-8.39.03-.25.07-.5.1-.74.64-4.68 1.33-9.08 1.7-11.45.02-.08.03-.16.04-.23.07-.42.13-.76.17-1.02.05-.31-.17-.6-.48-.65C6.821 60.37 1.831 51.07.291 47.11c-.42-1.08-.33-2.29.21-3.31 3.53-6.66 17.76-33.34 22.47-39.88.13-.17.34-.25.55-.2 2.4.54 13.4 2.62 15.6 3.03.24.05.41.24.43.48.79 7 3.53 10.86 13.99 11.15 12.35.34 16.69-8.01 16.31-11.73-.04-.32.2-.59.52-.6 12.66-.26 30.09-4.45 37.1-6.02.08-.02.16-.02.24 0 11.16 2.4 21.24 36.13 25.41 51.16.41 1.48-.05 3.08-1.21 4.09v-.01Z"/>
  <path fill="#0459B5" d="M38.101 58.39c12.73 1.95 25.56 1.51 38.25-.88 13.41-2.52 26.7-6.84 39.7-12.42 3.13-1.34 6.24-2.81 9.33-4.31-4.85-19.75-11.08-38.59-17.68-40.74a.393.393 0 0 0-.24 0c-7.01 2.39-23.45 6.75-36.1 7.16-.32.01-.56.42-.53.91.39 5.65-4.42 13.48-16.76 12.96-10.46-.43-13.74.54-14.53-10.09-.03-.36-.69-3.15-.93-3.21-2.21-.63-12.07-3.07-14.47-3.9-.21-.07-1.06 1.83-1.19 2.09-3.02 6.38-9.98 25.4-15.51 40.87 9.89 5.74 19.8 9.9 30.64 11.56h.02Z"/>
  <path fill="#0A4C87" d="M67.42 13a213 213 0 0 0 6.18.12c-3.01 5.39-8.89 11.62-19.91 11C34.19 23 34.92 8.06 34.55 5.89l4.95.94c.73 7.25 3.37 11.26 14.03 11.55 7.01.19 11.44-2.41 13.88-5.38h.01Z"/>
  <path fill="#0A3575" d="M69.84 6.65c-.02-.21-.06-.41-.11-.59l6.74-.38c-2.12.2-4.17.33-6.11.37-.32.01-.56.28-.52.6Z"/>
  <path fill="#0459B5" d="m26.57 34.17-5.91 28.24c-5.38-.69-9.43-2.58-12.46-4.87-.3-.22-.58-.45-.86-.68-.56-.45-1.09-.92-1.56-1.41-.49-.48-.94-.96-1.34-1.44-.21-.24-.41-.49-.6-.73-.39-.49-.75-.98-1.08-1.47-.15-.22-.29-.43-.42-.65-.44-.69-.81-1.35-1.13-1.97-.15-.32-.3-.63-.43-.92-.22-.46-.39-.88-.53-1.25-.39-1.02-.32-2.16.19-3.13 3.5-6.6 18.24-34.23 22.73-40.25.07.02.21.05.38.09.09.02.19.04.3.07.09.02.2.04.3.06.07.01.15.03.24.05.1.03.2.05.28.06a33.35 33.35 0 0 0-1.65 7.77c-.88 9.45 2.15 17.54 3.33 20.29.3.68.37 1.42.22 2.14Zm105.328 21.11c-14.13 12.28-35.48 8.94-35.48 8.94.28-.71-2.97-23.14-3.16-31.98-.01-.7.09-1.39.3-2.05 1.03-3.26 2.94-10.42 2.69-18.17 7.361-.74 13.78-1.77 20.61-3.46 7.29 11.61 13.261 31.87 16.251 42.63.41 1.48-.051 3.09-1.211 4.1v-.01Z"/>
  <path fill="#0A3575" d="M103.331.97c-.41.09-.84.19-1.28.28.22-.05.44-.1.65-.15.2-.04.39-.09.58-.13.01 0 .03-.01.04-.01.21-.05.43-.09.63-.14.15-.03.29-.06.42-.09-.33.08-.68.16-1.04.24Zm2.318-.53-.54.12c.29-.07.56-.13.83-.19-.1.03-.19.05-.29.07Zm1.85-.41h-.05l.13-.03h.02s-.07.01-.1.02v.01Z"/>
  <path fill="#0A4C87" d="M133.11 51.18c-4.18-15.09-14.33-49-25.53-51.18-1.15.26-2.6.59-4.26.96 6.2 5.98 10.19 14.49 13.49 22.19 4.89 11.42 8.61 23.22 10.55 35.41 1.57-.95 3.1-2.04 4.54-3.29 1.16-1.01 1.62-2.61 1.21-4.1v.01ZM17.52 61.85c.99.24 2.04.43 3.14.57l5.79-28.08-8.93 27.51Z"/>
  <path fill="#1770BF" d="M24.681 3.97s-.01.03-.02.05c-.89 2.61-1.4 5.22-1.63 7.72-1.24 2.25-2.3 4.57-3.35 6.94-.62 1.4-1.23 2.81-1.81 4.23-1.26 2.99-2.45 6-3.58 9.04-.92 2.49-1.8 5-2.64 7.52-.88 2.65-1.8 5.46-2.47 8.33-.76 3.23-1.21 6.52-.97 9.74-.3-.22-.58-.45-.86-.68a23.866 23.866 0 0 1-2.9-2.85c-.21-.24-.41-.49-.6-.73-.39-.49-.75-.98-1.08-1.47-.15-.22-.29-.43-.42-.65-.44-.69-.81-1.35-1.13-1.97-.15-.32-.3-.63-.43-.92-.22-.46-.39-.88-.53-1.25-.39-1.02-.32-2.16.19-3.13 1.23-2.31 3.83-7.2 6.88-12.83 1.46-2.69 3.02-5.54 4.58-8.37.22-.39.44-.79.66-1.18.52-.94 1.05-1.87 1.56-2.79.29-.52.58-1.03.86-1.53.27-.48.54-.95.81-1.42 3.09-5.44 5.84-10.06 7.38-12.13.09.02.21.05.38.09.09.02.19.04.3.07.09.02.19.04.29.06h.01c.07.01.15.03.24.05.1.03.2.05.28.06Z"/>
  <path fill="#E5E5E5" d="M107.699.02c.06 0 .12.03.18.05h-.03l-.22-.06c.02.01.05.01.07.01Zm.28.07a.787.787 0 0 0-.1-.02c.03.01.06.01.1.02Zm.38.11s.08.03.11.05c-.11-.05-.23-.08-.34-.12.06.01.12.03.19.06.02.01.03.01.04.01Zm.521.19.21.09c-.12-.05-.24-.1-.36-.14.05.01.1.03.15.05Zm.751.35s.03.01.04.03c-.07-.04-.14-.08-.21-.11.06.02.11.05.17.08Zm2.378 1.72c-.06-.04-.12-.1-.18-.15-.04-.03-.07-.06-.11-.1a.7.7 0 0 1 .1.08c.06.05.13.11.19.17Z"/>
  <path fill="#E4545B" d="M39.83 9.12c.03.17.07.34.1.51-1.76-.42-3.48-.87-5.15-1.37-.13-1.12-.16-1.96-.23-2.37.02 0 .05.01.07.01.13.03.27.05.4.08.47.09.93.18 1.37.26.14.02.29.05.43.08.14.02.28.05.41.08.14.02.28.05.41.07.23.05.44.09.64.12.01.01.02.01.03.01.21.04.4.07.56.11.08.01.15.03.22.04.03 0 .05 0 .07.02l.35.06c.01.14.03.27.04.4l.12.92c.03.21.06.41.1.62.02.11.04.23.06.35Zm36.648-3.44s-.66 3.49-2.86 7.44c-2.06-.01-4.13-.05-6.2-.12 1.06-1.28 1.75-2.64 2.12-3.86.04-.11.07-.22.09-.33.16-.61.24-1.19.24-1.7 0-.39-.05-.74-.14-1.05l6.75-.38Zm40.403 2.87c.09.15.19.3.28.46-.1-.16-.19-.31-.29-.46h.01Z"/>
  <path fill="#C9414E" d="M117.161 9.01c-.1-.16-.19-.31-.29-.46.09.15.19.3.28.46h.01Z"/>
  <path fill="#0A4C87" d="M39.93 9.63c-1.76-.42-3.48-.87-5.15-1.37-.72-.21-1.44-.44-2.14-.66a70.07 70.07 0 0 1-5.78-2.19c-1.22-.53-2.4-1.1-3.53-1.69-.05-.03-.1-.05-.15-.08.03.01.06.02.1.02.04.01.08.02.13.04.03 0 .06.01.09.02.23.05.55.12.93.2.12.02.24.04.36.07.13.03.28.06.42.09.08.02.16.03.25.05.09.01.19.03.29.06.04 0 .09.01.13.02.46.09.95.19 1.47.29.87.18 1.83.36 2.8.55l2.35.45c.06 0 .11.02.17.03.64.12 1.28.24 1.88.36.02 0 .05.01.07.01.13.03.27.05.4.08.47.09.93.18 1.37.26.14.02.29.05.43.08.14.02.28.05.41.08.14.02.28.05.41.07.23.05.44.09.64.12.01.01.02.01.03.01.21.04.4.07.56.11.08.01.15.03.22.04h.03s.03 0 .04.02l.35.06c.01.14.03.27.04.4l.12.92c.03.21.06.41.1.62.02.11.04.23.06.35.03.17.07.34.1.51Z"/>
  <path fill="#0A3575" d="m107.14.1-4.48 1.02c1.47-.34 2.94-.68 4.48-1.02Z"/>
  <path fill="#E4545B" d="M39.93 9.63c-1.76-.42-3.48-.87-5.15-1.37-.13-1.12-.16-1.96-.23-2.37.02 0 .05.01.07.01.13.03.27.05.4.08.47.09.93.18 1.37.26.14.02.29.05.43.08.14.02.28.05.41.08.14.02.28.05.41.07.23.05.44.09.64.12.01.01.02.01.03.01.21.04.4.07.56.11.08.01.15.03.22.04h.05c.01 0 0 0 .02.01.06 0 .11.02.15.03l.2.03c.01.14.03.27.04.4l.12.92c.03.21.06.41.1.62.02.11.04.23.06.35.03.17.07.34.1.51v.01Zm36.548-3.95s-.66 3.49-2.86 7.44h-.01c-2.06-.01-4.12-.05-6.19-.12 1.06-1.28 1.75-2.64 2.12-3.86.04-.11.07-.22.09-.33.08-.31.14-.6.18-.89.04-.28.06-.55.06-.8 0-.4-.05-.75-.14-1.06l6.75-.38Z"/>
  <path fill="#052A56" d="M39.93 9.63c-1.76-.42-3.48-.87-5.15-1.37-.13-1.12-.16-1.96-.23-2.37.02 0 .05.01.07.01.13.03.27.05.4.08.47.09.93.18 1.37.26.14.02.29.05.43.08.14.02.28.05.41.08.14.02.28.05.41.07.23.05.44.09.64.12.01.01.02.01.03.01.21.04.4.07.56.11.08.01.15.03.22.04h.05l.02.01c.06 0 .11.02.15.03l.2.03c.01.14.03.27.04.4l.12.92c.03.21.06.41.1.62.02.11.04.23.06.35.03.17.07.34.1.51v.01Zm36.548-3.95s-.66 3.49-2.86 7.44h-.01c-2.06-.01-4.12-.05-6.19-.12 1.06-1.28 1.75-2.64 2.12-3.86.04-.11.07-.22.09-.33.08-.31.14-.6.18-.89.04-.28.06-.55.06-.8 0-.4-.05-.75-.14-1.06l6.75-.38Z"/>
  <path fill="#0A4C87" d="M116.871 8.55c-6.83 1.69-13.26 2.72-20.62 3.46-.1-3.04-.52-6.18-1.47-9.21 4.24-.86 8.45-1.81 12.67-2.77.73.01 1.51.37 2.18.71.01 0 .03.01.04.03.17.09.34.19.51.3h.01c2.77 1.8 4.79 4.54 6.56 7.3.04.05.07.12.12.18Z"/>
  <path fill="#E5E5E5" d="M67.41 13c.13-.16.26-.32.38-.48-.11.16-.23.32-.37.48h-.01Zm1.508-2.31c.11-.21.2-.43.29-.64-.09.21-.18.42-.29.64Zm.382-.87c.09-.22.17-.45.23-.66-.06.22-.15.44-.23.66Zm.231-.67c.08-.27.16-.54.2-.79-.04.15-.07.3-.11.45-.02.11-.05.22-.09.33v.01Zm.199-.79c.05-.22.07-.44.1-.65-.02.21-.05.43-.1.65Zm.118-.99c0 .11 0 .22-.02.34.01-.12.01-.22.02-.34Zm.012-.26c0 .08-.01.17-.02.26 0-.17.02-.34 0-.49v.23h.02Z"/>
  <path fill="#0A4C87" d="M96.25 12.01c-.14.01-.29.02-.44.04-1.12.11-2.27.21-3.44.31l-.81.06c-1.19.1-2.4.18-3.65.27-1.18.08-2.37.14-3.57.2-3.51.16-7.1.24-10.73.23 2.2-3.95 2.86-7.44 2.86-7.44A151.607 151.607 0 0 0 87.86 4.1l.34-.06c1.1-.19 2.2-.39 3.3-.6 1.02-.19 2.05-.39 3.07-.6.07-.01.14-.02.21-.04.95 3.03 1.37 6.17 1.47 9.21Z"/>
  <path fill="#052A56" d="M95.46 2.66c1.34-.27 2.68-.55 4.02-.84-1.3.28-2.63.57-4.02.84ZM107.448.03c.13 0 .25.01.38.04-.22-.03-.44-.03-.66.02l.28-.06Zm9.421 8.52h-.01s-.04-.06-.05-.09l.06.09Z"/>
  <path fill="#E4545B" d="M96.418 64.22s.44 4.12.94 10.94c-17.83 6.1-50.2 8.33-78.69.52.64-4.68 1.33-9.08 1.7-11.45 12.87 3.81 41.32 10.65 76.01-1.2 0 0 .15 1.02.04 1.19ZM98.3 90.65c.05 1.03-.49 2.02-1.4 2.51-5.94 3.22-12.03 5.43-18.07 6.87-.27.07-.53.13-.8.19-.41.1-.83.19-1.24.27-.42.09-.83.17-1.25.25a82.132 82.132 0 0 1-4.94.8c-.41.06-.82.11-1.23.16-1.62.19-3.23.33-4.83.44-.01-.01-.02-.01-.03 0l-1.2.06c-.4.02-.8.04-1.2.05-1.83.08-3.63.09-5.4.05-.7 0-1.39-.03-2.07-.06-20.36-.89-36.17-7.9-37.11-9.25-.48-.7-.37-3.84.01-7.85l.03-.33c11.47 3.27 43.89 12.91 80.35-1.32l.03.46c.12 2.11.24 4.35.35 6.7Z"/>
  <path fill="#F7F7F7" d="M87.369 96.73c-2.55 2.27 6.7-2.01 9.84-3.73a2.15 2.15 0 0 0 1.1-1.98c-.74-15.8-1.89-26.79-1.89-26.79l-3.15-31.98s3.96 55.72-5.9 64.48Z"/>
  <path fill="#fff" d="m40.609 31.87 2.31-6.01c.14-.36.65-.33.75.04l1.66 6.22c.04.16.19.28.36.29l6.43.34c.38.02.51.51.19.72l-5.4 3.5c-.14.09-.21.27-.17.43l1.66 6.22c.1.37-.33.65-.63.41l-5-4.05a.376.376 0 0 0-.46-.02l-5.4 3.5c-.32.21-.72-.12-.58-.47l2.31-6.01c.06-.16.01-.34-.12-.45l-5-4.05c-.3-.24-.11-.72.27-.7l6.43.34c.17 0 .33-.09.39-.25Zm34.721.2 1.6-6.23c.09-.37.61-.4.75-.05l2.37 5.98c.06.16.22.26.39.25l6.42-.41c.38-.02.57.45.28.69l-4.96 4.1c-.13.11-.18.29-.11.45l2.37 5.98c.14.35-.25.68-.58.48l-5.44-3.45a.391.391 0 0 0-.46.03L73 43.99c-.29.24-.73-.03-.63-.4l1.6-6.23a.405.405 0 0 0-.17-.43l-5.44-3.45c-.32-.2-.19-.7.19-.72l6.42-.41c.17-.01.31-.13.36-.29v.01Zm30.282-11.13 1.09-6.34c.06-.38.57-.45.74-.11l2.84 5.77c.08.15.24.24.41.22l6.37-.92c.38-.05.6.41.33.67l-4.61 4.49a.41.41 0 0 0-.08.46l2.84 5.77c.17.34-.2.7-.54.52l-5.69-3a.395.395 0 0 0-.46.07l-4.61 4.49c-.27.27-.73.03-.66-.35l1.09-6.34a.376.376 0 0 0-.2-.41l-5.69-3c-.34-.18-.25-.68.13-.74l6.37-.92c.17-.02.3-.15.33-.32v-.01Zm-82.814 3.95-5.98 2.39a.37.37 0 0 0-.24.39l.42 6.42c.02.38-.45.57-.7.28l-2.01-2.42-1.01-1.22-1.09-1.31a.405.405 0 0 0-.45-.12l-4.41 1.76c1.46-2.69 3.02-5.54 4.58-8.37.22-.39.44-.79.66-1.18.52-.94 1.05-1.87 1.56-2.79.29-.52.58-1.03.86-1.53.27-.48.54-.95.81-1.42l.42 6.44c.01.1.05.2.13.26.04.04.1.07.16.09l1.36.35 4.88 1.24c.37.09.4.6.05.74Z"/>
  <path fill="#0459B5" d="m95.29 52.77-1.25.39c-.01-.53-.01-1.06-.02-1.58 0-.38-.01-.77-.01-1.14-.01-.74-.03-1.47-.05-2.18-.01-.73-.03-1.44-.05-2.14-.01-.51-.03-1.01-.05-1.49 0-.13 0-.25-.01-.38 0-.23-.01-.45-.02-.66-.01-.22-.02-.43-.02-.65-.02-.44-.03-.86-.05-1.28-.01-.32-.03-.62-.04-.92-.01-.3-.03-.6-.04-.89a398.7 398.7 0 0 0-.09-2.04l-.03-.58c-.01-.29-.03-.56-.04-.83-.01-.12-.01-.24-.02-.35 0-.18-.01-.36-.03-.53 0-.13-.01-.25-.02-.37a103.242 103.242 0 0 0-.06-1.1c0-.17-.02-.32-.03-.47 0-.06-.01-.12-.01-.17-.01-.18-.02-.34-.03-.48v-.07c-.02-.15-.02-.27-.03-.36 0 .06.01.12.02.19v.02l1.98 20.06Z"/>
  <path fill="#E4545B" d="M97.36 75.16c-1.29.44-2.67.87-4.11 1.26.39-4.03.61-8.33.72-12.6.77-.24 1.56-.5 2.34-.77.02 0 .05 0 .07-.02 0 0 .15 1.01.04 1.19 0 0 .03.33.1.95.01.14.02.29.04.45.11 1.12.27 2.89.46 5.21.03.41.07.85.11 1.3.03.46.07.93.11 1.42l.03.36.09 1.25Zm.939 15.49c.05 1-.46 1.97-1.33 2.47-.25.14-.54.29-.86.45-3.77 1.93-11.03 5.19-8.73 3.15 2.11-1.88 3.59-5.92 4.61-11.11 1.96-.64 3.94-1.34 5.93-2.12.04.67.08 1.36.12 2.07.06 1.04.11 2.12.17 3.22l.09 1.87Z"/>
  <path fill="#0A4C87" d="M93.32 32.86v-.15l1.98 20.06-1.25.39c-.01-.53-.01-1.06-.02-1.58 0-.38-.01-.77-.01-1.14-.01-.74-.03-1.47-.05-2.18-.01-.73-.03-1.44-.05-2.14-.01-.51-.03-1.01-.05-1.49 0-.13 0-.25-.01-.38 0-.23-.01-.45-.02-.66-.01-.22-.02-.43-.02-.65-.02-.44-.03-.86-.05-1.28-.01-.32-.03-.62-.04-.92-.01-.3-.03-.6-.04-.89a398.7 398.7 0 0 0-.09-2.04l-.03-.58c-.01-.29-.03-.56-.04-.83-.01-.12-.01-.24-.02-.35 0-.18-.01-.36-.03-.53 0-.13-.01-.25-.02-.37a103.242 103.242 0 0 0-.06-1.1c0-.17-.02-.32-.03-.47 0-.06-.01-.12-.01-.17-.01-.18-.02-.34-.03-.48v-.07h-.01Z"/>
  <path fill="#C13D49" d="M97.36 75.16c-1.29.44-2.67.87-4.11 1.26.39-4.03.61-8.33.72-12.6.77-.24 1.56-.5 2.34-.77l.11 1.17s.03.33.1.95c.01.14.02.29.04.45.11 1.12.27 2.89.46 5.21.03.41.07.85.11 1.3.03.46.07.93.11 1.42l.03.36.09 1.25Zm.959 15.85c.03.81-.39 1.59-1.1 1.98-.08.04-.16.09-.25.13-.25.14-.54.29-.86.45-3.77 1.93-11.03 5.19-8.73 3.15 2.11-1.88 3.59-5.92 4.61-11.11 1.96-.64 3.94-1.34 5.93-2.12.04.67.08 1.36.12 2.07.06 1.04.11 2.12.17 3.22l.09 1.87c.01.12.01.24.02.36Z"/>
</svg>
