<svg width="133" height="104" viewBox="0 0 133 104" fill="none" xmlns="http://www.w3.org/2000/svg">
<path fill-rule="evenodd" clip-rule="evenodd" d="M10.9286 22.6595C15.2436 14.5266 20.0883 6.56596 23.626 3.5C27.9773 4.63493 31.3374 5.10417 36.0014 5.75552C36.8308 5.87133 37.7013 5.9929 38.626 6.125C38.6556 6.25863 38.6866 6.39945 38.719 6.54691C39.7605 11.2848 42.3088 22.8771 51.251 23.125C62.876 23.4473 70.7508 12.75 70.7508 6.12498C80.879 5.27309 105.376 0.875 108.501 0C116.987 3.51152 123.19 20.8 128.475 35.5315C129.963 39.6784 131.378 43.6227 132.751 47C131.338 50.6252 120.626 58.25 96.1258 59.125C96.1258 59.125 99.1258 75.625 102.126 90.625C93.6258 101.125 34.626 110.5 15.626 94.5C15.626 91.375 20.126 66.375 21.5009 59.125C20.3491 58.8867 18.3891 57.8151 16.1234 56.3386L19.376 48.75C18.0844 47.9676 16.6629 47.0751 15.2096 46.1224C12.4461 44.3107 9.56783 42.281 7.25098 40.375C7.19704 40.3413 7.14238 40.3058 7.08703 40.2686C5.78316 39.4047 4.57694 38.2032 3.76702 37.2685C4.02632 36.6913 4.29945 36.091 4.58506 35.471C6.33381 31.675 8.55076 27.1411 10.9286 22.6595ZM1.12953 43.6223C1.08261 43.7581 1.04068 43.884 1.00391 43.9998C1.0062 44.0041 1.00855 44.0085 1.01097 44.013C1.04868 43.884 1.08827 43.7537 1.12953 43.6223Z" fill="#004C42"/>
<path d="M35.251 15.375L19.751 33L23.626 6.75L27.876 4.75L33.626 6.75L35.251 15.375Z" fill="#003F37"/>
<path fill-rule="evenodd" clip-rule="evenodd" d="M27.6906 5.40364C24.0613 9.04959 19.1592 16.6039 14.5767 25.139L11.0033 22.7104C15.476 14.333 20.3659 6.26599 23.6259 3.5C24.7517 4.12033 26.3843 4.84236 27.6906 5.40364Z" fill="#016658"/>
<path d="M24.626 3.75C25.3348 3.91245 26.6534 4.14948 28.2167 4.41368C28.0533 4.73761 27.8765 5.06879 27.6905 5.40364C26.3841 4.84236 24.7518 4.12033 23.626 3.5C23.731 3.52739 24.2766 3.68346 24.5022 3.71996L24.5144 3.72296C24.5548 3.7328 24.5927 3.74207 24.626 3.75Z" fill="#003831"/>
<path fill-rule="evenodd" clip-rule="evenodd" d="M3.75513 37.2546C3.75644 37.2561 3.75772 37.2577 3.759 37.2593C3.76155 37.2625 3.76415 37.2657 3.76702 37.2686C2.51555 40.0543 1.58621 42.3012 1.12953 43.6224C1.17196 43.4873 1.21615 43.3511 1.26192 43.214C1.88306 41.5231 2.50098 40 3.75098 37.25C3.75243 37.2514 3.7538 37.253 3.75513 37.2546ZM7.08703 40.2686C6.12087 39.6185 4.94385 38.4454 3.76702 37.2686C4.57694 38.2033 5.78316 39.4048 7.08703 40.2686Z" fill="#AEF19A"/>
<path d="M16.0039 56.6176L19.376 48.75C20.6433 49.5178 21.9461 50.1055 22.876 50.625L22.6665 51.8146L21.501 59.625C19.7944 58.8124 17.7676 57.6993 16.0039 56.6176Z" fill="#54C82F"/>
<path d="M4.58506 35.471C6.33381 31.675 8.55076 27.141 10.9286 22.6594L11.0034 22.7103C8.64872 27.1206 6.4097 31.6169 4.58506 35.471Z" fill="#003F37"/>
<path d="M1.26192 43.2138C1.88306 41.5229 2.50098 39.9999 3.75098 37.2499L3.76702 37.2684C2.51555 40.0541 1.58621 42.3011 1.12953 43.6222C1.08827 43.7536 1.04868 43.884 1.01097 44.0129L1.00391 43.9997C1.04068 43.884 1.08261 43.758 1.12953 43.6222C1.17196 43.4872 1.21615 43.3509 1.26192 43.2138Z" fill="#003F37"/>
<path d="M7.25098 40.375C7.19704 40.3413 7.14238 40.3057 7.08703 40.2685C7.14151 40.3046 7.19618 40.3401 7.25098 40.375C9.38013 35.3461 11.925 30.0782 14.5769 25.1389L24.501 39.3749L13.251 44.6249C10.4874 42.8132 9.56783 42.2809 7.25098 40.375Z" fill="#003F37"/>
<path fill-rule="evenodd" clip-rule="evenodd" d="M7.08703 40.2686C5.78315 39.4047 4.57695 38.2033 3.76702 37.2686C2.51555 40.0542 1.58621 42.3012 1.12953 43.6224C1.08827 43.7538 1.04868 43.8841 1.01097 44.013C0.96277 44.1778 0.917638 44.3403 0.875977 44.5C1.41465 45.2901 2.63193 46.5341 4.29297 48.0008C4.35332 47.8237 4.41336 47.6491 4.47324 47.4766C5.31561 45.0496 6.12334 43.0384 7.25098 40.375C7.19618 40.3401 7.14151 40.3047 7.08703 40.2686Z" fill="#AEF19A"/>
<path fill-rule="evenodd" clip-rule="evenodd" d="M15.2096 46.1223C12.4461 44.3106 9.56783 42.281 7.25098 40.375C6.12334 43.0384 5.31561 45.0495 4.47324 47.4766C4.41336 47.6491 4.35332 47.8237 4.29297 48.0008C4.98938 48.6157 5.76376 49.2699 6.59876 49.9461C9.2961 52.1306 12.626 54.5458 16.0038 56.6175L16.1234 56.3386L19.376 48.75C18.0844 47.9675 16.6629 47.0751 15.2096 46.1223Z" fill="#7CF157"/>
<path fill-rule="evenodd" clip-rule="evenodd" d="M14.5769 25.139C11.925 30.0784 9.38013 35.3462 7.25098 40.3751C7.19618 40.3402 7.14151 40.3047 7.08703 40.2686C5.78315 39.4048 4.57695 38.2033 3.76702 37.2686L3.75098 37.2501C4.01783 36.6751 4.29626 36.0812 4.58506 35.4711C6.4097 31.617 8.64872 27.1208 11.0034 22.7104L14.5769 25.139Z" fill="#004C42"/>
<path d="M71.751 43L59.876 51.25L84.126 57L71.751 43Z" fill="#003F37"/>
<path d="M51.876 25.375L55.501 38.125L79.001 29.625L51.876 25.375Z" fill="#003F37"/>
<path d="M57.251 89.875L61.626 65.25L74.876 74.75L57.251 89.875Z" fill="#003F37"/>
<path fill-rule="evenodd" clip-rule="evenodd" d="M38.9023 6.46353C38.9116 6.30797 38.9139 6.19313 38.876 6.12488C38.3834 6.03127 37.4507 5.88872 36.3312 5.71762C35.512 5.59242 34.5928 5.45193 33.6727 5.30414C31.8749 5.01535 29.9033 4.69864 28.2166 4.41357C28.0532 4.7375 27.8764 5.06868 27.6904 5.40353C29.2568 6.07651 30.8937 6.6981 32.459 7.24687C32.3312 6.56464 32.2198 5.8577 32.126 5.12489L38.876 6.12488C38.8792 6.17311 38.8826 6.22136 38.8863 6.26961C38.8912 6.33424 38.8966 6.39888 38.9023 6.46353Z" fill="#003831"/>
<path fill-rule="evenodd" clip-rule="evenodd" d="M39.3048 9.35667C37.7709 8.96016 34.6438 7.97044 31.8758 7C31.748 6.31776 31.7198 5.7328 31.626 5L38.8759 6.12498C38.8792 6.17322 38.8826 6.22147 38.8863 6.26971C38.8912 6.33435 38.8965 6.39899 38.9023 6.46364C38.901 6.48462 38.8997 6.50635 38.8982 6.52881C38.8833 6.76373 38.8633 7.07826 38.9315 7.45602C39.0265 7.98181 39.1436 8.63008 39.3048 9.35667Z" fill="#54C82F"/>
<path d="M130.376 40.5C120.576 49.8 103.334 52.5417 95.251 52.625L96.626 60.625C116.501 61 130.876 52.125 132.876 47.25L130.376 40.5Z" fill="#7CF157"/>
<path d="M70.7508 6.125C70.1508 6.125 75.2927 5.70833 77.876 5.375L77.8765 5.43713C75.1978 5.77657 72.7602 6.02142 70.7508 6.125C70.8181 7.03394 70.532 9.16681 68.5078 11.6007C69.8865 9.90052 70.7508 8.05141 70.7508 6.125Z" fill="#7CF157"/>
<path d="M51.001 18.75C43.751 17.9591 39.3931 11.9798 38.9023 6.46364L38.8983 6.52821L38.8983 6.52881C38.8833 6.76373 38.8633 7.07826 38.9316 7.45602C39.0265 7.98181 39.1436 8.63008 39.3048 9.35667C37.771 8.96016 34.644 7.97044 31.876 7L31.8841 7.04326C33.376 18 39.6505 24.4644 50.126 25.125C64.001 26 70.7508 19.75 75.3741 14.0029L75.376 14C72.2178 13.8571 68.931 13.6134 66.751 13.375C64.9251 15.3667 57.251 19.4318 51.001 18.75Z" fill="#7CF157"/>
<path d="M51.8754 25C51.1255 33.375 50.5005 39.625 49.3434 47.8449L43.4865 38.8462L51.8754 25Z" fill="#003F37"/>
<path d="M24.1254 39.2499L49.6765 47.2234L38.7436 50.3895L24.1254 39.2499Z" fill="#003F37"/>
<path d="M61.875 66.0099L49.3766 47.6251L59.6268 50.8751L61.875 66.0099Z" fill="#003F37"/>
<path d="M33.8339 64.1649L49.3958 47.1404L48.6255 58.2499L33.8339 64.1649Z" fill="#003F37"/>
<path d="M71.8232 43.0668L49.1212 47.1442L55.6265 38.0001L71.8232 43.0668Z" fill="#003F37"/>
<path d="M24.626 39.5L43.626 38.75C41.8362 33.7711 38.3573 20.9626 38.126 20.5L24.626 39.5Z" fill="#003F37"/>
<path d="M38.876 50.5L34.126 64L22.251 54.125L38.876 50.5Z" fill="#003F37"/>
<path d="M19.126 72.75L34.126 63.75L57.126 89.5L19.126 72.75Z" fill="#003F37"/>
<path d="M45.376 76.25C46.4011 69.6111 47.3509 64.7639 48.376 58.125L61.751 65.5L45.376 76.25Z" fill="#003F37"/>
<path d="M78.751 29.5L72.001 43L93.626 45.375L78.751 29.5Z" fill="#003F37"/>
<path d="M45.876 103.125L36.626 80.5L24.626 99.375L29.4615 100.747C32.3983 101.581 35.4053 102.143 38.4447 102.428L45.876 103.125Z" fill="#003F37"/>
<path d="M83.626 99L74.251 74.375L91.501 78.5L92.001 89L83.626 99Z" fill="#003F37"/>
<path d="M56.876 88.875L67.376 102C61.876 103 56.9593 103.125 52.876 103.125L56.876 88.875Z" fill="#003F37"/>
<path d="M84.001 56.875L61.751 65.25L92.876 69.625L84.001 56.875Z" fill="#003F37"/>
<path d="M19.001 72.875L20.376 97.625L15.376 94.625L19.001 72.875Z" fill="#003F37"/>
<path d="M80.626 14L78.626 29.75L111.501 19L85.251 13.5L80.626 14Z" fill="#003F37"/>
<path d="M108.751 0C112.351 1.7 115.584 6.125 116.751 8.125C106.67 13.8853 87.7304 14.5624 74.9474 13.9841C76.9658 10.9707 77.8897 7.95236 77.8765 5.43713C88.1284 4.13807 101.913 1.45355 108.751 0Z" fill="#003831"/>
<path d="M66.8268 13.3833L66.751 13.375C67.4472 12.7748 68.0266 12.1792 68.5078 11.6007C68.0092 12.2155 67.4433 12.8109 66.8268 13.3833Z" fill="#003831"/>
<path fill-rule="evenodd" clip-rule="evenodd" d="M66.8271 13.3832C67.4437 12.8107 68.0096 12.2154 68.5081 11.6006C70.5324 9.16669 70.8185 7.03381 70.7511 6.12488C72.7606 6.0213 75.1981 5.77644 77.8769 5.43701C77.8901 7.95224 77.3949 10.9865 75.3765 13.9999C72.2183 13.857 69.0072 13.6216 66.8271 13.3832Z" fill="#54C82F"/>
<path d="M92.876 44.875L99.126 22.5L115.876 49L92.876 44.875Z" fill="#003F37"/>
<path fill-rule="evenodd" clip-rule="evenodd" d="M92.5773 39.7886C92.415 39.0028 92.2543 38.2299 92.0955 37.4718C91.8071 36.0949 91.5249 34.767 91.251 33.5C91.251 33.5 91.4472 35.0857 91.6834 37.784C91.6918 37.8806 91.7003 37.9787 91.7089 38.0782C91.7584 38.654 91.8094 39.2771 91.8605 39.9429C91.8797 40.1939 91.899 40.451 91.9182 40.714C91.9325 40.909 91.9467 41.1073 91.9608 41.3087C92.0246 42.2173 92.0871 43.1898 92.1455 44.2177C92.1624 44.5142 92.1789 44.8153 92.195 45.1207C92.2376 45.9302 92.2774 46.7707 92.313 47.6382C92.3295 48.039 92.3451 48.4457 92.3596 48.8577C92.3955 49.8711 92.4253 50.9173 92.4472 51.9907C92.4555 52.3997 92.4627 52.8126 92.4687 53.2293C92.4791 53.9587 92.4857 54.6993 92.4879 55.4495C92.489 55.8148 92.489 56.1823 92.488 56.5519C92.4862 57.1773 92.4813 57.8087 92.4729 58.4451C92.4724 58.4813 92.4719 58.5176 92.4715 58.5538C92.4559 59.6821 92.4295 60.826 92.3905 61.9803C92.3506 63.1618 92.2975 64.3542 92.2295 65.5521C92.1035 67.7705 91.9261 70.0077 91.6858 72.2288C90.5291 82.9198 87.9152 93.2373 82.5603 99.2944C82.4992 99.3635 82.4378 99.432 82.376 99.5C82.7245 99.4004 83.1636 99.281 83.6756 99.1417L83.6789 99.1408C88.31 97.8813 98.9002 95.001 102.501 90.5C101.944 87.8999 100.8 81.9197 99.3779 74.481C98.2438 68.5498 96.9323 61.6915 95.5995 54.8801C94.5815 49.6775 93.5509 44.5023 92.5773 39.7886Z" fill="#003831"/>
<path fill-rule="evenodd" clip-rule="evenodd" d="M21.501 59.625C20.626 59.375 17.876 57.875 16.001 56.625L16.0041 56.6176C17.7677 57.6993 19.5444 58.6874 21.251 59.5L22.6667 51.8146L21.501 59.625ZM22.876 50.625L25.626 33.875L19.376 48.75C20.6433 49.5178 21.9461 50.1055 22.876 50.625Z" fill="#003831"/>
<path d="M42.1441 35.884L43.4102 39.4139L30.2576 44.0985L28.9916 40.5686L42.1441 35.884Z" fill="#F5F5F5"/>
<path d="M84.501 40.5C84.501 45.4706 80.4715 49.5 75.501 49.5C70.5304 49.5 66.501 45.4706 66.501 40.5C66.501 35.5294 70.5304 31.5 75.501 31.5C80.4715 31.5 84.501 35.5294 84.501 40.5Z" fill="#003F37"/>
<path d="M83.001 40.5C83.001 36.3579 79.6431 33 75.501 33C71.3588 33 68.001 36.3579 68.001 40.5C68.001 44.6421 71.3588 48 75.501 48V49.5C70.5304 49.5 66.501 45.4706 66.501 40.5C66.501 35.5294 70.5304 31.5 75.501 31.5C80.4715 31.5 84.501 35.5294 84.501 40.5C84.501 45.4706 80.4715 49.5 75.501 49.5V48C79.6431 48 83.001 44.6421 83.001 40.5Z" fill="#F5F5F5"/>
<path d="M111.376 18.875L120.251 14.5C122.376 21.75 122.251 40.5 116.126 49.125L111.376 18.875Z" fill="#003F37"/>
</svg>
