<svg width="133" height="104" viewBox="0 0 133 104" fill="none" xmlns="http://www.w3.org/2000/svg">
<path fill-rule="evenodd" clip-rule="evenodd" d="M23.626 3.52222C16.126 10.0222 2.75098 38.5222 1.00391 44.022C2.12598 46.1472 17.2694 58.2717 21.5009 59.1472C20.126 66.3972 15.626 91.3972 15.626 94.5222C34.626 110.522 93.6258 101.147 102.126 90.6472C99.1258 75.6472 96.1258 59.1472 96.1258 59.1472C120.626 58.2722 131.338 50.6474 132.751 47.0222C126.501 31.6472 119.376 4.52222 108.501 0.0222168C105.376 0.897217 80.879 5.2953 70.7508 6.1472C70.7508 12.7722 62.876 23.4695 51.251 23.1472C42.0304 22.8916 39.6081 10.5745 38.626 6.14722C32.501 5.27222 28.751 4.85895 23.626 3.52222Z" fill="#F5F5F5"/>
<path fill-rule="evenodd" clip-rule="evenodd" d="M91.251 33.5222C91.6758 35.4868 92.1203 37.5979 92.5773 39.8108C92.343 39.8625 92.104 39.914 91.8605 39.9652C91.5542 35.9728 91.251 33.5222 91.251 33.5222Z" fill="#D3D3D3"/>
<path fill-rule="evenodd" clip-rule="evenodd" d="M83.6789 99.1631L83.6756 99.1639C83.1636 99.3032 82.7245 99.4226 82.376 99.5222C87.8554 93.4948 90.5159 83.0639 91.6858 72.251C93.9531 71.7638 96.2668 71.2302 98.626 70.6472L96.126 57.7722C95.0364 58.0423 93.8125 58.3116 92.4715 58.576C92.4859 57.5264 92.4909 56.4903 92.4879 55.4717C93.5303 55.2909 94.5679 55.1012 95.5995 54.9023C96.9323 61.7137 98.2438 68.5721 99.3779 74.5032C100.8 81.9419 101.944 87.9221 102.501 90.5222C98.9002 95.0232 88.31 97.9035 83.6789 99.1631Z" fill="#D3D3D3"/>
<path fill-rule="evenodd" clip-rule="evenodd" d="M21.501 59.6472C20.626 59.3972 17.876 57.8972 16.001 56.6472L16.0041 56.6398C17.7677 57.7215 19.5444 58.7096 21.251 59.5222L22.6667 51.8368L21.501 59.6472ZM22.876 50.6472L25.626 33.8972L19.376 48.7722C20.6433 49.54 21.9461 50.1277 22.876 50.6472Z" fill="#D3D3D3"/>
<path fill-rule="evenodd" clip-rule="evenodd" d="M7.25098 40.3972C13.0593 26.6785 21.961 11.1817 27.6908 5.42586C26.3844 4.86458 24.7518 4.14255 23.626 3.52222C18.3782 7.97486 8.90632 26.1647 3.75098 37.2722C4.59459 38.2484 5.87598 39.5222 7.25098 40.3972Z" fill="white"/>
<path d="M24.626 3.77222C25.3348 3.93466 26.6534 4.17169 28.2167 4.4359C28.0533 4.75983 27.8765 5.091 27.6905 5.42586C26.3841 4.86458 24.7518 4.14255 23.626 3.52222C23.731 3.54961 24.2766 3.70567 24.5022 3.74217L24.5144 3.74518C24.5548 3.75502 24.5927 3.76428 24.626 3.77222Z" fill="#D3D3D3"/>
<path fill-rule="evenodd" clip-rule="evenodd" d="M38.876 6.14722C38.9139 6.21547 38.9116 6.33031 38.9023 6.48587C38.8966 6.42122 38.8912 6.35658 38.8863 6.29195C38.8826 6.2437 38.8792 6.19545 38.876 6.14722Z" fill="#D3D3D3"/>
<path fill-rule="evenodd" clip-rule="evenodd" d="M3.75098 37.2722C5.00098 38.5222 6.25098 39.7722 7.25098 40.3972C6.04319 43.2499 5.20265 45.3544 4.29321 48.023C2.63217 46.5563 1.41465 45.3123 0.875977 44.5223C0.983744 44.1091 1.11474 43.6771 1.26192 43.2362C1.88306 41.5453 2.50098 40.0222 3.75098 37.2722Z" fill="#F74951"/>
<path fill-rule="evenodd" clip-rule="evenodd" d="M4.29297 48.023C5.20241 45.3543 6.04319 43.2499 7.25098 40.3972C10.7862 43.3055 15.6285 46.5018 19.376 48.7722L16.0038 56.6398C11.5804 53.9267 7.23906 50.6244 4.29297 48.023Z" fill="#DB353C"/>
<path d="M16.0039 56.6398L19.376 48.7722C20.6433 49.54 21.9461 50.1277 22.876 50.6472L22.6665 51.8368L21.501 59.6472C19.7944 58.8346 17.7676 57.7215 16.0039 56.6398Z" fill="#BB181F"/>
<path d="M66.8268 13.4057L66.751 13.3974C67.4472 12.7972 68.0266 12.2016 68.5078 11.623C68.0092 12.2379 67.4433 12.8332 66.8268 13.4057Z" fill="#D3D3D3"/>
<path fill-rule="evenodd" clip-rule="evenodd" d="M68.5081 11.6229C68.0096 12.2378 67.4437 12.8331 66.8271 13.4056C67.4437 12.8331 68.0096 12.2378 68.5081 11.6229Z" fill="#BB181F"/>
<path fill-rule="evenodd" clip-rule="evenodd" d="M91.8605 39.9652C92.1637 43.9171 92.4699 49.3797 92.4879 55.4717C64.7363 60.2842 33.5721 58.7466 22.251 54.7722L24.626 39.5222C43.159 45.3077 76.5079 43.1924 91.8605 39.9652Z" fill="#DB353C"/>
<path d="M92.4878 55.4717C92.4697 49.3797 92.1635 43.9171 91.8604 39.9652C92.1039 39.914 92.3428 39.8625 92.5772 39.8108C93.5508 44.5246 94.5813 49.6998 95.5993 54.9023C94.5678 55.1012 93.5302 55.2909 92.4878 55.4717Z" fill="#BB181F"/>
<path fill-rule="evenodd" clip-rule="evenodd" d="M91.6855 72.251C92.1824 67.6589 92.4104 62.9979 92.4712 58.576C93.8122 58.3116 95.0362 58.0423 96.1258 57.7722L98.6258 70.6472C96.2666 71.2302 93.9529 71.7638 91.6855 72.251Z" fill="#0E0D0D"/>
<path fill-rule="evenodd" clip-rule="evenodd" d="M71.2152 6.058L71.3719 6.04593L71.376 6.02222L64.501 6.52222C65.5394 6.46869 68.361 6.27732 71.2152 6.058ZM64.1757 7.97943C63.9199 8.75925 63.5253 9.66919 63.0219 10.6476C63.4776 9.84473 63.875 9.0257 64.1757 7.97943ZM68.3776 13.576L68.148 13.5592L68.126 13.6472C68.229 13.6538 68.382 13.6628 68.5738 13.6736C68.5862 13.653 68.5985 13.6325 68.6107 13.6119L68.6216 13.5937L68.3857 13.5766L68.3817 13.5763L68.3776 13.576Z" fill="#1F1E1E"/>
<path d="M130.376 40.5222C120.576 49.8222 103.334 52.5639 95.251 52.6472L96.626 60.6472C116.501 61.0222 130.876 52.1472 132.876 47.2722L130.376 40.5222Z" fill="#1F1E1E"/>
<path d="M19.501 70.5222L21.751 57.8972C41.094 64.3757 75.8121 61.8604 92.4715 58.576C92.4106 62.9979 92.1826 67.6589 91.6858 72.251C52.6263 80.6435 27.2983 75.2479 19.501 70.5222Z" fill="#1F1E1E"/>
<path fill-rule="evenodd" clip-rule="evenodd" d="M108.751 0.0222168C112.351 1.72222 115.584 6.14722 116.751 8.14722C106.67 13.9075 87.7303 14.5846 74.9473 14.0063L74.9499 14.0024C74.3995 13.9761 70.1601 13.7626 68.5738 13.6735C68.382 13.6628 68.229 13.6538 68.126 13.6472L68.148 13.5591L68.3776 13.5759L68.3817 13.5762L68.3857 13.5765L68.6216 13.5937C69.9212 11.4096 70.8829 8.90142 71.3719 6.04591L71.2152 6.05797L71.251 6.02222C71.6402 5.99164 72.0469 5.96005 72.4602 5.92795C74.5924 5.76233 76.8995 5.58314 77.8764 5.45935C88.1282 4.16029 101.913 1.47576 108.751 0.0222168ZM61.6635 13.0263C61.8452 12.7354 62.0204 12.4461 62.1884 12.1596C62.4909 11.6436 62.77 11.137 63.0219 10.6476C62.8344 10.9778 62.6371 11.3053 62.4326 11.6447C62.1735 12.0746 61.9027 12.5242 61.626 13.0222L61.6635 13.0263ZM64.1757 7.97939C64.3595 7.41878 64.4717 6.92541 64.501 6.52222C64.4116 7.05866 64.3022 7.53914 64.1757 7.97939Z" fill="#D3D3D3"/>
<path fill-rule="evenodd" clip-rule="evenodd" d="M35.1402 8.17193C35.1252 7.95155 35.1048 7.72101 35.0841 7.4851C35.0275 6.8427 34.9673 6.16054 35.0002 5.53568C34.5654 5.46831 34.1191 5.3983 33.6727 5.3266C31.8749 5.03781 29.9033 4.7211 28.2166 4.43604C28.0532 4.75996 27.8764 5.09114 27.6904 5.42599C29.2568 6.09897 30.8937 6.72057 32.459 7.26933C33.4542 7.61824 34.3339 7.91344 35.1402 8.17193Z" fill="#D3D3D3"/>
<path fill-rule="evenodd" clip-rule="evenodd" d="M35.1406 8.17188C35.4055 11.0919 36.8694 14.4323 38.5015 16.8973C41.0789 20.7901 44.8365 23.6082 50.7575 25.3973V22.8973C48.497 22.6737 45.7059 19.3574 43.7454 15.6484C43.4634 15.1148 43.1985 14.5732 42.9549 14.0315C42.3256 12.6319 41.838 11.2318 41.562 9.96962L41.27 9.89454C39.1687 9.35446 37.4579 8.91477 35.1406 8.17188Z" fill="#DB353C"/>
<path fill-rule="evenodd" clip-rule="evenodd" d="M35.0007 5.52222L35 5.53556C35.4612 5.60703 35.9094 5.67553 36.331 5.73996C37.4505 5.91106 38.3832 6.0536 38.8758 6.14722C38.8774 6.17134 39.5956 6.25306 40.3136 6.33477C40.8011 6.39024 41.2886 6.44571 41.5517 6.48315C41.5549 6.4732 41.5581 6.46331 41.5614 6.45347L35.0007 5.52222Z" fill="#DB353C"/>
<path fill-rule="evenodd" clip-rule="evenodd" d="M38.8759 6.1473C38.3834 6.05369 37.4507 5.91114 36.3312 5.74004C35.9096 5.67562 35.4614 5.60711 35.0002 5.53564C34.9552 6.38997 35.0001 7.39728 35.1402 8.17189C37.4574 8.91476 39.168 9.35443 41.2693 9.89449L41.5616 9.96964C41.2652 8.61396 41.2721 7.3503 41.5519 6.48323C41.2887 6.4458 40.8013 6.39033 40.3138 6.33485C39.5957 6.25315 38.8775 6.17142 38.8759 6.1473Z" fill="#DB353C"/>
<path fill-rule="evenodd" clip-rule="evenodd" d="M71.2148 6.05796L71.3715 6.0459C70.8826 8.90142 69.9208 11.4096 68.6212 13.5937L68.3853 13.5765L68.3813 13.5762L68.3772 13.5759L68.1476 13.5591C65.4104 13.3584 62.7556 13.144 61.6631 13.0263C61.8449 12.7354 62.0201 12.446 62.188 12.1596C62.4906 11.6436 62.7696 11.137 63.0215 10.6476C63.4772 9.84473 63.8746 9.02565 64.1753 7.97939C64.3592 7.41877 64.4713 6.9254 64.5006 6.52221C65.539 6.46869 68.3606 6.27728 71.2148 6.05796Z" fill="#0E0D0D"/>
<path fill-rule="evenodd" clip-rule="evenodd" d="M68.1484 13.5592C65.4112 13.3585 62.7564 13.1441 61.6639 13.0264C61.534 13.2343 61.4007 13.443 61.2643 13.652C60.9911 14.0707 60.7053 14.4907 60.4088 14.9081C57.614 18.8426 53.8694 22.5488 50.7514 22.7828V25.2723C56.0395 24.276 61.8446 21.682 66.0057 17.1159C66.3962 16.6874 66.7722 16.2415 67.132 15.778C67.6479 15.1132 68.1304 14.412 68.5742 13.6736C68.3824 13.6628 68.2294 13.6539 68.1264 13.6473L68.1484 13.5592Z" fill="#1F1E1E"/>
<path fill-rule="evenodd" clip-rule="evenodd" d="M67.9106 13.5417L67.6905 13.5254C67.8223 13.5352 67.9545 13.545 68.0869 13.5547L67.9106 13.5417Z" fill="#0E0D0D"/>
<path d="M61.0913 51.5795L43.0574 51.1384L42.5553 58.3438L51.3309 69.1477L60.8952 59.599L61.0913 51.5795Z" fill="#F5F5F5"/>
<path d="M62.9957 60.5022L51.1634 72.3156L40.3743 59.0333L41.0761 48.9649L63.2646 49.5076L62.9957 60.5022ZM45.0327 53.3116L44.7305 57.6546L51.4923 65.9795L58.7879 58.696L58.9119 53.6517L45.0327 53.3116Z" fill="#F5F5F5"/>
<path d="M61.0913 51.5795L43.0574 51.1384L42.5553 58.3438L51.3309 69.1477L60.8952 59.599L61.0913 51.5795Z" fill="#F5F5F5"/>
<path d="M61.6443 59.6176L61.6375 59.9176L51.272 70.2653L41.7864 58.5874L41.8066 58.2922L42.3586 50.371L61.8588 50.8481L61.6443 59.6176ZM43.7551 51.9055L43.3233 58.1004L51.3878 68.0297L60.1522 59.2796L60.3218 52.31L43.7551 51.9055Z" fill="#1F1E1E"/>
</svg>
