<svg width="133" height="104" viewBox="0 0 133 104" fill="none" xmlns="http://www.w3.org/2000/svg">
<path fill-rule="evenodd" clip-rule="evenodd" d="M1.12954 43.6445C1.08261 43.7803 1.04069 43.9062 1.00391 44.022L1.00737 44.0285L1.01097 44.0352C1.04868 43.9062 1.08827 43.7759 1.12954 43.6445ZM22.5707 4.53842C17.4835 9.95314 9.51957 25.0704 4.58548 35.4924C9.20255 25.4702 17.0829 10.305 22.5707 4.53842ZM23.626 3.52222C24.7518 4.14255 26.3841 4.86456 27.6905 5.42584C29.0661 6.01685 30.496 6.56824 31.8841 7.06546C34.4929 20.898 44.0561 26.2909 50.126 29.1472C62.946 26.9425 71.5373 19.7513 75.374 14.0251C88.1256 14.568 106.715 13.8463 116.697 8.17773C114.21 4.22063 111.498 1.26233 108.501 0.0222168C105.376 0.897217 80.879 5.2953 70.7508 6.1472C70.7508 12.7722 62.876 23.4695 51.251 23.1472C42.3087 22.8993 39.7605 11.307 38.719 6.56914L38.717 6.55998C38.6853 6.41585 38.655 6.27808 38.626 6.14722C37.7022 6.01526 36.8319 5.89371 36.0033 5.77802L36.0008 5.77765C31.3373 5.12637 27.9769 4.65707 23.626 3.52222ZM7.25098 40.3973C7.19618 40.3624 7.14149 40.3269 7.08702 40.2908C7.14237 40.328 7.19704 40.3636 7.25098 40.3973ZM21.4116 59.6195L21.4142 59.6057C21.4432 59.6196 21.4721 59.6335 21.501 59.6472C21.4731 59.6392 21.4432 59.63 21.4116 59.6195Z" fill="#1F1E1E"/>
<path fill-rule="evenodd" clip-rule="evenodd" d="M21.4117 59.6194C21.4434 59.6299 21.4732 59.6391 21.5011 59.6471C21.4723 59.6334 21.4433 59.6195 21.4143 59.6056L21.4117 59.6194Z" fill="#D3D3D3"/>
<path fill-rule="evenodd" clip-rule="evenodd" d="M3.76703 37.2907C4.02622 36.7138 4.3 36.1121 4.58548 35.4924C4.29652 36.1027 4.01796 36.697 3.75098 37.2722L3.76703 37.2907ZM23.626 3.52222C23.2907 3.80669 22.9382 4.14725 22.5707 4.53844C22.9334 4.15723 23.2858 3.81709 23.626 3.52222Z" fill="white"/>
<path d="M24.626 3.77222C25.3348 3.93466 26.6534 4.17169 28.2167 4.4359C28.0533 4.75983 27.8765 5.091 27.6905 5.42586C26.3841 4.86458 24.7518 4.14255 23.626 3.52222C23.731 3.54961 24.2766 3.70567 24.5022 3.74217L24.5144 3.74518C24.5548 3.75502 24.5927 3.76428 24.626 3.77222Z" fill="#0E0D0D"/>
<path fill-rule="evenodd" clip-rule="evenodd" d="M38.9023 6.48599C38.9116 6.33043 38.9139 6.21559 38.876 6.14734C38.3834 6.05373 37.4507 5.91118 36.3312 5.74008C35.512 5.61488 34.5928 5.4744 33.6727 5.3266C31.8749 5.03781 29.9033 4.7211 28.2166 4.43604C28.0532 4.75996 27.8764 5.09114 27.6904 5.42599C29.066 6.01699 30.496 6.56839 31.8841 7.06561C32.0766 7.13457 32.2683 7.20249 32.459 7.26933C32.3312 6.5871 32.2198 5.88016 32.126 5.14735L38.876 6.14734C38.8792 6.19557 38.8826 6.24382 38.8863 6.29207C38.8912 6.3567 38.8966 6.42134 38.9023 6.48599Z" fill="#0E0D0D"/>
<path fill-rule="evenodd" clip-rule="evenodd" d="M1.12988 43.6446C1.58656 42.3234 2.5159 40.0765 3.76737 37.2908C3.76331 37.2867 3.75986 37.282 3.75616 37.2776C3.75461 37.2757 3.75302 37.2739 3.75132 37.2722C2.50132 40.0222 1.8834 41.5453 1.26226 43.2362C1.2165 43.3733 1.1723 43.5095 1.12988 43.6446Z" fill="#137F53"/>
<path d="M66.8268 13.4055L66.751 13.3972C67.4472 12.797 68.0266 12.2015 68.5078 11.6229C68.0092 12.2377 67.4433 12.8331 66.8268 13.4055Z" fill="#0E0D0D"/>
<path fill-rule="evenodd" clip-rule="evenodd" d="M22.876 50.6471L22.6665 51.8367L21.501 59.6471C21.4731 59.6392 21.4432 59.6299 21.4116 59.6194C19.9417 67.422 15.626 91.4618 15.626 94.5222C34.626 110.522 93.6258 101.147 102.126 90.6472C99.1258 75.6472 96.1258 59.1472 96.1258 59.1472C120.626 58.2722 131.338 50.6474 132.751 47.0222C131.378 43.6448 129.963 39.7006 128.475 35.5537C125.056 26.0246 121.254 15.4257 116.697 8.17767C106.715 13.8463 88.1256 14.568 75.374 14.025C71.5373 19.7513 62.946 26.9424 50.126 29.1471C44.0561 26.2908 34.4929 20.8979 31.8841 7.0654C30.496 6.56818 29.0661 6.01678 27.6905 5.42578C21.9608 11.1817 13.0593 26.6785 7.25098 40.3972C6.12334 43.0606 5.31561 45.0717 4.47324 47.4987C4.41337 47.6712 4.35332 47.8458 4.29297 48.0229C7.23906 50.6244 11.5805 53.9267 16.0039 56.6397L16.1235 56.3608L19.376 48.7721L25.626 33.8971L22.876 50.6471Z" fill="#1F1E1E"/>
<path d="M130.376 40.5222C120.576 49.8222 103.334 52.5639 95.251 52.6472L96.626 60.6472C116.501 61.0222 130.876 52.1472 132.876 47.2722L130.376 40.5222Z" fill="#DBC54E"/>
<path fill-rule="evenodd" clip-rule="evenodd" d="M7.25098 40.3973C13.0593 26.6785 21.9608 11.1817 27.6905 5.42584C26.3841 4.86456 24.7518 4.14255 23.626 3.52222C23.2858 3.81708 22.9334 4.15721 22.5707 4.53842C17.4835 9.95314 9.51957 25.0704 4.58548 35.4924C4.3 36.1121 4.02699 36.7121 3.7678 37.289C2.51633 40.0747 1.58622 42.3233 1.12954 43.6445C1.08827 43.7759 1.04868 43.9062 1.01097 44.0352C0.962772 44.2 0.917637 44.3625 0.875977 44.5222C1.41465 45.3122 2.63193 46.5562 4.29297 48.023C4.35332 47.8459 4.41337 47.6713 4.47324 47.4988C5.31561 45.0717 6.12334 43.0607 7.25098 40.3973ZM7.08702 40.2908C7.14237 40.328 7.19704 40.3636 7.25098 40.3973C7.19618 40.3624 7.14149 40.3269 7.08702 40.2908Z" fill="#302E2E"/>
<path fill-rule="evenodd" clip-rule="evenodd" d="M21.501 59.6472C21.4721 59.6335 21.4432 59.6197 21.4142 59.6058L21.4116 59.6195C20.4514 59.3018 17.8162 57.8573 16.001 56.6472L16.0039 56.6398L16.1235 56.3609L19.376 48.7722L25.626 33.8972L22.876 50.6472L22.6665 51.8368L21.501 59.6472Z" fill="#0E0D0D"/>
<path d="M16.0039 56.6398L19.376 48.7722C20.6433 49.54 21.9461 50.1277 22.876 50.6472L22.6665 51.8368L21.501 59.6472C19.7944 58.8346 17.7676 57.7215 16.0039 56.6398Z" fill="#BFA726"/>
<path fill-rule="evenodd" clip-rule="evenodd" d="M7.08703 40.2908C5.78315 39.4269 4.57695 38.2255 3.76702 37.2908C2.51555 40.0764 1.58621 42.3234 1.12953 43.6446C1.08827 43.776 1.04868 43.9063 1.01097 44.0352C0.96277 44.2 0.917638 44.3625 0.875977 44.5222C1.41465 45.3123 2.63193 46.5563 4.29297 48.023C4.35332 47.8459 4.41336 47.6713 4.47324 47.4988C5.31561 45.0718 6.12334 43.0606 7.25098 40.3972C7.19618 40.3624 7.14151 40.3269 7.08703 40.2908Z" fill="#F6E272"/>
<path fill-rule="evenodd" clip-rule="evenodd" d="M15.2096 46.1446C12.4461 44.3328 9.56783 42.3032 7.25098 40.3972C6.12334 43.0606 5.31561 45.0718 4.47324 47.4988C4.41336 47.6713 4.35332 47.8459 4.29297 48.023C4.98938 48.638 5.76376 49.2921 6.59876 49.9683C9.2961 52.1528 12.626 54.568 16.0038 56.6398L16.1234 56.3608L19.376 48.7722C18.0844 47.9897 16.6629 47.0973 15.2096 46.1446Z" fill="#DBC54E"/>
<path d="M20.001 65.6472L24.251 42.0222L22.501 98.5222C20.751 97.8972 19.501 97.2722 18.751 96.7722L20.001 65.6472Z" fill="#F5F5F5"/>
<path d="M32.001 101.397L32.876 5.77222C33.751 15.7722 35.876 16.5222 37.126 19.0222L36.251 102.147C35.126 102.022 33.251 101.731 32.001 101.397Z" fill="#F5F5F5"/>
<path d="M57.376 24.8972C54.626 25.2722 54.251 25.0222 52.626 25.1472L52.251 102.86C54.626 103.026 55.501 103.022 57.376 102.86V24.8972Z" fill="#F5F5F5"/>
<path fill-rule="evenodd" clip-rule="evenodd" d="M91.251 33.5222C91.251 33.5222 91.5541 35.9728 91.8604 39.9652C92.1635 43.9171 92.4697 49.3797 92.4878 55.4717C92.4908 56.4903 92.4857 57.5264 92.4712 58.576C92.429 61.6425 92.3064 64.824 92.0696 68.0178C91.9649 69.4294 91.8378 70.8434 91.6855 72.251C90.859 79.8905 89.1637 87.277 86.3074 93.0802C85.1209 95.4909 83.7341 97.6283 82.126 99.3972C83.3422 99.0497 84.6457 98.723 85.9915 98.3857C86.1601 98.3434 86.3306 98.3007 86.5005 98.258C88.4156 97.7771 90.4041 97.267 92.3398 96.6394C96.3138 95.351 100.065 93.5671 102.501 90.5222C101.944 87.9221 100.8 81.9419 99.3779 74.5032C98.2438 68.5721 96.9322 61.7137 95.5993 54.9023C94.5813 49.6998 93.5508 44.5246 92.5772 39.8108C92.1201 37.5979 91.6758 35.4868 91.251 33.5222Z" fill="#0E0D0D"/>
<path fill-rule="evenodd" clip-rule="evenodd" d="M91.4965 35.7992C91.3521 34.3396 91.251 33.5222 91.251 33.5222C91.6758 35.4868 92.1201 37.5979 92.5772 39.8108C93.5508 44.5246 94.5813 49.6998 95.5993 54.9023C96.9322 61.7137 98.2438 68.5721 99.3779 74.5032C100.8 81.9419 101.944 87.9221 102.501 90.5222C100.723 92.7441 98.2455 94.2946 95.4917 95.471L94.501 49.8972L91.4965 35.7992ZM91.2864 75.4418C90.3615 81.9282 88.7638 88.0896 86.3074 93.0802C85.1209 95.4909 83.7341 97.6283 82.126 99.3972C83.3422 99.0497 84.6457 98.723 85.9915 98.3857C86.1601 98.3434 86.3306 98.3007 86.5005 98.258C88.0581 97.8668 89.6642 97.4564 91.251 96.9792C91.2518 93.9655 91.2605 89.3663 91.2709 83.9327C91.2759 81.273 91.2813 78.4133 91.2864 75.4418Z" fill="#0E0D0D"/>
<path d="M91.2864 75.4418C91.3107 61.1716 91.3266 44.3218 91.251 34.6472L91.4965 35.7992C91.6021 36.867 91.7309 38.2785 91.8604 39.9652C92.1635 43.9171 92.4697 49.3797 92.4878 55.4717C92.4908 56.4903 92.4857 57.5264 92.4712 58.576C92.429 61.6425 92.3064 64.824 92.0696 68.0178C91.9649 69.4294 91.8378 70.8434 91.6855 72.251C91.5698 73.3208 91.437 74.3856 91.2864 75.4418Z" fill="#F5F5F5"/>
<path fill-rule="evenodd" clip-rule="evenodd" d="M94.5009 49.8974L95.4917 95.4711C94.4717 95.9069 93.4138 96.2913 92.3397 96.6396C91.9784 96.7567 91.6152 96.8698 91.251 96.9793C91.2517 93.9656 91.2605 89.3664 91.2708 83.9328C91.2759 81.2731 91.2813 78.4134 91.2864 75.4419C91.437 74.3857 91.5698 73.3209 91.6855 72.2511C91.8378 70.8436 91.9648 69.4295 92.0695 68.0179C92.3064 64.8241 92.429 61.6427 92.4712 58.5762C92.4856 57.5265 92.4907 56.4904 92.4877 55.4718C92.4697 49.3799 92.1635 43.9172 91.8603 39.9653C91.7309 38.2786 91.6021 36.8671 91.4964 35.7993L94.5009 49.8974Z" fill="#D3D3D3"/>
<path d="M70.7508 6.14722C70.1508 6.14722 75.2927 5.73055 77.876 5.39722L77.8765 5.45935C75.1978 5.79878 72.7602 6.04364 70.7508 6.14722C70.8181 7.05615 70.532 9.18903 68.5078 11.6229C69.8865 9.92273 70.7508 8.07362 70.7508 6.14722Z" fill="#DBC54E"/>
<path d="M51.001 18.7722C43.751 17.9813 39.3931 12.002 38.9023 6.48586L38.8983 6.55043L38.8983 6.55103C38.8833 6.78595 38.8633 7.10048 38.9316 7.47824C39.0265 8.00403 39.1436 8.6523 39.3048 9.37889C37.771 8.98238 34.644 7.99266 31.876 7.02222L31.8841 7.06548C33.376 18.0222 39.6505 24.4866 50.126 25.1472C64.001 26.0222 70.7508 19.7722 75.3741 14.0251L75.376 14.0222C72.2178 13.8793 68.931 13.6356 66.751 13.3972C64.9251 15.3889 57.251 19.454 51.001 18.7722Z" fill="#DBC54E"/>
<path fill-rule="evenodd" clip-rule="evenodd" d="M39.3048 9.37889C37.7709 8.98238 34.6438 7.99266 31.8758 7.02222C31.748 6.33998 31.7198 5.75502 31.626 5.02222L38.8759 6.1472C38.8792 6.19543 38.8826 6.24368 38.8863 6.29193C38.8912 6.35657 38.8965 6.4212 38.9023 6.48586C38.901 6.50684 38.8997 6.52856 38.8982 6.55103C38.8833 6.78595 38.8633 7.10048 38.9315 7.47824C39.0265 8.00403 39.1436 8.6523 39.3048 9.37889Z" fill="#BFA726"/>
<path fill-rule="evenodd" clip-rule="evenodd" d="M116.751 8.14722C115.584 6.14722 112.351 1.72222 108.751 0.0222168C104.113 1.0081 96.2791 2.56028 88.5196 3.86236C86.6652 4.17354 84.815 4.47044 83.0137 4.74191C81.2396 5.00927 79.513 5.25197 77.8763 5.45935C77.8895 7.97458 76.9657 10.9929 74.9473 14.0063C75.0887 14.0127 75.2309 14.019 75.3739 14.0251C77.8524 14.1306 80.5516 14.1884 83.3652 14.1713C85.2309 14.16 87.1469 14.1158 89.0823 14.0308C99.2446 13.5845 109.942 12.0139 116.697 8.17775L116.727 8.16081L116.751 8.14722Z" fill="#0E0D0D"/>
<path fill-rule="evenodd" clip-rule="evenodd" d="M66.8271 13.4057C67.4437 12.8332 68.0096 12.2379 68.5081 11.623C70.5324 9.18915 70.8185 7.05627 70.7511 6.14734C72.7606 6.04376 75.1981 5.7989 77.8769 5.45947C77.8901 7.9747 77.3949 11.0089 75.3765 14.0223C72.2183 13.8795 69.0072 13.6441 66.8271 13.4057Z" fill="#BFA726"/>
<path d="M78.001 6.02222C76.626 14.7722 73.876 14.8972 73.251 16.6472V101.272C75.001 101.147 76.126 100.897 77.376 100.647L78.001 6.02222Z" fill="#F5F5F5"/>
<path d="M42.1441 35.9062L43.4102 39.4362L30.2576 44.1208L28.9916 40.5908L42.1441 35.9062Z" fill="#F5F5F5"/>
<path d="M84.501 40.5222C84.501 45.4928 80.4715 49.5222 75.501 49.5222C70.5304 49.5222 66.501 45.4928 66.501 40.5222C66.501 35.5517 70.5304 31.5222 75.501 31.5222C80.4715 31.5222 84.501 35.5517 84.501 40.5222Z" fill="#1F1E1E"/>
<path d="M83.001 40.5222C83.001 36.3801 79.6431 33.0222 75.501 33.0222C71.3588 33.0222 68.001 36.3801 68.001 40.5222C68.001 44.6644 71.3588 48.0222 75.501 48.0222V49.5222C70.5304 49.5222 66.501 45.4928 66.501 40.5222C66.501 35.5517 70.5304 31.5222 75.501 31.5222C80.4715 31.5222 84.501 35.5517 84.501 40.5222C84.501 45.4928 80.4715 49.5222 75.501 49.5222V48.0222C79.6431 48.0222 83.001 44.6644 83.001 40.5222Z" fill="#F5F5F5"/>
</svg>
