<svg width="133" height="104" viewBox="0 0 133 104" fill="none" xmlns="http://www.w3.org/2000/svg">
<path fill-rule="evenodd" clip-rule="evenodd" d="M21.4116 59.6195C21.4432 59.63 21.4731 59.6392 21.501 59.6472L21.8485 57.3186L22.3141 54.1985L22.5664 52.5077L22.6665 51.8368L22.876 50.6472L23.0574 49.5423L23.2406 48.4263L23.7078 45.5808L23.891 44.4648L24.2717 42.1462L24.409 41.3097L24.8541 38.5984L24.9457 38.0407L25.3538 35.5551L25.3996 35.2762L25.626 33.8972L25.1318 35.0734L13.8499 26.5285C18.6351 17.4393 23.8687 9.26535 27.6908 5.42581C26.3844 4.86455 24.7519 4.14254 23.6261 3.52222C19.9192 6.73487 14.777 15.3218 10.313 23.8497C10.2738 23.9246 10.2347 23.9995 10.1956 24.0743C9.84516 24.7455 9.49901 25.4161 9.15822 26.0833C9.08111 26.2343 9.00427 26.3851 8.92771 26.5357C8.55048 27.2779 8.18018 28.0152 7.81826 28.744C7.70457 28.9729 7.59172 29.2009 7.47973 29.4281C7.16272 30.071 6.85267 30.7062 6.5506 31.3312C6.40116 31.6404 6.25367 31.9471 6.10825 32.251C5.72191 33.0584 5.3502 33.8458 4.99542 34.6074C4.85595 34.9069 4.7191 35.2023 4.585 35.4934C4.58171 35.5005 4.57832 35.5076 4.57492 35.5147C4.5715 35.5218 4.56808 35.5289 4.56478 35.5361C2.91065 39.1287 1.67857 42.0559 1.12953 43.6445C1.08262 43.7803 1.04068 43.9062 1.00391 44.022C1.0062 44.0263 1.00856 44.0307 1.01097 44.0352C2.18788 46.1967 17.278 58.2735 21.5009 59.1472C21.4724 59.2972 21.4426 59.4547 21.4116 59.6195Z" fill="url(#paint0_radial_7504_19535)"/>
<path fill-rule="evenodd" clip-rule="evenodd" d="M7.25098 40.3972C9.18478 35.8297 11.4615 31.0651 13.8499 26.5286C18.6351 17.4393 23.8687 9.26539 27.6908 5.42586C26.3844 4.86458 24.7518 4.14255 23.626 3.52222C18.6498 7.74439 9.87553 24.3185 4.585 35.4934C4.57825 35.5077 4.57151 35.5219 4.56478 35.5361C4.28322 36.1311 4.01158 36.7107 3.75098 37.2722C4.59459 38.2484 5.87598 39.5222 7.25098 40.3972Z" fill="url(#paint1_radial_7504_19535)"/>
<path fill-rule="evenodd" clip-rule="evenodd" d="M4.29297 48.023C5.20241 45.3543 6.04319 43.2499 7.25098 40.3972C10.7862 43.3055 15.6285 46.5018 19.376 48.7722L16.0038 56.6398C11.5804 53.9267 7.23906 50.6244 4.29297 48.023Z" fill="#1F1E1E"/>
<path fill-rule="evenodd" clip-rule="evenodd" d="M25.1318 35.0735L25.3996 35.2763L25.3538 35.5552L10.1956 24.0744C10.2347 23.9996 10.2738 23.9247 10.313 23.8499L13.8499 26.5287L25.1318 35.0735Z" fill="#1F1E1E"/>
<path fill-rule="evenodd" clip-rule="evenodd" d="M24.8547 38.5985L24.9463 38.0409L9.15881 26.0835C9.0817 26.2345 9.00486 26.3853 8.9283 26.5359L24.8547 38.5985Z" fill="#1F1E1E"/>
<path fill-rule="evenodd" clip-rule="evenodd" d="M24.4092 41.3099L7.81845 28.7441C7.70477 28.973 7.59191 29.2011 7.47992 29.4282L24.2719 42.1464L24.4092 41.3099Z" fill="#1F1E1E"/>
<path fill-rule="evenodd" clip-rule="evenodd" d="M23.7084 45.5809L23.8916 44.4648L6.5512 31.3313C6.40176 31.6405 6.25427 31.9472 6.10885 32.2511L23.7084 45.5809Z" fill="#1F1E1E"/>
<path fill-rule="evenodd" clip-rule="evenodd" d="M23.2412 48.4263L4.99603 34.6074C4.85656 34.9068 4.71971 35.2023 4.58561 35.4934L4.56539 35.5361L23.058 49.5423L23.2412 48.4263Z" fill="#1F1E1E"/>
<path fill-rule="evenodd" clip-rule="evenodd" d="M22.8767 50.6472L22.6673 51.8368L22.5671 52.5077L22.3148 54.1985L21.8492 57.3186L21.5017 59.6472C21.4738 59.6392 21.444 59.63 21.4123 59.6195C21.3698 59.845 21.325 60.084 21.2779 60.3357C19.6966 68.7939 15.6267 91.5503 15.6267 94.5222C28.778 105.597 61.0933 104.515 82.561 99.3166C87.9159 93.2595 90.5298 82.942 91.6865 72.251C91.9268 70.0299 92.1042 67.7927 92.2302 65.5743C92.2983 64.3764 92.3513 63.184 92.3912 62.0025C92.4302 60.8482 92.4566 59.7043 92.4722 58.576L92.4736 58.4673C92.482 57.8309 92.4869 57.1995 92.4887 56.5741C92.4898 56.2045 92.4897 55.8369 92.4886 55.4717C92.4864 54.7215 92.4798 53.9809 92.4694 53.2514C92.4634 52.8348 92.4563 52.4219 92.4479 52.0129C92.426 50.9395 92.3962 49.8933 92.3604 48.8799C92.3458 48.4679 92.3302 48.0612 92.3137 47.6604C92.2781 46.7928 92.2383 45.9524 92.1957 45.1429C92.1796 44.8374 92.1631 44.5364 92.1462 44.2399C92.0879 43.212 92.0254 42.2395 91.9615 41.3309C91.9474 41.1295 91.9332 40.9312 91.9189 40.7362C91.8997 40.4732 91.8805 40.2161 91.8612 39.9651C91.8101 39.2992 91.7591 38.6762 91.7096 38.1003C91.7048 38.0452 91.7001 37.9905 91.6954 37.9362C91.6916 37.8926 91.6878 37.8492 91.6841 37.8062C91.4479 35.1079 91.2517 33.5222 91.2517 33.5222C91.5256 34.7892 91.8078 36.1171 92.0962 37.494L120.748 15.7933C117.213 8.156 113.208 1.96991 108.502 0.0222168C105.377 0.897217 80.8797 5.2953 70.7516 6.1472C70.7516 12.7722 62.8767 23.4695 51.2517 23.1472C42.3095 22.8993 39.7612 11.307 38.7197 6.56912C38.6873 6.42167 38.6563 6.28085 38.6267 6.14722C37.702 6.01512 36.8315 5.89355 36.0022 5.77773C31.3381 5.12639 27.978 4.65712 23.6267 3.52219C24.7525 4.14252 26.3851 4.86456 27.6915 5.42583C23.8694 9.26537 18.6359 17.4393 13.8506 26.5286L25.1325 35.0734L25.6267 33.8972L25.4003 35.2763L25.3545 35.5551L24.9464 38.0407L24.8549 38.5984L24.4097 41.3098L24.2724 42.1462L23.8917 44.4648L23.7085 45.5808L23.2413 48.4263L23.0581 49.5424L22.8767 50.6472Z" fill="url(#paint2_radial_7504_19535)"/>
<path fill-rule="evenodd" clip-rule="evenodd" d="M120.747 15.7935L92.0958 37.4941C91.8074 36.1173 91.5252 34.7893 91.2513 33.5223C91.2513 33.5223 91.4475 35.108 91.6836 37.8063C91.6921 37.9029 91.7006 38.001 91.7092 38.1005C91.7587 38.6764 91.8097 39.2994 91.8608 39.9653C91.88 40.2162 91.8993 40.4733 91.9185 40.7363C91.9328 40.9313 91.947 41.1296 91.9611 41.331C92.0249 42.2397 92.0874 43.2121 92.1458 44.24C92.1627 44.5365 92.1792 44.8376 92.1953 45.1431C92.2379 45.9525 92.2776 46.793 92.3133 47.6605C92.3298 48.0614 92.3453 48.468 92.3599 48.88C92.3958 49.8934 92.4256 50.9396 92.4475 52.013C92.4558 52.422 92.463 52.835 92.469 53.2516C92.4794 53.981 92.486 54.7216 92.4882 55.4718C92.4893 55.8371 92.4893 56.2046 92.4883 56.5742C92.4865 57.1996 92.4816 57.831 92.4732 58.4674L92.4717 58.5761C92.4562 59.7044 92.4298 60.8483 92.3908 62.0027C92.3509 63.1841 92.2978 64.3765 92.2298 65.5744C92.1038 67.7928 91.9264 70.03 91.6861 72.2511C90.5294 82.9421 87.9155 93.2597 82.5605 99.3167C92.1078 97.0051 99.5096 93.8795 102.126 90.6473C99.1261 75.6473 96.1261 59.1473 96.1261 59.1473C120.626 58.2723 131.338 50.6475 132.751 47.0223C131.603 44.198 130.425 40.9772 129.2 37.573C128.961 36.9064 128.719 36.2328 128.475 35.5538C128.393 35.324 128.31 35.0918 128.227 34.8607C127.903 33.9584 127.575 33.0476 127.244 32.1319C127.067 31.6411 126.888 31.1489 126.709 30.6558C126.392 29.7874 126.072 28.9164 125.748 28.046C125.627 27.7199 125.505 27.3939 125.383 27.0681C125.071 26.2381 124.755 25.4097 124.436 24.5856C124.311 24.262 124.185 23.939 124.058 23.6169C123.795 22.9455 123.529 22.2777 123.26 21.615C123.162 21.3749 123.064 21.1354 122.966 20.8967C122.646 20.1174 122.322 19.3459 121.993 18.5847C121.925 18.427 121.857 18.2696 121.789 18.1128C121.481 17.4071 121.17 16.7107 120.855 16.0258C120.819 15.9482 120.783 15.8707 120.747 15.7935Z" fill="url(#paint3_radial_7504_19535)"/>
<path d="M130.376 40.5222C120.576 49.8222 103.334 52.5639 95.251 52.6472L96.626 60.6472C116.501 61.0222 130.876 52.1472 132.876 47.2722L130.376 40.5222Z" fill="#1F1E1E"/>
<path fill-rule="evenodd" clip-rule="evenodd" d="M120.747 15.7935L92.0955 37.4941L91.6834 37.8063C91.6918 37.9029 91.7003 38.001 91.7089 38.1005L120.854 16.0258C120.819 15.9482 120.783 15.8707 120.747 15.7935Z" fill="#1F1E1E"/>
<path fill-rule="evenodd" clip-rule="evenodd" d="M121.789 18.1128C121.857 18.2697 121.926 18.427 121.994 18.5848L91.9615 41.331C91.9474 41.1296 91.9332 40.9314 91.9189 40.7363L121.789 18.1128Z" fill="#1F1E1E"/>
<path fill-rule="evenodd" clip-rule="evenodd" d="M122.966 20.8965C123.064 21.1352 123.162 21.3746 123.259 21.6148L92.1949 45.1428C92.1788 44.8374 92.1623 44.5363 92.1455 44.2398L122.966 20.8965Z" fill="#1F1E1E"/>
<path fill-rule="evenodd" clip-rule="evenodd" d="M124.436 24.5854C124.311 24.2618 124.185 23.9388 124.059 23.6167L92.3135 47.6604C92.3299 48.0612 92.3455 48.4678 92.3601 48.8799L124.436 24.5854Z" fill="#1F1E1E"/>
<path fill-rule="evenodd" clip-rule="evenodd" d="M125.748 28.0458C125.627 27.7197 125.505 27.3937 125.382 27.0679L92.4473 52.0128C92.4556 52.4218 92.4628 52.8347 92.4688 53.2513L125.748 28.0458Z" fill="#1F1E1E"/>
<path fill-rule="evenodd" clip-rule="evenodd" d="M92.4736 58.4674C92.482 57.8309 92.4869 57.1996 92.4887 56.5741L126.709 30.6558C126.889 31.1488 127.067 31.641 127.245 32.1318L92.4736 58.4674Z" fill="#1F1E1E"/>
<path d="M24.626 3.77222C25.3348 3.93466 26.6534 4.17169 28.2167 4.4359C28.0533 4.75983 27.8765 5.091 27.6905 5.42586C26.3841 4.86458 24.7518 4.14255 23.626 3.52222C23.731 3.54961 24.2766 3.70567 24.5022 3.74217L24.5144 3.74518C24.5548 3.75502 24.5927 3.76428 24.626 3.77222Z" fill="#B23B40"/>
<path fill-rule="evenodd" clip-rule="evenodd" d="M38.9023 6.48599C38.9116 6.33043 38.9139 6.21559 38.876 6.14734C38.3834 6.05373 37.4507 5.91118 36.3312 5.74008C35.512 5.61488 34.5928 5.4744 33.6727 5.3266C31.8749 5.03781 29.9033 4.7211 28.2166 4.43604C28.0532 4.75996 27.8764 5.09114 27.6904 5.42599C29.2568 6.09897 30.8937 6.72057 32.459 7.26933C32.3312 6.5871 32.2198 5.88016 32.126 5.14735L38.876 6.14734C38.8792 6.19557 38.8826 6.24382 38.8863 6.29207C38.8912 6.3567 38.8966 6.42134 38.9023 6.48599Z" fill="#B23B40"/>
<path d="M108.751 0.0222168C112.351 1.72222 115.584 6.14722 116.751 8.14722C106.67 13.9075 87.7302 14.5846 74.9473 14.0063C76.9657 10.9929 77.8895 7.97458 77.8763 5.45935C88.1282 4.16029 101.913 1.47576 108.751 0.0222168Z" fill="url(#paint4_linear_7504_19535)"/>
<path fill-rule="evenodd" clip-rule="evenodd" d="M39.3048 9.37889C37.7709 8.98238 34.6438 7.99266 31.8758 7.02222C31.748 6.33998 31.7198 5.75502 31.626 5.02222L38.8759 6.1472C38.8792 6.19543 38.8826 6.24368 38.8863 6.29193C38.8912 6.35657 38.8965 6.4212 38.9023 6.48586C38.901 6.50684 38.8997 6.52856 38.8982 6.55103C38.8833 6.78595 38.8633 7.10048 38.9315 7.47824C39.0265 8.00403 39.1436 8.6523 39.3048 9.37889Z" fill="#0E0D0D"/>
<path fill-rule="evenodd" clip-rule="evenodd" d="M66.8271 13.4057C67.4437 12.8332 68.0096 12.2379 68.5081 11.623C70.5324 9.18915 70.8185 7.05627 70.7511 6.14734C72.7606 6.04376 75.1981 5.7989 77.8769 5.45947C77.8901 7.9747 77.3949 11.0089 75.3765 14.0223C72.2183 13.8795 69.0072 13.6441 66.8271 13.4057Z" fill="#0E0D0D"/>
<path fill-rule="evenodd" clip-rule="evenodd" d="M91.8604 39.9651C92.1636 43.917 92.4696 49.3797 92.4877 55.4716C92.4696 49.3797 92.1636 43.917 91.8604 39.9651Z" fill="#095034"/>
<path fill-rule="evenodd" clip-rule="evenodd" d="M92.4715 58.5759C92.4106 62.9978 92.1824 67.6588 91.6855 72.2509C92.1824 67.6588 92.4106 62.9978 92.4715 58.5759Z" fill="#095034"/>
<path d="M70.7508 6.14722C70.1508 6.14722 75.2927 5.73055 77.876 5.39722L77.8765 5.45935C75.1978 5.79878 72.7602 6.04364 70.7508 6.14722C70.8181 7.05615 70.532 9.18903 68.5078 11.6229C69.8865 9.92273 70.7508 8.07362 70.7508 6.14722Z" fill="#1F1E1E"/>
<path d="M50.876 21.0222C42.9138 17.5924 39.3931 12.002 38.9023 6.48586L38.8983 6.55043L38.8983 6.55103C38.8833 6.78595 38.8633 7.10048 38.9316 7.47824C39.0265 8.00403 39.1436 8.6523 39.3048 9.37889C37.771 8.98238 34.644 7.99266 31.876 7.02222C34.473 20.8868 44.0498 26.2879 50.126 29.1472C62.9482 26.9421 71.5402 19.7489 75.376 14.0222C72.2178 13.8793 69.0069 13.644 66.8268 13.4055C61.9571 17.927 53.9232 21.0222 50.876 21.0222Z" fill="#1F1E1E"/>
<path fill-rule="evenodd" clip-rule="evenodd" d="M87.7409 23.2935L26.1758 69.9227L26.3267 70.1219L87.8506 23.5239C87.8141 23.4466 87.7775 23.3698 87.7409 23.2935Z" fill="#1F1E1E"/>
<path fill-rule="evenodd" clip-rule="evenodd" d="M88.778 25.6162C88.8436 25.7741 88.9089 25.9336 88.9739 26.0948L28.4023 71.9715L28.1006 71.5731L88.778 25.6162Z" fill="#1F1E1E"/>
<path fill-rule="evenodd" clip-rule="evenodd" d="M90.1195 29.2161C90.0353 28.9636 89.9503 28.7145 89.8645 28.4688L30.7744 73.2234L31.2271 73.821L90.1195 29.2161Z" fill="#1F1E1E"/>
<path fill-rule="evenodd" clip-rule="evenodd" d="M90.7788 31.3237C90.8779 31.6626 90.9755 32.007 91.0714 32.3569L33.5532 75.921L32.9492 75.1236L90.7788 31.3237Z" fill="#1F1E1E"/>
<path fill-rule="evenodd" clip-rule="evenodd" d="M91.9855 36.1186C91.9079 35.7554 91.8285 35.3973 91.7473 35.0442L35.1992 77.8735L35.8032 78.6709L91.9855 36.1186Z" fill="#1F1E1E"/>
<path fill-rule="evenodd" clip-rule="evenodd" d="M92.228 39.2722C92.3235 39.82 92.4149 40.3781 92.5017 40.9467L37.6567 82.4861L36.751 81.2903L92.228 39.2722Z" fill="#1F1E1E"/>
<path fill-rule="evenodd" clip-rule="evenodd" d="M93.5446 47.0795C93.4571 45.9754 93.3535 44.9039 93.2352 43.864L40.6709 83.676L42.3311 85.8684L93.5446 47.0795Z" fill="#1F1E1E"/>
<path fill-rule="evenodd" clip-rule="evenodd" d="M93.8741 55.0149C93.8635 53.3139 93.8173 51.6761 93.739 50.0996L43.7939 87.9278L46.209 91.1163L93.8741 55.0149Z" fill="#1F1E1E"/>
<path fill-rule="evenodd" clip-rule="evenodd" d="M92.5773 39.8108C92.415 39.0251 92.2543 38.2521 92.0955 37.4941C91.8071 36.1172 91.5249 34.7892 91.251 33.5222C91.251 33.5222 91.4472 35.1079 91.6834 37.8062C91.6918 37.9028 91.7003 38.0009 91.7089 38.1004C91.7584 38.6763 91.8094 39.2993 91.8605 39.9652C91.8797 40.2162 91.899 40.4732 91.9182 40.7362C91.9325 40.9312 91.9467 41.1295 91.9608 41.3309C92.0246 42.2396 92.0871 43.2121 92.1455 44.2399C92.1624 44.5364 92.1789 44.8375 92.195 45.143C92.2376 45.9525 92.2774 46.7929 92.313 47.6604C92.3295 48.0613 92.3451 48.4679 92.3596 48.8799C92.3955 49.8933 92.4253 50.9395 92.4472 52.0129C92.4555 52.4219 92.4627 52.8349 92.4687 53.2515C92.4791 53.9809 92.4857 54.7215 92.4879 55.4717C92.489 55.837 92.489 56.2045 92.488 56.5741C92.4862 57.1995 92.4813 57.8309 92.4729 58.4673C92.4724 58.5035 92.4719 58.5398 92.4715 58.576C92.4559 59.7043 92.4295 60.8482 92.3905 62.0026C92.3506 63.184 92.2975 64.3764 92.2295 65.5743C92.1035 67.7927 91.9261 70.0299 91.6858 72.251C90.5291 82.942 87.9152 93.2596 82.5603 99.3167C82.4992 99.3857 82.4378 99.4543 82.376 99.5222C82.7245 99.4226 83.1636 99.3032 83.6756 99.1639L83.6789 99.1631C88.31 97.9035 98.9002 95.0232 102.501 90.5222C101.944 87.9221 100.8 81.9419 99.3779 74.5032C98.2438 68.5721 96.9323 61.7137 95.5995 54.9023C94.5815 49.6998 93.5509 44.5246 92.5773 39.8108Z" fill="url(#paint5_linear_7504_19535)"/>
<path fill-rule="evenodd" clip-rule="evenodd" d="M21.501 59.6472C21.4731 59.6392 21.4432 59.63 21.4116 59.6195C20.4514 59.3018 17.8162 57.8573 16.001 56.6472L16.0041 56.6398C17.7677 57.7215 19.5444 58.7096 21.251 59.5222L22.6667 51.8368L22.5664 52.5078L22.3141 54.1985L21.8485 57.3186L21.501 59.6472ZM22.876 50.6472L23.0574 49.5424L23.2406 48.4263L23.7078 45.5809L23.891 44.4648L24.2717 42.1462L24.409 41.3098L24.8541 38.5984L24.9457 38.0408L25.3538 35.5551L25.3996 35.2763L25.626 33.8972L25.1318 35.0734L19.376 48.7722C20.6433 49.54 21.9461 50.1277 22.876 50.6472Z" fill="url(#paint6_linear_7504_19535)"/>
<path d="M16.0039 56.6398L19.376 48.7722C20.6433 49.54 21.9461 50.1277 22.876 50.6472L22.6665 51.8368L22.5664 52.5078L22.3141 54.1985L21.8485 57.3186L21.501 59.6472C19.7944 58.8346 17.7676 57.7215 16.0039 56.6398Z" fill="#0E0D0D"/>
<path fill-rule="evenodd" clip-rule="evenodd" d="M3.75098 37.2722C5.00098 38.5222 6.25098 39.7722 7.25098 40.3972C6.04319 43.2499 5.20265 45.3544 4.29321 48.023C3.18863 47.0477 2.28018 46.1708 1.63707 45.4604C1.31308 45.1025 1.05644 44.7869 0.875977 44.5223C0.917638 44.3626 0.962771 44.2 1.01097 44.0352C1.04868 43.9063 1.08826 43.776 1.12953 43.6446C1.17195 43.5095 1.21615 43.3733 1.26192 43.2362C1.40692 42.8414 1.55174 42.4559 1.70447 42.0617C2.01359 41.2639 2.3551 40.4309 2.796 39.4156C2.984 38.9826 3.19007 38.5166 3.4194 38.0059C3.52484 37.7711 3.63519 37.5269 3.75098 37.2722Z" fill="#302E2E"/>
<path d="M42.1441 35.9062L43.4102 39.4362L30.2576 44.1208L28.9916 40.5908L42.1441 35.9062Z" fill="#F5F5F5"/>
<path d="M84.501 40.5222C84.501 45.4928 80.4715 49.5222 75.501 49.5222C70.5304 49.5222 66.501 45.4928 66.501 40.5222C66.501 35.5517 70.5304 31.5222 75.501 31.5222C80.4715 31.5222 84.501 35.5517 84.501 40.5222Z" fill="#A02025"/>
<path d="M83.001 40.5222C83.001 36.3801 79.6431 33.0222 75.501 33.0222C71.3588 33.0222 68.001 36.3801 68.001 40.5222C68.001 44.6644 71.3588 48.0222 75.501 48.0222V49.5222C70.5304 49.5222 66.501 45.4928 66.501 40.5222C66.501 35.5517 70.5304 31.5222 75.501 31.5222C80.4715 31.5222 84.501 35.5517 84.501 40.5222C84.501 45.4928 80.4715 49.5222 75.501 49.5222V48.0222C79.6431 48.0222 83.001 44.6644 83.001 40.5222Z" fill="#F5F5F5"/>
<defs>
<radialGradient id="paint0_radial_7504_19535" cx="0" cy="0" r="1" gradientUnits="userSpaceOnUse" gradientTransform="translate(51.251 -15.7278) rotate(82.4449) scale(119.79 123.635)">
<stop offset="0.339613" stop-color="#DF363D"/>
<stop offset="0.490385" stop-color="#A02025"/>
<stop offset="0.70632" stop-color="#1F1E1E"/>
</radialGradient>
<radialGradient id="paint1_radial_7504_19535" cx="0" cy="0" r="1" gradientUnits="userSpaceOnUse" gradientTransform="translate(23.001 7.77221) rotate(117.256) scale(36.6998 48.5058)">
<stop stop-color="#FB5B63"/>
<stop offset="1" stop-color="#882024"/>
</radialGradient>
<radialGradient id="paint2_radial_7504_19535" cx="0" cy="0" r="1" gradientUnits="userSpaceOnUse" gradientTransform="translate(51.2515 -15.7278) rotate(82.4449) scale(119.79 123.635)">
<stop offset="0.339613" stop-color="#DF363D"/>
<stop offset="0.490385" stop-color="#A02025"/>
<stop offset="0.70632" stop-color="#1F1E1E"/>
</radialGradient>
<radialGradient id="paint3_radial_7504_19535" cx="0" cy="0" r="1" gradientUnits="userSpaceOnUse" gradientTransform="translate(51.2515 -15.7277) rotate(82.4449) scale(119.79 123.635)">
<stop offset="0.339613" stop-color="#DF363D"/>
<stop offset="0.490385" stop-color="#A02025"/>
<stop offset="0.70632" stop-color="#1F1E1E"/>
</radialGradient>
<linearGradient id="paint4_linear_7504_19535" x1="66.751" y1="7.09824" x2="116.751" y2="7.09824" gradientUnits="userSpaceOnUse">
<stop stop-color="#D24248"/>
<stop offset="1" stop-color="#3F2324"/>
</linearGradient>
<linearGradient id="paint5_linear_7504_19535" x1="87.751" y1="12.1472" x2="92.4385" y2="99.5222" gradientUnits="userSpaceOnUse">
<stop offset="0.327354" stop-color="#341415"/>
<stop offset="0.500904" stop-color="#0E0D0D"/>
</linearGradient>
<linearGradient id="paint6_linear_7504_19535" x1="20.8135" y1="33.8972" x2="20.8135" y2="59.6472" gradientUnits="userSpaceOnUse">
<stop stop-color="#662629"/>
<stop offset="1" stop-color="#050202"/>
</linearGradient>
</defs>
</svg>
