<svg xmlns="http://www.w3.org/2000/svg" width="140" height="133" fill="none" viewBox="0 0 140 133">
  <path fill="#26324F" d="M139.917 86.14c-.03-.1-.03-.16-.03-.23-.03-.07-.03-.13-.03-.2v-.1c-.03-.16-.03-.32-.07-.49-.03-.16-.06-.33-.06-.49v-.03c-.1-.66-.17-1.32-.26-1.95-.12-.92-.25-1.83-.39-2.75-.06-.46-.13-.93-.2-1.39l-.04-.28-.02-.12c-1.44-9.52-3.38-18.96-5.58-28.34-2.01-8.65-3.87-17.32-6.43-25.81-1.76-5.62-3.7-11.44-7-16.36a.405.405 0 0 0-.05-.09c-.93-1.38-1.96-2.68-3.12-3.89-.79-.83-1.64-1.55-2.49-2.24-.16.1-.36.16-.56.16-.13 0-.29 0-.42-.06-.04 0-.1 0-.14-.04-.03 0-.09-.03-.13-.06 0-.04-.03-.04-.03-.04-.16-.09-.29-.19-.46-.29-.03 0-.03-.03-.06-.03-.07-.04-.1-.07-.17-.1-.03-.03-.1-.07-.13-.1-.1-.07-.23-.13-.33-.2a1.23 1.23 0 0 1-.36-.23c-.06.02-.11.03-.17.04-.07.02-.14.04-.22.06-.89.26-1.77.49-2.69.72h-.23c-.23.07-.49.13-.75.2-1.45.33-2.89.62-4.33.93-2.23.43-4.46.83-6.72 1.16-2.76.42-5.51.78-8.3 1.12-1.9.23-3.87.43-5.84.62-3.28.3-6.59.56-9.87.76l-2.32.12h-.06c-.01.03-.03.05-.04.07h.07c-1.56 2.41-4.15 5.54-7.98 7.62-2.79 1.53-6.23 2.51-10.42 2.26-7.49-.43-11.53-3.89-13.7-7.18-.72-1.09-1.24-2.16-1.6-3.1.08 0 .16.01.24.02 0-.03-.01-.05-.02-.08-.08 0-.16-.01-.25-.02-.58-.06-1.17-.13-1.75-.21h-.07c-.23-.04-.49-.07-.72-.1-1.06-.17-2.15-.36-3.21-.6l-.36-.09c-.25-.06-.51-.12-.76-.2-.03 0-.1-.03-.13-.03h-.33v.03c-.03.07-.03.17-.06.23-.1.04-.2.13-.26.26-.33.87-.69 1.75-1.02 2.62-1.12 2.9-2.26 5.77-3.38 8.68-1.15 3.04-2.33 6.04-3.51 9.05-1.21 3.03-2.39 6.1-3.57 9.14-1.12 2.84-2.23 5.71-3.35 8.58-1.18 3.04-2.36 6.05-3.54 9.08-1.15 2.94-2.29 5.91-3.44 8.85-1.12 2.94-2.26 5.84-3.41 8.78-.21.54-.43 1.1-.65 1.65l-.17.43-.49 1.24c-.17.42-.34.85-.5 1.27-.26.72-.55 1.42-.82 2.11l-.39.99c-.03.1-.1.2-.13.33-.03.07-.07.13-.07.2-.06.13-.06.26-.03.39 0 .17.03.33.2.46.03 0 .03.03.06.03l.04.04c1.03.78 2.18 1.46 3.34 2.05.06.03.11.06.17.09.08.04.17.08.25.13l.66.33c1.76.85 3.57 1.58 5.43 2.18.23.07.46.15.69.21.23.07.47.14.71.21.24.07.48.14.73.2s.5.12.76.19c.29.07.59.14.9.2l.12.03c.07.03.15.04.23.06.38.08.76.16 1.14.22h.02c.08.02.16.03.24.05.2.03.41.07.61.1.89.14 1.78.25 2.68.32.17.02.33.03.5.04.32.03.64.06.96.07.03.01.05.01.08 0 0 0 .01.01.02 0 .19.01.34.01.48.02.13.02.26.02.39.02.15.01.3.01.45.01h1.19c.13 0 .27 0 .41-.01h.29c.17-.01.31-.02.45-.03.01.01.02.01.04 0 0 0 0 .01.01 0 .05 0 .1-.01.14-.01h.16c.06 0 .1 0 .14-.01h.14c.08-.01.13-.01.13-.01.09 0 .19-.02.29-.03.01 0 .03 0 .04-.01h.03c-.27 1.97-.56 3.93-.82 5.91-.33 2.44-.69 4.88-1.02 7.33-.33 2.38-.66 4.78-.98 7.16-.33 2.42-.66 4.82-.99 7.23-.32 2.34-.65 4.72-.98 7.07-.33 2.18-.62 4.39-.92 6.57-.1.06-.16.15-.2.28-.01.04-.01.08-.01.12 0 .05.01.11.03.16.02.08.07.14.12.19.02.02.04.03.06.05.04.03.09.05.12.06.03.02.05.02.05.02 4.61 1.01 9.24 1.94 13.91 2.74.05.02.1.03.15.03 7.85 1.33 15.77 2.25 23.74 2.42 9.97.16 19.98-.8 29.68-3.04 4.69-1.09 9.35-2.41 13.94-3.79 3.77-1.12 7.54-2.34 11.12-4 .29.04.52-.19.55-.45.2-.1.33-.3.3-.53-.36-2.04-.76-4.06-1.12-6.11-.42-2.47-.88-4.91-1.34-7.39-.49-2.61-.95-5.21-1.44-7.82-.43-2.36-.86-4.72-1.3-7.08-.01-.03-.01-.05-.02-.08l-.06-.37c0-.02-.01-.05-.01-.08-.02-.02-.02-.04-.02-.05h.15c.15.01.29.02.44.02.49.03.95.07 1.44.07h1.25c1.08 0 2.13-.04 3.21-.07 2.13-.1 4.23-.29 6.36-.52.13 0 .36-.04.56-.07 2.1-.26 4.2-.59 6.26-.99 2.1-.4 4.23-.86 6.3-1.46.98-.29 2-.59 2.98-.96.89-.32 1.77-.68 2.63-1.12 0-.03.03-.03.03-.03.06-.04.13-.1.2-.13.03 0 .03-.04.06-.04l.03-.03s.04-.07.07-.1c.03-.06.03-.1.06-.13 0-.03.04-.03.04-.07 0-.13 0-.23-.04-.29l-.01-.03Z"/>
  <path fill="#26324F" d="M139.887 85.91c-.03-.07-.03-.13-.03-.2v-.1c-.03-.16-.03-.33-.07-.49-.03-.17-.06-.33-.06-.49v-.03c-.1-.66-.16-1.32-.26-1.95-.96-7.19-.29-2.81-.65-4.54-1.01.46-11.17 5.86-32.67 6.29.05.25 1.63 7.59 1.86 8.24-.03-.15-.05-.3-.08-.45 0-.03-.03-.1-.03-.13.2 0 .39.03.59.03.49.03.95.07 1.44.07h1.25c1.08 0 2.13-.03 3.21-.07 2.13-.1 4.23-.3 6.36-.53.13 0 .36-.03.56-.07 2.1-.26 4.2-.59 6.26-.99 2.1-.4 4.23-.86 6.3-1.45.98-.3 2-.59 2.98-.96.89-.33 1.77-.69 2.62-1.12 0-.03.03-.03.03-.03.07-.03.13-.1.2-.13.03 0 .03-.03.06-.03l.03-.03s.03-.07.07-.1c.03-.07.03-.1.07-.13 0-.03.03-.03.03-.07 0-.13 0-.23-.03-.3-.03-.1-.03-.16-.03-.23l-.01-.01Z"/>
  <path fill="#CBBDE1" d="M111.187 84.19c-1.61.1-3.29.17-5.05.2.05.25 1.63 7.59 1.86 8.24-.03-.15-.05-.3-.08-.45 0-.03-.03-.1-.03-.13.2 0 .39.03.59.03.49.03.95.07 1.44.07h1.25c.34 0 .68-.02 1.02-.02-.46-2.63-.82-5.28-.99-7.94h-.01Z"/>
  <path fill="#A780B4" d="M120.867 83.19c-2 .3-4.17.56-6.53.77.16 2.71.54 5.39 1.02 8.06 1.8-.11 3.58-.27 5.38-.46.13 0 .36-.03.56-.07.11-.01.21-.03.32-.05-.4-2.74-.65-5.49-.75-8.25Z"/>
  <path fill="#9ED3DA" d="M131.067 81.01c-1.96.57-4.31 1.14-7.06 1.65.08 2.79.31 5.57.72 8.33.95-.15 1.89-.31 2.83-.49 1.35-.26 2.72-.56 4.07-.88-.27-2.86-.47-5.73-.56-8.61Z"/>
  <path fill="#69A3D9" d="M139.927 86.14c-.03-.1-.03-.16-.03-.23-.03-.07-.03-.13-.03-.2v-.1c-.03-.16-.03-.33-.07-.49-.03-.17-.06-.33-.06-.49v-.03c-.1-.66-.16-1.32-.26-1.95-.35-2.65-.48-3.72-.53-4.11 0 .06-.03.02-.12-.43-.36.16-1.87.94-4.61 1.9.07 2.93.24 5.86.5 8.78.71-.22 1.43-.44 2.13-.7.89-.33 1.77-.69 2.62-1.12 0-.03.03-.03.03-.03.07-.03.13-.1.2-.13.03 0 .03-.03.06-.03l.03-.03s.03-.07.07-.1c.03-.07.03-.1.06-.13 0-.03.03-.03.03-.07 0-.13 0-.23-.03-.3l.01-.01Z"/>
  <path fill="#1FA9B4" d="M111.167 5.47c-.1-.03-.03-.2.07-.17.06.03.03.2-.07.17Z"/>
  <path fill="#152035" d="M36.177 5.8c.36.94.88 2.01 1.6 3.1-.06-.02-.11-.04-.17-.06-.62-.26-1.21-.53-1.84-.83-.23-.1-.49-.23-.72-.33-.29-.16-.59-.33-.88-.49-1.12-.62-2.23-1.29-3.31-1.95.06-.06.09-.13.13-.23.85.2 1.7.33 2.59.46.23.04.49.07.72.1h.06c.61.09 1.21.16 1.82.23Zm84.49 3.2h-.03c-.23.13-.46.3-.72.46-.07.03-.13.07-.16.1-.07.03-.1.07-.17.1h-.06s-.1.03-.13.06c-.2.1-.37.17-.56.23-.39.17-.82.3-1.25.4-.88.23-1.77.39-2.69.55-1.73.3-3.51.53-5.28.79-.91.13-1.83.3-2.78.4-.92.13-1.87.22-2.79.36-1.81.23-3.64.39-5.45.55-1.77.17-3.54.3-5.27.43-1.74.13-3.48.23-5.19.39-.62.07-1.21.1-1.77.17h-.13c-.06 0-.13.03-.19.03h-.07c-.1 0-.16 0-.26.03-.1 0-.2.04-.33.04-.23.03-.49.03-.72.06-.46.03-.89.07-1.35.1-.88.07-1.8.1-2.69.16-1.57.07-3.18.1-4.75.1-.13-.1-.36-.1-.56-.1-1.74 0-3.51-.03-5.24-.09-.89-.04-1.74-.07-2.63-.14-.88-.06-1.8-.13-2.69-.19-.92-.07-1.83-.13-2.75-.2h-.11c3.83-2.08 6.42-5.21 7.98-7.62.78-.04 1.55-.09 2.33-.13 3.28-.19 6.59-.45 9.87-.75 1.97-.2 3.93-.39 5.83-.62 2.79-.33 5.55-.69 8.3-1.13 2.26-.33 4.49-.72 6.72-1.16 1.45-.29 2.89-.59 4.33-.92.26-.07.53-.14.76-.2h.23c.84-.21 1.88-.53 2.72-.8.08-.02.15-.04.22-.06.27-.07 1.06-.36 1.19-.4.19.13.52.4.72.53.34.28.69.55 1.05.83.94.72 1.89 1.45 2.7 2.31 1.16 1.18 2.06 2.47 2.91 3.81.02.03.04.06.05.09.29.46.58.93.86 1.4V9Zm-100.2 76.62c.26-1.29.51-2.52.74-3.81v-.1c.03-.07.03-.16.07-.26 0-.1.23-1.2.23-1.3.2-.89.11-.73.31-1.66.49-2.18 1.01-4.37 1.5-6.55.46-2.05.89-4.09 1.34-6.14.49-2.18.95-4.39 1.44-6.57.46-2.05.92-4.09 1.34-6.17.49-2.18.95-4.36 1.44-6.54.23-1.02.46-2.01.66-3.04.1-.49.23-1.02.33-1.52.07-.33.13-.69.23-.99.07-.2.26-.36.49-.36h.13c0 .1-.03.2-.03.3-.2 1.75-.43 3.53-.62 5.28v-.03.1c-.3 2.51-.59 5.02-.89 7.53v-.07c-.13 1.15-.3 2.34-.43 3.5-.3 2.41-.59 4.85-.89 7.26-.3 2.57-.62 5.12-.92 7.69-.3 2.54-.62 5.08-.92 7.63-.16 1.39-.33 2.77-.49 4.16v.07c-.07.43-.16.89-.2 1.32 0 .07-.03.13-.03.2h-.03v-.03c-.2.03-.39.03-.56.07-.79.07-1.61.1-2.39.1-.7-.02-.94-.03-1.86-.06l.01-.01Zm-18.6-9.81c.03-.1.1-.2.13-.3-.03.13-.07.23-.13.3Zm106.11 16.31c-.16-.03-.3-.03-.46-.03h-.52c-.36-1.91-.75-3.83-1.12-5.74-.43-2.11-.82-4.23-1.25-6.37-.39-2.11-.82-4.22-1.25-6.34-.43-2.15-.85-4.29-1.25-6.44-.39-2.08-.82-4.16-1.21-6.24-.13-.66-.26-1.32-.39-2.01-.06-.33-.13-.66-.2-.99-.03-.13-.07-.26-.07-.4 0-.07-.03-.13-.03-.23 0-.26.26-.49.52-.46.23 0 .43.2.46.4.03.13.06.3.1.43.07.26.1.53.16.79.1.53.2 1.06.33 1.59.2 1.02.39 2.01.59 3.04.43 2.15.82 4.29 1.25 6.44.23 1.09.43 2.21.66 3.3.2 1.02.39 2.08.62 3.1.23 1.09.43 2.21.66 3.3.2.99.39 1.98.59 2.97.43 2.18.85 4.32 1.28 6.47.13 1.22.33 2.34.53 3.43v-.01Z"/>
  <path fill="#43597B" d="M29.147 4.48h-.33v.03c-.03.07-.03.17-.07.23-.1.03-.2.13-.26.26-.33.86-.69 1.75-1.02 2.61-1.11 2.9-2.26 5.78-3.38 8.68-1.15 3.04-2.33 6.04-3.51 9.04-1.21 3.04-2.39 6.11-3.57 9.14-1.11 2.84-2.23 5.71-3.34 8.58-1.18 3.04-2.36 6.04-3.54 9.08-1.15 2.94-2.3 5.91-3.44 8.85-1.11 2.94-2.26 5.84-3.41 8.78-.59 1.52-1.21 3.07-1.8 4.59-.26.73-.56 1.42-.82 2.11l-.39.99c-.03.1-.1.2-.13.33-.03.07-.07.13-.07.2-.07.13-.07.26-.03.4 0 .16.03.32.19.45 1.78 1.2 6.9 4.8 16.11 6.34l14.52-79.94-.46-.44c-.37-.09-.74-.18-1.11-.28-.03 0-.1-.03-.13-.03h-.01Zm-9.51 122.3 12.05-92.89s-2.77 94.87 14.08 98.2c0 0-17.81-2.11-25.97-4.42 0 0-.31-.07-.36-.38-.03-.14 0-.46.2-.51Z"/>
  <path fill="#26324F" d="M25.567 78.6c-2.8.07-5.67-.46-8.35-1.26-1.05-.31-2.09-.67-3.15-.95-.24-.06-.6-.09-.91-.16-2.3-.14-4.37-.91-6.06-2.13-1.75-.37-3.32-1.15-4.64-2.25-.33.84-.66 1.68-.99 2.51-.26.73-.56 1.42-.82 2.11l-.39.99c-.03.1-.1.2-.13.33-.03.07-.07.13-.07.2-.07.13-.07.26-.03.4 0 .17.03.33.2.46.03 0 .03.03.07.03l.03.03c1.08.83 2.3 1.52 3.51 2.15 4.89 2.51 10.2 4.09 15.67 4.49 1.74.17 3.51.2 5.28.03.03 0 .17-.02.2-.03.34-2.33.63-4.77.9-6.97-.08 0-.24.02-.32.02Z"/>
  <path fill="#9BD1DF" d="M.227 78.85s.03.03.07.03l.03.03c.59.45 1.22.86 1.87 1.24 1.14-2.16 2.27-4.33 3.17-6.59-1.06-.42-2.04-.99-2.9-1.71-.33.84-.66 1.68-.99 2.51-.26.73-.56 1.42-.82 2.11l-.39.99c-.03.1-.1.2-.13.33-.03.07-.07.13-.07.2-.07.13-.07.26-.03.4 0 .17.03.33.2.46h-.01Z"/>
  <path fill="#CBBDE1" d="M10.477 80.36c.75-1.38 1.58-2.74 2.22-4.18-1.63-.16-3.13-.63-4.46-1.36-.94 2.33-2.1 4.56-3.27 6.79 1.34.64 2.71 1.2 4.11 1.7.42-1.01.87-2 1.4-2.95Z"/>
  <path fill="#1FA9B4" d="M18.277 81.92c.51-1.28 1.09-2.59 1.53-3.94-.87-.19-1.74-.4-2.59-.65-.46-.14-.92-.29-1.39-.43-.66 1.59-1.55 3.11-2.37 4.6-.5.9-.93 1.83-1.34 2.77 1.63.44 3.29.78 4.97 1.01.35-1.14.75-2.25 1.19-3.36Z"/>
  <path fill="#714EAB" d="M25.567 78.6c-.88.02-1.77-.03-2.65-.12-.44 1.45-1.03 2.87-1.59 4.29-.37.93-.68 1.89-.97 2.85 1.47.1 2.95.11 4.44-.03.03 0 .17-.02.2-.03.34-2.33.63-4.77.9-6.97-.08 0-.24.02-.32.02l-.01-.01Z"/>
  <path fill="#9BD1DF" d="M25.737 79.74c-15.02-.69-23.4-6.4-23.77-6.65l.66-1.67c.09.06 8.88 5.82 23.35 6.48l-.24 1.84Zm82.41 5.59h-1.36l-.36-1.83c.23 0 22.45-.25 32.39-5.39l.28 1.78c-8.22 5-25.51 5.44-30.95 5.44Z"/>
  <path fill="#3C77C5" d="m22.017 77.57 3.97.32-.99 7.66s-3.75.37-5.97-.05l3-7.94-.01.01Z"/>
  <path fill="#1F79CC" d="M21.337 79.37c1.4.17 2.87.29 4.41.36l.24-1.84c-1.47-.15-2.64-.2-3.97-.32l-.68 1.8Z"/>
  <path fill="#A780B4" d="M53.327 41.46c-.12-.34-.09-.65.09-.92 2.25-.39 4.6-.45 6.99-.13-.07.1-.08.22-.03.35-2.4-.11-4.78.14-7.04.7h-.01Z"/>
  <path fill="#1F79CC" d="M74.557 71.73c-1.61.03-3.49-.15-5.54-.52.96-2.39 1.64-4.89 2.03-7.4 1.93.27 3.7.39 5.21.31-.18 2.58-.74 5.15-1.7 7.6v.01Z"/>
  <path fill="#69A3D9" d="M58.627 76.21c.98-1.57 1.94-3.38 2.84-5.4.11-.24.21-.48.32-.72 2.23.69 4.41 1.25 6.44 1.64l-.33.75c-.95 2.08-2.05 3.91-3.26 5.47-1.9-.43-3.93-1.02-6.01-1.74Z"/>
  <path fill="#9BD1DF" d="M75.377 55.27c-1.18.11-2.57.07-4.09-.08-.25-2.34-.77-4.55-1.53-6.53 1 .07 1.91.07 2.68-.03 1.28 2.01 2.27 4.25 2.93 6.64h.01Z"/>
  <path fill="#714EAB" d="M51.927 73.53c.74-1.6 1.55-3.39 2.4-5.34.1-.23.2-.47.3-.7 2.17.91 4.39 1.73 6.58 2.43-.1.24-.21.48-.32.72-.9 2.01-1.84 3.82-2.8 5.39a75.74 75.74 0 0 1-6.16-2.5Z"/>
  <path fill="#A780B4" d="M63.917 62.28a62.98 62.98 0 0 1-2.45 7.03c-2.19-.69-4.41-1.5-6.58-2.4.96-2.22 1.89-4.46 2.79-6.67 2.07.78 4.17 1.47 6.24 2.04Z"/>
  <path fill="#9BD1DF" d="M70.937 55.75c.17 2.36.07 4.84-.29 7.34-1.9-.29-3.94-.72-6.02-1.28.62-2.37 1.08-4.71 1.36-6.94 1.72.4 3.4.7 4.95.88Z"/>
  <path fill="#A780B4" d="M46.087 44.67c.22.54.65 1.15 1.3 1.78a28.827 28.827 0 0 0-4.82 4.55c-.75-.78-1.26-1.51-1.5-2.17 1.47-1.59 3.17-2.99 5.03-4.16h-.01Z"/>
  <path fill="#69A3D9" d="M38.917 57.23c.93-2 2.11-3.87 3.48-5.58.81.81 1.88 1.68 3.2 2.58a38.48 38.48 0 0 0-3.35 5.85c-1.38-1-2.49-1.96-3.33-2.85Z"/>
  <path fill="#714EAB" d="M53.817 43c.48.43 1.12.88 1.9 1.34-1.73 1.08-3.42 2.41-5.01 3.93-1.1-.69-1.99-1.37-2.67-2 1.81-1.32 3.76-2.43 5.79-3.27h-.01Z"/>
  <path fill="#CBBDE1" d="M45.077 61.96c-.9-.55-1.72-1.09-2.46-1.62.94-2.05 2.07-4.03 3.34-5.88.72.47 1.5.96 2.36 1.45.81.46 1.65.91 2.52 1.35-1.12 2.01-2.17 4.1-3.12 6.23-.91-.5-1.79-1.01-2.64-1.53Z"/>
  <path fill="#69A3D9" d="M65.537 54.77c-.32 2.21-.81 4.54-1.46 6.9-2.05-.56-4.14-1.24-6.18-2 .89-2.21 1.73-4.36 2.5-6.38 1.71.57 3.44 1.07 5.14 1.48Z"/>
  <path fill="#714EAB" d="M62.587 47.24c1.14.34 2.29.64 3.4.87.05 1.84-.07 3.9-.37 6.09-1.66-.39-3.35-.88-5.02-1.43.75-2.01 1.43-3.87 1.99-5.52v-.01Z"/>
  <path fill="#CBBDE1" d="M49.537 78.45c.64-1.23 1.37-2.72 2.18-4.46 2.02.93 4.07 1.76 6.09 2.49-1.07 1.69-2.15 3.1-3.21 4.18a61.82 61.82 0 0 1-5.07-2.21h.01Z"/>
  <path fill="#9BD1DF" d="M48.637 55.41c-.85-.48-1.63-.96-2.34-1.43a40.51 40.51 0 0 1 4.29-5.12c.61.37 1.27.75 2 1.13.68.36 1.39.71 2.12 1.05a77.26 77.26 0 0 0-3.57 5.7c-.86-.43-1.7-.88-2.5-1.33Z"/>
  <path fill="#69A3D9" d="M57.297 45.19c.47.23.95.45 1.45.66-1.22 1.37-2.48 2.97-3.72 4.72-.72-.33-1.41-.67-2.08-1.02-.71-.37-1.36-.74-1.95-1.1 1.57-1.54 3.24-2.89 4.93-3.99.42.24.88.48 1.37.73Z"/>
  <path fill="#CBBDE1" d="M42.197 51.44c-1.38 1.7-2.56 3.57-3.49 5.56-.79-.87-1.31-1.67-1.57-2.39.93-1.96 2.13-3.76 3.55-5.37.25.66.76 1.4 1.52 2.2h-.01Z"/>
  <path fill="#9BD1DF" d="M65.117 83.11h-.3c1.97-.94 3.81-2.26 5.44-3.95h.37c1.28-.05 2.23-.28 2.86-.67-.44.43-.9.84-1.37 1.22-.39.3-.68.53-.92.71-.43.31-.86.6-1.31.88l-.46.27c-.42.22-.76.4-1.04.56-.43.22-.86.44-1.23.62-.5.22-1.18.35-2.04.37v-.01Z"/>
  <path fill="#CBBDE1" d="M78.077 72.18c.12-.26.24-.52.35-.78.32-.24.54-.51.67-.82l-.38.85c-.86 1.63-1.23 2.33-2.05 3.48-.26.36-.59.79-1 1.35-.62.69-1.02 1.14-1.34 1.48l-.19.17c1.58-1.63 2.92-3.55 3.94-5.72v-.01Z"/>
  <path fill="#404041" d="M72.757 79.21s-.07.06-.11.09c.16-.13.31-.27.46-.41l-.35.32Z"/>
  <path fill="#CBBDE1" d="M57.497 84.81h-.08c-.43 0-.76-.01-1.04-.02-.6-.04-1.31-.1-1.85-.16-.53-.08-.86-.13-1.11-.17-.26-.05-.58-.11-1.08-.22-.14-.03-.26-.06-.37-.09.93.22 1.89.29 2.86.22.99.25 1.9.41 2.67.44Z"/>
  <path fill="#714EAB" d="M64.307 83.34h.3c.8-.02 1.44-.13 1.91-.33l-.72.28c-.93.31-1.49.5-1.95.64-.45.12-1.01.25-1.92.46-.81.13-1.34.21-1.81.27-.33.03-.75.07-1.35.11-.13 0-.27.01-.42.02h-.13c2.07-.1 4.13-.59 6.08-1.45h.01Z"/>
  <path fill="#D0C7D3" d="M35.207 65.92c-.09-.59-.17-1.18-.22-1.69-.03-.78-.05-1.27-.06-1.65 0-.38.03-.88.06-1.67 0-.09.02-.17.03-.25.01.27.05.61.11.86-.14 1.49-.1 2.97.09 4.41l-.01-.01Zm5.42-16.85a22.8 22.8 0 0 0-3.55 5.36c-.15-.5-.17-.96-.03-1.37.09-.21.18-.39.25-.54.26-.51.59-1.1.84-1.56.46-.72 1.09-1.65 1.62-2.37.33-.42.68-.83 1.04-1.23-.32.48-.37 1.06-.17 1.71Z"/>
  <path fill="#1FA9B4" d="M78.687 70.75c.96-2.49 1.43-5.08 1.44-7.66.48-.37.73-.83.76-1.35l-.04 1.49c-.11.98-.18 1.6-.24 2.08-.09.47-.22 1.09-.42 2.06-.17.56-.31 1.01-.42 1.37-.13.4-.26.79-.38 1.13-.13.33-.36.63-.69.88h-.01Zm1.43-8.33c-.07-2.56-.58-5.08-1.49-7.46.51-.41.69-.94.57-1.54.36.83.66 1.68.91 2.55.22.96.47 2.19.62 3.14.07.91.12 1.5.14 1.96-.03.53-.27.99-.75 1.36v-.01Z"/>
  <path fill="#9BD1DF" d="M54.567 84.3c-1.02.08-2.04 0-3.02-.26-.02 0-.05-.01-.07-.02l-.72-.21c-.3-.1-.49-.16-.63-.2-.14-.05-.32-.11-.6-.21-.25-.09-.41-.16-.52-.2.73.28 1.53.29 2.38.03 1.11.44 2.19.8 3.19 1.07h-.01Z"/>
  <path fill="#404041" d="M35.417 67.18c-.02-.11-.04-.23-.07-.34.02.11.04.22.07.34Zm.05.22s0-.03-.01-.04c-.01-.06-.02-.13-.04-.19.02.08.03.15.05.23Zm-.12-.56s0-.04-.01-.06v-.02c0 .03 0 .05.01.08Zm.24 1.1-.02-.09c0 .02.01.04.02.06v.04-.01Z"/>
  <path fill="#9BD1DF" d="M40.977 77.25c.43.77.96 1.45 1.58 2.03-.63-.55-1.26-1.16-1.97-1.93-.1-.11-.21-.23-.31-.35-.18-.22-.35-.43-.51-.63-.22-.29-.44-.59-.64-.9.47.55 1.09 1.15 1.85 1.78Z"/>
  <path fill="#CBBDE1" d="M44.217 79.59c1.03.65 2.12 1.28 3.22 1.85-.32.54-.53.81-.61.77l-.12-.06c-.2-.11-.32-.18-.42-.23-.09-.05-.22-.13-.42-.24-.04-.03-.08-.05-.12-.07-.2-.12-.44-.27-.62-.38-.46-.3-.77-.85-.93-1.64h.02Z"/>
  <path fill="#CBBDE1" d="M42.527 78.45c.46.33.93.65 1.42.97.19.79.53 1.37 1.02 1.7-.03-.02-.07-.04-.09-.06-.25-.17-.55-.38-.78-.54-.47-.35-.9-.69-1.34-1.06a7.633 7.633 0 0 1-1.58-2.04c.41.33.86.68 1.35 1.03Z"/>
  <path fill="#9BD1DF" d="M47.727 81.58c1.12.57 2.25 1.09 3.36 1.53-.83.28-1.6.28-2.29 0l-.31-.13c-.22-.1-.36-.16-.47-.2-.1-.05-.24-.11-.45-.21-.1-.05-.19-.09-.26-.13-.12-.06-.23-.12-.33-.17.13.07.39-.18.75-.7v.01Z"/>
  <path fill="#D0C7D3" d="M36.867 70.06c.37 1.76 1.01 3.41 1.91 4.88-.19-.24-.36-.46-.5-.68-.08-.12-.15-.24-.23-.37-.43-.78-.67-1.22-.89-1.66-.17-.36-.36-.79-.66-1.49-.28-.77-.44-1.23-.57-1.62-.11-.35-.2-.71-.29-1.06.2.59.62 1.27 1.24 2.01l-.01-.01Z"/>
  <path fill="#714EAB" d="M54.327 80.93c-1.04 1.02-2.05 1.73-3 2.1-1.15-.46-2.33-1-3.5-1.6.4-.6.92-1.5 1.54-2.68 1.65.81 3.32 1.54 4.96 2.17v.01Zm5.61 1.79c1.51.36 2.89.58 4.06.62a16.6 16.6 0 0 1-5.98 1.45c-.8-.03-1.75-.19-2.79-.46 1.57-.17 3.16-.72 4.71-1.61Z"/>
  <path fill="#9BD1DF" d="M64.777 78.5c1.89.41 3.62.64 5.1.66-1.61 1.68-3.43 3-5.37 3.94-1.2-.04-2.62-.26-4.16-.63 1.56-.97 3.06-2.3 4.43-3.97Zm-5.23 4.12c-1.51.9-3.06 1.46-4.58 1.64-1.04-.28-2.17-.66-3.33-1.11.99-.35 2.05-1.04 3.12-2.05 1.66.63 3.28 1.15 4.79 1.53v-.01Z"/>
  <path fill="#69A3D9" d="m68.427 72.58.33-.75c2.05.37 3.93.56 5.54.53a22.56 22.56 0 0 1-4 6.35c-1.5-.02-3.25-.25-5.16-.65 1.22-1.56 2.34-3.39 3.29-5.48Z"/>
  <path fill="#1FA9B4" d="M44.327 75.6c.23-1.4.63-3.02 1.19-4.82 1.8 1.05 3.72 2.05 5.68 2.97-.79 1.74-1.5 3.25-2.1 4.49-1.64-.82-3.26-1.7-4.78-2.64h.01Z"/>
  <path fill="#9BD1DF" d="M75.377 71.69c-.13 0-.27.02-.41.02.96-2.46 1.51-5.03 1.68-7.62.13 0 .26-.02.38-.03 1.31-.13 2.28-.43 2.92-.85-.02 2.58-.49 5.17-1.46 7.66-.69.44-1.72.72-3.12.82h.01Z"/>
  <path fill="#1F79CC" d="M74.717 72.35c.14 0 .27-.01.41-.02 1.4-.09 2.43-.37 3.12-.81-.11.26-.23.52-.35.78a21.234 21.234 0 0 1-3.93 5.71c-.64.39-1.6.63-2.9.69-.12 0-.25 0-.38.01 1.44-1.58 2.69-3.45 3.69-5.59.12-.25.23-.51.34-.77Z"/>
  <path fill="#9BD1DF" d="m77.057 63.39-.38.03c.09-2.57-.19-5.13-.83-7.56.1-.01.2-.02.3-.04 1.05-.15 1.82-.41 2.33-.76.9 2.39 1.4 4.91 1.46 7.48-.63.42-1.6.71-2.89.85h.01Z"/>
  <path fill="#404041" d="m73.887 78.18-.69.63c.16-.14.32-.29.47-.44a2 2 0 0 0 .22-.19Z"/>
  <path fill="#CBBDE1" d="M36.777 69.6c-.63-.75-1.05-1.44-1.26-2.04-.41-1.89-.53-3.87-.34-5.87.24.69.73 1.48 1.47 2.33-.24 1.94-.19 3.82.13 5.58Z"/>
  <path fill="#D0C7D3" d="M36.797 53.6c-.12.4-.1.85.04 1.34-.09.21-.18.42-.27.64-.73 1.8-1.19 3.62-1.4 5.41a2.92 2.92 0 0 1-.12-.74c.03-.28.06-.52.08-.72.1-.64.23-1.37.34-1.95.22-.83.36-1.35.48-1.76.14-.4.32-.91.62-1.74.08-.18.15-.34.22-.48h.01Z"/>
  <path fill="#CBBDE1" d="M36.897 55.13c.26.72.78 1.52 1.57 2.39-.09.21-.19.43-.27.64-.74 1.81-1.23 3.61-1.49 5.35-.74-.86-1.24-1.65-1.48-2.35.21-1.79.67-3.6 1.4-5.4.09-.21.18-.43.27-.64v.01Z"/>
  <path fill="#9BD1DF" d="M74.397 47.97c.32-.27.44-.61.36-1a20.5 20.5 0 0 1 4.18 5.87c.12.59-.06 1.1-.56 1.5-.97-2.32-2.32-4.48-3.99-6.38l.01.01Z"/>
  <path fill="#A780B4" d="M48.947 78.55c-.58 1.19-1.06 2.11-1.41 2.73-1.15-.59-2.28-1.24-3.35-1.92-.14-.89-.11-2.04.09-3.4a58.5 58.5 0 0 0 4.68 2.59h-.01Z"/>
  <path fill="#404041" d="M39.317 75.78c-.2-.27-.41-.56-.59-.81.09.12.18.24.28.37l.3.45.01-.01Z"/>
  <path fill="#9BD1DF" d="M40.817 76.94c-.79-.66-1.43-1.28-1.92-1.85-.88-1.46-1.51-3.09-1.86-4.83.66.76 1.53 1.59 2.61 2.46.16 1.58.56 3 1.17 4.22Z"/>
  <path fill="#69A3D9" d="M39.947 67.07c-.36 1.87-.47 3.63-.35 5.23-1.1-.89-1.99-1.73-2.66-2.5-.31-1.75-.35-3.62-.11-5.56.79.88 1.83 1.83 3.11 2.83h.01Z"/>
  <path fill="#1FA9B4" d="M45.667 70.31c.53-1.64 1.2-3.42 2.01-5.32.1-.23.19-.45.29-.68 1.94 1.04 4 2.03 6.11 2.93-.1.23-.2.47-.3.7-.85 1.95-1.64 3.74-2.37 5.34-1.98-.92-3.92-1.92-5.74-2.98v.01Z"/>
  <path fill="#D0C7D3" d="M46.527 44.23c-.17-.52-.13-.99.13-1.39 1.91-1.01 3.99-1.76 6.17-2.19-.19.28-.22.6-.09.96-2.2.6-4.29 1.49-6.21 2.62Zm-5.53 4.43c-.2-.64-.15-1.21.16-1.69 1.47-1.52 3.16-2.82 5-3.86-.27.4-.31.88-.14 1.42a24.141 24.141 0 0 0-5.03 4.13h.01Z"/>
  <path fill="#CBBDE1" d="M47.857 46.11c-.64-.62-1.06-1.21-1.28-1.74 1.92-1.15 4.01-2.05 6.2-2.66.15.37.46.77.92 1.19-2.05.82-4.02 1.91-5.84 3.22v-.01Zm5.5-4.56c2.26-.58 4.63-.84 7.02-.75.06.13.18.28.35.43-2.2.16-4.39.67-6.49 1.45-.44-.4-.73-.79-.88-1.13Zm-14.95 16.84c.09-.22.18-.43.27-.64.84.89 1.95 1.85 3.33 2.86-.1.22-.19.44-.28.66a30.03 30.03 0 0 0-1.68 5.32c-1.3-1.01-2.35-1.96-3.14-2.84.26-1.74.76-3.53 1.5-5.35v-.01Z"/>
  <path fill="#9BD1DF" d="M62.287 47.15c-.61 1.63-1.33 3.48-2.12 5.47-1.63-.56-3.24-1.18-4.75-1.86 1.21-1.78 2.42-3.4 3.6-4.79 1.05.44 2.15.83 3.28 1.18h-.01Z"/>
  <path fill="#A780B4" d="M57.377 59.47c-1.99-.76-3.94-1.6-5.77-2.5 1.12-2.03 2.3-3.97 3.5-5.75 1.55.7 3.19 1.34 4.86 1.92-.8 2-1.67 4.14-2.58 6.33h-.01Z"/>
  <path fill="#9BD1DF" d="M41.847 73.99c-.71-.49-1.36-.98-1.95-1.44-.1-1.59.03-3.34.4-5.2.7.53 1.46 1.07 2.3 1.63.79.52 1.61 1.04 2.46 1.54-.55 1.8-.92 3.43-1.12 4.85-.72-.45-1.41-.9-2.08-1.37l-.01-.01Z"/>
  <path fill="#A780B4" d="M56.167 44.06c-.74-.44-1.35-.87-1.81-1.28 2.09-.81 4.25-1.34 6.42-1.52.18.15.42.32.71.48-1.76.47-3.56 1.26-5.32 2.32Z"/>
  <path fill="#714EAB" d="M42.097 61.53c.09-.22.19-.44.28-.66.75.53 1.57 1.08 2.46 1.63.84.52 1.72 1.04 2.63 1.54-.1.22-.2.45-.29.68a60.03 60.03 0 0 0-1.98 5.32 52.74 52.74 0 0 1-2.48-1.55c-.84-.56-1.62-1.1-2.32-1.63.37-1.69.93-3.47 1.7-5.32v-.01Zm25.94-18.63c.11-.1.15-.21.12-.34 2.31 1 4.38 2.35 6.14 3.98.07.37-.04.69-.34.95a23.21 23.21 0 0 0-5.92-4.59Z"/>
  <path fill="#A780B4" d="M73.877 47.55c-.31.23-.77.4-1.4.51l-.18.03a20.932 20.932 0 0 0-4.84-4.96c.02 0 .04 0 .06-.01.22-.04.38-.11.49-.19a23.28 23.28 0 0 1 5.87 4.63v-.01Z"/>
  <path fill="#1FA9B4" d="M78.247 54.45c-.5.35-1.25.6-2.27.75-.1.01-.2.03-.3.04-.69-2.39-1.72-4.63-3.04-6.63.07 0 .13-.02.19-.03.66-.11 1.15-.3 1.48-.53 1.65 1.91 2.98 4.08 3.94 6.41v-.01Zm-8.94-6.32c-.96-.08-1.99-.23-3.06-.44-.14-1.81-.46-3.39-.96-4.66.39.07.76.11 1.11.14 1.19 1.36 2.17 3.05 2.92 4.96h-.01Z"/>
  <path fill="#A780B4" d="M57.677 44.87c-.48-.23-.91-.46-1.31-.69 1.73-1.08 3.48-1.9 5.2-2.39.16.08.33.17.51.25.17.08.35.16.53.23-1.11.79-2.31 1.89-3.54 3.23-.48-.2-.94-.41-1.39-.63Z"/>
  <path fill="#714EAB" d="M69.557 48.15c-.79-1.92-1.83-3.61-3.08-4.98.34.02.65 0 .91-.03 1.82 1.36 3.41 3.04 4.72 4.98-.73.09-1.6.1-2.55.03Z"/>
  <path fill="#1FA9B4" d="M62.727 46.81c.54-1.61.97-3 1.26-4.08.4.11.81.21 1.2.28.44 1.26.7 2.83.79 4.62-1.06-.22-2.16-.5-3.24-.82h-.01Z"/>
  <path fill="#9BD1DF" d="M59.327 45.61c1.18-1.36 2.33-2.49 3.38-3.3.38.15.78.28 1.18.4-.35 1.06-.84 2.43-1.43 4.02-1.07-.33-2.12-.71-3.12-1.12h-.01Z"/>
  <path fill="#CBBDE1" d="M61.007 40.39c-.1-.01-.3.03-.33.14-.05.17-.1.96 2.93 1.82 3.29.93 4.07.54 4.15.29.02-.05.05-.21-.09-.28-1.33-.65-3.51-1.5-6.66-1.97Z"/>
  <path fill="#FDF5FF" d="m52.727 66.78 1-.51c.1-.05.13-.17.09-.27a.196.196 0 0 0-.09-.09l-1-.51c-.3-.15-.54-.4-.69-.71l-.5-1.02a.19.19 0 0 0-.26-.09c-.04.02-.07.05-.09.09l-.5 1.02c-.15.31-.39.56-.69.71l-1 .51c-.1.05-.13.17-.09.27.02.04.05.07.09.09l1 .51c.3.15.54.4.69.71l.5 1.02c.05.1.16.14.26.09.04-.02.07-.05.09-.09l.5-1.02c.15-.31.39-.56.69-.71Zm29.8 8 1-.51c.1-.05.13-.17.09-.27a.196.196 0 0 0-.09-.09l-1-.51c-.3-.15-.54-.4-.69-.71l-.5-1.02a.19.19 0 0 0-.26-.09c-.04.02-.07.05-.09.09l-.5 1.02c-.15.31-.39.56-.69.71l-1 .51c-.1.05-.13.17-.09.27.02.04.05.07.09.09l1 .51c.3.15.54.4.69.71l.5 1.02c.05.1.16.14.26.09.04-.02.07-.05.09-.09l.5-1.02c.15-.31.39-.56.69-.71Zm-38.95-29.71.64-.33c.06-.03.09-.11.05-.17a.265.265 0 0 0-.05-.06l-.64-.33c-.19-.1-.35-.26-.44-.45l-.32-.65c-.03-.06-.1-.09-.17-.06-.02.01-.04.03-.05.06l-.32.65c-.1.2-.25.35-.44.45l-.64.33c-.06.03-.09.11-.05.17.01.02.03.04.05.06l.64.33c.19.1.35.26.44.45l.32.65c.03.06.1.09.17.06.02-.01.04-.03.05-.06l.32-.65c.1-.2.25-.35.44-.45Zm-6.88 35.31 1.29-.66a.26.26 0 0 0 .11-.34.198.198 0 0 0-.11-.11l-1.29-.66c-.39-.2-.7-.52-.9-.92l-.65-1.32a.24.24 0 0 0-.34-.11c-.05.02-.09.06-.11.11l-.65 1.32c-.19.4-.51.72-.9.92l-1.29.66a.26.26 0 0 0-.11.34c.02.05.06.09.11.11l1.29.66c.39.2.7.52.9.92l.65 1.32c.06.13.21.18.34.11.05-.02.09-.06.11-.11l.65-1.32c.19-.4.51-.72.9-.92Z"/>
  <path fill="#D0C7D3" d="m71.907 38.23 1.48-.75c.44-.23.8-.59 1.02-1.05l.74-1.51a.284.284 0 0 1 .51 0l.74 1.51c.22.45.58.82 1.02 1.05l1.48.76c.14.07.2.25.13.39-.03.06-.07.1-.13.13l-1.48.75c-.44.23-.8.59-1.02 1.05l-.74 1.51a.284.284 0 0 1-.51 0l-.74-1.51c-.22-.45-.58-.82-1.02-1.05l-1.48-.76a.296.296 0 0 1-.13-.39c.03-.06.07-.1.13-.13Zm-1.02-3.7.63-.32c.06-.03.08-.11.05-.17a.265.265 0 0 0-.05-.06l-.63-.32c-.19-.1-.34-.25-.44-.45l-.32-.65c-.03-.06-.1-.09-.16-.06-.02.01-.04.03-.05.06l-.32.65c-.09.19-.25.35-.44.45l-.63.32c-.06.03-.08.11-.05.17.01.02.03.04.05.06l.63.32c.19.1.34.25.44.45l.32.65c.03.06.1.09.16.06.02-.01.04-.03.05-.06l.32-.65c.09-.19.25-.35.44-.45Z"/>
</svg>
