<svg xmlns="http://www.w3.org/2000/svg" width="147" height="144" fill="none" viewBox="0 0 147 144">
  <g clip-path="url(#a)">
    <mask id="b" width="145" height="137" x="0" y="0" maskUnits="userSpaceOnUse" style="mask-type:luminance">
      <path fill="#fff" d="M115.003 5.614c.105.034.171-.137.067-.17-.138-.034-.204.137-.067.17Zm29.787 83.432c0 .033-.033.033-.033.066-.033.034-.033.067-.066.138-.033.034-.033.067-.067.1l-.033.034c-.033 0-.033.033-.066.033-.067.033-.138.1-.204.138 0 0-.033 0-.033.033a26.57 26.57 0 0 1-2.713 1.155c-1.02.376-2.068.68-3.087.984-2.139.614-4.344 1.089-6.516 1.498a105.49 105.49 0 0 1-6.478 1.022 4.403 4.403 0 0 1-.579.067c-2.205.237-4.377.442-6.582.546-1.12.034-2.206.067-3.325.067h-1.356.066c-.507 0-.981-.033-1.494-.067-.204 0-.407-.033-.611-.033 0 .033.033.1.033.138l1.423 7.754c.507 2.686.981 5.372 1.493 8.058.475 2.553.949 5.068 1.39 7.617.375 2.11.778 4.183 1.152 6.294a.52.52 0 0 1-.303.542c-.033.271-.271.509-.574.476-3.699 1.702-7.602 2.957-11.5 4.117-4.748 1.431-9.566 2.79-14.417 3.912-10.045 2.316-20.388 3.3-30.703 3.129-13.198-.271-26.258-2.553-39.12-5.339a.51.51 0 0 1-.374-.614.473.473 0 0 1 .204-.304c.303-2.244.611-4.526.948-6.77.342-2.415.678-4.863 1.02-7.278.341-2.482.678-4.969 1.02-7.45.34-2.449.678-4.93 1.02-7.379.34-2.515.71-5.035 1.052-7.55.27-2.04.579-4.045.849-6.085-.204.033-.408.033-.579.067-1.83.17-3.618.1-5.463-.034-5.667-.409-11.164-2.04-16.219-4.625-1.257-.647-2.509-1.36-3.628-2.211l-.033-.033c-.033 0-.033-.034-.067-.034-.17-.138-.203-.304-.203-.475a.584.584 0 0 1 .033-.409c0-.066.033-.138.066-.204.033-.138.1-.238.138-.338l.407-1.022c.27-.713.58-1.431.85-2.178.611-1.564 1.256-3.166 1.863-4.725 1.186-3.029 2.376-6.019 3.528-9.047 1.186-3.029 2.376-6.09 3.562-9.114 1.224-3.129 2.442-6.224 3.666-9.352 1.152-2.957 2.305-5.919 3.462-8.843 1.223-3.128 2.442-6.294 3.699-9.422a703.203 703.203 0 0 0 3.628-9.319c1.152-2.995 2.343-5.952 3.495-8.947.341-.884.711-1.802 1.053-2.686a.515.515 0 0 1 .27-.271c.033-.067.033-.171.066-.238v-.033h.342c.033 0 .1.033.137.033 1.461.409 2.988.68 4.477.918.237.033.508.066.745.1h.066c3.154.442 6.312.68 9.5.85 2.679.138 5.325.238 7.971.238h.138c3.595.034 7.16 0 10.756-.104 3.594-.1 7.194-.271 10.788-.476a333.64 333.64 0 0 0 10.21-.784c2.035-.205 4.075-.41 6.038-.647 2.883-.342 5.734-.713 8.584-1.155 2.342-.338 4.647-.746 6.957-1.189 1.494-.304 2.983-.613 4.477-.95.27-.067.54-.138.782-.205h.237a67.636 67.636 0 0 0 2.784-.746c.1-.034.237-.067.337-.105.033-.033.104-.033.204-.066.033 0 .066-.034.099-.034.237-.066.474-.17.712-.237.033-.034.066-.034.099-.034.27.171.508.343.745.542.033.034.17.138.374.305h.034c.066.033.099.066.17.137l.375.271c.066.067-.123.043-.024.114.882.714 2.025 1.555 2.836 2.406 5.53 5.715 8.176 13.502 10.519 20.952 2.646 8.743 4.581 17.686 6.649 26.595 2.646 11.191 4.917 22.483 6.445 33.878.099.647.17 1.327.27 2.007v.033c0 .171.033.342.066.509.033.17.033.337.067.508v.1c0 .067 0 .138.033.204 0 .067 0 .138.033.238-.066 0-.066.1-.066.238h.004Z"/>
    </mask>
    <g mask="url(#b)">
      <path fill="#1E1E1E" d="M144.79 89.041c0 .034-.033.034-.033.067-.033.033-.033.067-.066.138-.033.033-.033.066-.067.1l-.033.033c-.033 0-.033.033-.066.033-.067.034-.138.1-.204.138 0 0-.033 0-.033.033-.882.443-1.798.818-2.713 1.156-1.02.375-2.068.68-3.087.984-2.139.613-4.344 1.088-6.516 1.497a105.49 105.49 0 0 1-6.478 1.023 4.403 4.403 0 0 1-.579.066c-2.205.238-4.377.442-6.582.542-1.12.033-2.206.067-3.325.067h-1.356.066c-.507 0-.981-.034-1.494-.067-.204 0-.407-.033-.611-.033 0 .033.033.1.033.138l1.422 7.754c.508 2.686.982 5.372 1.494 8.058.475 2.553.949 5.068 1.39 7.616.375 2.111.778 4.184 1.152 6.295a.52.52 0 0 1-.303.542c-.033.271-.271.509-.574.475-3.699 1.702-7.602 2.957-11.5 4.117-4.748 1.431-9.566 2.791-14.417 3.913-10.045 2.315-20.388 3.3-30.703 3.128-13.198-.271-26.258-2.553-39.12-5.339a.51.51 0 0 1-.374-.613.468.468 0 0 1 .204-.304c.303-2.244.611-4.526.948-6.77.342-2.415.678-4.864 1.02-7.279.341-2.481.678-4.968 1.02-7.45.34-2.448.678-4.93 1.02-7.378.34-2.515.71-5.035 1.052-7.55.27-2.04.579-4.046.849-6.085-.204.033-.408.033-.579.066-1.83.172-3.666.138-5.463-.033-5.667-.409-11.164-2.04-16.219-4.626-1.257-.646-2.509-1.36-3.628-2.21l-.033-.034c-.033 0-.033-.033-.067-.033-.17-.138-.203-.304-.203-.475a.583.583 0 0 1 .033-.41c0-.066.033-.137.066-.204.033-.137.1-.237.138-.337l.407-1.022c.27-.713.58-1.431.85-2.178.611-1.564 1.256-3.166 1.863-4.725 1.186-3.029 2.376-6.02 3.528-9.048 1.186-3.028 2.376-6.09 3.562-9.114 1.224-3.128 2.442-6.223 3.666-9.351 1.152-2.957 2.305-5.919 3.462-8.843 1.223-3.128 2.442-6.294 3.699-9.423a703.189 703.189 0 0 0 3.628-9.318c1.152-2.99 2.343-5.952 3.495-8.943.341-.884.711-1.801 1.053-2.686a.515.515 0 0 1 .27-.27c.033-.067.033-.172.066-.238v-.034h.342c.033 0 .1.034.137.034 1.461.408 2.988.68 4.477.917.237.033.508.067.745.1h.066c3.154.442 6.312.68 9.5.851 2.679.138 5.325.238 7.971.238h.138c3.595.033 7.16 0 10.756-.105 3.594-.1 7.194-.27 10.788-.475 3.391-.205 6.82-.476 10.21-.785a303.69 303.69 0 0 0 6.038-.646 241.87 241.87 0 0 0 8.584-1.156c2.342-.337 4.647-.746 6.957-1.188a209.96 209.96 0 0 0 4.477-.951c.27-.067.54-.138.782-.204h.237a67.633 67.633 0 0 0 2.784-.747l.408-.1c.099.1.237.172.374.238.105.067.238.138.342.205.033.033.099.066.137.1.067.033.1.066.171.104.033 0 .033.033.067.033.17.105.303.205.474.304 0 0 .033 0 .033.034a.262.262 0 0 0 .138.066c.033.034.104.034.137.034.138.066.304.066.441.066.204 0 .408-.066.579-.171.882.713 1.764 1.46 2.58 2.31 5.529 5.715 8.175 13.503 10.518 20.952 2.646 8.743 4.581 17.686 6.649 26.595 2.646 11.192 4.918 22.483 6.445 33.874.099.647.171 1.326.27 2.006v.034c0 .17.033.337.067.508.033.171.033.343.066.509v.105c0 .066 0 .137.033.204 0 .067 0 .138.033.238.034.066.034.17.034.304l-.015.01Z"/>
      <path fill="#EBA741" d="M145.804 86.821a6.55 6.55 0 0 0-1.081-1.283c-.607-.675-1.485-.913-2.291-1.317-.811-.338-1.584-.775-2.461-.913-1.821-.371-3.301.78-4.818 1.588-2.125.913-1.755-2.872-1.485-4.022.27-1.046.745-2.064 1.281-3.043 1.451-2.296 2.124-5.406.303-7.707-.944-1.25-2.257-2.063-3.267-3.242-.47-.575-.707-1.284-.911-1.959-.033-.133-.066-.304-.237-.404-.27-.17-.64.033-.64.338.436 2.605 2.395 4.497 3.405 6.893 1.347 2.905-.773 5.915-2.258 8.316-3.438 4.392-1.854 7.74.47 12.165-1.01-.37-1.987-.746-2.931-1.25-1.247-.675-2.461-1.521-3.979-1.588-.91-.033-1.821.171-2.698.438-1.655.37-3.742 1.792-5.293.47-1.214-1.283-1.584-3.175-1.114-4.83 1.043-4.73 6.336-4.935 7.147-9.798.673-3.785-2.594-5.14-5.193-6.894-1.551-1.117-2.931-2.634-3.709-4.393-.64-1.488-.977-3.11-.811-4.73-.033-.338-.469-.509-.706-.271-.304.37-.271.946-.337 1.383-.1 1.25-.1 2.534.166 3.784.303 1.522.944 2.872 1.755 4.222 1.413 2.296 3.642 4.664 3.305 7.607-.436 3.242-2.428 5.88-3.742 8.819-.706 1.621-.806 3.447-.507 5.206.303 1.72 1.043 3.347 1.987 4.83.607.98-3.519-.413-3.552-.413 0 0-1.812-4.084-1.47-6.585.303-2.976 1.954-5.439 3.134-8.11 1.115-2.706 1.044-5.815-.303-8.382-1.722-3.276-4.012-6.556-3.742-10.44.27-3.785 2.694-6.96 5.497-9.295.573-.509 1.114-1.013 1.716-1.455.138-.1.304-.204.47-.166.237.033.403.337.303.542-.303.508-.673.946-.977 1.454-1.214 2.23-1.716 4.935-1.214 7.436.47 2.263 2.059 4.022 3.842 5.372 1.754 1.317 3.708 2.363 5.259 3.923 1.987 1.892 3.305 4.968 1.954 7.602-1.755 3.446-6.877 4.293-7.82 8.248-.271 1.788 1.28 2.03 2.665 1.621 1.987-.608 3.841-1.084 5.596-.813-.1-.404-.204-.808-.237-.98-.508-3.512 3.372-5.338 4.552-8.28.878-2.23.238-4.731-.64-6.861-.773-1.754-1.887-3.31-2.461-5.135-1.65-4.697 2.428-8.315 1.617-12.979-.337-2.3-1.38-4.53-3.201-6.014-2.561-2.03-6.07-3.447-4.889-7.469.469-1.858 1.484-3.513 2.494-5.134.304-.371.47-1.046 1.01-1.15.271-.034.47.237.436.508-.336.742-.54 1.555-.403 2.4.238 1.422 1.181 2.568 2.025 3.685 1.485 1.86 3.002 3.58 4.283 5.544 1.887 2.938 3.101 6.523 2.632 10.036-.37 3.618-3.035 7.806-.64 11.186.673.847 1.617 1.422 2.527 1.993 1.314.813 2.462 1.925 3.135 3.313 1.314 2.534-.337 4.426-1.788 6.352-.541.808-2.091 3.447-.811 4.022.403.1.778-.1 1.148-.238 1.043-.47 2.091-.946 3.239-1.013 3.808-.033 4.856 4.294 5.259 7.265l.005-.005Zm-26.325 36.669c.403 1.893.436 4.122-1.214 5.439-1.584 1.35-3.576 2.063-5.464 2.838-2.93 1.151-5.965 1.992-9.067 2.668-7.483 1.488-15.105 2.03-22.654 2.976-4.112.437-8.224 1.046-12.34 1.488 4.553-.709 9.067-1.522 13.587-2.163 6.777-.88 13.62-1.721 20.331-3.076 4.144-.78 8.123-2.263 12.202-3.347a.29.29 0 0 0 .066.138c.304.404.773.033 1.043-.238.437-.404.641-1.013.745-1.588.133-.708.337-1.455.237-2.197-.1-.708-.436-1.383-.607-2.063-.27-1.417-.877-2.738-1.617-3.989-1.954-3.209-3.576-5.034-7.417-5.743-.707-.171-1.347-.675-1.821-1.283-.067-.1-.166-.238-.271-.305-.237-.133-.54.034-.607.305.067.708.508 1.383.778 2.025.541 1.217 1.38 2.368 1.38 3.751-.37 5.272-4.922 6.96-9.608 6.252-1.484-.2-3.002-.946-3.775-2.296-.673-1.755-.706-3.718-.403-5.577a55.388 55.388 0 0 1 1.347-6.185c.54-1.893 1.114-3.818 1.214-5.782.204-6.185-2.898-5.847-5.089-10.069-.336-.742-.403-1.554-.336-2.363-.034-.204-.237.133-.437.133-.303 0-.436.338-.436.609-.033.742.588 1.678.688 2.42.204 2.805 1.3 4.607 2.044 7.312.64 2.401.877 4.968.237 7.331-.745 2.401-2.258 6.047-4.956 6.827-2.428.371-3.88-2.739-4.25-4.797-.17-1.046.067-2.197.338-3.209.066-.205.17-.509.203-.747 0-.437-.607-.1-.777.271-.237.747.033 1.046-.304 1.793-.54 1.25-1.418 2.605-1.418 4.022.133 3.922 6.27 5.98 4.719 11.59-.877 3.956-5.596 5.339-9.134 4.327-1.518-.371-2.798-.97-4.078-1.778-.707-.404-1.907-.633-2.713-.737-.773-.133-1.3-.528-1.802-1.203-.574-1.284-.067-2.738.133-4.089 1.55-5.947-4.857-1.454-6.303-5.001-.508-1.217-.474-2.672.066-3.884.1-.271.337-.542.337-.847-.033-.27-.304-.47-.574-.37-.74.508-1.313 1.25-1.954 1.892-4.178 4.155-.374 7.435-.137 12.099-.067 2.568-1.584 5.934-3.742 7.555-1.484 1.117-3.51.841-5.127.332-1.213-.641-1.915-1.939-2.722-3.056-.132-.172-.27-.371-.403-.542a87.55 87.55 0 0 0-.91-1.793v-.033c-.034-.238-.1-.542-.304-.609-.133-.271-.27-.542-.37-.813-.977-2.229-1.01-4.797-.436-7.164.066-.238.27-.642.033-.88-.64-.542-.944.609-1.247 1.013-1.55 2.634-1.888 5.848-1.043 8.752.033.138.1.305.17.471-.943-.271-1.987-.337-2.968-.304-.811.066-1.65.133-2.462-.138-3.101-.88-3.471-4.868-2.665-7.535.607-2.13 1.788-3.956 2.969-5.848 1.214-1.926 3.168-4.426 1.683-6.723-1.313-1.759-3.642-2.296-5.088-3.884-1.485-1.488-2.708-3.922-2.101-5.985.303-.542.246-.875-.19-.404-1.01 2.229-.977 4.968.1 7.164 1.148 2.739 4.334 5.439 3.424 8.615-1.518 4.531-6.108 7.207-8.37 11.329-.811 1.488-1.333 3.19-1.333 4.878.033 2.097.247 4.44 1.726 5.995-1.418-.033-2.798-.067-4.216-.171-.944-.067-1.887-.1-2.798-.238a.419.419 0 0 1-.37-.471c-.1.067-.204.067-.303.067-.033.033-.1.033-.133.033-.066 0-.1 0-.17-.033-.74-.404-.845-1.417-1.115-2.13-.574-2.163-.54-4.497.303-6.589 2.395-5.848 10.381-6.556 13.52-11.967 1.789-3.175-1.72-5.643-3.034-8.177-1.181-2.163-1.148-4.763-.64-7.098.81-4.293 3.84-5.914 6.373-8.99 2.224-2.905 2.191-7.065.37-10.136-.133-.338-.574-.542-.607-.946 0-.404.508-.47.811-.404 2.594.509 4.415 3.076 4.652 5.643.133 1.384-.303 2.739-.773 4.022-.977 2.639-2.428 5.106-3.405 7.773-.944 2.634-1.987 6.59 1.148 8.178 1.484.741 3.201.879 4.586 1.787 2.025 1.184 3.405 3.784 2.494 6.119-.91 2.263-3.438 3.109-5.055 4.763-1.247 1.317-1.584 3.381-.574 4.935.436.609 1.451 1.926 2.258 1.588.237-.204.237-.542.237-.846-.067-.775-.27-1.555-.1-2.33.37-2.871 3.642-3.313 4.956-5.543 1.28-2.097 1.451-4.73.773-7.098-.133-.371-.133-.88.303-.979 1.044-.133 1.954 1.046 2.462 1.825 1.55 2.938-.541 6.086-1.518 8.853-.74 2.03-1.55 4.055-1.617 6.251.066 1.926.673 4.122 2.395 5.168 3.946 1.792 5.933-1.012 5.8-4.764.033-2.938-1.38-5.847-.607-8.752.778-2.738 3.576-4.055 5.767-5.477 1.38-.879 2.665-1.959 3.708-3.242 2.665-3.176 3.979-7.64 2.969-11.696-.74-2.805-3.035-4.797-5.53-6.085-5.226-2.838 15.304-4.36 7.014 13.721-1.314 3.446-3.338 6.827-3.405 10.578.133 3.176 2.091 2.905 4.25 2.672 1.213-.138 2.46-.305 3.504.137 4.652 1.655 1.347 5.71 2.428 8.853 1.617 3.651 4.856 2.534 6.473-.438.911-1.659.237-3.551-.706-5.034-1.788-2.667-5.293-5.439-2.831-8.891.64-.912 1.45-1.521 2.091-2.4a7.47 7.47 0 0 0 1.451-3.718c.27-1.926-1.01-3.618-2.224-4.968-.204-.238-.474-.371-.673-.609-.304-.47.27-.813.673-.846 3.875-.742 6.976 1.317 6.91 5.439.033 2.738-1.618 5.405-.977 8.144.54 1.992 2.058.675 2.632-.509 1.65-2.976 2.224-6.086.944-9.295-2.092-5.405-4.72-11.424.436-15.988 1.01-.88 2.091-1.754 3.234-2.5.337-.167.74.204.574.575-.778 1.283-1.314 2.805-1.081 4.326.64 4.83 3.101 5.068 5.932 8.11 1.855 1.992 2.357 5.002 1.452 7.536-.977 3.076-2.865 5.776-3.809 8.89-.64 1.959-.943 4.089-.436 6.119.337 1.588 1.55 2.976 3.035 3.309h.1c3.542-.675 5.463-2.838 4.79-6.49-1.01-4.055-1.722-8.21.977-11.795.336-.47 2.257-2.938 2.665-1.759.066.205-.067.404-.171.575a11.88 11.88 0 0 0-.74 1.522c-.54 1.35-.811 2.771-.607 4.188.204 1.046.607 2.03 1.347 2.739.64.437 1.451.337 2.191.337 1.314 0 2.661.033 3.946.371 3.035.78 5.8 3.314 5.932 6.556.034.404 0 .846-.033 1.284 0 0 .033 0 .033.033.404.642.437 1.555.641 2.363l-.038.047Z"/>
      <path fill="#EBA741" d="M73.696 90.135c.133 1.25.066 2.534-.507 3.685-.133.337-.437.746-.811.508a1.082 1.082 0 0 1-.171-.204c-.033-.033-3.135-5.848-5.293-8.21-1.92-1.96-3.504-4.565-3.2-7.403.27-2.263 1.484-4.26 2.36-6.285.067-.133.542-1.588.708-2.263.066-.238.27-.37.507-.304.237.033.37.27.303.508-.17.609-.303 1.218-.403 1.826-.976 6.927 5.663 11.662 6.507 18.147v-.005Zm28.387-7.502c.773-2.772 1.618-6.998-.17-9.5-.204-.27-.607-.707-.977-.403-.171.138-.204.337-.138.542.437 1.317.237 2.805-.066 4.122-.944 3.413-3.339 6.689-2.632 10.407a9.39 9.39 0 0 0 1.854 3.884c.337.337.64.913 1.148.946.099.133.27.166.436.1.204-.067.37-.305.27-.542-.204-.509-.37-1.046-.54-1.555-.64-2.672.17-5.439.811-8.01l.004.009Zm-2.19-13.72c3.841 2.063 5.562 6.013 4.856 10.273-.475 3.28-1.788 6.49-2.158 9.765-.204 1.76.099 3.514.574 5.14.066.508.706 1.316.099 1.62-.204.067-.436 0-.507-.204-4.652-2.738-7.588-6.014-6.104-11.729.845-3.313 2.765-6.422 2.732-9.936 0-1.454-.54-2.805-1.214-4.055-.844-1.521.707-1.521 1.717-.88l.004.005ZM22.554 92.636c.508-1.417.911-2.872 1.077-4.426.474-3.618-1.65-5.981-4.752-7.702-1.451-1.117-5.027-2.064-4.083-4.669 1.755-3.817 10.452-8.01 7.787-12.808-1.347-1.792-3.742-2.976-3.979-5.438-.066-.405-.1-.742-.066-1.184.066-.371 0-.913-.508-.847-.133.034-.27.138-.303.271-.204.542-.27 1.08-.337 1.655-.27 1.621 0 3.276.64 4.797.436 1.217 1.043 2.434 1.077 3.75 0 2.297-1.314 4.427-3.135 5.782-2.158 1.792-4.083 3.87-6.511 5.154-3.135 1.792-5.796 4.007-5.525 7.62.033.543.204 2.197.474 3.48-1.214-.708-2.29-1.454-3.135-2.296-.1-.1-.204-.204-.303-.337.033.166.066.304.1.47.203.272-.067.742-.437.642-.707-.17-.607-2.23-.64-2.838-.067-3.142 1.114-6.219 3.372-8.382 3.708-3.884 12.809-4.155 12.809-10.744-.133-2.639-1.755-5.002-1.518-7.673.133-3.347 2.97-5.273 4.823-7.707 1.347-1.826 2.462-4.022 2.395-6.352a13.252 13.252 0 0 0-.474-3.075c-.066-.238-.17-.471-.17-.742.033-.438.573-.609.943-.47 2.831.807 3.576 4.292 2.969 6.826-.773 3.58-3.135 6.556-4.112 10.036-.673 3.347.27 3.31 2.765 4.797 3.035 1.892 3.808 4.664 1.38 7.47-1.148 1.316-2.698 2.196-4.012 3.308-1.451 1.184-3.576 3.48-2.329 5.439.74.88.584.56 1.599 1.065 5.174 2.657 3.39 15.056 2.11 15.123l.01.005Z"/>
      <path fill="#D1863D" d="M14.36 92.973c1.551.542 3.168 1.046 4.857 1.046-.034.133-.034.238-.067.371a1.7 1.7 0 0 1-.403.067c-2.091.033-4.078-.675-5.999-1.522-.74-.37-1.484-.846-2.224-1.283-.204-.271-.64-.404-.91-.576-.034 0-.034 0-.067-.033s-.033-.066-.067-.138c1.584.742 3.202 1.488 4.89 2.064l-.01.004Z"/>
      <path fill="#D1863D" d="M19.15 79.861c3.1 1.726 4.955 4.764 4.48 8.382-.17 1.555-.54 3.01-1.076 4.426-.17.509-.37.98-.574 1.488-.17.404-.607.575-1.01.609-.37.066-.74.066-1.114.1.1-.172.17-.405.204-.61 0-.066.033-.165.033-.237.37-.033.74-.066 1.114-.133.171-.37.337-.78.474-1.15h-.37c-.336 0-.706-.034-1.076-.034.033-.542.033-1.117 0-1.725-.033-2.501-.91-5.069-2.798-6.761-1.92-2.063-7.417-4.188-5.16-7.668.171-.205.27-.543 0-.747-.474-.304-.91.338-1.28.542-2.258 1.754-4.012 4.326-4.349 7.198-.204 1.892.37 3.751 1.043 5.51.1.271.238.542.337.808-.877-.37-1.755-.741-2.56-1.15.066.17.099.337.17.508.877.371 1.755.78 2.627 1.184.171.338.304.709.508 1.046.033.033.033.067.066.1-1.148-.542-2.324-.98-3.438-1.555a.467.467 0 0 1-.204-.237c-.304-.1-.574-.78-.74-1.621-.303-1.284-.863-3.48-.896-3.984-.27-3.619 2.01-6.695 5.145-8.52 2.428-1.284 4.719-1.992 6.844-3.751 1.82-1.384 3.101-3.514 3.134-5.776-.033-1.317-.166-2.534-.607-3.752-.64-1.52-.91-3.175-.64-4.797.066-.541.133-1.117.337-1.654a.474.474 0 0 1 .303-.271c.508-.066.574.437.508.846-.034.438 0 .78.066 1.184.237 2.468 2.627 3.651 3.979 5.439 2.665 4.802-6 8.99-7.787 12.808-.977 2.534 2.864 2.805 4.316 3.955h-.01Zm35.196 59.718 2.428-.1c-2.56-.067-5.088-.205-7.62-.371 0 .138-.034.304-.034.437 1.722.067 3.471.067 5.226.034Zm62.6-13.112c.099.746-.1 1.454-.237 2.196-.1.575-.304 1.184-.74 1.588-.271.271-.74.642-1.044.271-.033-.033-.033-.1-.066-.133-.436.1-.877.238-1.314.371 0-.167-.033-.338-.033-.509-.066-.642-.166-1.284-.27-1.959-.304-1.654-.806-3.275-1.584-4.763-.403-.642-.707-1.522-1.413-1.893-.37-.133-.674.205-.74.542a49.48 49.48 0 0 1-1.755 4.869c-.844 1.792-2.025 3.446-3.338 4.935-.304.337-.607.675-.944.979a6.839 6.839 0 0 1-.944.808c-6.677 1.317-13.45 2.13-20.193 3.043-2.362.337-4.686.741-7.047 1.117a5.688 5.688 0 0 0-.403-1.046c-.54-1.084-1.347-2.063-2.258-2.838-1.55-1.251-3.57-1.621-5.463-2.097-1.484-.271-1.854-1.721-1.954-3.042-.204-2.097.37-4.969-1.954-6.015-.574-.304-1.214-.437-1.721-.879-.304-.204-.403-.642-.811-.642-.17 0-.304.1-.37.271-.066.542.204 1.084.303 1.588.337 1.25.778 2.467 1.115 3.751v.067c.773 3.209-.403 7.264-2.594 10.174a3.69 3.69 0 0 1-.474.575c-.37.404-.74.813-1.115 1.15-.303.271-.607.509-.944.747-.203.133-.403.271-.607.404-.237.171-.54.238-.81.371-2.666.1-5.326.1-7.991-.1h-.27a2.322 2.322 0 0 0-.134-.238c-.132-.199-.237-.437-.37-.642.404.034.845.034 1.248.067.204 0 .37.033.574.033 0-.138.033-.304.066-.47-.74-.067-1.451-.1-2.191-.172-.204-.304-.403-.641-.607-.946-.474-.675-1.01-1.317-1.65-1.825-2.97-2.363-7.08-2.297-10.116-4.498-1.38-1.117-2.091-2.871-2.025-4.63 0-.471.1-1.046.204-1.555.133-.371.133-.979-.403-.913-.574.271-.778.98-1.077 1.522-.74 1.621-1.18 3.413-1.147 5.167.066 2.706 1.28 5.339 3.168 7.303-.878-.171-1.788-.304-2.666-.509-.303-.066-.773-.1-1.01-.337-.1.066-.27.033-.403-.034l-.17-.171c-1.485-1.521-2.225-3.851-2.258-5.947.033-1.693.574-3.314 1.38-4.764 2.29-4.122 6.606-6.998 8.124-11.524.91-3.176-1.55-5.815-2.699-8.586-1.076-2.197-1.356-5.468-.308-7.697.436-.471 1.157-.171.854.404-.607 2.063.166 5.03 1.65 6.518 1.451 1.588 3.775 2.13 5.089 3.884 1.484 2.296-.474 4.797-1.684 6.727-1.18 1.892-2.361 3.718-2.968 5.848-.778 2.672-.437 6.66 2.665 7.535.81.238 1.65.2 2.461.133.977-.033 1.987.034 2.969.305-.067-.167-.1-.338-.171-.471-.844-2.938-.507-6.119 1.043-8.753.27-.404.574-1.554 1.248-1.012.237.237 0 .642-.034.879-.574 2.368-.54 4.935.437 7.165.133.271.237.542.37.808.237.1.27.371.303.609v.033c.304.608.607 1.217.91 1.792.133.205.271.371.404.542.81 1.084 1.82 2.064 3.035 2.705 1.584.509 3.305.172 4.785-.946 2.124-1.621 2.898-4.459 3.002-7.031-.237-4.664-3.272-7.502.91-11.657.64-.642 1.248-1.351 1.954-1.893.27-.099.54.1.574.371 0 .304-.237.542-.337.846-.54 1.218-.573 2.672-.066 3.885 1.451 3.551 7.853-.946 6.303 5.001-.237 1.317-.707 2.805-.133 4.089.507.675 1.451.708 2.224.846.811.1 1.65.238 2.362.642 1.28.846 2.494 1.859 4.012 2.229 3.538 1.013 8.223-.337 9.134-4.326 1.517-5.61-5.056-7.668-5.193-11.591 0-1.454.877-2.771 1.418-4.022.337-.746.507-1.521.773-2.263.204-.371.81-.237.773.205-.033.271-.133.542-.204.741-.27 1.046-.47 2.164-.337 3.209.37 2.064 1.788 4.698 4.25 4.327 2.698-.775 3.741-3.956 4.48-6.352.674-2.363.878-4.935.238-7.331-.74-2.705-2.461-5.14-2.66-7.977a9.754 9.754 0 0 1-.067-2.23c0-.271.1-.575.436-.609.204 0 .404.138.437.338-.067.808 0 1.621.336 2.363 2.225 4.226 5.326 3.922 5.089 10.074-.1 1.959-.707 3.884-1.214 5.776-.54 2.03-.977 4.122-1.347 6.186-.27 1.858-.237 3.817.403 5.576.773 1.35 2.29 2.097 3.775 2.296 4.652.709 9.205-.979 9.608-6.251.033-1.384-.811-2.534-1.38-3.751-.27-.642-.706-1.317-.778-2.03a.454.454 0 0 1 .608-.305c.137.067.203.167.27.305.436.575 1.081 1.117 1.821 1.283 3.841.675 5.463 2.501 7.417 5.743.74 1.251 1.347 2.568 1.617 3.989.171.675.47 1.317.574 2.063l.005-.004Z"/>
      <path fill="#D1863D" d="M59.167 137.144a3.657 3.657 0 0 1-.474.576c-1.888.304-3.775.575-5.663.879h.034c.033 0 .066.034.066.034 1.38.033 2.765-.034 4.112-.034.132.034.27.138.303.271a9.542 9.542 0 0 1-.944.742c-3.101.575-6.27.371-9.404.437h-.403c-.133-.204-.237-.437-.37-.642a3.03 3.03 0 0 0-.337-.542c-.203-.304-.403-.641-.607-.946 1.077.067 2.125.138 3.202.205 1.92.238 3.808-.371 5.728-.609 1.418-.204 2.832-.437 4.25-.642.237-.033.436.067.507.271Zm44.298-4.259a7.179 7.179 0 0 1-.944.813 12.24 12.24 0 0 1-2.461 1.521c-.237.033-.436.067-.673.1-.47 0-.977.271-1.413.033-1.618.304-3.235.642-4.857.946-.133-.033-.303-.066-.436-.133-.17 0-.303.1-.37.271l-1.347.205c-3.068.337-6.136.608-9.205.708-2.157.238-4.249.608-6.407.742-.033-.067-.033-.138-.066-.205a5.688 5.688 0 0 0-.403-1.046c1.18-.138 2.362-.304 3.538-.404.132-.204.37-.271.573-.271.238 0 .508-.066.64.133.878-.066 1.722-.171 2.595-.237.64-.034 1.28-.1 1.954-.134.132-.37.573-.437.91-.475.337-.033.707-.1 1.043-.133 1.385-.205 2.799-.371 4.179-.575 2.058-.271 4.182-.576 6.236-.847 1.147-.099 2.324-.37 3.471-.204a.434.434 0 0 1 .337-.338c1.043-.166 2.091-.304 3.101-.47h.005Zm11.491-2.401c.033.1 0 .204-.066.304a.457.457 0 0 1-.204.371c-.337.205-.707.304-1.043.437 0-.304-.034-.608-.067-.879 0-.171-.033-.338-.033-.509.066-.033.1-.033.171-.066.237-.1.507-.205.706 0 .237-.1.47.1.541.337l-.005.005ZM71.973 90.81c-.27-.133-.237-.437-.337-.708-.237-.609-.436-1.184-.74-1.76-3.371-5.034-6.572-5.543-5.225-12.636.066-.37.573-.47.773-.138.132.238.033.47.033.709-.1 2.263.706 4.392 1.954 6.218 1.147 1.721 2.257 3.48 3.234 5.306.337.813.673 1.62.877 2.467.171.338-.237.708-.573.542h.004Zm29.942-17.676c1.788 2.5.943 6.722.166 9.494-.64 2.605-1.451 5.339-.773 8.044.137.542.336 1.046.54 1.555a.461.461 0 0 1-.27.542.407.407 0 0 1-.436-.1c-.508-.033-.806-.642-1.148-.946-.91-1.15-1.55-2.434-1.854-3.884-.74-3.718 1.65-6.994 2.632-10.412.303-1.35.507-2.838.066-4.122a.484.484 0 0 1 .138-.542c.336-.338.74.067.943.37h-.004Zm38.594 22.982c.204-.1.37-.171.574-.271-3.102 2.096-7.583 3.01-10.988 3.447-2.191.204-4.415.133-6.54-.471-.303-.1-.607-.205-.91-.338.976.171 1.953.305 2.968.338 2.291.133 4.586.27 6.877 0h.033c2.798-.404 5.425-1.455 7.991-2.705h-.005Z"/>
      <path fill="#D1863D" d="M145.803 86.821c1.077 1.654 1.584 3.718.844 5.577-1.043 2.03-3.035 3.175-5.088 4.16.977-.642 1.854-1.422 2.461-2.401.773-.575 1.413-1.25 1.821-2.097-.37.171-.74.304-1.114.47.132-.708-.171-1.283-.878-1.725-1.721-1.25-3.405-1.959-5.563-1.654-.739.066-1.517.066-2.257-.067-.403-.033-.877-.271-1.28-.067-.607.471.303 1.284.507 1.826.403.98 2.158 3.143 1.043 4.022-2.157 1.15-5.126-.741-7.45-.98-2.395-.508-4.856-.1-7.279.272-.541.033-1.148.066-1.755-.033-.204-.034-.508-.172-.74-.138-.436.066-.436.608-.171.846-.17.238.034.542.171.742.27.475.574.946.844 1.421.237.37.436.708.674 1.08h-.47c.171.032.37.066.541.099.033.067.099.171.133.238.203.37.607.741.943.304-.033.338.304.47.574.575-1.148-.17-2.29-.37-3.438-.437-.37.742-.977-.1-1.314-.438-.099-.1-.204-.204-.303-.337a20.532 20.532 0 0 1-2.058-2.805c-.911-1.488-1.689-3.11-1.988-4.83-.336-1.726-.203-3.585.508-5.206 1.314-2.938 3.305-5.577 3.742-8.82.336-2.937-1.888-5.305-3.306-7.601-.806-1.35-1.451-2.705-1.754-4.227-.271-1.25-.271-2.5-.166-3.784.066-.47.033-1.013.336-1.383.237-.238.674-.067.707.27-.204 1.622.171 3.243.811 4.731.773 1.759 2.158 3.28 3.708 4.393 2.599 1.754 5.867 3.11 5.193 6.894-.811 4.868-6.103 5.067-7.147 9.798-.474 1.654-.137 3.585 1.11 4.83 1.551 1.317 3.642-.1 5.293-.47.877-.238 1.788-.471 2.698-.438 1.518.067 2.699.88 3.979 1.588.944.509 1.954.88 2.931 1.25-2.324-4.426-3.875-7.773-.47-12.166 1.485-2.4 3.609-5.405 2.258-8.315-1.01-2.4-3.002-4.293-3.405-6.893 0-.305.37-.51.64-.338.171.1.204.271.237.404.204.709.436 1.384.911 1.959 1.01 1.15 2.356 1.992 3.267 3.247 1.821 2.296 1.181 5.439-.303 7.707-.541.979-1.044 1.992-1.281 3.042-.27 1.15-.64 4.935 1.484 4.022 1.518-.813 3.002-1.958 4.819-1.588.877.134 1.65.576 2.461.913.773.371 1.65.642 2.291 1.317.37.338.739.78 1.043 1.25l-.005-.009Z"/>
      <path fill="#D45571" d="M19.181 94.019c.067-.47.133-.946.171-1.417-3.101-.27-6.81-1.084-10.215-2.296.1.238.204.437.337.642.033.033.033.066.066.133.022 0 .044.011.067.033.27.167.673.304.91.575.74.438 1.485.913 2.224 1.284 1.92.846 3.913 1.521 6 1.521a1.7 1.7 0 0 0 .402-.066c0-.171.034-.304.034-.404l.004-.005Zm1.01-3.11v1.722c-.033.437-.066.88-.132 1.35 0 .067-.033.171-.033.238-.034.204-.067.437-.204.608-.034.067-.067.1-.133.171-.773.509-1.821.271-2.698.167-2.429-.438-4.752-1.35-6.777-2.705-.171.033-.337.033-.475-.067-.066-.033-.1-.1-.17-.133-.37.166-.64-.37-.811-.747-.034-.033-.034-.066-.067-.1-.17-.337-.336-.708-.507-1.045-.067-.167-.133-.338-.237-.509-.1-.27-.237-.542-.337-.813-.673-1.72-1.29-3.88-1.086-5.772.304-2.871 1.973-5.448 4.23-7.202.37-.205 1.271-1.231 1.74-.927.271.204.318 1.283.152 1.483-2.257 3.447 2.647 5.025 4.567 7.089 1.954 1.654 2.936 4.692 2.97 7.193h.009Zm26.066 49.849c-.1-.171-.204-.338-.304-.509-4.012-.138-7.99-.575-11.899-1.455.133.138.304.238.437.338.204 0 .37.171.403.337 1.721.438 3.505.642 5.26.913 1.853.305 3.74.542 5.628.404.133-.033.238-.033.37-.066.033.066.067.033.1.033l.005.005Zm.81-.238c.674 1.488-2.224 1.184-3.035 1.217-2.527-.1-5.022-.608-7.516-1.012-.674-.138-1.314-.238-1.954-.438-.17-.033-.27-.171-.304-.337-.64-.438-1.247-.913-1.788-1.488-1.887-1.926-3.134-4.564-3.168-7.298-.033-1.792.404-3.551 1.148-5.173.304-.542.54-1.821 1.115-2.092.573-.033.64.742.502 1.113-.1.471-.336 1.455-.336 1.925-.034 1.759.64 3.514 2.025 4.631 3.035 2.196 7.146 2.13 10.115 4.493.64.508 1.181 1.15 1.65 1.825.204.305.404.609.608.946.1.172.237.371.336.542.133.205.237.438.37.642.033.067.067.133.133.238 0 .1.066.166.1.271v-.005Zm19.715 2.672c2.665-.238 8.902-.709 7.787-4.697a4.419 4.419 0 0 0-.1-.338h-.844a216.81 216.81 0 0 1-4.89.775c-3.84.609-7.72 1.084-11.594 1.35a9.365 9.365 0 0 1-1.28.742c3.438 1.521 7.213 2.097 10.921 2.163v.005Zm8.698-4.531c.977 4.902-7.517 5.577-10.856 5.273-2.698-.238-5.425-.676-7.957-1.688-.475-.171-.944-.404-1.418-.642a.466.466 0 0 1-.238-.371c-.27-.066-.37-.404-.204-.642.1-.1.238-.166.37-.237.27-.134.574-.205.811-.371.204-.138.404-.238.607-.404.337-.238.64-.471.944-.742.403-.338.773-.746 1.115-1.151.17-.204.303-.37.47-.575 2.19-2.905 3.404-6.96 2.593-10.174v-.066c-.337-1.251-.773-2.501-1.114-3.751-.1-.509-.37-1.046-.304-1.588.067-.167.204-.271.37-.271.403 0 .508.47.811.642.508.404 1.148.575 1.722.879 2.328 1.084 1.868 3.537 2.072 5.596.1 1.317.356 3.19 1.84 3.461 1.887.471 3.912.846 5.463 2.096.944.775 1.755 1.726 2.258 2.839.17.337.303.675.403 1.046.033.066.033.137.066.204.1.238.133.437.17.642l.006-.005Zm36.682-5.234c.541-.404.674-.946.674-1.555-.304.133-.574.304-.911.271a1.466 1.466 0 0 0-.37.138c-.066.575-1.484.742-1.987.946-.706.205-1.413.437-2.158.609-1.65.437-3.371.779-5.055 1.084-1.854 1.317-3.979 2.129-6.44 2.263 1.717.337 3.504.47 5.259.47 2.632 0 5.089-1.012 7.417-2.063 1.281-.642 2.528-1.25 3.571-2.163Zm1.485-1.588c.033.509-.033 1.046-.337 1.488-1.043 1.488-2.831 2.23-4.415 3.009-3.505 1.693-6.673 2.468-10.585 1.992-1.451-.133-2.865-.404-4.283-.741-.165-.034-.303-.205-.336-.371-.437-.033-.944-.033-1.314-.271a.471.471 0 0 1-.1-.509c.067-.138.204-.271.37-.271.138.033.304.1.437.133.303.067.607.1.91.1 2.258.067 4.25-.304 6.037-1.15a12.347 12.347 0 0 0 2.462-1.522c.336-.271.64-.542.943-.813.304-.304.641-.641.944-.979 1.314-1.488 2.495-3.109 3.339-4.935a49.55 49.55 0 0 0 1.754-4.868c.067-.338.37-.675.74-.542.707.371 1.01 1.25 1.413 1.892.811 1.488 1.314 3.109 1.584 4.764.1.675.204 1.317.271 1.958.033.167.033.338.033.509.033.304.033.575.066.88.067.066.067.133.067.237v.01Z"/>
      <path fill="#A02D44" d="M142.876 94.323c.203-.27.607-.78.844-1.316-.844.404-1.722.846-2.528 1.316-3.272 1.655-6.943 2.468-10.552 2.905-2.969.371-5.933.675-8.934.808l.099.305c.033.066.033.1.067.17.033-.066.099-.099.137-.132.171-.1.403-.034.607.1 0 0 .033 0 .033.033.304.138.607.237.911.337 2.124.609 4.349.675 6.54.471 3.405-.47 7.886-1.383 10.988-3.447.673-.47 1.28-.98 1.788-1.554v.004Zm.976-3.48c.745.438 1.011.98.878 1.726a2.894 2.894 0 0 1-.133.509c-.137.404-.337.78-.574 1.117-.64.98-1.517 1.76-2.461 2.4-.237.167-.508.305-.74.438-1.954 1.184-4.178 1.755-6.369 2.363-2.324.575-4.586.946-6.943.88h.067c-1.689-.034-3.405-.238-4.989-.847-.067-.033-.138-.066-.204-.1-.304-.1-.607-.237-.574-.575-.337.438-.773.067-.944-.304-.066-.067-.099-.171-.137-.238-.034-.033-.034-.066-.067-.1-.237-.337-.436-.708-.673-1.079-.304-.47-.574-.946-.844-1.421-.133-.2-.337-.509-.166-.742-.271-.27-.271-.775.166-.846.237-.033.54.1.744.138.574.138 1.214.1 1.75.033 2.395-.337 4.856-.742 7.284-.271 2.324.238 5.293 2.13 7.451.98 1.114-.88-.607-3.043-1.044-4.023-.17-.508-1.081-1.317-.507-1.825.403-.205.877.033 1.28.066.745.133 1.485.133 2.258.067 2.091-.304 3.808.404 5.496 1.654h-.005Z"/>
    </g>
    <path fill="#2EA0A6" d="M115.002 5.615c-.099-.033-.033-.205.067-.171.066.033.033.204-.067.17Z"/>
    <path fill="#010101" d="M77.917 14.862c-1.797 0-3.628-.034-5.43-.1a64.803 64.803 0 0 1-2.713-.138l-2.784-.205c-.948-.066-1.901-.137-2.85-.204-.915-.1-1.83-.204-2.784-.27-1.119-.139-2.271-.272-3.39-.41a752.968 752.968 0 0 1-3.391-.508c-.067 0-.1-.034-.138-.034a138.127 138.127 0 0 1-5.292-1.022c-.783-.171-1.594-.338-2.376-.542a73.407 73.407 0 0 1-2.58-.68c-.678-.204-1.356-.375-1.968-.58-1.12-.337-2.205-.713-3.324-1.088a41.736 41.736 0 0 1-1.902-.851c-.237-.1-.508-.238-.745-.343-.303-.17-.611-.337-.915-.508a122.157 122.157 0 0 1-3.429-2.007.616.616 0 0 0 .138-.237c.882.204 1.764.342 2.68.475.236.033.507.067.744.1h.066c3.154.442 6.312.68 9.5.85 2.679.139 5.325.239 7.971.239h.138c3.594.033 7.156 0 10.755-.1a370.7 370.7 0 0 0 10.79-.476c3.39-.204 6.819-.475 10.21-.78 2.034-.204 4.069-.408 6.037-.646a241.92 241.92 0 0 0 8.584-1.155c2.342-.343 4.647-.747 6.957-1.189a182.58 182.58 0 0 0 4.476-.955c.271-.067.541-.138.778-.205h.237c.949-.238 2.134-.613 3.05-.884.27-.067 1.09-.371 1.228-.409.204.138.545.409.745.542 1.289 1.055 2.731 2.011 3.884 3.238 1.626 1.668 2.764 3.532 3.95 5.472h-.033c-.237.138-.474.304-.745.475-.066.033-.137.067-.17.105-.067.033-.105.066-.171.1h-.067c-.033.033-.099.033-.137.066a3.878 3.878 0 0 1-.574.238 8.334 8.334 0 0 1-1.29.409c-.915.237-1.83.409-2.784.575-1.797.304-3.632.547-5.463.818-.948.137-1.902.304-2.883.409-.949.137-1.935.237-2.884.375-1.868.238-3.765.409-5.634.58-1.83.171-3.66.304-5.463.442-1.797.138-3.595.238-5.364.41-.645.066-1.256.099-1.83.17h-.138c-.066 0-.137.034-.204.034h-.066c-.1 0-.17 0-.27.033-.1 0-.204.033-.337.033-.237.033-.507.033-.744.067-.475.033-.916.066-1.39.104-.915.067-1.864.1-2.784.171a121.33 121.33 0 0 1-4.918.105c-.137-.105-.374-.105-.578-.105l.014-.004ZM21.164 88.2c.27-1.326.531-2.596.768-3.922v-.105c.034-.066.034-.171.067-.27 0-.1.237-1.237.237-1.342.204-.917.17-.765.374-1.72.508-2.244.982-4.488 1.494-6.732.475-2.111.916-4.217 1.39-6.328.507-2.244.982-4.522 1.494-6.77.474-2.111.948-4.217 1.39-6.361.507-2.244.98-4.488 1.493-6.737.237-1.055.474-2.073.678-3.128.1-.51.237-1.056.342-1.564.066-.343.137-.714.237-1.023a.55.55 0 0 1 .507-.375h.133c0 .1-.033.204-.033.304-.204 1.802-.441 3.642-.645 5.444v-.034.1c-.304 2.586-.612 5.168-.915 7.754v-.066c-.138 1.188-.304 2.415-.441 3.603l-.916 7.484c-.303 2.652-.645 5.272-.948 7.925-.304 2.62-.645 5.239-.949 7.858-.17 1.427-.341 2.858-.507 4.284v.067c-.067.442-.17.917-.204 1.36 0 .066-.033.137-.033.204h-.033v-.034c-.204.034-.408.034-.579.067-.816.067-1.665.1-2.476.1-.725-.02-.972-.029-1.925-.057v.014ZM1.922 78.092c.033-.1.1-.204.137-.304-.033.138-.066.238-.137.304 0 .023 0 .023 0 0Zm109.786 16.802c-.17-.033-.303-.033-.474-.033h-.541c-.374-1.973-.777-3.946-1.152-5.92-.441-2.177-.849-4.354-1.29-6.565a456.47 456.47 0 0 0-1.29-6.532c-.441-2.21-.882-4.422-1.29-6.632-.408-2.144-.849-4.284-1.257-6.428-.137-.68-.27-1.36-.407-2.073-.067-.342-.138-.68-.204-1.022-.033-.138-.067-.27-.067-.409 0-.066-.033-.138-.033-.238a.5.5 0 0 1 .541-.475c.237 0 .441.205.474.409.033.138.066.304.1.442.066.271.099.542.17.818.1.542.204 1.089.342 1.635.204 1.056.408 2.073.612 3.128.441 2.211.848 4.422 1.289 6.633.238 1.122.442 2.277.679 3.404.204 1.055.407 2.144.645 3.195.237 1.122.441 2.277.678 3.404l.612 3.061c.441 2.244.882 4.455 1.323 6.666.137 1.26.341 2.415.545 3.537.022 0 .022 0 0 0l-.005-.005Z"/>
    <path fill="#D1863D" d="M128.308 44.984c-1.38-1.66-3.504-2.367-4.752-4.16-.673-1.117-.943-2.467-.607-3.75.034-.205.138-.51.304-.61.403-.37.977.238.574.61-.607 1.825.403 3.784 1.954 4.763.507.404 3.912 2.534 3.101 3.176-.171.166-.403.133-.574-.034v.005Z"/>
    <path fill="#D1863D" d="M129.827 47.485c-.27-.709-.707-1.25-1.148-1.86-.237-.436-1.076-.945-.54-1.42-.437-.51-.911-1.013-1.347-1.555-.133-.171-.271-.304-.403-.476-.508.542-.977-.404-1.314-.708-.541 0-.673-.708-.911-1.117-.099-.371-.474-.675-.436-1.046-.303-.946-.673-2.097-.337-3.043.238-.304.707-.133.74.238-.204 2.13 2.092 4.089 3.306 5.643.943 1.084 1.987 2.13 2.561 3.447.137.509.943 1.759.369 2.063-.17.133-.436.033-.54-.17v.004Z"/>
    <path fill="#575858" d="M30.146 4.593h-.341v.033c-.033.066-.033.171-.067.238-.1.033-.203.138-.27.27-.341.885-.711 1.802-1.053 2.687-1.152 2.99-2.342 5.952-3.495 8.947-1.185 3.128-2.409 6.223-3.628 9.318-1.257 3.129-2.475 6.29-3.699 9.423-1.152 2.924-2.305 5.886-3.462 8.843-1.223 3.128-2.442 6.223-3.666 9.352-1.185 3.028-2.376 6.09-3.561 9.113-1.153 3.029-2.343 6.02-3.528 9.048-.612 1.564-1.257 3.161-1.864 4.725-.27.747-.579 1.46-.85 2.178L.256 79.79c-.033.1-.1.204-.138.337a.493.493 0 0 0-.066.205.584.584 0 0 0-.033.409c0 .166.033.332.194.466.432-2.23 1.504-4.298 3.154-5.881 3.709-3.884 12.81-4.155 12.81-10.745-.133-2.638-1.755-5.001-1.518-7.673.133-3.347 2.968-5.273 4.823-7.707 1.346-1.825 2.461-4.022 2.395-6.351a13.253 13.253 0 0 0-.475-3.076c-.066-.238-.17-.47-.17-.742.033-.437.573-.608.943-.475 1.262.361 2.11 1.255 2.604 2.358L31.9 5.368l-.479-.457a30.11 30.11 0 0 1-1.148-.29c-.033 0-.1-.033-.137-.033l.01.005Z"/>
    <path fill="#F8D181" d="M8.696 75.635c2.429-1.284 4.72-1.992 6.844-3.752 1.82-1.383 3.101-3.513 3.134-5.776-.033-1.26-.16-2.425-.55-3.59-.028-.075-.056-.156-.085-.232-.64-1.521-.91-3.176-.64-4.797.066-.575.133-1.117.336-1.655.034-.137.171-.237.304-.27.251-.034.398.085.47.256.1.171.109.428.07.656-.033.438 0 .78.067 1.184a3.9 3.9 0 0 0 .332 1.246c.398.85 1.067 1.545 1.769 2.215l.512-2.567c-.484-.6-.56-1.426-.218-3.124.389-1.393 1.005-2.705 1.645-4.008l2.106-10.497c-.498-1.103-1.342-1.997-2.603-2.358-.37-.138-.91.033-.944.475 0 .272.1.51.17.742.27.98.437 2.03.475 3.076.066 2.334-1.044 4.53-2.395 6.352-1.854 2.434-4.686 4.36-4.823 7.706-.237 2.672 1.38 5.035 1.517 7.674 0 6.589-9.1 6.86-12.809 10.744C1.73 76.918.658 78.986.227 81.216c0 0 0 .005.009.01.033 0 .033.033.066.033l.034.033c.996.756 2.1 1.403 3.215 1.992.123-3.233 2.276-5.966 5.155-7.645l-.01-.004Zm-6.781 2.453c.033-.1.1-.205.137-.304-.033.137-.066.237-.137.304Z"/>
    <path fill="#EFAE42" d="m18.553 71.66 2.12-10.587c-.707-.676-1.371-1.38-1.76-2.245a3.904 3.904 0 0 1-.365-1.312 4.607 4.607 0 0 1-.066-1.183c.033-.186.033-.414-.038-.59-.081-.133-.214-.219-.437-.19a.474.474 0 0 0-.303.27c-.204.543-.27 1.118-.337 1.655-.27 1.621 0 3.276.64 4.797.02.057.038.11.052.167.394 1.164.522 2.33.55 3.59-.033 2.262-1.313 4.392-3.134 5.776-2.125 1.758-4.415 2.467-6.843 3.75-2.88 1.674-5.032 4.408-5.155 7.645.137.072.275.148.412.219h.005c.849.433 1.712.841 2.585 1.217a7.472 7.472 0 0 1 .023-1.174c.304-2.872 2.092-5.444 4.349-7.198.37-.204 1.162-1.184 1.631-.88.27.205.27.97.1 1.17-1.973 3.01 1.518 4.593 3.713 6.318l.806-4.017c-1.455-.813-2.726-1.208-2.086-2.986.65-1.412 1.901-2.686 3.528-4.217l.01.005Z"/>
    <path fill="#E0709B" d="M12.557 76.571c.17-.2.17-.965-.1-1.17-.474-.304-1.261.68-1.631.88-2.257 1.754-4.045 4.326-4.349 7.198a7.484 7.484 0 0 0-.023 1.174l.07.029c2.846 1.231 5.568 2.158 8.603 2.743l1.086-4.255.057-.29c-2.195-1.726-5.686-3.309-3.713-6.318v.01Z"/>
    <path fill="#575858" d="m20.31 130.607 12.47-95.716s-2.87 97.756 14.573 101.189c0 0-18.42-2.178-26.87-4.55 0 0-.318-.072-.375-.39-.029-.147 0-.471.209-.528l-.005-.005Z"/>
    <path fill="#F8D181" d="M20.102 131.178c.062.318.375.39.375.39 1.584.446 4.529 1.036 6.63 1.454-.062-.423 0-.955-.01-1.369.033-1.692.545-3.451 1.356-4.901 2.291-4.122 6.682-6.133 8.2-10.664.934-4.341-2.324-6.147-3.547-8.681a9.497 9.497 0 0 1-.337-.704 8.088 8.088 0 0 1-.683-2.077c-.408-1.883-.133-1.983.612-3.571.408 6.352 2.456 5.078 2.542 5.158.1.096.208.191.313.276-.56-4.188-1.02-8.605-1.395-13.107-2.124 2.168-4.244 3.893-4.898 7.374-.508 2.329-.541 4.934.64 7.098 1.314 2.534 4.823 5.001 3.035 8.177-2.627 4.535-8.67 5.767-11.96 9.489l-.669 5.125c-.209.057-.232.385-.209.528l.005.005Z"/>
    <path fill="#EFAE42" d="M40.558 130.046c-.81.067-1.65.1-2.461-.133a3.69 3.69 0 0 1-1.49-.822c-1.74-1.531-1.863-4.579-1.204-6.751.46-1.607 1.243-3.038 2.106-4.46-.759-3.499-1.4-7.355-1.945-11.429a5.741 5.741 0 0 1-.317-.285c-.1-.09-.19-.186-.285-.285-1.484-1.488-2.708-3.923-2.1-5.986.303-.542.246-.875-.19-.404-.712 1.564-.901 3.385-.584 5.087a9.52 9.52 0 0 0 .716 2.111c.095.223.195.447.304.67 1.328 2.501 3.917 5.006 3.087 7.911-1.517 4.531-6.108 7.208-8.37 11.329-.811 1.488-1.333 3.19-1.333 4.878.01.466.024.951.062 1.431.996.195 2.025.385 3.068.571a9.575 9.575 0 0 1-.318-2.325c-.033-1.792.404-3.551 1.148-5.173.304-.542.54-1.82 1.114-2.091.574-.034.64.741.503 1.112-.01.048-.024.1-.033.157a1.17 1.17 0 0 1-.071.318c-.1.509-.204 1.084-.204 1.555-.014.418.014.832.085 1.241.247 1.274.878 2.458 1.907 3.29 2.788 2.016 6.487 2.13 9.37 3.97 2.562.342 4.231.537 4.231.537-2.343-.461-4.32-2.629-5.985-6.029a12.04 12.04 0 0 0-.806 0l-.005.005Z"/>
    <path fill="#F8D181" d="M36.632 129.234c.399.351 1.072.637 1.65.803.812.271 1.65.076 2.462.005.27-.01.322-.076.597-.067-1.517-3.114-2.779-7.25-3.827-12.066-.858 1.412-1.811 2.758-2.267 4.355-.626 2.158-.313 5.425 1.385 6.97Z"/>
    <path fill="#E0709B" d="M32.233 128.283a6.346 6.346 0 0 1-.114-1.341c0-.428.085-1.959.199-2.463.028-.323.047-1.055-.356-1.003-.574.271-1.228.937-1.532 1.479-.74 1.621-1.157 4.559-1.123 6.318.019.751.128 1.498.313 2.225a364.49 364.49 0 0 0 13.89 2.144c-2.855-1.721-7.033-2.415-9.755-4.383-1.053-.851-1.295-1.659-1.522-2.971v-.005Z"/>
    <path fill="#DF8F3E" d="m22.238 82.566 1.338 5.691.986-.014c.436-.01 1.28-.114 1.28-.114s.186-2.843-3.063-8.02l-.54 2.457Z"/>
    <path fill="#CC6D3D" d="m22.236 82.566-1.072 5.639 2.513.057s1.12-1.388-1.436-5.696h-.005Z"/>
    <path fill="#DF8F3E" d="m25.648 67.105.82-3.741s.19.266.096 1.683c-.095 1.416-.91 2.058-.91 2.058h-.006Z"/>
    <path fill="#010101" d="M133.637 53.56c-.37 3.619-3.035 7.807-.64 11.187.673.847 1.617 1.422 2.527 1.992 1.314.813 2.462 1.926 3.135 3.314 1.314 2.534-.337 4.426-1.788 6.352-.541.808-2.091 3.446-.811 4.022.403.1.778-.1 1.148-.238 1.043-.47 2.091-.946 3.239-1.013 1.375-.014 2.39.547 3.144 1.403-1.494-9.98-3.528-19.882-5.852-29.7-2.068-8.91-4.003-17.856-6.649-26.595-.887-2.814-1.816-5.681-2.926-8.462.958 9.665 1.366 18.17 1.356 25.644.517.67 1.02 1.35 1.489 2.063 1.888 2.938 3.102 6.523 2.633 10.036l-.005-.004Z"/>
    <path fill="#DF8F3E" d="M122.207 89.83c.877-.27 1.788-.47 2.698-.437 1.518.067 2.732.913 3.979 1.588.944.509 1.921.88 2.931 1.25-2.324-4.426-3.913-7.772-.47-12.165 1.485-2.401 3.609-5.406 2.258-8.316-1.01-2.4-2.969-4.293-3.405-6.893 0-.304.37-.509.64-.338a.437.437 0 0 1 .109.095c.104.1.133.233.161.343.204.708.437 1.383.911 1.959 1.01 1.15 2.357 1.996 3.267 3.247 1.821 2.296 1.181 5.443-.303 7.706-.541.98-1.043 1.992-1.281 3.043-.199.85-.455 3.157.294 3.912.261.238.631.3 1.158.072 1.517-.808 3.002-1.959 4.818-1.588.877.138 1.65.575 2.461.913.631.313 1.3.532 1.85.932v-.02a249.219 249.219 0 0 0-.593-4.174c-.754-.855-1.769-1.412-3.144-1.402-1.148.066-2.191.542-3.239 1.013-.37.137-.74.337-1.148.237-1.28-.575.27-3.209.811-4.022 1.451-1.925 3.101-3.817 1.788-6.351-.674-1.384-1.821-2.501-3.135-3.314-.91-.575-1.854-1.15-2.528-1.992-2.395-3.38.271-7.569.641-11.187.469-3.513-.745-7.098-2.632-10.036a34.196 34.196 0 0 0-1.49-2.063c0 3.456-.094 6.689-.26 9.717.227 1.317.061 2.553-.252 3.751-.284 3.57-.683 6.828-1.157 9.794.607 1.579 1.56 2.986 2.253 4.55.877 2.13 1.517 4.63.64 6.86-1.181 2.938-5.055 4.764-4.553 8.282.034.171.133.575.237.98-1.669-.257-3.433.161-5.311.727-.996 1.783-1.987 3.209-2.902 4.34 1.28.067 2.703-.746 3.898-1.012Z"/>
    <path fill="#CC6D3D" d="M144.791 88.461c-.033-.066-.033-.138-.033-.204v-.105c-.034-.17-.034-.337-.067-.508-.033-.172-.066-.343-.066-.51v-.032c-.1-.666-.166-1.336-.266-1.973-.564-.4-1.223-.628-1.821-.913-.811-.338-1.584-.78-2.461-.913-1.821-.37-3.306.775-4.818 1.588-.551.238-.93.157-1.191-.11-.792-.722-.531-3.08-.327-3.945.27-1.051.745-2.064 1.28-3.043 1.452-2.296 2.125-5.406.304-7.707-.944-1.25-2.257-2.063-3.268-3.242-.469-.575-.706-1.284-.91-1.959a.757.757 0 0 0-.128-.309.337.337 0 0 0-.076-.062c-.27-.17-.64.034-.64.338.403 2.605 2.395 4.493 3.405 6.894 1.347 2.904-.773 5.914-2.258 8.315-3.405 4.392-1.854 7.74.47 12.166-.977-.371-1.987-.742-2.931-1.25-1.28-.71-2.461-1.522-3.979-1.589-.91-.033-1.821.205-2.698.438-1.214.27-2.661 1.108-3.96 1.012-1.494 1.845-2.789 2.91-3.614 3.48.105.19.214.38.323.571h.009c1.119 0 2.205-.033 3.325-.067.189-.01.379-.023.573-.033-.265-.238-.26-.77.176-.841.237-.034.541.1.74.138.607.1 1.214.066 1.754.033 2.305-.352 4.639-.728 6.92-.328 1.166-.18 2.328-.38 3.481-.6a91.801 91.801 0 0 0 4.111-.87c-.313-.584-.668-1.13-.82-1.506-.204-.542-1.115-1.35-.508-1.826.403-.204.878.033 1.281.067.74.133 1.517.133 2.257.066 1.774-.252 3.23.195 4.648 1.05.455-.19.905-.394 1.347-.617 0-.034.033-.034.033-.034.066-.033.137-.104.204-.137.033 0 .033-.034.066-.034l.033-.033c.033-.033.033-.066.067-.1.033-.066.033-.104.066-.138 0-.033.033-.033.033-.066 0-.138 0-.238-.033-.305-.033-.1-.033-.17-.033-.237v-.01Z"/>
    <path fill="#010101" d="M126.366 85.69c-.099-.404-.204-.808-.237-.98-.507-3.513 3.372-5.338 4.553-8.281.877-2.23.237-4.73-.64-6.86-.693-1.565-1.646-2.972-2.253-4.55a93.89 93.89 0 0 1-1.551 7.663c.37 1.298.346 2.677-.308 3.951-.346.675-.821 1.255-1.366 1.773-1.11 3.252-2.314 5.886-3.509 8.011 1.882-.566 3.642-.984 5.311-.727Z"/>
  </g>
  <defs>
    <clipPath id="a">
      <path fill="#fff" d="M0 0h147v144H0z"/>
    </clipPath>
  </defs>
</svg>
