<svg xmlns="http://www.w3.org/2000/svg" width="154" height="129" fill="none" viewBox="0 0 154 129">
  <g clip-path="url(#a)">
    <path fill="#E4C5AE" d="M27.863 9.013 2.3 81.493s3.658 18.008 21.957 21.177c7.795 1.351 7.776 18.035 14.233 18.035h73.248l-4.517-76.155s25.043 58.191 33.175 46.188c0 0 3.913-74.592-19.264-90.733 0 0-24.356 24.365-51.843 24.913-12.136.24-26.061-17.908-36.766-21.503l-4.661 5.603v-.005Z"/>
    <path fill="#E4C5AE" d="M63.773 24.729s2.337.302 6.49.184l5.227 98.022s-17.982 4.903-30.63-5.621l18.913-92.59v.005Z"/>
    <path fill="#397557" d="m25.892 100.809-.01 1.672 2.232-6.49-25.23-5.253s-.413.189-.504.67c-.024.138-.168 1.2-.36 2.636 2.347 1.776 8.583 6.491 23.872 6.765Z"/>
    <path fill="#397557" d="m24.968 105.126.836-2.432a69.861 69.861 0 0 1-4.426-.218c-11.18-.907-16.883-4.256-19.658-6.225-.1.76-.206 1.544-.302 2.31 1.627 1.03 10.714 6.405 23.55 6.565Zm-.721 10.945-.067 2.641a98.757 98.757 0 0 0 14.492 4.979l1.262-2.084a100.426 100.426 0 0 1-15.687-5.536Zm17.822 2.013-6.687-4.02-9.942-1.625-1.085-.978-.062 2.555a98.368 98.368 0 0 0 16.662 5.91l1.114-1.838v-.004Zm-17.944 2.843s.144 1.332.96 1.776c.811.444 8.948 4.181 11.655 4.181l.912-1.507a99.864 99.864 0 0 1-13.522-4.629v.179h-.005Z"/>
    <path fill="#FDF8EF" d="M40.957 119.921a98.447 98.447 0 0 1-16.662-5.909l-.053 2.059a100.597 100.597 0 0 0 15.688 5.536l1.022-1.691.005.005Zm-16.828.827a99.95 99.95 0 0 0 13.522 4.629l1.023-1.686a98.567 98.567 0 0 1-14.492-4.979l-.053 2.036Z"/>
    <path fill="#397557" d="M114.889 114.385a147.25 147.25 0 0 0-.523-2.23c-4.609 3.482-11.161 5.848-19.509 7.043-4.723.676-8.732.78-10.733.78-.821 0-1.306-.019-1.368-.019l.072-1.89c.206.01 20.502.662 31.019-7.926-.139-.491-.254-.86-.336-1.044-.509-1.157-1.805-1.601-1.805-1.601l-32.44 6.561 3.912 8.229c2.799.047 21.582.042 31.706-7.908l.005.005Z"/>
    <path fill="#397557" d="M95.26 123.412c-4.882.675-9.02.779-11.089.779h-.081l1.281 2.697s18.026-.283 29.321-6.41c0 0 1.176-.344 1.176-1.147 0-.279-.221-1.446-.528-2.901-4.752 3.448-11.497 5.801-20.08 6.987v-.005Z"/>
    <path fill="#FDF8EF" d="m82.83 118.069-.072 1.89c.062 0 .547.019 1.368.019 2.006 0 6.01-.104 10.733-.78 8.348-1.195 14.901-3.562 19.509-7.043a63.922 63.922 0 0 0-.518-2.008c-10.518 8.588-30.814 7.932-31.02 7.927v-.005Zm0 4.214-.072 1.889c.062 0 .538.019 1.33.019l-.903-1.899c-.216 0-.34-.009-.355-.009Z"/>
    <path fill="#FDF8EF" d="M95.26 123.412c8.583-1.186 15.323-3.538 20.08-6.987-.134-.642-.288-1.336-.446-2.04-10.124 7.95-28.908 7.955-31.707 7.907l.903 1.899h.082c2.069 0 6.211-.104 11.088-.779Zm-70.934-16.41.644-1.875c-12.837-.161-21.928-5.537-23.55-6.566-.097.741-.193 1.454-.28 2.102 2.809 1.648 10.158 5.37 20.373 6.197a48.93 48.93 0 0 0 2.813.137v.005Z"/>
    <path fill="#397557" d="M21.515 106.86c-10.215-.827-17.564-4.554-20.373-6.197-.21 1.615-.365 2.791-.365 2.791s-.033.978.922 1.413c.653.297 6.889 2.853 13.307 4.053.485.089.97.17 1.454.245 2.492.378 4.95.515 7.057.185l.811-2.358c-.955-.023-1.9-.066-2.813-.137v.005Z"/>
    <path fill="#358060" d="M149.962 93.676s-.744-1.2-1.627-1.068c-.883.133-30.223 8.938-30.223 8.938s-.475.798-.475 1.601c0 .26.254 1.389.595 2.782 16.696-2.173 28.648-8.082 32.681-10.312-.547-1.124-.951-1.941-.951-1.941Z"/>
    <path fill="#397557" d="m62.516 23.723.033.023c-.01-.01-.02-.014-.033-.023Zm.449.292.115.076a1.611 1.611 0 0 0-.115-.076Z"/>
    <path fill="#1A7957" d="M53.932 20.718c-3.783-2.678-9.193-7.067-10.791-9.556-1.57-2.442-2.026-3.382-2.545-5.021-1.013-.133-2.05-.444-3.033-.68.787 3.623 3.019 11.2 16.369 15.252v.005Z"/>
    <path fill="#1A7957" d="M38.212 11.337c-1.901-2.962-2.482-4.846-2.784-6.575a8.796 8.796 0 0 1-2.905-1.351c.413 56.892 25.193 26.599 29.393 21.115a39.604 39.604 0 0 1-2.155-.718c-7.014-1.285-16.418-4.493-21.55-12.471Z"/>
    <path fill="#397557" d="m62.547 23.741.317.208c-.15-.1-.264-.175-.317-.208Zm1.922 1.266s.024.015.029.02c-.005 0-.015-.01-.03-.02Zm-.169-.108c.078.052.135.09.169.109a3.613 3.613 0 0 0-.168-.11Zm-.054-.039s.04.025.06.04c-.016-.01-.04-.024-.06-.04Zm-1.164-.764c.072.047.154.099.23.15a10.95 10.95 0 0 1-.23-.15Zm.234.151c.255.165.461.302.624.411-.196-.128-.412-.274-.624-.41Zm.625.411s.024.014.034.023a.143.143 0 0 1-.034-.023Zm.032.024c.11.07.201.132.273.18l-.273-.18Z"/>
    <path fill="#FDF8EF" d="m62.24 24.625.278-.907s-.211.297-.6.803l.326.099-.004.005Z"/>
    <path fill="#FDF8EF" d="m60.142 22.107-.322 1.715-.062-.014c.696.25 1.411.49 2.155.718.389-.506.6-.804.6-.804-.83-.548-1.613-1.086-2.371-1.615Z"/>
    <path fill="#FDF8EF" d="M51.009 19.301c2.371 1.682 5.256 3.246 8.746 4.511.02 0 .043.01.062.015l.322-1.715-.293-.203c-3.437-.647-6.36-1.545-8.842-2.603l.005-.005Z"/>
    <path fill="#1A7957" d="M103.953 3.86c-3.221.609-5.588 1.03-5.588 1.03-6.312 9.314-12.936 14.156-17.838 16.664 5.271-1.214 11.468-3.85 16.994-9.362.052-.052 3.859-3.883 6.432-8.333ZM121.137 0c-.85.335-2.453.77-4.436 1.233-1.498 2.296-4.604 6.538-9.457 10.831-5.194 4.597-13.258 9.906-24.15 11.904 27.573-2.697 40.976-21.923 40.976-21.923-.677-.798-2.938-2.045-2.938-2.045h.005Z"/>
    <path fill="#1A7957" d="M91.45 20.227c9.116-4.6 18.707-14.1 21.77-18.22a421.24 421.24 0 0 1-6.27 1.276c-2.688 5.499-7.666 10.51-7.728 10.567-1.368 1.365-6.36 5.32-7.777 6.377h.005Z"/>
    <path fill="#397557" d="m124.074 2.045.014.014c0-.005-.009-.01-.014-.014Zm.153.185c.244.288.124.15 0 0Zm-.047-.057Zm-.02-.023.02.024c-.005-.01-.015-.015-.02-.025Zm-.047-.057Zm-.027-.033s.019.024.029.033c-.015-.014-.024-.029-.029-.033Z"/>
    <path fill="#FDF8EF" d="M72.977 24.19c.49.024.974.043 1.454.057v-.345c-.931.227-1.454.288-1.454.288Zm18.857-4.577c1.416-1.058 6.025-4.393 7.393-5.758.062-.062 5.04-5.074 7.728-10.567-1.051.203-2.064.396-3.005.576-2.573 4.45-6.38 8.28-6.432 8.333-5.525 5.512-11.723 8.148-16.993 9.362-.404.208-.802.401-1.181.581 5.995-.661 8.016-.265 12.495-2.523l-.005-.004Zm-16.002 5.144a49.477 49.477 0 0 0 7.268-.789 65.919 65.919 0 0 1-3.432.246c-1.359.26-2.646.434-3.836.543Z"/>
    <path fill="#FDF8EF" d="M116.703 1.233c-1.071.25-2.247.515-3.476.775-3.067 4.119-10.959 12.182-20.075 16.783-6.956 2.253-8.842 4.53-13.484 5.423a66.295 66.295 0 0 0 3.432-.246c10.892-1.998 18.952-7.312 24.151-11.904 4.853-4.289 7.954-8.53 9.456-10.831h-.004ZM74.43 24.247v.538c.475 0 .94-.014 1.401-.028a39.655 39.655 0 0 0 3.836-.543 68.848 68.848 0 0 1-5.237.038v-.005Z"/>
    <path fill="#FDF8EF" d="M74.426 23.902v.345c1.8.056 3.542.042 5.237-.038 4.637-.888 10.1-2.81 15.376-6.74A45.787 45.787 0 0 1 79.34 22.13c-2.102.973-3.801 1.497-4.915 1.771Zm-48.621 78.796.077-.217.01-1.672c-15.294-.274-21.525-4.988-23.873-6.765-.09.671-.192 1.427-.292 2.211 2.774 1.975 8.477 5.324 19.657 6.226 1.387.113 2.866.189 4.426.217h-.005Z"/>
    <path fill="#F2E1D6" d="M64.91 25.23c.11-.7-.409-1.337-1.124-1.394-3.715-.288-14.425-1.502-21.717-6.14-8.948-5.693-9.548-14.285-9.548-14.285l-8.976 9.57L8.544 61.262l-1.805 6.226s-4.517 4.624-4.517 6.226c0 1.601.542 7.468 0 8.535-.543 1.068-1.805 5.513-2.17 6.401-.365.888 1.085 3.378 3.615 4.625 2.53 1.247 12.106 6.4 22.408 4.799l-2.631 10.803s.643 2.428 1.91 2.962c1.268.534 13.312 4.624 13.312 4.624l-1.925 10.421 10.82 2.097a1.083 1.083 0 0 0 1.282-.883L64.914 25.229h-.005Zm4.383-.317 2.304 101.475c.015.581.47 1.058 1.061 1.039 2.837-.08 9.692-.147 12.922-.543l-1.219-11.739s19.101-.264 28.86-7.203c0 0 1.219-1.333 1.085-3.869l-3.912-32.887 3.441 27.818s1.897 2.532 3.797 2.532c1.901 0 25.558-2.801 32.739-9.735 0 0 .677-2.67 0-4.403-.677-1.733-3.389-7.468-3.389-7.468s-1.997-7.577-2.304-8.423a3.971 3.971 0 0 1-.13-2.29c.557-2.315 1.704-7.554 1.08-8.89-.811-1.734-4.608-10.402-4.2-11.47.408-1.067 1.627-5.602.95-8.937-.677-3.335-7.181-23.023-7.997-23.826-.816-.803-7.455-12.59-10.302-14.053 0 0-24.337 24.643-53.797 21.974-.533-.047-.994.364-.984.893l-.005.005Z"/>
    <path fill="#399551" d="M64.91 25.23c.11-.7-.408-1.337-1.123-1.394-3.716-.288-14.425-1.502-21.717-6.14-8.948-5.693-9.548-14.285-9.548-14.285l-8.977 9.57s2.184 17.34 10.456 34.412L23.32 109.17c-.058.331.12.855.268 1.157.303.619.913 1.63 1.767 1.989 1.267.534 12.831 4.624 12.831 4.624l-1.444 9.949 10.82 2.097a1.076 1.076 0 0 0 1.276-.883L64.91 25.229Zm4.383-.317 2.304 101.555a.993.993 0 0 0 .99.959c2.351.014 8.515 0 12.994-.543l-1.22-11.739s19.101-.264 28.86-7.203c0 0 1.219-1.332 1.085-3.869l-7.081-59.528s27.967-27.648 27.151-28.447c-.816-.798-7.455-12.588-10.301-14.053 0 0-24.338 24.644-53.798 21.975a.893.893 0 0 0-.984.893Z"/>
    <path fill="#E4C5AE" d="m32.458 44.03-8.554 30.44.12 4.936-1.748 3.335 1.027 6.4s-9.149 6.32-15.932 5.895c0 0 8.751 4.587 17.925 3.147l8.506-49.694.187-1.096c-.226-.482-1.114-2.669-1.54-3.363h.009Z"/>
    <path fill="#397557" d="m33.998 47.393 2.016-9.986-3.557 6.623s1.517 3.33 1.54 3.363Zm75.733-5.333-2.496 2.499-2.016-9.958 4.512 7.459Z"/>
    <path fill="#FDF8EF" d="m103.408 62.995-1.224-20.344-7.388-6.595-11.928.473-7.364 7.69 1.34 20.784 7.81 6.845 12.855-.983 3.523 2.4 5.285-8.177-2.909-2.092Zm-10.07-1.724-7.307.666c.053.071-.74-.595-.816-1.483l-1.138-13.207a1.071 1.071 0 0 1 .965-1.148l7.08-.893a1.486 1.486 0 0 1 1.638 1.28l1.656 13.44c.081.68-.427 1.289-2.079 1.345Z"/>
    <path fill="#4C9A52" d="m100.789 71.838-3.408-2.14-12.01.95-7.12-6.103-1.161-19.467 6.658-6.745 11.06-.505 6.106 5.829 1.397 19.65 2.89 2.027-4.407 6.5-.005.004Zm-3.163-3.108 2.885 1.814 3.37-4.97-2.501-1.756-1.402-19.736-5.544-5.295-10.264.472-6.1 6.178 1.113 18.654 6.51 5.58 11.928-.946.005.005Z"/>
    <path fill="#358060" d="M151.742 97.323c-4.273 2.347-16.326 8.233-33.051 10.448.207.818.423 1.644.615 2.381 18.404-2.466 30.962-9.433 33.386-10.87-.302-.627-.629-1.303-.95-1.964v.005Z"/>
    <path fill="#358060" d="M153.511 101.007c-2.938 1.71-15.525 8.508-33.718 10.988l.216.817s.61 1.866 2.779 1.932c2.17.066 20.397-2.749 30.295-10.27 0 0 1.493-1.133.677-2.933-.067-.151-.153-.331-.249-.539v.005Z"/>
    <path fill="#FDF8EF" d="M150.911 95.618c-4.037 2.23-15.985 8.134-32.681 10.312.144.581.298 1.209.461 1.847 16.73-2.216 28.778-8.102 33.051-10.45-.293-.6-.576-1.185-.831-1.705v-.004Zm1.776 3.67c-2.424 1.431-14.982 8.403-33.386 10.869.187.727.36 1.37.485 1.842 18.193-2.48 30.784-9.277 33.717-10.987-.221-.473-.504-1.068-.816-1.72v-.004Z"/>
    <path fill="#FEF8EF" d="M60.17 30.123c.923 0 1.671-.736 1.671-1.644 0-.908-.748-1.644-1.67-1.644-.923 0-1.671.736-1.671 1.644 0 .908.748 1.644 1.67 1.644Zm-3.343 18.361c.922 0 1.67-.736 1.67-1.644 0-.908-.748-1.644-1.67-1.644-.923 0-1.67.736-1.67 1.644 0 .908.747 1.644 1.67 1.644Zm-3.344 19.627c.923 0 1.67-.736 1.67-1.643 0-.908-.747-1.644-1.67-1.644-.923 0-1.67.736-1.67 1.644 0 .907.747 1.643 1.67 1.643Zm-2.476 19.627c.922 0 1.67-.736 1.67-1.644 0-.907-.748-1.643-1.67-1.643-.923 0-1.671.736-1.671 1.644 0 .907.748 1.643 1.67 1.643Zm-2.821 19.287c.923 0 1.67-.736 1.67-1.644 0-.908-.747-1.644-1.67-1.644-.922 0-1.67.736-1.67 1.644 0 .908.748 1.644 1.67 1.644Zm-2.652 18.352c.922 0 1.67-.736 1.67-1.644 0-.908-.748-1.644-1.67-1.644-.923 0-1.67.736-1.67 1.644 0 .908.747 1.644 1.67 1.644Z"/>
    <path fill="#D0A98B" d="m110.387 71.191-.658-29.13-2.51 2.489 3.168 26.641Z"/>
    <path fill="#F3E6D3" d="M2.434 72.91c.024-.066.062-.141.096-.217-.034.076-.068.147-.096.218Zm.168-.373c.921-1.743 4.195-5.229 4.195-5.229s-3.159 3.236-4.195 5.23Zm6.005-11.45-.513 1.776A1294.15 1294.15 0 0 1 10.192 56l-1.58 5.088h-.005Zm-6.205 11.89a1.571 1.571 0 0 0-.125.557c0 .326.024.822.053 1.422-.072-1.365.029-1.838.072-1.98Zm-.07 1.979c.086 1.71.25 4.228.163 5.81.115-1.762-.096-4.487-.163-5.81ZM.067 88.929c0-.284.043-.458.043-.458a.985.985 0 0 0-.043.458Zm.742-2.579c.523-1.583 1.195-3.581 1.468-4.28-.34.67-.964 2.664-1.468 4.28Z"/>
    <path fill="#FDF5F0" d="M2.421 72.925s-.01.014-.019.051c.01-.023.02-.042.029-.065 0 0 0 .009-.005.014h-.005Zm4.376-5.617 1.291-4.45c-.797 2.641-1.286 4.299-1.291 4.45ZM.066 88.929c-.004.874.39 2.825 3.658 4.166C1.545 92.023.172 90.029.066 88.929Zm2.211-6.859c.12-.236.188-.7.216-1.304-.038.553-.1 1.011-.216 1.304ZM.11 88.47c.134-.33.393-1.162.695-2.12C.417 87.526.11 88.47.11 88.47Zm10.074-32.475L23.6 12.806S15.09 40.03 10.184 56v-.005Z"/>
    <path fill="#1A7957" d="M42.785 6.434Zm1.86-.071-1.555.756a25.77 25.77 0 0 0 1.718 3.113c2.362 3.646 6.798 8.403 14.8 11.497C48.356 13.722 46.45 8.262 46.128 6.594c-.023 0-.792-.099-1.483-.231Z"/>
    <path fill="#FDF8EF" d="M44.816 10.236a24.5 24.5 0 0 1-1.719-3.113c-.11-.236-.456-.907-.547-1.129-.585-.09-1.488-.326-2.198-.449.192.51.648 1.777.912 2.348.484 1.053 1.118 2.074 1.886 3.269 1.599 2.49 6.572 6.514 10.355 9.197 2.481 1.058 2.923.897 6.36 1.545l-.245-.17c-8.002-3.094-12.433-7.856-14.8-11.498h-.004Z"/>
    <path fill="#FDF8EF" d="M38.05 6.92s-.019-.047-.023-.066c-.14-.359-.26-.708-.36-1.039-.005-.019-.015-.043-.02-.061-.029-.095-.283-.822-.307-.917-.74-.208-2.035-.557-2.035-.557s.283 1.133.312 1.242c.038.132.077.274.12.416.062.217.134.434.206.666.048.137.091.274.14.42.057.16.12.321.182.487.043.118.091.236.139.359.072.17.144.345.22.52.054.122.111.245.169.373.081.18.153.42.245.604 0 0 .72 1.285 1.17 1.984 5.133 7.979 13.653 11.11 20.287 11.866-3.49-1.261-5.117-2.225-7.488-3.902-7.686-3.278-11.161-8.106-12.73-11.823a.325.325 0 0 1-.025-.061c-.072-.166-.134-.331-.197-.496l-.005-.015Z"/>
    <path fill="#399551" d="m43.09 7.124 1.555-.756c-.897-.137-1.358-.255-2.102-.373.096.222.442.897.547 1.129Zm-5.75-2.292c.03.095.28.822.308.917.005.019.014.042.02.061a21.77 21.77 0 0 0 .383 1.106l.197.496a.25.25 0 0 1 .024.06c.163.384.34.776.547 1.177l2.386-.855c-.264-.576-.672-1.743-.864-2.253-1.315-.27-2.035-.44-3.005-.713l.005.004Z"/>
    <path fill="#399551" d="M40.594 6.14c.192.51.422 1.234.686 1.81-.264-.576-.49-1.3-.681-1.81h-.005Zm-2.567.714Zm.252.626s-.02-.044-.025-.064c.01.02.02.045.025.064Zm-.631-1.731s.015.044.02.064c-.005-.02-.015-.045-.02-.064ZM36.627 8.38c-.077-.175-.149-.35-.221-.52-.048-.123-.096-.24-.14-.359-.062-.165-.124-.326-.182-.486a7.175 7.175 0 0 1-.139-.42 14.79 14.79 0 0 1-.206-.667 16.848 16.848 0 0 1-.12-.415c-.029-.114-.058-.218-.087-.326a51.264 51.264 0 0 1-.225-.917c-1.085-.326-1.853-.534-2.78-.864.015 1.355.576 3.57 2.3 6.674l2.189-.784c-.091-.18-.135-.368-.216-.548a12.76 12.76 0 0 1-.168-.373l-.005.005Z"/>
    <path fill="#399551" d="M35.531 5.191c.03.109.053.218.087.326a15.031 15.031 0 0 0-.087-.326Zm1.266 3.562c.082.18.125.368.216.548-.091-.18-.134-.373-.216-.548Zm-1.063-2.82c.063.217.135.435.207.666a14.79 14.79 0 0 1-.207-.666Z"/>
    <path fill="#FDF5F0" d="M5.17 85.915c1.987-2.603 2.266-5.272 2.266-5.272l.806-7.558s5.573-4.53 5.405-5.153c-.158-.596 10.48-42.996 11.469-46.945-1.114-4.993-1.517-8.19-1.517-8.19L10.182 55.99a1989.14 1989.14 0 0 0-2.098 6.864l-1.291 4.45s-3.27 3.486-4.196 5.228a2.339 2.339 0 0 0-.077.156c-.033.076-.072.152-.096.218a.922.922 0 0 1-.029.066c-.043.142-.144.614-.072 1.98.072 1.322.279 4.047.164 5.81-.034.6-.096 1.067-.216 1.303-.274.7-.946 2.697-1.47 4.28-.302.963-.56 1.79-.695 2.12 0 0-.043.17-.043.459.105 1.1 1.478 3.094 3.657 4.166 0 0-.542-4.577 1.445-7.18l.005.005Z"/>
    <path fill="#5FB366" d="m25.194 20.7 9.635-10.615c-.413-1.152-1.959-3.278-2.3-6.674l-8.924 9.395s.404 3.198 1.517 8.191l.072-.293V20.7Z"/>
    <path fill="#1A7957" d="m134.384 16.112-.014-.014-3.893-6.013 1.44 9.216c.801-.94 2.649-2.896 2.467-3.189Z"/>
    <path fill="#E4C5AE" d="M150.365 87.403c-.7-1.639-3.389-7.468-3.389-7.468l-2.304-8.422s-.221-.582-.245-1.257c-.024-.675.519-2.801.519-2.801s.648-3.132.706-3.907c0-.056.096-.713.115-1.133.029-.643.081-1.186-.034-1.72 0 0-.35-.869-.585-1.398-.236-.534-3.49-8.271-3.591-9.202-.101-.935-.259-.78-.039-1.511.221-.733.797-2.136 1.042-5.815 0 0 .298-2.013-.859-5.376-.408-1.19-.859-2.843-1.373-4.492a370.837 370.837 0 0 0-2.314-7.161c-.566-1.644-3.206-8.956-3.206-8.956l-.428-.685c-.523 1.152-1.651 2.258-2.453 3.202 0 0 7.287 20.09 7.287 22.76 0 2.668-1.445 7.647-1.445 7.647s5.06 11.677 5.06 12.239c0 .562-1.805 6.505-1.627 7.978.182 1.474 1.627 11.493 1.627 11.493s3.432 6.009 3.255 7.51c-.183 1.503-12.438 10.114-15.592 10.733-3.154.619 15.14-2.385 19.888-7.855 0 0 .701-2.764 0-4.403h-.015Z"/>
  </g>
  <defs>
    <clipPath id="a">
      <path fill="#fff" d="M0 0h154v129H0z"/>
    </clipPath>
  </defs>
</svg>
