<svg xmlns="http://www.w3.org/2000/svg" width="136" height="111" fill="none" viewBox="0 0 136 111">
  <g clip-path="url(#a)">
    <path fill="#DD565B" d="M23.31 61.375 3.988 49.355s-7.84-15.845-1.456-30.047C8.91 5.098 26.045 4.736 26.045 4.736l12.398 1.276L56.31 16.577 90.037 4.74 113.002 0s20.235 11.292 21.512 20.031c1.278 8.744 3.101 15.845-1.277 21.491l-30.444 24.95-1.095 15.117 2.368 16.206s2.006 2.549.729 4.736c-1.278 2.187-30.627 10.016-52.502 8.195-21.874-1.821-34.089-7.468-34.089-7.468s-.545-1.368.183-2.365c.729-.998-.637-2.457-.274-3.55.361-1.094 1.456-1.547 1.456-2.28 0-.731-.545-1.729-.275-2.64.27-.91 2.368-5.92 2.368-6.464 0-.545-1.731-2.187-1.548-3.55.183-1.365 1.548-.82 3.192-21.034h.005Z"/>
    <path fill="#E58A96" d="M27.876 102.871c-1.744-3.05-2.617-5.664-.872-8.278-.872 0-1.745-.435-1.745-1.307.437-.87 2.18-1.742 1.745-3.05l-1.308-1.306c.872 0 1.308-1.307.872-1.307-.24-2.658.187-5.577.763-8.474l-3.659-38.172c0 29.237-3.41 40.068-3.593 41.431-.184 1.364 1.548 3.006 1.548 3.55 0 .545-2.098 5.555-2.368 6.466-.275.91.275 1.912.275 2.64 0 .727-1.095 1.185-1.457 2.278-.362 1.094 1.003 2.549.275 3.551-.729 1.002-.183 2.365-.183 2.365s2.886 1.334 8.364 2.911c.658-1.36 1.692-2.61 1.343-3.303v.005Z"/>
    <path fill="#E7D6CB" d="m102.793 66.472 3.737-26.135s-.366-2.732 1.457-4.461c1.823-1.73 19.777-16.372 26.069-17.522 0 0 2.386 9.759 1.74 17.008 0 0-.737 3.79-2.559 6.156-1.823 2.365-30.444 24.95-30.444 24.95v.004ZM.982 23.743s17.405 9.768 22.69 17.235l-.366 20.397-19.323-12.02S-2.39 35.828.978 23.743h.004Z"/>
    <path fill="#1D4D76" d="m104.484 54.631 19.638-18.162 4.923-3.276 6.755-4.266-.715-5.184s-13.558 8.765-17.522 11.907c-3.964 3.14-11.757 9.697-11.757 9.697l-1.313 9.284h-.009Zm-80.809-.545S10.41 42.066.724 38.916c0 0-.807-4.996-.698-7.135 0 0 19.82 9.562 23.65 15.753v6.556-.004Zm4.888-48.993 28.289 18.96L112.999 0l-22.97 4.736-33.727 11.836L38.44 6.008l-9.877-.915Z"/>
    <path fill="#A32F2D" d="M101.697 81.589S97.14 99.616 92.4 102.352c-4.74 2.732-15.896 7.393-15.896 7.393s20.998-2.866 26.288-6.038c0 0 4.648-.806 1.277-5.907l-2.368-16.207-.004-.004Z"/>
    <path fill="#EEDBD3" d="m2.29 20.924 7.374-3.872a.677.677 0 0 1 .632 0l7.374 3.872a.68.68 0 0 0 .986-.714l-1.409-8.203a.672.672 0 0 1 .196-.602l5.966-5.807a.66.66 0 0 0 .188-.61c-4.933.68-16.214 3.407-21.129 14.346a27.593 27.593 0 0 0-.667 1.643.645.645 0 0 0 .488-.053ZM115.793 1.725a.58.58 0 0 0-.292.954l4.845 5.215c.131.14.183.335.139.523l-1.552 6.94a.581.581 0 0 0 .811.653l6.459-2.988a.591.591 0 0 1 .54.026l6.127 3.62a.588.588 0 0 0 .323.083c-3.432-5.877-12.682-12.107-17.4-15.026Z"/>
    <path fill="#A44238" d="M121.731 5.585a104.094 104.094 0 0 0-6.009-3.986L113.027 0 84.969 12.02c10.763-1.011 23.004-3.006 36.762-6.43v-.005Z"/>
    <path fill="#E4C5AE" d="M115.793 1.725a.58.58 0 0 0-.292.954l3.353 3.607c.921-.217 1.849-.444 2.783-.675a106.509 106.509 0 0 0-5.844-3.886Z"/>
    <path fill="#A44238" d="m34.25 8.896-5.674-3.803L27 4.5s-1.815.257-3.233.445c-.052.013-.109.03-.157.043 0 0 3.485 1.948 10.641 3.908Z"/>
    <path fill="#13354C" d="M66.887 12.865c5.481.017 11.504-.231 18.076-.85L113.025 0 90.056 4.736l-23.165 8.129h-.004Z"/>
    <path fill="#A32F2D" d="M108.318 29.868s-2.137 8.91-1.784 10.469l-3.737 26.135 15.132-12.068s-7.191-1.329-9.611-24.536Z"/>
    <path fill="#13354C" d="M38.468 6.012 27 4.5l7.264 4.4c3.62.99 8.172 1.983 13.697 2.728l-9.498-5.616h.005Z"/>
    <path fill="#E4C5AE" d="m112.256 47.447-7.767 7.24-1.692 11.841 15.132-12.063s-2.926-.597-5.673-7.014v-.004Zm-3.278-12.385c-.467.396-.811.697-.99.87-1.012.96-1.347 2.223-1.448 3.164 0 .03-.008.06-.008.091v.04c-.009.073-.013.148-.018.217-.03.57.018.954.018.954l-.716 4.997c.153-.13 2.098-1.817 4.492-3.807a69.185 69.185 0 0 1-1.33-6.518v-.008Z"/>
    <path fill="#163350" d="M110.31 41.579c-2.394 1.99-4.339 3.69-4.492 3.82l-1.33 9.297 7.767-7.25c-.676-1.576-1.339-3.502-1.945-5.867Z"/>
    <path fill="#E58A96" d="M17.442 11.406a.671.671 0 0 0-.196.6l1.409 8.204a.678.678 0 0 1-.986.715l-7.374-3.873a.677.677 0 0 0-.632 0l-7.375 3.873a.671.671 0 0 1-.445.06c-.34.92-.623 1.839-.859 2.758.131.074 7.728 4.348 14.378 9.389 2.072-10.587 6.433-20.925 15.316-25.303 0 0-4.03-1.338-7.073-2.658a.646.646 0 0 1-.197.423l-5.966 5.807v.005Z"/>
    <path fill="#FDF5F0" d="M13.801 46.197C9.676 43.243 4.896 40.28.758 38.926 1.913 44.95 3.985 49.35 3.985 49.35l9.664 6.012a125.51 125.51 0 0 1 .152-9.166ZM.032 31.781c.148.074 7.68 3.716 14.317 7.942a86.245 86.245 0 0 1 1.016-6.591C8.719 28.095 1.118 23.817.987 23.743.289 26.47.019 29.19.032 31.781Z"/>
    <path fill="#3D9FD4" d="M.031 31.78c0 .728.026 1.447.07 2.148.109 1.308.297 2.75.436 3.747.07.423.144.841.223 1.25 4.138 1.355 8.922 4.318 13.043 7.272.113-2.079.288-4.257.545-6.474C7.715 35.497.184 31.855.031 31.78Z"/>
    <path fill="#FDF5F0" d="M14.507 7.585c-.191.087-.383.178-.57.27l-.555.274-.126.066c-4.108 2.13-8.238 5.563-10.728 11.109-.249.557-.471 1.12-.68 1.681.144.03.296.018.444-.06l7.375-3.874a.677.677 0 0 1 .632 0l7.375 3.873a.68.68 0 0 0 .985-.714l-1.409-8.203a.671.671 0 0 1 .197-.602l5.966-5.807a.656.656 0 0 0 .196-.422c-.11-.048-.214-.096-.323-.14-2.159.318-5.373 1.01-8.726 2.531l-.053.026v-.008Z"/>
  </g>
  <path fill="#E7D6CB" d="M44.902 59.21c-4.423-2.454-6.635-6.284-6.635-11.49 0-2.704.696-5.157 2.087-7.36 1.442-2.253 3.604-4.03 6.486-5.332C49.722 33.676 53.276 33 57.5 33s7.778.676 10.66 2.028c2.882 1.301 5.02 3.079 6.41 5.332 1.442 2.203 2.163 4.656 2.163 7.36 0 2.653-.597 4.956-1.79 6.909-1.142 1.902-2.757 3.429-4.845 4.58 2.584 1.352 4.547 3.155 5.89 5.408C77.328 66.87 78 69.523 78 72.577c0 3.655-.92 6.809-2.758 9.463-1.839 2.603-4.324 4.58-7.455 5.932C64.707 89.324 61.277 90 57.5 90c-3.777 0-7.23-.676-10.362-2.028-3.081-1.351-5.541-3.329-7.38-5.932C37.92 79.386 37 76.232 37 72.577c0-3.054.67-5.707 2.013-7.96 1.342-2.253 3.305-4.056 5.889-5.408Zm17.518-9.163c0-1.752-.447-3.104-1.342-4.055-.894-1.001-2.087-1.502-3.578-1.502-1.441 0-2.634.5-3.578 1.502-.895 1.001-1.342 2.353-1.342 4.055 0 1.703.447 3.03 1.342 3.98.944.952 2.137 1.428 3.578 1.428 1.441 0 2.61-.476 3.504-1.427.944-.952 1.416-2.278 1.416-3.98Zm-4.92 15.47c-1.889 0-3.43.577-4.622 1.728-1.143 1.102-1.714 2.603-1.714 4.506 0 1.802.571 3.28 1.714 4.43 1.143 1.152 2.684 1.728 4.622 1.728 1.938 0 3.454-.576 4.547-1.727 1.143-1.152 1.715-2.629 1.715-4.431 0-1.903-.572-3.404-1.715-4.506-1.143-1.151-2.658-1.727-4.547-1.727Z"/>
  <defs>
    <clipPath id="a">
      <path fill="#fff" d="M0 0h136v111H0z"/>
    </clipPath>
  </defs>
</svg>
