<svg xmlns="http://www.w3.org/2000/svg" width="158" height="118" fill="none" viewBox="0 0 158 118">
  <g clip-path="url(#a)">
    <mask id="b" width="158" height="118" x="0" y="0" maskUnits="userSpaceOnUse" style="mask-type:luminance">
      <path fill="#fff" d="M157.191 0h-157v118h157V0Z"/>
    </mask>
    <g mask="url(#b)">
      <path fill="#B69BD3" d="M28.353 14.71c-3.64 11.85-7.67 21.13-10.76 27.52-10.18 21.15-20.7 33.13-16.41 46.06.96 2.92 2.43 5.09 3.46 6.43 7.89 4.61 15.78 9.21 23.67 13.81l4.27-43.61c1.37-7.4 1.88-13.64 2.06-18.21.32-7.63.5-12.94-1.21-19.61a48.3 48.3 0 0 0-5.1-12.39h.02Z"/>
      <path fill="#856FA8" d="M28.313 108.52c-.12 1.62-.25 3.22-.38 4.84-13.13-.34-24.96-10.64-24.96-10.64a26.647 26.647 0 0 1 1.66-8.02l23.67 13.81.01.01Z"/>
      <path fill="#9D82BF" d="m28.353 14.71-.81 52.53s-.53 4.43 4.3 5.23l-3.53 36.05c-6.97-4.07-13.95-8.14-20.93-12.21 5.58-1.04 8.81-3.27 10.62-4.88 10.91-9.72 4.82-27.64 8.51-62.92.63-6.02 1.37-10.88 1.85-13.79v-.02l-.01.01Z"/>
      <path fill="#856FA8" d="m32.915 63.05-5.38 4.18s-.29 4.84 4.3 5.23l1.07-9.42h.01v.01Z"/>
      <path fill="#E4D3EA" d="M43.472 54.84c-3.6 2.81-7.21 5.61-10.82 8.42l4.23-35.71 9.45-1.62-1.47 26.25a3.64 3.64 0 0 1-1.39 2.66Z"/>
      <path fill="#583B64" d="M109.691 92.5s-56.91 12.31-82.5-4l5.03-21.64c.05 1.12.1 2.23.16 3.35 5.31-4.13 10.63-8.27 15.94-12.41.82-.64 1.33-1.61 1.39-2.65l1.5-26.71c4.69 1.71 19.48.06 28.48-3.94l-2.01 5.55.23.34 24.73 35.88c-.27 3.8-.4 7.41-.42 10.8-.27-1.11-.94-3.13-2.68-4.99-.84-.9-1.72-1.51-2.43-1.94l-26.5-11.96c-.6-.26-.9-.93-.72-1.55l2.96-10.13-6.16 19.63c-.2.64.13 1.32.79 1.61l29.55 12.42c.79.44 1.76 1.08 2.7 2.02 1.94 1.93 2.68 4.02 2.98 5.18.05-5.41.34-11.34 1.07-17.7l5.91 22.84Z"/>
      <path fill="#C69AD6" d="M102.254 72.47c.22-8.35 1.37-18.45 3.83-30.68l1.39 33.03-5.22-2.36v.01Z"/>
      <path fill="#B69BD3" d="M157.021 93.51c-.35 2.57-1.27 9.23-6.17 11.98-1.36.77-2.68 1.04-3.58 1.15l-27.73 5.54s-.88-.07-2.25-.6c-4.86-1.83-15.83-9.3-15.04-39.11.22-8.35 1.37-18.45 3.83-30.68-1.77-11.91 2.26-23.07 10.62-28.51 3.93-2.56 8.04-3.35 11.12-3.55h.05c.21 0 .42-.02.61-.03.16.64.43 1.66.77 2.9 3.96 14.25 9.06 24.3 11.13 28.45 18.2 36.52 17.05 49.45 16.64 52.44v.02Z"/>
      <path fill="#B69BD3" d="M128.484 9.71c-.08.02-.18.05-.29.08-2.72.83-14.2 4.74-19.62 16.43-2.99 6.47-2.82 12.49-2.49 15.57-1.09 5.08-2.06 10.7-2.75 16.79-.43 3.75-.62 5.81-.69 7.69-.19 4.75.1 8.72.43 11.55a24.16 24.16 0 0 0-3.45-4.49s-1.35-1.37-2.93-2.54c-6.63-4.85-21.41-4.52-26.06-12.62-.17-.3-.46-.84-.72-1.55l2.96-10.13 4.81-16.45 3.24-11.05a4.44 4.44 0 0 1 2.94-2.97C93.954 12.84 118.974 0 118.974 0c.71.03 4 .23 6.67 2.92 2.72 2.75 2.83 6.1 2.84 6.79Z"/>
      <path fill="#4B2F57" d="M103.785 69.66c-.73 6.37-1.01 12.3-1.07 17.7-.3-1.16-1.04-3.25-2.98-5.18a12.16 12.16 0 0 0-2.7-2.02l-29.55-12.42c-.66-.28-.99-.97-.79-1.61l6.16-19.63-2.96 10.13a1.3 1.3 0 0 0 .72 1.55l26.5 11.96c.71.43 1.58 1.04 2.43 1.94 1.74 1.86 2.41 3.88 2.68 4.99.02-3.39.14-7 .42-10.8l.66.96.49 2.43h-.01Z"/>
      <path fill="#856FA8" d="M119.552 112.18c-.13.43-.45 1.73.16 3.1.7 1.57 2.34 2.61 4.22 2.7 3.09.08 6.87-.06 11.12-.76 4.06-.67 7.54-1.69 10.35-2.7a7.63 7.63 0 0 0 2.24-2.42c1.45-2.49.99-5.01.84-5.74-4.97 1.01-9.96 2.02-14.95 3.03-4.68.94-9.35 1.87-14 2.8l.02-.01Z"/>
      <path fill="#4B2F57" d="m51.221 28.44-1.5 26.71a3.637 3.637 0 0 1-1.39 2.65c-5.31 4.14-11.82 10.57-17.13 14.7-.06-1.11 1.08-4.52 1.03-5.64l.43-3.61c3.61-2.81 7.22-5.61 10.82-8.42a3.64 3.64 0 0 0 1.39-2.66l1.47-26.25s1.46 1.27 4.88 2.52Z"/>
      <path fill="#9D82BF" d="M89.203 14.04s18.18 1.27 27.5-.76c2.13-.07 5.1-.43 8.34-1.79 1.32-.56 2.48-1.17 3.44-1.79-.02-.67-.23-4.61-3.54-7.4-1.38-1.16-3.3-2.07-5.97-2.31l-29.77 14.04v.01Z"/>
      <path fill="#B69BD3" d="m46.764 18.4-.43 7.53-.14 2.52-.07 1.19-1.22 21.83-.04.72a3.64 3.64 0 0 1-1.39 2.66c-.25.2-.52.4-.77.61h-.02c-3.35 2.6-6.69 5.2-10.03 7.8-.18.14-.37.28-.55.43l-4.57 3.55a380.427 380.427 0 0 1 .81-52.53c-.05-.67-.04-1.37.06-2.11.63-4.75 4.5-7.71 5.92-8.7 0 0 .84 2.17 2.65 4.78 1.79 2.58 4.51 5.59 8.29 7.31.94.43 1.55 1.37 1.49 2.42l.01-.01Z"/>
      <path fill="#C69AD6" d="M44.903 51.46c.25 2.62-1.94 3.84-2.2 3.98.25-.2.52-.4.77-.61a3.64 3.64 0 0 0 1.39-2.66l.04-.72v.01Z"/>
      <path fill="#B69BD3" d="M116.694 13.29s-18.08 4.95-10.62 28.51c0 0-2.6-14.56 10.62-28.51Z"/>
      <path fill="#9D82BF" d="M106.682 27.1c-.46.91-1.16 2.33-1.91 4.11-5.63 13.26-3.72 20.18-8.89 27.77-1.36 1.99-3.65 4.68-7.62 7.16 1.86.47 4.48 1.39 7.2 3.22 4.26 2.86 6.55 6.47 7.61 8.46 1.21-16.91 2.42-33.81 3.62-50.72h-.01Z"/>
      <path fill="#856FA8" d="M39.585 53.46c1.5 0 2.71-1.21 2.71-2.7 0-1.49-1.21-2.7-2.71-2.7s-2.71 1.21-2.71 2.7c0 1.49 1.21 2.7 2.71 2.7Zm37.129 2.69c1.5 0 2.71-1.21 2.71-2.7 0-1.49-1.21-2.7-2.71-2.7s-2.71 1.21-2.71 2.7c0 1.49 1.21 2.7 2.71 2.7Z"/>
      <path stroke="#856FA8" stroke-linecap="round" stroke-linejoin="round" stroke-width="2" d="M32.652 8.52s3.26 8.1 9.64 10.69c-.33 10.43-.67 20.86-1 31.27"/>
      <path stroke="#fff" stroke-linecap="round" stroke-linejoin="round" stroke-width="2" d="M39.582 50.76V70.2"/>
      <path stroke="#856FA8" stroke-linecap="round" stroke-linejoin="round" stroke-width="2" d="M119.342 3.9s-23.63 12.54-32.54 15.25c-3.91 11.28-7.82 22.55-11.72 33.83"/>
      <path stroke="#fff" stroke-linecap="round" stroke-linejoin="round" stroke-width="2" d="M76.715 53.33v19.44"/>
    </g>
    <path fill="#CFBDE5" d="M34.33 3.89s-4.53 7.79-3.26 12.3l1.03 47.48-4.57 3.55s-1.49-36.7.81-52.52c0 0-1.54-5.52 5.98-10.81h.01Z"/>
    <path fill="#CFBDE5" d="M28.35 14.7s-6.08 37.96-15.49 50.34c-8.05 10.59-9.95 22.2-8.22 29.67 0 0-5.62-6.21-4.49-14.28C1.42 71.39 8.2 59.82 8.2 59.82S19.92 40.2 28.35 14.7Zm78.342 12.4s-4.37 43.25-3.93 57.71c.19 6.04 2.41 18.49 8.47 22.63 0 0-4.03-9.01-4.54-80.34Z"/>
  </g>
  <defs>
    <clipPath id="a">
      <path fill="#fff" d="M0 0h157.19v118H0z"/>
    </clipPath>
  </defs>
</svg>
