<svg xmlns="http://www.w3.org/2000/svg" width="149" height="105" fill="none" viewBox="0 0 149 105">
  <path fill="#FFD9E8" d="M45.488 6.45s10.6 14.83 33.4.08c4.53-.66 32.26-3.63 39.55-6.53 7.07 1.59 14.15 19.05 16.41 36.58.14 1.06.35 2.12.71 3.13 1.68 4.81 2.34 6 5.77 9.51 3.33 3.4 3.34 14.06.59 20.44-.8 2.23 1.86 7.87 4.09 11.13 3.49 5.1 4.05 10.24.72 14.33-.76 1.47-1.16 2.67-1.38 3.54a3.908 3.908 0 0 1-2.03 2.56c-3.84 1.94-14.19 5.57-29.53 1.49-1.06-4.41-2.1-9.82-3.37-12.95-1.27-3.13-5.34-8.09-4.9-14.12.44-6.03.66-10.79.13-12.62s-1.25-3.8-1.25-3.8.39 3.19-8.32 5.22c-8.71-.18-11.69 1.32-11.69 1.32s-2.04 2.05-4.55.15c-4.07.94-11.61 1.24-12.94.37-4.31.07-11.69 1.08-15.06-.35-5.57.86-7.84.77-9.57-.1-1.81.63-7.71 2-10.83-1.15-.46 4.03-4.26 39.67-4.26 39.67s-18.48.87-26.12-8.87c-.71-.9-.98-2.07-.78-3.2.62-3.37 2.75-4.91 2.47-7.61-.33-3.16-2.31-11.94-2.59-14.66-.56-5.52.18-16.72 6.92-22.79s9.76-15.72 9.65-16.84c-.08-.8 1.29-12.67 5.07-20.33 2.01-4.07 6.35-6.41 10.85-5.98 6.85.67 12.84 2.37 12.84 2.37v.01Z"/>
  <path fill="#FFD9E8" d="M104.395 59.22c.37-2.59.46-5.24.21-7.96-.35-3.8-.89-7.53-.35-11.34.53-3.74 1.74-7.18 1.77-11.01.07-7.38-3.86-13.95-3.89-21.3 0-1.48.19-2.9.54-4.26-10 1.54-21.08 2.77-23.79 3.17-22.79 14.75-33.4-.08-33.4-.08s-4.78-1.36-10.68-2.13c.23 2.03.46 4.06.35 6.1-.17 3.21-1.28 6.05-2.18 9.09-.88 2.96-1.53 6.02-1.22 9.13.3 3.07 1.28 6.06 1.73 9.11.91 6.27.24 13.02-.91 19.22-.3 1.65-.74 3.25-1.16 4.87-.31 1.21-.68 2.48-.17 3.68l.09.18c.05-.43.09-.78.11-1.01 3.12 3.14 9.03 1.77 10.83 1.15 1.72.87 4 .95 9.57.1 3.37 1.43 10.74.42 15.06.35 1.33.87 8.87.57 12.94-.37 2.51 1.9 4.55-.15 4.55-.15s2.98-1.49 11.69-1.32c5.46-1.27 7.53-3.64 8.32-5.22h-.01Z"/>
  <path fill="#FCC8DD" d="M118.195 82.82c.04-.26.41-.25.44 0 .13 1.1.46 2.49 1.23 3.32 1.42 1.53 7.79 4.74 2.82 18.19-2.33-.1-3.83-.52-3.83-.52s5.73-7.38.16-15.69c-1.1-1.62-1.04-3.82-.83-5.31l.01.01ZM79.707 64.91s2.81-10.95 6.97-10.36c4.16.59-2.5 8.9-2.33 9.47.17.57 1.07 1.32 1.07 1.32l-1.02.42s-1.87 2.09-4.55.15l-.62.13.48-1.13Zm-14.201 1.41s2.17-.35 2.17-1.61c0-1.26 3.39-15.66 10.55-17.3 1.8-.4 1.91 1.64 1.57 3.76-.37 2.32-1.28 4.52-2.61 6.46-1.63 2.37-4.01 5.27-4.01 6.7 0 1.15 1.69 2.38 1.69 2.38s-6.79.37-7.97-.44c-.77.05-1.4.05-1.4.05h.01Zm-15-.2s2.35-1.35 2.31-1.99c-.04-.64-1.88-11.23 2.46-11.36 4.34-.13 3.12 9.72 3.12 9.72s-.64 4.07 1.16 4.1c-3.78.05-5.86.32-7.72-.67l-1.34.2h.01Zm-4.088.4s-1.27-.52-1.33-1.28c-.06-.76 1.99-11.14-.93-12.48-2.92-1.35-2.77 13.35-2.77 13.35l.89-.27s2.32.98 4.14.69v-.01Z"/>
  <path fill="#FFC7DD" d="M146.008 80.79c-2.23-3.26-4.89-8.91-4.09-11.13 2.75-6.38 2.74-17.04-.59-20.44-3.44-3.51-4.09-4.69-5.77-9.51-.35-1.01-.57-2.07-.71-3.13-2.26-17.53-9.34-34.98-16.41-36.58-3.1 1.23-9.88 2.47-17.02 3.55 2.91 2.35 5.79 4.73 9.33 5.86 4.73 1.52 9.8 2 12.29 6.94 2.38 4.72 1.74 9.99 2.88 14.99.63 2.76 1.87 5.24 3.36 7.63 1.68 2.68 3.81 5.24 4.65 8.35 1.08 4 .03 7.77-1.84 11.21 1.1-.55 2.18-1.16 3.19-1.57 1.59-.65 3.74 1.03 3.55 2.73-.39 3.56-1.8 6.61-2.82 10-1.05 3.48-.17 6.23 1.01 9.53 1.17 3.25 1.04 6.39-1.02 9.27-.85 1.19-1.91 2.21-3.08 3.1.73.16 1.46.3 2.19.46 1.4.31 2.45 2.1 1.95 3.48-1.44 3.99-4.29 6.9-7.75 8.99 6.87-.3 11.65-2.12 14-3.3a3.885 3.885 0 0 0 2.03-2.56c.21-.87.62-2.07 1.38-3.54 3.33-4.09 2.77-9.23-.72-14.33h.01Z"/>
  <path fill="#FFEEF5" d="M8.336 93.02c.02-2.09.52-4.18 1.02-6.2.35-1.39.4-1.81-.19-3.26-.94-2.34-2.4-4.42-3.25-6.81-.92-2.59-1-5.21-.47-7.89.26-1.29 1.54-1.94 2.71-2.07 1.38-.15 2.81-.28 4.19-.57-1.2-1.4-2.35-2.84-3.1-4.5-1.52-3.37-.77-6.81 1.04-9.91 3.33-5.71 9.19-9.36 12.3-15.2 3.14-5.9 2.06-12.66 3.34-19.02.92-4.57 3.07-8.79 6.89-11.55.89-.64 1.84-1.17 2.82-1.6-.97-.14-1.97-.26-3-.36-4.5-.44-8.84 1.91-10.85 5.98-3.78 7.67-5.15 19.53-5.07 20.33.11 1.13-2.91 10.77-9.65 16.84S-.404 64.5.146 70.02c.27 2.71 2.26 11.5 2.59 14.66.28 2.7-1.85 4.25-2.47 7.61-.21 1.13.07 2.3.78 3.2 2.41 3.07 5.89 5.08 9.53 6.41-1.3-2.79-2.27-5.84-2.25-8.87l.01-.01Z"/>
  <path fill="#FCC8DD" d="M83.678 5.92c-2.23.28-3.93.48-4.79.61-22.79 14.75-33.4-.08-33.4-.08s-2.17-.62-5.39-1.25c0 0 16.38 25.54 43.58.73v-.01Z"/>
  <path fill="#FFC7DD" d="M104.256 39.93c.53-3.74 1.74-7.18 1.77-11.01.05-4.65-1.5-8.98-2.66-13.39-.53 2.92-1.29 5.82-1.47 8.77-.19 3.24.91 6.43.62 9.67-.29 3.29-2.67 5.46-3.47 8.52-.99 3.75.44 6.94.88 10.59.56 4.61-3.08 8.46-6.66 11.37.86-.02 1.79-.02 2.8 0 5.46-1.27 7.53-3.64 8.32-5.22.37-2.59.46-5.24.21-7.96-.35-3.8-.89-7.53-.35-11.34h.01ZM31.425 64.78c-1.2-2.36-2.39-30.05.79-42.36 0 0-4.47 7.25-4.25 13.96.33 9.82.1 20.64-1.55 28.25-2.72 12.53 2.59 21.88-5.54 39.48 3.68.37 6.3.24 6.3.24s0-.08.02-.23c0-.06 0-.11.02-.17 0-.06.01-.12.02-.19.45-4.26 3.22-30.13 4.02-37.49l.17-1.49Z"/>
  <path fill="#FFB6D4" d="M63.088 46.56c-.41 0-.83-.1-1.2-.31-2.7-1.48-9.09-5.45-10.16-10.41-.42-1.96.02-3.84 1.32-5.59 1.5-2 3.2-2.43 4.37-2.43h.03c2.47 0 4.63 1.76 5.67 2.95 1.02-1.23 2.82-2.94 4.97-3.06 1.37-.08 2.65.48 3.8 1.66 1.9 1.96 2.69 4.09 2.35 6.33-.77 5.08-7.22 9.07-9.95 10.55-.38.2-.79.31-1.21.31h.01Z"/>
  <path fill="#FFEEF5" d="M31.948 24.01c-1.03 5.87-3.01 20.96-.51 40.77 3.42 2.83 8.69 1.6 8.69 1.6s-5.28-1.45-5.98-3.92c-1.56-5.49-1.94-27.5 2.11-45.29-.03.02-.96.57-.99.59-2.23 1.61-2.83 3.53-3.31 6.25h-.01Z"/>
  <path fill="#FFC7DD" d="M14.036 102.93s-2.71-11.47.04-16.98c2.12-4.26 3.23-4.17 3.23-4.17s-4.41 12.76.39 21.91c-2.56-.49-3.65-.75-3.65-.75l-.01-.01Z"/>
</svg>
