<svg xmlns="http://www.w3.org/2000/svg" width="147" height="110" fill="none" viewBox="0 0 147 110">
  <g clip-path="url(#a)">
    <path fill="#fff" d="M61.77 36.338a11.528 11.528 0 0 1-11.266 7.146l-1.097-.878-.945.587c-.59-.137-1.18-.329-1.764-.576-5.88-2.442-8.682-9.227-6.252-15.144 2.43-5.917 9.18-8.727 15.066-6.28 3.5 1.455 5.908 4.447 6.77 7.872l-.955 1.02 1.262.764a11.674 11.674 0 0 1-.83 5.489h.01Zm37.432-4.375c0 5.05-3.21 9.342-7.694 10.934l-1.349-.395-.644.905c-.6.094-1.218.149-1.846.149-6.367 0-11.532-5.193-11.532-11.593S81.302 20.37 87.669 20.37c3.79 0 7.148 1.839 9.256 4.671l-.497 1.318 1.458.214a11.611 11.611 0 0 1 1.322 5.384v.011l-.006-.005Z"/>
    <path fill="#E6883C" d="M27.055 93.752s30.918 24.08 75.263 9.984L81.775 7.235s-14.514 1.35-28.264.247L27.055 93.757v-.005Z"/>
    <path fill="#E2733D" d="M34.173 98.467s10.359 4.847 11.63 5.149c0 0 15.744-62.223 18.878-62.168 4.167.077 6.848.077 9.54-.351 0 0 2.315 3.095 3.396 3.743 1.18.703 5.324 1.295 5.324 1.295S76.04 7.944 68.023 7.861c-8.016-.082-34.03 85.606-33.85 90.606Z"/>
    <path fill="#845C2F" d="M56.85 28.79c-.082-.033-.164-.06-.24-.093.322.126.6.263.24.093Z"/>
    <path fill="#21B0B2" d="M31.754 4.71s40.321 9.32 86.289-4.05l9.403 8.1a7.898 7.898 0 0 1 2.501 4.052l16.715 76.834s-4.702 18.114-45.596 19.536a2.265 2.265 0 0 1-2.288-1.751C95.56 93.878 75.04 8.514 68.034 7.871c-5.023-.46-27.892 82.928-31.262 95.322a1.737 1.737 0 0 1-1.987 1.252c-13.548-2.426-18.72-4.485-33.55-17.055a1.62 1.62 0 0 1-.464-1.827L31.754 4.71Z"/>
    <path fill="#1195AE" d="M82.947 46.086s3.02.73 7.06.461l1.087-1.081 1.213.57s7.863-3.002 7.928-10.094c.066-7.097-2.342-9.386-2.342-9.386l-16.9 12.811 1.954 6.724v-.005Z"/>
    <path fill="#664228" d="M59.187 27.083s10.113 3.793 18.112-.208v7.755s-9.949 3.618-18.74-.549l.628-6.998Z"/>
    <path fill="#6C4A26" d="M99.202 31.919c0 5.05-3.21 9.342-7.694 10.934l-1.349-.395-.644.905c-.6.094-1.218.149-1.846.149-6.367 0-11.532-5.193-11.532-11.593s5.165-11.593 11.532-11.593c3.79 0 7.148 1.839 9.256 4.671l-.497 1.318 1.458.214a11.612 11.612 0 0 1 1.322 5.384v.011l-.006-.005Z"/>
    <path fill="#D2A157" d="M97.286 31.579c0 4.588-2.648 8.557-6.504 10.429l-1.283-.533-.579 1.246a11.63 11.63 0 0 1-3.172.445c-6.367 0-11.533-5.193-11.533-11.593S79.38 19.98 85.748 19.98c6.367 0 11.532 5.193 11.532 11.593l.006.006Z"/>
    <path fill="#6C4A26" d="M85.758 38.248c3.664 0 6.63-2.986 6.63-6.664 0-3.678-2.971-6.664-6.63-6.664-3.658 0-6.63 2.986-6.63 6.664 0 3.678 2.972 6.664 6.63 6.664Z"/>
    <path fill="#4B301B" d="M82.657 37.133c-3.052-2.036-3.877-6.175-1.857-9.238 1.23-1.855 2.895-2.892 4.959-2.97a6.619 6.619 0 0 0-5.772 2.97c-2.026 3.069-1.196 7.202 1.856 9.238a6.543 6.543 0 0 0 3.91 1.11c-1.18-.045-2.031-.407-3.09-1.11h-.006Z"/>
    <path fill="#E8B46C" d="M74.653 31.667c0-6.4 5.166-11.593 11.533-11.593 1.092 0 2.146.154 3.145.433a11.424 11.424 0 0 0-3.587-.576c-6.367 0-11.533 5.193-11.533 11.593 0 5.308 3.402 9.781 8.245 11.153-4.614-1.514-7.797-5.873-7.797-11.021l-.006.01Z"/>
    <path fill="#6C4A26" d="m95.38 24.657-1.185 1.938h1.955l-.77-1.938Z"/>
    <path fill="#1195AE" d="M43.309 39.411s2.107 3.71 5.427 4.704l.748-.346 1.027.758s2.441.23 3.271-.357l1.49-4.764H43.31v.005Z"/>
    <path fill="#4B301B" d="m95.195 24.959 1.725.088-.497 1.317s1.453.16 1.47.236h-3.698l1-1.636v-.005ZM90.16 42.507l-.656-.982 1.283.532.726.84-1.348-.39h-.006Zm-.616-9.49c-.644-.494-1.288-.983-1.938-1.477.344-.39.682-.768 1.02-1.158.192-.214.378-.423.569-.642.333-.373.393-.994 0-1.356-.36-.335-.994-.395-1.349 0-.584.664-1.174 1.328-1.758 1.993a305.95 305.95 0 0 1-1.518-1.159l-.721-.543c-.399-.302-1.081-.077-1.305.346-.268.5-.088.988.344 1.312l1.938 1.476c-.344.384-.682.769-1.026 1.158l-.568.643c-.333.373-.393.988 0 1.355.36.335.994.396 1.349 0 .584-.664 1.174-1.328 1.758-1.992.502.39 1.01.768 1.518 1.158.235.181.48.362.72.544.4.301 1.082.076 1.306-.346.267-.505.087-.988-.344-1.312h.005Z"/>
    <path fill="#D2A157" d="M89.204 32.66c-.644-.494-1.288-.983-1.938-1.477.344-.39.682-.768 1.021-1.158.191-.214.377-.422.568-.642.333-.373.393-.994 0-1.356-.36-.335-.994-.395-1.349 0-.584.664-1.174 1.328-1.758 1.993-.503-.385-1.01-.769-1.518-1.159l-.721-.543c-.399-.302-1.081-.077-1.305.346-.268.5-.087.982.344 1.312l1.938 1.476c-.344.384-.682.769-1.02 1.158-.192.215-.377.429-.569.643-.333.373-.393.988 0 1.355.36.335.994.396 1.35 0 .583-.664 1.173-1.328 1.763-1.992.502.39 1.01.768 1.518 1.158l.72.544c.4.301 1.082.076 1.306-.346.267-.505.087-.988-.344-1.312h-.006Z"/>
    <path fill="#6C4A26" d="M61.77 36.338a11.528 11.528 0 0 1-11.266 7.146l-1.097-.878-.945.587c-.59-.137-1.18-.329-1.764-.576-5.88-2.442-8.682-9.227-6.252-15.144 2.43-5.917 9.18-8.727 15.066-6.28 3.5 1.455 5.908 4.447 6.77 7.872l-.955 1.02 1.262.764a11.674 11.674 0 0 1-.83 5.489h.01Z"/>
    <path fill="#D2A157" d="M60.134 35.284a11.538 11.538 0 0 1-9.971 7.141l-.983-.982-1.01.927a11.415 11.415 0 0 1-3.097-.807c-5.88-2.448-8.682-9.227-6.252-15.144 2.43-5.917 9.18-8.727 15.066-6.285 5.88 2.448 8.682 9.227 6.247 15.144v.006Z"/>
    <path fill="#6C4A26" d="M49.485 37.529c3.664 0 6.629-2.986 6.629-6.664 0-3.677-2.97-6.663-6.63-6.663-3.658 0-6.629 2.986-6.629 6.663 0 3.678 2.971 6.664 6.63 6.664Z"/>
    <path fill="#4B301B" d="M44.504 34.8c-2.042-3.051-1.24-7.195 1.802-9.248 1.84-1.246 3.779-1.564 5.712-.84a6.595 6.595 0 0 0-6.465.532c-3.037 2.053-3.84 6.198-1.802 9.25a6.586 6.586 0 0 0 3.189 2.524c-1.07-.494-1.726-1.158-2.43-2.212l-.006-.005Z"/>
    <path fill="#E8B46C" d="M39.19 26.677c2.43-5.912 9.18-8.727 15.067-6.28 1.01.423 1.922.967 2.74 1.615a11.585 11.585 0 0 0-3.1-1.91c-5.882-2.449-12.631.362-15.067 6.279-2.02 4.907-.573 10.346 3.375 13.475-3.686-3.172-4.97-8.425-3.02-13.179h.006Z"/>
    <path fill="#6C4A26" d="m61.022 28.115-1.834 1.334 1.807.752.022-2.086h.005Z"/>
    <path fill="#4B301B" d="m60.733 28.33 1.567.74-.956 1.021s1.284.703 1.262.78l-3.419-1.422 1.546-1.13v.01ZM49.418 42.606l-.234-1.158.983.982.343 1.06-1.092-.879v-.005Zm3.017-8.963-1.229-2.108 1.387-.675c.257-.127.508-.247.765-.373.447-.22.742-.769.513-1.246-.208-.45-.765-.753-1.24-.517-.791.39-1.589.774-2.386 1.164-.317-.549-.644-1.098-.961-1.652-.153-.258-.306-.521-.459-.78-.25-.433-.972-.488-1.332-.18-.437.362-.453.878-.18 1.339l1.228 2.108c-.464.225-.922.45-1.387.675l-.764.373c-.448.22-.743.768-.513 1.246.207.45.764.752 1.245.516.797-.39 1.589-.774 2.386-1.164.317.55.644 1.103.96 1.652.154.258.307.522.46.78.25.433.972.488 1.332.18.437-.361.453-.877.18-1.338h-.005Z"/>
    <path fill="#D2A157" d="M52.259 33.182c-.41-.703-.82-1.4-1.229-2.103.459-.225.923-.45 1.387-.675l.765-.373c.448-.22.742-.768.513-1.252-.207-.45-.764-.752-1.24-.515-.797.39-1.588.774-2.386 1.163-.317-.549-.644-1.103-.96-1.652-.154-.258-.307-.521-.46-.78-.25-.433-.971-.488-1.332-.18-.437.362-.453.878-.18 1.339l1.228 2.102-1.386.675c-.257.127-.508.247-.765.373-.448.22-.743.763-.513 1.247.207.45.764.751 1.245.515.797-.39 1.589-.774 2.386-1.163.317.549.644 1.103.961 1.652.153.258.306.521.459.78.251.433.972.488 1.332.18.437-.362.453-.878.18-1.339l-.005.006Z"/>
    <path fill="#EFAF43" d="M97.457 101.958s34.058-1.932 47.96-18.036l-3.484-16.017s-7.677 12.729-48.25 18.745l3.768 15.303.006.005Zm-87.77-39.68s14.307 15.463 33.621 17.384l-4.395 15.693S23.459 96.409 3.348 78.822l6.34-16.538v-.006Z"/>
    <path fill="#E2733D" d="m6.624 79.097 10.922 7.372c.54.367 1.267-.077 1.195-.725l-1.567-13.821a.77.77 0 0 0-1.201-.55l-9.354 6.45a.78.78 0 0 0 0 1.28l.005-.006ZM22.16 88l12.751 4.27a.836.836 0 0 0 1.06-1.048l-3.708-11.83a.836.836 0 0 0-1.332-.394l-9.043 7.552a.841.841 0 0 0 .273 1.444V88Z"/>
    <path fill="#8E589D" d="m32.803 72.39-11.937-6.203a.832.832 0 0 0-1.206.873l1.84 12.262a.84.84 0 0 0 1.256.598l10.096-6.06a.844.844 0 0 0-.043-1.47h-.006Zm10.909 5.856-5.99-3.113a.834.834 0 0 0-1.207.873l1.84 12.263a.84.84 0 0 0 1.256.598l1.333-.796 2.768-9.82v-.005Z"/>
    <path fill="#A781B5" d="m17.1 64.1-6.766-3.517S5.949 71.456 6.118 71.577a.82.82 0 0 0 .923.044l10.096-6.06a.844.844 0 0 0-.043-1.471l.005.01Z"/>
    <path fill="#8E589D" d="m118.528 75.842-13.089 3.068a.842.842 0 0 0-.355 1.455l9.316 8.129a.83.83 0 0 0 1.338-.362l3.773-11.198c.208-.62-.344-1.24-.977-1.087l-.006-.005Zm-17.004 4.813-8.813 2.064 2.048 8.289 2.632 2.3a.83.83 0 0 0 1.337-.363l3.774-11.197c.207-.62-.344-1.24-.978-1.087v-.006Zm31.568-11.944-12.341 5.347a.84.84 0 0 0-.093 1.493l10.599 6.34a.828.828 0 0 0 1.25-.599l1.742-11.686a.835.835 0 0 0-1.157-.895Zm8.338-3.117-4.019 1.74a.84.84 0 0 0-.093 1.493l5.499 3.293-1.387-6.52v-.006Z"/>
    <path fill="#E2733D" d="m101.218 100.421 15.524-2.267c.655-.098.912-.965.431-1.449l-9.501-9.408c-.377-.367-.972-.269-1.218.209l-6.023 11.675c-.311.604.153 1.328.792 1.24h-.005Zm18.177-4.1 14.88-4.99c.628-.208.727-1.114.164-1.503l-11.008-7.575c-.432-.296-1.005-.093-1.164.423l-3.871 12.564c-.202.648.388 1.284.999 1.076v.005Zm17.902-7.761 7.906-5.654-1.496-6.894-6.623-2.091c-.497-.16-.983.208-.989.746l-.06 13.152c0 .68.743 1.114 1.267.735l-.005.006Z"/>
    <path fill="#A781B5" d="M17.143 65.572a.843.843 0 0 0 .252-1.202l-.426 1.3.169-.098h.005Z"/>
    <path fill="#6EC0C8" d="m16.214 68.037.765-2.36-2.135 1.278c.431.357.884.714 1.37 1.082ZM3.348 78.817.77 85.552a1.65 1.65 0 0 0 .464 1.828c2.55 2.162 4.806 4.007 6.88 5.604l2.687-8.294a90.095 90.095 0 0 1-7.459-5.868l.006-.005Zm6.988-18.224 6.766 3.513a.845.845 0 0 1 .3.27L36.465 5.593C33.423 5.089 31.763 4.5 31.763 4.5L10.336 60.593Z"/>
    <path fill="#F8D183" d="M7.052 71.632a.839.839 0 0 1-.923-.044l-2.774 7.234a86.964 86.964 0 0 0 7.46 5.868l.731-2.262-4.914-3.32a.771.771 0 0 1 0-1.28l8.267-5.702 1.322-4.084c-.48-.374-.94-.73-1.371-1.082l-7.792 4.677v-.01l-.006.005Z"/>
    <path fill="#EFAF43" d="m6.626 79.097 4.914 3.32 3.342-10.302-8.267 5.703a.78.78 0 0 0 0 1.279h.01Z"/>
    <path fill="#6EC0C8" d="M10.338 60.593S5.953 71.461 6.122 71.588l2.283-5.961 1.927-5.034h.005Z"/>
    <path fill="#A781B5" d="m17.097 64.1-6.766-3.517-.65 1.69-1.277 3.343-2.283 5.96a.817.817 0 0 0 .923.045l7.792-4.677 2.135-1.284.426-1.301a.8.8 0 0 0-.3-.269v.01Z"/>
    <path fill="#1195AE" d="M32.242 4.507h-.48c4.783 1.927 18.15 4.177 34.489 5.187.726-1.218 1.321-1.877 1.78-1.833.617.06 1.338.774 2.146 2.036 15.65.68 34.162-.241 52.662-5.11l-5.417-4.61c-46.415 12.986-85.18 4.33-85.18 4.33Z"/>
  </g>
  <defs>
    <clipPath id="a">
      <path fill="#fff" d="M.656.176h146v109h-146z"/>
    </clipPath>
  </defs>
</svg>
