<svg xmlns="http://www.w3.org/2000/svg" width="134" height="103" fill="none" viewBox="0 0 134 103">
  <path fill="#fff" d="M39.125 6.76c-2.21-.42-13.2-2.49-15.6-3.04a.52.52 0 0 0-.55.21c-4.71 6.54-18.94 33.22-22.47 39.88a3.992 3.992 0 0 0-.21 3.31c1.54 3.96 6.53 13.26 19.81 15.22.31.05.53.33.48.64-.65 3.99-4.49 27.92-3.05 30.01 1.54 2.25 43.25 19.74 79.37.18.91-.49 1.45-1.48 1.4-2.51-.74-15.61-1.88-26.44-1.88-26.44s21.35 3.34 35.49-8.95c1.16-1.01 1.62-2.61 1.21-4.09-4.16-15.03-14.25-48.76-25.41-51.16a.488.488 0 0 0-.24 0c-7.01 1.57-24.45 5.76-37.1 6.03a.54.54 0 0 0-.53.6c.39 3.72-3.96 12.06-16.3 11.73-10.46-.29-13.2-4.15-13.99-11.15a.554.554 0 0 0-.43-.48v.01Z"/>
  <path fill="#E4545B" d="M39.513 6.83c.73 7.25 3.37 11.26 14.03 11.55 13.05.36 17.16-8.99 16.19-12.32l6.75-.39s-3.69 19.53-22.78 18.44C34.203 23 34.933 8.06 34.563 5.88l4.96.94-.01.01Zm12.679 60.62-.05 9.62h1.68l-.28-9.61 9.51 1.34-1.03-3.5 9.87-7.97-2.64-1.69 1.97-6.07-5.89 1.01-1.28-2.85s-3.8 5.18-5.11 4.85c-1.31-.33 1.9-11.4 1.9-11.4s-3.03 2.1-3.83 2.05c-.8-.05-3.85-6.97-3.85-6.97s-3.05 6.7-3.62 6.98c-.57.28-4.03-2.09-4.03-2.09s2.58 10.86 1.87 11.23c-.71.37-5.29-4.58-5.29-4.58l-1.38 2.91-5.87-1.11 1.94 6.11-2.54 1.35 9.73 8.08-1.14 3.42 9.33-1.1.03-.01ZM28.546 90.81c.27-9.83.8-19.63 1.46-29.43 1.25-18.6 2.49-37.2 2.67-55.84-4.1-.78-8.68-1.68-9.49-1.89-4.5 6.02-19.23 33.65-22.73 40.26-.51.97-.59 2.11-.19 3.13 1.52 3.97 6.6 13.6 20.41 15.39 0 0-4.71 28.29-3.14 30.57.46.67 4.49 2.69 10.87 4.69.05-2.29.08-4.58.15-6.87l-.01-.01Zm104.566-39.63c-4.18-15.09-14.33-49-25.53-51.18-4.59 1.03-13.82 3.23-23.23 4.67-.01 27.13-.14 54.26.02 81.38.02 4.13.08 8.25.15 12.38 4.26-1.37 8.51-3.16 12.68-5.45a2.15 2.15 0 0 0 1.1-1.98c-.74-15.8-1.89-26.79-1.89-26.79s21.35 3.34 35.48-8.94c1.16-1.01 1.62-2.61 1.21-4.1l.01.01Z"/>
  <path fill="#C9414E" d="M87.373 96.73c-2.55 2.27 6.7-2.01 9.84-3.73a2.15 2.15 0 0 0 1.1-1.98c-.74-15.8-1.89-26.79-1.89-26.79l-4.33-35.95s5.14 59.69-4.72 68.45Zm45.741-45.55c-4.18-15.09-14.33-49-25.53-51.18-1.15.26-2.6.59-4.26.96 6.2 5.98 10.19 14.49 13.49 22.19 4.89 11.42 8.61 23.22 10.55 35.41 1.57-.95 3.1-2.04 4.54-3.29 1.16-1.01 1.62-2.61 1.21-4.1v.01Z"/>
  <path fill="#C9414E" d="M116.883 8.55c-1.95.51-4.14 1-6.54 1.45-7.2 1.37-16.25 2.44-25.98 2.89V4.68c1.18-.19 2.35-.38 3.51-.58.85-.15 1.69-.3 2.52-.45.85-.15 1.69-.31 2.51-.47.64-.13 1.27-.25 1.89-.38.81-.16 1.6-.33 2.37-.49.78-.16 1.53-.32 2.26-.48.44-.09.86-.18 1.28-.28.47-.1.92-.2 1.36-.3.44-.1.86-.19 1.27-.29.21-.05.43-.09.63-.14.15-.03.29-.06.42-.09.05-.02.1-.03.15-.04h.02c.39-.09.76-.17 1.11-.25.35-.08.69-.16 1.01-.23.04-.01.07-.02.11-.02.13-.03.25-.06.37-.09.11-.02.21-.05.31-.07h.05c.07 0 .18.01.35.04h.03s.06.01.1.02c.04.01.08.02.12.04h.03c.06.01.12.03.19.06.02.01.03.01.04.01.15.04.33.11.52.19.08.03.16.07.25.11.04.02.09.04.13.06.01 0 .02.01.02.01.12.06.23.1.35.17 0 0 .03.01.04.03.17.09.34.19.51.3h.01c.1.06.2.13.3.2.07.04.14.09.21.14.09.06.18.13.27.2l.24.18c.09.07.18.15.27.22.08.07.16.14.24.2.04.04.07.07.11.1.06.05.12.11.18.16.03.03.07.06.1.09.03.02.06.05.09.08.12.12.24.24.37.36l.39.39s.03.04.06.06a23.645 23.645 0 0 1 1.43 1.66c.09.11.19.23.28.35.12.15.24.31.35.47.08.1.15.2.22.3.02.02.03.03.04.05.08.11.16.21.23.32.11.16.23.32.34.49.21.3.42.62.62.94.08.11.15.23.22.34 0 .01.01.01.02.02.03.05.06.11.1.16Zm-99.36 53.3c.99.24 2.04.43 3.14.57l5.79-28.08-8.93 27.51Z"/>
  <path fill="#EA6A76" d="M11.644 39.47c2.34-7.05 5.03-13.99 8.03-20.78 1.34-3.04 2.71-6 4.45-8.84 1.03-1.68 2.28-3.46 3.22-5.34-2.07-.41-3.71-.74-4.17-.86-4.5 6.02-19.23 33.65-22.73 40.26-.51.97-.59 2.11-.19 3.13.93 2.42 3.2 6.95 7.95 10.52-.46-6.08 1.56-12.43 3.44-18.08v-.01Z"/>
  <path fill="#fff" d="M39.932 9.63c-1.76-.42-3.48-.87-5.15-1.37-.72-.21-1.44-.44-2.14-.66a70.07 70.07 0 0 1-5.78-2.19c-1.22-.53-2.4-1.1-3.53-1.69.02-.01.05-.02.08-.02s.06.01.09.02c.23.05.55.12.93.2.12.02.24.04.36.07.13.03.28.06.42.09.08.02.16.03.25.05.09.01.19.03.29.06.04 0 .09.01.13.02.05.02.11.03.17.04.03 0 .07.02.1.02.16.03.33.07.51.1.22.04.45.09.69.14.87.17 1.83.35 2.8.54l2.35.45c.06 0 .11.02.17.03.64.12 1.28.24 1.88.36.02 0 .05.01.07.01.13.03.27.05.4.08.47.09.93.18 1.37.26.14.02.29.05.43.08.14.02.28.05.41.08.14.02.28.05.41.07.23.05.44.09.64.12.01.01.02.01.03.01.21.04.4.07.56.11.08.01.15.03.22.04h.03s.03 0 .04.02c.22.05.36.23.39.46l.12.92c.03.21.06.41.1.62.02.11.04.23.06.35.03.17.07.34.1.51Zm76.83-1.26c.04.06.08.12.11.18-1.95.51-4.14 1-6.54 1.45-7.2 1.37-16.25 2.44-25.98 2.89-3.51.16-7.1.24-10.73.23-2.06-.01-4.13-.05-6.2-.12 1.06-1.28 1.75-2.64 2.12-3.86.04-.11.07-.22.09-.33.16-.61.24-1.19.24-1.7 0-.16 0-.31-.02-.46-.04-.32.2-.59.52-.6 1.94-.04 3.99-.17 6.11-.37a151.607 151.607 0 0 0 11.39-1.58c2.38-.41 4.71-.85 6.92-1.3.81-.16 1.6-.33 2.37-.49.78-.16 1.53-.32 2.26-.48.44-.09.86-.18 1.28-.28.47-.1.92-.2 1.36-.3.44-.09.87-.19 1.28-.28.36-.08.71-.16 1.04-.24.05-.02.1-.03.15-.04h.02c.39-.09.76-.17 1.11-.25.35-.08.69-.16 1.01-.23.04-.01.07-.02.11-.02.13-.03.25-.06.37-.09.11-.02.21-.05.31-.07h.05s.06-.02.1-.02h.03s.05.01.07.01c.06 0 .12.03.18.05.03.01.06.01.1.02.04.01.08.02.12.04h.03c.06.01.12.03.19.06.02.01.03.01.04.01.07.03.13.05.19.08.11.03.22.07.33.11.12.05.25.11.38.17.01 0 .02.01.02.01l.18.09c.06.02.11.05.17.08 0 0 .03.01.04.03.17.09.34.19.51.3h.01c.1.06.2.13.3.2.07.04.14.09.21.14.09.06.18.13.27.2l.24.18c.09.07.18.15.27.22.08.07.16.14.24.2a.7.7 0 0 1 .1.08 2.908 2.908 0 0 1 .29.27c.03.02.06.05.09.08.12.12.24.24.37.36l.39.39s.03.04.06.06a23.645 23.645 0 0 1 1.43 1.66c.09.11.19.23.28.35.12.15.24.31.35.47.08.1.15.2.22.3.02.02.03.03.04.05.08.11.16.21.23.32.39.54.78 1.13 1.18 1.77Z"/>
  <path fill="#E4545B" d="M39.835 9.12c.03.17.07.34.1.51-1.76-.42-3.48-.87-5.15-1.37-.13-1.12-.16-1.96-.23-2.37.02 0 .05.01.07.01.13.03.27.05.4.08.47.09.93.18 1.37.26.14.02.29.05.43.08.14.02.28.05.41.08.14.02.28.05.41.07.23.05.44.09.64.12.01.01.02.01.03.01.21.04.4.07.56.11.08.01.15.03.22.04.03 0 .05 0 .07.02l.35.06c.01.14.03.27.04.4l.12.92c.03.21.06.41.1.62.02.11.04.23.06.35Zm36.647-3.44s-.66 3.49-2.86 7.44c-2.06-.01-4.13-.05-6.2-.12 1.06-1.28 1.75-2.64 2.12-3.86.04-.11.07-.22.09-.33.16-.61.24-1.19.24-1.7 0-.39-.05-.74-.14-1.05l6.75-.38Zm-43.81-.15c0 .69 0 1.38-.03 2.07a70.07 70.07 0 0 1-5.78-2.19c-1.22-.53-2.4-1.1-3.53-1.69-.14.01-.26.07-.34.18.07-.09.13-.18.19-.26.03.01.06.02.1.02.04.01.08.02.13.04.03 0 .06.01.09.02.23.05.55.12.93.2.12.02.24.04.36.07.13.03.28.06.42.09.08.02.16.03.25.05.09.01.19.03.29.06l.3.06c.03 0 .07.02.1.02.16.03.33.07.51.1.22.04.45.09.69.14.87.17 1.83.35 2.8.54l2.35.45c.06 0 .11.02.17.03Zm84.093 2.84c.04.06.08.12.11.18-1.95.51-4.14 1-6.54 1.45-7.2 1.37-16.25 2.44-25.98 2.89V4.68c1.18-.19 2.35-.38 3.51-.58 2.38-.41 4.71-.85 6.92-1.3.81-.16 1.6-.33 2.37-.49.78-.16 1.53-.32 2.26-.48.44-.09.86-.18 1.28-.28.47-.1.92-.2 1.36-.3.44-.1.86-.19 1.27-.29.21-.05.43-.09.63-.14.15-.03.29-.06.42-.09.05-.02.1-.03.15-.04h.02c.39-.09.76-.17 1.11-.25.35-.08.69-.16 1.01-.23.04-.01.07-.02.11-.02.13-.03.25-.06.37-.09.11-.02.21-.05.31-.07h.01l.12-.03h.05c.07.02.15.03.22.06h.03c.08.01.15.03.22.06h.03c.06.01.12.03.19.06.02.01.03.01.04.01.07.03.13.05.19.08.11.03.22.07.33.11a11.446 11.446 0 0 1 .4.18l.18.09c.07.04.14.07.21.11.17.09.34.19.51.3h.01c.1.06.2.13.3.2.07.04.14.09.21.14.09.06.18.13.27.2l.24.18c.09.07.18.15.27.22.08.07.16.14.24.2a.7.7 0 0 1 .1.08l.01.02.18.15.1.1c.03.02.06.05.09.08.12.12.24.24.37.36l.39.39s.03.04.06.06a23.645 23.645 0 0 1 1.43 1.66c.09.11.19.23.28.35.12.15.24.31.35.47.08.1.15.2.22.3.02.02.03.03.04.05.08.11.16.21.23.32.39.54.78 1.13 1.18 1.77l.01.01Z"/>
  <path fill="#C9414E" d="M32.674 5.53c0 .69 0 1.38-.03 2.07a70.07 70.07 0 0 1-5.78-2.19c-1.22-.53-2.4-1.1-3.53-1.69-.05-.03-.1-.05-.15-.08.03.01.06.02.1.02.04.01.08.02.13.04.03 0 .06.01.09.02.23.05.55.12.93.2.08.01.15.03.23.05.04 0 .09.01.13.02l.12.03c.09.02.2.04.3.06.08.02.16.03.25.05.09.01.19.03.29.06.04 0 .09.01.13.02.23.05.47.09.71.14.25.05.5.1.76.15.87.18 1.83.36 2.8.55l.97.18 1.38.27c.06 0 .11.02.17.03Z"/>
  <path fill="#E4545B" d="M116.885 8.55c.09.15.19.3.28.46-.1-.16-.19-.31-.29-.46h.01Z"/>
  <path fill="#C9414E" d="M116.762 8.37c.04.06.08.12.11.18-1.95.51-4.14 1-6.54 1.45-1.98-3.31-4.28-6.41-6.99-9.03h-.01c.21-.06.43-.1.63-.15.15-.03.29-.06.42-.09.05-.02.1-.03.15-.04h.02c.39-.09.76-.17 1.11-.25.35-.08.69-.16 1.01-.23.04-.01.07-.02.11-.02.13-.03.25-.06.37-.09.11-.02.21-.05.31-.07h.01l.12-.03h.05c.07.02.15.03.22.06h.03c.08.01.15.03.22.06h.03c.06.01.12.03.19.06.02.01.03.01.04.01.07.03.13.05.19.08.11.03.22.07.33.11.12.05.25.11.38.17.01 0 .02.01.02.01l.18.09c.07.04.14.07.21.11.17.09.34.19.51.3h.01c.1.06.2.13.3.2.07.04.14.09.21.14.09.06.18.13.27.2l.24.18c.09.07.18.15.27.22.08.07.16.14.24.2a.7.7 0 0 1 .1.08l.01.02.18.15.1.1c.03.02.06.05.09.08.12.12.24.24.37.36l.39.39s.03.04.06.06a23.645 23.645 0 0 1 1.43 1.66c.09.11.19.23.28.35.12.15.24.31.35.47.08.1.15.2.22.3.02.02.03.03.04.05.08.11.16.21.23.32.39.54.78 1.13 1.18 1.77v.01Zm.403.64c-.1-.16-.19-.31-.29-.46.09.15.19.3.28.46h.01Z"/>
  <path fill="#EA6A76" d="M27.352 4.5c-.16.31-.32.61-.49.91-1.22-.53-2.4-1.1-3.53-1.69-.14.01-.26.07-.34.18.07-.09.13-.18.19-.26.03.01.06.02.1.02.04.01.08.02.13.04.03 0 .06.01.09.02.23.05.55.12.93.2.12.02.24.04.36.07.13.03.28.06.42.09.08.02.16.03.25.05.09.01.19.03.29.06.04 0 .09.01.13.02.46.09.95.19 1.47.29Z"/>
  <path fill="#E5E5E5" d="M39.934 9.63c-1.76-.42-3.48-.87-5.15-1.37-.72-.21-1.44-.44-2.14-.66a70.07 70.07 0 0 1-5.78-2.19c-1.22-.53-2.4-1.1-3.53-1.69-.05-.03-.1-.05-.15-.08.03.01.06.02.1.02.04.01.08.02.13.04.03 0 .06.01.09.02.23.05.55.12.93.2.12.02.24.04.36.07.13.03.28.06.42.09.08.02.16.03.25.05.09.01.19.03.29.06.04 0 .09.01.13.02.46.09.95.19 1.47.29.87.18 1.83.36 2.8.55l2.35.45c.06 0 .11.02.17.03.64.12 1.28.24 1.88.36.02 0 .05.01.07.01.13.03.27.05.4.08.47.09.93.18 1.37.26.14.02.29.05.43.08.14.02.28.05.41.08.14.02.28.05.41.07.23.05.44.09.64.12.01.01.02.01.03.01.21.04.4.07.56.11.08.01.15.03.22.04h.03s.03 0 .04.02l.35.06c.01.14.03.27.04.4l.12.92c.03.21.06.41.1.62.02.11.04.23.06.35.03.17.07.34.1.51Zm76.95-1.08c-1.95.51-4.14 1-6.54 1.45-7.2 1.37-16.25 2.44-25.98 2.89-3.51.16-7.1.24-10.73.23-2.06-.01-4.13-.05-6.2-.12 1.06-1.28 1.75-2.64 2.12-3.86.04-.11.07-.22.09-.33.16-.61.24-1.19.24-1.7 0-.39-.05-.74-.14-1.05l6.75-.38c2.57-.25 5.23-.6 7.88-1 1.18-.19 2.35-.38 3.51-.58 2.38-.41 4.71-.85 6.92-1.3.81-.16 1.6-.33 2.37-.49.78-.16 1.53-.32 2.26-.48.44-.09.86-.18 1.28-.28.47-.1.92-.2 1.36-.3.44-.1.86-.19 1.27-.29.21-.05.43-.09.63-.14.15-.03.29-.06.42-.09.05-.02.1-.03.15-.04h.02c.39-.09.76-.17 1.11-.25.35-.08.69-.16 1.01-.23.04-.01.07-.02.11-.02.13-.03.25-.06.37-.09.11-.02.21-.05.31-.07h.05c.07 0 .18.01.35.04h.03s.06.01.1.02c.04.01.08.02.12.04h.03c.06.01.12.03.19.06.02.01.03.01.04.01.15.04.33.11.52.19.12.05.25.11.38.17.01 0 .02.01.02.01.12.06.23.1.35.17 0 0 .03.01.04.03.17.09.34.19.51.3h.01c.1.06.2.13.3.2.07.04.14.09.21.14.09.06.18.13.27.2l.24.18c.09.07.18.15.27.22.08.07.16.14.24.2.04.04.07.07.11.1.06.05.12.11.18.16.03.03.07.06.1.09.03.02.06.05.09.08.12.12.24.24.37.36l.39.39s.03.04.06.06a23.645 23.645 0 0 1 1.43 1.66c.09.11.19.23.28.35.12.15.24.31.35.47.08.1.15.2.22.3.02.02.03.03.04.05.08.11.16.21.23.32.39.54.78 1.13 1.18 1.77l.12.18h-.01Z"/>
  <path fill="#E4545B" d="M39.935 9.63c-1.76-.42-3.48-.87-5.15-1.37-.13-1.12-.16-1.96-.23-2.37.02 0 .05.01.07.01.13.03.27.05.4.08.47.09.93.18 1.37.26.14.02.29.05.43.08.14.02.28.05.41.08.14.02.28.05.41.07.23.05.44.09.64.12.01.01.02.01.03.01.21.04.4.07.56.11.08.01.15.03.22.04h.05c.01 0 0 0 .02.01.06 0 .11.02.15.03l.2.03c.01.14.03.27.04.4l.12.92c.03.21.06.41.1.62.02.11.04.23.06.35.03.17.07.34.1.51v.01Z"/>
  <path fill="#C9414E" d="M32.674 5.53c0 .69 0 1.38-.03 2.07a70.07 70.07 0 0 1-5.78-2.19c-1.22-.53-2.4-1.1-3.53-1.69-.05-.03-.1-.05-.15-.08.03.01.06.02.1.02.04.01.08.02.13.04.03 0 .06.01.09.02.23.05.55.12.93.2.08.01.15.03.23.05.08.02.17.03.25.05.09.02.2.04.3.06.08.02.16.03.25.05.09.01.19.03.29.06.04 0 .09.01.13.02.23.05.47.09.71.14.24.05.5.11.76.16.87.17 1.83.35 2.8.54l.97.18 1.38.27c.06 0 .11.02.17.03Z"/>
  <path fill="#E4545B" d="M76.482 5.68s-.66 3.49-2.86 7.44h-.01c-2.06-.01-4.12-.05-6.19-.12 1.06-1.28 1.75-2.64 2.12-3.86.04-.11.07-.22.09-.33.08-.31.14-.6.18-.89.04-.28.06-.55.06-.8 0-.4-.05-.75-.14-1.06l6.75-.38Z"/>
  <path fill="#C9414E" d="M39.935 9.63c-1.76-.42-3.48-.87-5.15-1.37-.13-1.12-.16-1.96-.23-2.37.02 0 .05.01.07.01.13.03.27.05.4.08.47.09.93.18 1.37.26.14.02.29.05.43.08.14.02.28.05.41.08.14.02.28.05.41.07.23.05.44.09.64.12.01.01.02.01.03.01.21.04.4.07.56.11.08.01.15.03.22.04h.05l.02.01c.06 0 .11.02.15.03l.2.03c.01.14.03.27.04.4l.12.92c.03.21.06.41.1.62.02.11.04.23.06.35.03.17.07.34.1.51v.01Zm36.547-3.95s-.66 3.49-2.86 7.44h-.01c-2.06-.01-4.12-.05-6.19-.12 1.06-1.28 1.75-2.64 2.12-3.86.04-.11.07-.22.09-.33.08-.31.14-.6.18-.89.04-.28.06-.55.06-.8 0-.4-.05-.75-.14-1.06l6.75-.38Z"/>
  <path fill="#BA3246" d="M116.872 8.55c-1.95.51-4.14 1-6.54 1.45-1.99-3.31-4.28-6.42-7-9.04.21-.05.43-.09.63-.14.15-.03.29-.06.42-.09.05-.02.1-.03.15-.04h.02c.39-.09.76-.17 1.11-.25.35-.08.69-.16 1.01-.23.04-.01.07-.02.11-.02.13-.03.25-.06.37-.09.11-.02.21-.05.31-.07.05 0 .09-.02.13-.03.09.02.18.04.27.07h.03c.08.01.15.03.22.06h.03c.34.1.66.22 1 .37.04.02.09.04.13.06.01 0 .02.01.02.01.13.06.26.13.39.2.17.09.34.19.51.3h.01c.1.06.2.13.3.2.07.04.14.09.21.14.09.06.18.13.27.2l.24.18c.09.07.18.15.27.22.08.07.16.14.24.2.04.04.07.07.11.1.06.05.12.11.18.16.03.03.07.06.1.09.03.02.06.05.09.08.12.12.24.24.37.36l.39.39s.03.04.06.06a23.645 23.645 0 0 1 1.43 1.66c.09.11.19.23.28.35.12.15.24.31.35.47.08.1.15.2.22.3.02.02.03.03.04.05.08.11.16.21.23.32.11.16.23.32.34.49.21.3.42.62.62.94.08.11.15.23.22.34 0 .01.01.01.02.02.03.05.06.11.09.16Z"/>
  <path fill="#C9414E" d="M116.875 8.55c-1.95.51-4.14 1-6.54 1.45-7.2 1.37-16.25 2.44-25.98 2.89V4.68c1.18-.19 2.35-.38 3.51-.58.85-.15 1.69-.3 2.52-.45.85-.15 1.69-.31 2.51-.47.64-.13 1.27-.25 1.89-.38.81-.16 1.6-.33 2.37-.49.78-.16 1.53-.32 2.26-.48.44-.09.86-.18 1.28-.28.47-.1.92-.2 1.36-.3.44-.1.86-.19 1.27-.29.21-.05.43-.09.63-.14.15-.03.29-.06.42-.09.05-.02.1-.03.15-.04h.02c.39-.09.76-.17 1.11-.25.35-.08.69-.16 1.01-.23.04-.01.07-.02.11-.02.13-.03.25-.06.37-.09.11-.02.21-.05.31-.07.04 0 .09-.02.13-.03.09.02.18.04.27.07h.03c.08.01.15.03.22.06h.03c.34.1.66.22 1 .37.04.02.09.04.13.06.01 0 .02.01.02.01.13.06.26.13.39.2.17.09.34.19.51.3h.01c.1.06.2.13.3.2.07.04.14.09.21.14.09.06.18.13.27.2l.24.18c.09.07.18.15.27.22.08.07.16.14.24.2.04.04.07.07.11.1.06.05.12.11.18.16.03.03.07.06.1.09.03.02.06.05.09.08.12.12.24.24.37.36l.39.39s.03.04.06.06a23.645 23.645 0 0 1 1.43 1.66c.09.11.19.23.28.35.12.15.24.31.35.47.08.1.15.2.22.3.02.02.03.03.04.05.08.11.16.21.23.32.11.16.23.32.34.49.21.3.42.62.62.94.08.11.15.23.22.34 0 .01.01.01.02.02.03.05.06.11.09.16h.01Z"/>
  <path fill="#BA3246" d="M116.884 8.55c-1.95.51-4.14 1-6.54 1.45-1.99-3.31-4.28-6.42-7-9.04.21-.05.43-.09.63-.14.15-.03.29-.06.42-.09.05-.02.1-.03.15-.04h.02c.39-.09.76-.17 1.11-.25.35-.08.69-.16 1.01-.23.04-.01.07-.02.11-.02.13-.03.25-.06.37-.09.11-.02.21-.05.31-.07h.05c.07 0 .18.01.35.04h.03s.06.01.1.02c.04.01.08.02.12.04h.03c.06.01.12.03.19.06.02.01.03.01.04.01.15.04.33.11.52.19.08.03.16.07.25.11.04.02.09.04.13.06.01 0 .02.01.02.01.12.06.23.1.35.17 0 0 .03.01.04.03.17.09.34.19.51.3h.01c.1.06.2.13.3.2.07.04.14.09.21.14.09.06.18.13.27.2l.24.18c.09.07.18.15.27.22.08.07.16.14.24.2.04.04.07.07.11.1.06.05.12.11.18.16.03.03.07.06.1.09.03.02.06.05.09.08.12.12.24.24.37.36l.39.39s.03.04.06.06a23.645 23.645 0 0 1 1.43 1.66c.09.11.19.23.28.35.12.15.24.31.35.47.08.1.15.2.22.3.02.02.03.03.04.05.08.11.16.21.23.32.11.16.23.32.34.49.21.3.42.62.62.94.08.11.15.23.22.34 0 .01.01.01.02.02.03.05.06.11.1.16h-.01Z"/>
  <path fill="#D85968" d="M27.354 4.5c-.16.31-.32.61-.49.91-1.22-.53-2.4-1.1-3.53-1.69-.05-.03-.1-.05-.15-.08.03.01.06.02.1.02.04.01.08.02.13.04.03 0 .06.01.09.02.23.05.55.12.93.2.12.02.24.04.36.07.13.03.28.06.42.09.08.02.16.03.25.05.09.01.19.03.29.06.04 0 .09.01.13.02.46.09.95.19 1.47.29Z"/>
  <path fill="#D85968" d="M27.354 4.5c-.16.31-.32.61-.49.91-1.22-.53-2.4-1.1-3.53-1.69-.05-.03-.1-.05-.15-.08.03.01.06.02.1.02.04.01.08.02.13.04.03 0 .06.01.09.02.23.05.55.12.93.2.12.02.24.04.36.07.13.03.28.06.42.09.08.02.16.03.25.05.09.01.19.03.29.06.04 0 .09.01.13.02.46.09.95.19 1.47.29Z"/>
</svg>
