<svg xmlns="http://www.w3.org/2000/svg" width="158" height="122" fill="none" viewBox="0 0 158 122">
  <g clip-path="url(#a)">
    <path fill="#E4C0B1" d="M61.904 7.936s16.134.059 19.954-.332l3.883 8.244L69.5 21.087l-11.104-7.444L61.9 7.936h.004Z"/>
    <path fill="#DD565B" d="M3.921 98.952s-6.248-14.057-2.915-17.366c3.333-3.31 6.661-3.72 7.079-6.204.418-2.485-2.084-11.988 0-14.057 2.084-2.07 23.178-43.138 25.956-54.438 0 0 22.765 7.165 37.335 6.409 14.576-.757 58.017-10.406 58.017-10.406s12.491 6.062 12.909 25.22l2.497 20.397s2.36 7.029 4.582 10.611c2.222 3.583 1.942 10.197 1.942 10.197s-.276 4.27.83 5.789c1.107 1.518 6.106 12.402 5.831 19.846-.276 7.443.024 4.685.009 6.613-.014 1.928-.147 6.375-2.649 7.322-2.502.947-22.623 8.112-31.924 3.978 0 0-2.34-1.084-2.905-2.47-.565-1.386-5.004-13.881-5.004-13.881s-24.358 8.805-41.51 8.18c-17.146-.625-32.336-3.68-43.436-8.917l-2.9 15.687s-16.532-4.251-23.749-12.52l.005.01Z"/>
    <path fill="#B13B32" d="m132.703 5.203-3.427-2.64s-19.717 7.628-45.732 8.849c-1.081.737-3.908 1-5.864 1.269 2.217 1.781 3.824 5.15 7.147 12.441.462 1.01 3.038 1.567 4.13 1.328 7.25-1.601 33.039-7.478 43.465-20.525.227-.283.595-.546.276-.722h.005ZM33.942 7.19l-.688 2.4c-.099.138-.266.694-.266.694 1.76 1.508 12.885 10.953 25.228 14.94 1.121.362 3.063-.14 3.697-1.127 1.111-1.723 1.465-4.451 7.103-10.738 0 0-11.61.99-35.074-6.165V7.19Z"/>
    <path fill="#F2E1D6" d="M73.043 7.853S78.234 6.18 85.224 21.51a2.249 2.249 0 0 0 2.532 1.265c6.917-1.523 31.855-7.751 41.795-20.193a.554.554 0 0 0-.173-.83L126.203 0s-25.263 7.853-53.16 7.853Z"/>
    <path fill="#FDF5F0" d="m35.29 4.413-1.567 2.181a.314.314 0 0 0 .049.42c.924.79 4.734 3.978 9.935 7.317.368-2.719.958-5.428 1.715-8.098a197.054 197.054 0 0 1-10.131-1.82Z"/>
    <path fill="#F2E1D6" d="M45.423 6.228c-.757 2.67-1.347 5.379-1.716 8.098 4.252 2.733 9.438 5.569 14.733 7.282 1.067.346 2.212-.215 2.635-1.245 1.371-3.353 4.99-10.333 11.965-12.505 0 0-9.837 1.094-27.622-1.625l.005-.005ZM30.572 95.78s33.866 17.454 84.946.736l5.004 13.882a1.24 1.24 0 0 1-.599 1.523c-4.321 2.255-23.04 10.962-52.624 10.001a1.667 1.667 0 0 1-1.593-1.401l-2.561-16.107-3.938 16.268a1.557 1.557 0 0 1-1.681 1.181c-5.024-.522-22.554-2.626-29.264-7.272a1.953 1.953 0 0 1-.806-1.967l3.116-16.85v.005Z"/>
    <path fill="#B13B32" d="M32.238 55.355s-1.48 12.495-2.404 15.068c-.924 2.572-7.216 18.19.742 25.356l-2.9 15.688s-13.14-4.169-17.48-7.38c0 0 15.012 1.796 14.088-3.349-.924-5.144-7.059-10.66-3.067-20.031 3.991-9.372 6.39-10.84 6.208-12.681-.044-.425-.388-7.58 0-8.727.217-.64 1.062 4.895 1.347 4.154 1.426-3.676 3.466-8.103 3.466-8.103v.005Zm83.094-4.593s-.369 14.15 0 17.64 3.146 8.083 3.515 11.758c.368 3.676 1.848 10.29-3.333 16.356l5.004 13.882s2.846 4.554 10.726 3.744c0 0-9.993-10.094-9.438-13.77.555-3.675 4.257-9.371 3.146-13.598-1.111-4.227-6.292-14.701-6.105-16.722.059-.66-.29-2.934-.792-5.701-.157-.869 2.016-6.16 1.834-7.092-.162-.845-2.674 2.675-2.842 1.83-.865-4.359-1.715-8.332-1.715-8.332v.005Z"/>
    <path fill="#B13B32" d="M141.845 112.809s6.774-3.915 4.901-14.267c-1.204-6.648-1.45-16.312-3.333-16.034-2.709.395-4.734 7.96-3.367 14.189.093.434.717.459.84.03.467-1.617 1.318-3.867 2.34-3.418 1.573.689.256 11.441-3.495 13.233-3.087 1.474-9.709-7.898-11.945-11.246-.212-.317-.713-.142-.679.24.369 4.226 2.497 16.658 14.733 17.283l.005-.01Z"/>
    <path fill="#F2E1D6" d="M145.344 96.4c-4.956 0-8.977 3.987-8.977 8.912 0 3.28 1.79 6.14 4.449 7.688 5.029-1.001 9.669-2.446 12.368-3.358a8.844 8.844 0 0 0 1.136-4.33c0-4.92-4.016-8.913-8.976-8.913Z"/>
    <path fill="#EBC1B2" d="M151.202 98.561c-.521 4.261-2.423 12.764-9.354 14.243 0 0 6.508-7.839 8.932-14.59"/>
    <path fill="#BB3937" d="M150.777 98.22c.256-.713.467-1.416.62-2.094 0 0-.015.966-.192 2.436"/>
    <path fill="#F2E1D6" d="M30.217 68.954c-.713 1.127-2.551.922-3.987.922-4.955 0-8.976-3.988-8.976-8.913 0-4.925 4.016-8.912 8.976-8.912 2.419 0 5.054.595 6.224 2.49.26.419-1.75 13.632-2.237 14.408v.005ZM50.5 42.84c4.957 0 8.976-3.99 8.976-8.912 0-4.922-4.019-8.913-8.976-8.913-4.958 0-8.977 3.99-8.977 8.913 0 4.922 4.02 8.913 8.977 8.913Zm32.484 19.05c4.958 0 8.977-3.99 8.977-8.912 0-4.922-4.02-8.913-8.977-8.913-4.957 0-8.976 3.99-8.976 8.913 0 4.922 4.019 8.913 8.976 8.913Zm-26.84 24.952c4.958 0 8.977-3.99 8.977-8.912 0-4.923-4.02-8.913-8.977-8.913-4.957 0-8.976 3.99-8.976 8.913 0 4.922 4.019 8.912 8.976 8.912Zm45.075 5.482c4.957 0 8.976-3.99 8.976-8.913 0-4.922-4.019-8.912-8.976-8.912-4.958 0-8.977 3.99-8.977 8.912 0 4.922 4.019 8.913 8.977 8.913Zm13.019-65.615c-.943 4.832-5.653 7.99-10.52 7.053-4.866-.938-8.047-5.614-7.103-10.446a8.877 8.877 0 0 1 1.14-2.938s10.432-3.86 10.928-3.67c3.972 1.527 6.396 5.705 5.555 10Z"/>
    <path fill="#E4C0B1" d="M112.328 19.324c-.958-1.152-2.585-2.294-4.045-2.856-.271-.102-3.176 1.245-6.17 2.187a89.44 89.44 0 0 0-4.281 1.474 10.275 10.275 0 0 0-1.24 3.168 8.655 8.655 0 0 0-.147 1.318c4.547-1.206 10.22-2.939 15.878-5.291h.005Z"/>
    <path fill="#F2E1D6" d="M125.618 73.585a8.98 8.98 0 0 0-7.516 4.047 16.95 16.95 0 0 1 1.646 6.575 13.1 13.1 0 0 1-.585 4.48 8.967 8.967 0 0 0 6.45 2.724c4.955 0 8.976-3.988 8.976-8.913 0-4.925-4.016-8.913-8.976-8.913h.005ZM26.497 84.758c-.004-.303-.01-.6.01-.898-.024.01-.049.014-.069.02-3.554 1.186-6.11 4.52-6.11 8.448 0 4.92 4.302 8.796 9.262 8.796l.988-5.34c-1.2-1.44-3.889-2.357-4.076-11.026h-.005Zm102.894-40.712c0 4.92 4.016 8.913 8.976 8.913 2.763 0 5.23-1.24 6.877-3.193-.28-.785-.447-1.273-.447-1.273l-1.45-11.861a8.969 8.969 0 0 0-4.98-1.499c-4.955 0-8.976 3.988-8.976 8.913Z"/>
    <path fill="#A83132" d="m30.714 95.794-.148.8.148-.8Zm111.276 17.025s.02-.015.054-.034a2.46 2.46 0 0 0-.122.029c.024 0 .044 0 .068.005Z"/>
    <path fill="#E4C0B1" d="M30.183 68.963c1.39-3.846 2.27-14.423 2.27-14.423s-2.295 5.257-3.72 8.932c-.286.742-1.131-4.793-1.348-4.154-.388 1.148-.044 8.303 0 8.728.055.57-.137 1.103-.545 1.85 1.298.024 2.733.034 3.343-.928v-.005Zm88.988 19.719c1.455 1.626 3.54 2.485 5.727 2.69.403-1.606.57-3.178.202-4.588-.689-2.621-3.083-7.654-4.651-11.573-.86.605-1.74 1.552-2.34 2.411.148.478 1.539 2.714 1.657 6.936.044 1.547-.152 2.69-.595 4.12v.004Z"/>
    <path fill="#FBECE4" d="m29.727 101.134.84-4.54-.84 4.54Z"/>
    <path fill="#E4C0B1" d="M26.643 83.87s-.187 0-.211.01c-3.102 1.039-5.437 3.655-5.983 6.935.88 3.192 2.719 6.028 3.574 8.522 1.598 1.196 3.372 2.129 5.496 2.129l1.047-4.872.148-.8a10.804 10.804 0 0 1-1.736-2.016c-1.135-1.479-2.232-3.963-2.34-9.01-.005-.303-.01-.6.01-.898h-.005Z"/>
    <path fill="#FBECE4" d="M140.958 113.009c.319-.063.639-.132.958-.195a18.048 18.048 0 0 1-1.514-.156c.182.122.364.244.556.351Z"/>
    <path fill="#E4C0B1" d="M146.891 98.552c-.118-.664-.379-1.377-.482-2.09a7.714 7.714 0 0 0-1.012-.063c-.507 0-1.047.04-1.529.122-.177 3.525-1.46 8.82-3.982 10.026-.89.425-2.227-.068-3.515-1.045.118 3.573 1.927 5.994 4.228 7.566.486.073.801-.278 1.327-.249l.123-.029c.614-.381 6.626-4.408 4.847-14.238h-.005Z"/>
    <path fill="#FBECE4" d="M10.186 93.407c0-4.92-4.016-8.912-8.976-8.912a9.31 9.31 0 0 0-1.175.083c-.143 5.28 3.883 14.355 3.883 14.355a20.924 20.924 0 0 0 2.04 2.025c2.537-1.576 4.228-4.363 4.228-7.55Z"/>
    <path fill="#E48695" d="M8.048 75.587c-.486 2.07-3.711 2.69-7.044 5.998-.654.65-.969 1.914-1.008 3.198a9.31 9.31 0 0 1 1.175-.084 8.973 8.973 0 0 1 8.239 5.384c.226.015.428.069.605.152 1.233.6 7.472-6.648 8.253-8.44.782-1.79.025-16.668.025-16.668-.669-1.245-1.072-2.445-1.072-3.954 0-4.92 4.016-8.912 8.977-8.912.132 0 .157-.21.29-.205L42.774 17.81l-9.783-7.527-.24.771c-5.354 14.78-22.82 48.61-24.703 50.48-2.084 2.069.575 11.606 0 14.057v-.005Z"/>
    <path fill="#fff" d="M17.047 61.168c0 1.509.58 2.71 1.248 3.954l4.292-4.696 3.903-8.375c-.132 0-.54.02-.668.02-4.956 0-8.77 4.172-8.77 9.097h-.005Z"/>
    <path fill="#B13B32" d="M11.223 104.775s-8.131-12.579-3.23-14.6c4.906-2.02 2.758 6.434 3.23 8.084.472 1.65 0 6.511 0 6.511v.005Z"/>
    <path fill="#E4C0B1" d="M10.187 93.407c0-1.254-.393-2.455-.865-3.539-.398-.024-.747.074-1.328.313-2.654 1.093-1.489 5.276.138 8.888a8.79 8.79 0 0 0 2.055-5.657v-.005Z"/>
    <path fill="#E48695" d="M30.713 95.794s-4.528-1.957-4.277-11.92c.25-9.961 3.75-14.91 3.75-14.91l2.808-18.695 2.389-9.986v21.603s-5.01 25.8-4.818 28.378c.192 2.577.148 5.525.148 5.525v.005Z"/>
    <path fill="#fff" d="m33.346 100.192-2.935-2.9-1.14 5.262-1.82 10.07s-.462 1.605 2.271 2.85l.846-3.573 2.777-11.719v.01Z"/>
  </g>
  <defs>
    <clipPath id="a">
      <path fill="#fff" d="M0 0h158v122H0z"/>
    </clipPath>
  </defs>
</svg>
