<svg xmlns="http://www.w3.org/2000/svg" width="145" height="127" fill="none" viewBox="0 0 145 127">
  <g clip-path="url(#a)">
    <path fill="#399551" d="M24.242 9.994 0 80.012s3.47 17.395 20.823 20.457c7.394 1.305 7.376 17.423 13.499 17.423h75.582l2.704-17.423s24.68.415 32.392-11.18c0 0-10.799-73.696-32.779-89.289 0 0-53.215 13.014-83.394 4.636l-4.58 5.358h-.005Z"/>
    <path fill="#1A7957" d="M24.964 16.733c-.005-.78-.014-1.56-.019-2.336-.177.726-.373 1.506-.578 2.336.196-.013.396-.009.597 0Zm92.478-11.38c-1.534-1.898-3.132-3.523-4.798-4.814A1.824 1.824 0 0 0 111.1.192h.005c-6.064 1.424-44.63 10.048-72.732 6.338-.05 1.406-.1 2.811-.146 4.217-1.083 35.707-.514 71.433-.45 107.154H56.21a1.82 1.82 0 0 0 1.816-1.821V15.743c0-1.03.856-1.866 1.885-1.82 6.492.287 12.989-.06 19.48-.653 7.649-.698 15.334-1.383 22.955-2.34 4.716-.68 9.465-1.516 14.113-2.675 1.279-.32 1.812-1.875.979-2.902h.004Z"/>
    <path fill="#1A7957" d="M136.822 50.378c-1.68-7.794-5.026-25.367-17.059-42.31-2.349-3.39-4.862-6.16-7.548-8.064 0 0-9.979 2.442-23.746 4.527v113.365h21.429l2.704-17.427s26.218 0 32.396-11.18c-1.379-11.71-6.082-29.196-8.176-38.91Z"/>
    <path fill="#AA783A" d="M115.595 3.304s-.896-1.05-1.516-1.725C113.428.867 112.217 0 112.217 0s-32.92 6.133-42.334 6.74v116.974a3.27 3.27 0 0 0 3.355 3.272l45.826-1.318a3.27 3.27 0 0 0 3.169-3.414l-6.638-118.95ZM12.328 119.224 24.242 9.994l4.58-5.358s7.64 2.446 21.693 2.775l.501 116.02a3.262 3.262 0 0 1-3.601 3.263l-31.74-3.349c-2.059-.219-3.347-4.121-3.347-4.121Z"/>
    <path fill="#D7A447" d="M73.617 8.305c17.623-1.77 32.97-5.152 37.063-6.096-5.527 1.017-26.387 4.805-37.063 6.096Z"/>
    <path fill="#835B2E" d="M102.188 10.96c4.511-.652 9.232-1.473 13.689-2.559l-.245-5.43S113.528.794 112.217 0l-1.539.283c-4.47.876-19.17 3.381-37.062 6.096-1.534.188-2.86.32-3.897.388v7.183a189.76 189.76 0 0 0 9.51-.648c7.648-.698 15.333-1.383 22.954-2.341h.005Z"/>
    <path fill="#C19143" d="m17.649 51.797-.856 14.617 1.038 2.25s13.016 1.186 16.27-.02l3.556-27.662-20.008 10.81v.005Zm94.865 6.818.655 10.048s-25.307 1.187-28.563-.018l-3.555-27.663 31.467 17.628-.004.005Z"/>
    <path fill="#D7A447" d="M50.353 9.364C36.3 9.04 28.66 6.589 28.66 6.589l-.055.064c6.46 1.762 13.954 2.556 21.748 2.715v-.004Z"/>
    <path fill="#835B2E" d="m28.773 4.737-2.664 3.117c1.88.597 15.31 3.468 24.434 5.074l-.023-5.476c-7.794-.16-15.287-.954-21.747-2.715Z"/>
    <path fill="#D7A447" d="m20.977 39.978-5.285 9.414c-.127.27.068.58.364.58l20.614 1.825.988-10.81-16.68-1.004v-.005Z"/>
    <path fill="#B9873E" d="M35.22 51.25a.71.71 0 0 1-.687.548l-16.886-1.666v1.666l-.1 1.72 18.142 2.788 1.971-15.319-2.44 10.268v-.005Z"/>
    <path fill="#AA783A" d="m85.289 55.152-4.18-14.165 1.799 14.817 1.028 2.063 28.577.748 2.017-2.81-.387-1.178-27.985 1.177a.909.909 0 0 1-.874-.652h.005Z"/>
    <path fill="#835B2E" d="M13.75 105.479h27.123l-1.925 2.848-25.358-.634.16-2.214Z"/>
    <path fill="#D7A447" d="M10.524 103.098c1.11-1.803 4.707-8.068 5.094-14.064h25.258l-3.037 15.109a1.552 1.552 0 0 1-1.625 1.245l-25.403-1.734a.362.362 0 0 1-.287-.552v-.004Z"/>
    <path fill="#BB893F" d="m110.633 43.885-.947-2.903H81.109l4.184 14.178c.11.38.46.64.851.64h27.548a.61.61 0 0 0 .578-.8l-3.633-11.12-.004.005Z"/>
    <path fill="#C19143" d="m26.107 7.854-1.484 32.348-3.646-.223L24.24 9.994l1.866-2.14Zm-12.518 99.839h5.044v15.962l-2.96-.31s-1.06.045-2.266-1.848c-1.202-1.894-1.08-2.273-1.08-2.273l1.262-11.531Z"/>
    <path fill="#5FB366" d="M24.242 9.994S5.395 73.674 9.515 95.409c0 0-7.976-6.375-9.515-15.397L24.242 9.994Z"/>
    <path fill="#996B36" d="M16.79 66.414s11.426 2.2 17.417 1.41l2.035.821s-6.81 1.451-18.415.018l-1.038-2.25Z"/>
    <path fill="#996B36" d="m36.242 68.65 1.33-27.302-1.203 9.65-2.162 16.83 2.035.822Z"/>
    <path fill="#D7A447" d="m13.17 105.479-.842 7.945.424.835 25.74 1.935.578-1.164.387-9.551H13.17Z"/>
    <path fill="#B9873E" d="m13.094 103.682 26.364 1.798-.196 4.85-26.168-4.139v-2.509Z"/>
    <path fill="#996B36" d="M12.75 114.259v.708l26.706 3.221 1.415-2.254 1.799-25.125-1.794-1.775-1.42 16.446-.388 9.551-.578 1.163-25.74-1.935Zm68.36-73.272L84.6 68.65s4.708 1.19 28.563.018l-1.147 1.4s-20.755 1.548-28.34 0l-1.156-.766-1.412-28.31v-.005Z"/>
    <path fill="#BB893F" d="M117.018 103.011c-1.111-1.802-5.021-7.995-6.291-14.023H85.469l4.234 15.068a1.551 1.551 0 0 0 1.625 1.246l25.403-1.734a.362.362 0 0 0 .287-.552v-.005Z"/>
    <path fill="#C19143" d="m113.181 105.434.842 7.94-.423.84-25.745 1.935-.578-1.164-.383-9.551h26.287Z"/>
    <path fill="#AA783A" d="m113.049 103.823-26.155 1.611.196 4.851 26.164-4.139-.205-2.323Z"/>
    <path fill="#996B36" d="M113.599 114.214v.707l-26.705 3.222-1.416-2.254-1.798-25.126 1.793-1.775 1.42 16.446.383 9.551.578 1.164 25.745-1.935Z"/>
    <path fill="#C19143" d="m17.834 68.663 3.073.329-1.54 19.996-3.746.046 2.213-20.37ZM69.723 13.95l2.062-.096 1.452 113.132s-3.355.429-3.355-3.272c0-3.7-.16-109.764-.16-109.764Z"/>
  </g>
  <defs>
    <clipPath id="a">
      <path fill="#fff" d="M0 0h145v127H0z"/>
    </clipPath>
  </defs>
</svg>
