<svg xmlns="http://www.w3.org/2000/svg" width="127" height="100" fill="none" viewBox="0 0 127 100">
  <path fill="#AC2D3A" d="M43.532 34.07c5.7-.22 10.29-4.27 14.03-8.19 1.92-2 3.73-4.1 5.65-6.09 1.41-1.47 2.89-2.96 4.07-4.64-13.65 3.16-27.17 4-39.11 1.17 1.13 8.3 6.23 18.11 15.36 17.75Z"/>
  <path fill="#FCFCFC" d="M126.63 51.65c-14.96 15.94-33.17 14.27-33.17 14.27s-.43-1.23-3-16.55c-.4 9.43 2.68 34.39 3.72 42.87-7.2 2.15-8.46 7.93-44.39 7.21-20.71-.42-30.94-5.68-36.02-8.28 1.02-9.72 2.22-20.48 3.25-29.42-.55-.08-1.09-.18-1.61-.3C2.97 58.68 0 46.63 0 46.63s5.42-19.89 15.76-34.97c2.88 1.54 5.91 2.78 9.06 3.74.68 7.57 4.3 16.07 10.86 19.98 9.33 5.55 18.94-1.59 25.16-8.3 3.7-3.99 8.4-7.95 10.7-13 11.11-2.95 22.21-7.33 32.52-12.42 13.19 8.32 19.15 32.22 22.56 49.98l.01.01Z"/>
  <path fill="#D6D4D4" d="M126.63 51.65a46.21 46.21 0 0 1-8.2 6.96c-.58-12.63-.73-28.66-6.99-39.81-.6-1.07-2.13-1.78-3.34-1.36-10.91 3.82-20.61 9.19-30.87 13.48-4.59 1.92-13.36 5.66-18.69 7.04 1.16 1.03 2.47 2.52 3.54 4.61 1.48 2.87 7.55 16.91-.57 31.56-1.97 1.91-3.11-1.4-3.11-1.4l-7.3-35.29c-1.18-.32-2.35-.65-3.53-.88 5.08-1.67 9.74-5.64 13.29-9.47 3.7-3.99 8.4-7.95 10.7-13 11.11-2.95 22.21-7.33 32.52-12.42 13.19 8.32 19.15 32.22 22.56 49.98h-.01Z"/>
  <path fill="#3A3A3A" d="M17.482 51.91c-.58 2.68-1.29 5.93-2.08 9.55-6.09-1.36-9.92-4.94-12.22-8.24-.23-.32-.44-.64-.63-.96-.07-.1-.13-.21-.19-.31a21.939 21.939 0 0 1-1.78-3.59c-.02-.05-.04-.1-.05-.14-.03-.07-.05-.14-.08-.2-.12-.34-.22-.62-.29-.84-.03-.08-.05-.15-.06-.21-.06-.2-.09-.31-.09-.31s.2-.73.59-2.01c.03-.08.05-.16.08-.25.15-.49.32-1.04.52-1.66.06-.18.12-.38.19-.58.07-.22.15-.45.23-.69.12-.36.24-.73.37-1.11.09-.26.18-.52.27-.79a35.51 35.51 0 0 0 3.23 4.4c1.4 1.62 2.94 3.11 4.6 4.4 2.55 1.99 4.53 2.99 7.41 3.55l-.02-.01Z"/>
  <path fill="#803134" d="m47.432 35.27 1.55 4.23s21.13-8.12 22.56-11.71c-8.42 1.39-24.12 7.48-24.12 7.48h.01Z"/>
  <path fill="#262626" d="M17.478 51.91c-.58 2.66-1.31 5.98-2.08 9.55.52.12 1.06.21 1.61.3.41-3.54.81-6.93 1.15-9.72l-.69-.12"/>
  <path fill="#fff" d="M5.072 45.25c1.28-4.11 2.78-8.14 4.37-12.14 1.55-3.9 3.06-7.84 5.02-11.55 1.47-2.79 3.12-5.49 4.45-8.34-1.07-.48-2.12-.99-3.14-1.54C5.422 26.76.012 46.65.012 46.65s.78 3.14 3.19 6.58c.55-2.67 1.07-5.35 1.89-7.97l-.02-.01Z"/>
  <path fill="#803134" d="M44.112 30.85c-5.23-2.26-8.1-7.8-8.82-13.29-2.43-.28-4.8-.69-7.12-1.24 1.13 8.3 6.23 18.11 15.36 17.75 2.79-.11 5.3-1.14 7.59-2.61-2.35.49-4.78.35-7.01-.61Zm-9.141 7.97s-11.64-6.26-12.28-13.66c6.36 3.15 14.44 10.15 14.44 10.15l-2.16 3.51Z"/>
  <path fill="#3A3A3A" d="M40.099 33.42c-4.65 2.32-6.01 2.59-6.01 2.59s-12.08-4.39-17.86-16.23c-1.83-3.74-2.28-8.04-1.08-12.03.67-2.25 1.38-2.72 1.38-2.72l.9.17 1.31.24 1.11.21 1.23.23 9.06 1.67s3 19.75 9.96 25.88v-.01Z"/>
  <path fill="#D6D4D4" d="M26.41 75.63s2.97 2.56 6.68-1.42c3.72-3.98 7.29-3.5 9.18-7.72 1.89-4.22 3.83-9.68 3.83-13.35s-2-6.33-3.96-5.6c-1.96.73-15.73 28.09-15.73 28.09Z"/>
  <path fill="#AC2D3A" d="M38.25 38.19s-14.29 1.22-13.6 20.71c1.3 11.84 1.38 16.5 1.76 16.73.38.23.97 1.83 5.03-3.36 4.44-3.74 13-6.38 11.7-32.78-2.67-1.26-4.89-1.3-4.89-1.3Z"/>
  <path fill="#3A3A3A" d="M126.63 51.65a46.893 46.893 0 0 1-4.03 3.83c-.36.3-.71.59-1.07.88-.17.13-.34.27-.52.4-.17.13-.34.26-.52.39-.17.13-.34.26-.52.38-.34.26-.69.5-1.03.73-.17.12-.34.24-.52.35-12.68 8.44-24.97 7.31-24.97 7.31s-.26-.76-1.61-8.41c7.47-1.31 14.77-5.26 21.1-9.01a73.6 73.6 0 0 0 4.21-2.71c2.45-1.7 4.79-3.54 7.04-5.48.24.98.46 1.95.68 2.92.11.48.21.97.32 1.44 0 .03.01.05.02.08.1.45.2.91.29 1.36.16.74.31 1.48.46 2.21.05.27.11.53.16.8.17.86.34 1.7.5 2.54l.01-.01Z"/>
  <path fill="#803134" d="M43.141 39.49c-2.67-1.26-4.89-1.3-4.89-1.3s-2.51.22-5.37 1.9c.11 2.05 1.21 3.43 3.48 3.47.62 0 1.13.52 1.14 1.14.05 3.2-.57 6.32-.96 9.48-.32 2.58-.56 5.18-1.76 7.53-1.27 2.5-3.27 4.55-4.72 6.94-1.35 2.22-1.75 4.55-1.87 7.01.72-.48 1.74-1.47 3.24-3.38 4.44-3.74 13-6.38 11.7-32.78l.01-.01Z"/>
  <path fill="#AC2D3A" d="M59.842 73.78c1.93-5.93 8.71-30.72-10.96-36.14-5.74 1.85-6.74 2.99-6.74 2.99s-3.12 11.48 9.52 21.8c3.15 2.52 6.07 8.74 7.22 11.4.19.43.81.41.96-.04v-.01Z"/>
  <path fill="#3A3A3A" d="M115.57 15.25c-3.03-2.75-5.47-2.79-8.04-1.81-2.57.98-43.35 21.86-58.65 23.36l-.4-.37c-.36-.35-.68-.68-.97-.98-.52-.56-.92-1.04-1.2-1.41-.45-.6-.63-.94-.63-.94s.21-.21.59-.6c3.26-3.34 19.03-19.67 21.62-25.12 0 0 34.51-4.9 41.2-7.38.58.54 1.18 1.19 1.77 1.92.74.92 1.47 1.98 2.12 3.09.34.58.66 1.17.95 1.77a22.6 22.6 0 0 1 1.27 3.11c.63 2.01.85 3.92.38 5.37l-.01-.01Z"/>
  <path fill="#803134" d="M42.681 41.04c.35.92.71 2.17 1.63 2.68.88.49 1.93.16 2.85-.07 1.46-.35 3.11-.93 4.62-.61 2.77.58 3.29 4.73 3.85 6.97.45 1.82 1.4 3.56 1.72 5.4.38 2.21-1.01 3.82-.05 6.06 1.62 3.79 1.96 7.72 2.74 11.67 2.14-6.88 7.87-30.26-11.16-35.51-4.65 1.5-6.19 2.53-6.6 2.87.17.12.31.3.4.54Z"/>
  <path fill="#5B5B5B" d="M27.8 31.24c-2.86-2.94-5.64-6.18-7.49-9.87-2.3-4.58-3.36-10.89-1.45-15.91l-.13-.02-1.31-.24-.9-.17s-.71.48-1.38 2.72c-1.2 3.99-.75 8.29 1.08 12.03 4.08 8.36 11.31 13 15.2 15.01-1.29-1.12-2.47-2.37-3.63-3.55h.01Z"/>
  <path fill="#E6E6E5" d="M17.42 5.19c-6.31 20.34 18.03 30.19 18.03 30.19l.26-.93C12.31 22.53 18.09 6.97 18.73 5.43l-1.31-.24Z"/>
  <path fill="#E6E6E5" d="m37.839 33.2-.26.51s-23.1-8.88-17.73-28.07l1.23.23c-1.17 2.87-5.1 16.19 16.75 27.33h.01ZM115.19 9.88c-2.48-1.4-4.6-3.01-9-.73-4.81 2.49-38.1 21.69-57.72 27.27-.36-.35-.68-.68-.97-.98 26.43-9.12 53.01-26.7 58.99-29.09 2.51-1 5.07-.4 7.42.42a22.6 22.6 0 0 1 1.27 3.11h.01Z"/>
  <path fill="#E6E6E5" d="M104.282 2.85c1.73-1.05 4.51-1.41 6.57-.93.74.92 1.47 1.98 2.12 3.09-2.45-1.05-4.19-2.42-9.14.56-4.94 2.97-44.96 25.16-57.1 29.31-.45-.6-.63-.94-.63-.94s50.82-26.58 58.18-31.09Z"/>
  <path fill="#AC2D3A" d="m47.219 41.76-11.04-.66c-1.19-.12-2.07-1.57-1.99-2.76l.21-3.34c.07-1.14.99-2.45 2.13-2.49l11.28-.4c1.33-.05 2.41 1.51 2.28 2.84l-.45 4.82a2.214 2.214 0 0 1-2.42 2v-.01Z"/>
  <path fill="#803134" d="m47.81 32.1-1.81.06c.75.59 1.07 1.58 1.15 2.82.12 1.91.16 4.36-1.76 5.38-1.09.58-2.37.88-3.68 1.06l5.52.33c1.22.12 2.31-.78 2.42-2l.45-4.82c.12-1.33-.95-2.88-2.28-2.84l-.01.01Z"/>
  <path fill="#AC2D3A" d="m18.082 52.72-.98 8.27c.35-3.02.68-5.81.98-8.27Z"/>
  <path fill="#AAACAD" d="M19.2 44.08c-.24 1.65-.6 4.42-1.03 7.96-.24-.04-.47-.08-.69-.12.99-4.52 1.63-7.43 1.72-7.84Z"/>
  <path fill="#D6D4D4" d="M90.44 49.59c-.05-.35-.09-.7-.14-1.05-.33-2.25-1.09-4.38-1.27-6.64-.06.02-.12.05-.19.07-.79 5.69-.3 7.44-6.73 5.63 3.74 2.05 5.74 2.9 5.45 5.27-.05.39-2.4 2.36-4.08 5.34 8.55-4.54 8.36 38.36-25.34 41.31 25.49 0 32.73-6.29 36.03-7.27-1.04-8.42-4.08-33.07-3.73-42.66Z"/>
  <path fill="#262626" d="M126.63 51.65a46.893 46.893 0 0 1-4.03 3.83c-.36.3-.71.59-1.07.88-.17.13-.34.27-.52.4-.17.13-.34.26-.52.39-.17.13-.34.26-.52.38-.34.25-.69.5-1.03.73-.17.12-.34.24-.52.35-.2-4.29-.59-8.58-1.26-12.82 2.45-1.7 4.79-3.54 7.04-5.48.24.98.46 1.95.68 2.92.11.48.21.97.32 1.44 0 .03.01.05.02.08.1.45.2.91.29 1.36.16.74.31 1.48.46 2.21.05.27.11.53.16.8.17.86.34 1.7.5 2.54v-.01Z"/>
  <path fill="#5B5B5B" d="M5.482 43.96c-.14.43-.27.86-.41 1.28-.82 2.63-1.33 5.3-1.89 7.97-.23-.32-.44-.64-.63-.96-.07-.1-.13-.21-.19-.31a21.939 21.939 0 0 1-1.78-3.59c-.02-.05-.04-.1-.05-.14-.03-.07-.05-.14-.08-.2-.12-.34-.22-.62-.29-.84-.03-.08-.05-.15-.06-.21-.06-.2-.09-.31-.09-.31s.2-.73.59-2.01c.03-.08.05-.16.08-.25.15-.49.32-1.04.52-1.66.06-.18.12-.38.19-.58.07-.22.15-.45.23-.69.12-.36.24-.73.37-1.11.09-.26.18-.52.27-.79a35.51 35.51 0 0 0 3.23 4.4h-.01Z"/>
  <path fill="#fff" d="M49.782 99.46c-18.01.22-30.79-5.41-36.02-8.28 1.02-9.72 2.22-20.48 3.25-29.42l3.13-25.34s-2.97 47.64-.49 51.08c3.2 4.43 11.09 8.55 30.13 11.96Z"/>
  <path fill="#803134" d="M36.084 48.9c1.688-2.922 2.38-5.68 1.548-6.16-.832-.481-2.874 1.498-4.561 4.42-1.688 2.923-2.38 5.682-1.548 6.162.832.48 2.874-1.499 4.561-4.421Zm15.519 3.038c.875-.396.459-3.21-.931-6.284-1.39-3.075-3.226-5.247-4.102-4.851-.876.396-.459 3.21.93 6.284 1.39 3.075 3.227 5.247 4.103 4.851Z"/>
  <path fill="#202020" d="M30.142 7.54s.17 1.14.53 2.95c-4.43-1.31-8.56-2.92-12.25-4.87.03-.08.06-.15.1-.22l.22.04 1.11.21 1.23.23 9.06 1.67v-.01Zm85.658 5.31c-2.11-2.18-7.69-6.59-12.56-4.69-11.06 4.31-12.2 8.05-41.01 6.97 2.67-3.17 4.82-6 5.65-7.74 0 0 23.53-3.34 35.5-5.9.66-.09 4.76-1.13 5.7-1.48 4.22 4.15 6.11 8.72 6.72 12.84Z" opacity=".26"/>
</svg>
