<svg xmlns="http://www.w3.org/2000/svg" width="152" height="127" fill="none" viewBox="0 0 152 127">
  <path fill="#E4545B" d="m116.474 87.47 26.1-7.91s3.72 21.52 3.72 22.09c0 .57-2.74 8.36-29.81 7.68-.8-11.03 0-21.86 0-21.86h-.01Z"/>
  <path fill="#8E1739" d="m142.562 79.55-9.5 2.88c2.77 5.57 3.681 11.22 3.241 17.57-.18 2.71-.63 5.35-1.14 8 9.8-2.11 11.12-5.97 11.12-6.36 0-.57-3.721-22.09-3.721-22.09Z"/>
  <path fill="#E4545B" d="m28.993 77.97-2.98 27.53s-1.52.18-3.91.1c-3.95-.15-10.28-1.05-16.04-4.79a3.763 3.763 0 0 1-1.54-4.23l7.59-25.63 15.85 6.76 1.03.26Z"/>
  <path fill="#FF8894" d="m18.423 73.64-6.31-2.69-7.59 25.63c-.47 1.6.15 3.32 1.54 4.23.94.61 1.89 1.13 2.84 1.6-.22-2.76 1.79-10.23 2.49-12.91 0 0 4.38-14.66 7.03-15.85v-.01Z"/>
  <path fill="#fff" d="M33.354 4.4C21.944 19.31 13.914 32.73.724 57.78a6.233 6.233 0 0 0-.32 5.12c8.57 22.32 27.83 22.04 27.83 22.04s-3.01 24.44-3.01 33.1c61.33 21.22 92.99-4.27 92.99-4.27s-1.3-12.32-1.07-21.76c25.43-4.33 34.13-15.85 34.33-17.58.2-1.73-5.15-11.76-9.74-20.44-3.92-31.2-16.93-52.04-20.97-53.98-1.06.35-10.49 2.11-25.21 4.87-1.38.26-2.8.52-4.26.8-22.01 15.87-39.27 1.2-39.27 1.2s-1.62-.13-3.93-.36c-4.74-.46-12.37-1.29-14.74-2.12Z"/>
  <path fill="#E4545B" d="M96.442 4.71c-1.62.38-3.68.69-5.14.96-22.01 15.87-39.27 1.2-39.27 1.2s-3.33-.3-5.63-.53c0 0 24.04 23.81 50.05-1.63h-.01Z"/>
  <path fill="#F2F2E7" d="M118.222 113.76s-1.3-12.32-1.07-21.76l-3.32-44.08s-1.15 50.04-6.61 58.95c-5.46 8.91-30.73 19.48-30.73 19.48s24.13-.01 41.73-12.59Z"/>
  <path fill="#F9C06E" d="M128.094 9.61c-1.07-1.71-2.03-3.44-3.11-5.05.97 1.39 2.02 3.08 3.11 5.05Z"/>
  <path fill="#7A0A25" d="m28.243 84.93-2.22 20.57s-1.52.18-3.91.1c1.28-6.27 2.8-13.5 4.34-20.78 0 0 1.65.12 1.79.12v-.01Z"/>
  <path fill="#F2F2E7" d="m28.243 84.93 5.15-41.87s-2.55 21.05-6.94 41.75c1.13.13 1.8.12 1.8.12"/>
  <path fill="#FFFDFA" d="M5.993 72.99c-2.28-2.82-4.01-6.03-5.57-10.1-.64-1.67-.52-3.54.32-5.12 13.18-25.05 21.21-38.47 32.63-53.38.75.26 2.03.52 3.57.77-5.87 10.24-11.4 20.67-16.67 31.23 0 0-15.22 30.74-14.27 36.59l-.01.01Z"/>
  <path fill="#E4545B" d="M86.537 44.91c-.11-.14-.23-.28-.35-.42l.05.05c.1.12.2.25.3.37Zm-11.87 42.96c-.21.08-.42.15-.64.23a36.85 36.85 0 0 0 .63-.23h.01Zm12.409-31.48c-.02.47-.05.94-.09 1.41-.05.62-.13 1.23-.23 1.83-.03.18-.06.37-.09.56-.04.25-.09.49-.14.73-.01.06-.03.11-.04.17-.05.25-.11.5-.17.75-.05.22-.11.44-.17.66-.06.22-.13.44-.2.65-.15.48-.32.95-.5 1.42-.06.16-.13.32-.2.48-.08.21-.18.41-.27.62-.09.21-.19.41-.29.61-.09.18-.18.36-.28.54-.02.04-.04.08-.06.13-.09.16-.18.33-.27.49-.01.03-.03.05-.05.08-.1.18-.21.36-.31.53-.11.19-.23.39-.35.57-.1.17-.21.33-.32.5-.1.15-.2.3-.3.44-.09.13-.18.27-.28.4-.08.12-.17.24-.26.36l-.39.51c-.13.16-.26.33-.39.49-.15.19-.31.38-.47.56l-.45.51c-.13.15-.26.3-.4.44-.34.37-.7.74-1.06 1.09-.3.29-.6.57-.9.85-.06.05-.11.1-.17.15-.58.54-1.18 1.04-1.8 1.53-.34.27-.68.53-1.03.79-.13.1-.27.2-.41.3-.21.15-.43.31-.64.45-.26.18-.52.36-.78.53-.23.15-.47.31-.71.45l-.39.24c.47 1.68.87 3.39 1.23 5.06.26 1.25.62 2.54.59 3.8-.08.03-.17.06-.25.09-.4-2.91-1.12-5.78-2.15-8.61-5.65 3.25-12.25 4.8-18.72 3.93-.43-.05-.86-.12-1.29-.21-.04 0-.09-.01-.13-.02a22.417 22.417 0 0 1-6.24-2.2c-5.67-5.95-8.6-14.36-7.29-23.03.05-.36.11-.72.18-1.08 0-.04.02-.08.03-.13.05-.28.12-.57.18-.85.02-.08.03-.15.05-.23.06-.24.12-.49.18-.72a27.088 27.088 0 0 1 4.03-8.67c.08-.1.15-.21.23-.31.1-.13.19-.27.3-.4.14-.19.28-.39.43-.57.15-.19.31-.39.46-.57 6.19-7.4 16.09-11.32 26.25-9.39 5.84 1.11 10.9 4 14.7 7.99.05.06.11.11.16.17.06.06.11.11.16.17l-.18.09a36.163 36.163 0 0 1 .87 2.86c.85 3.25 1.26 6.63 1.11 9.97l-.03.04Z"/>
  <path fill="#F2F2E7" d="M87.077 56.39c-.02.47-.05.94-.09 1.41-.05.62-.13 1.23-.23 1.83-.03.18-.06.37-.09.56-.04.25-.09.49-.14.73-.01.06-.03.11-.04.17-.05.25-.11.5-.17.75-.05.22-.11.44-.17.66-.06.22-.13.44-.2.65-.15.48-.32.95-.5 1.42-.06.16-.13.32-.2.48-.08.21-.18.41-.27.62-.09.21-.19.41-.29.61-.09.18-.18.36-.28.54-.02.04-.04.08-.06.13-.09.16-.18.33-.27.49-.01.03-.03.05-.05.08-.1.18-.21.36-.31.53-.11.19-.23.39-.35.57-.1.17-.21.33-.32.5-.1.15-.2.3-.3.44-.09.13-.18.27-.28.4-.08.12-.17.24-.26.36l-.39.51c-.13.16-.26.33-.39.49-.15.19-.31.38-.47.56l-.45.51c-.13.15-.26.3-.4.44-.34.37-.7.74-1.06 1.09-.3.29-.6.57-.9.85-.06.05-.11.1-.17.15-.58.54-1.18 1.04-1.8 1.53-.34.27-.68.53-1.03.79-.13.1-.27.2-.41.3-.21.15-.43.31-.64.45-.26.18-.52.36-.78.53-.23.15-.47.31-.71.45l-.39.24c-.55-1.98-1.21-3.92-2.04-5.76-.5-1.11-1.15-2.21-2.08-2.96a2.56 2.56 0 0 0-.26-.2c-.08-.06-.17-.11-.26-.16l-.27-.15c-.19-.09-.38-.18-.59-.24h-.03c-.1-.03-.2-.06-.29-.08a2.5 2.5 0 0 0-.29-.05c-.42-.06-.82-.04-1.22 0-.15.02-.3.03-.45.06-.23.03-.46.07-.71.1-.12.02-.23.03-.35.04h-.1c-.21.02-.4.02-.59 0-.08 0-.16 0-.24-.02-.08 0-.16-.01-.24-.02-.4-.05-.8-.13-1.26-.23-.09-.02-.18-.03-.27-.04h-.33a3.2 3.2 0 0 0-1.56.42c-.23.13-.45.28-.64.45-.28.26-.52.57-.68.92-1.8 3.86-4.97 7.74-5.83 11.98-.04 0-.09-.01-.13-.02a22.417 22.417 0 0 1-6.24-2.2c-5.67-5.95-8.6-14.36-7.29-23.03.05-.36.11-.72.18-1.08 0-.04.02-.08.03-.13.05-.28.12-.57.18-.85.02-.08.03-.15.05-.23.06-.24.12-.49.18-.72a27.088 27.088 0 0 1 4.03-8.67c.08-.1.15-.21.23-.31.1-.13.19-.27.3-.4.1-.13.2-.26.31-.39.02.02.05.04.08.05.15.15.36.26.63.31 3.74.7 6.04 3.75 8.58 6.3.33.33.66.64 1 .94.14.13.28.24.42.36a.7.7 0 0 0 .1.08l.31.25c.09.08.19.15.28.22.08.06.16.12.24.17.1.07.19.14.29.21.07.05.14.09.21.13.13.09.27.18.4.26.05.03.09.05.13.08.18.1.35.2.53.29.2.1.39.2.59.29h.01c.1.05.21.1.32.14.16.07.32.13.49.19.17.06.35.12.52.18h.03l.09.03c.13.04.26.08.39.11.11.03.22.06.33.08.13.03.26.06.4.09.09.02.19.04.28.05.06.01.12.03.18.03.1.02.19.03.28.04h.05c.18.03.36.05.54.06.23.02.46.04.69.05.16 0 .33.01.49.01h.17c.26 0 .51-.01.75-.04h.03l.52-.06c.18-.03.34-.05.51-.09.67.11 1.36.15 2.06.07.19-.02.38-.05.56-.1.12-.03.24-.05.36-.09.09-.03.18-.05.26-.08.55-.19 1.05-.47 1.51-.82.1-.08.21-.16.3-.25.04-.04.08-.08.13-.11.21-.19.41-.4.59-.63.09-.1.18-.22.26-.33.23-.31.41-.63.59-.94.7-.46 1.42-.93 2.18-1.37 2-1.16 4.1-2.12 5.99-3.46 1.84-1.31 3.74-3.06 6.02-3.52.06-.01.12-.03.18-.05.03 0 .07-.03.1-.04.22.67.41 1.35.59 2.03.85 3.25 1.26 6.63 1.11 9.97l-.04.06Z"/>
  <path fill="#0C5654" d="M87.076 56.39c-.02.47-.05.94-.09 1.41-4.79 1.55-9.28 4.16-14.37 4.52l-.48.03c-.85.04-1.74.53-2.11 1.31a1.9 1.9 0 0 0-.14.4c-.27 1.23-.79 2.41-1.11 3.62-.11.38-.19.77-.25 1.16-.04.3-.05.6-.05.89-.25.16-.46.36-.64.59a2.26 2.26 0 0 0-.26-.16l-.27-.15c-.19-.09-.38-.18-.59-.24h-.03c-.1-.03-.2-.06-.29-.08a2.5 2.5 0 0 0-.29-.05c-.42-.06-.82-.04-1.22 0l-.45.06c-.23.03-.46.07-.71.1-.12.02-.23.03-.35.04h-.1c-.21.02-.4.02-.59 0-.08 0-.16 0-.24-.02-.08 0-.16-.01-.24-.02-.4-.05-.8-.13-1.26-.23-.09-.02-.18-.03-.27-.04h-.33a4.24 4.24 0 0 0-.53-1.12c-.05-.09-.12-.18-.19-.28-.52-.69-1.21-1.22-1.98-1.63-.26-.14-.52-.26-.8-.38-.26-.39-.56-.75-.9-1.07-.02-.45-.18-.91-.47-1.3-.27-.36-.66-.67-1.17-.88-.17-.07-.33-.13-.5-.2-1.1-.41-2.21-.68-3.42-.64-.36.01-.68.12-.98.27-3.53-1.09-6.59-3.64-10-5.21a2.81 2.81 0 0 0-1.25-.26c.05-.28.12-.57.18-.85.02-.08.03-.15.05-.23.06-.24.12-.49.18-.72a27.088 27.088 0 0 1 4.03-8.67c.08-.1.15-.21.23-.31.1-.13.19-.27.3-.4.1-.13.2-.26.31-.39.02.02.05.04.08.05.15.15.36.26.63.31 3.74.7 6.04 3.75 8.58 6.3.33.33.66.64 1 .94.14.13.28.24.42.36a.7.7 0 0 0 .1.08l.31.25c.09.08.19.15.28.22.08.06.16.12.24.17.1.07.19.14.29.21.07.05.14.09.21.13.13.09.27.18.4.26.05.03.09.05.13.08.18.1.35.2.53.29.2.1.39.2.59.29h.01c.1.05.21.1.32.14.16.07.32.13.49.19.17.06.35.12.52.18h.03l.09.03c.13.04.26.08.39.11.11.03.22.06.33.08.13.03.26.06.4.09.09.02.19.04.28.05.06.01.12.03.18.03.1.02.19.03.28.04h.05c.18.03.36.05.54.06.23.02.46.04.69.05.16 0 .33.01.49.01h.17c.26 0 .51-.01.75-.04h.03l.52-.06c.17-.03.34-.05.51-.09.67.11 1.36.15 2.06.07.19-.02.38-.05.56-.1.12-.03.24-.05.36-.09.09-.03.17-.05.26-.08.55-.19 1.05-.47 1.51-.82.1-.08.21-.16.3-.25.04-.04.08-.08.13-.11.21-.19.41-.4.59-.63.09-.1.18-.22.26-.33.23-.31.41-.63.59-.94.7-.46 1.42-.93 2.18-1.37 2-1.16 4.1-2.12 5.99-3.46 1.84-1.31 3.74-3.06 6.02-3.52.06-.01.12-.03.18-.05.03 0 .07-.03.1-.04.22.67.41 1.35.59 2.03.85 3.25 1.26 6.63 1.11 9.97l-.01.04Z"/>
  <path fill="#0C5654" d="M85.976 46.41c-3.91 2.07-9.56 5.43-15.11 10.11-.08.06-.15.13-.22.18-.83.7-1.62 1.41-2.4 2.13-.04.04-.08.07-.11.11-.77.72-1.52 1.45-2.24 2.19-.38.38-.74.77-1.11 1.16-.57.62-1.13 1.24-1.66 1.87a54.258 54.258 0 0 0-2.94 3.73s0 .01-.01.02c-.13.17-.25.34-.36.51-.36.51-.7 1.02-1.03 1.54-.13.2-.26.41-.39.61-2.58 4.14-4.41 8.46-5.48 12.95-.43-.05-.86-.12-1.29-.21-.04 0-.09-.01-.13-.02-.48-.09-.95-.2-1.41-.32 1.18-4.94 3.22-9.71 6.09-14.25a60.463 60.463 0 0 1 1.88-2.79l.02-.02c.44-.61.9-1.22 1.36-1.82.48-.62.98-1.23 1.49-1.83.28-.33.57-.67.86-1 .36-.4.72-.8 1.1-1.2a61.35 61.35 0 0 1 3.01-3.03c.04-.04.08-.08.12-.11.3-.28.6-.56.91-.84.51-.47 1.04-.94 1.58-1.4.18-.15.36-.31.54-.46 6.02-5.07 12.04-8.6 16.07-10.69a36.163 36.163 0 0 1 .87 2.86l-.01.02Zm.56-1.5c-.11-.14-.23-.28-.35-.42-.03-.04-.07-.08-.1-.13.05.05.1.11.15.18.1.12.2.25.3.37Z"/>
  <path fill="#0C5654" d="M73.446 84.29c.26 1.25.62 2.54.59 3.8-.08.03-.17.06-.25.09-.4-2.91-1.12-5.78-2.15-8.61-1.07-2.94-2.48-5.84-4.23-8.68-.23-.38-.47-.76-.72-1.14-.34-.52-.69-1.04-1.05-1.56-.01-.02-.03-.03-.04-.05-.86-1.23-1.78-2.44-2.77-3.65-.09-.12-.18-.23-.28-.34-.52-.63-1.07-1.26-1.63-1.89a88.3 88.3 0 0 0-.94-1.04c-.57-.62-1.16-1.22-1.76-1.83l-.2-.2-.06-.06a80.7 80.7 0 0 0-2.34-2.24 87.901 87.901 0 0 0-13.37-10.03c.11-.17.23-.34.35-.51.08-.1.15-.21.23-.31.1-.13.19-.27.3-.4.14-.19.28-.39.43-.57.15-.19.31-.39.46-.57 3.27 2 8.41 5.46 13.69 10.33.33.3.65.6.98.92.46.44.93.89 1.39 1.35l.08.08.08.08c.92.92 1.8 1.85 2.64 2.79.35.38.69.77 1.02 1.16.3.35.59.7.89 1.05.48.58.94 1.16 1.39 1.74.61.79 1.19 1.58 1.74 2.38.02.03.04.05.05.08.18.26.36.51.52.77.1.14.2.28.29.43.34.51.67 1.03.99 1.56 1.76 2.87 3.21 5.8 4.34 8.77-.26.18-.52.36-.78.53-.23.15-.47.31-.71.45l-.39.24c.47 1.68.87 3.39 1.23 5.06l-.01.02Zm1.851 3.34-.63.24c-.21.08-.42.15-.64.23.43-.15.85-.31 1.26-.47h.01Z"/>
  <path fill="#0C5654" d="M87.076 56.39c-.02.47-.05.94-.09 1.41-.05.62-.13 1.23-.23 1.83-3.25 1.14-7.02 2.26-11.14 3.1-1.02.21-2.03.39-3.03.55-.86.14-1.71.27-2.56.37l-.74.09c-.04 0-.08 0-.13.01a63.27 63.27 0 0 1-6.05.4h-.58c-1.05 0-2.1-.02-3.12-.06-.74-.04-1.49-.09-2.22-.15h-.04c-.57-.05-1.13-.11-1.7-.18-.54-.07-1.08-.14-1.61-.22-.59-.09-1.17-.19-1.74-.3-5.09-.97-9.84-2.71-14.17-5.19.05-.36.11-.72.18-1.08 0-.04.02-.08.03-.13.05-.28.12-.57.18-.85.02-.08.03-.15.05-.23.06-.24.12-.49.18-.72 4.66 2.85 9.8 4.73 15.41 5.62 1.05.17 2.11.3 3.18.4h.06c.91.08 1.83.14 2.76.18.59.03 1.2.03 1.8.04.7 0 1.41 0 2.12-.04a59.036 59.036 0 0 0 5.15-.4c.05 0 .1 0 .15-.02 1.05-.12 2.11-.28 3.18-.46.85-.14 1.7-.3 2.57-.48 4.54-.92 8.68-2.21 12.13-3.49h.02Z"/>
  <path fill="#E6E6E5" d="M63.165 68.66a6.13 6.13 0 1 0 0-12.26 6.13 6.13 0 0 0 0 12.26Z"/>
  <path fill="#0C5654" d="M72.387 60.36c-.31-1.34-.9-2.58-1.74-3.65a9.43 9.43 0 0 0-2.14-2.02 9.399 9.399 0 0 0-3.53-1.46 9.36 9.36 0 0 0-7.27 1.62c-.16.12-.33.24-.48.37-.6.49-1.14 1.05-1.6 1.69a9.21 9.21 0 0 0-1.64 3.75c0 .02 0 .04-.01.06-.13.66-.18 1.32-.16 1.97 0 .29.03.58.06.86a9.38 9.38 0 0 0 2.31 5.17c.57.65 1.23 1.22 1.98 1.69.08.05.17.11.25.16.92.55 1.95.95 3.06 1.16 2.1.4 4.17.07 5.95-.82.24-.11.47-.24.69-.38.28-.17.55-.36.82-.55a9.297 9.297 0 0 0 1.9-1.94 9.32 9.32 0 0 0 1.77-4.74c.03-.33.04-.65.03-.97 0-.67-.09-1.32-.24-1.96l-.01-.01Zm-14.43-1.22c.54-.84 1.26-1.54 2.11-2.03.73-.43 1.55-.72 2.42-.81.25-.03.49-.04.75-.04h.03c.36 0 .73.04 1.1.11.58.11 1.13.3 1.64.55.9.45 1.66 1.11 2.24 1.91.43.59.76 1.26.96 1.98.24.89.29 1.85.11 2.83 0 .04-.01.08-.02.11a6.222 6.222 0 0 1-1.33 2.74c-.63.75-1.44 1.34-2.34 1.72-1.09.46-2.33.62-3.58.38-.68-.13-1.31-.36-1.88-.68a6.104 6.104 0 0 1-2.13-1.97c-.4-.6-.7-1.27-.87-1.99-.21-.84-.24-1.73-.07-2.63.02-.09.03-.18.05-.26.16-.69.44-1.34.8-1.91l.01-.01Z"/>
  <path fill="#0C5654" d="M57.734 67.23c-3.95 2.53-11.29 7.87-13.8 12.47 1.32 1.46 3.68 3.97 6.01 5.33 2.62-3.44 6.44-11.95 8.61-16.37.09-.18.18-.35.27-.52.31-.56-.55-1.25-1.08-.91h-.01Zm20.242 7.72c-.58.54-1.18 1.04-1.8 1.53-.34.27-.68.53-1.03.79-.13.1-.27.2-.41.3-.21.15-.43.31-.64.45-.26.18-.52.36-.78.53-.23.15-.47.31-.71.45-1.43-3.19-2.83-6.55-3.7-9.02-.14-.4-.27-.78-.38-1.13-.23-.71-.18-1.22-.04-1.58.19-.51.56-.72.56-.72s.02.02.07.05c.2.16.82.67 1.71 1.44 1.77 1.53 4.6 4.09 7.16 6.92l-.01-.01Z"/>
  <path stroke="#0C5654" stroke-miterlimit="10" stroke-width="2" d="M63.163 65.92a3.44 3.44 0 1 0 0-6.88 3.44 3.44 0 0 0 0 6.88Z"/>
  <path fill="#053F3C" d="M92.213 57.52c-.17-.99-.39-1.96-.66-2.92-.91-3.19-2.39-6.18-4.35-8.82-.6-.81-1.24-1.59-1.92-2.33-.11-.12-.22-.23-.33-.34 2.13 5.94 2.87 12.58 1.35 18.73-1.74 7.07-7.05 12.78-12.99 16.7-6.4 4.21-14.26 6.18-21.83 4.75-2.22-.42-4.31-1.19-6.26-2.21a27.532 27.532 0 0 0 7.09 5.36c2.34 1.23 4.91 2.14 7.64 2.66 4.77.91 9.5.52 13.81-.91.94-.31 1.86-.68 2.75-1.09 7.81-3.58 13.84-10.76 15.57-19.85.63-3.31.64-6.59.11-9.73h.02Z"/>
  <path fill="#E9E9CB" d="M92.105 67.25a27.27 27.27 0 0 1-8.84 15.48c-.89-2.44-2.98-5.22-5.3-7.79.06-.05.11-.1.17-.15.31-.28.61-.56.9-.85.36-.36.72-.72 1.06-1.09.14-.15.27-.29.4-.44l.45-.51c.16-.18.32-.37.47-.56.13-.16.26-.33.39-.49l.39-.51c.09-.12.18-.24.26-.36.1-.13.19-.26.28-.4.1-.15.2-.29.3-.44.11-.16.22-.33.32-.5.12-.19.24-.38.35-.57.1-.18.21-.36.31-.53.02-.03.03-.05.05-.08.09-.16.18-.33.27-.49.02-.04.04-.08.06-.13.1-.18.19-.36.28-.54.1-.21.2-.41.29-.61.09-.2.18-.41.27-.62.07-.16.13-.32.2-.48.18-.46.35-.94.5-1.42.07-.22.13-.44.2-.65.06-.22.12-.44.17-.66.06-.25.12-.5.17-.75.01-.05.02-.11.04-.17.05-.24.1-.49.14-.73.03-.18.06-.37.09-.56 2.04-.72 3.87-1.44 5.46-2.11.53 3.14.52 6.42-.11 9.73l.01-.02Z"/>
  <path fill="#7A0A25" d="M74.022 88.1c-.08.03-.17.06-.25.09a27.28 27.28 0 0 1-13.8.91c-2.74-.52-5.3-1.43-7.65-2.66-.77-.4-1.51-.84-2.22-1.31-.15-.09-.29-.19-.44-.29l-.69-.48c-.21-.15-.43-.31-.64-.48-.04-.03-.07-.05-.1-.08-.16-.12-.32-.25-.47-.37-.08-.07-.17-.14-.25-.21-.15-.13-.31-.26-.45-.39-.02 0-.04-.03-.05-.05-.2-.18-.41-.36-.6-.54l-.6-.57c-.2-.19-.39-.39-.57-.58 1.52.8 3.14 1.44 4.83 1.88.46.13.94.23 1.41.32.04 0 .09.02.13.02.43.08.86.15 1.29.21 6.47.86 13.07-.69 18.72-3.93 0 0 2.06 6.31 2.4 8.52v-.01Z"/>
  <path fill="#053F3C" d="M52.914 83.52c-.43-.05-.86-.12-1.29-.21-.04 0-.09-.01-.13-.02a22.417 22.417 0 0 1-6.24-2.2c.19.2.38.39.57.58.2.2.4.39.6.57.2.18.4.37.6.54l.05.05.45.39c.08.07.17.14.25.21.15.13.31.25.47.37a.7.7 0 0 0 .1.08c.21.16.42.32.64.48l.69.48c.14.1.29.2.44.29.72.47 1.46.91 2.22 1.31.08.04.15.08.23.12.02-1.03.11-2.05.36-3.04h-.01Z"/>
  <path fill="#FFFDFA" d="M59.312 44.185c2.445-.787 3.99-2.78 3.453-4.451-.538-1.672-2.956-2.39-5.401-1.603-2.445.787-3.99 2.78-3.452 4.452.538 1.672 2.956 2.389 5.4 1.602Z"/>
  <path fill="#F2F2E7" d="M151.483 74.43c-.09.78-1.89 3.53-6.15 6.71l-8.13-16.36c-1.54-3.24-2.59-6.78-3.25-10.3-.68-3.62-.68-7.32-1.11-10.98-.92-7.78-2.55-15.81-5.36-23.14-.4-1.04-.84-2.07-1.3-3.09-1.71-3.76-5.69-5.93-9.77-5.29-23.52 3.7-60.18 4.2-81.71-7.23 0 0 .03-.07.04-.1.83.2 1.67.39 2.52.56 4.88 1.03 10 1.67 15.24 2.01 2.89 2.17 18.91 12.78 38.81-1.56 1.47-.28 2.88-.54 4.26-.8.84-.15 1.65-.31 2.45-.46 7.08-1.13 13.83-2.45 19.95-3.78.02 0 .04 0 .06-.01.93-.2 1.85-.41 2.75-.61.95.68 1.77 1.45 2.51 2.3.03.03.05.05.07.08.09.1.18.21.27.33.08.1.16.2.24.31.1.13.2.25.29.38.2.27.41.56.62.86.08.1.14.2.21.31 1.08 1.61 2.03 3.34 3.11 5.05 5.15 9.31 11.19 24.81 13.65 44.37 4.58 8.68 9.94 18.71 9.74 20.44h-.01Z"/>
  <path fill="#E4545B" d="M96.445 4.71c-4.88 4.77-9.69 7.81-14.29 9.6-12.19 4.74-22.86.68-29.31-3.17-3.07-1.84-5.18-3.63-6.03-4.4-.28-.25-.42-.39-.42-.39 2.3.22 5.63.53 5.63.53a23.085 23.085 0 0 0 .62.48c.15.11.33.24.54.38.05.03.1.07.15.1.16.11.33.22.51.34.06.04.13.08.19.12.09.05.19.12.29.18.18.11.37.23.57.35.2.11.4.23.62.35.14.08.29.16.44.24.15.08.31.17.47.25.2.1.4.2.61.3.13.06.27.13.41.19l.54.24c.32.14.65.28 1 .42.11.05.23.09.35.14.23.09.48.18.73.27.12.05.25.09.37.13.2.06.4.13.6.2l.67.21c.46.14.93.27 1.41.39.19.05.38.09.57.14.15.03.29.07.44.1.16.03.32.07.48.1.23.05.46.09.69.13.06.02.12.03.18.03.49.08.99.15 1.5.21.26.03.53.06.8.08.31.03.61.05.93.07.26.01.52.03.79.03h.07c.28 0 .55.01.83.01 6.02 0 13.16-1.8 20.88-7.38 1.47-.28 3.52-.58 5.14-.96l.03-.01Z"/>
  <path fill="#BC2F3D" d="M96.442 4.71c-4.88 4.77-9.69 7.81-14.29 9.6-9.98-.17-20.11-1.11-29.31-3.17-3.07-1.84-5.18-3.63-6.03-4.4 1.87.21 3.76.37 5.68.5.05.04.1.08.16.12.15.11.33.24.54.38.05.03.1.07.15.1.16.1.33.22.51.34.06.04.13.08.19.12.09.05.19.12.29.18.18.11.37.23.57.35.2.11.4.23.62.35.14.08.29.16.44.24.15.08.31.16.47.25.2.1.4.2.61.3.13.06.27.13.41.19l.54.24c.32.14.65.28 1 .42.11.05.23.09.35.14.23.09.48.18.73.27.12.05.25.09.37.13.2.06.4.13.6.2l.67.21c.46.14.93.27 1.41.39.19.05.38.09.57.14.15.03.29.07.44.1.16.03.32.07.48.1.23.05.46.09.69.13.06.02.12.03.18.03.49.08.99.15 1.5.21.26.03.53.06.8.08.31.03.61.05.93.07.26.01.52.03.79.03h.07c.28 0 .55.01.83.01 6.02 0 13.16-1.8 20.88-7.38 1.47-.28 2.88-.54 4.26-.8.3-.05.59-.11.88-.16l.02-.01Z"/>
</svg>
