<svg xmlns="http://www.w3.org/2000/svg" width="149" height="121" fill="none" viewBox="0 0 149 121">
  <path fill="#D23219" d="M148.377 96.48c-1.07.95-2.19 1.81-3.35 2.58a36.088 36.088 0 0 1-4.78 2.71c-1.6.75-3.23 1.37-4.86 1.91-1.62.53-3.24.96-4.82 1.3-1.78.37-3.5.66-5.12.85-1.72.19-3.33.31-4.76.35-1.36.05-2.55.04-3.54-.02h-.01c-1.7-.08-2.79-.27-3.01-.41-1.05-.73-3.31-8.28-3.48-9.34-.13-.87 0-1.93.43-2.66.09-.15.19-.28.3-.4-2.44-3.42-1.6-8.23-1.21-12 .07-.73.13-1.39.15-2.02a6.05 6.05 0 0 1-.14-.54c-.14-.69-.35-1.94-.62-3.6-.79-4.86-2.02-13.17-3.17-20.59-.08-.5-.15-.99-.23-1.48l-.12-.75c-.12-.78-.25-1.54-.37-2.29-.48-3.04-.93-5.73-1.3-7.69-.1.46.11 3.59.46 7.83.05.62.1 1.26.16 1.93l.09 1.08c.04.48.08.97.13 1.46v.03c.64 7.15 1.47 15.65 1.97 20.32l.03.23.11 1.06.07.65c.08.64.14 1.1.18 1.35.03.18.05.37.06.57.02.25.03.52.04.81v.1l.01.02c.1 3.54-.55 9.56-.55 9.56s.66 7.02 1.42 7.36c.18.08.32.31.45.75.38 1.23.64 3.98 1.09 8.68a4.7 4.7 0 0 1-2.34 4.53 73.753 73.753 0 0 1-9.82 4.58c-2.65 1-5.31 1.83-7.97 2.52a88.16 88.16 0 0 1-7.98 1.62c-2.14.32-4.26.57-6.36.73-2.02.17-4.02.27-5.99.31-1.7.03-3.39.01-5.04-.04-2.79-.08-5.5-.27-8.1-.54-2.24-.23-4.4-.52-6.46-.83-2.45-.4-4.76-.83-6.9-1.29-1.74-.38-3.37-.77-4.88-1.17-3.01-.77-5.51-1.54-7.39-2.17-2.32-.75-3.69-1.29-3.9-1.37-2.43-.9-1.45-6.44-1.59-10.71-.5.04-.99.08-1.48.08-2.03.09-3.95-.06-5.77-.39-2.1-.38-4.05-.96-5.84-1.69h-.01c-1.86-.75-3.53-1.64-5-2.58a31.796 31.796 0 0 1-4.5-3.4c-1.76-1.6-2.73-2.87-2.76-3.14-.09-.65.68-5.42 2.74-8.55.17-.27.36-.52.55-.75.45-.56.96-1.04 1.53-1.39-.93-1.02-1.73-4.71-2.01-6.9-.07-.47-.1-.88-.11-1.17-.01-.07-.01-.13-.01-.18.01-.56.11-1.9.64-3.56.12-.36.25-.73.41-1.13.43-1.06 1.04-2.21 1.9-3.35.93-1.27 2.15-2.52 3.76-3.67-.03-.06-.06-.11-.09-.19-.24-.6-.31-1.6-.3-2.68.03-1.8.3-3.86.39-4.69.02-.23.49-1.54 1.28-3.59.07-.17.13-.35.2-.53.16-.4.32-.83.5-1.28.19-.5.4-1.04.62-1.6 1.2-3.04 2.71-6.84 4.34-10.84.32-.8.65-1.61.99-2.43.22-.55.45-1.1.67-1.65.61-1.46 1.22-2.92 1.82-4.37.86-2.05 1.7-4.07 2.52-5.98 3.01-7.09 5.59-12.77 6.38-13.65.73-.81 1.52-1.38 2.25-1.79 1.57-.88 2.88-.98 2.88-.98s.41.06 1.14.15c.1.02.2.04.31.04 1.79.25 5.1.71 9.24 1.35.62.11 1.11.54 1.38 1.1 2.43 4.99 17.32 8.21 26.04.55.52-.46 1.15-.73 1.84-.73 5.2-.04 10.85-.58 16.3-1.36 2.25-.31 4.46-.66 6.6-1.04 1.97-.35 3.88-.71 5.68-1.06 8.42-1.67 14.51-3.33 14.51-3.33s8.41 4.93 13.15 10.54c0 0 .01.02.02.02 1 1.08 1.92 2.52 2.78 4.25.92 1.85 1.77 4.04 2.54 6.44.31.97.61 1.97.89 3 .42 1.49.8 3.03 1.17 4.62.23 1.02.46 2.06.68 3.1.52 2.51.98 5.07 1.4 7.63.16 1 .32 1.98.46 2.96.09.56.17 1.11.25 1.66.09.67.19 1.34.27 2 .06.38.11.77.16 1.15 1.31 9.96 1.94 18.81 2.13 22.15.04.75.06 1.23.06 1.35 0 1.22.44 1.03 1.45 1.54.26.14.56.32.91.59.29.29.57.6.82.93 1.15 1.48 1.85 3.23 2.22 5.01 0 .02.01.02.01.02.04.2.07.39.11.6.56 3.35.02 6.71-.81 8.48-.15.33-.31.6-.48.81.03.06.05.12.08.19.94 2.18 2.35 6.4 1.21 7.44Z"/>
  <path fill="#257435" d="m140.507 46.22-9.94 2.75-20.46 3.76-3.95.39-.12-.75c-.12-.78-.25-1.54-.37-2.29-.48-3.04-.93-5.73-1.3-7.69-.1.46.11 3.59.46 7.83.05.62.1 1.26.16 1.93l.09 1.08-27.26 2.7-27.51 1.27-22.91-2.46-16.51-5.84c.16-.4.32-.83.5-1.28.19-.5.4-1.04.62-1.6 1.2-3.04 2.71-6.84 4.34-10.84.32-.8.65-1.61.99-2.43 3.11 1.97 8.71 4.88 13.81 4.19 7.55-1.02 24.04.1 24.04.1l21.71 2.27 29.14-7.4 18.08.63 12.16-8.29c.42 1.49.8 3.03 1.17 4.62.23 1.02.46 2.06.68 3.1.52 2.51.98 5.07 1.4 7.63.16 1 .32 1.98.46 2.96.09.56.17 1.11.25 1.66.09.67.19 1.34.27 2Z"/>
  <path fill="#F29F92" d="M42.317 22.84c.02.11-.09.2-.19.16l-9.03-2.91c-.11-.03-.22.06-.2.17l1.89 9.5c.02.13-.12.23-.24.15l-9.05-6.09a.136.136 0 0 0-.15 0l-5.16 2.71c-.12.07-.26-.06-.2-.19.8-1.92 1.59-3.81 2.36-5.59.06-.14.11-.27.17-.4-.06.13.08.26.2.19l2.66-1.44c.05-.03.12-.02.16.02l4.65 3.69c.11.09.27-.01.24-.15l-1.65-7.21c-.03-.11.07-.2.18-.18l8.08 1.95c.1.02.19-.06.18-.16l-.39-6.28s-.02-.08-.05-.11l-5.72-5.28a.168.168 0 0 0-.18-.02c.03-.02.07-.04.1-.06 1.49-.83 2.74-.96 2.87-.97.06 0 .44.05 1.09.14.03 0 .06.02.08.04l5.29 4.87s.04.05.04.09l1.96 13.36h.01Z"/>
  <path fill="#257435" d="M90.107 5.44a39.843 39.843 0 0 1-5.22 7.27c-1.61 1.77-3.5 3.5-5.71 5.02a29.263 29.263 0 0 1-7.65 3.81c-2.36.78-4.95 1.3-7.8 1.47-1.07.07-2.18.09-3.33.05-1.32-.04-2.57-.14-3.76-.3-3.08-.39-5.73-1.12-8-2.09-2.94-1.25-5.26-2.9-7.08-4.69a22.019 22.019 0 0 1-3.64-4.74 24.346 24.346 0 0 1-2.61-6.71c1.79.24 5.1.7 9.24 1.35.62.1 1.11.53 1.38 1.09.25.52.64 1.02 1.15 1.5.68.63 1.57 1.21 2.62 1.72 1.14.55 2.47 1 3.92 1.33 1.31.3 2.73.49 4.19.54 1.48.07 3.01 0 4.54-.24 1.35-.2 2.7-.53 4.01-1.01 1.2-.44 2.36-.99 3.46-1.69.75-.47 1.47-1 2.15-1.6.18-.15.37-.29.57-.39a2.8 2.8 0 0 1 1.27-.34c5.2-.04 10.85-.58 16.3-1.35Z"/>
  <path fill="#F29F92" d="m132.627 15.21-3.84 7.12c-.22.41-.73.57-1.14.35l-9.55-5.15a.845.845 0 0 0-.88.05l-10.85 7.61a.84.84 0 0 1-1.31-.53l-1.88-10.22a.838.838 0 0 0-.83-.69h-9.14a.836.836 0 0 1-.74-1.23l4.24-8.13c1.97-.35 3.88-.71 5.68-1.06l.28-.06c-.2.06-.37.19-.48.37l-2.49 4.07c-.34.57.06 1.29.72 1.29h6.37c.47 0 .85.37.85.84v6.62c0 .69.78 1.09 1.34.68l7.17-5.3c.25-.18.6-.21.88-.07l8.76 4.51c.4.2.89.06 1.12-.33l2.83-4.89c.17-.3.15-.67-.06-.94.13.14.25.28.37.42 0 0 .01.02.02.02.92 1 1.77 2.3 2.57 3.85.13.25.13.55-.01.8Z"/>
  <path fill="#35A84C" d="M137.447 28.88c-3.17 2.26-12.55 8.17-22.43 6.71-.48-.08-.94-.25-1.39-.42-5.19-2.03-12.06 1.33-14.19 2.24-2.15.92-20.84 5.6-41.63 2.36-2.01-.32-4.94-.99-6.97-1.12-5.53-.36-13.18.67-16.93.88-3.71.19-13.28-1.31-17.56-4.34.54-1.34 1.1-2.71 1.66-4.08 3.31 1.46 9.67 3.98 13.32 3.64 5.09-.48 16.07-1.84 24.19.03 8.11 1.88 39.78.73 47.89-4.66 4.28-2.36 9.37.54 12.24.08 2.78-.45 12.48.07 19.74-8.94.76 2.36 1.44 4.93 2.06 7.62Z"/>
  <path fill="#8BDA9B" d="m61.947 44.67-3.14 4.99c-.19.31.03.71.39.71h5.67c.34 0 .57-.36.41-.67l-2.53-4.99a.46.46 0 0 0-.8-.04Zm20.64-.75-3.14 4.99c-.19.31.03.71.39.71h5.67c.34 0 .57-.36.41-.67l-2.53-4.99a.46.46 0 0 0-.8-.04Zm17.64-1.42-2.53 5.33c-.16.33.11.7.47.66l5.63-.67a.46.46 0 0 0 .33-.71l-3.1-4.66c-.2-.3-.65-.27-.8.06v-.01Zm-57.34.78-3.14 4.99c-.19.31.03.71.39.71h5.67c.34 0 .57-.36.41-.67l-2.53-4.99a.46.46 0 0 0-.8-.04Zm-21.48-2.32-3.32 3.4c-.23.23-.15.62.15.75l5.5 2.4c.37.16.76-.2.62-.59l-2.18-5.8a.46.46 0 0 0-.76-.16h-.01Zm91.24-1.37-2.64 6.06c-.15.33.14.7.5.64l7.13-1.13c.36-.06.52-.5.27-.77l-4.49-4.93a.455.455 0 0 0-.76.13h-.01Zm13.04-1.82-1.55 5.67c-.1.35.23.67.57.57l6.3-1.81c.36-.1.45-.57.16-.8l-4.75-3.85a.462.462 0 0 0-.74.24l.01-.02Zm13.43 1.95-2.81.73a.462.462 0 0 1-.56-.58l1.84-6.12c.14-.46.81-.43.9.04.35 1.78.67 3.59.97 5.4.04.24-.11.46-.34.52v.01Z"/>
  <path fill="#A42714" d="M107.627 78.9c-3.08 1.5-10.88 5.02-14.33 4.37-4.36-.82-22.95-.59-22.95-.59l-19.52 2.46-21.01-6.95-27.11-5.72c-.01-.07-.01-.13-.01-.18.01-.56.11-1.9.64-3.56.12-.36.25-.73.41-1.13.43-1.06 1.04-2.21 1.9-3.35.93-1.27 2.15-2.52 3.76-3.67-.03-.06-.06-.11-.09-.19-.24-.6-.31-1.6-.3-2.68.03-1.8.3-3.86.39-4.69.02-.23.49-1.54 1.28-3.59.21-.55.44-1.15.7-1.81 3.88 2.7 13.35 8.51 21.4 7.16 8.57 2.36 39.22 4.69 45.03 1.15 19.31-2.46 25.39-3.45 27.17-3.78.07.82.14 1.67.22 2.54v.03c.11 1.24.23 2.53.35 3.83.08.83.16 1.67.23 2.51.31 3.28.63 6.53.91 9.33.08.8.16 1.56.23 2.27.09.87.17 1.67.25 2.38l.03.23.11 1.06.07.65c.08.64.14 1.1.18 1.35.03.18.05.37.06.57Z"/>
  <path fill="#F29F92" d="M102.747 3.25c.33-.07.66-.13.98-.19-.35.07-.7.14-1.06.21.03-.01.05-.01.08-.02Z"/>
  <path fill="#35A84C" d="M105.207 54.69v.03s-19.51 3.9-28.31 3.63c-1.85-.06-3.71 0-5.55.25-9.5 1.23-27.95 1.36-37.57-1.44-.68-.19-1.37-.29-2.07-.31-9.26-.17-17.02-4.6-21.02-7.42.37-.97.82-2.12 1.32-3.41 2.48 2.48 8.25 6.69 19.31 7.1 1.25.04 2.49.23 3.71.52 7.43 1.71 25.01 3.5 37.44 1.34 1.07-.17 2.14-.29 3.22-.34 11.84-.56 26.09-3.73 29.14-4.42.11 1.38.24 2.9.38 4.47Z"/>
  <path fill="#A42714" d="m144.307 72.41-6.86 3.62-27.27 2.76c-.14-.69-.35-1.94-.62-3.6-.79-4.86-2.02-13.17-3.17-20.59-.12-.75-.23-1.5-.35-2.23l21.76-3.15 12.44-5c.15 1.06.29 2.11.43 3.15 1.31 9.96 1.94 18.81 2.13 22.15.04.75.06 1.23.06 1.35 0 1.22.44 1.03 1.45 1.54Z"/>
  <path fill="#35A84C" d="M140.667 47.37c-3.06 1.63-11.85 5.06-34.28 7.23-.24-1.56-.48-3.08-.72-4.52 2.24.08 19.02.35 34.32-7.52.25 1.62.47 3.23.68 4.81Zm-32.99 32.45v.02c-.04.36-.72 4.65-13.33 5.09-13.16.47-22.91-.93-25.08 0-2.17.93-20.94 3.25-26.34.62-5.4-2.63-12.73-5.87-12.73-5.87s-5.52.61-8-.63c-3.5-.12-14.22-2.69-19.38-5.4-.08-.59-.12-1.06-.12-1.35.01-.57.11-1.9.64-3.57 3.02 2.06 10.19 6.38 17.49 6.62 1.22.05 2.42.28 3.59.62 2.6.77 6.19-.06 6.19-.06s9.71 3.76 13.73 5.62c4.03 1.85 22.61.31 25.08 0 2.48-.31 19.67-.93 24-.16 4.34.78 13.76-6.33 13.76-6.33l.03.24.11 1.06.35 3.37v.11h.01Zm38.36-5.89c-.19.48-.5.92-.93 1.27-2.38 1.92-6.41 4.59-11.51 5.7-8.15 1.78-18.21 2.03-23.43.45.07-.72.13-1.39.15-2.01-.12-.33-.39-1.86-.76-4.14.29-.13.61-.18.94-.16 4.5.33 16.09 1.04 21.37-.15 4.47-1.01 8.27-3.52 10.26-5.03.21-.16.43-.27.67-.34.04.76.06 1.23.06 1.36 0 1.53.71.83 2.36 2.12.29.29.57.6.82.93Z"/>
  <path fill="#EBE4ED" d="m18.207 72.3-3.58-.85a.31.31 0 0 1-.22-.18l-2.62-6.24a.314.314 0 0 0-.4-.17l-6.96 2.51c-.27.1-.51-.18-.39-.43.39-.84.89-1.72 1.54-2.6.04-.05.09-.09.15-.11l6.7-2.49c.14-.05.31 0 .38.14l5.73 9.98c.14.24-.08.53-.35.46l.02-.02Z"/>
  <path fill="#EBE4ED" d="m22.207 67.34-3.16-.51a.279.279 0 0 1-.21-.14l-5.12-7.75c-.08-.12-.24-.17-.38-.12l-3.71 1.46c-.17.07-.37-.02-.41-.2-.15-.56-.2-1.34-.2-2.18 0-.11.06-.22.16-.28l5.08-2.8c.14-.08.32-.03.41.1l7.85 11.93c.15.23-.04.53-.31.48v.01Zm96.25-.28 8.61-13.16c.1-.15.3-.19.45-.1l13.2 8.48c.23.15.19.49-.07.58l-3.56 1.27c-.1.04-.22.02-.3-.04l-7.87-5.8a.324.324 0 0 0-.46.08l-5.71 8.6c-.05.08-.14.13-.23.14l-3.74.45a.326.326 0 0 1-.31-.5h-.01Z"/>
  <path fill="#EBE4ED" d="m123.467 73.47 6.04-10.74c.09-.16.3-.22.46-.11l9.26 6.05c.23.15.18.49-.07.58l-4.11 1.4c-.11.04-.24.01-.33-.07l-3.44-3.29a.328.328 0 0 0-.52.09l-2.79 5.58c-.04.09-.13.15-.22.17l-3.92.82a.325.325 0 0 1-.35-.48h-.01Z"/>
  <path fill="#F29F92" d="m114.957 88.67 2.94-2.76c.1-.09.25-.09.34 0l3.24 3.33c.1.1.09.27-.02.36l-2.83 2.41c-.09.08-.23.08-.32 0l-3.35-2.99a.238.238 0 0 1 0-.36v.01Zm11.11-.04 3.46-3.52c.09-.09.22-.1.32-.03l3.38 2.45c.11.08.14.24.05.35l-2.82 3.61a.25.25 0 0 1-.32.06l-4.03-2.54a.247.247 0 0 1-.04-.38Zm10.88-3.11 2.72-2.99c.07-.08.18-.1.28-.06l3.54 1.5c.14.06.19.22.12.35l-2.21 3.8c-.07.12-.22.16-.33.09l-4.05-2.3a.242.242 0 0 1-.06-.38l-.01-.01Zm10.89-6.56-2.52 3.79c-.07.1-.05.23.03.31l2.44 2.34c.15.14.39.06.41-.14.13-1.2.43-4.36.08-6.21-.04-.22-.33-.27-.45-.09h.01Zm-47.98 10.23-1.94 3.61c-.06.11-.03.24.07.31l2.77 2.1c.11.08.26.06.34-.04l2.67-3.29c.09-.11.07-.28-.05-.36l-3.5-2.42a.253.253 0 0 0-.36.09Zm-10.39 1.76-3.07 4.21c-.08.11-.05.27.06.35l3.87 2.69c.1.07.25.05.33-.04l2.86-3.45a.26.26 0 0 0-.02-.34l-3.67-3.45a.257.257 0 0 0-.37.03h.01Zm-13.62.56-3.22 3.66c-.09.1-.08.26.03.35l3.21 2.68c.09.07.21.08.3.01l3.75-2.68c.12-.09.14-.27.03-.38l-3.74-3.66c-.1-.1-.26-.09-.36.01v.01Zm-13.6-.58-2.77 3.44c-.07.09-.07.22 0 .31l2.77 3.44c.09.11.25.12.36.03l3.75-3.44c.11-.1.11-.26 0-.36l-3.75-3.44c-.1-.1-.27-.08-.36.03v-.01Zm-14.31-.05-2.82 2.65c-.09.09-.1.23-.03.33l2.85 3.65c.09.11.26.13.36.03l3.27-3.14c.1-.1.1-.26 0-.35l-3.3-3.16a.248.248 0 0 0-.34 0l.01-.01Zm-11.96-2.58-3.13 3.71c-.07.09-.08.22 0 .31l2.66 3.41c.09.12.27.13.37.02l3.28-3.44c.08-.09.09-.22.02-.32l-2.81-3.69c-.1-.12-.28-.13-.38 0h-.01ZM4.307 79l2.71-1.18c.12-.05.27 0 .32.12l1.46 3.22c.05.11.01.24-.09.31l-3.28 2.06c-.13.08-.3.03-.36-.11l-1-2.31.76-.57-.63-1.2a.244.244 0 0 1 .12-.34h-.01Zm10.03 1.25-2.67 1.62c-.1.06-.14.18-.11.29l1.35 4.01c.05.16.25.22.38.12l3.17-2.47c.1-.08.12-.21.06-.32l-1.85-3.16a.247.247 0 0 0-.34-.09h.01Zm8.33 1.74-3.21 2.06c-.1.06-.14.19-.09.3l1.6 3.82c.06.15.26.2.38.09l3.08-2.55c.08-.07.11-.19.07-.29l-1.48-3.34a.248.248 0 0 0-.36-.11l.01.02Zm6.21 2.06-1.77 1.4c-.09.07-.12.2-.07.3l1.34 2.78c.11.22.44.16.47-.08l.42-4.18c.02-.22-.23-.35-.4-.22h.01Z"/>
  <path fill="#EBE4ED" d="m32.557 70.39 1.86 2.91s.02.06 0 .08l-1.55 2.66c-.03.05-.1.05-.14 0l-1.72-2.44s-.02-.05 0-.08l1.41-3.13c.03-.06.11-.06.14-.01v.01Zm-2.03-.98-.74 3.37s-.03.05-.06.06l-2.98.79c-.06.02-.11-.03-.1-.09l.51-2.95s.02-.05.05-.06l3.21-1.21c.06-.02.12.03.11.09Zm-.75-2.13-2.91 1.86s-.06.02-.08 0l-2.66-1.55c-.05-.03-.05-.1 0-.14l2.44-1.72s.05-.02.08 0l3.13 1.41c.06.03.06.11.01.14h-.01Zm.98-2.03-3.37-.74s-.05-.03-.06-.06l-.79-2.98c-.02-.06.03-.11.09-.1l2.95.51s.05.02.06.05l1.21 3.21c.02.06-.03.12-.09.11Zm2.12-.74-1.86-2.91s-.02-.06 0-.08l1.55-2.66c.03-.05.1-.05.14 0l1.72 2.44s.02.05 0 .08l-1.41 3.13c-.03.06-.11.06-.14.01v-.01Zm2.03.97.74-3.37s.03-.05.06-.06l2.98-.79c.06-.02.11.03.1.09l-.51 2.95s-.02.05-.05.06l-3.21 1.21c-.06.02-.12-.03-.11-.09Zm.75 2.13 2.91-1.86s.06-.02.08 0l2.66 1.55c.05.03.05.1 0 .14l-2.44 1.72s-.05.02-.08 0l-3.13-1.41c-.06-.03-.06-.11-.01-.14h.01Zm-.97 2.03 3.37.74s.05.03.06.06l.79 2.98c.02.06-.03.11-.09.1l-2.95-.51s-.05-.02-.06-.05l-1.21-3.21c-.02-.06.03-.12.09-.11Zm20.98 3.48 1.7 3.11v.05l-1.77 2.62s-.06.03-.08 0l-1.59-2.62v-.04l1.67-3.1s.06-.03.08 0l-.01-.02Zm-1.91-1.11-1 3.4s-.02.03-.03.03l-3.1.6s-.06-.02-.05-.06l.73-2.98s.02-.03.03-.03l3.37-1.02s.07.02.06.06h-.01Zm-.56-2.15-3.11 1.7h-.05l-2.62-1.77s-.03-.06 0-.08l2.62-1.59h.04l3.1 1.67s.03.06 0 .08l.02-.01Zm1.12-1.9-3.4-1s-.03-.02-.03-.03l-.6-3.1s.02-.06.06-.05l2.98.73s.03.02.03.03l1.02 3.37s-.02.07-.06.06v-.01Zm2.14-.56-1.7-3.11v-.05l1.77-2.62s.06-.03.08 0l1.59 2.62v.04l-1.67 3.1s-.06.03-.08 0l.01.02Zm1.91 1.11 1-3.4s.02-.03.03-.03l3.1-.6s.06.02.05.06l-.73 2.98s-.02.03-.03.03l-3.37 1.02s-.07-.02-.06-.06h.01Zm.55 2.14 3.11-1.7h.05l2.62 1.77s.03.06 0 .08l-2.62 1.59h-.04l-3.1-1.67s-.03-.06 0-.08l-.02.01Zm-1.11 1.91 3.4 1s.03.02.03.03l.6 3.1s-.02.06-.06.05l-2.98-.73s-.03-.02-.03-.03l-1.02-3.37s.02-.07.06-.06v.01Zm24.03.08 1.81 2.77s.03.1 0 .15l-1.46 2.57c-.05.09-.18.1-.23.01l-1.68-2.32s-.03-.09-.01-.14l1.32-3.02c.04-.1.18-.11.25-.02Zm-2.13-.94-.67 3.24c-.01.05-.05.09-.1.11l-2.85.79c-.1.03-.19-.06-.18-.16l.45-2.83s.04-.09.09-.11l3.07-1.2c.1-.04.21.05.19.16Zm-.84-2.16-2.77 1.81s-.1.03-.15 0l-2.57-1.46c-.09-.05-.1-.18-.01-.23l2.32-1.68s.09-.03.14-.01l3.02 1.32c.1.04.11.18.02.25Zm.94-2.13-3.24-.67a.157.157 0 0 1-.11-.1l-.79-2.85c-.03-.1.06-.19.16-.18l2.83.45s.09.04.11.09l1.2 3.07c.04.1-.05.21-.16.19Zm2.16-.84-1.81-2.77s-.03-.1 0-.15l1.46-2.57c.05-.09.18-.1.23-.01l1.68 2.32s.03.09.01.14l-1.32 3.02c-.04.1-.18.11-.25.02Zm2.13.94.67-3.24c.01-.05.05-.09.1-.11l2.85-.79c.1-.03.19.06.18.16l-.45 2.83s-.04.09-.09.11l-3.07 1.2c-.1.04-.21-.05-.19-.16Zm.84 2.16 2.77-1.81s.1-.03.15 0l2.57 1.46c.09.05.1.18.01.23l-2.32 1.68s-.09.03-.14.01l-3.02-1.32c-.1-.04-.11-.18-.02-.25Zm-.94 2.13 3.24.67c.05.01.09.05.11.1l.79 2.85c.03.1-.06.19-.16.18l-2.83-.45s-.09-.04-.11-.09l-1.2-3.07c-.04-.1.05-.21.16-.19Zm22.93.85-.72 1.58c-.03.07-.12.08-.17.03l-1.93-2.24s-.03-.06-.02-.09l1.09-3.22c.03-.07.13-.09.18-.03l1.34 1.71.23 2.26Zm-3.72-4.73-.41 3.38s-.03.07-.06.08l-2.85 1.06a.094.094 0 0 1-.13-.1l.22-2.94s.02-.07.06-.08l3.04-1.5c.07-.04.15.02.14.1h-.01Zm-.97-2.05-2.68 2.11s-.07.03-.1.01l-2.76-1.27c-.07-.03-.08-.12-.02-.17l2.23-1.93s.06-.03.1-.02l3.21 1.09c.08.03.09.12.03.17l-.01.01Zm.77-2.14-3.38-.41s-.07-.03-.08-.06l-1.06-2.85c-.03-.07.03-.14.1-.13l2.94.22s.07.02.08.06l1.5 3.04c.04.07-.02.15-.1.14v-.01Zm2.78-2.67-.56 1.66c-.02.07-.12.09-.17.03l-2.1-2.68s-.03-.07-.02-.11l1.27-2.76c.03-.07.12-.08.17-.02l1.18 1.37c.08.83.16 1.67.23 2.51Z"/>
  <path fill="#257435" d="M107.747 110.71c-.7.4-1.41.78-2.12 1.14a71.72 71.72 0 0 1-7.7 3.44c-2.65 1-5.31 1.83-7.97 2.52-2.67.68-5.33 1.21-7.98 1.62-2.14.33-4.26.57-6.36.74-2.02.17-4.02.26-5.99.3-1.7.04-3.39.02-5.04-.03-2.79-.08-5.5-.27-8.1-.54-2.24-.23-4.4-.52-6.46-.84-2.45-.39-4.76-.83-6.9-1.29-1.74-.38-3.37-.77-4.88-1.16-3.01-.78-5.51-1.54-7.39-2.17-2.32-.76-3.69-1.3-3.9-1.38-2.43-.9-1.45-6.44-1.59-10.71-.5.05-.99.08-1.48.09-2.03.08-3.95-.07-5.77-.4-2.1-.37-4.05-.96-5.84-1.69h-.01c-1.86-.75-3.53-1.64-5-2.57a31.786 31.786 0 0 1-4.5-3.41c-1.76-1.6-2.73-2.87-2.76-3.13-.09-.66.68-5.42 2.74-8.55.62 1.03 1.6 2.35 3.09 3.73 1.15 1.06 2.6 2.15 4.44 3.16 1.53.85 3.34 1.64 5.45 2.29 1.49.48 3.13.88 4.95 1.19 1.46.26 3.02.45 4.71.57 1.06.09 2.17.14 3.32.16-.56 5.53-.52 6.12 0 6.93.08.13 1.26.68 3.32 1.41 1.95.69 4.69 1.54 8.06 2.37 1.7.43 3.54.84 5.53 1.22h.01c2.24.43 4.65.83 7.2 1.15 1.63.2 3.32.38 5.06.51h.01c2.89.23 5.91.35 9.04.32h.01c1.42 0 2.85-.05 4.3-.13.86-.04 1.72-.1 2.6-.17 1.92-.15 3.86-.37 5.83-.66 1.96-.28 3.95-.64 5.94-1.07 2.55-.56 5.11-1.24 7.68-2.08 2.53-.81 5.06-1.77 7.58-2.89 2.58-1.15 5.14-2.46 7.67-3.95.16.24.31.49.45.75.38 1.23.64 3.99 1.09 8.69.18 1.83-.74 3.61-2.34 4.52Zm40.63-14.23c-1.07.95-2.19 1.81-3.35 2.59a36.013 36.013 0 0 1-4.78 2.7c-1.6.75-3.23 1.38-4.86 1.91-1.62.53-3.24.96-4.82 1.3a54.807 54.807 0 0 1-9.88 1.2c-1.36.05-2.55.04-3.54-.02h-.01c-1.7-.08-2.79-.26-3.01-.41-1.05-.72-3.31-8.28-3.48-9.33-.13-.87 0-1.93.43-2.66.84.37 2.03.83 3.55 1.22.92.26 1.96.48 3.13.66 1.6.24 3.43.39 5.48.36 1.46-.01 3.03-.11 4.71-.33 1.32-.18 2.72-.42 4.18-.76 1.56-.35 3.19-.81 4.89-1.39 1.54-.51 3.14-1.13 4.8-1.85 1.72-.76 3.51-1.63 5.35-2.63.94 2.18 2.35 6.41 1.21 7.44Z"/>
  <path fill="#35A84C" d="M120.687 106.18c-1.36.05-2.55.04-3.54-.02h-.01c-2.83-4.8-2.79-9.08-2.51-11.17.92.25 1.96.47 3.13.65-.29 3.73 1.72 8.22 2.93 10.54Zm9.88-1.2c-1.78.38-3.5.66-5.12.85-1.93-3.76-2.26-7.5-2.21-9.83 1.46-.01 3.03-.11 4.71-.33 1.07 2.69 2.09 6.91 2.62 9.31Zm9.68-3.21c-1.6.75-3.23 1.38-4.86 1.91-.59-3.03-2.16-6.55-3.26-8.77 1.56-.35 3.19-.81 4.89-1.39 1.3 2.24 2.53 5.93 3.23 8.25Zm8.13-5.29c-1.07.95-2.19 1.81-3.35 2.59-.01-3.41-1.82-5.95-3.21-7.4 1.72-.76 3.51-1.63 5.35-2.63.94 2.18 2.35 6.41 1.21 7.44ZM5.837 86.42c-.92 1.64-2.41 4.68-3.07 7.95-1.76-1.6-2.73-2.87-2.76-3.13-.09-.66.68-5.42 2.74-8.55.62 1.03 1.6 2.35 3.09 3.73Zm9.89 5.45c-.87 2.58-2.51 6.36-3.45 8.48h-.01c-1.86-.75-3.53-1.64-5-2.57 1.12-2.05 2.33-5.87 3.01-8.2 1.53.85 3.34 1.64 5.45 2.29Zm9.66 1.76c-.34 2.69-1.06 6.54-1.5 8.81-2.03.08-3.95-.07-5.77-.4l2.56-8.98c1.46.26 3.02.45 4.71.57Zm12.86 22.98c-3.01-.78-5.51-1.54-7.39-2.17-.23-3.4-.57-9.45-.33-10.61.13-.65.77-1.23 1.5-1.7 1.95.69 4.69 1.54 8.06 2.37-1.07 1.13-2.46 2.64-2.62 3.09-.18.54.42 5.98.78 9.02Zm11.78 2.45c-2.45-.39-4.76-.83-6.9-1.29-.02-2.94-.05-8.5.02-9.51.06-.71 1.28-1.72 2.47-2.54h.01c2.24.43 4.65.83 7.2 1.15-1.23 1.1-2.82 2.53-3.26 2.92-.52.47.06 6.02.46 9.27Zm14.56 1.38c-2.79-.08-5.5-.27-8.1-.54.04-2.75.1-8.45-.01-10.11-.05-.91.61-1.74 1.41-2.41h.01c2.89.23 5.91.35 9.04.32-.93 1-2.36 2.54-2.84 3.23-.6.86.16 7.08.49 9.51Zm11.03-.27c-2.02.17-4.02.26-5.99.3-.02-2.63-.06-7.55.02-8.79.07-1.05.93-2.86 1.6-4.11.86-.04 1.72-.1 2.6-.17 1.01 1.12 1.8 2.75 1.82 3.64.03.99-.02 6.21-.05 9.13Zm6.36-.74c.02-2.77.05-7.64 0-9.14-.04-1.3-1.31-2.67-2.29-3.55 1.96-.28 3.95-.64 5.94-1.07 1.27 1.29 3.05 3.17 3.58 4.12.59 1.06.73 5.41.76 8.02-2.67.68-5.33 1.21-7.98 1.62h-.01Zm23.65-7.58a71.728 71.728 0 0 1-7.7 3.44c.04-2.51.08-6.4-.04-7.84-.11-1.35-2.65-2.88-4.59-3.86 2.53-.81 5.06-1.77 7.58-2.89 1.25.83 2.82 1.94 3.76 2.85 1.12 1.09 1.13 5.37.99 8.3ZM47.077 8.47l-9.16 2.77a24.346 24.346 0 0 1-2.61-6.71c1.79.24 5.1.7 9.24 1.35.62.1 1.11.53 1.38 1.09.25.52.64 1.02 1.15 1.5Zm6.54 3.05-4.98 9.15c-2.94-1.25-5.26-2.9-7.08-4.69l8.14-5.79c1.14.55 2.47 1 3.92 1.33Zm10.11 11.49c-1.07.07-2.18.09-3.33.05-1.32-.04-2.57-.14-3.76-.3l1.17-10.7c1.48.07 3.01 0 4.54-.24l1.38 11.19Zm15.45-5.28a29.263 29.263 0 0 1-7.65 3.81l-5.17-10.73c1.2-.44 2.36-.99 3.46-1.69l9.36 8.61Zm10.93-12.29a39.843 39.843 0 0 1-5.22 7.27l-12.35-5.58a2.8 2.8 0 0 1 1.27-.34c5.2-.04 10.85-.58 16.3-1.35Z"/>
  <path fill="#FBF4FD" d="M9.167 90.06c1.52-2.52 3.66-4.65 3.1-7.82-.32-1.8-.78-3.59-.57-5.43.25-2.19 1.25-4.23 2.87-5.73 1.86-1.72 4.2-2.38 6.56-3.05-2.9-4.75-2.25-10.93-.83-16.25 1.59-5.95 4.35-11.5 6.06-17.41 1.18-4.1 1.7-8.41 2.64-12.57 1.15-5.07 2.55-10.22 5.04-14.81.46-.85.97-1.66 1.52-2.43-.08-.01-.18-.02-.25-.04-.11 0-.21-.02-.31-.04-.73-.09-1.14-.15-1.14-.15s-1.31.1-2.88.98c-.73.41-1.52.98-2.25 1.79-.79.88-3.37 6.56-6.38 13.65-.82 1.91-1.66 3.93-2.52 5.98-.6 1.45-1.21 2.91-1.82 4.37-.22.55-.45 1.1-.67 1.65-.34.82-.67 1.63-.99 2.43-1.63 4-3.14 7.8-4.34 10.84-.22.56-.43 1.1-.62 1.6-.18.45-.34.88-.5 1.28-.07.18-.13.36-.2.53-.79 2.05-1.26 3.36-1.28 3.59-.09.83-.36 2.89-.39 4.69-.01 1.08.06 2.08.3 2.68.03.08.06.13.09.19-1.61 1.15-2.83 2.4-3.76 3.67-.86 1.14-1.47 2.29-1.9 3.35-.16.4-.29.77-.41 1.13-.53 1.66-.63 3-.64 3.56 0 .05 0 .11.01.18.01.29.04.7.11 1.17.28 2.19 1.08 5.88 2.01 6.9-.57.35-1.08.83-1.53 1.39-.19.23-.38.48-.55.75-2.06 3.13-2.83 7.9-2.74 8.55.03.27 1 1.54 2.76 3.14 1.16 1.06 2.67 2.25 4.5 3.4.03.02.06.03.08.05-.16-2.7.36-5.33 1.82-7.76Z" opacity=".3"/>
  <path fill="#00181C" d="M147.167 89.04c-.03-.07-.05-.13-.08-.19.17-.21.33-.48.48-.81.83-1.77 1.37-5.13.81-8.48-.04-.21-.07-.4-.11-.6 0 0-.01 0-.01-.02-.37-1.78-1.07-3.53-2.22-5.01-.25-.33-.53-.64-.82-.93-.35-.27-.65-.45-.91-.59-1.01-.51-1.45-.32-1.45-1.54 0-.12-.02-.6-.06-1.35-.19-3.34-.82-12.19-2.13-22.15-.05-.38-.1-.77-.16-1.15-.08-.66-.18-1.33-.27-2-.08-.55-.16-1.1-.25-1.66-.14-.98-.3-1.96-.46-2.96-.42-2.56-.88-5.12-1.4-7.62-.22-1.05-.45-2.09-.68-3.11-.37-1.59-.75-3.13-1.17-4.62-.28-1.03-.58-2.03-.89-3-.77-2.4-1.62-4.59-2.54-6.44-.86-1.73-1.78-3.17-2.78-4.25l-.02-.02C125.307 4.93 116.897 0 116.897 0s-6.09 1.66-14.51 3.33c-1.8.35-3.71.71-5.68 1.06-2.14.38-4.35.73-6.6 1.04-4.02.58-8.14 1.02-12.11 1.23 2.03.66 4.07 1.32 6.14 1.85 2.8.72 5.77 1.34 8.68 1.15 2.14-.14 4.25-.54 6.36-.9 4.35-.75 8.86-1.73 13.3-1.48 3.5.2 6.51 1.58 8.88 4.18 4.97 5.45 6.66 13.48 7.75 20.54 1.1 7.19 1.45 14.43 1.9 21.68.3 4.75.77 9.5.4 14.26-.34 4.31-1.37 8.41-2.93 12.37.98-.14 1.97-.35 2.89-.45 2.03-.21 4.12.02 5.77 1.32 2.91 2.29 3.12 6.6.51 9.17-2.13 2.11-5.19 2.93-7.95 3.9-4.13 1.45-8.56 2.27-12.94 1.88-2.08-.19-4.1-.63-6.06-1.24a4.87 4.87 0 0 0-.04 1.52c.17 1.06 2.43 8.61 3.48 9.34.22.14 1.31.33 3.01.41h.01c.99.06 2.18.07 3.54.02 1.43-.04 3.04-.16 4.76-.35 1.62-.19 3.34-.48 5.12-.85 1.58-.34 3.2-.77 4.82-1.3 1.63-.54 3.26-1.16 4.86-1.91 1.63-.77 3.24-1.67 4.78-2.71 1.16-.77 2.28-1.63 3.35-2.58 1.14-1.04-.27-5.26-1.21-7.44h-.01Zm-121.79 13.75c.58-.84 1.37-1.47 2.14-2.15.76-.67.83-.83.84-1.82.01-1.01-.09-2.01-.03-3.02.14-2.66.32-5.31.57-7.96.54-5.66 1.34-11.3 1.95-16.95.52-4.9.92-9.82 1.4-14.72.14-1.41 3.67-22.19 3.76-23.63-.62 1.86-6.79 23.24-7.31 25.12-2.42 8.65-3.96 17.41-4.82 26.34-.61 6.33.96 12.52-1.19 18.46.4 0 .8 0 1.21-.02.49 0 .98-.04 1.48-.08v.44-.01Z" opacity=".3"/>
</svg>
