<svg xmlns="http://www.w3.org/2000/svg" width="134" height="103" fill="none" viewBox="0 0 134 103">
  <path fill="#FFD357" d="M39.125 6.76c-2.21-.42-13.2-2.49-15.6-3.04a.52.52 0 0 0-.55.21c-4.71 6.54-18.94 33.22-22.47 39.88a3.992 3.992 0 0 0-.21 3.31c1.54 3.96 6.53 13.26 19.81 15.22.31.05.53.33.48.64-.65 3.99-4.49 27.92-3.05 30.01 1.54 2.25 43.25 19.74 79.37.18.91-.49 1.45-1.48 1.4-2.51-.74-15.61-1.88-26.44-1.88-26.44s21.35 3.34 35.49-8.95c1.16-1.01 1.62-2.61 1.21-4.09-4.16-15.03-14.25-48.76-25.41-51.16a.487.487 0 0 0-.24 0c-7.01 1.57-24.45 5.76-37.1 6.03a.54.54 0 0 0-.53.6c.39 3.72-3.96 12.06-16.3 11.73-10.46-.29-13.2-4.15-13.99-11.15a.554.554 0 0 0-.43-.48v.01Z"/>
  <path fill="#359445" d="M39.513 6.83c.73 7.25 3.37 11.26 14.03 11.55 13.05.36 17.16-8.99 16.19-12.32l6.75-.39s-3.69 19.53-22.78 18.44C34.203 23 34.933 8.06 34.563 5.88l4.96.94-.01.01ZM20.675 62.42C6.865 60.63 1.785 51 .265 47.03c-.39-1.02-.32-2.16.19-3.13 3.5-6.6 18.23-34.23 22.73-40.26.36.1 1.45.32 2.91.61L3.355 45.44s3.99 11.73 17.91 14.14c-.2 1.49-.58 2.83-.58 2.83l-.01.01Zm75.75 1.8s20.03 3.13 34.13-7.83c.46-.36.91-.73 1.35-1.11 1.16-1.01 1.62-2.61 1.21-4.1-4.18-15.09-14.33-49-25.53-51.18-1.15.26-2.6.59-4.27.97 0 0 12.58 1.57 25.61 50.2-6.14 7.4-21.28 11.22-33.07 8.37.4 3.28.56 4.68.56 4.68h.01Z"/>
  <path fill="#EAB52F" d="M87.373 96.73c-2.55 2.27 6.7-2.01 9.84-3.73a2.15 2.15 0 0 0 1.1-1.98c-.74-15.8-1.89-26.79-1.89-26.79l-4.33-35.95s5.14 59.69-4.72 68.45Z"/>
  <path fill="#E08C26" d="M103.965.82c.19-.04.38-.09.57-.13-.05.01-.1.02-.15.04-.13.03-.27.06-.42.09Zm3.63-.82c.09.02.18.04.27.07-.17-.03-.28-.04-.35-.04h-.05l.13-.03Z"/>
  <path fill="#EAB52F" d="M17.523 61.85c.99.24 2.04.43 3.14.57l5.79-28.08-8.93 27.51Z"/>
  <path fill="#FFE49F" d="M11.644 39.47c2.34-7.05 5.03-13.99 8.03-20.78 1.34-3.04 2.71-6 4.45-8.84 1.03-1.68 2.28-3.46 3.22-5.34-2.07-.41-3.71-.74-4.17-.86-4.5 6.02-19.23 33.65-22.73 40.26-.51.97-.59 2.11-.19 3.13.93 2.42 3.2 6.95 7.95 10.52-.46-6.08 1.56-12.43 3.44-18.08v-.01Z"/>
  <path fill="#fff" d="M39.932 9.63c-1.76-.42-3.48-.87-5.15-1.37-.72-.21-1.44-.44-2.14-.66a70.07 70.07 0 0 1-5.78-2.19c-1.22-.53-2.4-1.1-3.53-1.69.02-.01.05-.02.08-.02s.06.01.09.02c.23.05.55.12.93.2.12.02.24.04.36.07.13.03.28.06.42.09.08.02.16.03.25.05.09.01.19.03.29.06.04 0 .09.01.13.02.05.02.11.03.17.04.03 0 .07.02.1.02.16.03.33.07.51.1.22.04.45.09.69.14.87.17 1.83.35 2.8.54l2.35.45c.06 0 .11.02.17.03.64.12 1.28.24 1.88.36.02 0 .05.01.07.01.13.03.27.05.4.08.47.09.93.18 1.37.26.14.02.29.05.43.08.14.02.28.05.41.08.14.02.28.05.41.07.23.05.44.09.64.12.01.01.02.01.03.01.21.04.4.07.56.11.08.01.15.03.22.04h.03s.03 0 .04.02c.22.05.36.23.39.46l.12.92c.03.21.06.41.1.62.02.11.04.23.06.35.03.17.07.34.1.51Z"/>
  <path fill="#E4545B" d="M39.835 9.12c.03.17.07.34.1.51-1.76-.42-3.48-.87-5.15-1.37-.13-1.12-.16-1.96-.23-2.37.02 0 .05.01.07.01.13.03.27.05.4.08.47.09.93.18 1.37.26.14.02.29.05.43.08.14.02.28.05.41.08.14.02.28.05.41.07.23.05.44.09.64.12.01.01.02.01.03.01.21.04.4.07.56.11.08.01.15.03.22.04.03 0 .05 0 .07.02l.35.06c.01.14.03.27.04.4l.12.92c.03.21.06.41.1.62.02.11.04.23.06.35Zm36.647-3.44s-.66 3.49-2.86 7.44c-2.06-.01-4.13-.05-6.2-.12 1.06-1.28 1.75-2.64 2.12-3.86.04-.11.07-.22.09-.33.16-.61.24-1.19.24-1.7 0-.39-.05-.74-.14-1.05l6.75-.38Zm-43.81-.15c0 .69 0 1.38-.03 2.07a70.07 70.07 0 0 1-5.78-2.19c-1.22-.53-2.4-1.1-3.53-1.69-.14.01-.26.07-.34.18.07-.09.13-.18.19-.26.03.01.06.02.1.02.04.01.08.02.13.04.03 0 .06.01.09.02.23.05.55.12.93.2.12.02.24.04.36.07.13.03.28.06.42.09.08.02.16.03.25.05.09.01.19.03.29.06l.3.06c.03 0 .07.02.1.02.16.03.33.07.51.1.22.04.45.09.69.14.87.17 1.83.35 2.8.54l2.35.45c.06 0 .11.02.17.03Z"/>
  <path fill="#C9414E" d="M32.674 5.53c0 .69 0 1.38-.03 2.07a70.07 70.07 0 0 1-5.78-2.19c-1.22-.53-2.4-1.1-3.53-1.69-.05-.03-.1-.05-.15-.08.03.01.06.02.1.02.04.01.08.02.13.04.03 0 .06.01.09.02.23.05.55.12.93.2.08.01.15.03.23.05.04 0 .09.01.13.02l.12.03c.09.02.2.04.3.06.08.02.16.03.25.05.09.01.19.03.29.06.04 0 .09.01.13.02.23.05.47.09.71.14.25.05.5.1.76.15.87.18 1.83.36 2.8.55l.97.18 1.38.27c.06 0 .11.02.17.03Z"/>
  <path fill="#E4545B" d="M116.885 8.55c.09.15.19.3.28.46-.1-.16-.19-.31-.29-.46h.01Z"/>
  <path fill="#C9414E" d="M117.165 9.01c-.1-.16-.19-.31-.29-.46.09.15.19.3.28.46h.01Z"/>
  <path fill="#EA6A76" d="M27.352 4.5c-.16.31-.32.61-.49.91-1.22-.53-2.4-1.1-3.53-1.69-.14.01-.26.07-.34.18.07-.09.13-.18.19-.26.03.01.06.02.1.02.04.01.08.02.13.04.03 0 .06.01.09.02.23.05.55.12.93.2.12.02.24.04.36.07.13.03.28.06.42.09.08.02.16.03.25.05.09.01.19.03.29.06.04 0 .09.01.13.02.46.09.95.19 1.47.29Z"/>
  <path fill="#E08C26" d="m24.794 3.99.12.03c-.08-.02-.17-.03-.25-.05.04 0 .09.01.13.02Zm2.56.51c-.26-.04-.52-.1-.76-.15.25.05.5.1.76.15Z"/>
  <path fill="#EAB52F" d="M131.902 55.28a32.884 32.884 0 0 1-4.54 3.29c-1.93-12.19-5.66-23.99-10.55-35.41-1.85-4.33-3.92-8.91-6.48-13.16-7.2 1.37-16.25 2.44-25.98 2.89-3.51.16-7.1.24-10.73.23-2.06-.01-4.13-.05-6.2-.12 1.06-1.28 1.75-2.64 2.12-3.86.04-.11.07-.22.09-.33.16-.61.24-1.19.24-1.7 0-.39-.05-.74-.14-1.05l6.75-.38c2.57-.25 5.23-.6 7.88-1 1.18-.19 2.35-.38 3.51-.58.8-.14 1.59-.28 2.38-.42l.14-.03c.85-.15 1.69-.31 2.51-.47.64-.13 1.27-.25 1.89-.38.81-.16 1.6-.33 2.37-.49.78-.16 1.53-.32 2.26-.48.44-.09.86-.18 1.28-.28.47-.1.92-.2 1.36-.3.44-.1.85-.19 1.26-.29h.01c.21-.05.43-.09.63-.14.15-.03.29-.06.42-.09.05-.02.1-.03.15-.04h.02c.39-.09.76-.17 1.11-.25.35-.08.69-.16 1.01-.23.04-.01.07-.02.11-.02.13-.03.25-.06.37-.09.11-.02.21-.05.31-.07h.05c.07 0 .18.01.35.04h.03c.08.01.15.03.22.06h.02c.17.05.34.1.51.17.15.05.3.11.46.18 0 0 .03 0 .04.02.04.02.09.04.13.06.01 0 .02.01.02.01.13.06.26.13.39.2.17.09.34.19.51.3h.01c.1.06.2.13.3.2.07.04.14.09.21.14.09.06.18.13.27.2l.24.18c.09.07.18.15.27.22.08.07.16.14.24.2.04.04.07.07.11.1.06.05.12.11.18.16.03.03.07.06.1.09.03.02.06.05.09.08.12.12.24.24.37.36l.39.39s.03.04.06.06a23.645 23.645 0 0 1 1.43 1.66c.09.11.19.23.28.35.12.15.24.31.35.47.08.1.15.2.22.3.02.02.03.03.04.05.08.11.16.21.23.32.11.16.23.32.34.49.09.13.19.27.28.42.02.02.02.03.03.04.11.16.21.32.31.48.08.11.15.23.22.34 0 .01.01.01.02.02.02.04.04.07.06.11.01.02.02.03.03.05 7.25 11.57 13.25 31.88 16.24 42.63.41 1.48-.05 3.08-1.22 4.1h.01Z"/>
  <path fill="#E08C26" d="M107.995.09a.787.787 0 0 0-.1-.02c.03.01.06.01.1.02Zm.898.3.21.09c-.16-.07-.31-.13-.46-.18-.17-.07-.34-.12-.51-.17h.01c.06.02.13.04.19.06.02.01.03.01.04.01.15.04.33.11.52.19Zm.75.35s.03.01.04.03c-.13-.07-.26-.14-.39-.2.12.06.23.1.35.17Zm6.529 6.71s.04.07.06.1c-.01 0-.01-.02-.03-.04-.09-.15-.19-.29-.28-.42.08.12.16.24.25.36Zm.713 1.1s-.02-.03-.03-.05c.02.02.03.03.04.05h-.01Z"/>
  <path fill="#E4545B" d="M39.935 9.63c-1.76-.42-3.48-.87-5.15-1.37-.13-1.12-.16-1.96-.23-2.37.02 0 .05.01.07.01.13.03.27.05.4.08.47.09.93.18 1.37.26.14.02.29.05.43.08.14.02.28.05.41.08.14.02.28.05.41.07.23.05.44.09.64.12.01.01.02.01.03.01.21.04.4.07.56.11.08.01.15.03.22.04h.05c.01 0 0 0 .02.01.06 0 .11.02.15.03l.2.03c.01.14.03.27.04.4l.12.92c.03.21.06.41.1.62.02.11.04.23.06.35.03.17.07.34.1.51v.01Z"/>
  <path fill="#EAB52F" d="M39.934 9.63c-1.76-.42-3.48-.87-5.15-1.37-.72-.21-1.44-.44-2.14-.66a70.07 70.07 0 0 1-5.78-2.19c-1.22-.53-2.4-1.1-3.53-1.69-.05-.03-.1-.05-.15-.08.03.01.06.02.1.02.04.01.08.02.13.04.03 0 .06.01.09.02.23.05.55.12.93.2.08.01.15.03.23.05.08.02.17.03.25.05.09.02.2.04.3.06.08.02.16.03.25.05.09.01.19.03.29.06.04 0 .09.01.13.02.23.05.47.09.71.14.24.05.5.11.76.16.87.17 1.83.35 2.8.54l.97.18 1.38.27c.06 0 .11.02.17.03.64.12 1.28.24 1.88.36.02 0 .05.01.07.01.13.03.27.05.4.08.47.09.93.18 1.37.26.14.02.29.05.43.08.14.02.28.05.41.08.14.02.28.05.41.07.23.05.44.09.64.12.01.01.02.01.03.01.21.04.4.07.56.11.08.01.15.03.22.04h.03s.03 0 .04.02l.35.06c.01.14.03.27.04.4l.12.92c.03.21.06.41.1.62.02.11.04.23.06.35.03.17.07.34.1.51Z"/>
  <path fill="#E4545B" d="M76.482 5.68s-.66 3.49-2.86 7.44h-.01c-2.06-.01-4.12-.05-6.19-.12 1.06-1.28 1.75-2.64 2.12-3.86.04-.11.07-.22.09-.33.08-.31.14-.6.18-.89.04-.28.06-.55.06-.8 0-.4-.05-.75-.14-1.06l6.75-.38Z"/>
  <path fill="#1B7957" d="M39.935 9.63c-1.76-.42-3.48-.87-5.15-1.37-.13-1.12-.16-1.96-.23-2.37.02 0 .05.01.07.01.13.03.27.05.4.08.47.09.93.18 1.37.26.14.02.29.05.43.08.14.02.28.05.41.08.14.02.28.05.41.07.23.05.44.09.64.12.01.01.02.01.03.01.21.04.4.07.56.11.08.01.15.03.22.04h.05l.02.01c.06 0 .11.02.15.03l.2.03c.01.14.03.27.04.4l.12.92c.03.21.06.41.1.62.02.11.04.23.06.35.03.17.07.34.1.51v.01Zm36.547-3.95s-.66 3.49-2.86 7.44h-.01c-2.06-.01-4.12-.05-6.19-.12 1.06-1.28 1.75-2.64 2.12-3.86.04-.11.07-.22.09-.33.08-.31.14-.6.18-.89.04-.28.06-.55.06-.8 0-.4-.05-.75-.14-1.06l6.75-.38Z"/>
  <path fill="#E08C26" d="M107.595 0c.09.02.18.04.27.07-.17-.03-.28-.04-.35-.04h-.05l.13-.03Zm.738.19c.11.03.21.07.31.11-.17-.07-.34-.12-.51-.17h.01c.06.02.13.04.19.06Zm7.839 7.26.03.06c-.09-.15-.19-.29-.28-.42.08.12.16.24.25.36Z"/>
  <path fill="#D85968" d="M27.354 4.5c-.16.31-.32.61-.49.91-1.22-.53-2.4-1.1-3.53-1.69-.05-.03-.1-.05-.15-.08.03.01.06.02.1.02.04.01.08.02.13.04.03 0 .06.01.09.02.23.05.55.12.93.2.12.02.24.04.36.07.13.03.28.06.42.09.08.02.16.03.25.05.09.01.19.03.29.06.04 0 .09.01.13.02.46.09.95.19 1.47.29Z"/>
  <path fill="#1B7957" d="M27.354 4.5c-.16.31-.32.61-.49.91-1.22-.53-2.4-1.1-3.53-1.69-.05-.03-.1-.05-.15-.08.03.01.06.02.1.02.04.01.08.02.13.04.03 0 .06.01.09.02.23.05.55.12.93.2.12.02.24.04.36.07.13.03.28.06.42.09.08.02.16.03.25.05.09.01.19.03.29.06.04 0 .09.01.13.02.46.09.95.19 1.47.29Zm104.548 50.78a38.365 38.365 0 0 1-2.2 1.75l-.02.01c-.38.27-.76.54-1.15.79-.39.26-.78.5-1.17.74-.27-1.67-.57-3.33-.9-4.99.93-.75 1.76-1.56 2.47-2.41-12.8-47.76-25.16-50.13-25.6-50.2.41-.1.81-.19 1.2-.28 1.17-.26 2.2-.49 3.06-.69 11.2 2.18 21.34 36.09 25.53 51.18.41 1.48-.05 3.08-1.22 4.1Z"/>
  <path fill="#1B7957" d="M131.904 55.28a38.365 38.365 0 0 1-2.2 1.75l-.02.01c-.38.27-.76.54-1.15.79-.39.26-.78.5-1.17.74-.27-1.67-.57-3.33-.9-4.99.93-.75 1.76-1.56 2.47-2.41-12.8-47.76-25.16-50.13-25.6-50.2h-.01c.42-.1.82-.19 1.21-.28 1.17-.26 2.2-.49 3.06-.69 11.2 2.18 21.34 36.09 25.53 51.18.41 1.48-.05 3.08-1.22 4.1Z"/>
  <path fill="#5BBB68" d="M8.295 52.94c-.16 1.54-.2 3.08-.08 4.6-.38-.28-.74-.57-1.08-.85-.51-.42-.99-.87-1.43-1.32-.3-.3-.59-.6-.86-.91-.14-.15-.27-.3-.4-.45-.47-.55-.89-1.09-1.27-1.63-.13-.17-.25-.35-.37-.53-.16-.23-.31-.47-.46-.7-.29-.46-.55-.9-.78-1.33-.11-.2-.21-.39-.31-.58-.43-.85-.75-1.6-.99-2.22a3.73 3.73 0 0 1 .19-3.13c3.5-6.6 18.23-34.23 22.73-40.25.23.06.75.17 1.47.32.36.08.78.16 1.23.25.07.01.14.03.21.04L3.345 45.44s1.29 3.78 4.95 7.5Z"/>
  <path fill="#5BBB68" d="M8.295 52.94c-.16 1.54-.2 3.08-.08 4.6-.38-.28-.74-.57-1.08-.85-.51-.44-.99-.88-1.43-1.32-.3-.3-.59-.6-.86-.91-.14-.15-.27-.3-.4-.45-.47-.55-.89-1.09-1.27-1.63-.13-.17-.25-.35-.37-.53-.16-.23-.31-.47-.46-.7-.29-.46-.55-.9-.78-1.33-.11-.2-.21-.39-.31-.58-.43-.85-.75-1.6-.99-2.22a3.73 3.73 0 0 1 .19-3.13c3.5-6.6 18.23-34.23 22.73-40.25.23.06.75.17 1.47.32.36.08.78.16 1.23.25.07.01.14.03.21.04L3.345 45.44s1.29 3.78 4.95 7.5Z"/>
  <path fill="#359445" d="M71.352 43.13h-36.95v23.48h36.95V43.13Z"/>
  <path fill="#F7AF22" d="m52.733 45.4-14.94 9.46 15.04 9 14.84-8.9-14.94-9.56Z"/>
  <path fill="#00588A" d="M57.673 55.05c0 .41-.05.81-.14 1.19-.06.32-.17.64-.3.94a5.442 5.442 0 0 1-5.02 3.31c-3.01 0-5.44-2.43-5.44-5.44 0-.65.11-1.26.32-1.83.1-.31.24-.61.41-.89a5.414 5.414 0 0 1 4.71-2.73c3.02 0 5.45 2.43 5.45 5.45h.01Z"/>
  <path fill="#fff" d="M57.535 56.24c-.06.32-.17.64-.3.94-3.71-3.03-8.16-3.78-10.13-3.96.1-.31.24-.61.41-.89 2.16.22 6.35 1.02 10.02 3.91Z"/>
  <path fill="#359445" d="M21.255 59.58v.06a26.52 26.52 0 0 1-.56 2.71v.04l-.02.02c-.43-.06-.85-.12-1.27-.19-.64-.11-1.27-.23-1.87-.38l.94-2.89c.88.25 1.8.46 2.78.63Z"/>
  <path fill="#1B7957" d="M21.255 59.58v.06l-.56 2.71v.04l-.02.02c-.43-.06-.85-.12-1.27-.19-.64-.11-1.27-.23-1.87-.38l.94-2.89c.88.25 1.8.46 2.78.63Z"/>
</svg>
