<?xml version="1.0" standalone="no"?>
<!DOCTYPE svg PUBLIC "-//W3C//DTD SVG 20010904//EN"
 "http://www.w3.org/TR/2001/REC-SVG-20010904/DTD/svg10.dtd">
<svg version="1.0" xmlns="http://www.w3.org/2000/svg"
 width="833.000000pt" height="833.000000pt" viewBox="0 0 833.000000 833.000000"
 preserveAspectRatio="xMidYMid meet">

<g transform="translate(0.000000,833.000000) scale(0.100000,-0.100000)"
fill="#000000" stroke="none">
<path d="M2200 7593 c0 -5 -7 -107 -15 -228 -8 -121 -15 -241 -15 -267 l0 -48
1995 0 1995 0 0 48 c0 26 -7 146 -15 267 -8 121 -15 223 -15 228 0 9 -3930 9
-3930 0z"/>
<path d="M2116 6798 c-3 -7 -9 -134 -16 -283 -6 -148 -13 -289 -17 -312 l-5
-43 103 0 c189 1 416 41 558 100 229 94 360 269 373 495 l3 50 -498 3 c-393 2
-498 0 -501 -10z"/>
<path d="M3366 6788 c-3 -13 -6 -44 -6 -69 0 -133 -89 -343 -194 -456 -194
-209 -483 -317 -925 -343 -91 -6 -168 -14 -171 -18 -8 -8 -314 -5241 -307
-5248 3 -3 1425 -32 1434 -29 1 0 155 1040 343 2310 267 1810 345 2318 361
2351 66 138 251 200 391 131 65 -32 112 -81 141 -146 14 -33 108 -647 359
-2345 186 -1265 340 -2301 341 -2301 9 -3 1431 26 1434 29 7 7 -299 5240 -307
5248 -3 4 -80 12 -171 18 -442 26 -731 134 -925 343 -105 113 -194 323 -194
456 0 25 -3 56 -6 69 l-6 22 -793 0 -793 0 -6 -22z"/>
<path d="M5217 6803 c-7 -14 11 -146 26 -189 80 -222 263 -352 581 -413 112
-22 406 -45 417 -33 4 4 -2 129 -12 277 -10 149 -18 291 -18 318 l-1 47 -494
0 c-272 0 -497 -3 -499 -7z"/>
</g>
</svg>
